<?xml version="1.0" encoding="utf-8"?>
<!-- Generator: Adobe Illustrator 26.0.3, SVG Export Plug-In . SVG Version: 6.00 Build 0)  -->
<svg version="1.1" id="Layer_1" xmlns="http://www.w3.org/2000/svg" xmlns:xlink="http://www.w3.org/1999/xlink" x="0px" y="0px"
	 viewBox="0 0 380 320" style="enable-background:new 0 0 380 320;" xml:space="preserve">
<style type="text/css">
	.st0{clip-path:url(#SVGID_00000098943138083593902770000017852307414702916238_);fill:#557B2E;}
</style>
<g>
	<defs>
		<rect id="SVGID_1_" x="170" y="153.2" width="40" height="13.7"/>
	</defs>
	<clipPath id="SVGID_00000147215796554633976600000000369878003335510160_">
		<use xlink:href="#SVGID_1_"  style="overflow:visible;"/>
	</clipPath>
	<path style="clip-path:url(#SVGID_00000147215796554633976600000000369878003335510160_);fill:#557B2E;" d="M171.9,166.8h10.6
		v-13.7h-10.6c-1.1,0-1.9,0.9-1.9,1.9v9.9C170,166,170.9,166.8,171.9,166.8 M184.1,166.8h11.8v-13.7h-11.8V166.8z M207,157.8
		l-3.8,5.1l0,0l-3-2.7l1.1-1.2l1.7,1.5l2.8-3.7L207,157.8z M210,164.9v-9.9c0-1-0.9-1.9-1.9-1.9h-10.6v13.7h10.6
		C209.1,166.8,210,166,210,164.9"/>
</g>
</svg>
