<?xml version="1.0" encoding="utf-8"?>
<!-- Generator: Adobe Illustrator 26.5.0, SVG Export Plug-In . SVG Version: 6.00 Build 0)  -->
<svg version="1.1" id="Layer_1" xmlns="http://www.w3.org/2000/svg" xmlns:xlink="http://www.w3.org/1999/xlink" x="0px" y="0px"
	 viewBox="0 0 40 13.7" style="enable-background:new 0 0 40 13.7;" xml:space="preserve">
<style type="text/css">
	.st0{clip-path:url(#SVGID_00000119106239735882813540000000554995903635715475_);fill:#DD0000;}
</style>
<g>
	<defs>
		<rect id="SVGID_1_" y="0" width="40" height="13.7"/>
	</defs>
	<clipPath id="SVGID_00000093885922138055408620000013140351329270112921_">
		<use xlink:href="#SVGID_1_"  style="overflow:visible;"/>
	</clipPath>
	<path style="clip-path:url(#SVGID_00000093885922138055408620000013140351329270112921_);fill:#DD0000;" d="M1.9,13.7h10.6V0H1.9
		C0.9,0,0,0.9,0,1.9v9.9C0,12.8,0.9,13.7,1.9,13.7 M14.1,13.7h11.8V0H14.1V13.7z M34.7,2.6l-0.3,5.8h-1.6l-0.2-5.8H34.7z M32.9,9.5
		h1.6v1.6h-1.6V9.5z M40,11.8V1.9c0-1-0.9-1.9-1.9-1.9H27.5v13.7h10.6C39.1,13.7,40,12.8,40,11.8"/>
</g>
</svg>
