<?xml version="1.0" encoding="utf-8"?>
<!-- Generator: Adobe Illustrator 26.0.3, SVG Export Plug-In . SVG Version: 6.00 Build 0)  -->
<svg version="1.1" id="Layer_1" xmlns="http://www.w3.org/2000/svg" xmlns:xlink="http://www.w3.org/1999/xlink" x="0px" y="0px"
	 viewBox="0 0 380 320" style="enable-background:new 0 0 380 320;" xml:space="preserve">
<style type="text/css">
	.st0{clip-path:url(#SVGID_00000151543275911393691780000007102698270519687578_);fill:#52658B;}
</style>
<g>
	<defs>
		<rect id="SVGID_1_" x="170" y="153.2" width="40" height="13.7"/>
	</defs>
	<clipPath id="SVGID_00000007418589015552812110000002782328371549808012_">
		<use xlink:href="#SVGID_1_"  style="overflow:visible;"/>
	</clipPath>
	<path style="clip-path:url(#SVGID_00000007418589015552812110000002782328371549808012_);fill:#52658B;" d="M172.9,160
		c0-1.9,1.5-3.4,3.4-3.4c1.9,0,3.4,1.5,3.4,3.4c0,1.9-1.5,3.4-3.4,3.4C174.4,163.4,172.9,161.9,172.9,160 M171.9,166.8h10.6v-13.7
		h-10.6c-1.1,0-1.9,0.9-1.9,1.9v9.9C170,166,170.9,166.8,171.9,166.8 M184.1,166.8h11.8v-13.7h-11.8V166.8z M210,164.9v-9.9
		c0-1-0.9-1.9-1.9-1.9h-10.6v13.7h10.6C209.1,166.8,210,166,210,164.9"/>
</g>
</svg>
