<?xml version="1.0" encoding="UTF-8"?><svg id="Layer_1" xmlns="http://www.w3.org/2000/svg" xmlns:xlink="http://www.w3.org/1999/xlink" viewBox="0 0 40 14"><defs><style>.cls-1{fill:none;}.cls-2{clip-path:url(#clippath);}.cls-3{fill:#52658b;}</style><clipPath id="clippath"><rect class="cls-1" y=".16" width="40" height="13.68"/></clipPath></defs><g class="cls-2"><path class="cls-3" d="M2.9,7c0-1.89,1.53-3.42,3.42-3.42s3.42,1.53,3.42,3.42-1.53,3.42-3.42,3.42-3.42-1.53-3.42-3.42m-1,6.84H12.5V.16H1.9C.85,.16,0,1.01,0,2.06V11.94c0,1.05,.85,1.9,1.9,1.9m12.18,0h11.84V.16H14.08V13.84Zm25.92-1.9V2.06c0-1.05-.85-1.9-1.9-1.9h-10.6V13.84h10.6c1.05,0,1.9-.85,1.9-1.9"/></g></svg>