<?xml version="1.0" encoding="utf-8"?>
<!-- Generator: Adobe Illustrator 26.4.1, SVG Export Plug-In . SVG Version: 6.00 Build 0)  -->
<svg version="1.1" id="Layer_1" xmlns="http://www.w3.org/2000/svg" xmlns:xlink="http://www.w3.org/1999/xlink" x="0px" y="0px"
	 viewBox="0 0 320 320" style="enable-background:new 0 0 320 320;" xml:space="preserve">
<style type="text/css">
	.st0{fill:#4C6586;}
	.st1{fill:none;}
</style>
<g>
	<path class="st0" d="M120,95V45c0-2.8-2.2-5-5-5H85c-2.8,0-5,2.2-5,5v50c0,2.8,2.2,5,5,5h30C117.8,100,120,97.8,120,95 M240,95V45
		c0-2.8-2.2-5-5-5h-30c-2.8,0-5,2.2-5,5v50c0,2.8,2.2,5,5,5h30C237.8,100,240,97.8,240,95 M265,270h-60v-55h60V270z M265,200h-60
		v-55h60V200z M190,270h-60v-55h60V270z M190,200h-60v-55h60V200z M115,270H55v-55h60V270z M115,200H55v-55h60V200z M285,285V75
		c0,0,0-5-5-5h-30v25c0,9.4-7.6,15-15,15h-30c-9.4,0-15-7.6-15-15V70h-60v25c0,9.4-7.6,15-15,15H85c-9.4,0-15-7.6-15-15V70H40
		c0,0-5,0-5,5v210c0,0,0,5,5,5h240C280,290,285,290,285,285"/>
</g>
<rect class="st1" width="320" height="320"/>
</svg>
