<?xml version="1.0" encoding="utf-8"?>
<!-- Generator: Adobe Illustrator 26.5.0, SVG Export Plug-In . SVG Version: 6.00 Build 0)  -->
<svg version="1.1" id="Layer_1" xmlns="http://www.w3.org/2000/svg" xmlns:xlink="http://www.w3.org/1999/xlink" x="0px" y="0px"
	 viewBox="0 0 320 320" style="enable-background:new 0 0 320 320;" xml:space="preserve">
<style type="text/css">
	.st0{clip-path:url(#SVGID_00000088134864836228427030000009489908288449227689_);fill:#4C6586;}
	.st1{clip-path:url(#SVGID_00000014614858234308350350000005759795203265258423_);fill:#4C6586;}
	.st2{fill:none;}
</style>
<g>
	<g>
		<defs>
			<rect id="SVGID_1_" x="40" y="60" width="240" height="200"/>
		</defs>
		<clipPath id="SVGID_00000183235700935423418730000018019249349386117804_">
			<use xlink:href="#SVGID_1_"  style="overflow:visible;"/>
		</clipPath>
		<path style="clip-path:url(#SVGID_00000183235700935423418730000018019249349386117804_);fill:#4C6586;" d="M167.3,80h-40.7
			L120,60H40v30v160c0,5.5,4.5,10,10,10h220c5.5,0,10-4.5,10-10V144.6c-4,6.4-9.1,12-15,16.6V245H55V105V75h50l6.7,20h50.1
			C163,89.7,164.9,84.7,167.3,80"/>
	</g>
	<g>
		<defs>
			<rect id="SVGID_00000121963696845881416420000013399086685443942326_" x="40" y="60" width="240" height="200"/>
		</defs>
		<clipPath id="SVGID_00000038409819420005582600000009636482420634621329_">
			<use xlink:href="#SVGID_00000121963696845881416420000013399086685443942326_"  style="overflow:visible;"/>
		</clipPath>
		<path style="clip-path:url(#SVGID_00000038409819420005582600000009636482420634621329_);fill:#4C6586;" d="M261.1,105.7
			c0,10.7-21.4,32.1-21.4,21.4c0-21.4-21.4-21.4-21.4-32.1s10.7,0,21.4-10.7C247.3,76.8,261.1,95,261.1,105.7 M210.5,109.4
			c-0.9,11.2-0.4,13-3.9,19c-6.1,10.6-6.6,8.9-8.4,2.2c-2.2-8.4-11.3-19.8-6.7-25.1C196.1,100.3,211.3,99.6,210.5,109.4 M275,110
			c0-27.6-22.4-50-50-50s-50,22.4-50,50s22.4,50,50,50S275,137.6,275,110"/>
	</g>
</g>
<rect class="st2" width="320" height="320"/>
</svg>
