<?xml version="1.0" encoding="utf-8"?>
<!-- Generator: Adobe Illustrator 26.5.0, SVG Export Plug-In . SVG Version: 6.00 Build 0)  -->
<svg version="1.1" id="Layer_1" xmlns="http://www.w3.org/2000/svg" xmlns:xlink="http://www.w3.org/1999/xlink" x="0px" y="0px"
	 viewBox="0 0 320 320" style="enable-background:new 0 0 320 320;" xml:space="preserve">
<style type="text/css">
	.st0{fill:none;}
	.st1{clip-path:url(#SVGID_00000125563253984546920450000007481343000903921543_);fill:#4C6586;}
</style>
<rect class="st0" width="320" height="320"/>
<g>
	<g>
		<defs>
			<rect id="SVGID_1_" width="320" height="320"/>
		</defs>
		<clipPath id="SVGID_00000079445401843064514570000004377939457390590592_">
			<use xlink:href="#SVGID_1_"  style="overflow:visible;"/>
		</clipPath>
		<path style="clip-path:url(#SVGID_00000079445401843064514570000004377939457390590592_);fill:#4C6586;" d="M173.1,125h26.2
			L160,90l-39.4,35h26.2v35H173v-35H173.1z M198.3,225c0-5.5-4.5-10-10-10s-10,4.5-10,10s4.5,10,10,10
			C193.9,235,198.3,230.5,198.3,225 M226.7,225c0-5.5-4.5-10-10-10s-10,4.5-10,10s4.5,10,10,10S226.7,230.5,226.7,225 M240,240
			c0,5.5-4.5,10-10,10H90c-5.5,0-10-4.5-10-10v-30c0-5.5,4.5-10,10-10h140c5.5,0,10,4.5,10,10V240z M230,180H90
			c-5.5,0-9.4-4.4-8.7-9.9L93.7,75c0.7-5.5,5.8-9.9,11.3-9.9h110c5.5,0,10.6,4.4,11.3,9.9l12.4,95.1C239.4,175.6,235.5,180,230,180
			 M260,190c0,0-0.6-4.4-1.4-9.9L241.4,59.9c-0.8-5.4-5.9-9.9-11.4-9.9H90c-5.5,0-10.6,4.4-11.4,9.9L60,190v10v60
			c0,5.5,4.5,10,10,10h180c5.5,0,10-4.5,10-10V190z"/>
	</g>
</g>
</svg>
