<?xml version="1.0" encoding="utf-8"?>
<!-- Generator: Adobe Illustrator 26.5.0, SVG Export Plug-In . SVG Version: 6.00 Build 0)  -->
<svg version="1.1" id="Layer_1" xmlns="http://www.w3.org/2000/svg" xmlns:xlink="http://www.w3.org/1999/xlink" x="0px" y="0px"
	 viewBox="0 0 320 320" style="enable-background:new 0 0 320 320;" xml:space="preserve">
<style type="text/css">
	.st0{clip-path:url(#SVGID_00000075878717802407535770000006578731482785509031_);fill:#4C6586;}
</style>
<g>
	<g>
		<defs>
			<rect id="SVGID_1_" width="320" height="320"/>
		</defs>
		<clipPath id="SVGID_00000115503856727699492820000005841403028815047061_">
			<use xlink:href="#SVGID_1_"  style="overflow:visible;"/>
		</clipPath>
		<path style="clip-path:url(#SVGID_00000115503856727699492820000005841403028815047061_);fill:#4C6586;" d="M215,125
			c1.7,0,3.3,0.4,5,0.5V45c0-2.8-2.2-5-5-5H45c-2.8,0-5,2.2-5,5v210c0,2.8,2.2,5,5,5h101.6c-3.4-4.7-6.4-9.7-8.8-15H55V55h150v70.6
			C208.3,125.2,211.6,125,215,125 M132.4,230c-1.5-6.4-2.4-13.1-2.4-20c0-4.5,0.4-8.9,1-13.3L97.8,230H132.4z M76.6,230l68-68H70v68
			H76.6z M261.7,233.4c-1.3,2.6-4,4.2-6.8,4.2c-1.1,0-2.3-0.2-3.4-0.8l-40-20c-2.6-1.3-4.2-3.9-4.2-6.8v-40c0-4.2,3.4-7.5,7.5-7.5
			s7.5,3.4,7.5,7.5v35.3l35.8,17.9C262.1,225.1,263.6,229.6,261.7,233.4 M285,210c0-38.7-31.3-70-70-70s-70,31.3-70,70
			s31.3,70,70,70S285,248.7,285,210"/>
	</g>
</g>
</svg>
