<?xml version="1.0" encoding="utf-8"?>
<!-- Generator: Adobe Illustrator 26.4.1, SVG Export Plug-In . SVG Version: 6.00 Build 0)  -->
<svg version="1.1" id="Layer_1" xmlns="http://www.w3.org/2000/svg" xmlns:xlink="http://www.w3.org/1999/xlink" x="0px" y="0px"
	 viewBox="0 0 320 320" style="enable-background:new 0 0 320 320;" xml:space="preserve">
<style type="text/css">
	.st0{clip-path:url(#SVGID_00000013160312981360914110000008465782237326246058_);fill:#4C6586;}
	.st1{fill:none;}
</style>
<g>
	<g>
		<defs>
			<rect id="SVGID_1_" x="15.7" y="51.1" width="288.7" height="197.8"/>
		</defs>
		<clipPath id="SVGID_00000112619026577393422280000010968148973904305562_">
			<use xlink:href="#SVGID_1_"  style="overflow:visible;"/>
		</clipPath>
		<path style="clip-path:url(#SVGID_00000112619026577393422280000010968148973904305562_);fill:#4C6586;" d="M247.2,196.4
			c-2.6,3.2-2,8,1.2,10.5l29.7,23.7c1.4,1.1,3,1.6,4.7,1.6c2.2,0,4.4-1,5.9-2.8c2.6-3.2,2-8-1.2-10.5l-29.7-23.7
			C254.5,192.6,249.7,193.2,247.2,196.4 M225.1,150.1c0,23.4-3.6,45.6-10.1,62.5c-6,15.5-12.5,21.2-15.3,21.2
			c-2.7,0-9.3-5.8-15.3-21.2c-4-10.4-6.9-22.8-8.6-36.3c11.5-2.2,20.2-13.1,20.2-26.5c0-13.3-8.7-24.2-20.1-26.5
			c1.7-13.3,4.5-25.5,8.5-35.8c6-15.5,12.6-21.2,15.3-21.2s9.3,5.8,15.3,21.2C221.5,104.5,225.1,126.7,225.1,150.1 M159.2,150.1
			c0,24.8,3.8,47.4,10,64.8c-1.9-1.9-4-3.9-6.1-6.1c-19.6-19.6-57.2-30.2-68.2-30.2c-2.4,0-4.6,1.1-6,3s-1.9,4.3-1.2,6.6
			c0.2,0.5,1.6,5.5,3.6,9.3c8.8,17.6,11.9,26.3,11.9,33.6c0,0.5,0,0.9-0.1,1.1c-1.5,0.4-4.9,0.4-7.4,0.4c-5,0-8.1-0.7-9-2
			c-2-2.6-2-11.2-2-13.9c0-2.6,0-9.3-15.2-34.5c-1.4-2.2-3.8-3.6-6.4-3.6H50.2c-10.6,0-19.5-13.1-19.5-28.5s8.9-28.5,19.5-28.5h44.6
			c11.1,0,48.7-10.6,68.3-30.2c2.2-2.2,4.2-4.2,6.1-6.1C163,102.7,159.2,125.3,159.2,150.1 M240.1,150.1c0-53.2-17.3-96.6-38.8-98.7
			c-0.5,0-2-0.6-7-0.2c-2,0.2-4.2,0.6-6.1,1.1c-9.8,2.6-19.3,12.1-35.6,28.5c-16.4,16.4-50,25.8-57.7,25.8H50.2
			c-19,0-34.5,19.5-34.5,43.5s15.5,43.5,34.5,43.5h8.5c10.6,18.1,10.9,22.9,10.9,23.1c0,19.6,4.3,30.9,26,30.9c5.3,0,9.8,0,13.8-1.7
			s8.7-5.6,8.7-14.8c0-10.1-3.8-20.4-10.9-35.1c13.5,3.8,33.7,11.9,45.3,23.4c19.4,19.4,29.2,29.2,41.3,29.2c0.5,0,4.5,0.2,5.9,0.2
			C221.9,248.9,240.1,204.6,240.1,150.1 M288.6,70.3c-2.6-3.2-7.3-3.8-10.5-1.2l-29.7,23.7c-3.2,2.6-3.8,7.3-1.2,10.5
			c1.5,1.9,3.7,2.8,5.9,2.8c1.6,0,3.3-0.5,4.7-1.6l29.7-23.7C290.7,78.3,291.2,73.6,288.6,70.3 M304.3,149.9c0-4.1-3.4-7.5-7.5-7.5
			h-37.5c-4.1,0-7.5,3.4-7.5,7.5s3.4,7.5,7.5,7.5h37.5C301,157.4,304.3,154,304.3,149.9"/>
	</g>
</g>
<rect class="st1" width="320" height="320"/>
</svg>
