<?xml version="1.0" encoding="utf-8"?>
<!-- Generator: Adobe Illustrator 28.1.0, SVG Export Plug-In . SVG Version: 6.00 Build 0)  -->
<svg version="1.1" id="Layer_1" xmlns="http://www.w3.org/2000/svg" xmlns:xlink="http://www.w3.org/1999/xlink" x="0px" y="0px"
	 viewBox="0 0 320 320" style="enable-background:new 0 0 320 320;" xml:space="preserve">
<style type="text/css">
	.st0{clip-path:url(#SVGID_00000109024382156017590340000012466939880513872052_);fill:#4C6586;}
	.st1{fill:none;}
</style>
<g>
	<defs>
		<rect id="SVGID_1_" x="35" y="38" width="250" height="243.9"/>
	</defs>
	<clipPath id="SVGID_00000075155230203946061050000017522220125411738752_">
		<use xlink:href="#SVGID_1_"  style="overflow:visible;"/>
	</clipPath>
	<path style="clip-path:url(#SVGID_00000075155230203946061050000017522220125411738752_);fill:#4C6586;" d="M220,114.3
		c-0.6,0.1-1.1,0.1-1.7,0.2c-12.9,1.8-24.4,4.8-36.3,9.3c-9.2,3.5-18.8,5.8-30.4,7.2c-22.6,2.7-42.4-0.5-55-3.6L85,124.4v1v32.2
		c-14,0-26.2-2-35-4v-50c17.9,4.1,49.4,8,82-4.4c41.2-15.7,71.3-11.7,88-6.5V114.3z M155,145.7c12.1-1.6,22.5-4.1,32.4-7.8
		c10.1-3.9,20-6.5,31-8.2v12.5v0v50v57.2c-0.7,0.1-1.4,0.2-2.1,0.3c-14.1,2-26.7,5.2-39.5,10.2c-6.7,2.6-13.7,4.4-21.7,5.6V145.7z
		 M285,272.5v-0.6V125.4v-2l-5.6-2.4c-7.9-3.4-23-8.3-44.4-7.9V99.1V65.6V49.1c0,0-37.5-25-103,0c-49.8,19-97,0-97,0v43v7v50v23v27
		c0,0,21.1,8.5,50,8.4v64.8v1.7l6.8,1.9c7.8,2.2,23.7,6,42.8,6c5.6,0,11.1-0.3,16.5-0.9l0.5-0.1c11.5-1.4,21.1-3.7,30.4-7.2
		c11.8-4.5,23.3-7.5,36.3-9.3c24.7-3.5,43.2,0.2,54.3,3.9L285,272.5z"/>
</g>
<rect x="0" class="st1" width="320" height="320"/>
</svg>
