<?xml version="1.0" encoding="utf-8"?>
<!-- Generator: Adobe Illustrator 28.0.0, SVG Export Plug-In . SVG Version: 6.00 Build 0)  -->
<svg version="1.1" id="Layer_1" xmlns="http://www.w3.org/2000/svg" xmlns:xlink="http://www.w3.org/1999/xlink" x="0px" y="0px"
	 viewBox="0 0 320 320" style="enable-background:new 0 0 320 320;" xml:space="preserve">
<style type="text/css">
	.st0{clip-path:url(#SVGID_00000024681260158898778340000009237463087421258152_);fill:#4C6586;}
	.st1{fill:none;}
</style>
<g>
	<defs>
		<rect id="SVGID_1_" x="58.1" y="73.9" width="203.7" height="172.1"/>
	</defs>
	<clipPath id="SVGID_00000170995189466072390340000012878331778925829255_">
		<use xlink:href="#SVGID_1_"  style="overflow:visible;"/>
	</clipPath>
	<path style="clip-path:url(#SVGID_00000170995189466072390340000012878331778925829255_);fill:#4C6586;" d="M249,189.7
		c-4.4,2.8-27.9-16.7-28.8-17.2c-2.2-1.4-5.1-0.9-6.7,1.2c-1.6,2.1-1.3,5,0.7,6.7c0.2,0.2,26.3,16,18.3,23.8
		c-4.6,3.9-10.4-0.7-11.7-1.5c-0.7-0.5-13.1-10.4-13.8-10.9c-2.2-1.5-5.2-1-6.8,1.2c-1.6,2.2-1.2,5.2,0.9,6.9
		c2.5,2.1,4.6,3.7,6.4,5.1c3.6,3.3,7,7.4,7.5,10.7c0.6,3.8-7.4,7.8-9.7,6.8c-2.3-1-14-13.8-15.2-14.6c-2.1-1.5-5.1-1.1-6.7,0.9
		c-1.7,2-1.5,5,0.4,6.8c0,0,15.7,12,11.8,17.9c-2.8,3.7-5.6,5.5-21.2-5.7c3.5-6.1,3.2-12.8-1.3-18.8c-3-4.1-6.2-6.2-9.8-6.4
		c-0.3,0-0.7,0-1,0c-0.5-3.3-2.3-6.4-5.5-9.4c-4.6-4.4-9.2-6.6-13.7-6.4c-2.3,0.1-4.4,0.8-6.2,1.8c-0.5-2.6-1.6-5.1-3.4-7.5
		c-2.1-2.8-5-4.4-8.4-4.6c-1.2-0.1-2.3,0.1-3.4,0.3c0.7-4.3-0.4-8.7-3.5-12.8c-1.7-2.2-3.8-3.7-6.3-4.3
		c-4.5-6.9-10.6-13.7-14.9-18.2c11.9-9.6,26-24.7,36.2-36.1c3.3,2.5,8.4,6.2,11.4,7.2c3,1,7.5,1.9,12.4,2.9c0.4,0.1,0.9,0.2,1.3,0.3
		c-0.8,0.6-1.7,1.3-2.6,2c-13.5,10.4-22.9,18.4-20.4,26.1c1.4,4.2,5.5,7.8,11.3,10.1c3.1,1.2,6.3,1.8,9.3,1.8c3.2,0,6.2-0.7,8.6-2.1
		c4.5-2.6,6.5-5.2,8-7.1c1.1-1.4,1.6-2.1,3-2.8c6.7-3.2,14.4-4.1,22.6-2.6c1.6,0.3,3.3,0.8,5,1.3c11,8,21.3,15.5,25,18.3
		c7.4,5.6,20.4,16.6,21.7,17.7C251.3,180.1,255.5,185.5,249,189.7 M99.9,175.4c2.4-2.6,7-8,10.3-5.4c3.7,3.4,5.7,5.6-1.3,12.4
		c-2.2,2.3-6,6-8,5c-2.5-1.4-4-4-4-4C94.5,180.4,99.6,175.7,99.9,175.4 M114.9,191.4c2.5-2.6,7.7-7.6,12-5c5,3,4.9,6-3,12.9
		c-4,4.1-7.3,4.8-10.5,1.5C111,198.5,111.4,194.5,114.9,191.4 M146.9,196.4c2,1,9,8,3.6,12.7c-1,1-7.6,7.3-10.4,10.2
		c-1.9,1.5-3.6,2.5-5.1,2.4c-2.1-0.1-4.7-2.4-6.5-4.4C120.9,209.4,141.9,193.4,146.9,196.4 M155.9,214.4c5-5,7-2,9.1,0.5
		c1.2,1.6,4.4,5.9-3.2,12.1c-3,2.5-5,3.3-11.3,0.3C149.1,226.7,143.9,225.4,155.9,214.4 M256.5,171.2
		C256.5,171.2,256.5,171.2,256.5,171.2c-0.7-0.6-14.3-12.3-22.3-18.3c-1-0.7-4.6-3.4-9.6-7.1c2.7-0.8,5.4-2.3,8-4.9c2-2,2-5.1,0-7.1
		c-2-2-5.1-2-7.1,0c-4.1,4.1-8.1,3-16,0.3c-3-1-6.2-2.1-9.6-2.7c-10.4-1.9-20-0.7-28.7,3.4c-3.6,1.7-5.3,3.9-6.6,5.7
		c-1.2,1.6-2.2,2.9-5,4.5c-2,1.2-5.8,1-9.4-0.4c-2.8-1.1-4.6-2.5-5.2-3.5c1.5-3.7,12.9-12.5,16.8-15.5c1.8-1.4,3.3-2.6,4.5-3.5
		c2.6-2.2,3.8-2.5,7.1-3.4c2.6-0.7,6.2-1.6,11.6-3.9c5.8-2.4,10-2.1,15.9-1.6c4.7,0.4,9.9,0.8,16.8-0.1c17.7-2.4,23.8-17.5,24-18.2
		c1-2.6-0.3-5.4-2.8-6.4c-2.6-1-5.5,0.3-6.5,2.8c-0.2,0.4-4.3,10.3-16,11.9c-5.8,0.8-10.3,0.4-14.7,0c-6.4-0.5-12.5-1-20.6,2.3
		c-4,1.7-6.8,2.5-9.1,3.1c-2.7-1-7-1.9-13.1-3.1c-4.3-0.9-8.7-1.7-11.1-2.5c-3.1-1-6.4-3.2-8.4-4.6c3.5-3.9,6-6.8,7.2-8
		c6.9-6.8-9.4-14.3-17.2-16.6c-10.6-3.1-58.7,41-68,49.7c-9.3,8.7,3.6,12.1,14.1,25.5c2.5,3.1,7.3,2,13.3-1.7
		c3.4,3.4,8.3,8.7,12.4,14.3c-4.3,2.4-7.7,5.8-8.6,6.8c0,0,0,0,0,0c-3.9,4.3-8.8,13.6-2.8,21.4c2.5,3.3,6.4,7.7,11.5,7.8
		c0.1,0,0.2,0,0.4,0c0.4,0,0.8-0.1,1.1-0.1c-0.3,3.4,0.6,7,3.6,10.1c3.5,3.6,6.7,5.1,9.6,5.3c0.1,3.5,1.9,7.1,5.3,10.9
		c4.5,5,8.9,7.5,13.5,7.6c0.2,0,0.3,0,0.5,0c1.4,0,2.8-0.2,4-0.6c2.2,3,5.8,4.7,7.2,5.4c4,1.9,7.4,2.8,10.6,2.8
		c3.7,0,7.1-1.3,10.5-3.9c9.9,6.5,16.3,10.7,23.1,10.7c4.8,0,9-2.6,12-5.6c2.5-2.5,3.9-5.6,4-9c4-0.3,10.3-0.8,14.9-6.2
		c2.2-2.5,3.3-5.4,3.5-8.5c3.5,0.8,8.1,0,14-5c4.9-4.1,5.7-8.8,5.4-11.9c0-0.2,0-0.3,0-0.5c5.2,1.2,9.2,0.2,12.1-3.1
		C265.6,186.1,261.5,175.7,256.5,171.2"/>
</g>
<rect class="st1" width="320" height="320"/>
</svg>
