<?xml version="1.0" encoding="utf-8"?>
<!-- Generator: Adobe Illustrator 26.5.0, SVG Export Plug-In . SVG Version: 6.00 Build 0)  -->
<svg version="1.1" id="Layer_1" xmlns="http://www.w3.org/2000/svg" xmlns:xlink="http://www.w3.org/1999/xlink" x="0px" y="0px"
	 viewBox="0 0 320 320" style="enable-background:new 0 0 320 320;" xml:space="preserve">
<style type="text/css">
	.st0{clip-path:url(#SVGID_00000060003563217233546500000008865255058561340325_);fill:#F3943E;}
</style>
<g>
	<defs>
		<rect id="SVGID_1_" width="320" height="320"/>
	</defs>
	<clipPath id="SVGID_00000018221741830027049310000009333904708393135550_">
		<use xlink:href="#SVGID_1_"  style="overflow:visible;"/>
	</clipPath>
	<path style="clip-path:url(#SVGID_00000018221741830027049310000009333904708393135550_);fill:#F3943E;" d="M122.8,255.6
		c2.4,18.5,18.1,32.9,37.2,32.9s34.8-14.3,37.2-32.9C184.9,256.3,135.1,256.3,122.8,255.6 M254.6,226.8c-32.9,4.1-156.3,4.1-189.2,0
		c-0.4-7.4,0.1-18.1,1.1-27.3c10.9-8.1,29.9-26.6,29.9-56.4c0-15.8,0.6-37.9,1.1-43.8l0.2-1c6-29.5,32.1-51.2,62.2-51.7
		c30.2,0.4,56.4,22.2,62.4,51.7c0.1,0.3,0.1,0.6,0.2,0.9c0.5,5.9,1.1,28.1,1.1,43.8c0,29.8,19.1,48.3,29.9,56.4
		C254.5,208.6,255.1,219.4,254.6,226.8 M268.1,194.4l-0.4-3.4l-2.8-1.9c-7.9-5.3-26.2-20.5-26.2-46c0-15.8-0.6-39.3-1.2-45.6
		l-0.1-0.8c-0.1-0.5-0.2-1-0.3-1.4c-7.4-36.4-39.8-63.2-77-63.7l-0.1,0l-0.1,0C122.7,32.1,90.4,58.8,83,95.2l-0.3,1.3l-0.2,1
		c-0.6,6.2-1.2,30.1-1.2,45.6c0,25.5-18.4,40.7-26.2,46l-2.9,1.9l-0.4,3.4c-0.5,4.6-3.1,28-0.6,40.3l0.9,4.8l4.8,1.1
		c12.5,2.8,57.8,4.2,103,4.2c45.3,0,90.5-1.4,103-4.2l4.8-1.1l0.9-4.8C271.2,222.5,268.6,199,268.1,194.4"/>
</g>
</svg>
