<?xml version="1.0" encoding="UTF-8"?><svg id="Ebene_2" xmlns="http://www.w3.org/2000/svg" viewBox="0 0 143.48 21.65"><defs><style>.cls-1{fill:#fff;}</style></defs><g id="Ebene_1-2"><path class="cls-1" d="M1.15,15.11c.38,.75,.75,1.53,1.5,2.27,1.24,1.21,2.93,1.73,4.66,1.73,2.88,0,4.29-1.76,4.29-3.48,0-2.19-1.76-2.82-4.23-3.31-2.3-.46-6.59-1.32-6.59-5.99C.78,4.09,2.02,0,8.61,0c.84,0,3.63,.03,5.38,1.84,1.24,1.27,1.38,2.68,1.47,3.37l-1.18,.32c-.26-.63-.49-1.12-1.01-1.64-.89-.86-2.3-1.44-4.06-1.44-2.3,0-4.35,1.04-4.35,3.14,0,.23,.03,.61,.17,.98,.61,1.5,2.16,1.81,4.35,2.24,1.41,.32,3.51,.81,4.84,2.13,.98,.92,1.61,2.33,1.61,3.91,0,1.76-.75,3.37-1.79,4.46-2.19,2.27-5.55,2.27-6.42,2.27-1.04,0-3.86-.05-5.79-1.98-1.41-1.38-1.67-3.02-1.84-4.09l1.15-.41h0Z"/><path class="cls-1" d="M17.99,.66h3.83v7.43c.57-.66,1.98-2.3,4.69-2.3,1.15,0,2.16,.34,2.94,.83,1.9,1.27,1.9,3.31,1.9,4.61v9.76h-3.83V12.23c0-1.38-.03-2.59-.84-3.39-.43-.43-1.04-.69-1.7-.69-1.27,0-2.33,.8-3.16,1.75v11.09h-3.83V.66h0Z"/><path class="cls-1" d="M33.91,2.19c0-1.15,.98-2.13,2.16-2.13s2.13,.98,2.13,2.13-.95,2.16-2.13,2.16c-.58,0-1.12-.23-1.53-.63s-.63-.95-.63-1.53h0Zm.26,4.06h3.83v14.74h-3.83V6.25Z"/><path class="cls-1" d="M40.79,.66h3.86V7.92c.58-.75,1.76-2.27,4.55-2.27,3.94,0,6.28,3.25,6.28,7.83,0,5.93-3.66,8.18-6.54,8.18-2.51,0-3.8-1.58-4.29-2.19v1.53h-3.86V.66Zm3.86,16.93c.55,.66,1.41,1.7,3.05,1.7,1.5,0,3.75-1.01,3.75-5.84,0-.95-.09-2.27-.66-3.43-.57-1.18-1.53-2.02-2.99-2.02-2.22,0-3.14,1.9-3.14,1.93v7.66h0Z"/><path class="cls-1" d="M57.6,.66h3.86V7.92c.57-.75,1.76-2.27,4.55-2.27,3.94,0,6.27,3.25,6.27,7.83,0,5.93-3.66,8.18-6.54,8.18-2.5,0-3.8-1.58-4.29-2.19v1.53h-3.86V.66Zm3.86,16.93c.55,.66,1.41,1.7,3.05,1.7,1.5,0,3.74-1.01,3.74-5.84,0-.95-.09-2.27-.66-3.43-.57-1.18-1.52-2.02-3-2.02-2.21,0-3.14,1.9-3.14,1.93v7.66h0Z"/><path class="cls-1" d="M88.49,13.53c0,4.12-2.39,8.06-7.8,8.06-4.49,0-7.43-3.14-7.43-7.91,0-5.84,4.2-7.97,7.54-8.03,3.91-.06,7.69,2.53,7.69,7.89h0Zm-11.17,.03c0,3.34,1.15,5.7,3.54,5.7s3.57-2.48,3.57-5.5c0-3.28-1.07-5.76-3.57-5.76-2.36,0-3.54,2.36-3.54,5.56h0Z"/><path class="cls-1" d="M90.07,20.99h3.86V.66h-3.86V20.99Z"/><path class="cls-1" d="M110.48,16.96c-.63,1.61-1.82,4.63-6.88,4.63s-8.09-3.66-8.09-8.18,2.76-7.83,7.97-7.83c1.27,0,3.57,.2,5.36,1.98,2.04,2.07,2.07,4.81,2.1,6.42h-11.34c.14,1.09,.64,5.15,5.18,5.15,2.68,0,3.74-1.36,4.75-2.65l.95,.46Zm-3.71-5.21c-.17-1.32-.49-3.74-3.37-3.74s-3.34,2.27-3.71,3.74h7.08Z"/><path class="cls-1" d="M114.22,2.25h3.83V6.25h3.37v2.3h-3.37v7.54c0,1.24,.17,1.84,.46,2.33,.69,1.29,1.84,1.29,2.13,1.29,.61,0,1.01-.14,1.47-.29l.46,.92c-.86,.52-1.9,1.18-3.8,1.18-.69,0-2.21-.09-3.34-1.21-1.07-1.04-1.21-2.33-1.21-3.62V8.55h-2.33v-2.3h2.33V2.25h0Z"/><path class="cls-1" d="M123.72,.66h3.82v7.43c.58-.66,1.99-2.3,4.69-2.3,1.16,0,2.16,.34,2.94,.83,1.9,1.27,1.9,3.31,1.9,4.61v9.76h-3.83V12.23c0-1.38-.03-2.59-.83-3.39-.43-.43-1.04-.69-1.7-.69-1.27,0-2.33,.8-3.17,1.75v11.09h-3.82V.66h0Z"/><path class="cls-1" d="M141.41,20.91c-1.07,0-2.05-.84-2.05-2.06s.95-2.06,2.05-2.06c1.16,0,2.07,.9,2.07,2.07,0,1.1-.87,2.05-2.07,2.05h0Zm0-3.94c-1.02,0-1.87,.82-1.87,1.88s.84,1.88,1.88,1.88c1.09,0,1.88-.87,1.88-1.87s-.8-1.88-1.89-1.88h0Zm-.02,.56c.27,0,.45,0,.61,.06,.29,.1,.42,.36,.42,.6,0,.18-.07,.5-.53,.62,.25,.1,.32,.25,.37,.54,.05,.36,.08,.54,.2,.78h-.53c-.07-.15-.09-.25-.14-.57-.09-.55-.12-.61-.77-.61v1.17h-.46v-2.6h.85Zm-.38,1.06h.38c.19,0,.55,0,.55-.36,0-.11-.04-.25-.18-.31-.09-.04-.17-.04-.46-.04h-.29v.7h0Z"/></g></svg>