<svg id="cat-pg" xmlns="http://www.w3.org/2000/svg" width="32" height="32" viewBox="0 0 32 32"><defs><style>.cls-1,.cls-2{fill:none;stroke:#000;stroke-width:1.45px;}.cls-1{stroke-linejoin:round;}.cls-2{stroke-miterlimit:10;}</style></defs><path class="cls-1" d="M6.5,5.6H4.7a.4.4,0,0,0-.4.4V9.4a.4.4,0,0,0,.4.4H6.5l.3.2,3.7,2.4c.2.1.2-.1.2-.1V3.2c0-.3-.2-.1-.2-.1L6.8,5.4Z"/><path class="cls-2" d="M15.3,1.9a8.3,8.3,0,0,1,2.4,5.8,8,8,0,0,1-2.5,5.9"/><path class="cls-2" d="M13.6,3.7a5.9,5.9,0,0,1,1.6,4,5.5,5.5,0,0,1-1.7,4.1"/><circle class="cls-1" cx="22.6" cy="16.1" r="1.6"/><polyline class="cls-1" points="20.1 10.6 28 10.6 28 28 10.6 28 10.6 16"/><polyline class="cls-1" points="10.7 23.8 15.7 18.1 19.5 23.3 22.1 21.3 27.9 24.6"/></svg>