<?xml version="1.0" encoding="UTF-8" standalone="no"?>
<!-- Generator: Adobe Illustrator 26.5.0, SVG Export Plug-In . SVG Version: 6.00 Build 0)  -->

<svg
   version="1.1"
   id="Layer_1"
   x="0px"
   y="0px"
   viewBox="0 0 320 320"
   style="enable-background:new 0 0 320 320;"
   xml:space="preserve"
   sodipodi:docname="icon_file_pdf.svg"
   inkscape:version="1.2.2 (b0a8486, 2022-12-01)"
   xmlns:inkscape="http://www.inkscape.org/namespaces/inkscape"
   xmlns:sodipodi="http://sodipodi.sourceforge.net/DTD/sodipodi-0.dtd"
   xmlns:xlink="http://www.w3.org/1999/xlink"
   xmlns="http://www.w3.org/2000/svg"
   xmlns:svg="http://www.w3.org/2000/svg"><defs
   id="defs108"><rect
     x="234.86936"
     y="234.86936"
     width="150.11876"
     height="108.31354"
     id="rect6107" /><rect
     x="84.750594"
     y="89.691211"
     width="150.11876"
     height="99.192402"
     id="rect6101" /><rect
     x="93.559322"
     y="107.11864"
     width="181.69491"
     height="71.864408"
     id="rect268" /></defs><sodipodi:namedview
   id="namedview106"
   pagecolor="#ffffff"
   bordercolor="#000000"
   borderopacity="0.25"
   inkscape:showpageshadow="2"
   inkscape:pageopacity="0.0"
   inkscape:pagecheckerboard="0"
   inkscape:deskcolor="#d1d1d1"
   showgrid="false"
   inkscape:zoom="2.63125"
   inkscape:cx="133.39667"
   inkscape:cy="171.40143"
   inkscape:window-width="1920"
   inkscape:window-height="1062"
   inkscape:window-x="1680"
   inkscape:window-y="25"
   inkscape:window-maximized="0"
   inkscape:current-layer="Layer_1"
   showguides="true" />
<style
   type="text/css"
   id="style87">
	.st0{clip-path:url(#SVGID_00000085215887426066592930000017504470771060310167_);fill:#4C6586;}
	.st1{fill:#52658B;}
	.st2{fill:none;}
</style>
<g
   id="g99">
	<g
   id="g97">
		<defs
   id="defs90">
			<rect
   id="SVGID_1_"
   x="70"
   y="20"
   width="180"
   height="285" />
		</defs>
		<clipPath
   id="SVGID_00000140734282329994794620000008735328238945772451_">
			<use
   xlink:href="#SVGID_1_"
   style="overflow:visible;"
   id="use92" />
		</clipPath>
		<path
   style="clip-path:url(#SVGID_00000140734282329994794620000008735328238945772451_);fill:#4C6586;"
   d="M250,245V25    c0-2.8-2.2-5-5-5H140h-10.2H125c-2.8,0-6.6,1.6-8.5,3.5l-43,43c-2,2-3.5,5.8-3.5,8.5v7.7V90v155c0,2.8,2.2,5,5,5h50v-15H85V90h55    V35h95v200h-40v15h50C247.8,250,250,247.8,250,245"
   clip-path="url(#SVGID_00000140734282329994794620000008735328238945772451_)"
   id="path95" />
	</g>
</g>
<polygon
   class="st1"
   points="140,205 140,265 110,265 160,305 210,265 180,265 180,205 "
   id="polygon101" />
<rect
   class="st2"
   width="320"
   height="320"
   id="rect103" />
<text
   xml:space="preserve"
   id="text6105"
   style="font-style:normal;font-variant:normal;font-weight:bold;font-stretch:normal;font-size:42.6667px;font-family:sans-serif;-inkscape-font-specification:'sans-serif Bold';text-align:center;white-space:pre;shape-inside:url(#rect6107);display:inline;fill:#4c6586;fill-opacity:1"
   transform="translate(-150.11876,-107.93349)"><tspan
     x="259.54326"
     y="273.79526"
     id="tspan10496">ODT</tspan></text></svg>
