<?xml version="1.0" encoding="utf-8"?>
<!-- Generator: Adobe Illustrator 18.0.0, SVG Export Plug-In . SVG Version: 6.00 Build 0)  -->
<!DOCTYPE svg PUBLIC "-//W3C//DTD SVG 1.1//EN" "http://www.w3.org/Graphics/SVG/1.1/DTD/svg11.dtd">
<svg version="1.1" id="Layer_1" xmlns="http://www.w3.org/2000/svg" xmlns:xlink="http://www.w3.org/1999/xlink" x="0px" y="0px"
	 width="32px" height="32px" viewBox="0 0 32 32" enable-background="new 0 0 32 32" xml:space="preserve">
<g>
	<defs>
		<path id="SVGID_1_" d="M9,16.9c-1.2,0-2.2-0.4-3-0.9c-1.8,0.8-3,2.2-3,3.9v6.4h12v-6.4c0-1.7-1.2-3.1-3-3.9
			C11.2,16.5,10.2,16.9,9,16.9"/>
	</defs>
	<clipPath id="SVGID_2_">
		<use xlink:href="#SVGID_1_"  overflow="visible"/>
	</clipPath>
	
		<linearGradient id="SVGID_3_" gradientUnits="userSpaceOnUse" x1="-374.6667" y1="477.0727" x2="-373.6667" y2="477.0727" gradientTransform="matrix(12 0 0 -12 4499 5746)">
		<stop  offset="0" style="stop-color:#4B823C"/>
		<stop  offset="1.983430e-02" style="stop-color:#4B823C"/>
		<stop  offset="1" style="stop-color:#6EA03C"/>
	</linearGradient>
	<rect x="3" y="16" clip-path="url(#SVGID_2_)" fill="url(#SVGID_3_)" width="12" height="10.2"/>
</g>
<g>
	<defs>
		<path id="SVGID_4_" d="M4.9,10.5C4.9,13,6.7,15,9,15c2.3,0,4.1-2,4.1-4.5C13.1,8,11.3,6,9,6C6.7,6,4.9,8,4.9,10.5"/>
	</defs>
	<clipPath id="SVGID_5_">
		<use xlink:href="#SVGID_4_"  overflow="visible"/>
	</clipPath>
	
		<linearGradient id="SVGID_6_" gradientUnits="userSpaceOnUse" x1="-359.0606" y1="492.9394" x2="-358.0606" y2="492.9394" gradientTransform="matrix(8.25 0 0 -8.25 2967.125 4077.25)">
		<stop  offset="0" style="stop-color:#DCB496"/>
		<stop  offset="1.983430e-02" style="stop-color:#DCB496"/>
		<stop  offset="1" style="stop-color:#EBC3A5"/>
	</linearGradient>
	<rect x="4.9" y="6" clip-path="url(#SVGID_5_)" fill="url(#SVGID_6_)" width="8.2" height="9"/>
</g>
<g>
	<defs>
		<rect id="SVGID_7_" x="16.8" y="10.2" transform="matrix(0.4694 -0.883 0.883 0.4694 1.038 28.1614)" width="14.2" height="6.1"/>
	</defs>
	<clipPath id="SVGID_8_">
		<use xlink:href="#SVGID_7_"  overflow="visible"/>
	</clipPath>
	
		<linearGradient id="SVGID_9_" gradientUnits="userSpaceOnUse" x1="-381.3271" y1="535.1694" x2="-380.3271" y2="535.1694" gradientTransform="matrix(5.3792 2.8602 2.8602 -5.3792 541.818 3981.2129)">
		<stop  offset="0" style="stop-color:#4C6586"/>
		<stop  offset="1.983430e-02" style="stop-color:#4C6586"/>
		<stop  offset="1" style="stop-color:#5A78A0"/>
	</linearGradient>
	<polygon clip-path="url(#SVGID_8_)" fill="url(#SVGID_9_)" points="20.6,0.5 36.4,8.9 27.3,25.9 11.5,17.5 	"/>
</g>
<g>
	<defs>
		<polygon id="SVGID_10_" points="17.9,18.1 17.7,25 23.3,20.9 		"/>
	</defs>
	<clipPath id="SVGID_11_">
		<use xlink:href="#SVGID_10_"  overflow="visible"/>
	</clipPath>
	
		<linearGradient id="SVGID_12_" gradientUnits="userSpaceOnUse" x1="-381.3271" y1="534.7204" x2="-380.3271" y2="534.7204" gradientTransform="matrix(5.3792 2.8602 2.8602 -5.3792 538.8984 3986.7041)">
		<stop  offset="0" style="stop-color:#DCB496"/>
		<stop  offset="1.983430e-02" style="stop-color:#DCB496"/>
		<stop  offset="1" style="stop-color:#EBC3A5"/>
	</linearGradient>
	<polygon clip-path="url(#SVGID_11_)" fill="url(#SVGID_12_)" points="18.9,15.7 26.2,19.6 22.1,27.3 14.8,23.5 	"/>
</g>
<g>
	<defs>
		<polygon id="SVGID_13_" points="17.8,22.3 17.7,25 19.9,23.4 		"/>
	</defs>
	<clipPath id="SVGID_14_">
		<use xlink:href="#SVGID_13_"  overflow="visible"/>
	</clipPath>
	
		<linearGradient id="SVGID_15_" gradientUnits="userSpaceOnUse" x1="-381.3271" y1="534.2859" x2="-380.3271" y2="534.2859" gradientTransform="matrix(5.3792 2.8602 2.8602 -5.3792 538.8984 3986.7041)">
		<stop  offset="0" style="stop-color:#002555"/>
		<stop  offset="1.983430e-02" style="stop-color:#002555"/>
		<stop  offset="1" style="stop-color:#0F4187"/>
	</linearGradient>
	<polygon clip-path="url(#SVGID_14_)" fill="url(#SVGID_15_)" points="18.2,21.3 21,22.9 19.4,25.9 16.6,24.4 	"/>
</g>
</svg>
