<?xml version="1.0" encoding="utf-8"?>
<!-- Generator: Adobe Illustrator 17.0.0, SVG Export Plug-In . SVG Version: 6.00 Build 0)  -->
<!DOCTYPE svg PUBLIC "-//W3C//DTD SVG 1.1//EN" "http://www.w3.org/Graphics/SVG/1.1/DTD/svg11.dtd">
<svg version="1.1" id="Layer_1" xmlns="http://www.w3.org/2000/svg" xmlns:xlink="http://www.w3.org/1999/xlink" x="0px" y="0px"
	 width="32px" height="32px" viewBox="0 0 32 32" enable-background="new 0 0 32 32" xml:space="preserve">
<g>
	<defs>
		<rect id="SVGID_1_" x="4" y="4" width="24" height="24"/>
	</defs>
	<clipPath id="SVGID_2_">
		<use xlink:href="#SVGID_1_"  overflow="visible"/>
	</clipPath>
	<path clip-path="url(#SVGID_2_)" fill="#FFFFFF" d="M21.5,16c0,3.037-2.462,5.5-5.5,5.5c-3.037,0-5.5-2.463-5.5-5.5
		s2.463-5.5,5.5-5.5C19.038,10.5,21.5,12.963,21.5,16 M26.5,16c0-5.799-4.701-10.5-10.5-10.5S5.5,10.201,5.5,16S10.201,26.5,16,26.5
		S26.5,21.799,26.5,16"/>
	<path clip-path="url(#SVGID_2_)" fill="#C80E00" d="M16,5.5c2.359,0,4.528,0.788,6.281,2.102l-2.514,2.514
		C18.678,9.418,17.391,9,16,9s-2.678,0.418-3.767,1.116L9.718,7.601C11.472,6.288,13.641,5.5,16,5.5 M5.5,16
		c0-2.357,0.786-4.524,2.098-6.277l2.515,2.515C9.416,13.326,8.999,14.612,9,16c0,1.391,0.418,2.678,1.116,3.767l-2.515,2.515
		C6.287,20.529,5.5,18.359,5.5,16 M16,21.5c-3.037,0-5.5-2.463-5.5-5.5s2.463-5.5,5.5-5.5s5.5,2.463,5.5,5.5S19.037,21.5,16,21.5
		 M16,26.5c-2.357,0-4.524-0.786-6.278-2.097l2.516-2.516C13.326,22.584,14.611,23,16,23c1.387,0,2.674-0.416,3.762-1.113
		l2.515,2.515C20.524,25.714,18.357,26.5,16,26.5 M24.402,9.723c1.312,1.753,2.097,3.921,2.097,6.278
		c0.001,2.358-0.787,4.527-2.1,6.281l-2.515-2.515C22.582,18.678,22.999,17.39,23,16c-0.001-1.388-0.416-2.674-1.113-3.762
		L24.402,9.723z M28,16c0-6.627-5.373-12-12-12S4,9.373,4,16c-0.001,6.628,5.372,12.001,12,12C22.627,28,28,22.627,28,16"/>
</g>
</svg>
