<?xml version="1.0" encoding="utf-8"?>
<!-- Generator: Adobe Illustrator 18.0.0, SVG Export Plug-In . SVG Version: 6.00 Build 0)  -->
<!DOCTYPE svg PUBLIC "-//W3C//DTD SVG 1.1//EN" "http://www.w3.org/Graphics/SVG/1.1/DTD/svg11.dtd">
<svg version="1.1" id="Layer_1" xmlns="http://www.w3.org/2000/svg" xmlns:xlink="http://www.w3.org/1999/xlink" x="0px" y="0px"
	 viewBox="0 0 32 32" enable-background="new 0 0 32 32" xml:space="preserve">
<g>
	<defs>
		<polygon id="SVGID_1_" points="6,28.4 6,28.4 9.5,27.7 11.7,30.5 16.6,16.9 11,14.9 		"/>
	</defs>
	<clipPath id="SVGID_2_">
		<use xlink:href="#SVGID_1_"  overflow="visible"/>
	</clipPath>
	
		<linearGradient id="SVGID_3_" gradientUnits="userSpaceOnUse" x1="1.6437" y1="34.8858" x2="2.6437" y2="34.8858" gradientTransform="matrix(5.6382 2.0521 2.0521 -5.6382 -72.3585 214.9537)">
		<stop  offset="0" style="stop-color:#002555"/>
		<stop  offset="1.983430e-02" style="stop-color:#002555"/>
		<stop  offset="1" style="stop-color:#0F4186"/>
	</linearGradient>
	<polygon clip-path="url(#SVGID_2_)" fill="url(#SVGID_3_)" points="7.3,11.5 21.6,16.7 15.4,33.8 1,28.6 	"/>
</g>
<g>
	<defs>
		<polygon id="SVGID_4_" points="15.4,16.9 20.3,30.5 22.5,27.7 26,28.4 21,14.9 		"/>
	</defs>
	<clipPath id="SVGID_5_">
		<use xlink:href="#SVGID_4_"  overflow="visible"/>
	</clipPath>
	
		<linearGradient id="SVGID_6_" gradientUnits="userSpaceOnUse" x1="6.607585e-02" y1="34.3116" x2="1.0661" y2="34.3116" gradientTransform="matrix(-5.6382 2.0521 -2.0521 -5.6382 94.2853 214.9537)">
		<stop  offset="0" style="stop-color:#0F4186"/>
		<stop  offset="0.9802" style="stop-color:#002555"/>
		<stop  offset="1" style="stop-color:#002555"/>
	</linearGradient>
	<polygon clip-path="url(#SVGID_5_)" fill="url(#SVGID_6_)" points="24.7,11.5 10.4,16.7 16.6,33.8 31,28.6 	"/>
</g>
<g>
	<defs>
		<path id="SVGID_7_" d="M16.8,1.5c-1.3,0-1.5,0.5-2.2,0.7c-0.9,0.3-3.3,0.3-4.7,2.3C8.9,5.9,7.3,6,6.7,8.4c-0.3,1.3-0.4,2.6,0,3.8
			c0.4,1.1,0.5,1.4,0.5,2.6s0,1.8,0.8,2.9c0.7,1.2,1.5,1.6,3,2.2c0.7,0.3,1.1,0.3,1.5,0.2c0.4,0,0.7-0.1,1.4,0.2
			c1.3,0.6,1.7,0.8,2.7,0.7c0.9-0.1,1.7-0.6,2.1-0.8c0.4-0.2,1.5-0.2,2.6-0.6s1.7-0.7,2.7-2c1-1.3,1.1-2.5,1.2-4.1
			c0.1-1.6-1.2-3.7-1.2-4.1c0-0.4,0.2-1.5,0.1-2.2c-0.1-0.7-0.4-1.4-1.1-2.3c-0.7-0.9-2.1-2.8-4.1-3.2c-0.8-0.2-1.4-0.2-1.9-0.2
			H16.8z"/>
	</defs>
	<clipPath id="SVGID_8_">
		<use xlink:href="#SVGID_7_"  overflow="visible"/>
	</clipPath>
	
		<linearGradient id="SVGID_9_" gradientUnits="userSpaceOnUse" x1="1.2168" y1="33.686" x2="2.2168" y2="33.686" gradientTransform="matrix(18.7424 5.022 5.022 -18.7424 -185.4115 634.0847)">
		<stop  offset="0" style="stop-color:#E56E1E"/>
		<stop  offset="0.99" style="stop-color:#FF8D2C"/>
		<stop  offset="1" style="stop-color:#FF8D2C"/>
	</linearGradient>
	<polygon clip-path="url(#SVGID_8_)" fill="url(#SVGID_9_)" points="7.6,-3.2 30.1,2.8 24,25.8 1.4,19.8 	"/>
</g>
<g>
	<defs>
		<rect id="SVGID_10_" x="6" y="1.5" width="19.9" height="29"/>
	</defs>
	<clipPath id="SVGID_11_">
		<use xlink:href="#SVGID_10_"  overflow="visible"/>
	</clipPath>
	<path clip-path="url(#SVGID_11_)" fill="#FFFFFF" d="M16,18c3.6,0,6.6-3,6.6-6.6s-3-6.6-6.6-6.6s-6.6,3-6.6,6.6S12.4,18,16,18"/>
</g>
<g>
	<defs>
		<path id="SVGID_12_" d="M10.5,11.5c0,3,2.5,5.5,5.5,5.5c3,0,5.5-2.5,5.5-5.5C21.5,8.5,19,6,16,6C13,6,10.5,8.5,10.5,11.5"/>
	</defs>
	<clipPath id="SVGID_13_">
		<use xlink:href="#SVGID_12_"  overflow="visible"/>
	</clipPath>
	
		<linearGradient id="SVGID_14_" gradientUnits="userSpaceOnUse" x1="1.4579" y1="33.7401" x2="2.4579" y2="33.7401" gradientTransform="matrix(11 0 0 -11 -5.5368 382.5781)">
		<stop  offset="0" style="stop-color:#E56E1E"/>
		<stop  offset="0.99" style="stop-color:#FF8D2C"/>
		<stop  offset="1" style="stop-color:#FF8D2C"/>
	</linearGradient>
	<rect x="10.5" y="5.9" clip-path="url(#SVGID_13_)" fill="url(#SVGID_14_)" width="11" height="11"/>
</g>
</svg>
