<?xml version="1.0" encoding="utf-8"?>
<!-- Generator: Adobe Illustrator 18.0.0, SVG Export Plug-In . SVG Version: 6.00 Build 0)  -->
<!DOCTYPE svg PUBLIC "-//W3C//DTD SVG 1.1//EN" "http://www.w3.org/Graphics/SVG/1.1/DTD/svg11.dtd">
<svg version="1.1" id="Layer_1" xmlns="http://www.w3.org/2000/svg" xmlns:xlink="http://www.w3.org/1999/xlink" x="0px" y="0px"
	 viewBox="0 0 32 32" enable-background="new 0 0 32 32" xml:space="preserve">
<g>
	<defs>
		<rect id="SVGID_1_" x="2" y="2" width="28" height="28"/>
	</defs>
	<clipPath id="SVGID_2_">
		<use xlink:href="#SVGID_1_"  overflow="visible"/>
	</clipPath>
	<path clip-path="url(#SVGID_2_)" fill="#C80A0A" d="M16,3.8c2.8,0,5.3,0.9,7.3,2.5l-2.9,2.9c-1.3-0.8-2.8-1.3-4.4-1.3
		s-3.1,0.5-4.4,1.3L8.7,6.2C10.7,4.7,13.2,3.8,16,3.8 M3.8,16c0-2.8,0.9-5.3,2.4-7.3l2.9,2.9c-0.8,1.3-1.3,2.8-1.3,4.4
		c0,1.6,0.5,3.1,1.3,4.4l-2.9,2.9C4.7,21.3,3.8,18.8,3.8,16 M16,22.4c-3.5,0-6.4-2.9-6.4-6.4c0-3.5,2.9-6.4,6.4-6.4
		c3.5,0,6.4,2.9,6.4,6.4C22.4,19.5,19.5,22.4,16,22.4 M16,28.2c-2.8,0-5.3-0.9-7.3-2.4l2.9-2.9c1.3,0.8,2.8,1.3,4.4,1.3
		c1.6,0,3.1-0.5,4.4-1.3l2.9,2.9C21.3,27.3,18.8,28.2,16,28.2 M25.8,8.7c1.5,2,2.4,4.6,2.4,7.3c0,2.8-0.9,5.3-2.5,7.3l-2.9-2.9
		c0.8-1.3,1.3-2.8,1.3-4.4c0-1.6-0.5-3.1-1.3-4.4L25.8,8.7z M30,16c0-7.7-6.3-14-14-14C8.3,2,2,8.3,2,16c0,7.7,6.3,14,14,14
		C23.7,30,30,23.7,30,16"/>
</g>
</svg>
