<?xml version="1.0" encoding="utf-8"?>
<!-- Generator: Adobe Illustrator 18.0.0, SVG Export Plug-In . SVG Version: 6.00 Build 0)  -->
<!DOCTYPE svg PUBLIC "-//W3C//DTD SVG 1.1//EN" "http://www.w3.org/Graphics/SVG/1.1/DTD/svg11.dtd">
<svg version="1.1" id="Layer_1" xmlns="http://www.w3.org/2000/svg" xmlns:xlink="http://www.w3.org/1999/xlink" x="0px" y="0px"
	 viewBox="0 0 32 32" enable-background="new 0 0 32 32" xml:space="preserve">
<g>
	<defs>
		<path id="SVGID_1_" d="M6.9,23C6.4,23.3,4,25,4,26.8v0.1c0,0,0,0.1,0,0.1c0,0.6,0.3,1.3,1.5,1.9c0.4,0.2,0.9,0.3,1.4,0.3
			c1.6,0,3.7-0.7,6-1.5c3.7-1.2,8-2.6,8.9-0.7c0.5,1,1.1,1.5,1.7,1.7c0.9,0.3,1.8-0.3,2.4-0.7c0.4-0.3,0.8-0.5,1.1-0.5
			c0.4,0,0.8-0.3,0.8-0.8c0-0.4-0.3-0.8-0.8-0.8c-0.7,0-1.4,0.4-1.9,0.8c-0.4,0.3-0.9,0.6-1.2,0.5c-0.1,0-0.4-0.2-0.8-0.9
			c-1.6-3.1-6.5-1.5-10.8-0.1C10,27.1,7.1,28,6.2,27.5c-0.4-0.2-0.6-0.4-0.6-0.6c0-0.7,1.3-2,2.2-2.6C8.1,24,8.2,23.6,8,23.2
			c-0.1-0.2-0.4-0.3-0.6-0.3C7.2,22.9,7,22.9,6.9,23"/>
	</defs>
	<clipPath id="SVGID_2_">
		<use xlink:href="#SVGID_1_"  overflow="visible"/>
	</clipPath>
	
		<linearGradient id="SVGID_3_" gradientUnits="userSpaceOnUse" x1="1.1254" y1="33.2919" x2="2.1254" y2="33.2919" gradientTransform="matrix(23.9274 0 0 -23.9274 -22.9274 822.6047)">
		<stop  offset="0" style="stop-color:#002555"/>
		<stop  offset="1.983430e-02" style="stop-color:#002555"/>
		<stop  offset="1" style="stop-color:#0F4187"/>
	</linearGradient>
	<rect x="4" y="22.9" clip-path="url(#SVGID_2_)" fill="url(#SVGID_3_)" width="23.9" height="6.3"/>
</g>
<g>
	<defs>
		
			<rect id="SVGID_4_" x="10.5" y="7.9" transform="matrix(0.4695 -0.8829 0.8829 0.4695 -0.1689 22.2479)" width="15.9" height="6.8"/>
	</defs>
	<clipPath id="SVGID_5_">
		<use xlink:href="#SVGID_4_"  overflow="visible"/>
	</clipPath>
	
		<linearGradient id="SVGID_6_" gradientUnits="userSpaceOnUse" x1="1.1246" y1="34.868" x2="2.1246" y2="34.868" gradientTransform="matrix(6.0293 3.2058 3.2058 -6.0293 -103.1457 216.2848)">
		<stop  offset="0" style="stop-color:#4C6586"/>
		<stop  offset="1.983430e-02" style="stop-color:#4C6586"/>
		<stop  offset="1" style="stop-color:#5A78A0"/>
	</linearGradient>
	<polygon clip-path="url(#SVGID_5_)" fill="url(#SVGID_6_)" points="14.7,-3 32.3,6.4 22.2,25.5 4.5,16.1 	"/>
</g>
<g>
	<defs>
		<polygon id="SVGID_7_" points="11.7,16.7 11.4,24.5 17.7,19.9 		"/>
	</defs>
	<clipPath id="SVGID_8_">
		<use xlink:href="#SVGID_7_"  overflow="visible"/>
	</clipPath>
	
		<linearGradient id="SVGID_9_" gradientUnits="userSpaceOnUse" x1="1.1246" y1="34.4191" x2="2.1246" y2="34.4191" gradientTransform="matrix(6.0293 3.2058 3.2058 -6.0293 -106.4182 222.4397)">
		<stop  offset="0" style="stop-color:#DCB496"/>
		<stop  offset="1.983430e-02" style="stop-color:#DCB496"/>
		<stop  offset="1" style="stop-color:#EBC3A5"/>
	</linearGradient>
	<polygon clip-path="url(#SVGID_8_)" fill="url(#SVGID_9_)" points="12.8,14.1 20.9,18.4 16.3,27.1 8.2,22.7 	"/>
</g>
<g>
	<defs>
		<polygon id="SVGID_10_" points="11.5,21.4 11.4,24.5 13.9,22.7 		"/>
	</defs>
	<clipPath id="SVGID_11_">
		<use xlink:href="#SVGID_10_"  overflow="visible"/>
	</clipPath>
	
		<linearGradient id="SVGID_12_" gradientUnits="userSpaceOnUse" x1="1.1246" y1="33.9845" x2="2.1246" y2="33.9845" gradientTransform="matrix(6.0293 3.2058 3.2058 -6.0293 -106.4182 222.4397)">
		<stop  offset="0" style="stop-color:#002555"/>
		<stop  offset="1.983430e-02" style="stop-color:#002555"/>
		<stop  offset="1" style="stop-color:#0F4187"/>
	</linearGradient>
	<polygon clip-path="url(#SVGID_11_)" fill="url(#SVGID_12_)" points="12,20.4 15.2,22.1 13.4,25.5 10.1,23.8 	"/>
</g>
</svg>
