<?xml version="1.0" encoding="utf-8"?>
<!-- Generator: Adobe Illustrator 17.0.0, SVG Export Plug-In . SVG Version: 6.00 Build 0)  -->
<!DOCTYPE svg PUBLIC "-//W3C//DTD SVG 1.1//EN" "http://www.w3.org/Graphics/SVG/1.1/DTD/svg11.dtd">
<svg version="1.1" id="Layer_1" xmlns="http://www.w3.org/2000/svg" xmlns:xlink="http://www.w3.org/1999/xlink" x="0px" y="0px"
	 width="32px" height="32px" viewBox="0 0 32 32" enable-background="new 0 0 32 32" xml:space="preserve">
<g>
	<defs>
		<rect id="SVGID_1_" x="8.5" y="4" width="15" height="24"/>
	</defs>
	<clipPath id="SVGID_2_">
		<use xlink:href="#SVGID_1_"  overflow="visible"/>
	</clipPath>
	<path clip-path="url(#SVGID_2_)" fill="#DBB494" d="M16,17.728c2.9,0,5.25-2.351,5.25-5.25S18.9,7.228,16,7.228
		c-2.899,0-5.25,2.351-5.25,5.25S13.101,17.728,16,17.728"/>
	<path clip-path="url(#SVGID_2_)" fill="#51648A" d="M22,28v-3.5c0-2.899-2.686-5.25-6-5.25s-6,2.351-6,5.25V28H22z"/>
	<path clip-path="url(#SVGID_2_)" fill="#51648A" d="M21.1,10.8V7.401C21.1,5.053,18.817,4,16,4s-5.1,1.053-5.1,3.401V10.8H21.1z"/>
	<path clip-path="url(#SVGID_2_)" fill="#51648A" d="M23.5,10.65c0-0.47-0.336-0.851-0.75-0.851H9.25
		c-0.414,0-0.75,0.381-0.75,0.851c0,0.469,0.336,0.85,0.75,0.85h13.5C23.164,11.5,23.5,11.119,23.5,10.65"/>
</g>
</svg>
