<?xml version="1.0" encoding="utf-8"?>
<!-- Generator: Adobe Illustrator 18.0.0, SVG Export Plug-In . SVG Version: 6.00 Build 0)  -->
<!DOCTYPE svg PUBLIC "-//W3C//DTD SVG 1.1//EN" "http://www.w3.org/Graphics/SVG/1.1/DTD/svg11.dtd">
<svg version="1.1" id="Layer_1" xmlns="http://www.w3.org/2000/svg" xmlns:xlink="http://www.w3.org/1999/xlink" x="0px" y="0px"
	 viewBox="0 0 32 32" enable-background="new 0 0 32 32" xml:space="preserve">
<g>
	<defs>
		<polygon id="SVGID_1_" points="6,10 7.2,30 24.8,30 26,10 		"/>
	</defs>
	<clipPath id="SVGID_2_">
		<use xlink:href="#SVGID_1_"  overflow="visible"/>
	</clipPath>
	
		<linearGradient id="SVGID_3_" gradientUnits="userSpaceOnUse" x1="1.2222" y1="33.6371" x2="2.2222" y2="33.6371" gradientTransform="matrix(22.5 0 0 -22.5 -22.75 776.834)">
		<stop  offset="0" style="stop-color:#4C6585"/>
		<stop  offset="1.983430e-02" style="stop-color:#4C6585"/>
		<stop  offset="1" style="stop-color:#5A789F"/>
	</linearGradient>
	<rect x="6" y="10" clip-path="url(#SVGID_2_)" fill="url(#SVGID_3_)" width="20" height="20"/>
</g>
<g>
	<defs>
		<path id="SVGID_4_" d="M6,6.7C6,6.7,6,6.7,6,6.7L6,6.7 M6,6.6C6,6.6,6,6.7,6,6.6C6,6.6,6,6.5,6,6.6C6,6.5,6,6.6,6,6.6 M14.8,3.3
			h2.5v1.4c-0.4,0-0.8,0-1.2,0c-0.4,0-0.8,0-1.3,0V3.3z M13.5,2v2.7C9.5,4.9,6,5.6,6,6.7c0,0.2,0,0.8,0,2h20v-2c0-1-3.5-1.7-7.5-1.9
			V2H13.5z"/>
	</defs>
	<clipPath id="SVGID_5_">
		<use xlink:href="#SVGID_4_"  overflow="visible"/>
	</clipPath>
	
		<linearGradient id="SVGID_6_" gradientUnits="userSpaceOnUse" x1="1.3751" y1="33.625" x2="2.3751" y2="33.625" gradientTransform="matrix(0 -8 -8 0 285 19.6667)">
		<stop  offset="0" style="stop-color:#4C6585"/>
		<stop  offset="1.983430e-02" style="stop-color:#4C6585"/>
		<stop  offset="1" style="stop-color:#5A789F"/>
	</linearGradient>
	<rect x="6" y="2" clip-path="url(#SVGID_5_)" fill="url(#SVGID_6_)" width="20" height="6.7"/>
</g>
<polygon fill="#FFFFFF" points="8.9,12.8 9.9,27.8 12,27.8 11,12.8 "/>
<polygon fill="#FFFFFF" points="23.1,12.8 22.1,27.8 20,27.8 21,12.8 "/>
<rect x="15" y="12.8" fill="#FFFFFF" width="2" height="15.1"/>
</svg>
