<?xml version="1.0" encoding="utf-8"?>
<!-- Generator: Adobe Illustrator 18.0.0, SVG Export Plug-In . SVG Version: 6.00 Build 0)  -->
<!DOCTYPE svg PUBLIC "-//W3C//DTD SVG 1.1//EN" "http://www.w3.org/Graphics/SVG/1.1/DTD/svg11.dtd">
<svg version="1.1" id="Layer_1" xmlns="http://www.w3.org/2000/svg" xmlns:xlink="http://www.w3.org/1999/xlink" x="0px" y="0px"
	 viewBox="0 0 32 32" enable-background="new 0 0 32 32" xml:space="preserve">
<g>
	<defs>
		<path id="SVGID_1_" d="M17.3,2.1c-1.5,0.9-2.1,2.7-1.6,4.2l-9.7,6.1H2.6c0,0-0.6,0-0.6,0.6l0,6c0,0,0,0.6,0.6,0.6l3.3,0l9.7,6.1
			c-0.5,1.6,0.1,3.3,1.6,4.2c1.8,1.1,4.1,0.6,5.2-1.2c1.1-1.8,0.6-4.1-1.2-5.2c-1.5-0.9-3.3-0.7-4.5,0.4l-7-4.4h3.7
			c0,0,0.6,0,0.6-0.6v-2h8.4c0.4,1.6,1.9,2.8,3.6,2.8c2,0,3.7-1.6,3.7-3.7v-0.2c0-2-1.7-3.7-3.7-3.7c-1.7,0-3.2,1.2-3.6,2.7H14v-2
			c0,0,0-0.6-0.6-0.6l-3.7,0l7-4.4c1.2,1.1,3,1.3,4.5,0.4C23,7.3,23.5,5,22.4,3.3c-0.7-1.1-1.9-1.8-3.2-1.8
			C18.6,1.5,17.9,1.7,17.3,2.1"/>
	</defs>
	<clipPath id="SVGID_2_">
		<use xlink:href="#SVGID_1_"  overflow="visible"/>
	</clipPath>
	
		<linearGradient id="SVGID_3_" gradientUnits="userSpaceOnUse" x1="0.9803" y1="33.4787" x2="1.9803" y2="33.4787" gradientTransform="matrix(22.2689 14.4616 -14.4616 22.2689 466.8608 -750.8173)">
		<stop  offset="0" style="stop-color:#4C6586"/>
		<stop  offset="1.983430e-02" style="stop-color:#4C6586"/>
		<stop  offset="1" style="stop-color:#5A78A0"/>
	</linearGradient>
	<polygon clip-path="url(#SVGID_2_)" fill="url(#SVGID_3_)" points="-11.5,22.3 21.5,43.7 43.2,10.3 10.2,-11.2 	"/>
</g>
</svg>
