<?xml version="1.0" encoding="utf-8"?>
<!-- Generator: Adobe Illustrator 18.0.0, SVG Export Plug-In . SVG Version: 6.00 Build 0)  -->
<!DOCTYPE svg PUBLIC "-//W3C//DTD SVG 1.1//EN" "http://www.w3.org/Graphics/SVG/1.1/DTD/svg11.dtd">
<svg version="1.1" id="Layer_1" xmlns="http://www.w3.org/2000/svg" xmlns:xlink="http://www.w3.org/1999/xlink" x="0px" y="0px"
	 width="32px" height="32px" viewBox="0 0 32 32" enable-background="new 0 0 32 32" xml:space="preserve">
<g>
	<defs>
		<path id="SVGID_1_" d="M5.5,17c-0.9,0-1.7-0.3-2.3-0.7C1.9,16.9,1,18,1,19.2V24h2.2v-0.8h4v-4.4L10,22v-2.8c0-1.2-0.9-2.3-2.2-2.9
			C7.2,16.7,6.4,17,5.5,17"/>
	</defs>
	<clipPath id="SVGID_2_">
		<use xlink:href="#SVGID_1_"  overflow="visible"/>
	</clipPath>
	
		<linearGradient id="SVGID_3_" gradientUnits="userSpaceOnUse" x1="-363.4445" y1="488.2047" x2="-362.4445" y2="488.2047" gradientTransform="matrix(9 0 0 -9 3272 4414)">
		<stop  offset="0" style="stop-color:#4B823C"/>
		<stop  offset="1.983430e-02" style="stop-color:#4B823C"/>
		<stop  offset="1" style="stop-color:#6EA03C"/>
	</linearGradient>
	<rect x="1" y="16.3" clip-path="url(#SVGID_2_)" fill="url(#SVGID_3_)" width="9" height="7.7"/>
</g>
<g>
	<defs>
		<path id="SVGID_4_" d="M2.4,12.2c0,1.9,1.4,3.4,3.1,3.4s3.1-1.5,3.1-3.4S7.2,8.8,5.5,8.8S2.4,10.3,2.4,12.2"/>
	</defs>
	<clipPath id="SVGID_5_">
		<use xlink:href="#SVGID_4_"  overflow="visible"/>
	</clipPath>
	
		<linearGradient id="SVGID_6_" gradientUnits="userSpaceOnUse" x1="-342.7374" y1="509.1314" x2="-341.7375" y2="509.1314" gradientTransform="matrix(6.1875 0 0 -6.1875 2123.0938 3162.4375)">
		<stop  offset="0" style="stop-color:#DCB496"/>
		<stop  offset="1.983430e-02" style="stop-color:#DCB496"/>
		<stop  offset="1" style="stop-color:#EBC3A5"/>
	</linearGradient>
	<rect x="2.4" y="8.8" clip-path="url(#SVGID_5_)" fill="url(#SVGID_6_)" width="6.2" height="6.8"/>
</g>
<g>
	<defs>
		<rect id="SVGID_7_" x="1" y="4.3" width="30" height="25.7"/>
	</defs>
	<clipPath id="SVGID_8_">
		<use xlink:href="#SVGID_7_"  overflow="visible"/>
	</clipPath>
	<path clip-path="url(#SVGID_8_)" fill="#7C655E" d="M26.5,15.6c1.7,0,3.1-1.5,3.1-3.4c0-1.9-1.4-3.4-3.1-3.4
		c-1.7,0-3.1,1.5-3.1,3.4C23.4,14.1,24.8,15.6,26.5,15.6"/>
	<path clip-path="url(#SVGID_8_)" fill="#DCB496" d="M16,11.1c1.7,0,3.1-1.5,3.1-3.4c0-1.9-1.4-3.4-3.1-3.4s-3.1,1.5-3.1,3.4
		C12.9,9.6,14.3,11.1,16,11.1"/>
</g>
<g>
	<defs>
		<path id="SVGID_9_" d="M16,12.5c-0.9,0-1.7-0.3-2.3-0.7c-1.3,0.6-2.2,1.7-2.2,2.9v4.8h9v-4.8c0-1.2-0.9-2.3-2.2-2.9
			C17.7,12.2,16.9,12.5,16,12.5"/>
	</defs>
	<clipPath id="SVGID_10_">
		<use xlink:href="#SVGID_9_"  overflow="visible"/>
	</clipPath>
	
		<linearGradient id="SVGID_11_" gradientUnits="userSpaceOnUse" x1="-363.4445" y1="488.2047" x2="-362.4445" y2="488.2047" gradientTransform="matrix(9 0 0 -9 3282.519 4409.5)">
		<stop  offset="0" style="stop-color:#002555"/>
		<stop  offset="1.983430e-02" style="stop-color:#002555"/>
		<stop  offset="1" style="stop-color:#0F4187"/>
	</linearGradient>
	<rect x="11.5" y="11.8" clip-path="url(#SVGID_10_)" fill="url(#SVGID_11_)" width="9" height="7.7"/>
</g>
<g>
	<defs>
		<path id="SVGID_12_" d="M26.5,17c-0.9,0-1.7-0.3-2.3-0.7C22.9,16.9,22,18,22,19.2V24h9v-4.8c0-1.2-0.9-2.3-2.2-2.9
			C28.2,16.7,27.4,17,26.5,17"/>
	</defs>
	<clipPath id="SVGID_13_">
		<use xlink:href="#SVGID_12_"  overflow="visible"/>
	</clipPath>
	
		<linearGradient id="SVGID_14_" gradientUnits="userSpaceOnUse" x1="-363.4445" y1="488.2047" x2="-362.4445" y2="488.2047" gradientTransform="matrix(9 0 0 -9 3293 4414)">
		<stop  offset="0" style="stop-color:#4C6586"/>
		<stop  offset="1.983430e-02" style="stop-color:#4C6586"/>
		<stop  offset="1" style="stop-color:#5A78A0"/>
	</linearGradient>
	<rect x="22" y="16.3" clip-path="url(#SVGID_13_)" fill="url(#SVGID_14_)" width="9" height="7.7"/>
</g>
<g>
	<defs>
		<polygon id="SVGID_15_" points="8,24 4,24 4,27 8,27 8,30 12,25.5 8,21 		"/>
	</defs>
	<clipPath id="SVGID_16_">
		<use xlink:href="#SVGID_15_"  overflow="visible"/>
	</clipPath>
	
		<linearGradient id="SVGID_17_" gradientUnits="userSpaceOnUse" x1="-454.7778" y1="488" x2="-453.7778" y2="488" gradientTransform="matrix(0 9 9 0 -4384 4114)">
		<stop  offset="0" style="stop-color:#FF8E2C"/>
		<stop  offset="1.204420e-02" style="stop-color:#FF8E2C"/>
		<stop  offset="0.9945" style="stop-color:#FA8228"/>
		<stop  offset="1" style="stop-color:#FA8228"/>
	</linearGradient>
	<rect x="4" y="21" clip-path="url(#SVGID_16_)" fill="url(#SVGID_17_)" width="8" height="9"/>
</g>
</svg>
