<?xml version="1.0" encoding="utf-8"?>
<!-- Generator: Adobe Illustrator 18.0.0, SVG Export Plug-In . SVG Version: 6.00 Build 0)  -->
<!DOCTYPE svg PUBLIC "-//W3C//DTD SVG 1.1//EN" "http://www.w3.org/Graphics/SVG/1.1/DTD/svg11.dtd">
<svg version="1.1" id="Layer_1" xmlns="http://www.w3.org/2000/svg" xmlns:xlink="http://www.w3.org/1999/xlink" x="0px" y="0px"
	 width="32px" height="32px" viewBox="0 0 32 32" enable-background="new 0 0 32 32" xml:space="preserve">
<g>
	<defs>
		<path id="SVGID_1_" d="M23.9,12.6v1.6h-5.8v-1.6h-5.7l1.3,6.3h12.4l1.9-6.3H23.9z M5,11c-0.6,0-1,0.5-1,1c0,0.6,0.5,1,1,1h3.2
			l2.2,9.4H25l0.6-2H12.1l-2-9.5H5z"/>
	</defs>
	<clipPath id="SVGID_2_">
		<use xlink:href="#SVGID_1_"  overflow="visible"/>
	</clipPath>
	
		<linearGradient id="SVGID_3_" gradientUnits="userSpaceOnUse" x1="-35.2917" y1="54.2816" x2="-34.2917" y2="54.2816" gradientTransform="matrix(24 0 0 -24 850.9999 1319.5187)">
		<stop  offset="0" style="stop-color:#4C6586"/>
		<stop  offset="1.983430e-02" style="stop-color:#4C6586"/>
		<stop  offset="1" style="stop-color:#5A78A0"/>
	</linearGradient>
	<rect x="4" y="11" clip-path="url(#SVGID_2_)" fill="url(#SVGID_3_)" width="24" height="11.5"/>
</g>
<g>
	<defs>
		<path id="SVGID_4_" d="M12.7,25.8c0,1.2,1,2.2,2.2,2.2c1.2,0,2.2-1,2.2-2.2s-1-2.2-2.2-2.2C13.7,23.6,12.7,24.6,12.7,25.8"/>
	</defs>
	<clipPath id="SVGID_5_">
		<use xlink:href="#SVGID_4_"  overflow="visible"/>
	</clipPath>
	
		<linearGradient id="SVGID_6_" gradientUnits="userSpaceOnUse" x1="-27.7326" y1="59.1508" x2="-26.7327" y2="59.1508" gradientTransform="matrix(4.4241 0 0 -4.4241 135.3546 287.4785)">
		<stop  offset="0" style="stop-color:#4C6586"/>
		<stop  offset="1.983430e-02" style="stop-color:#4C6586"/>
		<stop  offset="1" style="stop-color:#5A78A0"/>
	</linearGradient>
	<rect x="12.7" y="23.6" clip-path="url(#SVGID_5_)" fill="url(#SVGID_6_)" width="4.4" height="4.4"/>
</g>
<g>
	<defs>
		<path id="SVGID_7_" d="M19.4,25.8c0,1.2,1,2.2,2.2,2.2c1.2,0,2.2-1,2.2-2.2s-1-2.2-2.2-2.2C20.4,23.6,19.4,24.6,19.4,25.8"/>
	</defs>
	<clipPath id="SVGID_8_">
		<use xlink:href="#SVGID_7_"  overflow="visible"/>
	</clipPath>
	
		<linearGradient id="SVGID_9_" gradientUnits="userSpaceOnUse" x1="-27.7327" y1="59.1508" x2="-26.7327" y2="59.1508" gradientTransform="matrix(4.4241 0 0 -4.4241 142.119 287.4785)">
		<stop  offset="0" style="stop-color:#4C6586"/>
		<stop  offset="1.983430e-02" style="stop-color:#4C6586"/>
		<stop  offset="1" style="stop-color:#5A78A0"/>
	</linearGradient>
	<rect x="19.4" y="23.6" clip-path="url(#SVGID_8_)" fill="url(#SVGID_9_)" width="4.4" height="4.4"/>
</g>
<g>
	<defs>
		<polygon id="SVGID_10_" points="25.5,6.8 22.7,6.8 22.7,4 19.3,4 19.3,6.8 16.5,6.8 16.5,10.2 19.3,10.2 19.3,13 22.7,13 
			22.7,10.2 25.5,10.2 		"/>
	</defs>
	<clipPath id="SVGID_11_">
		<use xlink:href="#SVGID_10_"  overflow="visible"/>
	</clipPath>
	
		<linearGradient id="SVGID_12_" gradientUnits="userSpaceOnUse" x1="-32.3409" y1="56.0282" x2="-31.3409" y2="56.0282" gradientTransform="matrix(8.8 0 0 -8.8 301.1995 501.548)">
		<stop  offset="0" style="stop-color:#4B823C"/>
		<stop  offset="1.983430e-02" style="stop-color:#4B823C"/>
		<stop  offset="1" style="stop-color:#6EA03C"/>
	</linearGradient>
	<rect x="16.5" y="4" clip-path="url(#SVGID_11_)" fill="url(#SVGID_12_)" width="9" height="9"/>
</g>
</svg>
