<?xml version="1.0" ?><!DOCTYPE svg  PUBLIC '-//W3C//DTD SVG 1.1//EN'  'http://www.w3.org/Graphics/SVG/1.1/DTD/svg11.dtd'><svg enable-background="new 0 0 200 200" height="200px" id="Layer_1" version="1.1" viewBox="0 0 200 200" width="200px" xml:space="preserve" xmlns="http://www.w3.org/2000/svg" xmlns:xlink="http://www.w3.org/1999/xlink"><g><path d="M98.176,81.001c0,1.006,0.819,1.823,1.824,1.823h43.086c1,0,1.825-0.817,1.825-1.823v-1.153   c0-1.004-0.825-1.828-1.825-1.828H100c-1.004,0-1.824,0.823-1.824,1.828V81.001z" fill="#5E889E"/><path d="M100,69.118h43.086c1,0,1.825-0.823,1.825-1.823v-1.157c0-1-0.825-1.824-1.825-1.824H100   c-1.004,0-1.824,0.823-1.824,1.824v1.157C98.176,68.294,98.996,69.118,100,69.118z" fill="#5E889E"/><path d="M156.999,14.894h-24.018c0.004,0.152,0.021,0.301,0.021,0.453v13.225h19.439   c2.509,0,4.558,2.047,4.558,4.558v116.716l-36.472,36.476H47.559c-2.509,0-4.558-2.053-4.558-4.558V33.129   c0-2.511,2.049-4.558,4.558-4.558h19.444V15.347c0-0.152,0.012-0.301,0.02-0.453H43c-7.522,0-13.678,6.156-13.678,13.678v157.75   C29.323,193.844,35.479,200,43,200h113.999c7.526,0,13.679-6.156,13.679-13.679V28.572   C170.678,21.049,164.525,14.894,156.999,14.894z" fill="#5E889E"/><path d="M55.624,94.317c0,0.999,0.821,1.822,1.826,1.822h85.637c1,0,1.825-0.823,1.825-1.822v-1.159   c0-1-0.825-1.824-1.825-1.824H57.449c-1.004,0-1.826,0.823-1.826,1.824V94.317z" fill="#5E889E"/><path d="M57.449,82.824h28.57c1.004,0,1.826-0.817,1.826-1.823v-28.57c0-1.006-0.821-1.824-1.826-1.824h-28.57   c-1.004,0-1.826,0.817-1.826,1.824v28.57C55.624,82.007,56.445,82.824,57.449,82.824z" fill="#5E889E"/><path d="M125.085,149.846c-1.162,0-2.334,0.447-3.224,1.338c-0.891,0.886-1.334,2.057-1.334,3.224v25.466   l30.027-30.027H125.085z" fill="#5E889E"/><path d="M55.624,108.022c0,1.004,0.821,1.821,1.826,1.821h85.637c1,0,1.825-0.817,1.825-1.821v-1.15   c0-1.009-0.825-1.83-1.825-1.83H57.449c-1.004,0-1.826,0.821-1.826,1.83V108.022z" fill="#5E889E"/><path d="M143.086,50.607H100c-1.004,0-1.824,0.817-1.824,1.824v1.152c0,1.004,0.819,1.828,1.824,1.828h43.086   c1,0,1.825-0.823,1.825-1.828v-1.152C144.911,51.425,144.086,50.607,143.086,50.607z" fill="#5E889E"/><path d="M55.624,121.729c0,1.004,0.821,1.825,1.826,1.825h85.637c1,0,1.825-0.821,1.825-1.825v-1.151   c0-1.004-0.825-1.825-1.825-1.825H57.449c-1.004,0-1.826,0.821-1.826,1.825V121.729z" fill="#5E889E"/><path d="M55.624,135.436c0,1.004,0.821,1.83,1.826,1.83h40.992c1.004,0,1.825-0.826,1.825-1.83v-1.15   c0-1.001-0.821-1.826-1.825-1.826H57.449c-1.004,0-1.826,0.825-1.826,1.826V135.436z" fill="#5E889E"/><path d="M73.386,31.761h53.232c0.464,0,0.927-0.181,1.285-0.541c0.355-0.354,0.54-0.817,0.54-1.281V15.347   c0-1.63-0.632-3.263-1.874-4.511c-1.246-1.248-2.879-1.87-4.511-1.87h-13.095C108.964,4.013,104.952,0,100,0   c-4.95,0-8.963,4.013-8.963,8.966H77.944c-1.634,0-3.265,0.622-4.515,1.87c-1.238,1.249-1.871,2.881-1.871,4.511V29.94   c0,0.463,0.185,0.927,0.539,1.281C72.455,31.581,72.918,31.761,73.386,31.761z M100,4.79c2.308,0,4.178,1.87,4.178,4.176   c0,2.305-1.87,4.176-4.178,4.176c-2.306,0-4.174-1.871-4.174-4.176C95.826,6.66,97.694,4.79,100,4.79z" fill="#5E889E"/></g></svg>