<?xml version="1.0" encoding="utf-8"?>
<!-- Generator: Adobe Illustrator 26.5.0, SVG Export Plug-In . SVG Version: 6.00 Build 0)  -->
<svg version="1.1" id="Layer_1" xmlns="http://www.w3.org/2000/svg" xmlns:xlink="http://www.w3.org/1999/xlink" x="0px" y="0px"
	 viewBox="0 0 320 320" style="enable-background:new 0 0 320 320;" xml:space="preserve">
<style type="text/css">
	.st0{clip-path:url(#SVGID_00000003819487433273938450000012204912412115507886_);fill:#4C6586;}
</style>
<g>
	<g>
		<defs>
			<rect id="SVGID_1_" width="320" height="320"/>
		</defs>
		<clipPath id="SVGID_00000148632188160597268420000001874452193489915836_">
			<use xlink:href="#SVGID_1_"  style="overflow:visible;"/>
		</clipPath>
		<path style="clip-path:url(#SVGID_00000148632188160597268420000001874452193489915836_);fill:#4C6586;" d="M221.7,109.3
			l-88.2,37.2V72.1L221.7,109.3z M248.5,109.3c0-3-1.8-5.7-4.6-6.9L133.5,55.9V50c0-5.5-4.5-10-10-10h-5c-5.5,0-10,4.5-10,10v200.5
			C86.9,252.1,71,258,71,265c0,8.3,22.4,15,50,15s50-6.7,50-15c0-7-15.9-12.9-37.5-14.5v-87.7l110.4-46.5
			C246.7,115,248.5,112.3,248.5,109.3"/>
	</g>
</g>
</svg>
