<?xml version="1.0" encoding="utf-8"?>
<!-- Generator: Adobe Illustrator 26.5.0, SVG Export Plug-In . SVG Version: 6.00 Build 0)  -->
<svg version="1.1" id="Layer_1" xmlns="http://www.w3.org/2000/svg" xmlns:xlink="http://www.w3.org/1999/xlink" x="0px" y="0px"
	 viewBox="0 0 320 320" style="enable-background:new 0 0 320 320;" xml:space="preserve">
<style type="text/css">
	.st0{clip-path:url(#SVGID_00000099636185352463807590000011765534874235797402_);fill:#4C6586;}
	.st1{fill:#4C6586;}
	.st2{clip-path:url(#SVGID_00000048492090161891280840000009308363334630221465_);fill:#4C6586;}
	.st3{clip-path:url(#SVGID_00000030484338982923360170000004280417894038220192_);fill:#4C6586;}
	.st4{clip-path:url(#SVGID_00000119111435387645080320000001562870525986266801_);fill:#4C6586;}
	.st5{fill:none;}
</style>
<g>
	<g>
		<defs>
			<rect id="SVGID_1_" x="30" y="35" width="255" height="240"/>
		</defs>
		<clipPath id="SVGID_00000168814850522262060310000013883796865759769744_">
			<use xlink:href="#SVGID_1_"  style="overflow:visible;"/>
		</clipPath>
		<path style="clip-path:url(#SVGID_00000168814850522262060310000013883796865759769744_);fill:#4C6586;" d="M183.8,45H100H89.8H85
			c-2.8,0-6.6,1.6-8.5,3.5l-43,43c-2,2-3.5,5.8-3.5,8.5v7.7v7.3v155c0,2.8,2.2,5,5,5h170c2.8,0,5-2.2,5-5V145
			c-5.4-2.3-10.4-5.2-15-8.8V260H45V115h55V60h75C177.2,54.6,180.2,49.6,183.8,45"/>
	</g>
</g>
<rect x="71.5" y="140" class="st1" width="90" height="15"/>
<rect x="71.5" y="170" class="st1" width="70" height="15"/>
<rect x="71.5" y="200" class="st1" width="90" height="15"/>
<g>
	<g>
		<defs>
			<rect id="SVGID_00000052784147523157541730000016421240323025652651_" x="30" y="35" width="255" height="240"/>
		</defs>
		<clipPath id="SVGID_00000077314603492642337580000004852126113688782007_">
			<use xlink:href="#SVGID_00000052784147523157541730000016421240323025652651_"  style="overflow:visible;"/>
		</clipPath>
		<path style="clip-path:url(#SVGID_00000077314603492642337580000004852126113688782007_);fill:#4C6586;" d="M238.3,149.9
			L227,221.2l39.5,6.3l15.4-97.5C270.8,141.5,255.4,149.1,238.3,149.9"/>
	</g>
	<g>
		<defs>
			<rect id="SVGID_00000180368662781939381580000002237706208718580653_" x="30" y="35" width="255" height="240"/>
		</defs>
		<clipPath id="SVGID_00000067222423713106222570000004128730580792870586_">
			<use xlink:href="#SVGID_00000180368662781939381580000002237706208718580653_"  style="overflow:visible;"/>
		</clipPath>
		<path style="clip-path:url(#SVGID_00000067222423713106222570000004128730580792870586_);fill:#4C6586;" d="M271.1,80.7
			c0,10.7-21.4,32.1-21.4,21.4c0-21.4-21.4-21.4-21.4-32.1s10.7,0,21.4-10.7C257.3,51.8,271.1,70,271.1,80.7 M220.5,84.4
			c-0.9,11.2-0.4,13-3.9,19c-6.1,10.6-6.6,8.9-8.4,2.2c-2.2-8.4-11.3-19.8-6.7-25.1C206.1,75.3,221.3,74.6,220.5,84.4 M285,85
			c0-27.6-22.4-50-50-50s-50,22.4-50,50s22.4,50,50,50S285,112.6,285,85"/>
	</g>
	<g>
		<defs>
			<rect id="SVGID_00000023281460021284488890000010473255157177128068_" x="30" y="35" width="255" height="240"/>
		</defs>
		<clipPath id="SVGID_00000168113268141585337070000006644366707347576994_">
			<use xlink:href="#SVGID_00000023281460021284488890000010473255157177128068_"  style="overflow:visible;"/>
		</clipPath>
		<path style="clip-path:url(#SVGID_00000168113268141585337070000006644366707347576994_);fill:#4C6586;" d="M255,235.8l-17.3-2.7
			l-12.3-2l4,15.9l0,0l6,23.6c1.4,5.4,4.8,5.9,7.8,1.2l16.4-26l0,0l5.3-8.5L255,235.8L255,235.8z"/>
	</g>
</g>
<rect class="st5" width="320" height="320"/>
</svg>
