<?xml version="1.0" encoding="utf-8"?>
<!-- Generator: Adobe Illustrator 26.5.0, SVG Export Plug-In . SVG Version: 6.00 Build 0)  -->
<svg version="1.1" id="Layer_1" xmlns="http://www.w3.org/2000/svg" xmlns:xlink="http://www.w3.org/1999/xlink" x="0px" y="0px"
	 viewBox="0 0 320 320" style="enable-background:new 0 0 320 320;" xml:space="preserve">
<style type="text/css">
	.st0{clip-path:url(#SVGID_00000028290378460097622550000012444259764186433178_);fill:#4C6586;}
	.st1{fill:none;}
</style>
<g>
	<g>
		<defs>
			<rect id="SVGID_1_" x="66.4" y="37.9" width="187.3" height="244.1"/>
		</defs>
		<clipPath id="SVGID_00000005945951912410889710000006732411855888684983_">
			<use xlink:href="#SVGID_1_"  style="overflow:visible;"/>
		</clipPath>
		<path style="clip-path:url(#SVGID_00000005945951912410889710000006732411855888684983_);fill:#4C6586;" d="M208.6,137h-80v15h80
			V137z M208.6,110.6h-80v15h80V110.6z M238.6,267l-133.3,0.1c-10.2-0.1-19.3-9.4-21.5-14.6c-1.5-3.4-2.4-16.7-2.4-27V67.2
			c1.4,1.6,2.8,3.2,4.2,4.6c8.3,8.3,16.4,8.3,21.7,8.3c0.7,0,1.3,0,2,0c0.1,0,0.1,0,0.2,0L238.4,80L238.6,267z M253.6,274.4
			l-0.3-202c0-4.1-3.4-7.5-7.5-7.5l0,0l-136.3,0.2c-0.7,0-1.5,0-2.2,0c-4.5,0-7.3,0-11.2-3.9c-2.2-2.2-4.7-5.2-7-8.2h133.7
			c4.1,0,7.5-3.4,7.5-7.5s-3.4-7.5-7.5-7.5H74.4c-1.8,0-3.5,0.7-4.9,1.8c-1.9,1.4-3.2,3.6-3.2,6.1v179.5c0,5.8,0.3,25.1,3.6,33
			c4.1,9.5,18.1,23.6,35.3,23.7l140.9-0.1c2,0,3.9-0.8,5.3-2.2C252.9,278.3,253.6,276.4,253.6,274.4"/>
	</g>
</g>
<rect class="st1" width="320" height="320"/>
</svg>
