<?xml version="1.0" encoding="UTF-8"?><svg id="Layer_1" xmlns="http://www.w3.org/2000/svg" width="320" height="320" viewBox="0 0 320 320"><defs><style>.cls-1{fill:none;}.cls-1,.cls-2{stroke-width:0px;}.cls-2{fill:#4c6586;}</style></defs><path class="cls-2" d="M285.29,287.93H34.71c-6.12,0-11.11-5.2-11.11-11.59V115.42c0-2.31,1.33-4.41,3.41-5.41,2.08-1,4.55-.71,6.35.74l124.54,100.29c1.42,1.14,3.48,1.14,4.9,0l123.83-100.27c1.8-1.46,4.27-1.75,6.36-.75s3.42,3.1,3.42,5.42v160.91c0,6.39-4.98,11.59-11.11,11.59ZM35.6,275.93h248.8v-147.92l-114.05,92.36c-5.78,4.68-14.18,4.69-19.98.03L35.6,127.96v147.97ZM58.22,106.06h-12V38.07c0-3.31,2.69-6,6-6h216.14c3.31,0,6,2.69,6,6v67.97h-12v-61.97H58.22v61.99Z"/><rect class="cls-2" x="115.67" y="72.85" width="90" height="15"/><rect class="cls-2" x="115.67" y="102.85" width="90" height="15"/><rect class="cls-2" x="115.67" y="132.85" width="40" height="15"/><rect class="cls-1" x="0" y="0" width="320" height="320"/></svg>