<?xml version="1.0" encoding="utf-8"?>
<!-- Generator: Adobe Illustrator 28.1.0, SVG Export Plug-In . SVG Version: 6.00 Build 0)  -->
<svg version="1.1" id="Layer_1" xmlns="http://www.w3.org/2000/svg" xmlns:xlink="http://www.w3.org/1999/xlink" x="0px" y="0px"
	 viewBox="0 0 320 320" style="enable-background:new 0 0 320 320;" xml:space="preserve">
<style type="text/css">
	.st0{clip-path:url(#SVGID_00000110461254516012377120000016034615409816363396_);fill:#4C6586;}
</style>
<g>
	<defs>
		<rect id="SVGID_1_" width="320" height="320"/>
	</defs>
	<clipPath id="SVGID_00000170980435753453066870000012259396423626146703_">
		<use xlink:href="#SVGID_1_"  style="overflow:visible;"/>
	</clipPath>
	<path style="clip-path:url(#SVGID_00000170980435753453066870000012259396423626146703_);fill:#4C6586;" d="M217.5,125.5l0-80.5
		c0-2.8-2.2-5-5-5h0h-120c-2.8,0-6.6,1.6-8.5,3.5L41,86.5c-2,1.9-3.5,5.8-3.5,8.5v160.1c0,2.8,2.2,5,5,5l101.6-0.1
		c-3.4-4.7-6.4-9.7-8.8-15H52.5V110h55V55h95v70.6c3.3-0.4,6.6-0.6,10-0.6C214.2,125,215.8,125.4,217.5,125.5 M259.2,233.4
		c-1.3,2.6-4,4.2-6.8,4.2c-1.1,0-2.3-0.3-3.4-0.8l-40-20c-2.6-1.3-4.2-3.9-4.2-6.7v-40c0-4.2,3.4-7.5,7.5-7.5c4.2,0,7.5,3.4,7.5,7.5
		v35.3l35.8,17.9C259.6,225.1,261.1,229.6,259.2,233.4 M282.5,210c0-38.7-31.3-70-70-70c-38.7,0-70,31.3-70,70c0,38.7,31.3,70,70,70
		C251.2,280,282.5,248.7,282.5,210"/>
</g>
</svg>
