<?xml version="1.0" encoding="utf-8"?>
<!-- Generator: Adobe Illustrator 26.4.1, SVG Export Plug-In . SVG Version: 6.00 Build 0)  -->
<svg version="1.1" id="Layer_1" xmlns="http://www.w3.org/2000/svg" xmlns:xlink="http://www.w3.org/1999/xlink" x="0px" y="0px"
	 viewBox="0 0 320 320" style="enable-background:new 0 0 320 320;" xml:space="preserve">
<style type="text/css">
	.st0{clip-path:url(#SVGID_00000113331438632168685530000013592048079802840488_);fill:#4C6586;}
</style>
<g>
	<g>
		<defs>
			<rect id="SVGID_1_" width="320" height="320"/>
		</defs>
		<clipPath id="SVGID_00000050649058909611127620000018141843090298930339_">
			<use xlink:href="#SVGID_1_"  style="overflow:visible;"/>
		</clipPath>
		<path style="clip-path:url(#SVGID_00000050649058909611127620000018141843090298930339_);fill:#4C6586;" d="M69,217.5l-39,40h260
			l-39-40H69z M162.7,131.7c-3.5-2-8.5-3.2-14-4.5c4-5.1,6-11.7,6-19.2c0-15.3-12.7-23.4-21.8-23.4c-12.9,0-20.8,7.8-21.8,21.5
			c-0.9,12.7,6.1,18.4,9.8,21.5c0.1,0.1,0.2,0.2,0.4,0.3c-1.2,0.7-4,1.8-10.3,3.2c-13,2.9-15.2,20.2-15.3,21c-0.2,2,1.2,3.9,3.3,4.2
			c2,0.2,3.9-1.2,4.2-3.3c0-0.1,1.7-12.8,9.5-14.5c8.6-1.9,17-4.3,17-10.8c0-2.7-2-4.3-3.9-5.9c-3.3-2.7-7.7-6.3-7.1-15.2
			c0.7-9.8,5.4-14.6,14.3-14.6c5,0,14.3,4.7,14.3,15.9c0,5.3-1.3,12.8-7.7,17.9c-1.2,1-1.8,2.5-1.4,4c0.7,2.8,2.9,3.3,8.4,4.5
			c3.9,0.8,10.2,2.2,13,4.1C160.2,135.9,161.3,133.6,162.7,131.7 M245,187.5h-18.8c-0.8-4.1-2.7-9.6-6.5-13.2
			c-3.4-3.2-9.5-4.8-16.7-6.4c4-5.1,6-11.7,6-19.2c0-15.3-12.7-23.4-21.8-23.4c-12.9,0-20.8,7.8-21.8,21.5
			c-0.9,12.7,6.1,18.4,9.8,21.5c0.1,0.1,0.2,0.2,0.4,0.3c-1.2,0.7-4,1.9-10.3,3.2c-8.6,1.9-12.4,10.1-14.1,15.6H75v-110h170V187.5z
			 M159.1,187.5c1.4-3.5,3.7-7.4,7.8-8.3c8.6-1.9,17-4.3,17-10.8c0-2.7-2-4.3-3.9-5.9c-3.3-2.7-7.7-6.3-7.1-15.2
			c0.7-9.8,5.4-14.6,14.3-14.6c5,0,14.3,4.7,14.3,15.9c0,5.3-1.3,12.8-7.7,17.9c-1.2,1-1.8,2.5-1.4,4c0.7,2.8,2.9,3.3,8.4,4.5
			c4.3,0.9,11.5,2.5,13.7,4.7c2,1.8,3.2,4.9,3.9,7.7h-59.3V187.5z M260,197.5v-130c0-2.8-2.2-5-5-5H65c-2.8,0-5,2.2-5,5v130
			c0,2.8,2.2,5,5,5h190C257.8,202.5,260,200.2,260,197.5"/>
	</g>
</g>
</svg>
