<?xml version="1.0" encoding="utf-8"?>
<!-- Generator: Adobe Illustrator 28.0.0, SVG Export Plug-In . SVG Version: 6.00 Build 0)  -->
<svg version="1.1" id="Layer_1" xmlns="http://www.w3.org/2000/svg" xmlns:xlink="http://www.w3.org/1999/xlink" x="0px" y="0px"
	 viewBox="0 0 320 320" style="enable-background:new 0 0 320 320;" xml:space="preserve">
<style type="text/css">
	.st0{clip-path:url(#SVGID_00000047040665494001530700000002395423099811894914_);fill:#4C6586;}
	.st1{fill:none;}
</style>
<g>
	<g>
		<defs>
			<rect id="SVGID_1_" x="66.7" y="50.5" width="186.6" height="218.9"/>
		</defs>
		<clipPath id="SVGID_00000032642064263590608700000001824526306938627745_">
			<use xlink:href="#SVGID_1_"  style="overflow:visible;"/>
		</clipPath>
		<path style="clip-path:url(#SVGID_00000032642064263590608700000001824526306938627745_);fill:#4C6586;" d="M95.1,172.7
			l-13.4-13.4c-9.4,11.6-15.1,26.4-15.1,42.5c0,37.3,30.2,67.6,67.6,67.6c16.1,0,30.9-5.6,42.5-15.1L163.4,241
			c-8.1,6.1-18.2,9.7-29.2,9.7c-27,0-48.8-21.8-48.8-48.8C85.4,191,89,180.8,95.1,172.7 M232.9,72.4c0-12.1-9.8-21.9-21.9-21.9
			c-12.1,0-21.9,9.8-21.9,21.9s9.8,21.9,21.9,21.9C223.1,94.3,232.9,84.5,232.9,72.4 M233.5,145.8c-0.6,0.1-52.7,5.9-52.7,5.9
			l26.6-30.8c10.3-14.1-6-22.9-6-22.9l-52.7-29.9l0,0c-5.1-2.8-11-2.3-15,0.6l0,0l-27.4,24.7l0,0c-5.5,5.2-6.3,13.4-1.8,18.4
			s12.7,5.1,18.5,0.2l0,0l0.4-0.3l19.9-17.9l15,8.7l-23.9,31.7h-0.1c-16.1,0-30.9,5.7-42.5,15.1l13.4,13.4
			c8.1-6.1,18.2-9.7,29.2-9.7c27,0,48.8,21.9,48.8,48.8c0,10.9-3.6,21-9.7,29.2l13.4,13.4c9.4-11.7,15.1-26.4,15.1-42.5
			c0-7.3-1.2-14.3-3.3-20.9l21.5-3.7l-10.1,58c0,0-0.1,1.2-0.1,1.9c0,7.8,6.3,14.1,14.1,14.1c6.5,0,11.9-4.4,13.5-10.3l15.7-76.9
			C255.4,148.7,242.9,144,233.5,145.8"/>
	</g>
</g>
<rect class="st1" width="320" height="320"/>
</svg>
