<?xml version="1.0" encoding="utf-8"?>
<!-- Generator: Adobe Illustrator 26.5.0, SVG Export Plug-In . SVG Version: 6.00 Build 0)  -->
<svg version="1.1" id="Layer_1" xmlns="http://www.w3.org/2000/svg" xmlns:xlink="http://www.w3.org/1999/xlink" x="0px" y="0px"
	 viewBox="0 0 320 320" style="enable-background:new 0 0 320 320;" xml:space="preserve">
<style type="text/css">
	.st0{clip-path:url(#SVGID_00000137814739850037202140000011141777013237871544_);fill:#4C6586;}
</style>
<g>
	<g>
		<defs>
			<rect id="SVGID_1_" width="320" height="320"/>
		</defs>
		<clipPath id="SVGID_00000139294761849989699440000005589629498567875235_">
			<use xlink:href="#SVGID_1_"  style="overflow:visible;"/>
		</clipPath>
		<path style="clip-path:url(#SVGID_00000139294761849989699440000005589629498567875235_);fill:#4C6586;" d="M242.2,223.4H208v46.4
			h12.1v-17.9h19.1v-9.4h-19.1V233h22.1L242.2,223.4L242.2,223.4z M176.5,233.8c8.3,0,12.8,4.1,12.8,12.5c0,9.3-3.6,12.9-12.8,13.1
			h-5.7v-25.6L176.5,233.8L176.5,233.8z M178.6,223.4h-20v46.4h20c14.1,0,22.8-8.2,22.8-23.4C201.3,232,192.8,223.4,178.6,223.4
			 M134.3,233.1c3.7,0,6.5,1.8,6.5,6.1c0,4.2-2.7,5.8-6.5,5.8h-8.1v-11.9L134.3,233.1L134.3,233.1z M136.2,223.4h-22v46.4h12.1
			v-15.5h9.9c10.2,0,16.8-4.5,16.8-16C152.9,227.3,144.8,223.4,136.2,223.4 M250,208V35c0-2.8-2.2-5-5-5H140h-10.2H125
			c-2.8,0-6.6,1.6-8.5,3.5l-43,43c-2,2-3.5,5.8-3.5,8.5v7.7v7.3v155c0,2.8,2.2,5,5,5h25v-15H85V100h55V45h95v163H250z"/>
	</g>
</g>
</svg>
