<?xml version="1.0" encoding="utf-8"?>
<!-- Generator: Adobe Illustrator 26.5.0, SVG Export Plug-In . SVG Version: 6.00 Build 0)  -->
<svg version="1.1" id="Layer_1" xmlns="http://www.w3.org/2000/svg" xmlns:xlink="http://www.w3.org/1999/xlink" x="0px" y="0px"
	 viewBox="0 0 320 320" style="enable-background:new 0 0 320 320;" xml:space="preserve">
<style type="text/css">
	.st0{clip-path:url(#SVGID_00000047034949000112454170000014979619684112030087_);fill:#4C6586;}
	.st1{fill:none;}
</style>
<g>
	<g>
		<defs>
			<rect id="SVGID_1_" x="45" y="37.9" width="245" height="244.1"/>
		</defs>
		<clipPath id="SVGID_00000145765748025980343200000001410735410555871393_">
			<use xlink:href="#SVGID_1_"  style="overflow:visible;"/>
		</clipPath>
		<path style="clip-path:url(#SVGID_00000145765748025980343200000001410735410555871393_);fill:#4C6586;" d="M217.1,133.8
			c4.8-1.8,9.8-3,15-3.7L232,72.4c0-4.1-3.4-7.5-7.5-7.5l0,0L88.2,65.1c-0.7,0-1.5,0-2.2,0c-4.5,0-7.3,0-11.2-3.9
			c-2.2-2.2-4.7-5.2-7-8.2h133.7c4.1,0,7.5-3.4,7.5-7.5s-3.4-7.5-7.5-7.5H53.1c-1.8,0-3.5,0.7-4.9,1.8c-1.9,1.4-3.2,3.6-3.2,6.1
			v179.5c0,5.8,0.3,25.1,3.6,33c4.1,9.5,18.1,23.6,35.3,23.7l140.9-0.1c2,0,3.9-0.8,5.3-2.2c1.4-1.4,2.2-3.3,2.2-5.3v-15.3
			c-5.2-0.6-10.2-1.8-15-3.6V267L84,267.1c-10.2-0.1-19.3-9.4-21.5-14.7c-1.5-3.4-2.4-16.7-2.4-27V67.2c1.4,1.6,2.8,3.2,4.2,4.6
			c8.3,8.3,16.4,8.3,21.7,8.3c0.7,0,1.3,0,2,0c0.1,0,0.1,0,0.2,0L217,80L217.1,133.8z M187.2,137h-80v15h80V137z M107.2,125.6h80
			v-15h-80V125.6z M276.1,190.3c0,10.7-21.4,32.1-21.4,21.4c0-21.4-21.4-21.4-21.4-32.1s10.7,0,21.4-10.7
			C262.3,161.4,276.1,179.6,276.1,190.3 M225.5,194c-0.9,11.2-0.4,13-3.9,19c-6.1,10.6-6.6,8.9-8.4,2.2c-2.2-8.4-11.3-19.8-6.7-25.1
			C211.1,184.9,226.3,184.2,225.5,194 M290,194.6c0-27.6-22.4-50-50-50s-50,22.4-50,50s22.4,50,50,50S290,222.2,290,194.6"/>
	</g>
</g>
<rect class="st1" width="320" height="320"/>
</svg>
