<?xml version="1.0" encoding="utf-8"?>
<!-- Generator: Adobe Illustrator 26.5.0, SVG Export Plug-In . SVG Version: 6.00 Build 0)  -->
<svg version="1.1" id="Layer_1" xmlns="http://www.w3.org/2000/svg" xmlns:xlink="http://www.w3.org/1999/xlink" x="0px" y="0px"
	 viewBox="0 0 320 320" style="enable-background:new 0 0 320 320;" xml:space="preserve">
<style type="text/css">
	.st0{clip-path:url(#SVGID_00000034058417594661646220000005489676865489846462_);fill:#4C6586;}
</style>
<g>
	<g>
		<defs>
			<rect id="SVGID_1_" width="320" height="320"/>
		</defs>
		<clipPath id="SVGID_00000127018901547695185900000013140059777418880700_">
			<use xlink:href="#SVGID_1_"  style="overflow:visible;"/>
		</clipPath>
		<path style="clip-path:url(#SVGID_00000127018901547695185900000013140059777418880700_);fill:#4C6586;" d="M145.3,145.2v79.6
			c-36.5-3.8-65-34.7-65-72.1c0-40,32.5-72.5,72.5-72.5c37.4,0,68.3,28.5,72.1,65L145.3,145.2L145.3,145.2z M160.3,160.2h80v-7.5
			c0-48.2-39.3-87.5-87.5-87.5s-87.5,39.3-87.5,87.5s39.3,87.5,87.5,87.5h7.5V160.2z M254.8,174.8h-80v80
			C218.9,254.8,254.8,218.9,254.8,174.8 M307,233l-74,74H13V87l74-74h220V233z M320,320V220V0H100H0v100v220h220H320z"/>
	</g>
</g>
</svg>
