<?xml version="1.0" encoding="utf-8"?>
<!-- Generator: Adobe Illustrator 26.5.0, SVG Export Plug-In . SVG Version: 6.00 Build 0)  -->
<svg version="1.1" id="Layer_1" xmlns="http://www.w3.org/2000/svg" xmlns:xlink="http://www.w3.org/1999/xlink" x="0px" y="0px"
	 viewBox="0 0 320 320" style="enable-background:new 0 0 320 320;" xml:space="preserve">
<style type="text/css">
	.st0{clip-path:url(#SVGID_00000122712754246869456150000014774778630139039417_);fill:#4C6586;}
</style>
<g>
	<g>
		<defs>
			<rect id="SVGID_1_" width="320" height="320"/>
		</defs>
		<clipPath id="SVGID_00000067933189575776409420000003659906096369070249_">
			<use xlink:href="#SVGID_1_"  style="overflow:visible;"/>
		</clipPath>
		<path style="clip-path:url(#SVGID_00000067933189575776409420000003659906096369070249_);fill:#4C6586;" d="M253.7,110l-18,15
			c-8,6.7-16,13.3-24,20H62.1V75h149.6c8.1,6.8,16.3,13.5,24.4,20.3L253.7,110z M272.9,110c0-2.2-1-4.3-2.7-5.8l-24.5-20.4
			c-8.8-7.4-17.6-14.7-26.5-22.1c-1.3-1.1-3-1.7-4.8-1.7h-61.9V50c0-5.5-4.5-10-10-10h-5c-5.5,0-10,4.5-10,10v10H54.6
			c-4.1,0-7.5,3.4-7.5,7.5v85c0,4.1,3.4,7.5,7.5,7.5h72.9v110c0,5.5,4.5,10,10,10h5c5.5,0,10-4.5,10-10V160h61.9
			c1.8,0,3.5-0.6,4.8-1.7c8.7-7.3,17.4-14.5,26.1-21.8l24.9-20.7C271.9,114.3,272.9,112.2,272.9,110"/>
	</g>
</g>
</svg>
