<?xml version="1.0" encoding="utf-8"?>
<!-- Generator: Adobe Illustrator 26.5.0, SVG Export Plug-In . SVG Version: 6.00 Build 0)  -->
<svg version="1.1" id="Layer_1" xmlns="http://www.w3.org/2000/svg" xmlns:xlink="http://www.w3.org/1999/xlink" x="0px" y="0px"
	 viewBox="0 0 320 320" style="enable-background:new 0 0 320 320;" xml:space="preserve">
<style type="text/css">
	.st0{fill:#4C6586;}
	.st1{fill:none;}
</style>
<path class="st0" d="M194,82.5l3.1-4.4l-0.4-5.4c-0.3-3.6-0.6-7.2-0.9-10.9c6.3,4.4,12.7,8.9,19,13.3c6.2,4.4,12.4,8.7,18.6,13.1
	c-3.5,0.9-7,1.9-10.5,2.8l-5.3,1.4L183,141.9l-3.2,4.6l0.6,5.6c0.8,7,1.5,13.9,2.2,20.9c0.2,1.4,0.3,2.9,0.5,4.4
	c-9-6.3-18-12.6-27-18.9c-9-6.3-18-12.6-27-18.9c0.6-0.1,1.2-0.3,1.8-0.4c7.6-1.9,15.3-3.8,22.9-5.7l5.5-1.4L194,82.5z M178.1,31.1
	l3.6,42.8l-31.5,45l-56.8,14l45,31.5L88,236.5l-16.2,42.3l34.2-29.7l50.5-72.1l45,31.5l-6.3-58.1l31.5-45l41.5-11.3L178.1,31.1z"/>
<rect class="st1" width="320" height="320"/>
</svg>
