<?xml version="1.0" encoding="utf-8"?>
<!-- Generator: Adobe Illustrator 26.5.0, SVG Export Plug-In . SVG Version: 6.00 Build 0)  -->
<svg version="1.1" id="Layer_1" xmlns="http://www.w3.org/2000/svg" xmlns:xlink="http://www.w3.org/1999/xlink" x="0px" y="0px"
	 viewBox="0 0 320 320" style="enable-background:new 0 0 320 320;" xml:space="preserve">
<style type="text/css">
	.st0{clip-path:url(#SVGID_00000057106332024181972220000000911379058584085904_);fill:#52668C;}
	.st1{clip-path:url(#SVGID_00000106825890266788057560000000069840005679949245_);fill:#4C6586;}
	.st2{fill:none;}
</style>
<g>
	<g>
		<defs>
			<rect id="SVGID_1_" x="28.8" y="47.5" width="262.4" height="224.9"/>
		</defs>
		<clipPath id="SVGID_00000039135194976121709260000007578222067645418395_">
			<use xlink:href="#SVGID_1_"  style="overflow:visible;"/>
		</clipPath>
		<path style="clip-path:url(#SVGID_00000039135194976121709260000007578222067645418395_);fill:#52668C;" d="M283.7,272.5
			c-4,0-7.3-3.2-7.5-7.2c-0.2-5.3-2.5-20.5-9.8-27.3c-4.6-4.2-18.9-7.4-27.5-9.3c-10.9-2.4-15.5-3.4-16.8-9c-0.7-3,0.4-6.1,2.9-8
			c12.7-10.2,15.4-25.1,15.4-35.8c0-22.5-18.6-31.9-28.6-31.9c-17.9,0-27.2,9.5-28.6,29.1c-1.3,17.7,7.7,25,14.2,30.3
			c3.9,3.2,7.9,6.5,7.9,11.8c0,13-16.8,17.8-33.9,21.6c-15.6,3.5-18.9,28.8-18.9,29c-0.5,4.1-4.2,7-8.3,6.5s-7-4.2-6.6-8.3
			c0.2-1.5,4.5-36.1,30.6-41.9c12.5-2.8,18.1-5.1,20.6-6.5c-0.3-0.2-0.5-0.4-0.8-0.6c-7.5-6.1-21.4-17.6-19.6-43
			c1.9-27.4,17.8-43.1,43.6-43.1c18.3,0,43.6,16.3,43.6,46.9c0,15.1-4.1,28.2-12.1,38.4c14.2,3.2,26.5,6.4,33.3,12.7
			c13.1,12.2,14.4,35.1,14.5,37.7c0.2,4.1-3,7.6-7.2,7.8C283.9,272.5,283.8,272.5,283.7,272.5"/>
	</g>
	<g>
		<defs>
			<rect id="SVGID_00000038372954642181273560000013021838505414160297_" x="28.8" y="47.5" width="262.4" height="224.9"/>
		</defs>
		<clipPath id="SVGID_00000027570017066844068770000005460103462176191384_">
			<use xlink:href="#SVGID_00000038372954642181273560000013021838505414160297_"  style="overflow:visible;"/>
		</clipPath>
		<path style="clip-path:url(#SVGID_00000027570017066844068770000005460103462176191384_);fill:#4C6586;" d="M134.7,132.8
			c7.9-10.2,12.1-23.3,12.1-38.4c0-30.6-25.3-46.9-43.6-46.9c-25.7,0-41.6,15.7-43.6,43.1c-1.8,25.4,12.1,36.9,19.6,43
			c0.2,0.2,0.5,0.4,0.8,0.6c-2.5,1.4-8.1,3.7-20.6,6.5c-26,5.8-30.4,40.5-30.6,41.9c-0.5,4.1,2.5,7.8,6.6,8.3s7.8-2.4,8.3-6.5
			c0-0.3,3.3-25.6,18.9-29c17.2-3.8,33.9-8.6,33.9-21.6c0-5.3-4-8.6-7.9-11.8c-6.5-5.3-15.4-12.7-14.2-30.3
			c1.4-19.6,10.8-29.1,28.6-29.1c10,0,28.6,9.3,28.6,31.9c0,10.7-2.7,25.6-15.4,35.8c-2.5,2-3.6,5-2.9,8c1.3,5.6,5.8,6.6,16.8,9
			c7.8,1.7,20.4,4.5,26,8.2c1.5-5.2,3.6-9.7,6.4-13.6C155.7,137.8,145.8,135.3,134.7,132.8"/>
	</g>
</g>
<rect class="st2" width="320" height="320"/>
</svg>
