<?xml version="1.0" encoding="utf-8"?>
<!-- Generator: Adobe Illustrator 26.3.1, SVG Export Plug-In . SVG Version: 6.00 Build 0)  -->
<svg version="1.1" id="Layer_1" xmlns="http://www.w3.org/2000/svg" xmlns:xlink="http://www.w3.org/1999/xlink" x="0px" y="0px"
	 viewBox="0 0 320 320" style="enable-background:new 0 0 320 320;" xml:space="preserve">
<style type="text/css">
	.st0{clip-path:url(#SVGID_00000090287979195456843480000012831415555107576713_);fill:#52658B;}
</style>
<g>
	<defs>
		<rect id="SVGID_1_" width="320" height="320"/>
	</defs>
	<clipPath id="SVGID_00000134226776922313059240000004596486258998656443_">
		<use xlink:href="#SVGID_1_"  style="overflow:visible;"/>
	</clipPath>
	<path style="clip-path:url(#SVGID_00000134226776922313059240000004596486258998656443_);fill:#52658B;" d="M149.9,235.9
		l95.4-127.8l-31.9-24.1l-70,92.9l-41.9-37.7L74.7,169l74.3,66.9l0,0L149.9,235.9z M285,160c0,69-56,125-125,125
		c-69,0-125-56-125-125C35,91,91,35,160,35C229,35,285,91,285,160 M300,160c0-77.3-62.7-140-140-140C82.7,20,20,82.7,20,160
		c0,77.3,62.7,140,140,140C237.3,300,300,237.3,300,160"/>
</g>
</svg>
