<?xml version="1.0" encoding="utf-8"?>
<!-- Generator: Adobe Illustrator 27.0.0, SVG Export Plug-In . SVG Version: 6.00 Build 0)  -->
<svg version="1.1" id="Layer_1" xmlns="http://www.w3.org/2000/svg" xmlns:xlink="http://www.w3.org/1999/xlink" x="0px" y="0px"
	 viewBox="0 0 320 320" style="enable-background:new 0 0 320 320;" xml:space="preserve">
<style type="text/css">
	.st0{clip-path:url(#SVGID_00000114045139245552839380000010693592279468068019_);fill:#4C6586;}
</style>
<g>
	<defs>
		<rect id="SVGID_1_" width="320" height="320"/>
	</defs>
	<clipPath id="SVGID_00000065046218285738035190000013355334107446303898_">
		<use xlink:href="#SVGID_1_"  style="overflow:visible;"/>
	</clipPath>
	<path style="clip-path:url(#SVGID_00000065046218285738035190000013355334107446303898_);fill:#4C6586;" d="M269,260.2l-17.7-17.7
		l17.7-17.7l-8.8-8.8l-17.7,17.7L224.8,216l-8.8,8.8l17.7,17.7L216,260.2l8.8,8.8l17.7-17.7l17.7,17.7L269,260.2z M286.2,242.5
		c0,24.2-19.6,43.8-43.8,43.8c-24.2,0-43.8-19.6-43.8-43.8s19.6-43.8,43.8-43.8C266.7,198.8,286.2,218.3,286.2,242.5 M128.6,110.6
		h80v15h-80V110.6z M208.6,152h-80v-15h80V152z M253.5,181c-3.6-0.6-7.3-1-11-1c-1.3,0-2.7,0.1-4,0.1L238.4,80l-128.9,0.2
		c-0.1,0-0.2,0-0.2,0c-0.7,0-1.3,0-2,0c-5.4,0-13.4,0-21.7-8.3c-1.4-1.4-2.8-2.9-4.2-4.6v158.2c0,10.3,0.9,23.6,2.4,27
		c2.2,5.2,11.3,14.6,21.5,14.7L185,267c2.3,5.4,5.4,10.5,9.1,15l-88.8,0.1C88,281.9,74,267.8,70,258.3c-3.3-7.8-3.6-27.2-3.6-33
		V45.9c0-2.5,1.3-4.8,3.2-6.1c1.3-1.1,3.1-1.8,4.9-1.8h148.4c4.1,0,7.5,3.4,7.5,7.5c0,4.1-3.4,7.5-7.5,7.5H89.1c2.3,3,4.8,5.9,7,8.2
		c3.9,3.9,6.7,3.9,11.2,3.9c0.8,0,1.5,0,2.2,0l136.3-0.2h0c4.1,0,7.5,3.4,7.5,7.5L253.5,181z M320,0H0v320h320V0z"/>
</g>
</svg>
