<?xml version="1.0" encoding="utf-8"?>
<!-- Generator: Adobe Illustrator 26.5.0, SVG Export Plug-In . SVG Version: 6.00 Build 0)  -->
<svg version="1.1" id="Layer_1" xmlns="http://www.w3.org/2000/svg" xmlns:xlink="http://www.w3.org/1999/xlink" x="0px" y="0px"
	 viewBox="0 0 320 320" style="enable-background:new 0 0 320 320;" xml:space="preserve">
<style type="text/css">
	.st0{clip-path:url(#SVGID_00000004518982327465688280000014740576950858505392_);fill:#4C6586;}
	.st1{fill:#52658B;}
	.st2{fill:none;}
</style>
<g>
	<g>
		<defs>
			<rect id="SVGID_1_" x="60" y="20" width="180" height="285"/>
		</defs>
		<clipPath id="SVGID_00000070829718589624025990000004139695033179212424_">
			<use xlink:href="#SVGID_1_"  style="overflow:visible;"/>
		</clipPath>
		<path style="clip-path:url(#SVGID_00000070829718589624025990000004139695033179212424_);fill:#4C6586;" d="M240,245V25
			c0-2.8-2.2-5-5-5H130h-10.2H115c-2.8,0-6.6,1.6-8.5,3.5l-43,43c-2,2-3.5,5.8-3.5,8.5v7.7V90v155c0,2.8,2.2,5,5,5h50v-15H75V90h55
			V35h95v200h-40v15h50C237.8,250,240,247.8,240,245"/>
	</g>
</g>
<polygon class="st1" points="130,205 130,265 100,265 150,305 200,265 170,265 170,205 "/>
<rect class="st2" width="320" height="320"/>
</svg>
