<?xml version="1.0" encoding="utf-8"?>
<!-- Generator: Adobe Illustrator 19.2.1, SVG Export Plug-In . SVG Version: 6.00 Build 0)  -->
<svg version="1.2" baseProfile="tiny" id="Ebene_1" xmlns="http://www.w3.org/2000/svg" xmlns:xlink="http://www.w3.org/1999/xlink"
	 x="0px" y="0px" width="35px" height="35px" viewBox="0 0 35 35" xml:space="preserve">
<circle fill="none" stroke="#F6F6F6" stroke-width="1.1275" stroke-miterlimit="10" cx="17.9" cy="18.6" r="12.2"/>
<g>
	<path fill="#F6F6F6" d="M17.5,12.8c0.5,0,0.9,0.1,1.3,0.2c0.4,0.1,0.8,0.4,1.1,0.6c0.3,0.3,0.6,0.6,0.7,1c0.2,0.4,0.3,0.8,0.3,1.4
		c0,0.4-0.1,0.8-0.2,1.1s-0.3,0.6-0.6,0.9l-1.2,1.6c-0.1,0.1-0.2,0.3-0.2,0.4c-0.1,0.1-0.1,0.3-0.1,0.4v0.3h-2.1v-0.5
		c0-0.3,0-0.6,0.1-0.9c0.1-0.2,0.3-0.5,0.5-0.8l1.2-1.5c0.1-0.2,0.2-0.3,0.3-0.5c0.1-0.2,0.1-0.4,0.1-0.5c0-0.4-0.1-0.7-0.3-0.9
		c-0.2-0.3-0.5-0.4-1-0.4c-0.4,0-0.7,0.1-1,0.4c-0.2,0.3-0.3,0.6-0.3,0.9h-2.1c0-0.5,0.1-0.9,0.3-1.3c0.2-0.4,0.4-0.7,0.7-1
		s0.7-0.5,1.1-0.6S17.1,12.8,17.5,12.8z M18.7,24.3h-2.2v-2.1h2.2V24.3z"/>
</g>
</svg>
