<?xml version="1.0" encoding="utf-8"?>
<!-- Generator: Adobe Illustrator 19.2.1, SVG Export Plug-In . SVG Version: 6.00 Build 0)  -->
<svg version="1.2" baseProfile="tiny" id="Ebene_1" xmlns="http://www.w3.org/2000/svg" xmlns:xlink="http://www.w3.org/1999/xlink"
	 x="0px" y="0px" viewBox="0 0 35 35" xml:space="preserve">
<g>
	<path fill="#F6F6F6" d="M17.3,10.3c-7.1,0-12.8,5.8-12.8,12.8c0,0.1,0,0.3,0,0.4h3.2c0-0.1,0-0.7,0-0.9H5.8c0-1.2,0.3-2.5,0.7-3.6
		l1.8,0.7c0.1-0.3,0.2-0.5,0.3-0.8l-1.8-0.7c0.5-1.1,1.2-2.1,2.1-3l1.3,1.3c0.2-0.2,0.4-0.4,0.6-0.6l-1.3-1.3c0.9-0.8,1.9-1.5,3-2.1
		l0.7,1.8c0.3-0.1,0.5-0.2,0.8-0.3l-0.7-1.8c1.2-0.4,2.3-0.7,3.6-0.7v1.9c0.2,0,0.7,0,0.9,0v-1.9c1.2,0,2.5,0.3,3.6,0.7l-0.7,1.8
		c0.3,0.1,0.5,0.2,0.8,0.3l0.7-1.8c1.1,0.5,2.1,1.2,3,2.1L23.8,16c0.2,0.2,0.4,0.4,0.6,0.6l1.3-1.3c0.8,0.9,1.5,1.9,2.1,3L26,19
		c0.1,0.3,0.2,0.5,0.3,0.8l1.8-0.7c0.4,1.1,0.7,2.3,0.7,3.6h-1.9c0,0.1,0,0.7,0,0.9h3.2c0-0.1,0-0.3,0-0.4
		C30.1,16,24.4,10.3,17.3,10.3z"/>
	<path fill="#F6F6F6" d="M17.4,21.8c-0.4,0-0.8,0.1-1.1,0.5c-0.2,0.3-0.3,0.7-0.1,1.1L15.8,24l1.1,0.7l0.4-0.7
		c0.4,0,0.7-0.2,0.9-0.5c0.2-0.4,0.3-0.8,0.1-1.1l4.5-7.6L17.4,21.8z M17.8,23.2c-0.2,0.3-0.6,0.4-0.9,0.2c-0.3-0.2-0.4-0.6-0.2-0.9
		c0.2-0.3,0.6-0.4,0.9-0.2S18,22.9,17.8,23.2z"/>
</g>
</svg>
