<?xml version="1.0" encoding="utf-8"?>
<!-- Generator: Adobe Illustrator 18.0.0, SVG Export Plug-In . SVG Version: 6.00 Build 0)  -->
<!DOCTYPE svg PUBLIC "-//W3C//DTD SVG 1.1//EN" "http://www.w3.org/Graphics/SVG/1.1/DTD/svg11.dtd">
<svg version="1.1" id="Layer_1" xmlns="http://www.w3.org/2000/svg" xmlns:xlink="http://www.w3.org/1999/xlink" x="0px" y="0px"
	 width="20px" height="20px" viewBox="0 0 32 32" enable-background="new 0 0 32 32" xml:space="preserve">
<g>
	<defs>
		<path id="SVGID_1_" d="M15,2c-3.3,0-6.7,1.3-9.2,3.8c-5.1,5.1-5.1,13.3,0,18.4c4,4,9.8,4.8,14.6,2.6c0.1,0.3,0.2,0.5,0.5,0.7
			c0.7,0.7,1.8,0.8,2.4,0.3l0.2-0.2l4.1,4.5H32v-4.4l-4.5-4.1l0.2-0.2c0.6-0.6,0.5-1.6-0.3-2.4c-0.2-0.2-0.5-0.4-0.7-0.5
			c2.2-4.8,1.4-10.7-2.6-14.6C21.7,3.3,18.3,2,15,2z"/>
	</defs>
	<clipPath id="SVGID_2_">
		<use xlink:href="#SVGID_1_"  overflow="visible"/>
	</clipPath>
	
		<linearGradient id="SVGID_3_" gradientUnits="userSpaceOnUse" x1="1.0544" y1="34.4085" x2="2.0544" y2="34.4085" gradientTransform="matrix(18.3845 -18.3845 -18.3845 -18.3845 620.6891 677.8428)">
		<stop  offset="0" style="stop-color:#FF8D2C"/>
		<stop  offset="1.000000e-02" style="stop-color:#FF8D2C"/>
		<stop  offset="1" style="stop-color:#E56E1E"/>
	</linearGradient>
	<polygon clip-path="url(#SVGID_2_)" fill="url(#SVGID_3_)" points="-14.3,17 16.4,-13.6 47,17 16.4,47.6 	"/>
</g>
<g>
	<defs>
		<rect id="SVGID_4_" x="2" y="2" width="30" height="30"/>
	</defs>
	<clipPath id="SVGID_5_">
		<use xlink:href="#SVGID_4_"  overflow="visible"/>
	</clipPath>
	<path clip-path="url(#SVGID_5_)" fill="#FFFFFF" d="M22.2,22.2c4-4,4-10.5,0-14.4c-4-4-10.5-4-14.4,0c-4,4-4,10.5,0,14.4
		C11.8,26.2,18.2,26.2,22.2,22.2"/>
</g>
<g>
	<defs>
		<path id="SVGID_6_" d="M9.1,9.1c-1.4,1.4-2.2,3.2-2.4,5.1C6.9,14,7,13.8,7.1,13.7c4.4-4.4,11.4-4.4,15.8,0
			c0.2,0.2,0.3,0.3,0.4,0.5c-0.2-1.9-0.9-3.7-2.4-5.1c-1.6-1.6-3.8-2.4-5.9-2.4C12.9,6.6,10.7,7.5,9.1,9.1"/>
	</defs>
	<clipPath id="SVGID_7_">
		<use xlink:href="#SVGID_6_"  overflow="visible"/>
	</clipPath>
	
		<linearGradient id="SVGID_8_" gradientUnits="userSpaceOnUse" x1="1.1037" y1="33.625" x2="2.1037" y2="33.625" gradientTransform="matrix(9.6359 -9.6359 -9.6359 -9.6359 322.3476 351.0721)">
		<stop  offset="0" style="stop-color:#4C6585"/>
		<stop  offset="1.983430e-02" style="stop-color:#4C6585"/>
		<stop  offset="1" style="stop-color:#5A789F"/>
	</linearGradient>
	<polygon clip-path="url(#SVGID_7_)" fill="url(#SVGID_8_)" points="3,10.4 15,-1.6 27,10.4 15,22.5 	"/>
</g>
</svg>
