<?xml version="1.0" encoding="utf-8"?>
<!-- Generator: Adobe Illustrator 26.3.1, SVG Export Plug-In . SVG Version: 6.00 Build 0)  -->
<svg version="1.1" id="Layer_1" xmlns="http://www.w3.org/2000/svg" xmlns:xlink="http://www.w3.org/1999/xlink" x="0px" y="0px"
	 viewBox="0 0 320 320" style="enable-background:new 0 0 320 320;" xml:space="preserve">
<style type="text/css">
	.st0{clip-path:url(#SVGID_00000176014433849922923490000011117654587810482360_);fill:#52658B;}
</style>
<g>
	<defs>
		<rect id="SVGID_1_" width="320" height="320"/>
	</defs>
	<clipPath id="SVGID_00000072280112018093883730000010404754915763680130_">
		<use xlink:href="#SVGID_1_"  style="overflow:visible;"/>
	</clipPath>
	<path style="clip-path:url(#SVGID_00000072280112018093883730000010404754915763680130_);fill:#52658B;" d="M242.2,223.4H208v46.4
		h12.1v-17.9h19.1v-9.4h-19.1v-9.5h22.1V223.4z M176.5,233.8c8.3,0,12.8,4.1,12.8,12.5c0,9.3-3.6,12.9-12.8,13.1h-5.7v-25.6H176.5z
		 M178.6,223.4h-20v46.4h20c14.1,0,22.8-8.2,22.8-23.4C201.3,232,192.8,223.4,178.6,223.4 M134.3,233.1c3.7,0,6.5,1.8,6.5,6.1
		c0,4.2-2.7,5.8-6.5,5.8h-8.1v-11.9H134.3z M136.2,223.4h-22v46.4h12.1v-15.5h9.9c10.2,0,16.8-4.5,16.8-16
		C152.9,227.3,144.8,223.4,136.2,223.4 M250,208V35c0-2.8-2.2-5-5-5H140h-10.2H125c-2.8,0-6.6,1.6-8.5,3.5L73.5,76.5
		c-2,2-3.5,5.8-3.5,8.5v7.7v7.3v155c0,2.8,2.2,5,5,5h25v-15H85V100h55V45h95v163H250z"/>
</g>
</svg>
