<svg id="Layer_1" data-name="Layer 1" xmlns="http://www.w3.org/2000/svg" xmlns:xlink="http://www.w3.org/1999/xlink" viewBox="0 0 280 280"><defs><style>.cls-1{fill:none;}.cls-2{clip-path:url(#clip-path);}.cls-3{fill:#52658b;}</style><clipPath id="clip-path" transform="translate(-20 -20)"><rect class="cls-1" x="20" y="20" width="280" height="280"/></clipPath></defs><g class="cls-2"><path class="cls-3" d="M160,37.5A121.81,121.81,0,0,1,233.28,62L203.94,91.35a80.7,80.7,0,0,0-87.89,0L86.7,62A121.8,121.8,0,0,1,160,37.5M37.5,160A121.73,121.73,0,0,1,62,86.77l29.34,29.34a80.64,80.64,0,0,0,0,87.84L62,233.29A121.68,121.68,0,0,1,37.5,160M160,224.17A64.17,64.17,0,1,1,224.16,160,64.2,64.2,0,0,1,160,224.17m0,58.33A121.66,121.66,0,0,1,86.77,258l29.34-29.34a80.6,80.6,0,0,0,87.77,0L233.23,258A121.73,121.73,0,0,1,160,282.5M258,86.77a121.82,121.82,0,0,1,0,146.53L228.64,204a80.72,80.72,0,0,0,.05-87.84ZM300,160A140,140,0,1,0,160,300,140,140,0,0,0,300,160" transform="translate(-20 -20)"/></g></svg>