<?xml version="1.0" encoding="utf-8"?>
<!-- Generator: Adobe Illustrator 26.2.1, SVG Export Plug-In . SVG Version: 6.00 Build 0)  -->
<svg version="1.1" id="Layer_1" xmlns="http://www.w3.org/2000/svg" xmlns:xlink="http://www.w3.org/1999/xlink" x="0px" y="0px"
	 viewBox="0 0 320 320" style="enable-background:new 0 0 320 320;" xml:space="preserve">
<style type="text/css">
	.st0{clip-path:url(#SVGID_00000091737571561581541820000017999814005180700071_);fill:#52658B;}
</style>
<g>
	<defs>
		<rect id="SVGID_1_" width="320" height="320"/>
	</defs>
	<clipPath id="SVGID_00000051385019143627352210000015736486925992647094_">
		<use xlink:href="#SVGID_1_"  style="overflow:visible;"/>
	</clipPath>
	<path style="clip-path:url(#SVGID_00000051385019143627352210000015736486925992647094_);fill:#52658B;" d="M115,150H80v15h35V150z
		 M115,122.5H80v15h35V122.5z M115,95H80v15h35V95z M255,200.4H65v-120h190V200.4z M270,213V68.9c0,0,0-4.3-4.3-4.3H54.3
		c0,0-4.3,0-4.3,4.3V213c0,0,0,4.3,4.3,4.3h88.4v23.4h-19.4v14.7h73.3v-14.7h-19.4v-23.4h88.4C265.7,217.3,270,217.3,270,213"/>
</g>
</svg>
