<?xml version="1.0" encoding="utf-8"?>
<!-- Generator: Adobe Illustrator 27.0.0, SVG Export Plug-In . SVG Version: 6.00 Build 0)  -->
<svg version="1.1" id="Layer_1" xmlns="http://www.w3.org/2000/svg" xmlns:xlink="http://www.w3.org/1999/xlink" x="0px" y="0px"
	 viewBox="0 0 320 320" style="enable-background:new 0 0 320 320;" xml:space="preserve">
<style type="text/css">
	.st0{clip-path:url(#SVGID_00000140736345361847505430000017898688850676249222_);fill:#4C6586;}
</style>
<g>
	<g>
		<defs>
			<rect id="SVGID_1_" y="0" width="320" height="320"/>
		</defs>
		<clipPath id="SVGID_00000099631938914626412460000005911421579149799315_">
			<use xlink:href="#SVGID_1_"  style="overflow:visible;"/>
		</clipPath>
		<path style="clip-path:url(#SVGID_00000099631938914626412460000005911421579149799315_);fill:#4C6586;" d="M229.1,257.9h-33.6
			V288h33.6V257.9z M245.4,85.3c3.2-3.4,4.8-8.1,4.5-13.3c-0.6-8.5-6.1-17.5-15.1-24.7c-13.8-11-31.4-12.4-39.4-3.2
			c-2.8,3.2-3.7,8.2-4.8,13.9c-0.6,3.1-1.7,9.2-3.1,11.3c-0.4-0.2-1.1-0.5-2-1c-2.6-3.2-11.4-14.4-16.7-21l-1.1-1.4
			C161.8,38.4,155.2,30,143,30c-1.9,0-3.7,0.7-5,1.9l-17.2,15.5c-3.1,2.4-20.4,16.9-17.9,34.9c1.1,7.8,8.9,9.9,15.9,11.8
			c4,1.1,9.4,2.5,11.2,4.6c1.4,1.6,2.1,3.9,1.9,6.6c-0.4,5-3.8,10.5-9.3,14.9c-10.3,8.4-21.6,6.3-23.7,4.1c-0.9-1.1-1.9-5.6-2.6-8.5
			c-1.7-7.3-3.6-15.6-9.9-20.5c-12.3-9.6-25.7,3.9-30.1,8.4l-0.5,0.5c-3.9,3.9-15.9,18.5-20.4,27.2c-3.7,7.1,0.1,14.9,11.4,23.2
			c5.4,4,11.2,7.2,12.8,8.1c5.3,3.7,10.5,8.6,12.3,11.5c-1.6,1.1-4.1,2.1-6.7,3.1c-4.7,1.8-10.1,3.8-14.4,8.2
			c-10.5,10.6-4.1,31.7,1.5,40.1c7.5,11.3,29.7,13.2,40.8,6.4c11.4-7,12.5-17.2,13.1-23.3c0.1-1,0.2-2.3,0.4-3
			c0.3-0.2,0.4-0.3,0.4-0.3c0.1,0,1.2,0.2,3.4,2.4c5.2,5.2,19.1,20.4,21.1,22.6c4.6,6.1,10,9.1,15.8,9.1c1.3,0,2.5-0.1,3.8-0.4
			c5.8-1.2,11.2-5.1,17.4-9.5l0.3-0.2c13.6-9.7,21.6-27,17.6-37.7c-2.7-7.1-10.5-9-17.4-10.6c-4.5-1.1-9.5-2.3-11.7-4.4
			c-0.3-0.3-0.6-1.1-0.6-2.6c0-2.4,0.8-5.4,1.9-8.4l-10.4-12.9c-3.7,6.5-6.5,14.5-6.5,21.3s2.7,11,5,13.2c5.2,5.1,12.7,6.9,18.8,8.4
			c2.2,0.5,5.5,1.3,6.9,2c0.2,3.3-3.2,13-12.4,19.5l-0.3,0.2c-12.7,9-13,8.5-16.6,3.7c-0.1-0.2-0.3-0.4-0.5-0.6
			c-0.6-0.7-15.9-17.5-21.8-23.3c-4.9-4.9-9.7-6.7-14-6.7c-4.6,0-8.6,2.1-11.6,5.1c-3.4,3.4-3.8,7.8-4.2,11.7
			c-0.6,5.5-1.2,9.1-6,12.1c-5.2,3.2-18.2,1.5-20.5-1.9c-4.2-6.3-6.1-18.4-3.3-21.2c2-2,5.4-3.4,9.1-4.7c5.1-1.9,10.9-4.1,14.7-9.3
			c1.9-2.5,2.6-5.7,2.1-8.9c-1.5-9.3-14.2-19.1-19.5-22.9c-0.3-0.2-0.5-0.3-0.8-0.5c-7.6-4-15.4-9.8-17.6-12.8
			c4.3-7.4,14.3-19.4,16.9-22.1l0.6-0.6c7.3-7.4,9.7-7.3,10.1-7.2c0,0,0.1,0,0.2,0.1c2.1,1.6,3.5,7.7,4.5,12.1
			c1.4,5.9,2.6,11.4,6.1,15.2c8.3,9.1,28.5,10.3,44.2-2.5c8.8-7.1,14-16.1,14.8-25.4c0.6-6.8-1.4-13.1-5.6-17.7
			c-4.8-5.4-12.4-7.5-18.5-9.1c-1.5-0.4-3.6-1-5-1.5c0.4-8,9-16.3,12.5-19.1c0.2-0.1,0.3-0.3,0.5-0.4l14.8-13.4
			c3.4,1.1,6.2,4.5,10.4,9.8l1.1,1.5c6.2,7.9,17.4,22,17.4,22c0.4,0.6,1,1,1.5,1.4c6.2,4.4,12,5.6,17.1,3.6
			c8.6-3.4,10.6-14.1,12.2-22.8c0.4-2.3,1.1-5.8,1.6-7.1c1.7-1.3,10-1.5,18.4,5.3c6.7,5.4,9.3,10.7,9.5,14c0.1,1.2-0.2,1.7-0.3,1.9
			c-2.9,3.1-5.5,3.9-9.1,5c-4.9,1.5-11.1,3.4-16.5,11.2c-1.1,1.7-1.9,3.4-2.3,5.2l15.5,2.2c2.1-2.6,4.2-3.2,7.7-4.3
			C234.3,92.9,239.8,91.2,245.4,85.3 M270,159.7c0-29.9-28.6-41.7-55-41.7c-16.3,0-28.9,3-42.9,7.3l1.5,26.1c10.8-4,22.6-7,34.1-7
			c12.8,0,26.4,5.8,26.4,20.1c0,28.4-36.7,28.4-36.7,72.1v3.3H227V236C227.1,200.9,270,197.4,270,159.7"/>
	</g>
</g>
</svg>
