<?xml version="1.0" encoding="utf-8"?>
<!-- Generator: Adobe Illustrator 26.4.1, SVG Export Plug-In . SVG Version: 6.00 Build 0)  -->
<svg version="1.1" id="Layer_1" xmlns="http://www.w3.org/2000/svg" xmlns:xlink="http://www.w3.org/1999/xlink" x="0px" y="0px"
	 viewBox="0 0 320 320" style="enable-background:new 0 0 320 320;" xml:space="preserve">
<style type="text/css">
	.st0{clip-path:url(#SVGID_00000085218747484341902090000010733905395395791029_);fill:#4C6586;}
</style>
<g>
	<g>
		<defs>
			<rect id="SVGID_1_" width="320" height="320"/>
		</defs>
		<clipPath id="SVGID_00000081621121405054177170000017079318453621343678_">
			<use xlink:href="#SVGID_1_"  style="overflow:visible;"/>
		</clipPath>
		<path style="clip-path:url(#SVGID_00000081621121405054177170000017079318453621343678_);fill:#4C6586;" d="M100,273.7v5
			c0,2.8,2.2,5,5,5h110c2.8,0,5-2.2,5-5v-5c0-2.8-2.2-5-5-5H105C102.2,268.7,100,271,100,273.7 M253.9,68.5
			c-2.3,13.1-9.3,38.3-28.4,43.9c0-0.4,0-0.8,0-1.2c0-5.1,0-12-0.1-20.7c-0.1-8.1-0.2-16.3-0.3-22H253.9z M210,123.2
			c0,21-22.4,38-50,38s-50-17.1-50-38v-72h100V123.2z M94.9,68.5c-0.1,5.7-0.2,13.8-0.3,22c-0.1,8.7-0.1,15.6-0.1,20.7
			c0,0.4,0,0.8,0,1.2c-19.1-5.6-26.1-30.8-28.4-43.9C66.1,68.5,94.9,68.5,94.9,68.5z M270,61.5c0.1-2.1-0.6-4.1-2-5.6
			s-3.4-2.4-5.5-2.4H225V36.2H95v17.2H57.5c-2.1,0-4.1,0.9-5.5,2.4s-2.1,3.6-2,5.6c0,0.7,1.2,16.4,7.7,32.3
			c8.1,19.9,21,31.5,37.5,34.1c2.7,25,26.8,45.1,57.2,48v67.9H120c-5,0-5,5-5,5v5c0,5,5,5,5,5h80c5,0,5-5,5-5v-5c0-5-5-5-5-5h-32.5
			v-67.9c30.4-2.9,54.5-22.9,57.2-48c16.5-2.6,29.4-14.2,37.5-34.1C268.8,77.9,269.9,62.2,270,61.5"/>
	</g>
</g>
</svg>
