<?xml version="1.0" encoding="utf-8"?>
<!-- Generator: Adobe Illustrator 26.3.1, SVG Export Plug-In . SVG Version: 6.00 Build 0)  -->
<svg version="1.1" id="Layer_1" xmlns="http://www.w3.org/2000/svg" xmlns:xlink="http://www.w3.org/1999/xlink" x="0px" y="0px"
	 viewBox="0 0 320 320" style="enable-background:new 0 0 320 320;" xml:space="preserve">
<style type="text/css">
	.st0{clip-path:url(#SVGID_00000098206719363459322320000008603056946793152391_);fill:#52668C;}
	.st1{fill:#52658B;}
	.st2{fill:none;}
</style>
<g>
	<defs>
		<rect id="SVGID_1_" x="35.3" y="40" width="229.7" height="248.6"/>
	</defs>
	<clipPath id="SVGID_00000088811254983377427610000012843683984560993466_">
		<use xlink:href="#SVGID_1_"  style="overflow:visible;"/>
	</clipPath>
	<path style="clip-path:url(#SVGID_00000088811254983377427610000012843683984560993466_);fill:#52668C;" d="M250,165H70V55h180V165
		z M265,170V50c0-5.5-4.5-10-10-10H65c-5.5,0-10,4.5-10,10v120c0,5.5,4.5,10,10,10h123c0.1,0.2,0.1,0.4,0.2,0.6L204,215h-68.6
		l15.6,20h62.2l17.5,38.1c1.3,2.8,4,4.4,6.8,4.4c1,0,2.1-0.2,3.1-0.7c3.8-1.7,5.4-6.2,3.7-9.9L204.4,180H255
		C260.5,180,265,175.5,265,170"/>
</g>
<polygon class="st1" points="95.3,220.6 35.3,220.6 35.3,256.6 95.3,256.6 95.3,288.6 140.3,238.6 95.3,188.6 "/>
<rect class="st2" width="320" height="320"/>
</svg>
