<?xml version="1.0" encoding="utf-8"?>
<!-- Generator: Adobe Illustrator 26.5.0, SVG Export Plug-In . SVG Version: 6.00 Build 0)  -->
<svg version="1.1" id="Layer_1" xmlns="http://www.w3.org/2000/svg" xmlns:xlink="http://www.w3.org/1999/xlink" x="0px" y="0px"
	 viewBox="0 0 320 320" style="enable-background:new 0 0 320 320;" xml:space="preserve">
<style type="text/css">
	.st0{clip-path:url(#SVGID_00000022553788913473869120000015455031669740468641_);fill:#4C6586;}
</style>
<g>
	<g>
		<defs>
			<rect id="SVGID_1_" y="0" width="320" height="320"/>
		</defs>
		<clipPath id="SVGID_00000034074590708719567720000014562621115749819827_">
			<use xlink:href="#SVGID_1_"  style="overflow:visible;"/>
		</clipPath>
		<path style="clip-path:url(#SVGID_00000034074590708719567720000014562621115749819827_);fill:#4C6586;" d="M195.6,146.5
			l-25.3-26.2l9.3-34.8l-29,16.8L115.4,79l2.5,42.1l-29,16.9l34.8,9.3l10,35l22-33.4L195.6,146.5z M276.2,269.1L262.1,255l14.1-14.1
			l-7.1-7.1L255,247.9l-14.1-14.1l-7.1,7.1l14.1,14.1l-14.1,14.1l7.1,7.1l14.1-14.1l14.1,14.1L276.2,269.1z M290,255
			c0,19.3-15.7,35-35,35s-35-15.7-35-35s15.7-35,35-35S290,235.7,290,255 M187,116l42.1,43.5l-65,3.9l-35.9,54.3l-16.6-58.2
			L50,143.1l52.4-30.2L98.6,50l52.5,34.7l52.4-30.2L187,116z M165.4,189.1l7-11.4l13.1-0.8l28.5,49.4c-5.7,8.1-9,18-9,28.6
			c0,1,0,2,0.1,2.9L165.4,189.1z M320,0H0v320h320V0z"/>
	</g>
</g>
</svg>
