<?xml version="1.0" encoding="utf-8"?>
<!-- Generator: Adobe Illustrator 18.1.1, SVG Export Plug-In . SVG Version: 6.00 Build 0)  -->
<!DOCTYPE svg PUBLIC "-//W3C//DTD SVG 1.1//EN" "http://www.w3.org/Graphics/SVG/1.1/DTD/svg11.dtd">
<svg version="1.1" id="Layer_1" xmlns="http://www.w3.org/2000/svg" xmlns:xlink="http://www.w3.org/1999/xlink" x="0px" y="0px" width="32px" height="32px"
	 viewBox="0 0 32 32" enable-background="new 0 0 32 32" xml:space="preserve">
<g>
	<defs>
		<rect id="SVGID_1_" x="6" y="4" width="23" height="23.5"/>
	</defs>
	<clipPath id="SVGID_2_">
		<use xlink:href="#SVGID_1_"  overflow="visible"/>
	</clipPath>
	<path clip-path="url(#SVGID_2_)" fill="#52658A" d="M18.6,4.5h-7.1c0,0-0.5,0-0.9,0.4L6.4,9.1C6.4,9.1,6,9.5,6,10v17
		c0,0,0,0.5,0.5,0.5h17c0,0,0.5,0,0.5-0.5V13.4l-2,0v12.1H8v-14h5v-5h4.7C17.8,5.9,18,5.2,18.6,4.5"/>
</g>
<g>
	<defs>
		<path id="SVGID_3_" d="M20.2,4.5c-2,1-1.5,3.3-1.5,3.3c-1.5-0.6-3,0.1-3.3,1.3c-0.8,3.1,2.6,3.4,2.6,3.4h8.3c0,0,2.6-0.3,2.6-2.6
			V9.8c0-0.1,0-0.2,0-0.3c-0.3-2.8-3.3-2.7-3.3-2.7s-0.1-1.9-2-2.5C23.1,4.1,22.5,4,22.1,4C21,4,20.3,4.5,20.2,4.5"/>
	</defs>
	<clipPath id="SVGID_4_">
		<use xlink:href="#SVGID_3_"  overflow="visible"/>
	</clipPath>
	
		<linearGradient id="SVGID_5_" gradientUnits="userSpaceOnUse" x1="-260.0139" y1="335.2582" x2="-259.0139" y2="335.2582" gradientTransform="matrix(13.6757 0 0 -13.6757 3571.2058 4593.1235)">
		<stop  offset="0" style="stop-color:#21C4D7"/>
		<stop  offset="1.983430e-02" style="stop-color:#21C4D7"/>
		<stop  offset="1" style="stop-color:#32D0F6"/>
	</linearGradient>
	<rect x="14.7" y="4" clip-path="url(#SVGID_4_)" fill="url(#SVGID_5_)" width="14.3" height="8.4"/>
</g>
</svg>
