<?xml version="1.0" encoding="utf-8"?>
<!-- Generator: Adobe Illustrator 27.0.0, SVG Export Plug-In . SVG Version: 6.00 Build 0)  -->
<svg version="1.1" id="Layer_1" xmlns="http://www.w3.org/2000/svg" xmlns:xlink="http://www.w3.org/1999/xlink" x="0px" y="0px"
	 viewBox="0 0 320 320" style="enable-background:new 0 0 320 320;" xml:space="preserve">
<style type="text/css">
	.st0{clip-path:url(#SVGID_00000018938955150218463240000006671453992473661116_);fill:#4C6586;}
</style>
<g>
	<g>
		<defs>
			<rect id="SVGID_1_" y="0" width="320" height="320"/>
		</defs>
		<clipPath id="SVGID_00000136402758384530147650000010575675282550728353_">
			<use xlink:href="#SVGID_1_"  style="overflow:visible;"/>
		</clipPath>
		<path style="clip-path:url(#SVGID_00000136402758384530147650000010575675282550728353_);fill:#4C6586;" d="M195.6,146.5
			l-25.3-26.2l9.3-34.8l-29,16.8L115.4,79l2.5,42.1l-29,16.9l34.8,9.3l10,35l22-33.4L195.6,146.5z M269,260.2l-17.7-17.7l17.7-17.7
			l-8.8-8.8l-17.7,17.7L224.8,216l-8.8,8.8l17.7,17.7L216,260.2l8.8,8.8l17.7-17.7l17.7,17.7L269,260.2z M286.2,242.5
			c0,24.2-19.6,43.8-43.8,43.8s-43.8-19.6-43.8-43.8s19.6-43.8,43.8-43.8C266.7,198.8,286.2,218.3,286.2,242.5 M187,116l42.1,43.5
			l-65,3.9l-35.9,54.3l-16.6-58.2L50,143.1l52.4-30.2L98.6,50l52.5,34.7l52.4-30.2L187,116z M165.4,189.1l7-11.4l13.1-0.8l12.5,21.6
			c-6.2,6.3-11.1,13.9-14.2,22.4L165.4,189.1z M320,0H0v320h320V0z"/>
	</g>
</g>
</svg>
