<?xml version="1.0" encoding="utf-8"?>
<!-- Generator: Adobe Illustrator 26.3.1, SVG Export Plug-In . SVG Version: 6.00 Build 0)  -->
<svg version="1.1" id="Layer_1" xmlns="http://www.w3.org/2000/svg" xmlns:xlink="http://www.w3.org/1999/xlink" x="0px" y="0px"
	 viewBox="0 0 320 320" style="enable-background:new 0 0 320 320;" xml:space="preserve">
<style type="text/css">
	.st0{clip-path:url(#SVGID_00000075153808354057665910000009475144312364723592_);fill:#52668C;}
	.st1{fill:none;}
</style>
<g>
	<defs>
		<rect id="SVGID_1_" x="60" y="53.9" width="200" height="212.3"/>
	</defs>
	<clipPath id="SVGID_00000152266589328614885620000010337797766437854879_">
		<use xlink:href="#SVGID_1_"  style="overflow:visible;"/>
	</clipPath>
	<path style="clip-path:url(#SVGID_00000152266589328614885620000010337797766437854879_);fill:#52668C;" d="M260,258.3
		c-0.1-1.3-1.5-32.6-18.6-48.5c-9.6-8.9-30-13.4-44.8-16.7c-0.8-0.2-1.6-0.4-2.4-0.5c11.9-13.6,18.1-31.6,18.1-52.8
		c0-4.2-0.4-8.2-1-11.8c2.4-0.6,4.5-1.3,6.3-2c10.5-4,10.5-10.3,10.5-15.5c0-5.3-4.1-11.7-16.5-8.5c0,0-2.2,0.3-6.4,0.7l-1.5-21.4
		c-1.5-21.2-24.2-29.1-51.3-27.2c-27.2,1.9-48.5,12.9-47,34.1l0.9,12.3c-19.6,0.8-33.8,4.8-32.2,13.8c0.9,5.2,4,15.5,20.6,11.7
		c0,0,2.8-0.5,7.7-1c-0.6,3.1-1,6.4-1.2,9.9c-2.3,32.6,15.6,47.3,25.3,55.2c1.1,0.9,2.5,2.1,3.5,3c-1.7,1.8-8.1,5.8-30.9,10.9
		c-33,7.3-38.6,51.9-38.8,53.8c-0.5,4.1,2.5,7.8,6.6,8.3c4.1,0.5,7.8-2.4,8.3-6.6c0-0.4,4.6-35.9,27.2-40.9
		c26-5.8,43.3-12.5,43.3-26.3c0-5.9-4.4-9.5-9.6-13.8c-9.1-7.5-21.6-17.7-19.8-42.6c0.3-4.3,0.9-8.3,1.8-11.9
		c10.9-0.3,25,0.2,40.8,2.6c16.9,2.6,28.9,3.4,37.8,3.1c0.6,3.1,1,6.4,1,10c0,14.8-3.7,35.4-21.5,49.6c-2.5,2-3.6,5.2-2.9,8.2
		c1.4,5.9,6.6,7.1,20.5,10.1c11.7,2.6,31.3,6.9,37.8,13c10.4,9.7,13.5,30.8,13.8,38.1c0.2,4,3.5,7.2,7.5,7.2c0.1,0,0.2,0,0.3,0
		C256.9,266,260.2,262.5,260,258.3"/>
</g>
<rect class="st1" width="320" height="320"/>
</svg>
