<?xml version="1.0" encoding="utf-8"?>
<!-- Generator: Adobe Illustrator 26.5.0, SVG Export Plug-In . SVG Version: 6.00 Build 0)  -->
<svg version="1.1" id="Layer_1" xmlns="http://www.w3.org/2000/svg" xmlns:xlink="http://www.w3.org/1999/xlink" x="0px" y="0px"
	 viewBox="0 0 320 320" style="enable-background:new 0 0 320 320;" xml:space="preserve">
<style type="text/css">
	.st0{clip-path:url(#SVGID_00000127011337580127358780000018216205023086602654_);fill:#4C6586;}
</style>
<g>
	<g>
		<defs>
			<rect id="SVGID_1_" width="320" height="320"/>
		</defs>
		<clipPath id="SVGID_00000049201453284776675860000003993864322246528943_">
			<use xlink:href="#SVGID_1_"  style="overflow:visible;"/>
		</clipPath>
		<path style="clip-path:url(#SVGID_00000049201453284776675860000003993864322246528943_);fill:#4C6586;" d="M77.7,174.8l65.5,78.1
			c-20.1,0-37.3,0-43.9,0c-10.9,0,0,24.9,0,24.9h131.8c0,0,10.4-24.9,0-24.9H165l-73.8-88C88.8,170.3,83.8,173.9,77.7,174.8
			 M75.1,144.9c-6.9,0-12.5,5.6-12.5,12.5s5.6,12.5,12.5,12.5s12.5-5.6,12.5-12.5C87.6,150.4,82,144.9,75.1,144.9 M214.9,52.9
			c-19.3-0.3-35.8,7.1-35.8,7.1l-22.7-18.9c0,0-9.1-6.4-16.1,2.9s-15.5,19.6-15.5,19.6s-9.3,10.2-1,17.4c2,1.7,4,3.4,5.9,5.1
			L78.5,140c6.2,0.9,11.3,4.6,13.3,10.3l50.4-53.1c1.4,1.2,2.2,2,2.2,2s-1.1,13.7,2.5,31.8s13.3,30.5,13.3,30.5s9.1,8.1,16.2-0.8
			c7.1-8.9,68.7-81.6,70.6-88.7C248.9,65.1,234.2,53.3,214.9,52.9"/>
	</g>
</g>
</svg>
