<?xml version="1.0" encoding="utf-8"?>
<!-- Generator: Adobe Illustrator 28.1.0, SVG Export Plug-In . SVG Version: 6.00 Build 0)  -->
<svg version="1.1" id="Layer_1" xmlns="http://www.w3.org/2000/svg" xmlns:xlink="http://www.w3.org/1999/xlink" x="0px" y="0px"
	 viewBox="0 0 320 320" style="enable-background:new 0 0 320 320;" xml:space="preserve">
<style type="text/css">
	.st0{fill:#4C6586;}
</style>
<g>
	<defs>
		<rect id="SVGID_1_" width="320" height="320"/>
	</defs>
	<clipPath id="SVGID_00000029750795693059830620000017520018448434849671_">
		<use xlink:href="#SVGID_1_"  style="overflow:visible;"/>
	</clipPath>
</g>
<g>
	<defs>
		<rect id="SVGID_00000119823493522427324920000008076703222596708241_" x="40" y="40" width="245" height="240"/>
	</defs>
	<clipPath id="SVGID_00000087403417090063535440000012494933727240275633_">
		<use xlink:href="#SVGID_00000119823493522427324920000008076703222596708241_"  style="overflow:visible;"/>
	</clipPath>
</g>
<path class="st0" d="M220,125.5l0-80.5c0-2.8-2.2-5-5-5h0H95c-2.8,0-6.6,1.6-8.5,3.5L43.5,86.5c-2,1.9-3.5,5.8-3.5,8.5v160.1
	c0,2.8,2.2,5,5,5l101.6-0.1c-3.4-4.7-6.4-9.7-8.8-15H55V110h55V55h95v70.6c3.3-0.4,6.6-0.6,10-0.6C216.7,125,218.3,125.4,220,125.5
	 M132.4,230c-1.5-6.4-2.4-13.1-2.4-20c0-4.5,0.4-8.9,1-13.3L97.8,230H132.4z M76.6,230l68-68H70v68H76.6z M261.7,233.4
	c-1.3,2.6-4,4.2-6.8,4.2c-1.1,0-2.3-0.3-3.4-0.8l-40-20c-2.6-1.3-4.2-3.9-4.2-6.7v-40c0-4.2,3.4-7.5,7.5-7.5c4.2,0,7.5,3.4,7.5,7.5
	v35.3l35.8,17.9C262.1,225.1,263.6,229.6,261.7,233.4 M285,210c0-38.7-31.3-70-70-70c-38.7,0-70,31.3-70,70c0,38.7,31.3,70,70,70
	C253.7,280,285,248.7,285,210"/>
</svg>
