<?xml version="1.0" encoding="utf-8"?>
<!-- Generator: Adobe Illustrator 26.2.1, SVG Export Plug-In . SVG Version: 6.00 Build 0)  -->
<svg version="1.1" id="Layer_1" xmlns="http://www.w3.org/2000/svg" xmlns:xlink="http://www.w3.org/1999/xlink" x="0px" y="0px"
	 viewBox="0 0 320 320" style="enable-background:new 0 0 320 320;" xml:space="preserve">
<style type="text/css">
	.st0{clip-path:url(#SVGID_00000099654610201870603560000001519124020484268421_);fill:#52658B;}
</style>
<g>
	<defs>
		<rect id="SVGID_1_" width="320" height="320"/>
	</defs>
	<clipPath id="SVGID_00000044170644935319498640000017642465253314787463_">
		<use xlink:href="#SVGID_1_"  style="overflow:visible;"/>
	</clipPath>
	<path style="clip-path:url(#SVGID_00000044170644935319498640000017642465253314787463_);fill:#52658B;" d="M69.9,215.6
		c0,12.2,6.2,22.9,15.7,29.2c5.6,3.8,12.3,6,19.6,6c19.3,0,35-15.7,35-35c0-12.2-6.2-22.9-15.7-29.2c-5.6-3.8-12.3-6-19.6-6
		C85.5,180.6,69.9,196.3,69.9,215.6 M61,116.5c0,4.1,3.4,7.5,7.5,7.5c34,0,66,13.3,90.1,37.4c24.1,24.1,37.4,56.1,37.4,90.1
		c0,4.1,3.4,7.5,7.5,7.5c4.1,0,7.5-3.4,7.5-7.5c0-38-14.8-73.8-41.8-100.7C142.3,123.8,106.5,109,68.5,109
		C64.4,109,61,112.4,61,116.5 M268,251.5c0-53.2-20.8-103.3-58.5-141C171.8,72.8,121.7,52,68.5,52c-4.1,0-7.5,3.4-7.5,7.5
		c0,4.1,3.4,7.5,7.5,7.5c49.2,0,95.5,19.2,130.4,54.1C233.8,156,253,202.3,253,251.5c0,4.1,3.4,7.5,7.5,7.5
		C264.6,259,268,255.6,268,251.5"/>
</g>
</svg>
