<?xml version="1.0" encoding="utf-8"?>
<!-- Generator: Adobe Illustrator 26.4.1, SVG Export Plug-In . SVG Version: 6.00 Build 0)  -->
<svg version="1.1" id="Layer_1" xmlns="http://www.w3.org/2000/svg" xmlns:xlink="http://www.w3.org/1999/xlink" x="0px" y="0px"
	 viewBox="0 0 320 320" style="enable-background:new 0 0 320 320;" xml:space="preserve">
<style type="text/css">
	.st0{fill:#4C6586;}
	.st1{fill:none;}
</style>
<path class="st0" d="M254.7,232.1l3.8-0.8c8.4-1.7,16.6,0.5,22.5,5.9c5,4.7,7.8,11.1,7.8,18.2c0.1,7.2-2.7,14.3-7.8,19.7
	c-5.1,5.5-11.9,8.8-19.1,9.2c-7.1,0.4-13.8-1.9-18.8-6.6c-5.9-5.5-8.6-13.5-7.5-22l0.5-3.8L99.2,124.4l-4.6,2.2
	c-21.8,10.6-45.4,3.4-54.9-9.4C29.2,103,28.3,81.5,30.6,72.5l21.2,28.7l2.5,0.7c0.7,0.2,16.9,4.5,31.1-6.5
	C99.6,84.5,100,67.6,100,66.9v-2.5l-1.5-2c0,0-14.6-19.7-19.9-27c8.8,0.2,28.7,6.4,39.6,21.2c7.6,10.4,8.5,28.1,2,43.1l-2.1,4.9
	L254.7,232.1z M305.5,41.9l-17.1-18.3L252,40.5L241.8,67l0,0l-71,66.3l-35-32.6c6.4-18.8,4.3-39.5-5.6-53
	C120,33.9,105.1,27.1,97.1,24.2c-5-1.8-22.1-7.1-30.9-0.5c-4.5,3.3-7.4,10.2-1,18.9c3,4.1,15,20.3,19.5,26.4
	c-0.6,3.4-2.5,10-8.5,14.6c-5.9,4.5-12.4,4.6-15.7,4.3L41.1,61.5c-6.3-8.6-13.7-7.8-18.1-4.6c-12.1,9-11.8,47,4.7,69.2
	c12.6,17,41.1,27.1,68.7,16.1l24.7,23L22,248.1c-10.3,9.6-9.6,27.3,1.7,39.4s28.8,14.1,39.2,4.5l91.9-95.4l65.7,61.3
	c-0.5,11.9,4,23,12.5,30.9c7.4,6.9,17,10.6,27.3,10.6c0.9,0,1.8,0,2.6-0.1c11.1-0.7,21.4-5.6,29.2-13.9c7.7-8.3,12-19,11.9-30.1
	c-0.1-11.3-4.6-21.6-12.6-29.1c-8.5-7.9-19.9-11.6-31.7-10.3l-70.4-65.6l69.8-65.1l27.2-8.2L305.5,41.9z"/>
<rect class="st1" width="320" height="320"/>
</svg>
