<?xml version="1.0" encoding="utf-8"?>
<!-- Generator: Adobe Illustrator 26.5.0, SVG Export Plug-In . SVG Version: 6.00 Build 0)  -->
<svg version="1.1" id="Layer_1" xmlns="http://www.w3.org/2000/svg" xmlns:xlink="http://www.w3.org/1999/xlink" x="0px" y="0px"
	 viewBox="0 0 320 320" style="enable-background:new 0 0 320 320;" xml:space="preserve">
<style type="text/css">
	.st0{clip-path:url(#SVGID_00000129906533889751793070000000100122709906629533_);fill:#4C6586;}
	.st1{fill:none;}
</style>
<g>
	<g>
		<defs>
			<rect id="SVGID_1_" x="70" y="70" width="180" height="180"/>
		</defs>
		<clipPath id="SVGID_00000126286034090515200950000018053102580003826859_">
			<use xlink:href="#SVGID_1_"  style="overflow:visible;"/>
		</clipPath>
		<path style="clip-path:url(#SVGID_00000126286034090515200950000018053102580003826859_);fill:#4C6586;" d="M177.2,163.3
			c0-11.1-15.9-12.4-28.8-18.6c-2.9,2.1-5.7,6.7-5.7,11.8c0,10.3,20.8,13.8,28.8,18.8C174.9,172.4,177.2,168.3,177.2,163.3
			 M193.8,160c0,8.4-4.3,16.2-11.7,20.4c6.8,4,10.8,10.8,10.8,18.1c0,18.9-17.9,28.7-35.1,28.7c-10,0-19.7-2.2-29.4-4.6l1.4-18.1
			c8.1,3.3,17.8,6.2,26.7,6.2c8.7,0,16.1-2.5,16.1-11c0-16.2-46.2-11.6-46.2-39.4c0-10,4.4-16.8,12.2-21.5
			c-7.1-4.9-11.1-10.2-11.1-18.9c0-18.7,18.1-27.1,34.6-27.1c8.6,0,17,1.6,25.4,3.2l-1.7,17.3c-7.1-2.7-14.9-4-22.7-4
			c-7.9,0-15.3,2.2-15.3,10.8C147,136.6,193.8,130.9,193.8,160 M250,240V80c0-5.5-4.5-10-10-10H80c-5.5,0-10,4.5-10,10v160
			c0,5.5,4.5,10,10,10h160C245.5,250,250,245.5,250,240"/>
	</g>
</g>
<rect class="st1" width="320" height="320"/>
</svg>
