<?xml version="1.0" encoding="utf-8"?>
<!-- Generator: Adobe Illustrator 26.3.1, SVG Export Plug-In . SVG Version: 6.00 Build 0)  -->
<svg version="1.1" id="Layer_1" xmlns="http://www.w3.org/2000/svg" xmlns:xlink="http://www.w3.org/1999/xlink" x="0px" y="0px"
	 viewBox="0 0 320 320" style="enable-background:new 0 0 320 320;" xml:space="preserve">
<style type="text/css">
	.st0{fill:#52668C;}
	.st1{fill:none;}
</style>
<path class="st0" d="M100.2,98c7.7-7.5,7.9-19.9,0.4-27.6C93,62.7,80.7,62.5,73,70c-7.7,7.5-7.9,19.9-0.4,27.6
	C80.1,105.3,92.5,105.5,100.2,98 M154.8,129c0,0,83.6,85.8,116.9,119.9l-0.3,24.8c-6.2-0.1-12.5-0.2-18.7-0.2l-3.9-20.8l-15.4-3.3
	c-2.5-0.5-5-1.1-7.5-1.6c-0.8-4.4-1.6-8.8-2.5-13.2l-1.8-9.9l-9.8-2.1c-4.4-0.9-8.8-1.9-13.1-2.8c-0.8-4.4-1.6-8.8-2.5-13.2
	l-1.8-9.9l-9.8-2.1c-4.3-0.9-8.6-1.9-12.9-2.8l-5.5-1.2L130,153.4c-21.4,10.7-48.1,6.9-65.7-11.1C42.5,119.9,43,84.2,65.3,62.4
	c22.4-21.8,58.1-21.3,79.9,1C162.7,81.4,165.8,108,154.8,129 M172.2,125.3c8.2-24.6,3.1-52.8-16.3-72.6
	c-27.6-28.3-72.9-28.9-101.1-1.3c-28.3,27.6-28.9,72.8-1.3,101.1c19.3,19.9,47.4,25.8,72.2,18.2l32.9,33.8l22.9,4.9l4.3,23l22.9,4.9
	l4.3,23l22.9,4.9l4.3,23l46,0.6l0.6-46L172.2,125.3z"/>
<rect class="st1" width="320" height="320"/>
</svg>
