<?xml version="1.0" encoding="utf-8"?>
<!-- Generator: Adobe Illustrator 26.3.1, SVG Export Plug-In . SVG Version: 6.00 Build 0)  -->
<svg version="1.1" id="Layer_1" xmlns="http://www.w3.org/2000/svg" xmlns:xlink="http://www.w3.org/1999/xlink" x="0px" y="0px"
	 viewBox="0 0 320 320" style="enable-background:new 0 0 320 320;" xml:space="preserve">
<style type="text/css">
	.st0{clip-path:url(#SVGID_00000179606997188375657300000012891337740604211100_);fill:#52658B;}
	.st1{fill:none;}
</style>
<g>
	<defs>
		<rect id="SVGID_1_" x="20" y="20" width="280" height="280"/>
	</defs>
	<clipPath id="SVGID_00000108297671559680948120000004579608851319103420_">
		<use xlink:href="#SVGID_1_"  style="overflow:visible;"/>
	</clipPath>
	<path style="clip-path:url(#SVGID_00000108297671559680948120000004579608851319103420_);fill:#52658B;" d="M209,121.3
		c0,37.7-42.9,41.2-42.9,76.4v3.8h-29.6v-3.3c0-43.7,36.7-43.7,36.7-72.1c0-14.3-13.6-20.1-26.4-20.1c-11.5,0-23.3,3-34.1,7
		L111,86.9c14.1-4.3,26.6-7.3,42.9-7.3C180.4,79.6,209,91.4,209,121.3 M134.4,219.5H168v30.1h-33.6V219.5z M300,160
		c0-77.3-62.7-140-140-140S20,82.7,20,160s62.7,140,140,140S300,237.3,300,160"/>
</g>
<rect x="0" class="st1" width="320" height="320"/>
</svg>
