<?xml version="1.0" encoding="utf-8"?>
<!-- Generator: Adobe Illustrator 26.5.0, SVG Export Plug-In . SVG Version: 6.00 Build 0)  -->
<svg version="1.1" id="Layer_1" xmlns="http://www.w3.org/2000/svg" xmlns:xlink="http://www.w3.org/1999/xlink" x="0px" y="0px"
	 viewBox="0 0 320 320" style="enable-background:new 0 0 320 320;" xml:space="preserve">
<style type="text/css">
	.st0{clip-path:url(#SVGID_00000040550013717240727150000002127122688732551336_);fill:#4C6586;}
</style>
<g>
	<g>
		<g>
			<defs>
				<rect id="SVGID_1_" y="0" width="320" height="320"/>
			</defs>
			<clipPath id="SVGID_00000172434547633136133970000017425181027285829295_">
				<use xlink:href="#SVGID_1_"  style="overflow:visible;"/>
			</clipPath>
			<path style="clip-path:url(#SVGID_00000172434547633136133970000017425181027285829295_);fill:#4C6586;" d="M276.2,269.1
				L262.1,255l14.1-14.1l-7.1-7.1L255,247.9l-14.1-14.1l-7.1,7.1l14.1,14.1l-14.1,14.1l7.1,7.1l14.1-14.1l14.1,14.1L276.2,269.1z
				 M290,255c0,19.3-15.7,35-35,35s-35-15.7-35-35s15.7-35,35-35S290,235.7,290,255 M280,211.7c-4.6-2.7-9.6-4.6-15-5.7V95H111.7
				L105,75H55v30v140h151c-0.7,3.2-1,6.6-1,10c0,1.7,0.1,3.4,0.2,5H50c-5.5,0-10-4.5-10-10V90V60h80l6.7,20H270c5.5,0,10,4.5,10,10
				V211.7z M320,0H0v320h320V0z"/>
		</g>
	</g>
</g>
</svg>
