<?xml version="1.0" encoding="utf-8"?>
<!-- Generator: Adobe Illustrator 26.3.1, SVG Export Plug-In . SVG Version: 6.00 Build 0)  -->
<svg version="1.1" id="Layer_1" xmlns="http://www.w3.org/2000/svg" xmlns:xlink="http://www.w3.org/1999/xlink" x="0px" y="0px"
	 viewBox="0 0 320 320" style="enable-background:new 0 0 320 320;" xml:space="preserve">
<style type="text/css">
	.st0{clip-path:url(#SVGID_00000001665687709185604790000009168615129443221153_);fill:#52668C;}
	.st1{clip-path:url(#SVGID_00000090268650809716539570000017299546705702962601_);fill:#52668C;}
	.st2{clip-path:url(#SVGID_00000114774868184992299140000017163258697594055562_);fill:#52668C;}
	.st3{fill:none;}
</style>
<g>
	<defs>
		<path id="SVGID_1_" d="M57,29.1v129h121.1c-4.7-6.4-7.4-14.1-7.4-22.4c0-15.9,9.9-29.6,24.2-35.7V29.1H57z"/>
	</defs>
	<clipPath id="SVGID_00000124124180420680385720000009734112988484610458_">
		<use xlink:href="#SVGID_1_"  style="overflow:visible;"/>
	</clipPath>
	<path style="clip-path:url(#SVGID_00000124124180420680385720000009734112988484610458_);fill:#52668C;" d="M188.7,158.2
		c-3.6,0-6.6-2.8-6.7-6.5c-0.2-4.7-2.2-18.4-8.8-24.6c-4.1-3.8-17-6.7-24.7-8.4c-9.8-2.2-13.9-3.1-15.1-8.1
		c-0.6-2.7,0.4-5.5,2.6-7.2c11.5-9.2,13.9-22.6,13.9-32.2c0-20.3-16.8-28.7-25.7-28.7c-16.1,0-24.5,8.6-25.8,26.2
		c-1.1,15.9,6.9,22.5,12.8,27.3c3.5,2.9,7.1,5.8,7.1,10.6c0,11.7-15.1,16-30.5,19.4c-14.1,3.1-17,25.9-17,26.1
		c-0.5,3.7-3.8,6.3-7.5,5.9c-3.7-0.4-6.3-3.8-5.9-7.5c0.2-1.3,4.1-32.5,27.5-37.7c11.2-2.5,16.3-4.6,18.5-5.8
		c-0.2-0.2-0.5-0.4-0.7-0.6c-6.7-5.5-19.3-15.8-17.7-38.7c1.8-24.6,16-38.8,39.2-38.8c16.4,0,39.2,14.7,39.2,42.2
		c0,13.6-3.7,25.4-10.9,34.6c12.8,2.8,23.9,5.7,30,11.4c11.8,11,13,31.6,13.1,33.9c0.2,3.7-2.7,6.9-6.5,7
		C188.8,158.2,188.8,158.2,188.7,158.2"/>
</g>
<g>
	<defs>
		<rect id="SVGID_00000112619654181721668830000018033014123945853085_" x="154.8" y="102.4" width="137.9" height="129"/>
	</defs>
	<clipPath id="SVGID_00000127737784702753682290000009459125004811753908_">
		<use xlink:href="#SVGID_00000112619654181721668830000018033014123945853085_"  style="overflow:visible;"/>
	</clipPath>
	<path style="clip-path:url(#SVGID_00000127737784702753682290000009459125004811753908_);fill:#52668C;" d="M286.4,231.5
		c-3.6,0-6.6-2.8-6.7-6.5c-0.2-4.7-2.2-18.4-8.8-24.6c-4.1-3.8-17-6.7-24.7-8.4c-9.8-2.2-13.9-3.1-15.1-8.1
		c-0.6-2.7,0.4-5.5,2.6-7.2c11.5-9.2,13.9-22.6,13.9-32.2c0-20.3-16.8-28.7-25.7-28.7c-16.1,0-24.5,8.6-25.8,26.2
		c-1.1,15.9,6.9,22.5,12.8,27.3c3.5,2.9,7.1,5.8,7.1,10.6c0,11.7-15.1,16-30.5,19.4c-14.1,3.1-17,25.9-17,26.1
		c-0.5,3.7-3.8,6.3-7.5,5.9c-3.7-0.4-6.3-3.8-5.9-7.5c0.2-1.3,4.1-32.5,27.5-37.7c11.2-2.5,16.3-4.6,18.5-5.8
		c-0.2-0.2-0.5-0.4-0.7-0.6c-6.7-5.5-19.3-15.8-17.7-38.7c1.8-24.6,16-38.8,39.2-38.8c16.4,0,39.2,14.7,39.2,42.2
		c0,13.6-3.7,25.4-10.9,34.6c12.8,2.8,23.9,5.7,30,11.4c11.8,11,13,31.6,13.1,33.9c0.2,3.7-2.7,6.9-6.5,7
		C286.6,231.5,286.5,231.5,286.4,231.5"/>
</g>
<g>
	<defs>
		<rect id="SVGID_00000129906297327377073700000015207807676245146033_" x="27.3" y="162" width="137.9" height="129"/>
	</defs>
	<clipPath id="SVGID_00000139989185171120519590000000882246926092997037_">
		<use xlink:href="#SVGID_00000129906297327377073700000015207807676245146033_"  style="overflow:visible;"/>
	</clipPath>
	<path style="clip-path:url(#SVGID_00000139989185171120519590000000882246926092997037_);fill:#52668C;" d="M158.9,291.1
		c-3.6,0-6.6-2.8-6.7-6.5c-0.2-4.7-2.2-18.4-8.8-24.6c-4.1-3.8-17-6.7-24.7-8.4c-9.8-2.2-13.9-3.1-15.1-8.1
		c-0.6-2.7,0.4-5.5,2.6-7.2c11.5-9.2,13.9-22.6,13.9-32.2c0-20.3-16.8-28.7-25.7-28.7c-16.1,0-24.5,8.6-25.8,26.2
		c-1.1,15.9,6.9,22.5,12.8,27.3c3.5,2.9,7.1,5.8,7.1,10.6c0,11.7-15.1,16-30.5,19.4c-14.1,3.1-17,25.9-17,26.1
		c-0.5,3.7-3.8,6.3-7.5,5.9c-3.7-0.4-6.3-3.8-5.9-7.5c0.2-1.3,4.1-32.5,27.5-37.7c11.2-2.5,16.3-4.6,18.5-5.8
		c-0.2-0.2-0.5-0.4-0.7-0.6c-6.7-5.5-19.3-15.8-17.7-38.7c1.8-24.6,16-38.8,39.2-38.8c16.4,0,39.2,14.7,39.2,42.2
		c0,13.6-3.7,25.4-10.9,34.6c12.8,2.8,23.9,5.7,30,11.4c11.8,11,13,31.6,13.1,33.9c0.2,3.7-2.7,6.9-6.5,7
		C159.1,291.1,159,291.1,158.9,291.1"/>
</g>
<rect x="0" class="st3" width="320" height="320"/>
</svg>
