<?xml version="1.0" encoding="utf-8"?>
<!-- Generator: Adobe Illustrator 20.0.0, SVG Export Plug-In . SVG Version: 6.00 Build 0)  -->
<svg version="1.1" id="Layer_1" xmlns="http://www.w3.org/2000/svg" xmlns:xlink="http://www.w3.org/1999/xlink" x="0px" y="0px"
	 viewBox="0 0 32 32" enable-background="new 0 0 32 32" xml:space="preserve"
	 width="32px" height="32px">
<g>
	<defs>
		<path id="SVGID_1_" d="M4.6,17.6c-1.3,0.6-1.7,1.5-1.8,2.1c-0.2,0.8-0.4,2,0,3.2c0.7,2.1,2.5,3.3,3.7,2.9c0.5-0.2,0.8-0.6,1.1-1.2
			c0.2-0.5,0.2-1.6,0-2.4c-0.4-1.3-1.2-2.2-2.2-2.1c-0.7,0.2-1.3,0.7-0.8,2c0.1-0.4,0.1-1,0.8-1c1.4,0,1.9,2.6,1,3.1
			c-0.6,0.3-1.7,0.1-2.4-1.5c-0.5-1.6-0.5-3.3,0.8-3.7c1.7-0.6,2.6,1.1,3,1.6c0.4,0.5,2,3.1,0.8,6.7c0,0,5.8-8,11.5-12
			c0.1-0.7,0-1.9-1-3.3c-0.7-0.9-1.5-1.2-2.3-1.3C14.6,12.2,5.9,17,4.6,17.6 M25.5,4.6c-0.6,0-1.1,0.1-1.1,0.1s-3,2.8-6,5.1
			c0.7,0.1,1.6,0.3,2.7,1.6c0.8,1,0.8,2.2,0.6,2.9c3.5-2.3,6.8-3.7,6.8-3.7c0.4-0.3,0.8-1.2,0.8-2.2V8.3c0-0.7-0.2-1.4-0.6-2
			C27.9,4.9,26.5,4.6,25.5,4.6L25.5,4.6z"/>
	</defs>
	<clipPath id="SVGID_2_">
		<use xlink:href="#SVGID_1_"  overflow="visible"/>
	</clipPath>
	
		<linearGradient id="SVGID_3_" gradientUnits="userSpaceOnUse" x1="-276.4274" y1="421.6459" x2="-275.4274" y2="421.6459" gradientTransform="matrix(30.1785 -10.3913 -10.3913 -30.1785 12725.9814 9872.8887)">
		<stop  offset="0" style="stop-color:#E66E1E"/>
		<stop  offset="0.4402" style="stop-color:#E8711F"/>
		<stop  offset="0.705" style="stop-color:#EF7923"/>
		<stop  offset="0.9228" style="stop-color:#FA8729"/>
		<stop  offset="0.9971" style="stop-color:#FF8E2C"/>
		<stop  offset="1" style="stop-color:#FF8E2C"/>
	</linearGradient>
	<polygon clip-path="url(#SVGID_2_)" fill="url(#SVGID_3_)" points="-4.5,7 26.5,-3.7 36.4,25 5.3,35.7 	"/>
</g>
</svg>
