<svg id="cat-pg" xmlns="http://www.w3.org/2000/svg" viewBox="0 0 32 32"><defs><style>.cls-1,.cls-2,.cls-3{fill:none;stroke:#000;stroke-linejoin:round;stroke-width:1.45px;}.cls-1{stroke-linecap:square;}.cls-3{stroke-linecap:round;}</style></defs><title>icon_usra</title><ellipse class="cls-1" cx="25.4" cy="13.54" rx="1.9" ry="2.11"/><path class="cls-2" d="M25.12,23.65H29V19.72a2.71,2.71,0,0,0-1.8-2.36h0a3,3,0,0,1-.44.22,3.21,3.21,0,0,1-1.35.29,3.25,3.25,0,0,1-1.28-.26"/><ellipse class="cls-3" cx="16" cy="10.08" rx="2.91" ry="3.23"/><path class="cls-3" d="M21.5,25.14v-6c0-1.57-1.1-2.83-2.75-3.61h0a6,6,0,0,1-.67.34,5.09,5.09,0,0,1-4.14,0h0a6,6,0,0,1-.67-.34h0c-1.65.78-2.75,2-2.75,3.61v6Z"/><ellipse class="cls-1" cx="6.6" cy="13.67" rx="1.9" ry="2.11"/><path class="cls-2" d="M7.88,17.61a3.25,3.25,0,0,1-1.28.26,3.21,3.21,0,0,1-1.35-.29,3,3,0,0,1-.44-.22h0A2.71,2.71,0,0,0,3,19.72v3.12H6.84"/></svg>