<?xml version="1.0" encoding="UTF-8"?><svg id="Layer_1" xmlns="http://www.w3.org/2000/svg" xmlns:xlink="http://www.w3.org/1999/xlink" viewBox="0 0 320 320"><defs><style>.cls-1{fill:none;}.cls-2{clip-path:url(#clippath);}.cls-3{fill:#4c6586;}</style><clipPath id="clippath"><rect class="cls-1" width="320" height="320"/></clipPath></defs><rect class="cls-1" width="320" height="320"/><g class="cls-2"><path class="cls-3" d="M130,235v20c0,5.52,4.48,10,10,10h40c5.52,0,10-4.48,10-10v-20c0-5.52-4.48-10-10-10h-40c-5.52,0-10,4.48-10,10m-40-10H50c-5.52,0-10,4.48-10,10v20c0,5.52,4.48,10,10,10h40c5.52,0,10-4.48,10-10v-20c0-5.52-4.48-10-10-10m115-105H115v-50h90v50Zm15,5v-60c0-5.52-4.48-10-10-10H110c-5.52,0-10,4.48-10,10v60c0,5.52,4.48,10,10,10h100c5.52,0,10-4.48,10-10m22.5,85h15v-32.5h-90v-27.5h-15v27.5H62.5v32.5h15v-17.5h75v17.5h15v-17.5h75v17.5Zm37.5,45v-20c0-5.52-4.48-10-10-10h-40c-5.52,0-10,4.48-10,10v20c0,5.52,4.48,10,10,10h40c5.52,0,10-4.48,10-10"/></g></svg>