<?xml version="1.0" encoding="utf-8"?>
<!-- Generator: Adobe Illustrator 27.0.0, SVG Export Plug-In . SVG Version: 6.00 Build 0)  -->
<svg version="1.1" id="Layer_1" xmlns="http://www.w3.org/2000/svg" xmlns:xlink="http://www.w3.org/1999/xlink" x="0px" y="0px"
	 viewBox="0 0 320 320" style="enable-background:new 0 0 320 320;" xml:space="preserve">
<style type="text/css">
	.st0{clip-path:url(#SVGID_00000142133641319468719370000004841127370314228378_);fill:#58698E;}
</style>
<g>
	<g>
		<defs>
			<rect id="SVGID_1_" y="0" width="320" height="320"/>
		</defs>
		<clipPath id="SVGID_00000047766186361382566740000016506571232278031273_">
			<use xlink:href="#SVGID_1_"  style="overflow:visible;"/>
		</clipPath>
		<path style="clip-path:url(#SVGID_00000047766186361382566740000016506571232278031273_);fill:#58698E;" d="M241.2,172.5
			c4.2,0,8.3,0.4,12.2,1.1l-0.1-101.2c0-4.1-3.4-7.5-7.5-7.5l0,0l-136.3,0.2c-0.7,0-1.5,0-2.2,0c-4.5,0-7.3,0-11.2-3.9
			c-2.2-2.3-4.7-5.2-7-8.2h133.7c4.1,0,7.5-3.4,7.5-7.5s-3.4-7.5-7.5-7.5H74.4c-1.8,0-3.5,0.7-4.9,1.8c-1.9,1.4-3.2,3.6-3.2,6.1
			v179.5c0,5.8,0.3,25.1,3.6,33c4.1,9.5,18.1,23.6,35.3,23.7l80.6-0.1c-3.4-4.6-6.2-9.6-8.4-15l-72.2,0.1
			c-10.2-0.1-19.3-9.4-21.5-14.6c-1.5-3.4-2.4-16.7-2.4-27V67.2c1.4,1.6,2.8,3.2,4.2,4.6c8.3,8.3,16.4,8.3,21.7,8.3c0.7,0,1.3,0,2,0
			c0.1,0,0.1,0,0.2,0l129-0.1l0.1,92.6C239.4,172.5,240.3,172.5,241.2,172.5 M208.6,137h-80v15h80V137z M128.6,125.6h80v-15h-80
			V125.6z M250.1,241.2l17.7,17.7l-8.8,8.8L241.3,250l-17.7,17.7l-8.8-8.8l17.7-17.7l-17.7-17.7l8.8-8.8l17.7,17.7l17.7-17.7
			l8.8,8.8L250.1,241.2z M285,241.2c0-24.2-19.6-43.8-43.8-43.8s-43.8,19.6-43.8,43.8S217,285,241.2,285S285,265.4,285,241.2"/>
	</g>
</g>
</svg>
