<svg id="Layer_1" data-name="Layer 1" xmlns="http://www.w3.org/2000/svg" xmlns:xlink="http://www.w3.org/1999/xlink" viewBox="0 0 229.67 232.07"><defs><style>.cls-1{fill:none;}.cls-2{fill:#52658b;}.cls-3{clip-path:url(#clip-path);}</style><clipPath id="clip-path" transform="translate(-50 -37.93)"><rect class="cls-1" x="50" y="37.93" width="229.67" height="232.07"/></clipPath></defs><rect class="cls-1" width="229.67" height="232.07"/><polygon class="cls-2" points="163.52 127.16 202.65 135.48 229.67 8.32 229.67 8.32 190.55 0 163.52 127.16"/><g class="cls-3"><path class="cls-2" d="M240.78,181.11l-17.14-3.65-12.2-2.59L214.62,191l4.74,23.91c1.07,5.41,4.52,6.15,7.7,1.63l17.74-25.14h0l5.76-8.17-9.78-2.08Z" transform="translate(-50 -37.93)"/><path class="cls-2" d="M174.58,210.72c-10.15.77-18.58-6.29-26.17-14-1.86-1.91-4.72-2.79-8.75-2.67-18.76.5-49,21.71-53.61,26.94A7.5,7.5,0,0,1,74.79,211c5.4-6.14,39.26-31.35,64.47-32,8.3-.22,15,2.19,19.87,7.18,6.54,6.68,11.2,9.81,14.31,9.57,2.05-.15,4.69-1.71,7.81-4.08v-74s-37.5-28.12-75-9.37C87.5,117.67,50,117.67,50,117.67v150s18.75,9.37,56.25-9.38,75,9.38,75,9.38V209.1A21.87,21.87,0,0,1,174.58,210.72Z" transform="translate(-50 -37.93)"/></g></svg>