<svg id="Layer_1" data-name="Layer 1" xmlns="http://www.w3.org/2000/svg" xmlns:xlink="http://www.w3.org/1999/xlink" viewBox="0 0 260 195"><defs><style>.cls-1{fill:none;}.cls-2{clip-path:url(#clip-path);}.cls-3{fill:#52658b;}</style><clipPath id="clip-path" transform="translate(-30 -62.5)"><rect class="cls-1" x="30" y="62.5" width="260" height="195"/></clipPath></defs><g class="cls-2"><path class="cls-3" d="M245,187.5H75V77.5H245Zm15,10V67.5a5,5,0,0,0-5-5H65a5,5,0,0,0-5,5v130a5,5,0,0,0,5,5H255a5,5,0,0,0,5-5" transform="translate(-30 -62.5)"/></g><polygon class="cls-3" points="39 155 0 195 260 195 221 155 39 155"/><polygon class="cls-3" points="131.21 110 131.21 61.72 120.96 54.89 101.88 81.23 84.79 71.98 60.43 105.28 60.43 110 131.21 110"/><rect class="cls-3" x="144.57" y="35" width="55" height="15"/><rect class="cls-3" x="144.57" y="65" width="45" height="15"/><rect class="cls-3" x="144.57" y="95" width="55" height="15"/></svg>