<?xml version="1.0" encoding="utf-8"?>
<!-- Generator: Adobe Illustrator 18.0.0, SVG Export Plug-In . SVG Version: 6.00 Build 0)  -->
<!DOCTYPE svg PUBLIC "-//W3C//DTD SVG 1.1//EN" "http://www.w3.org/Graphics/SVG/1.1/DTD/svg11.dtd">
<svg version="1.1" id="Layer_1" xmlns="http://www.w3.org/2000/svg" xmlns:xlink="http://www.w3.org/1999/xlink" x="0px" y="0px"
	 width="32px" height="32px" viewBox="0 0 32 32" enable-background="new 0 0 32 32" xml:space="preserve">
<g>
	<defs>
		<path id="SVGID_1_" d="M5.5,19c-0.9,0-1.7-0.3-2.3-0.7C1.9,18.9,1,20,1,21.2V26h9v-4.8c0-1.2-0.9-2.3-2.2-2.9
			C7.2,18.7,6.4,19,5.5,19"/>
	</defs>
	<clipPath id="SVGID_2_">
		<use xlink:href="#SVGID_1_"  overflow="visible"/>
	</clipPath>
	
		<linearGradient id="SVGID_3_" gradientUnits="userSpaceOnUse" x1="-111" y1="172.7602" x2="-110" y2="172.7602" gradientTransform="matrix(9 0 0 -9 1000 1577)">
		<stop  offset="0" style="stop-color:#4B813C"/>
		<stop  offset="1.983430e-02" style="stop-color:#4B813C"/>
		<stop  offset="1" style="stop-color:#6E9F3C"/>
	</linearGradient>
	<rect x="1" y="18.3" clip-path="url(#SVGID_2_)" fill="url(#SVGID_3_)" width="9" height="7.7"/>
</g>
<g>
	<defs>
		<path id="SVGID_4_" d="M2.4,14.2c0,1.9,1.4,3.4,3.1,3.4s3.1-1.5,3.1-3.4s-1.4-3.4-3.1-3.4S2.4,12.3,2.4,14.2"/>
	</defs>
	<clipPath id="SVGID_5_">
		<use xlink:href="#SVGID_4_"  overflow="visible"/>
	</clipPath>
	
		<linearGradient id="SVGID_6_" gradientUnits="userSpaceOnUse" x1="-104.6364" y1="179.3939" x2="-103.6365" y2="179.3939" gradientTransform="matrix(6.1875 0 0 -6.1875 649.8438 1124.1875)">
		<stop  offset="0" style="stop-color:#DBB395"/>
		<stop  offset="1.983430e-02" style="stop-color:#DBB395"/>
		<stop  offset="1" style="stop-color:#EAC2A4"/>
	</linearGradient>
	<rect x="2.4" y="10.8" clip-path="url(#SVGID_5_)" fill="url(#SVGID_6_)" width="6.2" height="6.8"/>
</g>
<g>
	<defs>
		<rect id="SVGID_7_" x="1" y="2.5" width="30" height="26.5"/>
	</defs>
	<clipPath id="SVGID_8_">
		<use xlink:href="#SVGID_7_"  overflow="visible"/>
	</clipPath>
	<path clip-path="url(#SVGID_8_)" fill="#DBB395" d="M16,15.6c1.7,0,3.1-1.5,3.1-3.4c0-1.9-1.4-3.4-3.1-3.4s-3.1,1.5-3.1,3.4
		C12.9,14.1,14.3,15.6,16,15.6"/>
</g>
<g>
	<defs>
		<path id="SVGID_9_" d="M16,17c-0.9,0-1.7-0.3-2.3-0.7c-1.3,0.6-2.2,1.7-2.2,2.9V24h9v-4.8c0-1.2-0.9-2.3-2.2-2.9
			C17.7,16.7,16.9,17,16,17"/>
	</defs>
	<clipPath id="SVGID_10_">
		<use xlink:href="#SVGID_9_"  overflow="visible"/>
	</clipPath>
	
		<linearGradient id="SVGID_11_" gradientUnits="userSpaceOnUse" x1="-111" y1="172.7602" x2="-110" y2="172.7602" gradientTransform="matrix(9 0 0 -9 1010.519 1575)">
		<stop  offset="0" style="stop-color:#002555"/>
		<stop  offset="1.983430e-02" style="stop-color:#002555"/>
		<stop  offset="1" style="stop-color:#0F4186"/>
	</linearGradient>
	<rect x="11.5" y="16.3" clip-path="url(#SVGID_10_)" fill="url(#SVGID_11_)" width="9" height="7.7"/>
</g>
<g>
	<defs>
		<rect id="SVGID_12_" x="1" y="2.5" width="30" height="26.5"/>
	</defs>
	<clipPath id="SVGID_13_">
		<use xlink:href="#SVGID_12_"  overflow="visible"/>
	</clipPath>
	<path clip-path="url(#SVGID_13_)" fill="#7C655E" d="M26.5,20.6c1.7,0,3.1-1.5,3.1-3.4s-1.4-3.4-3.1-3.4c-1.7,0-3.1,1.5-3.1,3.4
		S24.8,20.6,26.5,20.6"/>
</g>
<g>
	<defs>
		<path id="SVGID_14_" d="M26.5,22c-0.9,0-1.7-0.3-2.3-0.7C22.9,21.9,22,23,22,24.2V29h9v-4.8c0-1.2-0.9-2.3-2.2-2.9
			C28.2,21.7,27.4,22,26.5,22"/>
	</defs>
	<clipPath id="SVGID_15_">
		<use xlink:href="#SVGID_14_"  overflow="visible"/>
	</clipPath>
	
		<linearGradient id="SVGID_16_" gradientUnits="userSpaceOnUse" x1="-111" y1="172.7602" x2="-110" y2="172.7602" gradientTransform="matrix(9 0 0 -9 1021 1580)">
		<stop  offset="0" style="stop-color:#4C6585"/>
		<stop  offset="1.983430e-02" style="stop-color:#4C6585"/>
		<stop  offset="1" style="stop-color:#5A789F"/>
	</linearGradient>
	<rect x="22" y="21.3" clip-path="url(#SVGID_15_)" fill="url(#SVGID_16_)" width="9" height="7.7"/>
</g>
<g>
	<defs>
		<circle id="SVGID_17_" cx="24.5" cy="7.5" r="5"/>
	</defs>
	<clipPath id="SVGID_18_">
		<use xlink:href="#SVGID_17_"  overflow="visible"/>
	</clipPath>
	
		<linearGradient id="SVGID_19_" gradientUnits="userSpaceOnUse" x1="-112.4" y1="171.4" x2="-111.4" y2="171.4" gradientTransform="matrix(10 0 0 -10 1143.5 1721.5)">
		<stop  offset="0" style="stop-color:#21C4D7"/>
		<stop  offset="1.983430e-02" style="stop-color:#21C4D7"/>
		<stop  offset="1" style="stop-color:#32D0F6"/>
	</linearGradient>
	<rect x="19.5" y="2.5" clip-path="url(#SVGID_18_)" fill="url(#SVGID_19_)" width="10" height="10"/>
</g>
<g>
	<defs>
		<rect id="SVGID_20_" x="1" y="2.5" width="30" height="26.5"/>
	</defs>
	<clipPath id="SVGID_21_">
		<use xlink:href="#SVGID_20_"  overflow="visible"/>
	</clipPath>
	<path clip-path="url(#SVGID_21_)" fill="#FFFFFF" d="M26,4.9c-1.1,1.1-2.1,0-2.1,1.1S26,7.1,26,9.2c0,1.1,2.1-1.1,2.1-2.1
		S26.7,4.2,26,4.9"/>
	<path clip-path="url(#SVGID_21_)" fill="#FFFFFF" d="M23.1,7.4c0.1-1-1.4-0.9-1.9-0.4c-0.5,0.5,0.4,1.7,0.7,2.5
		c0.2,0.7,0.2,0.8,0.8-0.2C23,8.7,23,8.6,23.1,7.4"/>
</g>
</svg>
