<svg id="Layer_1" data-name="Layer 1" xmlns="http://www.w3.org/2000/svg" xmlns:xlink="http://www.w3.org/1999/xlink" viewBox="0 0 239.21 166.78"><defs><style>.cls-1{fill:none;}.cls-2{clip-path:url(#clip-path);}.cls-3{fill:#52658b;}</style><clipPath id="clip-path" transform="translate(-40 -73.22)"><rect class="cls-1" x="40" y="73.22" width="239.21" height="166.78"/></clipPath></defs><g class="cls-2"><path class="cls-3" d="M85,130H55V120H85Zm0-20H55V100H85Zm15,125V85a5,5,0,0,0-5-5H45a5,5,0,0,0-5,5V235a5,5,0,0,0,5,5H95a5,5,0,0,0,5-5" transform="translate(-40 -73.22)"/><path class="cls-3" d="M165,130H135V120h30Zm0-20H135V100h30Zm15,125V85a5,5,0,0,0-5-5H125a5,5,0,0,0-5,5V235a5,5,0,0,0,5,5h50a5,5,0,0,0,5-5" transform="translate(-40 -73.22)"/><path class="cls-3" d="M246.13,124.28l-29.55,5.2-1.73-9.85,29.54-5.2Zm-3.48-19.7-29.54,5.2-1.74-9.84,29.55-5.21Zm36.48,120.49-26-147.72a5,5,0,0,0-5.8-4L198.05,82A5,5,0,0,0,194,87.77l26,147.72a5,5,0,0,0,5.8,4.06l49.24-8.68a5,5,0,0,0,4.05-5.8" transform="translate(-40 -73.22)"/></g></svg>