<?xml version="1.0" encoding="utf-8"?>
<!-- Generator: Adobe Illustrator 26.5.0, SVG Export Plug-In . SVG Version: 6.00 Build 0)  -->
<svg version="1.1" id="Layer_1" xmlns="http://www.w3.org/2000/svg" xmlns:xlink="http://www.w3.org/1999/xlink" x="0px" y="0px"
	 viewBox="0 0 320 320" style="enable-background:new 0 0 320 320;" xml:space="preserve">
<style type="text/css">
	.st0{clip-path:url(#SVGID_00000049214784831770169510000003372983773991307402_);fill:#4C6586;}
</style>
<g>
	<defs>
		<rect id="SVGID_1_" width="320" height="320"/>
	</defs>
	<clipPath id="SVGID_00000026841948761386905620000012542187546386420923_">
		<use xlink:href="#SVGID_1_"  style="overflow:visible;"/>
	</clipPath>
	<path style="clip-path:url(#SVGID_00000026841948761386905620000012542187546386420923_);fill:#4C6586;" d="M136.8,278.7
		c-0.5,4.1,2.5,7.8,6.6,8.3c4.1,0.5,7.8-2.4,8.3-6.5c0-0.3,3.3-25.6,18.9-29c17.2-3.8,33.9-8.6,33.9-21.6c0-5.3-4-8.6-7.9-11.8
		c-6.5-5.3-15.4-12.7-14.2-30.4c1.4-19.6,10.8-29.1,28.6-29.1c10,0,28.6,9.3,28.6,31.9c0,10.7-2.7,25.6-15.4,35.8
		c-2.5,2-3.6,5-2.9,8c1.3,5.6,5.8,6.6,16.8,9c8.6,1.9,22.9,5,27.5,9.3c7.3,6.8,9.5,22,9.8,27.3c0.2,4,3.5,7.2,7.5,7.2
		c0.1,0,0.2,0,0.3,0c4.1-0.2,7.4-3.7,7.2-7.8c-0.1-2.6-1.4-25.4-14.5-37.7c-6.8-6.3-19.1-9.6-33.3-12.7
		c7.9-10.2,12.1-23.3,12.1-38.4c0-30.6-25.3-46.9-43.6-46.9c-25.7,0-41.6,15.7-43.6,43.1c-1.8,25.4,12.1,36.9,19.6,43
		c0.2,0.2,0.5,0.4,0.8,0.6c-2.5,1.4-8.1,3.7-20.6,6.5C141.3,242.5,137,277.2,136.8,278.7 M95.3,220.6h-60v36h60v32l45-50l-45-50
		V220.6z M134,147.4c7.9-10.2,12.1-23.3,12.1-38.4c0-30.6-25.3-46.9-43.6-46.9h0c-25.7,0-41.6,15.7-43.6,43.1
		c-1.8,25.4,12.1,36.9,19.6,43c0.2,0.2,0.5,0.4,0.8,0.6c-2.5,1.4-8.1,3.7-20.6,6.5c-26,5.8-30.4,40.5-30.6,41.9
		c-0.5,3.9,2.2,7.4,6,8.2h2.9c3.1-0.6,5.6-3.1,6-6.4c0-0.3,3.3-25.6,18.9-29c17.2-3.8,33.9-8.6,33.9-21.6c0-5.3-4-8.6-7.9-11.8
		c-6.5-5.3-15.4-12.7-14.2-30.4c1.4-19.6,10.8-29.1,28.6-29.1c10,0,28.6,9.3,28.6,31.9c0,10.7-2.7,25.6-15.4,35.8
		c-2.5,2-3.6,5-2.9,8c1.3,5.6,5.8,6.6,16.8,9c7.9,1.7,20.6,4.5,26.2,8.3c1.3-5,3.4-9.6,6.3-13.7C155,152.4,145.1,149.9,134,147.4
		 M299.7,163.7v-8.8c-1.1-8.2-4.3-22.9-14-31.9c-6.8-6.3-19.1-9.6-33.3-12.7c7.9-10.2,12.1-23.3,12.1-38.4
		c0-30.6-25.3-46.9-43.6-46.9h0c-25.7,0-41.6,15.7-43.6,43.1c-1.8,25.4,12.1,36.9,19.6,43c0.2,0.2,0.5,0.4,0.8,0.6
		c-2.5,1.4-8.1,3.7-20.6,6.5c-12.5,2.8-20,12.2-24.4,21.4c5.2,0.6,10.2,2,14.8,3.9c2.9-5,7-9.4,12.9-10.7
		c17.2-3.8,33.9-8.6,33.9-21.6c0-5.3-4-8.6-7.9-11.8c-6.5-5.3-15.4-12.7-14.2-30.3C193.6,49.5,203,40,220.8,40
		c10,0,28.6,9.4,28.6,31.9c0,10.7-2.7,25.6-15.4,35.8c-2.5,2-3.6,5-2.9,8c1.3,5.6,5.8,6.6,16.8,9c8.6,1.9,22.9,5,27.5,9.3
		c7.3,6.8,9.5,22,9.8,27.3c0.1,3.5,2.6,6.3,5.9,7h3.2C296.7,167.8,298.8,166,299.7,163.7"/>
</g>
</svg>
