<?xml version="1.0" encoding="utf-8"?>
<!-- Generator: Adobe Illustrator 26.5.0, SVG Export Plug-In . SVG Version: 6.00 Build 0)  -->
<svg version="1.1" id="Layer_1" xmlns="http://www.w3.org/2000/svg" xmlns:xlink="http://www.w3.org/1999/xlink" x="0px" y="0px"
	 viewBox="0 0 320 320" style="enable-background:new 0 0 320 320;" xml:space="preserve">
<style type="text/css">
	.st0{clip-path:url(#SVGID_00000030473134555296585270000017500434841815106987_);fill:#4C6586;}
	.st1{fill:none;}
</style>
<g>
	<g>
		<defs>
			<rect id="SVGID_1_" x="57" y="40" width="206" height="240"/>
		</defs>
		<clipPath id="SVGID_00000114059710307294543540000016158046809421958786_">
			<use xlink:href="#SVGID_1_"  style="overflow:visible;"/>
		</clipPath>
		<path style="clip-path:url(#SVGID_00000114059710307294543540000016158046809421958786_);fill:#4C6586;" d="M151.1,201.2
			l-5.3,31.8h28.3l-5.3-31.8c4.3-2.9,7.2-7.5,7.2-13.1c0-8.9-7.2-16.1-16.1-16.1c-8.9,0-16.1,7.2-16.1,16.1
			C143.9,193.7,146.9,198.3,151.1,201.2 M248,265H72V140h176V265z M224.5,125.5h-129c7.4-28.2,33.5-49.2,64.5-49.2
			C191.1,76.3,217.2,97.3,224.5,125.5 M263,264.5V141c0,0,0-0.5-0.1-1.2C261.9,84.6,216.1,40,160,40C103.6,40,57.7,85,57.1,140.5
			c0,0.2-0.1,0.3-0.1,0.4v123.6c0,0,0,15.5,15.5,15.5h175.1C247.5,280,263,280,263,264.5"/>
	</g>
</g>
<rect class="st1" width="320" height="320"/>
</svg>
