<?xml version="1.0" encoding="UTF-8" standalone="no"?>
<svg
   xmlns:i="&amp;ns_ai;"
   xmlns:dc="http://purl.org/dc/elements/1.1/"
   xmlns:cc="http://creativecommons.org/ns#"
   xmlns:rdf="http://www.w3.org/1999/02/22-rdf-syntax-ns#"
   xmlns:svg="http://www.w3.org/2000/svg"
   xmlns="http://www.w3.org/2000/svg"
   xmlns:xlink="http://www.w3.org/1999/xlink"
   xml:space="preserve"
   enable-background="new 0 0 32 32"
   viewBox="0 0 32 32"
   height="32px"
   width="32px"
   y="0px"
   x="0px"
   id="Layer_1"
   version="1.1"><metadata
   id="metadata1159"><rdf:RDF><cc:Work
       rdf:about=""><dc:format>image/svg+xml</dc:format><dc:type
         rdf:resource="http://purl.org/dc/dcmitype/StillImage" /><dc:title></dc:title></cc:Work></rdf:RDF></metadata><defs
   id="defs1157" />
<switch
   id="switch1152">
	<g
   id="g1150"
   i:extraneous="self">
		<g
   id="g1148">
			<rect
   id="rect1106"
   height="32"
   width="32"
   fill="none"
   x="0" />
			<g
   id="g1125">
				<g
   id="g1123">
					<defs
   id="defs1109">
						<path
   d="M4,11.5c0,1.304,0.445,2.53,1.225,3.598L4,20l3.628-2.72c1.131,0.702,2.486,1.197,3.956,1.472        c0.738-2.989,4.217-5.255,8.416-5.255c1.211,0,2.36,0.192,3.404,0.533C23.783,13.239,24,12.389,24,11.5        C24,7.358,19.523,4,14,4S4,7.358,4,11.5"
   id="SVGID_1_" />
					</defs>
					<clipPath
   id="SVGID_2_">
						<use
   id="use1111"
   overflow="visible"
   xlink:href="#SVGID_1_" />
					</clipPath>

						<linearGradient
   gradientTransform="matrix(20 0 0 20 7660.9448 5942.8599)"
   y2="-296.543"
   x2="-381.8473"
   y1="-296.543"
   x1="-382.8473"
   gradientUnits="userSpaceOnUse"
   id="SVGID_3_">
						<stop
   id="stop1114"
   style="stop-color:#012356"
   offset="0" />
						<stop
   id="stop1116"
   style="stop-color:#012356"
   offset="0.0198" />
						<stop
   id="stop1118"
   style="stop-color:#0D3479"
   offset="1" />
					</linearGradient>
					<rect
   id="rect1121"
   height="16"
   width="20"
   fill="url(#SVGID_3_)"
   clip-path="url(#SVGID_2_)"
   y="4"
   x="4" />
				</g>
			</g>
			<g
   id="g1146">
				<g
   id="g1144">
					<defs
   id="defs1128">
						<path
   d="M12.551,20.069c0,3.085,3.335,5.586,7.449,5.586c1.512,0,2.913-0.343,4.088-0.923l3.361,2.786        l-1.13-4.522c0.704-0.854,1.13-1.851,1.13-2.927c0-3.086-3.335-5.587-7.449-5.587S12.551,16.983,12.551,20.069"
   id="SVGID_4_" />
					</defs>
					<clipPath
   id="SVGID_5_">
						<use
   id="use1130"
   overflow="visible"
   xlink:href="#SVGID_4_" />
					</clipPath>

						<linearGradient
   gradientTransform="matrix(-14.8982 0 0 14.8982 -6379.5806 4511.6914)"
   y2="-301.4251"
   x2="-429.0539"
   y1="-301.4251"
   x1="-430.0539"
   gradientUnits="userSpaceOnUse"
   id="SVGID_6_">
						<stop
   id="stop1133"
   style="stop-color:#FF8F1E"
   offset="0" />
						<stop
   id="stop1135"
   style="stop-color:#FF8F1E"
   offset="0.012" />
						<stop
   id="stop1137"
   style="stop-color:#FA831A"
   offset="0.9945" />
						<stop
   id="stop1139"
   style="stop-color:#FA831A"
   offset="1" />
					</linearGradient>
					<rect
   id="rect1142"
   height="13.036"
   width="14.898"
   fill="url(#SVGID_6_)"
   clip-path="url(#SVGID_5_)"
   y="14.482"
   x="12.551" />
				</g>
			</g>
		</g>
	</g>
</switch>
</svg>