<?xml version="1.0" encoding="utf-8"?>
<!-- Generator: Adobe Illustrator 18.0.0, SVG Export Plug-In . SVG Version: 6.00 Build 0)  -->
<!DOCTYPE svg PUBLIC "-//W3C//DTD SVG 1.1//EN" "http://www.w3.org/Graphics/SVG/1.1/DTD/svg11.dtd">
<svg version="1.1" id="Layer_1" xmlns="http://www.w3.org/2000/svg" xmlns:xlink="http://www.w3.org/1999/xlink" x="0px" y="0px"
	 viewBox="0 0 32 32" enable-background="new 0 0 32 32" xml:space="preserve">
<g>
	<defs>
		<polygon id="SVGID_1_" points="24.2,28 26.9,23.7 22.9,23.1 		"/>
	</defs>
	<clipPath id="SVGID_2_">
		<use xlink:href="#SVGID_1_"  overflow="visible"/>
	</clipPath>
	
		<linearGradient id="SVGID_3_" gradientUnits="userSpaceOnUse" x1="-98.478" y1="195.7421" x2="-97.478" y2="195.7421" gradientTransform="matrix(3.9508 0.6257 0.6257 -3.9508 289.1771 860.1237)">
		<stop  offset="0" style="stop-color:#DBB395"/>
		<stop  offset="1.983430e-02" style="stop-color:#DBB395"/>
		<stop  offset="1" style="stop-color:#EAC2A4"/>
	</linearGradient>
	<polygon clip-path="url(#SVGID_2_)" fill="url(#SVGID_3_)" points="23,22.5 27.6,23.2 26.8,28.6 22.2,27.9 	"/>
</g>
<g>
	<defs>
		<path id="SVGID_4_" d="M24.5,13.5C24.5,13.5,24.5,13.5,24.5,13.5l-1.6,9.6l4,0.6l1.9-12C27.7,12.8,26.2,13.5,24.5,13.5"/>
	</defs>
	<clipPath id="SVGID_5_">
		<use xlink:href="#SVGID_4_"  overflow="visible"/>
	</clipPath>
	
		<linearGradient id="SVGID_6_" gradientUnits="userSpaceOnUse" x1="-98.4781" y1="196.5484" x2="-97.4781" y2="196.5484" gradientTransform="matrix(3.9508 0.6257 0.6257 -3.9508 289.9071 855.5141)">
		<stop  offset="0" style="stop-color:#4C6585"/>
		<stop  offset="1.983430e-02" style="stop-color:#4C6585"/>
		<stop  offset="1" style="stop-color:#5A789F"/>
	</linearGradient>
	<polygon clip-path="url(#SVGID_5_)" fill="url(#SVGID_6_)" points="23.1,10.8 30.6,12 28.6,24.6 21.1,23.4 	"/>
</g>
<g>
	<defs>
		<polygon id="SVGID_7_" points="24.2,28 24.9,26.8 23.8,26.6 		"/>
	</defs>
	<clipPath id="SVGID_8_">
		<use xlink:href="#SVGID_7_"  overflow="visible"/>
	</clipPath>
	
		<linearGradient id="SVGID_9_" gradientUnits="userSpaceOnUse" x1="-32.1687" y1="288.5129" x2="-31.1687" y2="288.5129" gradientTransform="matrix(1.1287 0.1788 0.1788 -1.1287 8.4556 358.5968)">
		<stop  offset="0" style="stop-color:#002555"/>
		<stop  offset="1.983430e-02" style="stop-color:#002555"/>
		<stop  offset="1" style="stop-color:#0F4186"/>
	</linearGradient>
	<polygon clip-path="url(#SVGID_8_)" fill="url(#SVGID_9_)" points="23.8,26.4 25.2,26.6 24.9,28.2 23.6,28 	"/>
</g>
<g>
	<defs>
		<path id="SVGID_10_" d="M8.5,4c0,0-0.5,0-0.9,0.4L3.4,8.6C3.4,8.6,3,9,3,9.5v18c0,0,0,0.5,0.5,0.5h17c0,0,0.5,0,0.5-0.5V12.4
			c-1.5-1.1-2.5-2.9-2.5-4.9c0-1.3,0.4-2.5,1.1-3.5H8.5z"/>
	</defs>
	<clipPath id="SVGID_11_">
		<use xlink:href="#SVGID_10_"  overflow="visible"/>
	</clipPath>
	
		<linearGradient id="SVGID_12_" gradientUnits="userSpaceOnUse" x1="-132.1111" y1="151.4444" x2="-131.1111" y2="151.4444" gradientTransform="matrix(-18 0 0 18 -2357 -2710)">
		<stop  offset="0" style="stop-color:#5A789F"/>
		<stop  offset="1" style="stop-color:#4E6889"/>
	</linearGradient>
	<rect x="3" y="4" clip-path="url(#SVGID_11_)" fill="url(#SVGID_12_)" width="18" height="24"/>
</g>
<polygon fill="#FFFFFF" points="5,11 5,26 19,26 19,6 10,6 10,11 "/>
<g>
	<defs>
		<rect id="SVGID_13_" x="7" y="13" width="9" height="2"/>
	</defs>
	<clipPath id="SVGID_14_">
		<use xlink:href="#SVGID_13_"  overflow="visible"/>
	</clipPath>
	
		<linearGradient id="SVGID_15_" gradientUnits="userSpaceOnUse" x1="-110.7778" y1="172.5556" x2="-109.7778" y2="172.5556" gradientTransform="matrix(9 0 0 -9 1003.9999 1567)">
		<stop  offset="0" style="stop-color:#4C6585"/>
		<stop  offset="1.983430e-02" style="stop-color:#4C6585"/>
		<stop  offset="1" style="stop-color:#5A789F"/>
	</linearGradient>
	<rect x="7" y="13" clip-path="url(#SVGID_14_)" fill="url(#SVGID_15_)" width="9" height="2"/>
</g>
<g>
	<defs>
		<rect id="SVGID_16_" x="7" y="17" width="7" height="2"/>
	</defs>
	<clipPath id="SVGID_17_">
		<use xlink:href="#SVGID_16_"  overflow="visible"/>
	</clipPath>
	
		<linearGradient id="SVGID_18_" gradientUnits="userSpaceOnUse" x1="-106.7143" y1="176.7143" x2="-105.7143" y2="176.7143" gradientTransform="matrix(7 0 0 -7 753.9999 1255)">
		<stop  offset="0" style="stop-color:#4C6585"/>
		<stop  offset="1.983430e-02" style="stop-color:#4C6585"/>
		<stop  offset="1" style="stop-color:#5A789F"/>
	</linearGradient>
	<rect x="7" y="17" clip-path="url(#SVGID_17_)" fill="url(#SVGID_18_)" width="7" height="2"/>
</g>
<g>
	<defs>
		<rect id="SVGID_19_" x="7" y="21" width="10" height="2"/>
	</defs>
	<clipPath id="SVGID_20_">
		<use xlink:href="#SVGID_19_"  overflow="visible"/>
	</clipPath>
	
		<linearGradient id="SVGID_21_" gradientUnits="userSpaceOnUse" x1="-112.2" y1="171.1" x2="-111.2" y2="171.1" gradientTransform="matrix(10 0 0 -10 1128.9999 1733)">
		<stop  offset="0" style="stop-color:#4C6585"/>
		<stop  offset="1.983430e-02" style="stop-color:#4C6585"/>
		<stop  offset="1" style="stop-color:#5A789F"/>
	</linearGradient>
	<rect x="7" y="21" clip-path="url(#SVGID_20_)" fill="url(#SVGID_21_)" width="10" height="2"/>
</g>
<g>
	<defs>
		<circle id="SVGID_22_" cx="24.5" cy="7.5" r="5"/>
	</defs>
	<clipPath id="SVGID_23_">
		<use xlink:href="#SVGID_22_"  overflow="visible"/>
	</clipPath>
	
		<linearGradient id="SVGID_24_" gradientUnits="userSpaceOnUse" x1="-112.2" y1="171.5" x2="-111.2" y2="171.5" gradientTransform="matrix(10 0 0 -10 1141.4999 1722.5)">
		<stop  offset="0" style="stop-color:#21C4D7"/>
		<stop  offset="1.983430e-02" style="stop-color:#21C4D7"/>
		<stop  offset="1" style="stop-color:#32D0F6"/>
	</linearGradient>
	<rect x="19.5" y="2.5" clip-path="url(#SVGID_23_)" fill="url(#SVGID_24_)" width="10" height="10"/>
</g>
<g>
	<defs>
		<rect id="SVGID_25_" x="3" y="2.5" width="26.5" height="25.5"/>
	</defs>
	<clipPath id="SVGID_26_">
		<use xlink:href="#SVGID_25_"  overflow="visible"/>
	</clipPath>
	<path clip-path="url(#SVGID_26_)" fill="#FFFFFF" d="M26,4.9c-1.1,1.1-2.1,0-2.1,1.1S26,7.1,26,9.2c0,1.1,2.1-1.1,2.1-2.1
		S26.7,4.2,26,4.9"/>
	<path clip-path="url(#SVGID_26_)" fill="#FFFFFF" d="M23.1,7.4c0.1-1-1.4-0.9-1.9-0.4c-0.5,0.5,0.4,1.7,0.7,2.5
		c0.2,0.7,0.2,0.8,0.8-0.2C23,8.7,23,8.6,23.1,7.4"/>
</g>
</svg>
