<?xml version="1.0" encoding="utf-8"?>
<!-- Generator: Adobe Illustrator 26.4.1, SVG Export Plug-In . SVG Version: 6.00 Build 0)  -->
<svg version="1.1" id="Layer_1" xmlns="http://www.w3.org/2000/svg" xmlns:xlink="http://www.w3.org/1999/xlink" x="0px" y="0px"
	 viewBox="0 0 320 320" style="enable-background:new 0 0 320 320;" xml:space="preserve">
<style type="text/css">
	.st0{clip-path:url(#SVGID_00000096049271517387631680000009946691331684118700_);fill:#4C6586;}
</style>
<g>
	<g>
		<defs>
			<rect id="SVGID_1_" width="320" height="320"/>
		</defs>
		<clipPath id="SVGID_00000086691165517697370440000016375497561712881807_">
			<use xlink:href="#SVGID_1_"  style="overflow:visible;"/>
		</clipPath>
		<path style="clip-path:url(#SVGID_00000086691165517697370440000016375497561712881807_);fill:#4C6586;" d="M107.4,193.1l8,3.9
			c14.5,7.2,31.3,10.9,48.7,10.9c23.3,0,45.2-6.6,61.5-18.5c15.7-11.4,24.3-26.4,24.3-42.1s-8.6-30.7-24.3-42.1
			c-16.4-12-38.2-18.5-61.5-18.5s-45.2,6.6-61.5,18.5c-15.7,11.4-24.3,26.4-24.3,42.1c0,10.3,4.1,20.7,11.9,30.1l5.6,6.7l-9,23.5
			c4.5-3.1,9-6.3,13.4-9.4L107.4,193.1z M55.1,248.2L78.5,187c-10-12.1-15.3-25.8-15.3-39.6c0-41.7,45.2-75.6,100.8-75.6
			s100.8,33.9,100.8,75.6S219.6,223,164,223c-19.6,0-38.8-4.3-55.3-12.5l0,0c-11.2,7.9-22.4,15.7-33.5,23.6L55.1,248.2z"/>
	</g>
</g>
</svg>
