<svg id="Layer_1" data-name="Layer 1" xmlns="http://www.w3.org/2000/svg" xmlns:xlink="http://www.w3.org/1999/xlink" viewBox="0 0 320 320"><defs><style>.cls-1{fill:none;}.cls-2{clip-path:url(#clip-path);}.cls-3{fill:#52658b;}</style><clipPath id="clip-path"><rect class="cls-1" width="320" height="320"/></clipPath></defs><g class="cls-2"><path class="cls-3" d="M131.82,180.63,116,215h88l-15.8-34.37c-.09-.21-.14-.42-.21-.63H132c-.07.21-.12.42-.21.63M70,165H250V55H70Zm195,5a10,10,0,0,1-10,10H204.4l39.92,86.87a7.5,7.5,0,0,1-3.69,9.94,7.4,7.4,0,0,1-3.12.69,7.51,7.51,0,0,1-6.83-4.37L213.17,235H106.83L89.32,273.13a7.52,7.52,0,0,1-6.82,4.37,7.41,7.41,0,0,1-3.13-.69,7.51,7.51,0,0,1-3.69-9.94L115.6,180H65a10,10,0,0,1-10-10V50A10,10,0,0,1,65,40H255a10,10,0,0,1,10,10ZM320,0H0V320H320Z"/></g></svg>