<svg id="Layer_1" data-name="Layer 1" xmlns="http://www.w3.org/2000/svg" xmlns:xlink="http://www.w3.org/1999/xlink" viewBox="0 0 250 250"><defs><style>.cls-1{fill:none;}.cls-2{clip-path:url(#clip-path);}.cls-3{fill:#52658b;}</style><clipPath id="clip-path" transform="translate(-40 -30)"><rect class="cls-1" x="40" y="30" width="250" height="250"/></clipPath></defs><g class="cls-2"><path class="cls-3" d="M165,222.5A12.5,12.5,0,1,1,177.5,235,12.5,12.5,0,0,1,165,222.5M188.79,40H146.25c-3.45,0-6.25,3.36-6.25,7.5v225c0,4.14,2.8,7.5,6.25,7.5h62.5c3.45,0,6.25-3.36,6.25-7.5V140a65.42,65.42,0,0,1-15-8.8V190H155V70h20.77a64.65,64.65,0,0,1,13-30" transform="translate(-40 -30)"/><path class="cls-3" d="M276.09,75.71c0,10.69-21.38,32.07-21.38,21.38,0-21.38-21.38-21.38-21.38-32.07S244,65,254.71,54.33c7.56-7.55,21.38,10.69,21.38,21.38m-50.55,3.68c-.87,11.21-.41,13-3.88,19-6.12,10.6-6.56,8.94-8.36,2.24-2.24-8.36-11.27-19.85-6.72-25.08s19.72-5.91,19,3.88M290,80a50,50,0,1,0-50,50,50,50,0,0,0,50-50" transform="translate(-40 -30)"/></g><polygon class="cls-3" points="67.59 240 67.59 227.59 28.16 227.59 66.56 176.89 66.56 163.33 10.35 163.33 10.35 175.74 48.05 175.74 8.97 226.55 8.97 240 67.59 240"/><rect class="cls-3" x="23.08" y="121.61" width="30.49" height="12.58"/><path class="cls-3" d="M78,60.24,90,93.45H65.7ZM67.66,50,40,122.64H55.9l6.53-18.19H93.36l6.43,18.19h16.77L88.79,50Z" transform="translate(-40 -30)"/></svg>