<?xml version="1.0" encoding="utf-8"?>
<!-- Generator: Adobe Illustrator 21.0.0, SVG Export Plug-In . SVG Version: 6.00 Build 0)  -->
<svg version="1.1" id="Layer_1" xmlns="http://www.w3.org/2000/svg" xmlns:xlink="http://www.w3.org/1999/xlink" x="0px" y="0px"
	 viewBox="0 0 32 32" enable-background="new 0 0 32 32" xml:space="preserve">
<g>
	<defs>
		<path id="SVGID_1_" d="M13,17l-9,3v8c0,0,19.9-7.3,22-8c1.3-0.4,1.9-1.9,1.9-3.3v-0.1c0-1.8-0.8-3.5-1.9-3.5l-7,2l4-5.6l-3.9-0.7
			L13,17z"/>
	</defs>
	<clipPath id="SVGID_2_">
		<use xlink:href="#SVGID_1_"  overflow="visible"/>
	</clipPath>
	
		<linearGradient id="SVGID_3_" gradientUnits="userSpaceOnUse" x1="-44.6298" y1="81.6811" x2="-43.6298" y2="81.6811" gradientTransform="matrix(25.2365 -5.8263 -5.8263 -25.2365 1605.2384 1822.6636)">
		<stop  offset="0" style="stop-color:#321E14"/>
		<stop  offset="1.983430e-02" style="stop-color:#321E14"/>
		<stop  offset="1" style="stop-color:#503228"/>
	</linearGradient>
	<polygon clip-path="url(#SVGID_2_)" fill="url(#SVGID_3_)" points="-0.2,9.7 26.7,3.5 32.1,27 5.2,33.2 	"/>
</g>
<g>
	<defs>
		<path id="SVGID_4_" d="M9.8,3.7C9.7,3.9,8.3,6.6,9.6,9.2c1.1,2.1,5.1,2.7,5.1,2.7l1.6,2l0.6-0.8l-1.4-1.6c0,0,2.1-2.6-0.3-5
			C12.9,4.4,10.1,3.8,9.8,3.7L9.8,3.7z"/>
	</defs>
	<clipPath id="SVGID_5_">
		<use xlink:href="#SVGID_4_"  overflow="visible"/>
	</clipPath>
	
		<linearGradient id="SVGID_6_" gradientUnits="userSpaceOnUse" x1="-40.4811" y1="87.3006" x2="-39.4811" y2="87.3006" gradientTransform="matrix(7.8234 0 0 -7.8234 325.7538 691.8478)">
		<stop  offset="0" style="stop-color:#4B823C"/>
		<stop  offset="1.983430e-02" style="stop-color:#4B823C"/>
		<stop  offset="1" style="stop-color:#6EA03C"/>
	</linearGradient>
	<rect x="8.3" y="3.7" clip-path="url(#SVGID_5_)" fill="url(#SVGID_6_)" width="9.3" height="10.2"/>
</g>
</svg>
