<?xml version="1.0" encoding="utf-8"?>
<!-- Generator: Adobe Illustrator 26.5.0, SVG Export Plug-In . SVG Version: 6.00 Build 0)  -->
<svg version="1.1" id="Layer_1" xmlns="http://www.w3.org/2000/svg" xmlns:xlink="http://www.w3.org/1999/xlink" x="0px" y="0px"
	 viewBox="0 0 320 320" style="enable-background:new 0 0 320 320;" xml:space="preserve">
<style type="text/css">
	.st0{clip-path:url(#SVGID_00000020373584418975815190000009449267969719337097_);fill:#4C6586;}
</style>
<g>
	<g>
		<defs>
			<rect id="SVGID_1_" y="0" width="320" height="320"/>
		</defs>
		<clipPath id="SVGID_00000065076241338675113430000014336273147563071874_">
			<use xlink:href="#SVGID_1_"  style="overflow:visible;"/>
		</clipPath>
		<path style="clip-path:url(#SVGID_00000065076241338675113430000014336273147563071874_);fill:#4C6586;" d="M160,72.5
			c16.9,0,32.7,4.8,46.1,13.1L85.6,206.1c-8.3-13.4-13.1-29.2-13.1-46.1C72.5,111.7,111.7,72.5,160,72.5 M160,247.5
			c-16.9,0-32.7-4.8-46.1-13.1l120.5-120.5c8.3,13.4,13.1,29.2,13.1,46.1C247.5,208.3,208.3,247.5,160,247.5 M267.7,160
			c0-59.5-48.2-107.7-107.7-107.7S52.3,100.5,52.3,160S100.5,267.7,160,267.7S267.7,219.5,267.7,160"/>
	</g>
</g>
</svg>
