<?xml version="1.0" encoding="utf-8"?>
<!-- Generator: Adobe Illustrator 26.3.1, SVG Export Plug-In . SVG Version: 6.00 Build 0)  -->
<svg version="1.1" id="Layer_1" xmlns="http://www.w3.org/2000/svg" xmlns:xlink="http://www.w3.org/1999/xlink" x="0px" y="0px"
	 viewBox="0 0 320 320" style="enable-background:new 0 0 320 320;" xml:space="preserve">
<style type="text/css">
	.st0{clip-path:url(#SVGID_00000156553750572023829270000009674555776642085802_);fill:#52668C;}
	.st1{fill:none;}
</style>
<g>
	<defs>
		<rect id="SVGID_1_" x="62.5" y="62.5" width="189.5" height="189.5"/>
	</defs>
	<clipPath id="SVGID_00000108301278305265197090000001486362505813019548_">
		<use xlink:href="#SVGID_1_"  style="overflow:visible;"/>
	</clipPath>
	<path style="clip-path:url(#SVGID_00000108301278305265197090000001486362505813019548_);fill:#52668C;" d="M252,172h-80v80
		C216.2,252,252,216.2,252,172 M142.5,142.5v79.6c-36.5-3.8-65-34.7-65-72.1c0-40,32.5-72.5,72.5-72.5c37.4,0,68.3,28.5,72.1,65
		H142.5z M157.5,157.5h80V150c0-48.2-39.3-87.5-87.5-87.5S62.5,101.8,62.5,150s39.3,87.5,87.5,87.5h7.5V157.5z"/>
</g>
<rect class="st1" width="320" height="320"/>
</svg>
