<svg id="Layer_1" data-name="Layer 1" xmlns="http://www.w3.org/2000/svg" xmlns:xlink="http://www.w3.org/1999/xlink" viewBox="0 0 17.55 24"><defs><style>.cls-1{fill:none;}.cls-2{clip-path:url(#clip-path);}.cls-3{fill:url(#linear-gradient);}.cls-4{clip-path:url(#clip-path-2);}.cls-5{fill:url(#linear-gradient-2);}</style><clipPath id="clip-path" transform="translate(-7.23 -4)"><path class="cls-1" d="M12.17,4S7.23,4,7.23,8.94v7.45s0,4.24,4,4.83V19A3.55,3.55,0,0,1,9.21,15.8V9.28a3.37,3.37,0,0,1,3.44-3.44h2.19a3.37,3.37,0,0,1,3.44,3.44V15.8a3.37,3.37,0,0,1-3.44,3.44h-.65v2.09h1.13s4.94,0,4.94-4.94V8.94S20.26,4,15.32,4Z"/></clipPath><linearGradient id="linear-gradient" x1="1.47" y1="34.04" x2="2.47" y2="34.04" gradientTransform="matrix(13.32, 0, 0, -13.32, -19.68, 461.9)" gradientUnits="userSpaceOnUse"><stop offset="0" stop-color="#002555"/><stop offset="0.02" stop-color="#002555"/><stop offset="1" stop-color="#0f4187"/></linearGradient><clipPath id="clip-path-2" transform="translate(-7.23 -4)"><path class="cls-1" d="M16.68,10.67s-4.94,0-4.94,4.94v7.45s0,4.94,4.94,4.94h3.15s4.94,0,4.94-4.94V15.61s-.05-4.27-4.08-4.83v2A3.57,3.57,0,0,1,22.8,16v6.51a3.38,3.38,0,0,1-3.45,3.44H17.16a3.37,3.37,0,0,1-3.44-3.44V16a3.37,3.37,0,0,1,3.44-3.44h.62V10.67Z"/></clipPath><linearGradient id="linear-gradient-2" x1="1.48" y1="34.05" x2="2.48" y2="34.05" gradientTransform="matrix(13.04, 0, 0, -13.04, -14.75, 459.3)" gradientUnits="userSpaceOnUse"><stop offset="0" stop-color="#e66e1e"/><stop offset="0.44" stop-color="#e8711f"/><stop offset="0.71" stop-color="#ef7923"/><stop offset="0.92" stop-color="#fa8729"/><stop offset="1" stop-color="#ff8e2c"/><stop offset="1" stop-color="#ff8e2c"/></linearGradient></defs><title>icon_lti-mngmnt_v1</title><g class="cls-2"><rect class="cls-3" width="13.04" height="17.33"/></g><g class="cls-4"><rect class="cls-5" x="4.51" y="6.67" width="13.04" height="17.33"/></g></svg>