<?xml version="1.0" encoding="utf-8"?>
<!-- Generator: Adobe Illustrator 26.4.1, SVG Export Plug-In . SVG Version: 6.00 Build 0)  -->
<svg version="1.1" id="Layer_1" xmlns="http://www.w3.org/2000/svg" xmlns:xlink="http://www.w3.org/1999/xlink" x="0px" y="0px"
	 viewBox="0 0 320 320" style="enable-background:new 0 0 320 320;" xml:space="preserve">
<style type="text/css">
	.st0{clip-path:url(#SVGID_00000054979508363548897840000011196220319156209317_);fill:#4C6586;}
</style>
<g>
	<g>
		<defs>
			<rect id="SVGID_1_" width="320" height="320"/>
		</defs>
		<clipPath id="SVGID_00000034776075788679258100000013620632542453094277_">
			<use xlink:href="#SVGID_1_"  style="overflow:visible;"/>
		</clipPath>
		<path style="clip-path:url(#SVGID_00000034776075788679258100000013620632542453094277_);fill:#4C6586;" d="M135,214.4
			c7.9-10.2,12.1-23.3,12.1-38.4c0-30.6-25.3-46.9-43.6-46.9c-25.7,0-41.6,15.7-43.6,43.1c-1.8,25.4,12.1,36.9,19.6,43
			c0.2,0.2,0.5,0.4,0.8,0.6c-2.5,1.4-8.1,3.7-20.6,6.5c-26,5.8-30.4,40.5-30.6,41.9c-0.5,4.1,2.5,7.8,6.6,8.3s7.8-2.4,8.3-6.5
			c0-0.3,3.3-25.6,18.9-29c17.2-3.8,33.9-8.6,33.9-21.6c0-5.3-4-8.6-7.9-11.8c-6.5-5.3-15.4-12.7-14.2-30.3
			c1.4-19.6,10.8-29.1,28.6-29.1c10,0,28.6,9.3,28.6,31.9c0,10.7-2.7,25.6-15.4,35.8c-2.5,2-3.6,5-2.9,8c1.3,5.6,5.8,6.6,16.8,9
			c8.6,1.9,22.9,5,27.5,9.3c7.3,6.8,9.5,22,9.8,27.3c0.2,4,3.5,7.2,7.5,7.2c0.1,0,0.2,0,0.3,0c4.1-0.2,7.4-3.7,7.2-7.8
			c-0.1-2.6-1.4-25.4-14.5-37.7C161.5,220.8,149.2,217.5,135,214.4 M291.5,183.3c-0.1-2.6-1.4-25.4-14.5-37.7
			c-6.8-6.3-19.1-9.6-33.3-12.7c7.9-10.2,12.1-23.3,12.1-38.4c0-30.6-25.3-46.9-43.6-46.9c-25.7,0-41.6,15.7-43.6,43.1
			c-1.8,25.4,12.1,36.9,19.6,43c0.2,0.2,0.5,0.4,0.8,0.6c-2.5,1.4-8.1,3.7-20.6,6.5c-5.5,1.2-10,3.7-13.8,7c2.7,4.6,4.7,10,5.7,16
			c2.8-4,6.4-7.2,11.4-8.3c17.2-3.8,33.9-8.6,33.9-21.6c0-5.3-4-8.6-7.9-11.8c-6.5-5.3-15.4-12.7-14.2-30.3
			c1.4-19.6,10.8-29.1,28.6-29.1c10,0,28.6,9.3,28.6,31.9c0,10.7-2.7,25.6-15.4,35.8c-2.5,2-3.6,5-2.9,8c1.3,5.6,5.8,6.6,16.8,9
			c8.6,1.9,22.9,5,27.5,9.3c7.3,6.8,9.5,22,9.8,27.3c0.2,4,3.5,7.2,7.5,7.2c0.1,0,0.2,0,0.3,0C288.4,190.9,291.6,187.4,291.5,183.3"
			/>
	</g>
</g>
</svg>
