<svg id="Layer_1" data-name="Layer 1" xmlns="http://www.w3.org/2000/svg" xmlns:xlink="http://www.w3.org/1999/xlink" viewBox="0 0 27.62 26.49"><defs><style>.cls-1{fill:none;}.cls-2{clip-path:url(#clip-path);}.cls-3{fill:url(#linear-gradient);}.cls-4{clip-path:url(#clip-path-2);}.cls-5{fill:url(#linear-gradient-2);}.cls-6{clip-path:url(#clip-path-3);}.cls-7{fill:url(#linear-gradient-3);}.cls-8{clip-path:url(#clip-path-4);}.cls-9{fill:url(#linear-gradient-4);}.cls-10{clip-path:url(#clip-path-5);}.cls-11{fill:url(#linear-gradient-5);}.cls-12{clip-path:url(#clip-path-6);}.cls-13{fill:url(#linear-gradient-6);}</style><clipPath id="clip-path" transform="translate(-0.38 -1.51)"><rect class="cls-1" x="15" y="4" width="2" height="24"/></clipPath><linearGradient id="linear-gradient" x1="-147.38" y1="180.46" x2="-146.38" y2="180.46" gradientTransform="matrix(0, -24, -24, 0, 4346.62, -3510.51)" gradientUnits="userSpaceOnUse"><stop offset="0" stop-color="#4c6586"/><stop offset="0.02" stop-color="#4c6586"/><stop offset="1" stop-color="#5a78a0"/></linearGradient><clipPath id="clip-path-2" transform="translate(-0.38 -1.51)"><path class="cls-1" d="M5.68,8.92A3.3,3.3,0,1,1,9,12.22a3.3,3.3,0,0,1-3.3-3.3M8.29,4.36A3.66,3.66,0,0,0,5.94,5.51c-.51.71-1.32.72-1.62,2a3.33,3.33,0,0,0,0,1.88,3,3,0,0,1,.27,1.3A2.24,2.24,0,0,0,5,12.11a2.06,2.06,0,0,0,.71.7L4,17.45l1.72-.33,1.1,1.36,1.74-4.79a1.4,1.4,0,0,0,.68,0,.94.94,0,0,0,.16,0l1.74,4.79,1.11-1.36,1.71.33-1.72-4.74a3,3,0,0,0,.69-.7,3.25,3.25,0,0,0,.61-2,6.23,6.23,0,0,0-.59-2,6.05,6.05,0,0,0,0-1.09,2.64,2.64,0,0,0-.54-1.14,3.8,3.8,0,0,0-2.06-1.59,4.5,4.5,0,0,0-1-.12,2.24,2.24,0,0,0-1.14.36"/></clipPath><linearGradient id="linear-gradient-2" x1="-144.63" y1="203.98" x2="-143.63" y2="203.98" gradientTransform="matrix(0, 11.9, 11.9, 0, -2418.35, 1726.89)" gradientUnits="userSpaceOnUse"><stop offset="0" stop-color="#e66e1e"/><stop offset="0.44" stop-color="#e8711f"/><stop offset="0.71" stop-color="#ef7923"/><stop offset="0.92" stop-color="#fa8729"/><stop offset="1" stop-color="#ff8e2c"/><stop offset="1" stop-color="#ff8e2c"/></linearGradient><clipPath id="clip-path-3" transform="translate(-0.38 -1.51)"><path class="cls-1" d="M6.73,8.92A2.25,2.25,0,1,0,9,6.67,2.25,2.25,0,0,0,6.73,8.92"/></clipPath><linearGradient id="linear-gradient-3" x1="-118.89" y1="222.83" x2="-117.89" y2="222.83" gradientTransform="matrix(4.5, 0, 0, -4.5, 541.35, 1010.16)" xlink:href="#linear-gradient-2"/><clipPath id="clip-path-4" transform="translate(-0.38 -1.51)"><polygon class="cls-1" points="19 6 19 12 28 12 25 9 28 6 19 6"/></clipPath><linearGradient id="linear-gradient-4" x1="-136.44" y1="205" x2="-135.44" y2="205" gradientTransform="matrix(9, 0, 0, -9, 1246.62, 1852.49)" xlink:href="#linear-gradient"/><clipPath id="clip-path-5" transform="translate(-0.38 -1.51)"><polygon class="cls-1" points="19 13.09 19 19.09 28 19.09 25 16.09 28 13.09 19 13.09"/></clipPath><linearGradient id="linear-gradient-5" x1="-136.44" y1="205" x2="-135.44" y2="205" gradientTransform="matrix(9, 0, 0, -9, 1246.62, 1859.58)" xlink:href="#linear-gradient"/><clipPath id="clip-path-6" transform="translate(-0.38 -1.51)"><polygon class="cls-1" points="19 20.17 19 26.17 28 26.17 25 23.17 28 20.17 19 20.17"/></clipPath><linearGradient id="linear-gradient-6" x1="-136.44" y1="205" x2="-135.44" y2="205" gradientTransform="matrix(9, 0, 0, -9, 1246.62, 1866.66)" xlink:href="#linear-gradient"/></defs><title>icon_lrnng-hstr</title><g class="cls-2"><rect class="cls-3" x="14.62" y="2.49" width="2" height="24"/></g><g class="cls-4"><rect class="cls-5" x="0.7" y="4.55" width="16.56" height="13.37" transform="translate(-4.58 15.5) rotate(-75)"/></g><g class="cls-6"><rect class="cls-7" x="6.35" y="5.16" width="4.5" height="4.5"/></g><g class="cls-8"><rect class="cls-9" x="18.62" y="4.49" width="9" height="6"/></g><g class="cls-10"><rect class="cls-11" x="18.62" y="11.58" width="9" height="6"/></g><g class="cls-12"><rect class="cls-13" x="18.62" y="18.66" width="9" height="6"/></g></svg>