<?xml version="1.0" encoding="utf-8"?>
<!-- Generator: Adobe Illustrator 26.5.0, SVG Export Plug-In . SVG Version: 6.00 Build 0)  -->
<svg version="1.1" id="Layer_1" xmlns="http://www.w3.org/2000/svg" xmlns:xlink="http://www.w3.org/1999/xlink" x="0px" y="0px"
	 viewBox="0 0 320 320" style="enable-background:new 0 0 320 320;" xml:space="preserve">
<style type="text/css">
	.st0{clip-path:url(#SVGID_00000090996256158053588650000009147451755348919721_);}
	.st1{fill:#4C6586;}
</style>
<g>
	<defs>
		<rect id="SVGID_1_" width="320" height="320"/>
	</defs>
	<clipPath id="SVGID_00000007408553905795377660000009995711540284285852_">
		<use xlink:href="#SVGID_1_"  style="overflow:visible;"/>
	</clipPath>
	<g style="clip-path:url(#SVGID_00000007408553905795377660000009995711540284285852_);">
		<path class="st1" d="M260,258.3c0.2,4.1-3,7.6-7.2,7.8h-0.3c-4,0-7.3-3.1-7.5-7.1c-0.3-7.3-3.4-28.4-13.8-38.1
			c-6.6-6.1-26.1-10.4-37.8-13c-13.9-3.1-19.1-4.2-20.5-10.1c-0.7-3.1,0.4-6.3,2.9-8.2c17.8-14.2,21.5-34.8,21.5-49.6
			c0-3.4-0.3-6.7-1-10c-8.9,0.3-20.9-0.5-37.8-3.1c-13.5-2.1-27.1-2.9-40.8-2.6c-0.9,3.9-1.5,7.8-1.8,11.8
			c-1.8,24.9,10.7,35.1,19.8,42.6c5.1,4.2,9.6,7.9,9.6,13.8c0,13.9-17.3,20.6-43.3,26.3c-22.6,5-27.1,40.5-27.1,40.9
			c-0.5,4.1-4.2,7.1-8.3,6.6c-4.1-0.5-7.1-4.2-6.6-8.3c0.2-1.9,5.8-46.4,38.8-53.8c22.9-5.1,29.2-9.1,30.9-10.9c-1-0.9-2.4-2-3.5-3
			c-9.6-7.9-27.6-22.6-25.2-55.2c0.2-3.3,0.6-6.6,1.2-9.9c-4.9,0.5-7.7,1-7.7,1c-16.6,3.9-19.7-6.5-20.6-11.7
			c-1.6-9,12.6-13,32.2-13.8l-0.9-12.3c-1.5-21.2,19.9-32.2,47-34.1s49.8,6.1,51.3,27.2l1.5,21.4c4.1-0.4,6.4-0.7,6.4-0.7
			c12.4-3.2,16.5,3.2,16.5,8.4s0,11.6-10.5,15.6c-2.1,0.8-4.2,1.5-6.3,2c0.7,3.9,1,7.9,1,11.8c0,21.2-6.2,39.2-18.1,52.8l2.4,0.5
			c14.9,3.3,35.3,7.8,44.8,16.7C258.5,225.8,259.9,257,260,258.3 M320,0H0v320h320V0z"/>
	</g>
</g>
</svg>
