<?xml version="1.0" encoding="utf-8"?>
<!-- Generator: Adobe Illustrator 17.0.0, SVG Export Plug-In . SVG Version: 6.00 Build 0)  -->
<!DOCTYPE svg PUBLIC "-//W3C//DTD SVG 1.1//EN" "http://www.w3.org/Graphics/SVG/1.1/DTD/svg11.dtd">
<svg version="1.1" id="Layer_1" xmlns="http://www.w3.org/2000/svg" xmlns:xlink="http://www.w3.org/1999/xlink" x="0px" y="0px"
	 width="32px" height="32px" viewBox="0 0 32 32" enable-background="new 0 0 32 32" xml:space="preserve">
<g>
	<defs>
		<circle id="SVGID_1_" cx="16" cy="16" r="14"/>
	</defs>
	<clipPath id="SVGID_2_">
		<use xlink:href="#SVGID_1_"  overflow="visible"/>
	</clipPath>
	
		<linearGradient id="SVGID_3_" gradientUnits="userSpaceOnUse" x1="-129.5357" y1="163.0714" x2="-128.5357" y2="163.0714" gradientTransform="matrix(-28 0 0 -28 -3597 4582)">
		<stop  offset="0" style="stop-color:#FF8F1E"/>
		<stop  offset="0.01" style="stop-color:#FF8F1E"/>
		<stop  offset="1" style="stop-color:#E6700F"/>
	</linearGradient>
	<rect x="2" y="2" clip-path="url(#SVGID_2_)" fill="url(#SVGID_3_)" width="28" height="28"/>
</g>
<g>
	<defs>
		<rect id="SVGID_4_" x="2" y="2" width="28" height="28"/>
	</defs>
	<clipPath id="SVGID_5_">
		<use xlink:href="#SVGID_4_"  overflow="visible"/>
	</clipPath>
	<path clip-path="url(#SVGID_5_)" fill="#FFFFFF" d="M16.803,21.948H13.44v3.011h3.363V21.948z M20.896,12.125
		c0-2.987-2.861-4.166-5.499-4.166c-1.631,0-2.886,0.301-4.293,0.727l0.151,2.61c1.08-0.402,2.26-0.703,3.414-0.703
		c1.28,0,2.639,0.577,2.639,2.009c0,2.839-3.667,2.839-3.667,7.21v0.327h2.96v-0.377C16.601,16.245,20.896,15.893,20.896,12.125"/>
</g>
</svg>
