<?xml version="1.0" encoding="utf-8"?>
<!-- Generator: Adobe Illustrator 26.2.0, SVG Export Plug-In . SVG Version: 6.00 Build 0)  -->
<svg version="1.1" id="Layer_1" xmlns="http://www.w3.org/2000/svg" xmlns:xlink="http://www.w3.org/1999/xlink" x="0px" y="0px"
	 viewBox="0 0 320 320" style="enable-background:new 0 0 320 320;" xml:space="preserve">
<style type="text/css">
	.st0{clip-path:url(#SVGID_00000075846591084806025840000015315216572636772522_);fill:#52668C;}
</style>
<g>
	<defs>
		<rect id="SVGID_1_" width="320" height="320"/>
	</defs>
	<clipPath id="SVGID_00000057147486385053304650000013885845579707587984_">
		<use xlink:href="#SVGID_1_"  style="overflow:visible;"/>
	</clipPath>
	<path style="clip-path:url(#SVGID_00000057147486385053304650000013885845579707587984_);fill:#52668C;" d="M240,160h-80v80
		c-44.1,0-80-35.9-80-80s35.9-80,80-80C204.1,80,240,115.9,240,160 M254.9,162c0-0.7,0.1-1.3,0.1-2c0-52.4-42.6-95-95-95
		s-95,42.6-95,95s42.6,95,95,95c0,0,0,0,0.1,0C211.8,255,253.9,213.5,254.9,162 M307,233l-74,74H13V87l74-74h220V233z M320,320V220
		V0H100H0v100v220h220H320z"/>
</g>
</svg>
