<?xml version="1.0" encoding="utf-8"?>
<!-- Generator: Adobe Illustrator 26.5.0, SVG Export Plug-In . SVG Version: 6.00 Build 0)  -->
<svg version="1.1" id="Layer_1" xmlns="http://www.w3.org/2000/svg" xmlns:xlink="http://www.w3.org/1999/xlink" x="0px" y="0px"
	 viewBox="0 0 320 320" style="enable-background:new 0 0 320 320;" xml:space="preserve">
<style type="text/css">
	.st0{clip-path:url(#SVGID_00000137118743109991250170000002214388028412961724_);fill:#4C6586;}
	.st1{fill:none;}
</style>
<g>
	<g>
		<defs>
			<rect id="SVGID_1_" x="20" y="20" width="280" height="280"/>
		</defs>
		<clipPath id="SVGID_00000147916706335462525980000015395511543199876239_">
			<use xlink:href="#SVGID_1_"  style="overflow:visible;"/>
		</clipPath>
		<path style="clip-path:url(#SVGID_00000147916706335462525980000015395511543199876239_);fill:#4C6586;" d="M160,37.5
			c27.5,0,52.8,9.2,73.3,24.5L204,91.3c-12.7-8.2-27.7-13-44-13c-16.2,0-31.2,4.9-43.9,13L86.7,62C107.2,46.7,132.5,37.5,160,37.5
			 M37.5,160c0-27.5,9.2-52.8,24.5-73.2l29.3,29.3c-8.1,12.7-13,27.7-13,43.9s4.9,31.2,13,43.9L62,233.3
			C46.7,212.8,37.5,187.5,37.5,160 M160,224.2c-35.4,0-64.2-28.7-64.2-64.2c0-35.4,28.7-64.2,64.2-64.2c35.4,0,64.2,28.7,64.2,64.2
			C224.2,195.4,195.4,224.2,160,224.2 M160,282.5c-27.5,0-52.8-9.2-73.2-24.5l29.3-29.3c12.7,8.1,27.7,13,43.9,13s31.2-4.9,43.9-13
			l29.4,29.4C212.8,273.3,187.5,282.5,160,282.5 M258,86.8c15.3,20.4,24.5,45.7,24.5,73.2s-9.2,52.8-24.5,73.3L228.6,204
			c8.2-12.7,13-27.7,13-43.9s-4.9-31.2-13-43.9L258,86.8z M300,160c0-77.3-62.7-140-140-140S20,82.7,20,160s62.7,140,140,140
			S300,237.3,300,160"/>
	</g>
</g>
<rect class="st1" width="320" height="320"/>
</svg>
