<?xml version="1.0" encoding="utf-8"?>
<!-- Generator: Adobe Illustrator 17.0.0, SVG Export Plug-In . SVG Version: 6.00 Build 0)  -->
<!DOCTYPE svg PUBLIC "-//W3C//DTD SVG 1.1//EN" "http://www.w3.org/Graphics/SVG/1.1/DTD/svg11.dtd">
<svg version="1.1" id="Layer_1" xmlns="http://www.w3.org/2000/svg" xmlns:xlink="http://www.w3.org/1999/xlink" x="0px" y="0px"
	 width="32px" height="32px" viewBox="0 0 32 32" enable-background="new 0 0 32 32" xml:space="preserve">
<g>
	<defs>
		<path id="SVGID_1_" d="M4.5,26C4,26,4,26.5,4,26.5v1C4,28,4.5,28,4.5,28h23c0.5,0,0.5-0.5,0.5-0.5v-1c0-0.5-0.5-0.5-0.5-0.5H4.5z"
			/>
	</defs>
	<clipPath id="SVGID_2_">
		<use xlink:href="#SVGID_1_"  overflow="visible"/>
	</clipPath>
	
		<linearGradient id="SVGID_3_" gradientUnits="userSpaceOnUse" x1="-119.625" y1="152.5417" x2="-118.625" y2="152.5417" gradientTransform="matrix(24 0 0 24 2875 -3634)">
		<stop  offset="0" style="stop-color:#4C6486"/>
		<stop  offset="0.0198" style="stop-color:#4C6486"/>
		<stop  offset="1" style="stop-color:#5A77A0"/>
	</linearGradient>
	<rect x="4" y="26" clip-path="url(#SVGID_2_)" fill="url(#SVGID_3_)" width="24" height="2"/>
</g>
<g>
	<defs>
		<path id="SVGID_4_" d="M21,13c0,0-0.5,0-0.5,0.5v9.417c0,0,0.001,0.033,0.01,0.083h-2.532C17.982,22.969,18,22.953,18,22.917V13.5
			c0,0,0-0.5-0.5-0.5h-3c0,0-0.5,0-0.5,0.5v9.417c0,0,0.001,0.033,0.009,0.083h-2.531c0.005-0.031,0.022-0.047,0.022-0.083V13.5
			c0,0,0-0.5-0.5-0.5H8c0,0-0.5,0-0.5,0.5v9.417c0,0,0.001,0.033,0.009,0.083H6c-0.5,0-0.5,0.5-0.5,0.5v1C5.5,25,6,25,6,25h20
			c0.5,0,0.5-0.5,0.5-0.5v-1C26.5,23,26,23,26,23h-1.522c0.004-0.031,0.022-0.047,0.022-0.083V13.5c0,0,0-0.5-0.5-0.5H21z"/>
	</defs>
	<clipPath id="SVGID_5_">
		<use xlink:href="#SVGID_4_"  overflow="visible"/>
	</clipPath>
	
		<linearGradient id="SVGID_6_" gradientUnits="userSpaceOnUse" x1="-118.8571" y1="164.4762" x2="-117.8571" y2="164.4762" gradientTransform="matrix(21 0 0 -21 2501.5 3473)">
		<stop  offset="0" style="stop-color:#4C6486"/>
		<stop  offset="0.0198" style="stop-color:#4C6486"/>
		<stop  offset="1" style="stop-color:#5A77A0"/>
	</linearGradient>
	<rect x="5.5" y="13" clip-path="url(#SVGID_5_)" fill="url(#SVGID_6_)" width="21" height="12"/>
</g>
<g>
	<defs>
		<path id="SVGID_7_" d="M16.007,4.308c-0.481,0.008-0.839,0.247-0.839,0.247l-10.336,6.89C4,12,5,12,5,12h22
			c1,0,0.168-0.555,0.168-0.555l-10.336-6.89c-0.268-0.179-0.537-0.243-0.778-0.247H16.007z"/>
	</defs>
	<clipPath id="SVGID_8_">
		<use xlink:href="#SVGID_7_"  overflow="visible"/>
	</clipPath>
	
		<linearGradient id="SVGID_9_" gradientUnits="userSpaceOnUse" x1="-120.2222" y1="162.9573" x2="-119.2222" y2="162.9573" gradientTransform="matrix(27 0 0 -27 3250 4408)">
		<stop  offset="0" style="stop-color:#4C6486"/>
		<stop  offset="0.0198" style="stop-color:#4C6486"/>
		<stop  offset="1" style="stop-color:#5A77A0"/>
	</linearGradient>
	<rect x="4" y="4.308" clip-path="url(#SVGID_8_)" fill="url(#SVGID_9_)" width="24" height="7.692"/>
</g>
</svg>
