<?xml version="1.0" encoding="utf-8"?>
<!-- Generator: Adobe Illustrator 26.4.1, SVG Export Plug-In . SVG Version: 6.00 Build 0)  -->
<svg version="1.1" id="Layer_1" xmlns="http://www.w3.org/2000/svg" xmlns:xlink="http://www.w3.org/1999/xlink" x="0px" y="0px"
	 viewBox="0 0 320 320" style="enable-background:new 0 0 320 320;" xml:space="preserve">
<style type="text/css">
	.st0{clip-path:url(#SVGID_00000021834947970793545650000009043654807875128750_);fill:#4C6586;}
</style>
<g>
	<g>
		<defs>
			<rect id="SVGID_1_" width="320" height="320"/>
		</defs>
		<clipPath id="SVGID_00000005969084422208729780000010141881148576229811_">
			<use xlink:href="#SVGID_1_"  style="overflow:visible;"/>
		</clipPath>
		<path style="clip-path:url(#SVGID_00000005969084422208729780000010141881148576229811_);fill:#4C6586;" d="M262.5,255h-205v-76.2
			h75v7.1c0,5.5,4.5,10,10,10h35c5.5,0,10-4.5,10-10v-7.1h75V255z M262.5,106.2v57.6h-75c0-5.5-4.5-10-10-10h-35
			c-5.5,0-10,4.5-10,10h-75v-57.6C57.5,106.2,262.5,106.2,262.5,106.2z M177.5,91.2h-35c0-8.7,0-25.6,0-25.8
			c0.2-8.5,8-15.4,17.5-15.4s17.3,6.9,17.5,15.5C177.5,65.7,177.5,82.5,177.5,91.2 M277.5,260V101.2c0-5.5-4.5-10-10-10h-75
			c0-8.7,0-25.6,0-25.7C192.4,48.7,177.8,35,160,35s-32.4,13.7-32.5,30.5c0,0.1,0,17,0,25.7h-75c-5.5,0-10,4.5-10,10V260
			c0,5.5,4.5,10,10,10h215C273,270,277.5,265.5,277.5,260"/>
	</g>
</g>
</svg>
