<svg id="Layer_1" data-name="Layer 1" xmlns="http://www.w3.org/2000/svg" xmlns:xlink="http://www.w3.org/1999/xlink" viewBox="0 0 240 240"><defs><style>.cls-1{fill:none;}.cls-2{clip-path:url(#clip-path);}.cls-3{fill:#52658b;}</style><clipPath id="clip-path" transform="translate(-40 -40)"><rect class="cls-1" x="40" y="40" width="240" height="240"/></clipPath></defs><g class="cls-2"><path class="cls-3" d="M262.68,234.78c7-8.53,11.3-18.5,11.3-29.27,0-30.86-33.35-55.88-74.49-55.88S125,174.65,125,205.51s33.35,55.86,74.49,55.86a92.53,92.53,0,0,0,40.88-9.22L280,280Z" transform="translate(-40 -40)"/><path class="cls-3" d="M235.05,140.56a58.5,58.5,0,0,0,5.9-25.21C241,73.81,195.88,40,140.47,40S40,73.81,40,115.35c0,12.83,4.14,25,12.3,36.15h0L40,200.76l36.44-27.33h0c10.8,6.71,23.44,11.35,36.81,14.18a61.44,61.44,0,0,1,6.76-14c-13-2.32-25.31-6.61-35.63-13l-8.75-5.42-10.73,8,3.72-14.92-4.16-5.71c-6.24-8.53-9.4-17.7-9.4-27.26,0-33.24,38.31-60.28,85.4-60.28s85.42,27,85.42,60.28a44.86,44.86,0,0,1-5.81,21.38,105.49,105.49,0,0,1,15,3.83" transform="translate(-40 -40)"/></g></svg>