<?xml version="1.0" encoding="utf-8"?>
<!-- Generator: Adobe Illustrator 18.0.0, SVG Export Plug-In . SVG Version: 6.00 Build 0)  -->
<!DOCTYPE svg PUBLIC "-//W3C//DTD SVG 1.1//EN" "http://www.w3.org/Graphics/SVG/1.1/DTD/svg11.dtd">
<svg version="1.1" id="Layer_1" xmlns="http://www.w3.org/2000/svg" xmlns:xlink="http://www.w3.org/1999/xlink" x="0px" y="0px"
	 viewBox="0 0 32 32" enable-background="new 0 0 32 32" xml:space="preserve">
<g>
	<path fill="#52658A" d="M21.9,23.5c-0.3,0-0.7-0.1-0.9-0.4c-0.5-0.5-0.4-1.3,0.1-1.8c0.1-0.1,2.4-2.3,2.4-7.2
		c0-4.8-2.3-7.1-2.4-7.2c-0.5-0.5-0.5-1.3-0.1-1.8c0.5-0.5,1.2-0.5,1.8-0.1c0.1,0.1,3.2,3,3.2,9c0,6-3.1,8.9-3.2,9
		C22.5,23.4,22.2,23.5,21.9,23.5z"/>
	<path fill="#52658A" d="M25.9,27.4c-0.4,0-0.7-0.1-1-0.4c-0.4-0.5-0.4-1.3,0.1-1.8c0.2-0.1,4-3.6,4-11c0-7.5-4-11-4-11
		C24.6,2.8,24.5,2,25,1.4c0.4-0.5,1.2-0.6,1.8-0.1c0.2,0.2,4.9,4.3,4.9,12.9c0,8.6-4.7,12.7-4.9,12.9C26.5,27.3,26.2,27.4,25.9,27.4
		z"/>
	<path fill="#52658A" d="M10.1,23.5c-0.3,0-0.6-0.1-0.8-0.3c-0.1-0.1-3.2-3-3.2-9c0-6,3.1-8.9,3.2-9c0.5-0.5,1.3-0.4,1.8,0.1
		C11.5,5.8,11.5,6.6,11,7c-0.1,0.1-2.4,2.4-2.4,7.2c0,4.8,2.3,7.1,2.4,7.2c0.5,0.5,0.5,1.3,0.1,1.8C10.8,23.4,10.5,23.5,10.1,23.5z"
		/>
	<path fill="#52658A" d="M6.1,27.4c-0.3,0-0.6-0.1-0.8-0.3c-0.2-0.2-4.9-4.3-4.9-12.9c0-8.6,4.7-12.7,4.9-12.9
		C5.8,0.9,6.6,0.9,7,1.4C7.5,2,7.4,2.7,6.9,3.2c-0.2,0.2-4,3.6-4,11c0,7.4,3.9,10.9,4,11C7.4,25.6,7.5,26.4,7,27
		C6.8,27.2,6.4,27.4,6.1,27.4z"/>
</g>
<path fill="#F98128" d="M18.9,11.2c-1.6-1.6-4.2-1.6-5.8,0c-1.6,1.6-1.6,4.2,0,5.8c0.5,0.5,1.2,0.9,1.9,1.1
	C14.1,24.3,13.2,32,13.2,32h5.6c0,0-0.9-7.7-1.8-13.9c0.7-0.2,1.3-0.5,1.9-1.1C20.5,15.4,20.5,12.8,18.9,11.2"/>
</svg>
