<svg id="Layer_1" data-name="Layer 1" xmlns="http://www.w3.org/2000/svg" xmlns:xlink="http://www.w3.org/1999/xlink" viewBox="0 0 180 285"><defs><style>.cls-1{fill:none;}.cls-2{clip-path:url(#clip-path);}.cls-3{fill:#52658b;}</style><clipPath id="clip-path" transform="translate(-70 -20)"><rect class="cls-1" x="70" y="20" width="180" height="285"/></clipPath></defs><g class="cls-2"><path class="cls-3" d="M250,245V25a5,5,0,0,0-5-5H125a13.85,13.85,0,0,0-8.54,3.54L73.54,66.47A13.8,13.8,0,0,0,70,75V245a5,5,0,0,0,5,5h50V235H85V90h55V35h95V235H195v15h50a5,5,0,0,0,5-5" transform="translate(-70 -20)"/></g><polygon class="cls-3" points="70 185 70 245 40 245 90 285 140 245 110 245 110 185 70 185"/></svg>