<?xml version="1.0" encoding="utf-8"?>
<!-- Generator: Adobe Illustrator 26.4.1, SVG Export Plug-In . SVG Version: 6.00 Build 0)  -->
<svg version="1.1" id="Layer_1" xmlns="http://www.w3.org/2000/svg" xmlns:xlink="http://www.w3.org/1999/xlink" x="0px" y="0px"
	 viewBox="0 0 320 320" style="enable-background:new 0 0 320 320;" xml:space="preserve">
<style type="text/css">
	.st0{fill:#4C6586;}
	.st1{clip-path:url(#SVGID_00000168838547006404264630000007139980609788631459_);fill:#4C6586;}
	.st2{clip-path:url(#SVGID_00000018199671716996128370000001582557983638775173_);fill:#4C6586;}
	.st3{clip-path:url(#SVGID_00000128467276129850190760000016927980276112203172_);fill:#4C6586;}
	.st4{fill:none;}
</style>
<rect x="182.1" y="90.8" transform="matrix(0.2079 -0.9781 0.9781 0.2079 87.3982 329.4638)" class="st0" width="130" height="40"/>
<g>
	<g>
		<defs>
			<rect id="SVGID_1_" x="39.8" y="43" width="240.3" height="234"/>
		</defs>
		<clipPath id="SVGID_00000008835961322963563430000012014810812012768438_">
			<use xlink:href="#SVGID_1_"  style="overflow:visible;"/>
		</clipPath>
		<path style="clip-path:url(#SVGID_00000008835961322963563430000012014810812012768438_);fill:#4C6586;" d="M241.3,186.2
			l-17.1-3.6L212,180l3.2,16.1l4.7,23.9c1.1,5.4,4.5,6.2,7.7,1.6l17.7-25.1l0,0l5.8-8.2L241.3,186.2L241.3,186.2z"/>
	</g>
	<g>
		<defs>
			<rect id="SVGID_00000119093528833550961630000003018712584237151135_" x="39.8" y="43" width="240.3" height="234"/>
		</defs>
		<clipPath id="SVGID_00000133503418376294145220000004180539488653793438_">
			<use xlink:href="#SVGID_00000119093528833550961630000003018712584237151135_"  style="overflow:visible;"/>
		</clipPath>
		<path style="clip-path:url(#SVGID_00000133503418376294145220000004180539488653793438_);fill:#4C6586;" d="M186.1,193.7
			c-4,0-7.3-3.2-7.5-7.2c-0.2-5.3-2.5-20.5-9.8-27.3c-4.6-4.3-18.9-7.4-27.5-9.3c-10.9-2.4-15.5-3.4-16.8-9c-0.7-3,0.4-6.1,2.9-8
			c12.7-10.2,15.4-25.1,15.4-35.8c0-22.5-18.6-31.9-28.6-31.9c-17.9,0-27.2,9.5-28.6,29.1c-1.3,17.7,7.7,25,14.2,30.3
			c3.9,3.2,7.9,6.5,7.9,11.8c0,13-16.8,17.8-33.9,21.6c-15.6,3.5-18.9,28.8-18.9,29c-0.5,4.1-4.2,7-8.3,6.5s-7-4.2-6.6-8.3
			c0.2-1.5,4.5-36.1,30.6-41.9c12.5-2.8,18.1-5.1,20.6-6.5c-0.3-0.2-0.5-0.4-0.8-0.6c-7.5-6.1-21.4-17.6-19.6-43
			c1.9-27.4,17.8-43.1,43.6-43.1c18.3,0,43.6,16.3,43.6,46.9c0,15.1-4.1,28.2-12.1,38.4c14.2,3.2,26.5,6.4,33.3,12.7
			c13.1,12.2,14.4,35.1,14.5,37.7c0.2,4.1-3,7.6-7.2,7.8C186.3,193.7,186.2,193.7,186.1,193.7"/>
	</g>
	<g>
		<defs>
			<rect id="SVGID_00000074403459780279646770000005519086345671164325_" x="39.8" y="43" width="240.3" height="234"/>
		</defs>
		<clipPath id="SVGID_00000171698578941491286060000006742913617701326513_">
			<use xlink:href="#SVGID_00000074403459780279646770000005519086345671164325_"  style="overflow:visible;"/>
		</clipPath>
		<path style="clip-path:url(#SVGID_00000171698578941491286060000006742913617701326513_);fill:#4C6586;" d="M117.3,277
			c-1.8,0-3.5-0.6-5-1.9c-3.1-2.7-3.4-7.5-0.7-10.6c5.4-6.1,39.3-31.4,64.5-32c8.3-0.2,15,2.2,19.9,7.2c6.5,6.7,11.2,9.8,14.3,9.6
			c3.3-0.3,8.2-4.2,14.2-9.3c3.2-2.7,7.9-2.3,10.6,0.8c2.7,3.2,2.3,7.9-0.8,10.6c-8.6,7.4-14.9,12.2-22.8,12.8
			c-10.2,0.8-18.6-6.3-26.2-14c-1.9-1.9-4.7-2.8-8.8-2.7c-18.8,0.5-49,21.7-53.6,26.9C121.5,276.1,119.4,277,117.3,277"/>
	</g>
</g>
<rect class="st4" width="320" height="320"/>
</svg>
