<?xml version="1.0" encoding="utf-8"?>
<!-- Generator: Adobe Illustrator 26.3.1, SVG Export Plug-In . SVG Version: 6.00 Build 0)  -->
<svg version="1.1" id="Layer_1" xmlns="http://www.w3.org/2000/svg" xmlns:xlink="http://www.w3.org/1999/xlink" x="0px" y="0px"
	 width="32px" height="32px" viewBox="0 0 32 32" style="enable-background:new 0 0 32 32;" xml:space="preserve">
<style type="text/css">
	.st0{clip-path:url(#SVGID_00000081619022601464499180000012618821177217855637_);fill:#526586;}
</style>
<g>
	<g>
		<defs>
			<path id="SVGID_1_" d="M17.3,2.1c-1.5,0.9-2.1,2.7-1.6,4.2L6,12.4H2.6c0,0-0.6,0-0.6,0.6v6c0,0,0,0.6,0.6,0.6h3.3l9.7,6.1
				c-0.5,1.6,0.1,3.3,1.6,4.2c1.8,1.1,4.1,0.6,5.2-1.2c1.1-1.8,0.6-4.1-1.2-5.2c-1.5-0.9-3.3-0.7-4.5,0.4l-7-4.4h3.7
				c0,0,0.6,0,0.6-0.6v-2h8.4c0.4,1.6,1.9,2.8,3.6,2.8c2,0,3.7-1.6,3.7-3.7v-0.2c0-2-1.7-3.7-3.7-3.7c-1.7,0-3.2,1.2-3.6,2.7H14v-2
				c0,0,0-0.6-0.6-0.6H9.7l7-4.4c1.2,1.1,3,1.3,4.5,0.4C23,7.3,23.5,5,22.4,3.3c-0.7-1.1-1.9-1.8-3.2-1.8
				C18.6,1.5,17.9,1.7,17.3,2.1"/>
		</defs>
		<clipPath id="SVGID_00000140737098617465978990000006574107550771552675_">
			<use xlink:href="#SVGID_1_"  style="overflow:visible;"/>
		</clipPath>
		<polygon style="clip-path:url(#SVGID_00000140737098617465978990000006574107550771552675_);fill:#526586;" points="-11.5,22.3 
			21.5,43.7 43.2,10.3 10.2,-11.2 		"/>
	</g>
</g>
</svg>
