<?xml version="1.0" encoding="utf-8"?>
<!-- Generator: Adobe Illustrator 26.3.1, SVG Export Plug-In . SVG Version: 6.00 Build 0)  -->
<svg version="1.1" id="Layer_1" xmlns="http://www.w3.org/2000/svg" xmlns:xlink="http://www.w3.org/1999/xlink" x="0px" y="0px"
	 viewBox="0 0 320 320" style="enable-background:new 0 0 320 320;" xml:space="preserve">
<style type="text/css">
	.st0{clip-path:url(#SVGID_00000018953291148502777830000002824084892223260568_);fill:#52658B;}
	.st1{fill:#52658B;}
	.st2{clip-path:url(#SVGID_00000183248303691830769410000011506302946178660789_);fill:#52658B;}
	.st3{fill:none;}
</style>
<g>
	<defs>
		<rect id="SVGID_1_" x="30" y="35" width="255" height="240"/>
	</defs>
	<clipPath id="SVGID_00000096749904708322066440000002236597962899040918_">
		<use xlink:href="#SVGID_1_"  style="overflow:visible;"/>
	</clipPath>
	<path style="clip-path:url(#SVGID_00000096749904708322066440000002236597962899040918_);fill:#52658B;" d="M183.8,45H100H89.8H85
		c-2.8,0-6.6,1.6-8.5,3.5L33.5,91.5c-2,2-3.5,5.8-3.5,8.5v7.7v7.3v155c0,2.8,2.2,5,5,5h170c2.8,0,5-2.2,5-5V145
		c-5.4-2.3-10.4-5.2-15-8.8V260H45V115h55V60h75C177.2,54.6,180.2,49.6,183.8,45"/>
</g>
<rect x="71.5" y="140" class="st1" width="90" height="15"/>
<rect x="71.5" y="170" class="st1" width="70" height="15"/>
<rect x="71.5" y="200" class="st1" width="90" height="15"/>
<g>
	<defs>
		<rect id="SVGID_00000082368646647765497490000000422361799096794013_" x="30" y="35" width="255" height="240"/>
	</defs>
	<clipPath id="SVGID_00000023986201250255433890000016526393118818321818_">
		<use xlink:href="#SVGID_00000082368646647765497490000000422361799096794013_"  style="overflow:visible;"/>
	</clipPath>
	<path style="clip-path:url(#SVGID_00000023986201250255433890000016526393118818321818_);fill:#52658B;" d="M238.3,149.9L227,221.2
		l39.5,6.3l15.4-97.5C270.8,141.5,255.4,149.1,238.3,149.9"/>
	<path style="clip-path:url(#SVGID_00000023986201250255433890000016526393118818321818_);fill:#52658B;" d="M271.1,80.7
		c0,10.7-21.4,32.1-21.4,21.4c0-21.4-21.4-21.4-21.4-32.1c0-10.7,10.7,0,21.4-10.7C257.3,51.8,271.1,70,271.1,80.7 M220.5,84.4
		c-0.9,11.2-0.4,13-3.9,19c-6.1,10.6-6.6,8.9-8.4,2.2c-2.2-8.4-11.3-19.8-6.7-25.1C206.1,75.3,221.3,74.6,220.5,84.4 M285,85
		c0-27.6-22.4-50-50-50c-27.6,0-50,22.4-50,50c0,27.6,22.4,50,50,50C262.6,135,285,112.6,285,85"/>
	<path style="clip-path:url(#SVGID_00000023986201250255433890000016526393118818321818_);fill:#52658B;" d="M255,235.8l-17.3-2.7
		l-12.3-2l4,15.9h0l6,23.6c1.4,5.4,4.8,5.9,7.8,1.2l16.4-26c0,0,0,0,0,0l5.3-8.5L255,235.8L255,235.8z"/>
</g>
<rect class="st3" width="320" height="320"/>
</svg>
