<?xml version="1.0" encoding="utf-8"?>
<!-- Generator: Adobe Illustrator 26.2.1, SVG Export Plug-In . SVG Version: 6.00 Build 0)  -->
<svg version="1.1" id="Layer_1" xmlns="http://www.w3.org/2000/svg" xmlns:xlink="http://www.w3.org/1999/xlink" x="0px" y="0px"
	 viewBox="0 0 320 320" style="enable-background:new 0 0 320 320;" xml:space="preserve">
<style type="text/css">
	.st0{clip-path:url(#SVGID_00000175288207407269641310000014353131759840362422_);fill:#52658B;}
</style>
<g>
	<defs>
		<rect id="SVGID_1_" width="320" height="320"/>
	</defs>
	<clipPath id="SVGID_00000150077685416034068520000009200804370801183155_">
		<use xlink:href="#SVGID_1_"  style="overflow:visible;"/>
	</clipPath>
	<path style="clip-path:url(#SVGID_00000150077685416034068520000009200804370801183155_);fill:#52658B;" d="M200.1,232.8l-12-20.8
		c-2.4,28.7-26.3,51.2-55.6,51.2c-30.8,0-55.8-25-55.8-55.8c0-14.5,5.9-27.4,15-37.2v-22.2c-19,13-31.7,34.6-31.7,59.4
		c0,40.1,32.5,72.6,72.6,72.6C163.6,280,189.8,260.3,200.1,232.8"/>
	<path style="clip-path:url(#SVGID_00000150077685416034068520000009200804370801183155_);fill:#52658B;" d="M124.7,84.7
		c12.3,0,22.3-10,22.3-22.3c0-12.3-10-22.3-22.3-22.3c-12.3,0-22.3,10-22.3,22.3C102.4,74.7,112.4,84.7,124.7,84.7"/>
	<path style="clip-path:url(#SVGID_00000150077685416034068520000009200804370801183155_);fill:#52658B;" d="M258.6,222.1
		c-2.6-4.4-7.9-6.1-11.9-3.8l-11.5,6.6l-35.4-61.3c-1.5-2.8-5.1-3-8.2-3h-44.6v-11.7h29c4.6,0,8.4-3.8,8.4-8.4
		c0-4.6-3.7-8.4-8.4-8.4h-29v-17.7c0-12.3-10-22.3-22.3-22.3c-12.3,0-22.3,10-22.3,22.3v57.7c0,12.3,10,22.3,22.3,22.3h67l33.5,57.7
		h0l30.8-17.8C260,232,261.2,226.5,258.6,222.1"/>
</g>
</svg>
