<?xml version="1.0" encoding="utf-8"?>
<!-- Generator: Adobe Illustrator 22.0.1, SVG Export Plug-In . SVG Version: 6.00 Build 0)  -->
<svg version="1.1" id="Layer_1" xmlns="http://www.w3.org/2000/svg" xmlns:xlink="http://www.w3.org/1999/xlink" x="0px" y="0px"
	 width="32px" height="32px" viewBox="0 0 32 32" enable-background="new 0 0 32 32" xml:space="preserve">
<g>
	<defs>
		<path id="SVGID_1_" d="M5.5,5.9c0,0-0.5,0-0.5,0.5v13c0,0,0,0.5,0.5,0.5h21c0,0,0.5,0,0.5-0.5v-13c0,0,0-0.5-0.5-0.5H5.5z"/>
	</defs>
	<clipPath id="SVGID_2_">
		<use xlink:href="#SVGID_1_"  overflow="visible"/>
	</clipPath>
	
		<linearGradient id="SVGID_3_" gradientUnits="userSpaceOnUse" x1="-147.7955" y1="193.7182" x2="-146.7955" y2="193.7182" gradientTransform="matrix(25.1429 0 0 -25.1429 3719.4285 4883.5425)">
		<stop  offset="0" style="stop-color:#4C6585"/>
		<stop  offset="1.983430e-02" style="stop-color:#4C6585"/>
		<stop  offset="1" style="stop-color:#5A789F"/>
	</linearGradient>
	<rect x="5" y="5.9" clip-path="url(#SVGID_2_)" fill="url(#SVGID_3_)" width="22" height="14"/>
</g>
<g>
	<defs>
		<polygon id="SVGID_4_" points="6.3,21.1 2,26.1 30,26.1 25.7,21.1 		"/>
	</defs>
	<clipPath id="SVGID_5_">
		<use xlink:href="#SVGID_4_"  overflow="visible"/>
	</clipPath>
	
		<linearGradient id="SVGID_6_" gradientUnits="userSpaceOnUse" x1="-147.9643" y1="193.3226" x2="-146.9643" y2="193.3226" gradientTransform="matrix(25.8462 0 0 -25.8462 3827.3845 5020.2305)">
		<stop  offset="0" style="stop-color:#4C6585"/>
		<stop  offset="1.983430e-02" style="stop-color:#4C6585"/>
		<stop  offset="1" style="stop-color:#5A789F"/>
	</linearGradient>
	<rect x="2" y="21.1" clip-path="url(#SVGID_5_)" fill="url(#SVGID_6_)" width="28" height="5"/>
</g>
<rect x="6.5" y="7.4" fill="#FFFFFF" width="19" height="11"/>
<g>
	<defs>
		<rect id="SVGID_7_" x="17" y="9" width="7" height="1.5"/>
	</defs>
	<clipPath id="SVGID_8_">
		<use xlink:href="#SVGID_7_"  overflow="visible"/>
	</clipPath>
	
		<linearGradient id="SVGID_9_" gradientUnits="userSpaceOnUse" x1="-131.7143" y1="210.0948" x2="-130.7143" y2="210.0948" gradientTransform="matrix(7 0 0 -7 939 1480.4138)">
		<stop  offset="0" style="stop-color:#4C6585"/>
		<stop  offset="1.983430e-02" style="stop-color:#4C6585"/>
		<stop  offset="1" style="stop-color:#5A789F"/>
	</linearGradient>
	<rect x="17" y="9" clip-path="url(#SVGID_8_)" fill="url(#SVGID_9_)" width="7" height="1.5"/>
</g>
<g>
	<defs>
		<rect id="SVGID_10_" x="17" y="12" width="7" height="1.5"/>
	</defs>
	<clipPath id="SVGID_11_">
		<use xlink:href="#SVGID_10_"  overflow="visible"/>
	</clipPath>
	
		<linearGradient id="SVGID_12_" gradientUnits="userSpaceOnUse" x1="-131.7143" y1="210.0948" x2="-130.7143" y2="210.0948" gradientTransform="matrix(7 0 0 -7 939 1483.4138)">
		<stop  offset="0" style="stop-color:#4C6585"/>
		<stop  offset="1.983430e-02" style="stop-color:#4C6585"/>
		<stop  offset="1" style="stop-color:#5A789F"/>
	</linearGradient>
	<rect x="17" y="12" clip-path="url(#SVGID_11_)" fill="url(#SVGID_12_)" width="7" height="1.5"/>
</g>
<g>
	<defs>
		<rect id="SVGID_13_" x="17" y="15" width="7" height="1.5"/>
	</defs>
	<clipPath id="SVGID_14_">
		<use xlink:href="#SVGID_13_"  overflow="visible"/>
	</clipPath>
	
		<linearGradient id="SVGID_15_" gradientUnits="userSpaceOnUse" x1="-131.7143" y1="210.0948" x2="-130.7143" y2="210.0948" gradientTransform="matrix(7 0 0 -7 939 1486.4138)">
		<stop  offset="0" style="stop-color:#4C6585"/>
		<stop  offset="1.983430e-02" style="stop-color:#4C6585"/>
		<stop  offset="1" style="stop-color:#5A789F"/>
	</linearGradient>
	<rect x="17" y="15" clip-path="url(#SVGID_14_)" fill="url(#SVGID_15_)" width="7" height="1.5"/>
</g>
<g>
	<defs>
		<polygon id="SVGID_16_" points="16,16.5 16,10.5 14.8,9.7 12.7,13 10.8,11.8 8,15.9 8,16.5 		"/>
	</defs>
	<clipPath id="SVGID_17_">
		<use xlink:href="#SVGID_16_"  overflow="visible"/>
	</clipPath>
	
		<linearGradient id="SVGID_18_" gradientUnits="userSpaceOnUse" x1="-134.5" y1="207.539" x2="-133.5" y2="207.539" gradientTransform="matrix(8 0 0 -8 1084 1673.4136)">
		<stop  offset="0" style="stop-color:#4B813C"/>
		<stop  offset="1.983430e-02" style="stop-color:#4B813C"/>
		<stop  offset="1" style="stop-color:#6E9F3C"/>
	</linearGradient>
	<rect x="8" y="9.7" clip-path="url(#SVGID_17_)" fill="url(#SVGID_18_)" width="8" height="6.8"/>
</g>
</svg>
