<?xml version="1.0" encoding="utf-8"?>
<!-- Generator: Adobe Illustrator 26.3.1, SVG Export Plug-In . SVG Version: 6.00 Build 0)  -->
<svg version="1.1" id="Layer_1" xmlns="http://www.w3.org/2000/svg" xmlns:xlink="http://www.w3.org/1999/xlink" x="0px" y="0px"
	 viewBox="0 0 320 320" style="enable-background:new 0 0 320 320;" xml:space="preserve">
<style type="text/css">
	.st0{clip-path:url(#SVGID_00000065760174496347484460000013157694021139426692_);fill:#52668C;}
	.st1{fill:none;}
</style>
<g>
	<defs>
		<rect id="SVGID_1_" x="58.6" y="43.5" width="202.9" height="233"/>
	</defs>
	<clipPath id="SVGID_00000113324368868522667910000002058646007700545945_">
		<use xlink:href="#SVGID_1_"  style="overflow:visible;"/>
	</clipPath>
	<path style="clip-path:url(#SVGID_00000113324368868522667910000002058646007700545945_);fill:#52668C;" d="M199.4,120.2
		c0-20.7-16.8-37.5-37.5-37.5c-20.7,0-37.5,16.8-37.5,37.5c0,20.7,16.8,37.5,37.5,37.5C182.6,157.7,199.4,140.9,199.4,120.2
		 M214.4,120.2c0,29-23.5,52.5-52.5,52.5c-29,0-52.5-23.5-52.5-52.5c0-29,23.5-52.5,52.5-52.5C190.9,67.7,214.4,91.2,214.4,120.2
		 M109,177.2c6.1,5.4,16.6,13.2,28.8,16.3l-23.5,50.4l-10-17.5L84.4,230L109,177.2z M179.8,188.3c11.1-1.4,16,0,24.7-4
		c3.8-1.8,5.7-3,7.6-4.8l23.5,50.5l-19.9-3.6l-10,17.5L179.8,188.3z M225.8,112.3c0.2-3.1,3.2-11.3,2.9-16.7
		c-0.3-5.4-1.6-11.2-5.7-18.8c-4.2-7.6-13.3-23.6-28.4-29c-23-8.2-25.4-2.3-33-0.8c-7.5,1.6-25.4-1-38.6,12.6
		c-9.4,9.7-21.9,8.1-29.3,26.7c-3.9,10-5.7,19.8-3.9,29s2.5,11.6,1.3,20.6c-1.2,9-1.5,13.6,2.8,23.4c1.1,2.6,2.4,4.7,3.8,6.6
		l-39.2,84l37.9-6.9l19.1,33.5l38.4-82.3c1.5-0.3,3-0.6,4.6-1.1c2.2-0.7,4.2-1.2,6.1-1.8l39.7,85.1l19.1-33.5l37.9,6.9l-38.6-82.7
		c4.2-6.7,5.8-13.6,7.6-22.3C233,132.7,225.6,115.3,225.8,112.3"/>
</g>
<rect class="st1" width="320" height="320"/>
</svg>
