<?xml version="1.0" encoding="utf-8"?>
<!-- Generator: Adobe Illustrator 26.5.0, SVG Export Plug-In . SVG Version: 6.00 Build 0)  -->
<svg version="1.1" id="Layer_1" xmlns="http://www.w3.org/2000/svg" xmlns:xlink="http://www.w3.org/1999/xlink" x="0px" y="0px"
	 viewBox="0 0 320 320" style="enable-background:new 0 0 320 320;" xml:space="preserve">
<style type="text/css">
	.st0{clip-path:url(#SVGID_00000124856461931049881900000002534100219163093145_);fill:#4C6586;}
</style>
<g>
	<g>
		<defs>
			<rect id="SVGID_1_" width="320" height="320"/>
		</defs>
		<clipPath id="SVGID_00000171694414354785211780000008241155930054355635_">
			<use xlink:href="#SVGID_1_"  style="overflow:visible;"/>
		</clipPath>
		<path style="clip-path:url(#SVGID_00000171694414354785211780000008241155930054355635_);fill:#4C6586;" d="M200,190.4l-50.6-20
			v10.5l39,14.8l-39,14.7v10.5L200,201V190.4z M119.8,203.5c0.6,0.9,0.9,1.9,0.9,3.1c0,1.7-0.4,3.2-1.1,4.3s-1.7,2.1-2.9,2.8
			c-1.2,0.7-2.5,1.2-4,1.5s-3,0.4-4.5,0.4c-3,0-6-0.3-9-0.9s-5.8-1.6-8.3-3l-0.6,11.1c5.4,1.8,11.1,2.8,16.9,2.8v9.4h8.1v-9.8
			c2.6-0.4,5-1.1,7.3-2s4.3-2.2,6.1-3.7c1.7-1.6,3.1-3.5,4.1-5.7c1-2.3,1.5-4.9,1.5-7.9c0-2.5-0.4-4.7-1.2-6.6
			c-0.8-1.8-1.8-3.4-3.2-4.8c-1.3-1.4-2.8-2.5-4.5-3.5s-3.4-1.8-5.1-2.6l-7-3c-1-0.5-2.1-1-3.3-1.5c-1.2-0.5-2.2-1.2-3.2-1.9
			s-1.8-1.5-2.4-2.4s-1-1.9-1-3c0-1.6,0.4-2.9,1.3-4c0.8-1,1.9-1.8,3.2-2.4c1.3-0.6,2.6-1,4.1-1.2s2.9-0.3,4.3-0.3
			c2.6,0,5.1,0.2,7.5,0.7s4.6,1.2,6.5,2.1l0.6-10.7c-4.3-1.2-9.2-1.9-14.5-2v-9.4h-8.1v9.9c-2.5,0.4-4.8,1-7,1.8s-4.2,2-5.9,3.4
			c-1.7,1.5-3.1,3.2-4.1,5.3s-1.5,4.6-1.5,7.4c0,2.2,0.4,4.1,1.1,5.8s1.6,3.2,2.8,4.5c1.2,1.3,2.5,2.4,4,3.4s3.1,1.8,4.7,2.6l6.6,3
			c1.6,0.7,3,1.4,4.4,2.1c1.4,0.7,2.6,1.4,3.7,2.2C118.4,201.7,119.2,202.6,119.8,203.5 M255,255H65V65h190V255z M270,260V60
			c0-5.5-4.5-10-10-10H60c-5.5,0-10,4.5-10,10v200c0,5.5,4.5,10,10,10h200C265.5,270,270,265.5,270,260"/>
	</g>
</g>
</svg>
