<svg id="Layer_1" data-name="Layer 1" xmlns="http://www.w3.org/2000/svg" xmlns:xlink="http://www.w3.org/1999/xlink" viewBox="0 0 244.23 229.11"><defs><style>.cls-1{fill:none;}.cls-2{clip-path:url(#clip-path);}.cls-3{fill:#52668c;}</style><clipPath id="clip-path" transform="translate(-37.89 -45.45)"><rect class="cls-1" x="37.89" y="45.44" width="244.23" height="229.11"/></clipPath></defs><g class="cls-2"><path class="cls-3" d="M40,259.56v10a5,5,0,0,0,5,5H275a5,5,0,0,0,5-5v-10a5,5,0,0,0-5-5H45a5,5,0,0,0-5,5M253,114.61H67L155.3,61.5a10.87,10.87,0,0,1,9.4,0Zm-138.21,105c0-.31.22-.47.22-.83V129.61h25v89.12a7,7,0,0,0,.09.83Zm65,0c0-.31.22-.47.22-.83V129.61h25v89.12a7,7,0,0,0,.09.83Zm95.52-109L172.43,48.64c-7.09-4.26-17.77-4.26-24.86,0L44.71,110.53c-7.35,4.41-7.22,9.46-6.5,12.08s3.22,7,11.79,7H75v89.12a7,7,0,0,0,.09.83H60c-5,0-5,5-5,5v10c0,5,5,5,5,5H260c5,0,5-5,5-5v-10c0-5-5-5-5-5H244.78c0-.31.22-.47.22-.83V129.61h25c8.57,0,11.06-4.39,11.79-7s.85-7.67-6.49-12.08" transform="translate(-37.89 -45.45)"/></g></svg>