<svg id="cat-pg" xmlns="http://www.w3.org/2000/svg" width="32" height="32" viewBox="0 0 32 32"><defs><style>.cls-1{fill:none;stroke:#000;stroke-linejoin:round;stroke-width:1.45px;}</style></defs><circle class="cls-1" cx="22.3" cy="21.5" r="6"/><polyline class="cls-1" points="22.2 17.6 22.2 21.6 26.2 23.6"/><path class="cls-1" d="M23.7,12.8V7.9a3.5,3.5,0,0,0-1-2.4h0a3.1,3.1,0,0,0-2.4-1H7.1a3.1,3.1,0,0,0-2.4,1h0a3.5,3.5,0,0,0-1,2.4v8.7a3,3,0,0,0,.5,1.6h0a2.8,2.8,0,0,0,2.4,1.3h.1v5l4.2-5h2.3"/><line class="cls-1" x1="6.7" y1="8" x2="20.7" y2="8"/><line class="cls-1" x1="6.7" y1="11" x2="20.7" y2="11"/><line class="cls-1" x1="6.7" y1="14" x2="12.2" y2="14"/></svg>