<?xml version="1.0" encoding="utf-8"?>
<!-- Generator: Adobe Illustrator 26.5.0, SVG Export Plug-In . SVG Version: 6.00 Build 0)  -->
<svg version="1.1" id="Layer_1" xmlns="http://www.w3.org/2000/svg" xmlns:xlink="http://www.w3.org/1999/xlink" x="0px" y="0px"
	 viewBox="0 0 320 320" style="enable-background:new 0 0 320 320;" xml:space="preserve">
<style type="text/css">
	.st0{clip-path:url(#SVGID_00000055670859448197252110000007459631479257772416_);fill:#4C6586;}
</style>
<g>
	<g>
		<defs>
			<rect id="SVGID_1_" width="320" height="320"/>
		</defs>
		<clipPath id="SVGID_00000101814198050118690890000013118945409210463633_">
			<use xlink:href="#SVGID_1_"  style="overflow:visible;"/>
		</clipPath>
		<path style="clip-path:url(#SVGID_00000101814198050118690890000013118945409210463633_);fill:#4C6586;" d="M171.1,158.9
			c15.9,2.6,18.5,3.3,18.5,3.3c-2.2-6-5.4-12.1-10.4-16.7c-6.8-6.3-19.1-9.6-33.3-12.7c7.9-10.2,12.1-23.3,12.1-38.4
			c0-30.6-25.3-46.9-43.6-46.9c-25.7,0-41.6,15.7-43.6,43.1c-1.8,25.4,12.1,36.9,19.6,43c0.2,0.2,0.5,0.4,0.8,0.6
			c-2.5,1.4-8.1,3.7-20.6,6.5c-26,5.8-30.4,40.5-30.6,41.9c-0.5,4.1,2.5,7.8,6.6,8.3s7.8-2.4,8.3-6.5c0-0.3,3.3-25.6,18.9-29
			c17.2-3.8,33.9-8.6,33.9-21.6c0-5.3-4-8.6-7.9-11.8c-6.5-5.3-15.4-12.7-14.2-30.3c1.4-19.6,10.8-29.1,28.6-29.1
			c10,0,28.6,9.4,28.6,31.9c0,10.7-2.7,25.6-15.4,35.8c-2.5,2-3.6,5-2.9,8c1.3,5.6,5.8,6.6,16.8,9c8.6,1.9,22.9,5,27.5,9.3
			C169.7,157.2,170.4,158,171.1,158.9 M245,212.2c0,12.4-10.1,22.5-22.5,22.5S200,224.6,200,212.2s10.1-22.5,22.5-22.5
			C235,189.7,245,199.8,245,212.2 M279.7,190l-8.6-14.9c-0.6-1-2-1.6-3.1-1.2l-14.4,4.7c-1.1,0.4-2.9,0.1-3.8-0.5l-9.5-5.5
			c-1.1-0.5-2.2-1.9-2.4-3.1l-3.2-14.9c-0.2-1.2-1.4-2.1-2.6-2.1h-17.2c-1.2,0-2.3,1-2.6,2.1l-3.2,14.9c-0.2,1.2-1.3,2.5-2.4,3.1
			l-9.5,5.5c-1,0.7-2.7,0.9-3.8,0.5l-14.4-4.7c-1.1-0.4-2.5,0.1-3.1,1.2l-8.6,14.9c-0.6,1-0.3,2.5,0.5,3.3l11.3,10.2
			c0.9,0.8,1.6,2.4,1.4,3.6v11c0.1,1.2-0.5,2.8-1.4,3.6l-11.3,10.2c-0.9,0.8-1.1,2.3-0.5,3.3l8.6,14.9c0.6,1,2,1.6,3.1,1.2l14.4-4.7
			c1.1-0.4,2.9-0.1,3.8,0.5l9.5,5.5c1.1,0.5,2.2,1.9,2.4,3.1l3.2,14.9c0.2,1.2,1.4,2.1,2.6,2.1h17.2c1.2,0,2.3-1,2.6-2.1l3.2-14.9
			c0.2-1.2,1.3-2.5,2.4-3.1l9.5-5.5c1-0.7,2.7-0.9,3.8-0.5l14.4,4.7c1.1,0.4,2.5-0.1,3.1-1.2l8.6-14.9c0.6-1,0.3-2.5-0.5-3.3
			l-11.3-10.2c-0.9-0.8-1.6-2.4-1.4-3.6v-11c-0.1-1.2,0.5-2.8,1.5-3.6l11.3-10.2C280,192.5,280.3,191,279.7,190"/>
	</g>
</g>
</svg>
