<?xml version="1.0" encoding="utf-8"?>
<!-- Generator: Adobe Illustrator 26.3.1, SVG Export Plug-In . SVG Version: 6.00 Build 0)  -->
<svg version="1.1" id="Layer_1" xmlns="http://www.w3.org/2000/svg" xmlns:xlink="http://www.w3.org/1999/xlink" x="0px" y="0px"
	 viewBox="0 0 320 320" style="enable-background:new 0 0 320 320;" xml:space="preserve">
<style type="text/css">
	.st0{clip-path:url(#SVGID_00000115495953458708467880000006038874951423537080_);fill:#52658B;}
	.st1{fill:none;}
</style>
<g>
	<defs>
		<rect id="SVGID_1_" x="40" y="52" width="240" height="216"/>
	</defs>
	<clipPath id="SVGID_00000106129269087591409600000000901111989846868364_">
		<use xlink:href="#SVGID_1_"  style="overflow:visible;"/>
	</clipPath>
	<path style="clip-path:url(#SVGID_00000106129269087591409600000000901111989846868364_);fill:#52658B;" d="M92.5,187H55V79h37.5
		V187z M62.5,216.2c0-6.2,5-11.2,11.2-11.2c6.2,0,11.2,5,11.2,11.2s-5,11.2-11.2,11.2C67.5,227.5,62.5,222.5,62.5,216.2
		 M107.5,261.2V58.8c0-3.7-2.5-6.8-5.6-6.8H45.6c-3.1,0-5.6,3-5.6,6.8v202.5c0,3.7,2.5,6.8,5.6,6.8h56.2
		C105,268,107.5,265,107.5,261.2"/>
	<path style="clip-path:url(#SVGID_00000106129269087591409600000000901111989846868364_);fill:#52658B;" d="M265,187h-37.5V79H265
		V187z M235,216.2c0-6.2,5-11.2,11.2-11.2c6.2,0,11.2,5,11.2,11.2s-5,11.2-11.2,11.2C240,227.5,235,222.5,235,216.2 M280,261.2V58.8
		c0-3.7-2.5-6.8-5.6-6.8h-56.2c-3.1,0-5.6,3-5.6,6.8v202.5c0,3.7,2.5,6.8,5.6,6.8h56.2C277.5,268,280,265,280,261.2"/>
	<path style="clip-path:url(#SVGID_00000106129269087591409600000000901111989846868364_);fill:#52658B;" d="M178.8,187h-37.5V79
		h37.5V187z M148.8,216.2c0-6.2,5-11.2,11.2-11.2c6.2,0,11.2,5,11.2,11.2s-5,11.2-11.2,11.2C153.8,227.5,148.8,222.5,148.8,216.2
		 M193.8,261.2V58.8c0-3.7-2.5-6.8-5.6-6.8h-56.2c-3.1,0-5.6,3-5.6,6.8v202.5c0,3.7,2.5,6.8,5.6,6.8h56.2
		C191.2,268,193.8,265,193.8,261.2"/>
</g>
<rect class="st1" width="320" height="320"/>
</svg>
