<?xml version="1.0" encoding="utf-8"?>
<!-- Generator: Adobe Illustrator 26.3.1, SVG Export Plug-In . SVG Version: 6.00 Build 0)  -->
<svg version="1.1" id="Layer_1" xmlns="http://www.w3.org/2000/svg" xmlns:xlink="http://www.w3.org/1999/xlink" x="0px" y="0px"
	 viewBox="0 0 320 320" style="enable-background:new 0 0 320 320;" xml:space="preserve">
<style type="text/css">
	.st0{clip-path:url(#SVGID_00000026150431527900731620000002982085412017453968_);fill:#52668C;}
	.st1{fill:#52658B;}
	.st2{clip-path:url(#SVGID_00000118381599910069012490000003356705714513873553_);fill:#52668C;}
	.st3{clip-path:url(#SVGID_00000127755996838283057960000008336341141567929260_);fill:#52668C;}
	.st4{fill:none;}
</style>
<g>
	<defs>
		<path id="SVGID_1_" d="M146.5,25v114.2c20.9,0.1,38.9,12,46.9,29.1h106.3V25H146.5z"/>
	</defs>
	<clipPath id="SVGID_00000079464714091501290230000015100603717965703310_">
		<use xlink:href="#SVGID_1_"  style="overflow:visible;"/>
	</clipPath>
	<path style="clip-path:url(#SVGID_00000079464714091501290230000015100603717965703310_);fill:#52668C;" d="M292.7,168.5
		c-4,0-7.3-3.2-7.5-7.2c-0.2-5.3-2.5-20.5-9.8-27.3c-4.6-4.2-18.9-7.4-27.5-9.3c-10.9-2.4-15.5-3.4-16.8-9c-0.7-3,0.4-6.1,2.9-8
		c12.7-10.2,15.4-25.1,15.4-35.8c0-22.5-18.6-31.9-28.6-31.9c-17.9,0-27.2,9.5-28.6,29.1c-1.3,17.7,7.7,25,14.2,30.4
		c3.9,3.2,7.9,6.5,7.9,11.8c0,13-16.8,17.8-33.9,21.6c-15.6,3.5-18.9,28.8-18.9,29c-0.5,4.1-4.2,7.1-8.3,6.5c-4.1-0.5-7-4.2-6.6-8.3
		c0.2-1.5,4.5-36.1,30.6-41.9c12.5-2.8,18.1-5.1,20.6-6.5c-0.3-0.2-0.5-0.4-0.8-0.6c-7.5-6.1-21.4-17.6-19.6-43
		c1.9-27.4,17.8-43.1,43.6-43.1c18.3,0,43.6,16.3,43.6,46.9c0,15.1-4.1,28.2-12.1,38.4c14.2,3.2,26.5,6.4,33.3,12.7
		c13.1,12.2,14.4,35.1,14.5,37.7c0.2,4.1-3,7.6-7.2,7.8C292.9,168.5,292.8,168.5,292.7,168.5"/>
</g>
<polygon class="st1" points="95.3,220.6 35.3,220.6 35.3,256.6 95.3,256.6 95.3,288.6 140.3,238.6 95.3,188.6 "/>
<g>
	<defs>
		<path id="SVGID_00000005945831993715907690000008515395550131449496_" d="M28.1,62.1v143.3h134.5c-5.2-7.1-8.2-15.6-8.2-24.9
			c0-17.7,11.1-32.9,26.9-39.7V62.1H28.1z"/>
	</defs>
	<clipPath id="SVGID_00000137110343827004219250000008780084547910511288_">
		<use xlink:href="#SVGID_00000005945831993715907690000008515395550131449496_"  style="overflow:visible;"/>
	</clipPath>
	<path style="clip-path:url(#SVGID_00000137110343827004219250000008780084547910511288_);fill:#52668C;" d="M174.4,205.6
		c-4,0-7.3-3.2-7.5-7.2c-0.2-5.3-2.5-20.5-9.8-27.3c-4.6-4.2-18.9-7.4-27.5-9.3c-10.9-2.4-15.5-3.4-16.8-9c-0.7-3,0.4-6.1,2.9-8
		c12.7-10.2,15.4-25.1,15.4-35.8c0-22.5-18.6-31.9-28.6-31.9c-17.9,0-27.2,9.5-28.6,29.1c-1.3,17.7,7.7,25,14.2,30.3
		c3.9,3.2,7.9,6.5,7.9,11.8c0,13-16.8,17.8-33.9,21.6c-15.6,3.5-18.9,28.8-18.9,29c-0.5,4.1-4.2,7.1-8.3,6.5c-4.1-0.5-7-4.2-6.6-8.3
		c0.2-1.5,4.5-36.1,30.6-41.9c12.5-2.8,18.1-5.1,20.6-6.5c-0.3-0.2-0.5-0.4-0.8-0.6c-7.5-6.1-21.4-17.6-19.6-43
		c1.9-27.4,17.8-43.1,43.6-43.1c18.3,0,43.6,16.3,43.6,46.9c0,15.1-4.1,28.2-12.1,38.4c14.2,3.2,26.5,6.4,33.3,12.7
		c13.1,12.2,14.4,35.1,14.5,37.7c0.2,4.1-3,7.6-7.2,7.8C174.6,205.6,174.5,205.6,174.4,205.6"/>
</g>
<g>
	<defs>
		<rect id="SVGID_00000055667284397085587690000011184200728579266713_" x="136.8" y="143.6" width="153.2" height="143.3"/>
	</defs>
	<clipPath id="SVGID_00000000182839754611652300000005131661322481733540_">
		<use xlink:href="#SVGID_00000055667284397085587690000011184200728579266713_"  style="overflow:visible;"/>
	</clipPath>
	<path style="clip-path:url(#SVGID_00000000182839754611652300000005131661322481733540_);fill:#52668C;" d="M283,287.1
		c-4,0-7.3-3.2-7.5-7.2c-0.2-5.3-2.5-20.5-9.8-27.3c-4.6-4.2-18.9-7.4-27.5-9.3c-10.9-2.4-15.5-3.4-16.8-9c-0.7-3,0.4-6.1,2.9-8
		c12.7-10.2,15.4-25.1,15.4-35.8c0-22.5-18.6-31.9-28.6-31.9c-17.9,0-27.2,9.5-28.6,29.1c-1.3,17.7,7.7,25,14.2,30.3
		c3.9,3.2,7.9,6.5,7.9,11.8c0,13-16.8,17.8-33.9,21.6c-15.6,3.5-18.9,28.8-18.9,29c-0.5,4.1-4.2,7-8.3,6.5c-4.1-0.5-7-4.2-6.6-8.3
		c0.2-1.5,4.5-36.1,30.6-41.9c12.5-2.8,18.1-5.1,20.6-6.5c-0.3-0.2-0.5-0.4-0.8-0.6c-7.5-6.1-21.4-17.6-19.6-43
		c1.9-27.4,17.8-43.1,43.6-43.1c18.3,0,43.6,16.3,43.6,46.9c0,15.1-4.1,28.2-12.1,38.4c14.2,3.2,26.5,6.4,33.3,12.7
		c13.1,12.2,14.4,35.1,14.5,37.7c0.2,4.1-3,7.6-7.2,7.8C283.2,287.1,283.1,287.1,283,287.1"/>
</g>
<rect x="0" class="st4" width="320" height="320"/>
</svg>
