<?xml version="1.0" encoding="utf-8"?>
<!-- Generator: Adobe Illustrator 18.0.0, SVG Export Plug-In . SVG Version: 6.00 Build 0)  -->
<!DOCTYPE svg PUBLIC "-//W3C//DTD SVG 1.1//EN" "http://www.w3.org/Graphics/SVG/1.1/DTD/svg11.dtd">
<svg version="1.1" id="Layer_1" xmlns="http://www.w3.org/2000/svg" xmlns:xlink="http://www.w3.org/1999/xlink" x="0px" y="0px"
	 width="32px" height="32px" viewBox="0 0 32 32" enable-background="new 0 0 32 32" xml:space="preserve">
<g>
	<g>
		<defs>
			<path id="SVGID_1_" d="M16,18.1c-1.4,0-2.6-0.5-3.5-1.1C10.4,18,9,19.6,9,21.6V29h14v-7.4c0-1.9-1.4-3.6-3.5-4.5
				C18.6,17.6,17.4,18.1,16,18.1"/>
		</defs>
		<clipPath id="SVGID_2_">
			<use xlink:href="#SVGID_1_"  overflow="visible"/>
		</clipPath>
		
			<linearGradient id="SVGID_3_" gradientUnits="userSpaceOnUse" x1="-379.1786" y1="471.9268" x2="-378.1786" y2="471.9268" gradientTransform="matrix(14 0 0 -14 5317.5 6630)">
			<stop  offset="0" style="stop-color:#4C6585"/>
			<stop  offset="1.983430e-02" style="stop-color:#4C6585"/>
			<stop  offset="1" style="stop-color:#5A789F"/>
		</linearGradient>
		<rect x="9" y="17" clip-path="url(#SVGID_2_)" fill="url(#SVGID_3_)" width="14" height="12"/>
	</g>
	<g>
		<defs>
			<path id="SVGID_4_" d="M11.2,10.6c0,2.9,2.2,5.2,4.8,5.2s4.8-2.4,4.8-5.2S18.7,5.4,16,5.4S11.2,7.7,11.2,10.6"/>
		</defs>
		<clipPath id="SVGID_5_">
			<use xlink:href="#SVGID_4_"  overflow="visible"/>
		</clipPath>
		
			<linearGradient id="SVGID_6_" gradientUnits="userSpaceOnUse" x1="-365.6234" y1="485.4546" x2="-364.6233" y2="485.4546" gradientTransform="matrix(9.625 0 0 -9.625 3530.3125 4683.125)">
			<stop  offset="0" style="stop-color:#DBB395"/>
			<stop  offset="1.983430e-02" style="stop-color:#DBB395"/>
			<stop  offset="1" style="stop-color:#EAC2A4"/>
		</linearGradient>
		<rect x="11.2" y="5.4" clip-path="url(#SVGID_5_)" fill="url(#SVGID_6_)" width="9.6" height="10.5"/>
	</g>
	<g>
		<defs>
			<rect id="SVGID_7_" x="8.5" y="2" width="15" height="27"/>
		</defs>
		<clipPath id="SVGID_8_">
			<use xlink:href="#SVGID_7_"  overflow="visible"/>
		</clipPath>
		<path clip-path="url(#SVGID_8_)" fill="#52658A" d="M21.1,8.8V5.4C21.1,3.1,18.8,2,16,2s-5.1,1.1-5.1,3.4v3.4H21.1z"/>
		<path clip-path="url(#SVGID_8_)" fill="#52658A" d="M23.5,8.7c0-0.5-0.3-0.9-0.8-0.9H9.2c-0.4,0-0.8,0.4-0.8,0.9
			c0,0.5,0.3,0.9,0.8,0.9h13.5C23.2,9.5,23.5,9.1,23.5,8.7"/>
	</g>
</g>
</svg>
