<?xml version="1.0" encoding="utf-8"?>
<!-- Generator: Adobe Illustrator 26.3.1, SVG Export Plug-In . SVG Version: 6.00 Build 0)  -->
<svg version="1.1" id="Layer_1" xmlns="http://www.w3.org/2000/svg" xmlns:xlink="http://www.w3.org/1999/xlink" x="0px" y="0px"
	 viewBox="0 0 320 320" style="enable-background:new 0 0 320 320;" xml:space="preserve">
<style type="text/css">
	.st0{clip-path:url(#SVGID_00000155846594818626299290000012958051773736150961_);fill:#52658B;}
	.st1{fill:none;}
</style>
<g>
	<defs>
		<rect id="SVGID_1_" x="70" y="50" width="180" height="220"/>
	</defs>
	<clipPath id="SVGID_00000140735918590013582500000016184539928190422971_">
		<use xlink:href="#SVGID_1_"  style="overflow:visible;"/>
	</clipPath>
	<path style="clip-path:url(#SVGID_00000140735918590013582500000016184539928190422971_);fill:#52658B;" d="M234.8,65l0,9.6
		l-150,150l0-159.6H234.8z M84.8,255l0-9.2l150-150l0,159.2L84.8,255z M250,265l0-210c0-2.8-2.2-5-5-5L75,50c-2.8,0-5,2.2-5,5v210
		c0,2.8,2.2,5,5,5l170,0C247.8,270,250,267.8,250,265"/>
</g>
<rect x="0" class="st1" width="320" height="320"/>
</svg>
