<?xml version="1.0" encoding="utf-8"?>
<!-- Generator: Adobe Illustrator 23.0.1, SVG Export Plug-In . SVG Version: 6.00 Build 0)  -->
<svg version="1.1" xmlns="http://www.w3.org/2000/svg" xmlns:xlink="http://www.w3.org/1999/xlink" x="0px" y="0px"
	 viewBox="0 0 32 32" style="enable-background:new 0 0 32 32;" xml:space="preserve">
<style type="text/css">
	.st0{fill:none;stroke:#000000;stroke-linejoin:round;stroke-miterlimit:10;}
	.st1{fill:none;stroke:#000000;stroke-linecap:square;stroke-linejoin:round;stroke-miterlimit:10;}
	.st2{fill:none;stroke:#000000;stroke-miterlimit:10;}
	.st3{fill:none;stroke:#000000;stroke-linecap:square;stroke-miterlimit:10;}
	.st4{fill:none;stroke:#000000;stroke-linecap:round;stroke-linejoin:round;stroke-miterlimit:10;}
	.st5{fill:none;stroke:#000000;stroke-linecap:round;stroke-miterlimit:10;}
	.st6{fill:none;stroke:#000000;stroke-linecap:square;stroke-linejoin:round;}
	.st7{fill:none;stroke:#000000;stroke-width:0.9701;stroke-linejoin:round;stroke-miterlimit:10;}
	.st8{stroke:#000000;stroke-linejoin:round;stroke-miterlimit:10;}
	.st9{display:none;fill:none;stroke:#000000;stroke-linejoin:round;stroke-miterlimit:10;}
	.st10{fill:none;stroke:#000000;stroke-width:1.0026;stroke-miterlimit:10;}
	.st11{fill:none;stroke:#000000;stroke-width:1.0305;stroke-linejoin:round;stroke-miterlimit:10;}
	.st12{fill:none;stroke:#000000;stroke-width:0.907;stroke-linejoin:round;stroke-miterlimit:10;}
	.st13{fill:#FFFFFF;}
	.st14{fill:none;stroke:#000000;stroke-width:1.45;stroke-linejoin:round;stroke-miterlimit:10;}
	.st15{fill:none;stroke:#000000;stroke-width:1.45;stroke-linecap:round;stroke-linejoin:round;stroke-miterlimit:10;}
	.st16{fill:none;stroke:#000000;stroke-width:1.45;stroke-miterlimit:10;}
	.st17{fill:#333333;}
	.st18{fill:none;stroke:#FFFFFF;stroke-linejoin:round;stroke-miterlimit:10;}
	.st19{clip-path:url(#SVGID_3_);}
	.st20{clip-path:url(#SVGID_4_);fill:none;stroke:#FFFFFF;stroke-linejoin:round;stroke-miterlimit:10;}
	.st21{fill:none;stroke:#FFFFFF;stroke-linecap:round;stroke-linejoin:round;stroke-miterlimit:10;}
</style>
<g id="cat-pg">
	<g>
		<g>
			<ellipse class="st15" cx="8.2" cy="6.4" rx="3.8" ry="4.2"/>
			<path class="st14" d="M12.9,13.5c-0.5-0.5-1.1-0.9-1.8-1.3h0c-0.2,0.1-0.5,0.3-0.7,0.4c-0.7,0.3-1.4,0.5-2.2,0.5
				c-0.8,0-1.5-0.2-2.2-0.5l0,0c-0.2-0.1-0.5-0.2-0.7-0.4h0c-1.8,0.8-2.9,2.2-2.9,3.8v6.2H10"/>
		</g>
		<g>
			<polyline class="st16" points="24.3,15.6 22.2,14.9 20.9,12.7 18.4,13.4 18.2,15.9 16.5,17.4 			"/>
			<polyline class="st16" points="18.2,15.9 16.5,17.4 14,17.4 13.3,19.9 15.5,21.3 15.9,23.5 			"/>
			<polyline class="st16" points="15.5,21.3 15.9,23.5 14.7,25.7 16.5,27.5 18.7,26.4 20.9,27.1 			"/>
			<polyline class="st16" points="18.7,26.4 20.9,27.1 22.2,29.3 24.7,28.6 24.8,26.1 26.5,24.6 			"/>
			<polyline class="st16" points="24.8,26.1 26.5,24.6 29,24.6 29.7,22.1 27.6,20.7 27.2,18.5 			"/>
			<polyline class="st16" points="27.6,20.7 27.2,18.5 28.4,16.3 26.6,14.5 24.3,15.6 22.2,14.9 			"/>
			<circle class="st16" cx="21.5" cy="21" r="2.6"/>
		</g>
	</g>
</g>
<g id="Guidelines">
</g>
</svg>
