<?xml version="1.0" encoding="utf-8"?>
<!-- Generator: Adobe Illustrator 26.4.1, SVG Export Plug-In . SVG Version: 6.00 Build 0)  -->
<svg version="1.1" id="Layer_1" xmlns="http://www.w3.org/2000/svg" xmlns:xlink="http://www.w3.org/1999/xlink" x="0px" y="0px"
	 viewBox="0 0 320 320" style="enable-background:new 0 0 320 320;" xml:space="preserve">
<style type="text/css">
	.st0{clip-path:url(#SVGID_00000051353368612304030980000014429377504030316440_);fill:#4C6586;}
</style>
<g>
	<g>
		<defs>
			<rect id="SVGID_1_" width="320" height="320"/>
		</defs>
		<clipPath id="SVGID_00000165210939747084509220000012811117051652761492_">
			<use xlink:href="#SVGID_1_"  style="overflow:visible;"/>
		</clipPath>
		<path style="clip-path:url(#SVGID_00000165210939747084509220000012811117051652761492_);fill:#4C6586;" d="M142.6,179.4l27-127.2
			L130.5,44l-27,127.2L142.6,179.4z M113.6,183.5l-12.2-2.6l3.2,16.1l4.7,23.9c1.1,5.4,4.5,6.2,7.7,1.6l17.7-25.1l0,0l5.8-8.2
			l-9.8-2.1l0,0L113.6,183.5z M279.6,251.1c0-4.2-3.4-7.6-7.6-7.6c-7.4,0-13.8,4.3-19.5,8.1c-4.3,2.9-9.2,6.1-11.8,5.4
			c-1-0.3-3.9-1.7-7.6-9.2c-15.6-31.2-64.6-15-107.8-0.8c-25.1,8.3-53.5,17.6-63.4,12.7c-4-2-6.1-4.2-6.3-6.4
			c-0.5-7.3,13.1-19.9,22.3-26.2c3.5-2.3,4.4-7.1,2.1-10.6s-7.1-4.4-10.6-2.1c-5.1,3.4-30.3,21.1-29.1,39.8
			c0.4,5.6,3.2,13.4,14.7,19.1c4,2,8.9,2.9,14.5,2.9c15.7,0,36.9-7,60.5-14.7c37.4-12.3,79.7-26.2,89.4-6.8
			c4.9,9.7,10.5,15.4,17.3,17.2c9.3,2.5,17.6-3,24.2-7.4c3.9-2.6,8.3-5.5,11-5.5C276.2,258.7,279.6,255.3,279.6,251.1"/>
	</g>
</g>
</svg>
