<?xml version="1.0" encoding="utf-8"?>
<!-- Generator: Adobe Illustrator 25.2.1, SVG Export Plug-In . SVG Version: 6.00 Build 0)  -->
<svg version="1.1" id="Layer_1" xmlns="http://www.w3.org/2000/svg" xmlns:xlink="http://www.w3.org/1999/xlink" x="0px" y="0px"
	 viewBox="0 0 32 32" enable-background="new 0 0 32 32" xml:space="preserve">
<path fill="#52658B" d="M19.1,6C19.1,5.9,19.1,5.9,19.1,6c-0.9,0-1.8,0.9-3.6,2.7c-1.8,1.8-5.4,2.8-6.3,2.8H4.7h0
	C3.2,11.4,2,13,2,15c0,2,1.2,3.6,2.7,3.6h1.4c0.5,0.9,1.4,2.4,1.4,3.1c0,1.8,0.2,2.3,1.7,2.3c0.9,0,1.4,0,1.4-0.9
	c0-0.9-0.4-1.9-1.3-3.7c-0.2-0.3-0.3-0.6-0.4-0.8h0.2c0.9,0,4.5,1,6.3,2.8c1.8,1.8,2.7,2.7,3.6,2.7c0,0,0,0,0,0
	c-1.5-1.2-2.6-4.8-2.6-9.1C16.5,10.8,17.6,7.2,19.1,6"/>
<path fill="#52658B" d="M25,10.5c-0.2,0-0.4-0.1-0.5-0.2c-0.2-0.3-0.2-0.7,0.1-0.9l3-2.4c0.3-0.2,0.7-0.2,0.9,0.1
	c0.2,0.3,0.2,0.7-0.1,0.9l-3,2.4C25.3,10.5,25.1,10.5,25,10.5z"/>
<path fill="#52658B" d="M28,23.1c-0.1,0-0.3,0-0.4-0.1l-3-2.4c-0.3-0.2-0.3-0.6-0.1-0.9c0.2-0.3,0.6-0.3,0.9-0.1l3,2.4
	c0.3,0.2,0.3,0.6,0.1,0.9C28.3,23,28.1,23.1,28,23.1z"/>
<path fill="#52658B" d="M29.4,15.6h-3.7c-0.3,0-0.6-0.3-0.6-0.6s0.3-0.6,0.6-0.6h3.7c0.3,0,0.6,0.3,0.6,0.6S29.7,15.6,29.4,15.6z"/>
<g>
	<path fill="#52658B" d="M24.1,15c0-4.8-1.5-8.8-3.4-8.8c-1.5,0-2.8,2.6-3.2,6.1c0.8,0.1,1.5,1.3,1.5,2.7c0,1.4-0.7,2.5-1.5,2.7
		c0.4,3.5,1.7,6.1,3.2,6.1C22.5,23.8,24.1,19.9,24.1,15"/>
</g>
</svg>
