<svg id="Layer_1" data-name="Layer 1" xmlns="http://www.w3.org/2000/svg" xmlns:xlink="http://www.w3.org/1999/xlink" viewBox="0 0 262.38 257.06"><defs><style>.cls-1{fill:none;}.cls-2{clip-path:url(#clip-path);}.cls-3{fill:#52668c;}.cls-4{clip-path:url(#clip-path-2);}.cls-5{fill:#52658b;}.cls-6{clip-path:url(#clip-path-3);}</style><clipPath id="clip-path" transform="translate(-28.12 -30)"><path class="cls-1" d="M28.13,62.13V205.42h134.5a42,42,0,0,1-8.21-24.92c0-17.69,11.05-32.91,26.91-39.7V62.13Z"/></clipPath><clipPath id="clip-path-2" transform="translate(-28.12 -30)"><rect class="cls-1" x="28.13" y="30" width="261.88" height="256.88"/></clipPath><clipPath id="clip-path-3" transform="translate(-28.12 -30)"><rect class="cls-1" x="136.75" y="143.58" width="153.21" height="143.29"/></clipPath></defs><g class="cls-2"><path class="cls-3" d="M174.37,205.6a7.5,7.5,0,0,1-7.49-7.19c-.23-5.26-2.45-20.47-9.78-27.3-4.55-4.25-18.91-7.41-27.49-9.3-10.94-2.41-15.47-3.4-16.78-9a7.93,7.93,0,0,1,2.86-8c12.74-10.19,15.41-25.08,15.41-35.77,0-22.53-18.62-31.87-28.6-31.87-17.86,0-27.22,9.52-28.61,29.12-1.26,17.69,7.66,25,14.17,30.35,3.88,3.18,7.88,6.46,7.88,11.77,0,13-16.77,17.77-33.94,21.58C46.38,173.41,43.1,198.74,43.07,199a7.5,7.5,0,0,1-14.89-1.77c.17-1.48,4.54-36.15,30.57-41.93,12.49-2.77,18.08-5.06,20.56-6.48l-.76-.62c-7.49-6.15-21.43-17.58-19.62-43,1.94-27.37,17.83-43.06,43.57-43.06,18.28,0,43.6,16.28,43.6,46.87,0,15.13-4.14,28.19-12.09,38.42,14.25,3.16,26.53,6.38,33.33,12.72,13.12,12.25,14.42,35.09,14.53,37.65a7.51,7.51,0,0,1-7.19,7.81h-.31" transform="translate(-28.12 -30)"/></g><g class="cls-4"><path class="cls-5" d="M276.09,75.71c0,10.69-21.38,32.07-21.38,21.38,0-21.38-21.38-21.38-21.38-32.07S244,65,254.71,54.33c7.56-7.55,21.38,10.69,21.38,21.38m-50.55,3.68c-.87,11.21-.41,13-3.88,19-6.12,10.6-6.56,8.94-8.36,2.24-2.24-8.36-11.27-19.85-6.72-25.08s19.72-5.91,19,3.88M290,80a50,50,0,1,0-50,50,50,50,0,0,0,50-50" transform="translate(-28.12 -30)"/></g><g class="cls-6"><path class="cls-3" d="M283,287.06a7.51,7.51,0,0,1-7.49-7.19c-.24-5.27-2.45-20.47-9.78-27.31-4.55-4.25-18.91-7.41-27.5-9.29-10.93-2.41-15.46-3.41-16.77-9a8,8,0,0,1,2.86-8c12.73-10.18,15.41-25.07,15.41-35.76,0-22.53-18.63-31.88-28.6-31.88-17.86,0-27.22,9.53-28.61,29.13-1.26,17.69,7.66,25,14.17,30.35,3.88,3.17,7.88,6.46,7.88,11.77,0,13-16.77,17.76-33.94,21.57-15.63,3.47-18.9,28.8-18.93,29a7.5,7.5,0,0,1-14.89-1.77c.17-1.47,4.54-36.15,30.57-41.92,12.49-2.77,18.08-5.07,20.56-6.48l-.76-.63c-7.49-6.14-21.43-17.57-19.62-43,1.94-27.36,17.83-43.06,43.57-43.06,18.28,0,43.6,16.29,43.6,46.88,0,15.13-4.14,28.19-12.09,38.42,14.25,3.16,26.53,6.37,33.33,12.72,13.12,12.24,14.42,35.09,14.53,37.65a7.5,7.5,0,0,1-7.19,7.8H283" transform="translate(-28.12 -30)"/></g></svg>