<?xml version="1.0" encoding="utf-8"?>
<!-- Generator: Adobe Illustrator 26.3.1, SVG Export Plug-In . SVG Version: 6.00 Build 0)  -->
<svg version="1.1" id="Layer_1" xmlns="http://www.w3.org/2000/svg" xmlns:xlink="http://www.w3.org/1999/xlink" x="0px" y="0px"
	 viewBox="0 0 320 320" style="enable-background:new 0 0 320 320;" xml:space="preserve">
<style type="text/css">
	.st0{clip-path:url(#SVGID_00000091738165416518607710000005160845621099095477_);fill:#52668C;}
	.st1{fill:none;}
</style>
<g>
	<defs>
		<rect id="SVGID_1_" x="40" y="40" width="240" height="240"/>
	</defs>
	<clipPath id="SVGID_00000153675659964819702820000008484548772505140359_">
		<use xlink:href="#SVGID_1_"  style="overflow:visible;"/>
	</clipPath>
	<path style="clip-path:url(#SVGID_00000153675659964819702820000008484548772505140359_);fill:#52668C;" d="M110,115V95
		c0-8.3-6.7-15-15-15H82.5V47.5c0-4.1-3.4-7.5-7.5-7.5s-7.5,3.4-7.5,7.5V80H55c-8.3,0-15,6.7-15,15v20c0,8.3,6.7,15,15,15h12.5
		v142.5c0,4.1,3.4,7.5,7.5,7.5s7.5-3.4,7.5-7.5V130H95C103.3,130,110,123.3,110,115 M195,205v-20c0-8.3-6.7-15-15-15h-12.5V47.5
		c0-4.1-3.4-7.5-7.5-7.5c-4.1,0-7.5,3.4-7.5,7.5V170H140c-8.3,0-15,6.7-15,15v20c0,8.3,6.7,15,15,15h12.5v52.5
		c0,4.1,3.4,7.5,7.5,7.5c4.1,0,7.5-3.4,7.5-7.5V220H180C188.3,220,195,213.3,195,205 M280,115V95c0-8.3-6.7-15-15-15h-12.5V47.5
		c0-4.1-3.4-7.5-7.5-7.5c-4.1,0-7.5,3.4-7.5,7.5V80H225c-8.3,0-15,6.7-15,15v20c0,8.3,6.7,15,15,15h12.5v142.5
		c0,4.1,3.4,7.5,7.5,7.5c4.1,0,7.5-3.4,7.5-7.5V130H265C273.3,130,280,123.3,280,115"/>
</g>
<rect class="st1" width="320" height="320"/>
</svg>
