<?xml version="1.0" encoding="utf-8"?>
<!-- Generator: Adobe Illustrator 17.0.0, SVG Export Plug-In . SVG Version: 6.00 Build 0)  -->
<!DOCTYPE svg PUBLIC "-//W3C//DTD SVG 1.1//EN" "http://www.w3.org/Graphics/SVG/1.1/DTD/svg11.dtd">
<svg version="1.1" id="Layer_1" xmlns="http://www.w3.org/2000/svg" xmlns:xlink="http://www.w3.org/1999/xlink" x="0px" y="0px"
	 width="32px" height="32px" viewBox="0 0 32 32" enable-background="new 0 0 32 32" xml:space="preserve">
<g>
	<defs>
		<rect id="SVGID_1_" x="6" y="9" width="21" height="14"/>
	</defs>
	<clipPath id="SVGID_2_">
		<use xlink:href="#SVGID_1_"  overflow="visible"/>
	</clipPath>
	<path clip-path="url(#SVGID_2_)" fill="#51648A" d="M12,9v3H7.5C6.671,12,6,12.672,6,13.5C6,14.329,6.671,15,7.5,15H12v2H7.5
		C6.671,17,6,17.671,6,18.5C6,19.329,6.671,20,7.5,20H12v3h3V9C13.327,9,12,9,12,9 M27,16c0-1.077-0.432-1.941-1.166-1.984
		c-0.451-2.893-1.886-5.015-4.096-5.015C21.691,9.001,18.666,9,16,9v14h5.738c2.21,0,3.645-2.123,4.096-5.016
		C26.568,17.941,27,17.077,27,16"/>
</g>
</svg>
