<?xml version="1.0" encoding="utf-8"?>
<!-- Generator: Adobe Illustrator 17.0.0, SVG Export Plug-In . SVG Version: 6.00 Build 0)  -->
<!DOCTYPE svg PUBLIC "-//W3C//DTD SVG 1.1//EN" "http://www.w3.org/Graphics/SVG/1.1/DTD/svg11.dtd">
<svg version="1.1" id="Layer_1" xmlns="http://www.w3.org/2000/svg" xmlns:xlink="http://www.w3.org/1999/xlink" x="0px" y="0px"
	 width="32px" height="32px" viewBox="0 0 32 32" enable-background="new 0 0 32 32" xml:space="preserve">
<rect x="0" fill="#FFFFFF" width="32" height="32"/>
<g>
	<g>
		<defs>
			<path id="SVGID_1_" d="M2,7.999L7.999,2H30v22l-6,6H2V7.999z M0,0v10v22h22h10V22V0H0z"/>
		</defs>
		<clipPath id="SVGID_2_">
			<use xlink:href="#SVGID_1_"  overflow="visible"/>
		</clipPath>
		
			<linearGradient id="SVGID_3_" gradientUnits="userSpaceOnUse" x1="-392.1762" y1="-286.2459" x2="-391.1762" y2="-286.2459" gradientTransform="matrix(32 0 0 32 12549.6377 9175.8682)">
			<stop  offset="0" style="stop-color:#98A7C1"/>
			<stop  offset="0.0198" style="stop-color:#98A7C1"/>
			<stop  offset="1" style="stop-color:#AABBDD"/>
		</linearGradient>
		<rect x="0" clip-path="url(#SVGID_2_)" fill="url(#SVGID_3_)" width="32" height="32"/>
	</g>
</g>
<g>
	<g>
		<defs>
			<path id="SVGID_4_" d="M14.092,8.265c0,0-1.652,1.258-1.455,2.675c0.077,0.551,1.77,0.472,2.4,1.18
				c0.629,0.707,0.472,2.046-0.787,3.068c-1.259,1.023-2.754,0.833-3.227,0.315c-0.472-0.518-0.392-2.125-1.102-2.676
				c-0.708-0.551-1.652,0.472-1.966,0.787c-0.314,0.314-1.416,1.652-1.81,2.406c-0.393,0.754,2.047,2.039,2.047,2.039
				s1.966,1.376,1.494,2.006c-0.472,0.63-1.574,0.63-2.197,1.259c-0.625,0.63-0.242,2.202,0.23,2.912
				c0.472,0.708,2.161,0.853,2.912,0.392c1.219-0.747,0.707-1.966,1.101-2.36c0.393-0.393,0.866-0.393,1.417,0.157
				c0.551,0.551,2.045,2.194,2.045,2.194c0.803,1.071,1.496,0.56,2.597-0.227c1.101-0.787,1.652-2.124,1.416-2.754
				c-0.236-0.629-1.888-0.472-2.596-1.175c-0.708-0.705,0.158-2.522,0.787-3.151c0.63-0.63,1.416-1.102,2.754-0.551
				c1.337,0.551,0.806,1.966,1.417,3.068c0.61,1.102,1.966-0.708,1.966-0.708s1.766-1.731,2.282-2.36
				c0.516-0.63-1.574-1.888-2.282-2.439c-0.708-0.551-1.357-1.449-0.944-2.047c0.708-1.021,1.495-0.551,2.361-1.455
				c0.476-0.498,0.236-1.613-0.945-2.556c-1.007-0.807-2.282-0.945-2.754-0.394c-0.471,0.551-0.195,3.62-1.966,2.361
				c0,0-1.062-1.337-1.652-2.085C17.081,7.448,16.61,6.77,15.744,6.77L14.092,8.265z"/>
		</defs>
		<clipPath id="SVGID_5_">
			<use xlink:href="#SVGID_4_"  overflow="visible"/>
		</clipPath>
		
			<linearGradient id="SVGID_6_" gradientUnits="userSpaceOnUse" x1="-389.7786" y1="-295.3165" x2="-388.8786" y2="-295.3165" gradientTransform="matrix(21.9923 0 0 21.9923 8578.2314 6510.9204)">
			<stop  offset="0" style="stop-color:#EA8800"/>
			<stop  offset="0.0198" style="stop-color:#EA8800"/>
			<stop  offset="1" style="stop-color:#EF9300"/>
		</linearGradient>
		<rect x="5.753" y="6.77" clip-path="url(#SVGID_5_)" fill="url(#SVGID_6_)" width="20.579" height="18.922"/>
	</g>
</g>
</svg>
