<?xml version="1.0" encoding="utf-8"?>
<!-- Generator: Adobe Illustrator 26.3.1, SVG Export Plug-In . SVG Version: 6.00 Build 0)  -->
<svg version="1.1" id="Layer_1" xmlns="http://www.w3.org/2000/svg" xmlns:xlink="http://www.w3.org/1999/xlink" x="0px" y="0px"
	 width="32px" height="32px" viewBox="0 0 32 32" style="enable-background:new 0 0 32 32;" xml:space="preserve">
<style type="text/css">
	.st0{clip-path:url(#SVGID_00000114040423145831281960000015332823806188003730_);fill:#52668C;}
	.st1{clip-path:url(#SVGID_00000118385608029813649880000007668633333837043349_);fill:#52668C;}
	.st2{fill:#FFFFFF;}
</style>
<g>
	<g>
		<defs>
			<polygon id="SVGID_1_" points="6,10 7.2,30 24.8,30 26,10 			"/>
		</defs>
		<clipPath id="SVGID_00000026125360421259094180000004699744452933810850_">
			<use xlink:href="#SVGID_1_"  style="overflow:visible;"/>
		</clipPath>
		
			<rect x="6" y="10" style="clip-path:url(#SVGID_00000026125360421259094180000004699744452933810850_);fill:#52668C;" width="20" height="20"/>
	</g>
</g>
<g>
	<g>
		<defs>
			<path id="SVGID_00000163044049066882800650000002832482370974736768_" d="M6,6.7L6,6.7L6,6.7 M6,6.6C6,6.6,6,6.7,6,6.6
				C6,6.6,6,6.5,6,6.6C6,6.5,6,6.6,6,6.6 M14.8,3.3h2.5v1.4c-0.4,0-0.8,0-1.2,0c-0.4,0-0.8,0-1.3,0C14.8,4.7,14.8,3.3,14.8,3.3z
				 M13.5,2v2.7C9.5,4.9,6,5.6,6,6.7c0,0.2,0,0.8,0,2h20v-2c0-1-3.5-1.7-7.5-1.9V2H13.5z"/>
		</defs>
		<clipPath id="SVGID_00000118392348130596241010000001064943138644912575_">
			<use xlink:href="#SVGID_00000163044049066882800650000002832482370974736768_"  style="overflow:visible;"/>
		</clipPath>
		
			<rect x="6" y="2" style="clip-path:url(#SVGID_00000118392348130596241010000001064943138644912575_);fill:#52668C;" width="20" height="6.7"/>
	</g>
</g>
<polygon class="st2" points="8.9,12.8 9.9,27.8 12,27.8 11,12.8 "/>
<polygon class="st2" points="23.1,12.8 22.1,27.8 20,27.8 21,12.8 "/>
<rect x="15" y="12.8" class="st2" width="2" height="15.1"/>
</svg>
