<?xml version="1.0" encoding="utf-8"?>
<!-- Generator: Adobe Illustrator 26.5.0, SVG Export Plug-In . SVG Version: 6.00 Build 0)  -->
<svg version="1.1" id="Layer_1" xmlns="http://www.w3.org/2000/svg" xmlns:xlink="http://www.w3.org/1999/xlink" x="0px" y="0px"
	 viewBox="0 0 320 320" style="enable-background:new 0 0 320 320;" xml:space="preserve">
<style type="text/css">
	.st0{clip-path:url(#SVGID_00000120528186618245165050000013898912154192353711_);fill:#4C6586;}
</style>
<g>
	<g>
		<defs>
			<rect id="SVGID_1_" width="320" height="320"/>
		</defs>
		<clipPath id="SVGID_00000015322730583467164880000012132116656131105425_">
			<use xlink:href="#SVGID_1_"  style="overflow:visible;"/>
		</clipPath>
		<path style="clip-path:url(#SVGID_00000015322730583467164880000012132116656131105425_);fill:#4C6586;" d="M161.5,156.2
			c-7.1-4-16.9-6.5-28.1-9c7.9-10.2,12.1-23.3,12.1-38.4c0-30.6-25.3-46.9-43.6-46.9l0,0c-25.7,0-41.6,15.7-43.6,43.1
			c-1.8,25.4,12.1,36.9,19.6,43c0.2,0.2,0.5,0.4,0.8,0.6c-2.5,1.4-8.1,3.7-20.6,6.5c-26,5.8-30.4,40.4-30.6,41.9
			c-0.5,3.9,2.2,7.4,6,8.2h2.9c3.1-0.6,5.6-3.1,6-6.4c0-0.3,3.3-25.6,18.9-29c17.2-3.8,33.9-8.6,33.9-21.6c0-5.3-4-8.6-7.9-11.8
			c-6.5-5.3-15.4-12.7-14.2-30.3C74.5,86.5,83.9,77,101.7,77c10,0,28.6,9.3,28.6,31.9c0,10.7-2.7,25.6-15.4,35.8c-2.5,2-3.6,5-2.9,8
			c1.3,5.6,5.8,6.6,16.8,9c7.9,1.7,20.6,4.5,26.2,8.3C156.5,164.9,158.6,160.3,161.5,156.2 M210.6,143.4
			c-25.7,0-41.6,15.7-43.6,43.1c-1.8,25.4,12.1,36.9,19.6,43c0.2,0.2,0.5,0.4,0.8,0.6c-2.5,1.4-8.1,3.7-20.6,6.5
			c-26,5.8-30.4,40.4-30.6,41.9c-0.5,4.1,2.5,7.8,6.6,8.3s7.8-2.4,8.3-6.5c0-0.3,3.3-25.6,18.9-29c17.2-3.8,33.9-8.6,33.9-21.6
			c0-5.3-4-8.6-7.9-11.8c-6.5-5.3-15.4-12.7-14.2-30.3c1.4-19.6,10.8-29.1,28.6-29.1c10,0,28.6,9.3,28.6,31.9
			c0,10.7-2.7,25.6-15.4,35.8c-2.5,2-3.6,5-2.9,8c1.3,5.6,5.8,6.6,16.8,9c8.6,1.9,22.9,5,27.5,9.3c7.3,6.8,9.5,22,9.8,27.3
			c0.2,4,3.5,7.2,7.5,7.2c0.1,0,0.2,0,0.3,0c4.1-0.2,7.4-3.7,7.2-7.8c-0.1-2.6-1.4-25.4-14.5-37.7c-6.8-6.3-19.1-9.6-33.3-12.7
			c7.9-10.2,12.1-23.3,12.1-38.4C254.2,159.7,228.9,143.4,210.6,143.4 M276.1,75.7c0,10.7-21.4,32.1-21.4,21.4
			c0-21.4-21.4-21.4-21.4-32.1s10.7,0,21.4-10.7C262.3,46.8,276.1,65,276.1,75.7 M225.5,79.4c-0.9,11.2-0.4,13-3.9,19
			c-6.1,10.6-6.6,8.9-8.4,2.2c-2.2-8.4-11.3-19.8-6.7-25.1C211.1,70.3,226.3,69.6,225.5,79.4 M290,80c0-27.6-22.4-50-50-50
			s-50,22.4-50,50s22.4,50,50,50S290,107.6,290,80"/>
	</g>
</g>
</svg>
