<?xml version="1.0" encoding="utf-8"?>
<!-- Generator: Adobe Illustrator 18.0.0, SVG Export Plug-In . SVG Version: 6.00 Build 0)  -->
<!DOCTYPE svg PUBLIC "-//W3C//DTD SVG 1.1//EN" "http://www.w3.org/Graphics/SVG/1.1/DTD/svg11.dtd">
<svg version="1.1" id="Layer_1" xmlns="http://www.w3.org/2000/svg" xmlns:xlink="http://www.w3.org/1999/xlink" x="0px" y="0px"
	 width="32px" height="32px" viewBox="0 0 32 32" enable-background="new 0 0 32 32" xml:space="preserve">
<g>
	<defs>
		<path id="SVGID_1_" d="M13.6,5.3c0,0-2.3,1.7-2,3.7c0.1,0.8,2.5,0.7,3.3,1.6c0.9,1,0.7,2.8-1.1,4.3c-1.7,1.4-3.8,1.2-4.5,0.4
			c-0.7-0.7-0.5-3-1.5-3.7c-1-0.8-2.3,0.7-2.7,1.1c-0.4,0.4-2,2.3-2.5,3.3c0,0.1-0.1,0.2-0.1,0.2v0c0,1.1,2.9,2.6,2.9,2.6
			s2.7,1.9,2.1,2.8c-0.7,0.9-2.2,0.9-3.1,1.7c-0.9,0.9-0.3,3.1,0.3,4s3,1.2,4,0.5c1.7-1,1-2.7,1.5-3.3c0.5-0.5,1.2-0.5,2,0.2
			c0.8,0.8,2.8,3,2.8,3c0.4,0.6,0.9,0.8,1.3,0.8h0c0.7,0,1.4-0.5,2.3-1.2c1.5-1.1,2.3-2.9,2-3.8c-0.3-0.9-2.6-0.7-3.6-1.6
			c-1-1,0.2-3.5,1.1-4.4c0.9-0.9,2-1.5,3.8-0.8c1.9,0.8,1.1,2.7,2,4.3c0.8,1.5,2.7-1,2.7-1s2.5-2.4,3.2-3.3c0.7-0.9-2.2-2.6-3.2-3.4
			c-0.2-0.1-0.3-0.3-0.4-0.4c-0.5,0.1-1,0.2-1.5,0.2c-3.3,0-6-2.7-6-6c0-0.6,0.1-1.2,0.3-1.7c-0.2-0.2-0.4-0.5-0.5-0.7
			c-0.8-1-1.4-1.9-2.6-1.9L13.6,5.3z"/>
	</defs>
	<clipPath id="SVGID_2_">
		<use xlink:href="#SVGID_1_"  overflow="visible"/>
	</clipPath>
	
		<linearGradient id="SVGID_3_" gradientUnits="userSpaceOnUse" x1="-120.3618" y1="163.1654" x2="-119.3618" y2="163.1654" gradientTransform="matrix(27.4903 0 0 -27.4903 3311.2903 4501.4707)">
		<stop  offset="0" style="stop-color:#E56E1E"/>
		<stop  offset="0.4447" style="stop-color:#E7711F"/>
		<stop  offset="0.7122" style="stop-color:#EE7923"/>
		<stop  offset="0.9323" style="stop-color:#FA8729"/>
		<stop  offset="0.9971" style="stop-color:#FF8D2C"/>
		<stop  offset="1" style="stop-color:#FF8D2C"/>
	</linearGradient>
	<rect x="2.5" y="3.2" clip-path="url(#SVGID_2_)" fill="url(#SVGID_3_)" width="28.1" height="25.6"/>
</g>
<g>
	<defs>
		<circle id="SVGID_4_" cx="24.7" cy="7.5" r="5"/>
	</defs>
	<clipPath id="SVGID_5_">
		<use xlink:href="#SVGID_4_"  overflow="visible"/>
	</clipPath>
	
		<linearGradient id="SVGID_6_" gradientUnits="userSpaceOnUse" x1="-112.2495" y1="171.4181" x2="-111.2495" y2="171.4181" gradientTransform="matrix(10 0 0 -10 1142.2451 1721.6807)">
		<stop  offset="0" style="stop-color:#21C4D7"/>
		<stop  offset="1.983430e-02" style="stop-color:#21C4D7"/>
		<stop  offset="1" style="stop-color:#32D0F6"/>
	</linearGradient>
	<rect x="19.7" y="2.5" clip-path="url(#SVGID_5_)" fill="url(#SVGID_6_)" width="10" height="10"/>
</g>
<g>
	<defs>
		<rect id="SVGID_7_" x="2.5" y="2.5" width="27.5" height="26.3"/>
	</defs>
	<clipPath id="SVGID_8_">
		<use xlink:href="#SVGID_7_"  overflow="visible"/>
	</clipPath>
	<path clip-path="url(#SVGID_8_)" fill="#FFFFFF" d="M26.2,4.9c-1.1,1.1-2.1,0-2.1,1.1s2.1,1.1,2.1,3.2c0,1.1,2.1-1.1,2.1-2.1
		S27,4.2,26.2,4.9"/>
	<path clip-path="url(#SVGID_8_)" fill="#FFFFFF" d="M23.3,7.4c0.1-1-1.4-0.9-1.9-0.4c-0.5,0.5,0.4,1.7,0.7,2.5
		c0.2,0.7,0.2,0.8,0.8-0.2C23.3,8.7,23.2,8.6,23.3,7.4"/>
</g>
</svg>
