<?xml version="1.0" encoding="utf-8"?>
<!-- Generator: Adobe Illustrator 26.2.1, SVG Export Plug-In . SVG Version: 6.00 Build 0)  -->
<svg version="1.1" id="Layer_1" xmlns="http://www.w3.org/2000/svg" xmlns:xlink="http://www.w3.org/1999/xlink" x="0px" y="0px"
	 viewBox="0 0 320 320" style="enable-background:new 0 0 320 320;" xml:space="preserve">
<style type="text/css">
	.st0{fill:none;}
	.st1{clip-path:url(#SVGID_00000088851503389315697230000000568275064800183956_);fill:#52658B;}
</style>
<rect class="st0" width="320" height="320"/>
<g>
	<defs>
		<rect id="SVGID_1_" width="320" height="320"/>
	</defs>
	<clipPath id="SVGID_00000099627434048852822140000002411023032155214484_">
		<use xlink:href="#SVGID_1_"  style="overflow:visible;"/>
	</clipPath>
	<path style="clip-path:url(#SVGID_00000099627434048852822140000002411023032155214484_);fill:#52658B;" d="M205,64.4l-150,150
		L55,55h150L205,64.4z M215,125c1.7,0,3.3,0.4,5,0.5l0-80.5c0-2.8-2.2-5-5-5H45c-2.8,0-5,2.2-5,5l0,210c0,2.8,2.2,5,5,5h101.6
		c-3.4-4.7-6.4-9.7-8.8-15L55,245l0-9.4l150-150l0,40C208.3,125.2,211.6,125,215,125 M261.7,233.4c-1.3,2.6-4,4.2-6.8,4.2
		c-1.1,0-2.3-0.3-3.4-0.8l-40-20c-2.6-1.3-4.2-3.9-4.2-6.7v-40c0-4.2,3.4-7.5,7.5-7.5c4.2,0,7.5,3.4,7.5,7.5v35.3l35.8,17.9
		C262.1,225.1,263.6,229.6,261.7,233.4 M285,210c0-38.7-31.3-70-70-70c-38.7,0-70,31.3-70,70c0,38.7,31.3,70,70,70
		C253.7,280,285,248.7,285,210"/>
</g>
</svg>
