<?xml version="1.0" encoding="utf-8"?>
<!-- Generator: Adobe Illustrator 27.0.0, SVG Export Plug-In . SVG Version: 6.00 Build 0)  -->
<svg version="1.1" id="Layer_1" xmlns="http://www.w3.org/2000/svg" xmlns:xlink="http://www.w3.org/1999/xlink" x="0px" y="0px"
	 viewBox="0 0 320 320" style="enable-background:new 0 0 320 320;" xml:space="preserve">
<style type="text/css">
	.st0{clip-path:url(#SVGID_00000156572183385920321230000016947310515999280783_);fill:#58698E;}
</style>
<g>
	<g>
		<defs>
			<rect id="SVGID_1_" y="0" width="320" height="320"/>
		</defs>
		<clipPath id="SVGID_00000155852213812710350080000004833072144710660481_">
			<use xlink:href="#SVGID_1_"  style="overflow:visible;"/>
		</clipPath>
		<path style="clip-path:url(#SVGID_00000155852213812710350080000004833072144710660481_);fill:#58698E;" d="M151.8,145.9
			l-8.5,12.9l33.6,58.2c3.7-9.8,9.6-18.6,17.1-25.7l-26.8-46.4L151.8,145.9z M205.8,128.7l-39.6-41L181.3,31l-47.9,27.7L81.8,24.6
			l3.7,61.7L37.6,114l56.7,15.2L110,184l34.1-51.6L205.8,128.7z M250.1,241.2l17.7,17.7l-8.8,8.8L241.3,250l-17.7,17.7l-8.8-8.8
			l17.7-17.7l-17.7-17.7l8.8-8.8l17.7,17.7l17.7-17.7l8.8,8.8L250.1,241.2z M285,241.2c0-24.2-19.6-43.8-43.8-43.8
			s-43.8,19.6-43.8,43.8S217,285,241.2,285S285,265.4,285,241.2"/>
	</g>
</g>
</svg>
