<?xml version="1.0" encoding="utf-8"?>
<!-- Generator: Adobe Illustrator 26.5.0, SVG Export Plug-In . SVG Version: 6.00 Build 0)  -->
<svg version="1.1" id="Layer_1" xmlns="http://www.w3.org/2000/svg" xmlns:xlink="http://www.w3.org/1999/xlink" x="0px" y="0px"
	 viewBox="0 0 320 320" style="enable-background:new 0 0 320 320;" xml:space="preserve">
<style type="text/css">
	.st0{clip-path:url(#SVGID_00000045591125928096361470000000591513530678296507_);fill:#4C6586;}
</style>
<g>
	<g>
		<defs>
			<rect id="SVGID_1_" width="320" height="320"/>
		</defs>
		<clipPath id="SVGID_00000029729940761398998840000006311200549557821103_">
			<use xlink:href="#SVGID_1_"  style="overflow:visible;"/>
		</clipPath>
		<path style="clip-path:url(#SVGID_00000029729940761398998840000006311200549557821103_);fill:#4C6586;" d="M155,91.3
			c0-14.9-14.3-20.8-27.5-20.8c-8.2,0-14.4,1.5-21.5,3.6l0.8,13c5.4-2,11.3-3.5,17.1-3.5c6.4,0,13.2,2.9,13.2,10.1
			c0,14.2-18.3,14.2-18.3,36v1.6h14.8v-1.9C133.6,111.8,155,110.1,155,91.3 M134.6,140.4h-16.8v15.1h16.8V140.4z M225,133.6h15V60
			c0-11-9-20-20-20H60c-11,0-20,9-20,20v110c0,11,9,20,20,20h10v51.3l42.8-51.3h32.5v-15h-38.4L85,201.3V175H65c-5.5,0-10-4.5-10-10
			V65c0-5.5,4.5-10,10-10h150c5.5,0,10,4.5,10,10V133.6z M248.9,175.1l-32.2,43.1h-0.3l0,0l0,0l-25.1-22.6l9-10l14.1,12.7l23.6-31.4
			L248.9,175.1z M280,225.9v-61.8c0-15.5-15-15.5-15-15.5h-89.8c-15,0-15,15.5-15,15.5v61.8c0,15.5,15,15.5,15,15.5h43.6V280
			l31.2-38.6h15C280,241.4,280,225.9,280,225.9"/>
	</g>
</g>
</svg>
