<svg id="cat-pg" xmlns="http://www.w3.org/2000/svg" viewBox="0 0 32 32"><defs><style>.cls-1,.cls-2{fill:none;stroke:#000;stroke-width:1.45px;}.cls-1{stroke-linejoin:round;}.cls-2{stroke-miterlimit:10;}</style></defs><title>icon_sysa</title><polyline class="cls-1" points="26.63 6.74 30.18 6.74 30.18 24.67 1.82 24.67 1.82 6.74 4.43 6.74"/><polyline class="cls-1" points="9.32 29.45 16 29.45 22.68 29.45"/><line class="cls-1" x1="16" y1="24.67" x2="16" y2="29.45"/><polyline class="cls-2" points="18.94 5.3 16.69 4.52 15.3 2.23 12.68 2.92 12.52 5.61 10.72 7.17"/><polyline class="cls-2" points="12.52 5.61 10.72 7.17 8.04 7.23 7.33 9.85 9.58 11.32 10.03 13.67"/><polyline class="cls-2" points="9.58 11.32 10.03 13.67 8.74 16.01 10.65 17.94 13.06 16.73 15.31 17.51"/><polyline class="cls-2" points="13.06 16.73 15.31 17.51 16.7 19.8 19.32 19.11 19.48 16.42 21.28 14.86"/><polyline class="cls-2" points="19.48 16.42 21.28 14.86 23.96 14.8 24.67 12.18 22.42 10.71 21.97 8.37"/><polyline class="cls-2" points="22.42 10.71 21.97 8.37 23.26 6.02 21.35 4.09 18.94 5.3 16.69 4.52"/><circle class="cls-2" cx="16" cy="11.02" r="2.74"/></svg>