<?xml version="1.0" encoding="utf-8"?>
<!-- Generator: Adobe Illustrator 26.4.1, SVG Export Plug-In . SVG Version: 6.00 Build 0)  -->
<svg version="1.1" id="Layer_1" xmlns="http://www.w3.org/2000/svg" xmlns:xlink="http://www.w3.org/1999/xlink" x="0px" y="0px"
	 viewBox="0 0 320 320" style="enable-background:new 0 0 320 320;" xml:space="preserve">
<style type="text/css">
	.st0{clip-path:url(#SVGID_00000029732300122995431480000002739807412140896135_);fill:#4C6586;}
	.st1{clip-path:url(#SVGID_00000005953709625621401890000012835966389619108529_);fill:#4C6586;}
	.st2{clip-path:url(#SVGID_00000148642406145441973550000002156322408310783911_);fill:#4C6586;}
	.st3{fill:none;}
</style>
<g>
	<g>
		<defs>
			<rect id="SVGID_1_" x="40" y="52" width="240" height="216"/>
		</defs>
		<clipPath id="SVGID_00000013191691224402404320000006416057827895928478_">
			<use xlink:href="#SVGID_1_"  style="overflow:visible;"/>
		</clipPath>
		<path style="clip-path:url(#SVGID_00000013191691224402404320000006416057827895928478_);fill:#4C6586;" d="M92.5,187H55V79h37.5
			V187z M62.5,216.2c0-6.2,5-11.2,11.2-11.2s11.2,5,11.2,11.2s-5,11.2-11.2,11.2C67.5,227.5,62.5,222.5,62.5,216.2 M107.5,261.2
			V58.8c0-3.7-2.5-6.8-5.6-6.8H45.6c-3.1,0-5.6,3-5.6,6.8v202.5c0,3.7,2.5,6.8,5.6,6.8h56.2C105,268,107.5,265,107.5,261.2"/>
	</g>
	<g>
		<defs>
			<rect id="SVGID_00000026144036177321832120000011859065524071583370_" x="40" y="52" width="240" height="216"/>
		</defs>
		<clipPath id="SVGID_00000034083723893626118390000003102453069273369011_">
			<use xlink:href="#SVGID_00000026144036177321832120000011859065524071583370_"  style="overflow:visible;"/>
		</clipPath>
		<path style="clip-path:url(#SVGID_00000034083723893626118390000003102453069273369011_);fill:#4C6586;" d="M265,187h-37.5V79H265
			V187z M235,216.2c0-6.2,5-11.2,11.2-11.2s11.2,5,11.2,11.2s-5,11.2-11.2,11.2C240,227.5,235,222.5,235,216.2 M280,261.2V58.8
			c0-3.7-2.5-6.8-5.6-6.8h-56.2c-3.1,0-5.6,3-5.6,6.8v202.5c0,3.7,2.5,6.8,5.6,6.8h56.2C277.5,268,280,265,280,261.2"/>
	</g>
	<g>
		<defs>
			<rect id="SVGID_00000026863273660890096700000017218890504784789161_" x="40" y="52" width="240" height="216"/>
		</defs>
		<clipPath id="SVGID_00000162334906841427020420000013783806232118405524_">
			<use xlink:href="#SVGID_00000026863273660890096700000017218890504784789161_"  style="overflow:visible;"/>
		</clipPath>
		<path style="clip-path:url(#SVGID_00000162334906841427020420000013783806232118405524_);fill:#4C6586;" d="M178.8,187h-37.5V79
			h37.5V187z M148.8,216.2c0-6.2,5-11.2,11.2-11.2s11.2,5,11.2,11.2s-5,11.2-11.2,11.2C153.8,227.5,148.8,222.5,148.8,216.2
			 M193.8,261.2V58.8c0-3.7-2.5-6.8-5.6-6.8H132c-3.1,0-5.6,3-5.6,6.8v202.5c0,3.7,2.5,6.8,5.6,6.8h56.2
			C191.2,268,193.8,265,193.8,261.2"/>
	</g>
</g>
<rect class="st3" width="320" height="320"/>
</svg>
