<?xml version="1.0" encoding="utf-8"?>
<!-- Generator: Adobe Illustrator 18.0.0, SVG Export Plug-In . SVG Version: 6.00 Build 0)  -->
<!DOCTYPE svg PUBLIC "-//W3C//DTD SVG 1.1//EN" "http://www.w3.org/Graphics/SVG/1.1/DTD/svg11.dtd">
<svg version="1.1" id="Layer_1" xmlns="http://www.w3.org/2000/svg" xmlns:xlink="http://www.w3.org/1999/xlink" x="0px" y="0px"
	 width="32px" height="32px" viewBox="0 0 32 32" enable-background="new 0 0 32 32" xml:space="preserve">
<g>
	<defs>
		<rect id="SVGID_1_" x="3" y="3" width="25.4" height="25.8"/>
	</defs>
	<clipPath id="SVGID_2_">
		<use xlink:href="#SVGID_1_"  overflow="visible"/>
	</clipPath>
	<path clip-path="url(#SVGID_2_)" fill="#F98128" d="M16.9,12.4c0.8-2.5,0.3-5.3-1.6-7.3C12.5,2.3,8,2.3,5.2,5
		c-2.8,2.8-2.9,7.3-0.1,10.1c1.9,2,4.7,2.6,7.2,1.8l3.3,3.4l2.3,0.5l0.4,2.3l2.3,0.5l0.4,2.3l2.3,0.5l0.4,2.3l4.6,0.1l0.1-4.6
		L16.9,12.4z"/>
	<path clip-path="url(#SVGID_2_)" fill="#FFFFFF" d="M7,9.6c0.8,0.8,2,0.8,2.8,0c0.8-0.8,0.8-2,0-2.8C9,6.2,7.8,6.1,7,6.9
		C6.2,7.6,6.2,8.9,7,9.6"/>
</g>
</svg>
