<svg id="Layer_1" data-name="Layer 1" xmlns="http://www.w3.org/2000/svg" xmlns:xlink="http://www.w3.org/1999/xlink" viewBox="0 0 222.5 285"><defs><style>.cls-1{fill:none;}.cls-2{clip-path:url(#clip-path);}.cls-3{fill:#52658b;}</style><clipPath id="clip-path" transform="translate(-60 -20)"><rect class="cls-1" x="60" y="20" width="222.5" height="285"/></clipPath></defs><g class="cls-2"><path class="cls-3" d="M225,235H185v15h50a5,5,0,0,0,5-5V182.06a64.14,64.14,0,0,1-15,0ZM240,52.94V25a5,5,0,0,0-5-5H115a13.91,13.91,0,0,0-8.54,3.54L63.54,66.47A13.8,13.8,0,0,0,60,75V245a5,5,0,0,0,5,5h50V235H75V90h55V35h95V52.94a64.14,64.14,0,0,1,15,0" transform="translate(-60 -20)"/></g><polygon class="cls-3" points="70 185 70 245 40 245 90 285 140 245 110 245 110 185 70 185"/><g class="cls-2"><path class="cls-3" d="M268.58,113.21c0,10.69-21.37,32.07-21.37,21.38,0-21.38-21.38-21.38-21.38-32.07s10.69,0,21.38-10.69c7.56-7.56,21.37,10.69,21.37,21.38M218,116.89c-.87,11.21-.41,13-3.88,19-6.12,10.6-6.57,8.94-8.36,2.24-2.24-8.36-11.27-19.85-6.72-25.08s19.72-5.91,19,3.88m64.46.61a50,50,0,1,0-50,50,50,50,0,0,0,50-50" transform="translate(-60 -20)"/></g></svg>