<?xml version="1.0" encoding="utf-8"?>
<!-- Generator: Adobe Illustrator 18.0.0, SVG Export Plug-In . SVG Version: 6.00 Build 0)  -->
<!DOCTYPE svg PUBLIC "-//W3C//DTD SVG 1.1//EN" "http://www.w3.org/Graphics/SVG/1.1/DTD/svg11.dtd">
<svg version="1.1" id="Layer_1" xmlns="http://www.w3.org/2000/svg" xmlns:xlink="http://www.w3.org/1999/xlink" x="0px" y="0px"
	 width="32px" height="32px" viewBox="0 0 32 32" enable-background="new 0 0 32 32" xml:space="preserve">
<g>
	<defs>
		<rect id="SVGID_1_" width="32" height="32"/>
	</defs>
	<clipPath id="SVGID_2_">
		<use xlink:href="#SVGID_1_"  overflow="visible"/>
	</clipPath>
	
		<linearGradient id="SVGID_3_" gradientUnits="userSpaceOnUse" x1="-121.0938" y1="162.4375" x2="-120.0938" y2="162.4375" gradientTransform="matrix(32 0 0 -32 3875 5214)">
		<stop  offset="0" style="stop-color:#4C6585"/>
		<stop  offset="1.983430e-02" style="stop-color:#4C6585"/>
		<stop  offset="1" style="stop-color:#5A789F"/>
	</linearGradient>
	<rect clip-path="url(#SVGID_2_)" fill="url(#SVGID_3_)" width="32" height="32"/>
</g>
<g>
	<defs>
		<rect id="SVGID_4_" width="32" height="32"/>
	</defs>
	<clipPath id="SVGID_5_">
		<use xlink:href="#SVGID_4_"  overflow="visible"/>
	</clipPath>
	<path clip-path="url(#SVGID_5_)" fill="#FFFFFF" d="M21.6,26.3v-5.9c0-1.5-1.1-2.9-2.8-3.6c-0.7,0.5-1.7,0.9-2.8,0.9
		s-2.1-0.4-2.8-0.9c-1.7,0.7-2.8,2.1-2.8,3.6v5.9H21.6z"/>
	<path clip-path="url(#SVGID_5_)" fill="#FFFFFF" d="M16,15.8c2.1,0,3.8-1.9,3.8-4.2c0-2.3-1.7-4.2-3.8-4.2s-3.9,1.9-3.9,4.2
		C12.1,13.9,13.9,15.8,16,15.8"/>
	<path clip-path="url(#SVGID_5_)" fill="#FFFFFF" d="M20.1,10.1V7.4c0-1.9-1.8-2.7-4.1-2.7s-4.1,0.8-4.1,2.7v2.7H20.1z"/>
	<path clip-path="url(#SVGID_5_)" fill="#FFFFFF" d="M22,10c0-0.4-0.3-0.7-0.6-0.7H10.6C10.3,9.3,10,9.6,10,10
		c0,0.4,0.3,0.7,0.6,0.7h10.8C21.7,10.7,22,10.4,22,10"/>
</g>
</svg>
