<svg id="Layer_1" data-name="Layer 1" xmlns="http://www.w3.org/2000/svg" xmlns:xlink="http://www.w3.org/1999/xlink" viewBox="0 0 320 320"><defs><style>.cls-1{fill:none;}.cls-2{clip-path:url(#clip-path);}.cls-3{fill:#52658b;}</style><clipPath id="clip-path"><rect class="cls-1" width="320" height="320"/></clipPath></defs><g class="cls-2"><path class="cls-3" d="M260,258.34a7.5,7.5,0,0,1-7.18,7.8h-.32A7.5,7.5,0,0,1,245,259c-.32-7.31-3.43-28.42-13.83-38.13-6.58-6.13-26.14-10.44-37.83-13-13.89-3.05-19.09-4.2-20.47-10.13a8.1,8.1,0,0,1,2.93-8.2c17.76-14.2,21.49-34.83,21.49-49.64a51.84,51.84,0,0,0-1-10c-8.9.26-20.88-.51-37.77-3.1a234.76,234.76,0,0,0-40.75-2.63A73.56,73.56,0,0,0,116,136c-1.77,24.88,10.7,35.1,19.8,42.57,5.15,4.22,9.59,7.87,9.59,13.77,0,13.87-17.31,20.55-43.29,26.32C79.54,223.67,75,259.18,75,259.53a7.5,7.5,0,0,1-14.9-1.76c.22-1.89,5.83-46.43,38.83-53.75,22.87-5.08,29.19-9.09,30.93-10.89-1-.89-2.37-2-3.49-3-9.64-7.9-27.57-22.62-25.25-55.24A91.78,91.78,0,0,1,102.3,125c-4.92.48-7.68,1-7.68,1C78,129.88,74.9,119.53,74,114.34c-1.56-9,12.63-13,32.25-13.83l-.86-12.27c-1.48-21.18,19.87-32.21,47-34.11s49.85,6.06,51.33,27.23l1.49,21.36c4.14-.37,6.38-.71,6.38-.71,12.38-3.22,16.5,3.19,16.5,8.45s0,11.55-10.5,15.55a52.42,52.42,0,0,1-6.33,2,68.57,68.57,0,0,1,1,11.84c0,21.16-6.23,39.17-18.15,52.79l2.42.53c14.89,3.28,35.27,7.76,44.84,16.7C258.47,225.77,259.94,257,260,258.34M320,0H0V320H320Z"/></g></svg>