<?xml version="1.0" encoding="utf-8"?>
<!-- Generator: Adobe Illustrator 26.3.1, SVG Export Plug-In . SVG Version: 6.00 Build 0)  -->
<svg version="1.1" id="Layer_1" xmlns="http://www.w3.org/2000/svg" xmlns:xlink="http://www.w3.org/1999/xlink" x="0px" y="0px"
	 viewBox="0 0 320 320" style="enable-background:new 0 0 320 320;" xml:space="preserve">
<style type="text/css">
	.st0{clip-path:url(#SVGID_00000058563749537607231940000013427933508959386534_);fill:#52668C;}
	.st1{fill:none;}
</style>
<g>
	<defs>
		<rect id="SVGID_1_" x="37.9" y="45.4" width="244.2" height="229.1"/>
	</defs>
	<clipPath id="SVGID_00000176735399290896366620000010144070699127415698_">
		<use xlink:href="#SVGID_1_"  style="overflow:visible;"/>
	</clipPath>
	<path style="clip-path:url(#SVGID_00000176735399290896366620000010144070699127415698_);fill:#52668C;" d="M40,259.6v10
		c0,2.8,2.2,5,5,5h230c2.8,0,5-2.2,5-5v-10c0-2.8-2.2-5-5-5H45C42.2,254.6,40,256.8,40,259.6 M253,114.6H67l88.3-53.1
		c2.4-1.4,7-1.4,9.4,0L253,114.6z M114.8,219.6c0-0.3,0.2-0.5,0.2-0.8v-89.1h25v89.1c0,0,0,0.3,0.1,0.8H114.8z M179.8,219.6
		c0-0.3,0.2-0.5,0.2-0.8v-89.1h25v89.1c0,0,0,0.3,0.1,0.8H179.8z M275.3,110.5L172.4,48.6c-7.1-4.3-17.8-4.3-24.9,0L44.7,110.5
		c-7.3,4.4-7.2,9.5-6.5,12.1c0.7,2.6,3.2,7,11.8,7h25v89.1c0,0,0,0.3,0.1,0.8H60c-5,0-5,5-5,5v10c0,5,5,5,5,5h200c5,0,5-5,5-5v-10
		c0-5-5-5-5-5h-15.2c0-0.3,0.2-0.5,0.2-0.8v-89.1h25c8.6,0,11.1-4.4,11.8-7C282.5,120,282.6,114.9,275.3,110.5"/>
</g>
<rect class="st1" width="320" height="320"/>
</svg>
