<?xml version="1.0" encoding="utf-8"?>
<!-- Generator: Adobe Illustrator 26.3.1, SVG Export Plug-In . SVG Version: 6.00 Build 0)  -->
<svg version="1.1" id="Layer_1" xmlns="http://www.w3.org/2000/svg" xmlns:xlink="http://www.w3.org/1999/xlink" x="0px" y="0px"
	 viewBox="0 0 320 320" style="enable-background:new 0 0 320 320;" xml:space="preserve">
<style type="text/css">
	.st0{clip-path:url(#SVGID_00000116209370644495221310000011134126493611634613_);fill:#52668C;}
	.st1{fill:none;}
</style>
<g>
	<defs>
		<rect id="SVGID_1_" x="60" y="66.8" width="200" height="186.3"/>
	</defs>
	<clipPath id="SVGID_00000013905919993095108290000011925363585543962756_">
		<use xlink:href="#SVGID_1_"  style="overflow:visible;"/>
	</clipPath>
	<path style="clip-path:url(#SVGID_00000013905919993095108290000011925363585543962756_);fill:#52668C;" d="M67.5,253.2
		c-0.3,0-0.6,0-0.9-0.1c-4.1-0.5-7.1-4.2-6.6-8.3c0.2-1.9,5.8-46.4,38.8-53.8c22.9-5.1,29.2-9.1,30.9-10.9c-1-0.9-2.4-2-3.5-3
		c-9.6-7.9-27.6-22.6-25.3-55.2c3.4-47.9,36.3-55.1,55.6-55.1c12.3,0,25.8,5.5,36.1,14.8c8.9,8,19.5,22.3,19.5,45.2
		c0,21.2-6.2,39.2-18.1,52.8c0.8,0.2,1.6,0.4,2.4,0.5c14.9,3.3,35.3,7.8,44.8,16.7c17.1,15.9,18.5,47.2,18.6,48.5
		c0.2,4.1-3,7.6-7.2,7.8c-4.2,0.2-7.6-3-7.8-7.2c-0.3-7.3-3.4-28.4-13.8-38.1c-6.6-6.1-26.1-10.4-37.8-13
		c-13.9-3.1-19.1-4.2-20.5-10.1c-0.7-3,0.4-6.2,2.9-8.2c17.8-14.2,21.5-34.8,21.5-49.6c0-31.8-26.5-45-40.6-45
		c-25.4,0-38.7,13.5-40.6,41.2c-1.8,24.9,10.7,35.1,19.8,42.6c5.1,4.2,9.6,7.9,9.6,13.8c0,13.9-17.3,20.6-43.3,26.3
		c-22.3,5-27.1,40.5-27.2,40.9C74.5,250.3,71.3,253.2,67.5,253.2"/>
</g>
<rect class="st1" width="320" height="320"/>
</svg>
