<svg id="Layer_1" data-name="Layer 1" xmlns="http://www.w3.org/2000/svg" xmlns:xlink="http://www.w3.org/1999/xlink" viewBox="0 0 255 240"><defs><style>.cls-1{fill:none;}.cls-2{clip-path:url(#clip-path);}.cls-3{fill:#52658b;}</style><clipPath id="clip-path" transform="translate(-30 -35)"><rect class="cls-1" x="30" y="35" width="255" height="240"/></clipPath></defs><g class="cls-2"><path class="cls-3" d="M183.79,45H85a13.91,13.91,0,0,0-8.54,3.54L33.54,91.47A13.8,13.8,0,0,0,30,100V270a5,5,0,0,0,5,5H205a5,5,0,0,0,5-5V145a64.71,64.71,0,0,1-15-8.8V260H45V115h55V60h75a64.92,64.92,0,0,1,8.8-15" transform="translate(-30 -35)"/></g><rect class="cls-3" x="41.5" y="105" width="90" height="15"/><rect class="cls-3" x="41.5" y="135" width="70" height="15"/><rect class="cls-3" x="41.5" y="165" width="90" height="15"/><g class="cls-2"><path class="cls-3" d="M238.29,149.92,227,221.19l39.51,6.26L282,129.92a64.78,64.78,0,0,1-43.66,20" transform="translate(-30 -35)"/><path class="cls-3" d="M271.08,80.71c0,10.69-21.37,32.07-21.37,21.38,0-21.38-21.38-21.38-21.38-32.07S239,70,249.71,59.33c7.56-7.55,21.37,10.69,21.37,21.38m-50.54,3.68c-.87,11.21-.41,13-3.88,19-6.12,10.6-6.56,8.94-8.36,2.24-2.24-8.36-11.27-19.85-6.72-25.08s19.72-5.91,19,3.88M285,85a50,50,0,1,0-50,50,50,50,0,0,0,50-50" transform="translate(-30 -35)"/><path class="cls-3" d="M255,235.76,237.7,233l-12.32-2,4,15.89h0l6,23.63c1.36,5.36,4.84,5.91,7.79,1.24l16.39-26h0l5.33-8.45L255,235.76Z" transform="translate(-30 -35)"/></g></svg>