<?xml version="1.0" encoding="utf-8"?>
<!-- Generator: Adobe Illustrator 26.3.1, SVG Export Plug-In . SVG Version: 6.00 Build 0)  -->
<svg version="1.1" id="Layer_1" xmlns="http://www.w3.org/2000/svg" xmlns:xlink="http://www.w3.org/1999/xlink" x="0px" y="0px"
	 viewBox="0 0 320 320" style="enable-background:new 0 0 320 320;" xml:space="preserve">
<style type="text/css">
	.st0{clip-path:url(#SVGID_00000069371852311726463880000016650827747839681690_);fill:#52658B;}
	.st1{fill:none;}
</style>
<g>
	<defs>
		<rect id="SVGID_1_" x="40" y="73.2" width="239.2" height="166.8"/>
	</defs>
	<clipPath id="SVGID_00000059304246512990156210000004446699355625329036_">
		<use xlink:href="#SVGID_1_"  style="overflow:visible;"/>
	</clipPath>
	<path style="clip-path:url(#SVGID_00000059304246512990156210000004446699355625329036_);fill:#52658B;" d="M85,130H55v-10h30V130z
		 M85,110H55v-10h30V110z M100,235V85c0-2.8-2.2-5-5-5H45c-2.8,0-5,2.2-5,5v150c0,2.8,2.2,5,5,5h50C97.8,240,100,237.8,100,235"/>
	<path style="clip-path:url(#SVGID_00000059304246512990156210000004446699355625329036_);fill:#52658B;" d="M165,130h-30v-10h30
		V130z M165,110h-30v-10h30V110z M180,235V85c0-2.8-2.2-5-5-5h-50c-2.8,0-5,2.2-5,5v150c0,2.8,2.2,5,5,5h50
		C177.8,240,180,237.8,180,235"/>
	<path style="clip-path:url(#SVGID_00000059304246512990156210000004446699355625329036_);fill:#52658B;" d="M246.1,124.3l-29.5,5.2
		l-1.7-9.9l29.5-5.2L246.1,124.3z M242.7,104.6l-29.5,5.2l-1.7-9.8l29.5-5.2L242.7,104.6z M279.1,225.1l-26-147.7
		c-0.5-2.7-3.1-4.5-5.8-4.1L198.1,82c-2.7,0.5-4.5,3.1-4.1,5.8l26,147.7c0.5,2.7,3.1,4.5,5.8,4.1l49.2-8.7
		C277.8,230.4,279.6,227.8,279.1,225.1"/>
</g>
<rect class="st1" width="320" height="320"/>
</svg>
