<?xml version="1.0" encoding="utf-8"?>
<!-- Generator: Adobe Illustrator 26.5.0, SVG Export Plug-In . SVG Version: 6.00 Build 0)  -->
<svg version="1.1" id="Layer_1" xmlns="http://www.w3.org/2000/svg" xmlns:xlink="http://www.w3.org/1999/xlink" x="0px" y="0px"
	 viewBox="0 0 320 320" style="enable-background:new 0 0 320 320;" xml:space="preserve">
<style type="text/css">
	.st0{clip-path:url(#SVGID_00000005265412574542240290000007240142946539876241_);fill:#4C6586;}
</style>
<g>
	<defs>
		<rect id="SVGID_1_" width="320" height="320"/>
	</defs>
	<clipPath id="SVGID_00000125604900376983157910000013219506356567749262_">
		<use xlink:href="#SVGID_1_"  style="overflow:visible;"/>
	</clipPath>
	<path style="clip-path:url(#SVGID_00000125604900376983157910000013219506356567749262_);fill:#4C6586;" d="M238.5,207.8
		c4.7-1.6,9.8-2.6,15-2.7l-0.2-132.6c0-4.1-3.4-7.5-7.5-7.5h0l-136.3,0.2c-0.7,0-1.5,0-2.2,0c-4.5,0-7.3,0-11.2-3.9
		c-2.2-2.2-4.7-5.2-7-8.2h133.7c4.1,0,7.5-3.4,7.5-7.5c0-4.1-3.4-7.5-7.5-7.5H74.4c-1.8,0-3.5,0.7-4.9,1.8c-1.9,1.4-3.2,3.6-3.2,6.1
		v179.5c0,5.8,0.3,25.1,3.6,33c4.1,9.5,18.1,23.6,35.3,23.7l107.7-0.1c-2.9-4.5-5.1-9.6-6.5-15l-101.2,0.1
		c-10.2-0.1-19.3-9.4-21.5-14.7c-1.5-3.4-2.4-16.7-2.4-27V67.2c1.4,1.6,2.8,3.2,4.2,4.6c8.3,8.3,16.4,8.3,21.7,8.3c0.7,0,1.3,0,2,0
		c0.1,0,0.1,0,0.2,0L238.4,80L238.5,207.8z M208.6,137h-80v15h80V137z M128.6,125.6h80v-15h-80V125.6z M262.1,255l14.1,14.1
		l-7.1,7.1L255,262.1l-14.1,14.1l-7.1-7.1l14.1-14.1l-14.1-14.1l7.1-7.1l14.1,14.1l14.1-14.1l7.1,7.1L262.1,255z M290,255
		c0-19.3-15.7-35-35-35s-35,15.7-35,35c0,19.3,15.7,35,35,35S290,274.3,290,255"/>
</g>
</svg>
