<?xml version="1.0" encoding="utf-8"?>
<!-- Generator: Adobe Illustrator 26.3.1, SVG Export Plug-In . SVG Version: 6.00 Build 0)  -->
<svg version="1.1" id="Layer_1" xmlns="http://www.w3.org/2000/svg" xmlns:xlink="http://www.w3.org/1999/xlink" x="0px" y="0px"
	 viewBox="0 0 320 320" style="enable-background:new 0 0 320 320;" xml:space="preserve">
<style type="text/css">
	.st0{clip-path:url(#SVGID_00000150818464763084149090000018157195752321586848_);fill:#52658B;}
	.st1{fill:none;}
</style>
<g>
	<defs>
		<rect id="SVGID_1_" x="67.5" y="30" width="172.5" height="260"/>
	</defs>
	<clipPath id="SVGID_00000124144069206798879120000008934811360531554719_">
		<use xlink:href="#SVGID_1_"  style="overflow:visible;"/>
	</clipPath>
	<path style="clip-path:url(#SVGID_00000124144069206798879120000008934811360531554719_);fill:#52658B;" d="M107.5,95
		c-13.8,0-25-11.2-25-25s11.2-25,25-25c13.8,0,25,11.2,25,25S121.3,95,107.5,95 M115,192.5v-50h76.1c3.2,10.1,12.7,17.5,23.9,17.5
		c13.8,0,25-11.2,25-25c0-13.8-11.2-25-25-25c-11.2,0-20.7,7.4-23.9,17.5H115v-18.2c18.5-3.5,32.5-19.8,32.5-39.3
		c0-22.1-17.9-40-40-40c-22.1,0-40,17.9-40,40c0,19.5,14,35.8,32.5,39.3v18.2v15v50v15v50V270v2.5h91.1
		c3.2,10.1,12.7,17.5,23.9,17.5c13.8,0,25-11.2,25-25s-11.2-25-25-25c-11.2,0-20.7,7.4-23.9,17.5H115v-50h76.1
		c3.2,10.1,12.7,17.5,23.9,17.5c13.8,0,25-11.2,25-25c0-13.8-11.2-25-25-25c-11.2,0-20.7,7.4-23.9,17.5H115z"/>
</g>
<rect class="st1" width="320" height="320"/>
</svg>
