<?xml version="1.0" encoding="utf-8"?>
<!-- Generator: Adobe Illustrator 26.2.1, SVG Export Plug-In . SVG Version: 6.00 Build 0)  -->
<svg version="1.1" id="Layer_1" xmlns="http://www.w3.org/2000/svg" xmlns:xlink="http://www.w3.org/1999/xlink" x="0px" y="0px"
	 viewBox="0 0 320 320" style="enable-background:new 0 0 320 320;" xml:space="preserve">
<style type="text/css">
	.st0{clip-path:url(#SVGID_00000151536431981476439760000004874622159295254706_);fill:#52658B;}
</style>
<g>
	<defs>
		<rect id="SVGID_1_" width="320" height="320"/>
	</defs>
	<clipPath id="SVGID_00000091723593982131216170000003476377675023543987_">
		<use xlink:href="#SVGID_1_"  style="overflow:visible;"/>
	</clipPath>
	<path style="clip-path:url(#SVGID_00000091723593982131216170000003476377675023543987_);fill:#52658B;" d="M175,70
		c0-2.8-2.2-5-5-5H90c-2.8,0-5,2.2-5,5v40c0,2.8,2.2,5,5,5h80c2.8,0,5-2.2,5-5V70z"/>
	<path style="clip-path:url(#SVGID_00000091723593982131216170000003476377675023543987_);fill:#52658B;" d="M275,140
		c0-2.8-2.2-5-5-5H90c-2.8,0-5,2.2-5,5v40c0,2.8,2.2,5,5,5h180c2.8,0,5-2.2,5-5V140z"/>
	<path style="clip-path:url(#SVGID_00000091723593982131216170000003476377675023543987_);fill:#52658B;" d="M235,210
		c0-2.8-2.2-5-5-5H90c-2.8,0-5,2.2-5,5v40c0,2.8,2.2,5,5,5h140c2.8,0,5-2.2,5-5V210z"/>
	<path style="clip-path:url(#SVGID_00000091723593982131216170000003476377675023543987_);fill:#52658B;" d="M65,45c0-2.8-2.2-5-5-5
		H50c-2.8,0-5,2.2-5,5v230c0,2.8,2.2,5,5,5h10c2.8,0,5-2.2,5-5V45z"/>
</g>
</svg>
