<?xml version="1.0" encoding="utf-8"?>
<!-- Generator: Adobe Illustrator 26.5.0, SVG Export Plug-In . SVG Version: 6.00 Build 0)  -->
<svg version="1.1" id="Layer_1" xmlns="http://www.w3.org/2000/svg" xmlns:xlink="http://www.w3.org/1999/xlink" x="0px" y="0px"
	 viewBox="0 0 320 320" style="enable-background:new 0 0 320 320;" xml:space="preserve">
<style type="text/css">
	.st0{clip-path:url(#SVGID_00000100380394490102739140000006084903577901067416_);fill:#4C6586;}
	.st1{fill:none;}
</style>
<g>
	<g>
		<defs>
			<rect id="SVGID_1_" x="26.2" y="46.3" width="267.5" height="227.4"/>
		</defs>
		<clipPath id="SVGID_00000013186275668095573560000014110610440397639067_">
			<use xlink:href="#SVGID_1_"  style="overflow:visible;"/>
		</clipPath>
		<path style="clip-path:url(#SVGID_00000013186275668095573560000014110610440397639067_);fill:#4C6586;" d="M169,108.7
			C146.1,121.9,58.6,169.8,46.4,176c-12.5,6.4-16.6,14.8-17.8,20.9c-2.3,8.5-3.9,20.4,0,31.7c7.1,20.7,24.9,33.1,37,29
			c5.1-1.8,8.4-5.7,11.2-11.8c2.4-5.3,2.5-15.7-0.3-23.8c-4.3-12.6-11.9-21.8-22.3-20.7c-6.7,1.6-12.9,6.9-8.1,20.1
			c1.3-3.7,1.4-9.6,8-9.6c13.6,0,18.9,25.9,9.7,30.8c-6.1,3.2-17.1,0.9-23.7-14.8c-5.3-15.5-4.8-32.9,8.5-37.2
			c17-5.8,25.9,10.5,29.7,15.9c3.6,5.1,20.1,31.4,8.1,67.2c0,0,57.9-79.9,115.5-119.9c0.7-7.2-0.1-19.5-10.2-32.6
			C184.8,112.4,176.2,109.4,169,108.7 M287.7,63c-15.4-23.3-43-15.4-43-15.4s-30.2,28.3-60.2,50.8c7.1,1,16,2.6,27.2,16.2
			c8,9.8,7.6,21.5,6.3,28.5c35.5-22.7,68.2-37.1,68.2-37.1C293,100.2,298.4,79.5,287.7,63"/>
	</g>
</g>
<rect class="st1" width="320" height="320"/>
</svg>
