<?xml version="1.0" encoding="utf-8"?>
<!-- Generator: Adobe Illustrator 26.5.0, SVG Export Plug-In . SVG Version: 6.00 Build 0)  -->
<svg version="1.1" id="Layer_1" xmlns="http://www.w3.org/2000/svg" xmlns:xlink="http://www.w3.org/1999/xlink" x="0px" y="0px"
	 viewBox="0 0 320 320" style="enable-background:new 0 0 320 320;" xml:space="preserve">
<style type="text/css">
	.st0{fill:none;}
	.st1{clip-path:url(#SVGID_00000172408715196789282850000009514357067660956061_);fill:#4C6586;}
</style>
<rect class="st0" width="320" height="320"/>
<g>
	<g>
		<defs>
			<rect id="SVGID_1_" width="320" height="320"/>
		</defs>
		<clipPath id="SVGID_00000175299292794263336760000008093722976065470366_">
			<use xlink:href="#SVGID_1_"  style="overflow:visible;"/>
		</clipPath>
		<path style="clip-path:url(#SVGID_00000175299292794263336760000008093722976065470366_);fill:#4C6586;" d="M205,64.4l-150,150V55
			h150V64.4z M215,125c1.7,0,3.3,0.4,5,0.5V45c0-2.8-2.2-5-5-5H45c-2.8,0-5,2.2-5,5v210c0,2.8,2.2,5,5,5h101.6
			c-3.4-4.7-6.4-9.7-8.8-15H55v-9.4l150-150v40C208.3,125.2,211.6,125,215,125 M261.7,233.4c-1.3,2.6-4,4.2-6.8,4.2
			c-1.1,0-2.3-0.3-3.4-0.8l-40-20c-2.6-1.3-4.2-3.9-4.2-6.7v-40c0-4.2,3.4-7.5,7.5-7.5c4.2,0,7.5,3.4,7.5,7.5v35.3l35.8,17.9
			C262.1,225.1,263.6,229.6,261.7,233.4 M285,210c0-38.7-31.3-70-70-70s-70,31.3-70,70s31.3,70,70,70S285,248.7,285,210"/>
	</g>
</g>
</svg>
