<svg id="Layer_1" data-name="Layer 1" xmlns="http://www.w3.org/2000/svg" xmlns:xlink="http://www.w3.org/1999/xlink" viewBox="0 0 215.38 278.05"><defs><style>.cls-1{fill:none;}.cls-2{clip-path:url(#clip-path);}.cls-3{fill:#52658b;}</style><clipPath id="clip-path" transform="translate(-52.31 -25.82)"><rect class="cls-1" x="52.31" y="25.83" width="215.38" height="278.04"/></clipPath></defs><g class="cls-2"><path class="cls-3" d="M237.72,124.28c0,23-46,69.06-46,46,0-46-46-46-46-69.07s23,0,46-23c16.28-16.28,46,23,46,46.05M128.85,132.2C127,156.36,128,160.09,120.5,173c-13.19,22.83-14.14,19.26-18,4.83-4.82-18-24.28-42.74-14.47-54s42.47-12.72,40.83,8.36m138.84,1.32a107.69,107.69,0,1,0-158.23,95.1c12.5,5,27.54,8.4,43.59,6.45V193.4l9.58,7.12,41.8,31.09a107.68,107.68,0,0,0,63.26-98.09" transform="translate(-52.31 -25.82)"/><path class="cls-3" d="M77.64,224.83s39.92,36.86,87.82,27.79V217.75l59.07,43.94-59.07,42.18V276.21S108,286.44,77.64,258Z" transform="translate(-52.31 -25.82)"/></g></svg>