<?xml version="1.0" encoding="utf-8"?>
<!-- Generator: Adobe Illustrator 26.5.0, SVG Export Plug-In . SVG Version: 6.00 Build 0)  -->
<svg version="1.1" id="Layer_1" xmlns="http://www.w3.org/2000/svg" xmlns:xlink="http://www.w3.org/1999/xlink" x="0px" y="0px"
	 viewBox="0 0 320 320" style="enable-background:new 0 0 320 320;" xml:space="preserve">
<style type="text/css">
	.st0{clip-path:url(#SVGID_00000062186795308296181110000017933305634923756427_);fill:#4C6586;}
</style>
<g>
	<g>
		<g>
			<defs>
				<rect id="SVGID_1_" y="0" width="320" height="320"/>
			</defs>
			<clipPath id="SVGID_00000044175935547576866750000000824950399012455832_">
				<use xlink:href="#SVGID_1_"  style="overflow:visible;"/>
			</clipPath>
			<path style="clip-path:url(#SVGID_00000044175935547576866750000000824950399012455832_);fill:#4C6586;" d="M226.6,302.1
				c-0.3-0.2-0.5-0.3-0.8-0.5l0.4,0.7L226.6,302.1z M205.8,128.7l-39.6-41L181.3,31l-47.9,27.7L81.8,24.6l3.7,61.7L37.6,114
				l56.7,15.2L110,184l34.1-51.6L205.8,128.7z M200,255c0-12.6,4.3-24.3,11.4-33.6l-44.2-76.5l-15.4,0.9l-8.5,12.9L200,257
				C200,256.4,200,255.7,200,255 M262.1,255l14.1,14.1l-7.1,7.1L255,262.1l-14.1,14.1l-7.1-7.1l14.1-14.1l-14.1-14.1l7.1-7.1
				l14.1,14.1l14.1-14.1l7.1,7.1L262.1,255z M290,255c0-19.3-15.7-35-35-35s-35,15.7-35,35s15.7,35,35,35S290,274.3,290,255"/>
		</g>
	</g>
</g>
</svg>
