<svg id="Layer_1" data-name="Layer 1" xmlns="http://www.w3.org/2000/svg" xmlns:xlink="http://www.w3.org/1999/xlink" viewBox="0 0 200 201.28"><defs><style>.cls-1{fill:none;}.cls-2{clip-path:url(#clip-path);}.cls-3{fill:#52658b;}</style><clipPath id="clip-path" transform="translate(-60 -69.36)"><rect class="cls-1" x="60" y="69.36" width="200" height="201.27"/></clipPath></defs><g class="cls-2"><path class="cls-3" d="M170,135H100v15h70Zm-70-15h90V105H100Zm0,60h90V165H100Zm145,14.36a10,10,0,0,1-10,10H126.93L105,230.64V204.36H85a10,10,0,0,1-10-10v-100a10,10,0,0,1,10-10H235a10,10,0,0,1,10,10Zm15,5v-110a20,20,0,0,0-20-20H80a20,20,0,0,0-20,20v110a20,20,0,0,0,20,20H90v51.28l42.79-51.28H240a20,20,0,0,0,20-20" transform="translate(-60 -69.36)"/></g></svg>