<?xml version="1.0" encoding="utf-8"?>
<!-- Generator: Adobe Illustrator 26.3.1, SVG Export Plug-In . SVG Version: 6.00 Build 0)  -->
<svg version="1.1" id="Layer_1" xmlns="http://www.w3.org/2000/svg" xmlns:xlink="http://www.w3.org/1999/xlink" x="0px" y="0px"
	 viewBox="0 0 320 320" style="enable-background:new 0 0 320 320;" xml:space="preserve">
<style type="text/css">
	.st0{clip-path:url(#SVGID_00000165920158642670745590000003822269365198878108_);fill:#52668C;}
</style>
<g>
	<defs>
		<rect id="SVGID_1_" width="320" height="320"/>
	</defs>
	<clipPath id="SVGID_00000140695429900743591330000014750320185481330856_">
		<use xlink:href="#SVGID_1_"  style="overflow:visible;"/>
	</clipPath>
	<path style="clip-path:url(#SVGID_00000140695429900743591330000014750320185481330856_);fill:#52668C;" d="M262.5,255h-205v-76.2
		h75v7.1c0,5.5,4.5,10,10,10h35c5.5,0,10-4.5,10-10v-7.1h75V255z M262.5,106.2v57.6h-75c0-5.5-4.5-10-10-10h-35c-5.5,0-10,4.5-10,10
		h-75v-57.6H262.5z M177.5,91.2h-35c0-8.7,0-25.6,0-25.8c0.2-8.5,8-15.4,17.5-15.4c9.5,0,17.3,6.9,17.5,15.5
		C177.5,65.7,177.5,82.5,177.5,91.2 M277.5,260V101.2c0-5.5-4.5-10-10-10h-75c0-8.7,0-25.6,0-25.7C192.4,48.7,177.8,35,160,35
		c-17.8,0-32.4,13.7-32.5,30.5c0,0.1,0,17,0,25.7h-75c-5.5,0-10,4.5-10,10V260c0,5.5,4.5,10,10,10h215
		C273,270,277.5,265.5,277.5,260"/>
</g>
</svg>
