<?xml version="1.0" encoding="utf-8"?>
<!-- Generator: Adobe Illustrator 18.0.0, SVG Export Plug-In . SVG Version: 6.00 Build 0)  -->
<!DOCTYPE svg PUBLIC "-//W3C//DTD SVG 1.1//EN" "http://www.w3.org/Graphics/SVG/1.1/DTD/svg11.dtd">
<svg version="1.1" id="Layer_1" xmlns="http://www.w3.org/2000/svg" xmlns:xlink="http://www.w3.org/1999/xlink" x="0px" y="0px" width="32px" height="32px"
	 viewBox="0 0 32 32" enable-background="new 0 0 32 32" xml:space="preserve">
<rect fill="#52658A" width="32" height="32"/>
<rect x="17" y="13.2" fill="#FFFFFF" width="12.5" height="1.9"/>
<rect x="17" y="17" fill="#FFFFFF" width="12.5" height="1.9"/>
<rect x="17" y="20.9" fill="#FFFFFF" width="12.5" height="1.9"/>
<g>
	<defs>
		<rect id="SVGID_1_" width="32" height="32"/>
	</defs>
	<clipPath id="SVGID_2_">
		<use xlink:href="#SVGID_1_"  overflow="visible"/>
	</clipPath>
	<path clip-path="url(#SVGID_2_)" fill="#FFFFFF" d="M14.1,26.2v-6.1c0-1.6-1.2-3-2.9-3.7c-0.8,0.5-1.7,0.9-2.9,0.9
		c-1.2,0-2.1-0.4-2.9-0.9c-1.7,0.8-2.9,2.1-2.9,3.7v6.1H14.1z"/>
	<path clip-path="url(#SVGID_2_)" fill="#FFFFFF" d="M8.3,15.4c2.2,0,4-1.9,4-4.3c0-2.4-1.8-4.3-4-4.3s-4,1.9-4,4.3
		C4.3,13.5,6.1,15.4,8.3,15.4"/>
</g>
</svg>
