<?xml version="1.0" encoding="utf-8"?>
<!-- Generator: Adobe Illustrator 18.0.0, SVG Export Plug-In . SVG Version: 6.00 Build 0)  -->
<!DOCTYPE svg PUBLIC "-//W3C//DTD SVG 1.1//EN" "http://www.w3.org/Graphics/SVG/1.1/DTD/svg11.dtd">
<svg version="1.1" id="Layer_1" xmlns="http://www.w3.org/2000/svg" xmlns:xlink="http://www.w3.org/1999/xlink" x="0px" y="0px"
	 width="32px" height="32px" viewBox="0 0 32 32" enable-background="new 0 0 32 32" xml:space="preserve">
<g>
	<defs>
		<path id="SVGID_1_" d="M16,16.9c-1.4,0-2.6-0.5-3.5-1.1C10.4,16.8,9,18.4,9,20.4v7.4h14v-7.4c0-1.9-1.4-3.6-3.5-4.5
			C18.6,16.5,17.4,16.9,16,16.9"/>
	</defs>
	<clipPath id="SVGID_2_">
		<use xlink:href="#SVGID_1_"  overflow="visible"/>
	</clipPath>
	
		<linearGradient id="SVGID_3_" gradientUnits="userSpaceOnUse" x1="-115.4286" y1="167.726" x2="-114.4286" y2="167.726" gradientTransform="matrix(14 0 0 -14 1625 2370)">
		<stop  offset="0" style="stop-color:#2F5A28"/>
		<stop  offset="1.983430e-02" style="stop-color:#2F5A28"/>
		<stop  offset="1" style="stop-color:#6E9F3C"/>
	</linearGradient>
	<rect x="9" y="15.9" clip-path="url(#SVGID_2_)" fill="url(#SVGID_3_)" width="14" height="12"/>
</g>
<g>
	<defs>
		<ellipse id="SVGID_4_" cx="16" cy="9.4" rx="4.8" ry="5.2"/>
	</defs>
	<clipPath id="SVGID_5_">
		<use xlink:href="#SVGID_4_"  overflow="visible"/>
	</clipPath>
	
		<linearGradient id="SVGID_6_" gradientUnits="userSpaceOnUse" x1="-111.0779" y1="172.0715" x2="-110.0779" y2="172.0715" gradientTransform="matrix(9.625 0 0 -9.625 1080.3125 1665.625)">
		<stop  offset="0" style="stop-color:#DBB395"/>
		<stop  offset="1.983430e-02" style="stop-color:#DBB395"/>
		<stop  offset="1" style="stop-color:#EAC2A4"/>
	</linearGradient>
	<rect x="11.2" y="4.2" clip-path="url(#SVGID_5_)" fill="url(#SVGID_6_)" width="9.6" height="10.5"/>
</g>
<polygon fill="#FFFFFF" points="13,15.8 16,19.8 19,15.8 "/>
<g>
	<defs>
		<polygon id="SVGID_7_" points="14.1,16.3 16,18.8 17.9,16.3 		"/>
	</defs>
	<clipPath id="SVGID_8_">
		<use xlink:href="#SVGID_7_"  overflow="visible"/>
	</clipPath>
	
		<linearGradient id="SVGID_9_" gradientUnits="userSpaceOnUse" x1="-102.6667" y1="179.9063" x2="-101.6667" y2="179.9063" gradientTransform="matrix(6 0 0 -6 629 1097)">
		<stop  offset="0" style="stop-color:#C70A0A"/>
		<stop  offset="1.000000e-02" style="stop-color:#C70A0A"/>
		<stop  offset="0.3741" style="stop-color:#CA0C0A"/>
		<stop  offset="0.594" style="stop-color:#D2140A"/>
		<stop  offset="0.7755" style="stop-color:#E0210A"/>
		<stop  offset="0.9352" style="stop-color:#F4330A"/>
		<stop  offset="1" style="stop-color:#FF3C0A"/>
	</linearGradient>
	<rect x="14.1" y="16.3" clip-path="url(#SVGID_8_)" fill="url(#SVGID_9_)" width="3.8" height="2.5"/>
</g>
</svg>
