<?xml version="1.0" encoding="utf-8"?>
<!-- Generator: Adobe Illustrator 27.0.0, SVG Export Plug-In . SVG Version: 6.00 Build 0)  -->
<svg version="1.1" id="Layer_1" xmlns="http://www.w3.org/2000/svg" xmlns:xlink="http://www.w3.org/1999/xlink" x="0px" y="0px"
	 viewBox="0 0 320 320" style="enable-background:new 0 0 320 320;" xml:space="preserve">
<style type="text/css">
	.st0{clip-path:url(#SVGID_00000052787782521467330270000010869571030118087069_);fill:#4C6586;}
</style>
<g>
	<g>
		<defs>
			<rect id="SVGID_1_" y="0" width="320" height="320"/>
		</defs>
		<clipPath id="SVGID_00000018205896529268051640000016895853058210498226_">
			<use xlink:href="#SVGID_1_"  style="overflow:visible;"/>
		</clipPath>
		<path style="clip-path:url(#SVGID_00000018205896529268051640000016895853058210498226_);fill:#4C6586;" d="M269,260.2l-17.7-17.7
			l17.7-17.7l-8.8-8.8l-17.7,17.7L224.8,216l-8.8,8.8l17.7,17.7L216,260.2l8.8,8.8l17.7-17.7l17.7,17.7L269,260.2z M286.2,242.5
			c0,24.2-19.6,43.8-43.8,43.8s-43.8-19.6-43.8-43.8s19.6-43.8,43.8-43.8C266.7,198.8,286.2,218.3,286.2,242.5 M280,192.5
			c-4.6-3.4-9.6-6.2-15-8.3V95H111.7L105,75H55v30v140h125.1c0.2,5.2,1,10.2,2.4,15H50c-5.5,0-10-4.5-10-10V90V60h80l6.7,20H270
			c5.5,0,10,4.5,10,10V192.5z M320,0H0v320h320V0z"/>
	</g>
</g>
</svg>
