<?xml version="1.0" encoding="utf-8"?>
<!-- Generator: Adobe Illustrator 18.0.0, SVG Export Plug-In . SVG Version: 6.00 Build 0)  -->
<!DOCTYPE svg PUBLIC "-//W3C//DTD SVG 1.1//EN" "http://www.w3.org/Graphics/SVG/1.1/DTD/svg11.dtd">
<svg version="1.1" id="Layer_1" xmlns="http://www.w3.org/2000/svg" xmlns:xlink="http://www.w3.org/1999/xlink" x="0px" y="0px"
	 width="32px" height="32px" viewBox="0 0 32 32" enable-background="new 0 0 32 32" xml:space="preserve">
<g>
	<defs>
		<path id="SVGID_1_" d="M4,5.2v1v1.3v18.2l2,1h14.5c0,0,0.5,0,0.5-0.5V12.4c-1.5-1.1-2.5-2.9-2.5-4.9c0-0.3,0-0.5,0.1-0.8H6l-1.5-1
			h14.3c0-0.1,0.1-0.2,0.1-0.3c-0.1-0.1-0.2-0.2-0.4-0.2H4z"/>
	</defs>
	<clipPath id="SVGID_2_">
		<use xlink:href="#SVGID_1_"  overflow="visible"/>
	</clipPath>
	
		<linearGradient id="SVGID_3_" gradientUnits="userSpaceOnUse" x1="-117.4118" y1="166.3529" x2="-116.4118" y2="166.3529" gradientTransform="matrix(17 0 0 -17 2000 2844)">
		<stop  offset="0" style="stop-color:#4B813C"/>
		<stop  offset="1.983430e-02" style="stop-color:#4B813C"/>
		<stop  offset="1" style="stop-color:#6E9F3C"/>
	</linearGradient>
	<rect x="4" y="5.2" clip-path="url(#SVGID_2_)" fill="url(#SVGID_3_)" width="17" height="21.5"/>
</g>
<rect x="9.3" y="10.9" fill="#FFFFFF" width="8.3" height="5"/>
<g>
	<defs>
		<circle id="SVGID_4_" cx="24.5" cy="7.5" r="5"/>
	</defs>
	<clipPath id="SVGID_5_">
		<use xlink:href="#SVGID_4_"  overflow="visible"/>
	</clipPath>
	
		<linearGradient id="SVGID_6_" gradientUnits="userSpaceOnUse" x1="-112.1" y1="171.625" x2="-111.1" y2="171.625" gradientTransform="matrix(10 0 0 -10 1140.5 1723.75)">
		<stop  offset="0" style="stop-color:#21C4D7"/>
		<stop  offset="1.983430e-02" style="stop-color:#21C4D7"/>
		<stop  offset="1" style="stop-color:#32D0F6"/>
	</linearGradient>
	<rect x="19.5" y="2.5" clip-path="url(#SVGID_5_)" fill="url(#SVGID_6_)" width="10" height="10"/>
</g>
<g>
	<defs>
		<rect id="SVGID_7_" x="4" y="2.5" width="25.5" height="24.2"/>
	</defs>
	<clipPath id="SVGID_8_">
		<use xlink:href="#SVGID_7_"  overflow="visible"/>
	</clipPath>
	<path clip-path="url(#SVGID_8_)" fill="#FFFFFF" d="M26,4.9c-1.1,1.1-2.1,0-2.1,1.1S26,7.1,26,9.2c0,1.1,2.1-1.1,2.1-2.1
		S26.7,4.2,26,4.9"/>
	<path clip-path="url(#SVGID_8_)" fill="#FFFFFF" d="M23.1,7.4c0.1-1-1.4-0.9-1.9-0.4c-0.5,0.5,0.4,1.7,0.7,2.5
		c0.2,0.7,0.2,0.8,0.8-0.2C23,8.7,23,8.6,23.1,7.4"/>
</g>
</svg>
