<?xml version="1.0" encoding="utf-8"?>
<!-- Generator: Adobe Illustrator 26.5.0, SVG Export Plug-In . SVG Version: 6.00 Build 0)  -->
<svg version="1.1" id="Layer_1" xmlns="http://www.w3.org/2000/svg" xmlns:xlink="http://www.w3.org/1999/xlink" x="0px" y="0px"
	 viewBox="0 0 320 320" style="enable-background:new 0 0 320 320;" xml:space="preserve">
<style type="text/css">
	.st0{clip-path:url(#SVGID_00000104666618582564323880000013856970189433064120_);fill:#4C6586;}
	.st1{fill:none;}
</style>
<g>
	<g>
		<defs>
			<rect id="SVGID_1_" x="67.5" y="30" width="172.5" height="260"/>
		</defs>
		<clipPath id="SVGID_00000135683282832499777610000004045144826089478053_">
			<use xlink:href="#SVGID_1_"  style="overflow:visible;"/>
		</clipPath>
		<path style="clip-path:url(#SVGID_00000135683282832499777610000004045144826089478053_);fill:#4C6586;" d="M107.5,95
			c-13.8,0-25-11.2-25-25s11.2-25,25-25s25,11.2,25,25S121.3,95,107.5,95 M115,192.5v-50h76.1c3.2,10.1,12.7,17.5,23.9,17.5
			c13.8,0,25-11.2,25-25s-11.2-25-25-25c-11.2,0-20.7,7.4-23.9,17.5H115v-18.2c18.5-3.5,32.5-19.8,32.5-39.3c0-22.1-17.9-40-40-40
			s-40,17.9-40,40c0,19.5,14,35.8,32.5,39.3v18.2v15v50v15v50V270v2.5h91.1c3.2,10.1,12.7,17.5,23.9,17.5c13.8,0,25-11.2,25-25
			s-11.2-25-25-25c-11.2,0-20.7,7.4-23.9,17.5H115v-50h76.1c3.2,10.1,12.7,17.5,23.9,17.5c13.8,0,25-11.2,25-25s-11.2-25-25-25
			c-11.2,0-20.7,7.4-23.9,17.5H115z"/>
	</g>
</g>
<rect class="st1" width="320" height="320"/>
</svg>
