<?xml version="1.0" encoding="UTF-8"?>
<svg xmlns="http://www.w3.org/2000/svg" xmlns:xlink="http://www.w3.org/1999/xlink" width="23pt" height="30pt" viewBox="0 0 23 30" version="1.1">
<defs>
<clipPath id="clip1">
  <path d="M 0 0 L 17 0 L 17 22 L 0 22 Z M 0 0 "/>
</clipPath>
<clipPath id="clip2">
  <path d="M 6.601562 0 C 6.601562 0 0.289062 0 0.289062 6.175781 L 0.289062 15.488281 C 0.289062 15.488281 0.289062 20.789062 5.398438 21.523438 L 5.398438 18.75 C 3.824219 18.015625 2.820312 16.457031 2.816406 14.75 L 2.816406 6.601562 C 2.792969 5.453125 3.25 4.34375 4.078125 3.53125 C 4.90625 2.722656 6.039062 2.277344 7.214844 2.300781 L 10.011719 2.300781 C 11.183594 2.277344 12.316406 2.722656 13.148438 3.53125 C 13.976562 4.34375 14.429688 5.453125 14.40625 6.601562 L 14.40625 14.75 C 14.429688 15.898438 13.976562 17.003906 13.148438 17.816406 C 12.316406 18.628906 11.183594 19.074219 10.011719 19.050781 L 9.179688 19.050781 L 9.179688 21.664062 L 10.625 21.664062 C 10.625 21.664062 16.9375 21.664062 16.9375 15.488281 L 16.9375 6.175781 C 16.9375 6.175781 16.9375 0 10.625 0 Z M 6.601562 0 "/>
</clipPath>
<linearGradient id="linear0" gradientUnits="userSpaceOnUse" x1="1.47" y1="34.04" x2="2.47" y2="34.04" gradientTransform="matrix(17.02,0,0,-16.65,-24.859167,577.375)">
<stop offset="0" style="stop-color:rgb(0%,14.509804%,33.333333%);stop-opacity:1;"/>
<stop offset="0.02" style="stop-color:rgb(0%,14.509804%,33.333333%);stop-opacity:1;"/>
<stop offset="1" style="stop-color:rgb(5.882353%,25.490196%,52.941176%);stop-opacity:1;"/>
</linearGradient>
<clipPath id="clip3">
  <path d="M 6 8 L 23 8 L 23 30 L 6 30 Z M 6 8 "/>
</clipPath>
<clipPath id="clip4">
  <path d="M 12.363281 8.335938 C 12.363281 8.335938 6.050781 8.335938 6.050781 14.511719 L 6.050781 23.824219 C 6.050781 23.824219 6.050781 30 12.363281 30 L 16.386719 30 C 16.386719 30 22.699219 30 22.699219 23.824219 L 22.699219 14.511719 C 22.699219 14.511719 22.636719 9.175781 17.488281 8.476562 L 17.488281 10.976562 C 19.109375 11.6875 20.164062 13.257812 20.183594 15 L 20.183594 23.136719 C 20.203125 24.285156 19.746094 25.394531 18.914062 26.207031 C 18.082031 27.015625 16.949219 27.460938 15.773438 27.4375 L 12.976562 27.4375 C 11.800781 27.460938 10.671875 27.015625 9.839844 26.203125 C 9.011719 25.394531 8.554688 24.285156 8.582031 23.136719 L 8.582031 15 C 8.554688 13.851562 9.011719 12.746094 9.839844 11.933594 C 10.671875 11.121094 11.800781 10.675781 12.976562 10.699219 L 13.769531 10.699219 L 13.769531 8.335938 Z M 12.363281 8.335938 "/>
</clipPath>
<linearGradient id="linear1" gradientUnits="userSpaceOnUse" x1="1.48" y1="34.05" x2="2.48" y2="34.05" gradientTransform="matrix(16.662222,0,0,-16.3,-18.559722,574.125)">
<stop offset="0" style="stop-color:rgb(90.196078%,43.137255%,11.764706%);stop-opacity:1;"/>
<stop offset="0.44" style="stop-color:rgb(90.980392%,44.313725%,12.156863%);stop-opacity:1;"/>
<stop offset="0.71" style="stop-color:rgb(93.72549%,47.45098%,13.72549%);stop-opacity:1;"/>
<stop offset="0.92" style="stop-color:rgb(98.039216%,52.941176%,16.078431%);stop-opacity:1;"/>
<stop offset="1" style="stop-color:rgb(100%,55.686275%,17.254902%);stop-opacity:1;"/>
<stop offset="1" style="stop-color:rgb(100%,55.686275%,17.254902%);stop-opacity:1;"/>
</linearGradient>
</defs>
<g id="surface1">
<g clip-path="url(#clip1)" clip-rule="nonzero">
<g clip-path="url(#clip2)" clip-rule="nonzero">
<path style=" stroke:none;fill-rule:nonzero;fill:url(#linear0);" d="M 0.289062 0 L 16.949219 0 L 16.949219 21.664062 L 0.289062 21.664062 Z M 0.289062 0 "/>
</g>
</g>
<g clip-path="url(#clip3)" clip-rule="nonzero">
<g clip-path="url(#clip4)" clip-rule="nonzero">
<path style=" stroke:none;fill-rule:nonzero;fill:url(#linear1);" d="M 6.050781 8.335938 L 22.710938 8.335938 L 22.710938 30 L 6.050781 30 Z M 6.050781 8.335938 "/>
</g>
</g>
</g>
</svg>
