<svg id="Layer_1" data-name="Layer 1" xmlns="http://www.w3.org/2000/svg" xmlns:xlink="http://www.w3.org/1999/xlink" viewBox="0 0 205.98 240"><defs><style>.cls-1{fill:none;}.cls-2{clip-path:url(#clip-path);}.cls-3{fill:#52658b;}</style><clipPath id="clip-path" transform="translate(-57.01 -40)"><rect class="cls-1" x="57.01" y="40" width="205.98" height="240"/></clipPath></defs><g class="cls-2"><path class="cls-3" d="M151.14,201.2,145.85,233h28.3l-5.28-31.78a15.82,15.82,0,0,0,7.22-13.07,16.09,16.09,0,0,0-32.18,0,15.8,15.8,0,0,0,7.23,13.08M248,265H72V140H248ZM224.52,125.51h-129c7.36-28.22,33.46-49.18,64.53-49.18s57.15,21,64.51,49.18m38.47,139V141s0-.52-.1-1.22C261.86,84.58,216.15,40,160,40,103.59,40,57.67,85,57.06,140.53c0,.16-.05.27-.05.43V264.55S57,280,72.46,280H247.54S263,280,263,264.55" transform="translate(-57.01 -40)"/></g></svg>