<?xml version="1.0" encoding="utf-8"?>
<!-- Generator: Adobe Illustrator 18.0.0, SVG Export Plug-In . SVG Version: 6.00 Build 0)  -->
<!DOCTYPE svg PUBLIC "-//W3C//DTD SVG 1.1//EN" "http://www.w3.org/Graphics/SVG/1.1/DTD/svg11.dtd">
<svg version="1.1" id="Layer_1" xmlns="http://www.w3.org/2000/svg" xmlns:xlink="http://www.w3.org/1999/xlink" x="0px" y="0px"
	 viewBox="0 0 32 32" enable-background="new 0 0 32 32" xml:space="preserve">
<g>
	<defs>
		<path id="SVGID_1_" d="M16.7,20.2L3.4,13.4l2.1,12.1c0,0,0.1,0.5,0.6,0.4l22.5-4c0,0,0.5-0.1,0.5-0.6L27,9.2L16.7,20.2z M25.9,6.1
			l-22.5,4c0,0-0.5,0.1-0.5,0.6l0,0.2l13.4,6.8l10.2-11l0-0.2c0,0-0.1-0.5-0.5-0.5C26,6.1,25.9,6.1,25.9,6.1"/>
	</defs>
	<clipPath id="SVGID_2_">
		<use xlink:href="#SVGID_1_"  overflow="visible"/>
	</clipPath>
	
		<linearGradient id="SVGID_3_" gradientUnits="userSpaceOnUse" x1="-117.751" y1="163.7419" x2="-116.751" y2="163.7419" gradientTransform="matrix(19.6962 -3.473 -3.473 -19.6962 2893.824 2833.9622)">
		<stop  offset="0" style="stop-color:#4C6586"/>
		<stop  offset="1.983430e-02" style="stop-color:#4C6586"/>
		<stop  offset="1" style="stop-color:#5A78A0"/>
	</linearGradient>
	<polygon clip-path="url(#SVGID_2_)" fill="url(#SVGID_3_)" points="-0.6,6.7 28.4,1.6 32.6,25.4 3.6,30.5 	"/>
</g>
</svg>
