<?xml version="1.0" encoding="utf-8"?>
<!-- Generator: Adobe Illustrator 26.5.0, SVG Export Plug-In . SVG Version: 6.00 Build 0)  -->
<svg version="1.1" id="Layer_1" xmlns="http://www.w3.org/2000/svg" xmlns:xlink="http://www.w3.org/1999/xlink" x="0px" y="0px"
	 viewBox="0 0 320 320" style="enable-background:new 0 0 320 320;" xml:space="preserve">
<style type="text/css">
	.st0{clip-path:url(#SVGID_00000113326315927614416950000013247985245629954692_);fill:#4C6586;}
	.st1{fill:#4C6586;}
	.st2{clip-path:url(#SVGID_00000123414038128030007020000013857398512803055792_);fill:#4C6586;}
	.st3{fill:none;}
</style>
<g>
	<g>
		<defs>
			<rect id="SVGID_1_" x="30" y="45" width="260" height="230"/>
		</defs>
		<clipPath id="SVGID_00000131325999413344581630000005201681119624855209_">
			<use xlink:href="#SVGID_1_"  style="overflow:visible;"/>
		</clipPath>
		<path style="clip-path:url(#SVGID_00000131325999413344581630000005201681119624855209_);fill:#4C6586;" d="M195,260H45V115h55V60
			h95V260z M210,270V50c0-2.8-2.2-5-5-5H100H89.8H85c-2.8,0-6.6,1.6-8.5,3.5l-43,43c-2,2-3.5,5.8-3.5,8.5v7.7v7.3v155
			c0,2.8,2.2,5,5,5h170C207.8,275,210,272.8,210,270"/>
	</g>
</g>
<rect x="71.5" y="140" class="st1" width="90" height="15"/>
<rect x="71.5" y="170" class="st1" width="70" height="15"/>
<rect x="71.5" y="200" class="st1" width="90" height="15"/>
<rect x="195.1" y="120.8" transform="matrix(0.1565 -0.9877 0.9877 0.1565 80.3854 375.6377)" class="st1" width="130" height="40"/>
<g>
	<g>
		<defs>
			<rect id="SVGID_00000103974952284961838430000008928746052631582851_" x="30" y="45" width="260" height="230"/>
		</defs>
		<clipPath id="SVGID_00000004541200757923509390000009866288064986588819_">
			<use xlink:href="#SVGID_00000103974952284961838430000008928746052631582851_"  style="overflow:visible;"/>
		</clipPath>
		<path style="clip-path:url(#SVGID_00000004541200757923509390000009866288064986588819_);fill:#4C6586;" d="M258.2,216.4
			l-17.3-2.7l-12.3-2l4,15.9l0,0l6,23.6c1.4,5.4,4.8,5.9,7.8,1.2l16.4-26l0,0l5.3-8.5L258.2,216.4L258.2,216.4z"/>
	</g>
</g>
<rect class="st3" width="320" height="320"/>
</svg>
