<?xml version="1.0" encoding="utf-8"?>
<!-- Generator: Adobe Illustrator 26.3.0, SVG Export Plug-In . SVG Version: 6.00 Build 0)  -->
<svg version="1.1" id="Layer_1" xmlns="http://www.w3.org/2000/svg" xmlns:xlink="http://www.w3.org/1999/xlink" x="0px" y="0px"
	 viewBox="0 0 320 320" style="enable-background:new 0 0 320 320;" xml:space="preserve">
<style type="text/css">
	.st0{clip-path:url(#SVGID_00000039100813339903280540000014665088240066261683_);fill:#52658B;}
</style>
<g>
	<defs>
		<rect id="SVGID_1_" width="320" height="320"/>
	</defs>
	<clipPath id="SVGID_00000129891947376731431880000010836539743874059664_">
		<use xlink:href="#SVGID_1_"  style="overflow:visible;"/>
	</clipPath>
	<path style="clip-path:url(#SVGID_00000129891947376731431880000010836539743874059664_);fill:#52658B;" d="M114.4,190
		c0-12.2-9.9-22.1-22.1-22.1s-22.1,9.9-22.1,22.1s9.9,22.1,22.1,22.1S114.4,202.2,114.4,190 M182.1,190c0-12.2-9.9-22.1-22.1-22.1
		c-12.2,0-22.1,9.9-22.1,22.1s9.9,22.1,22.1,22.1C172.2,212.1,182.1,202.2,182.1,190 M249.9,190c0-12.2-9.9-22.1-22.1-22.1
		c-12.2,0-22.1,9.9-22.1,22.1s9.9,22.1,22.1,22.1C240,212.1,249.9,202.2,249.9,190"/>
</g>
</svg>
