<?xml version="1.0" encoding="utf-8"?>
<!-- Generator: Adobe Illustrator 26.3.1, SVG Export Plug-In . SVG Version: 6.00 Build 0)  -->
<svg version="1.1" id="Layer_1" xmlns="http://www.w3.org/2000/svg" xmlns:xlink="http://www.w3.org/1999/xlink" x="0px" y="0px"
	 viewBox="0 0 320 320" style="enable-background:new 0 0 320 320;" xml:space="preserve">
<style type="text/css">
	.st0{clip-path:url(#SVGID_00000098915333497439574980000017684312670593287314_);fill:#52668C;}
	.st1{fill:none;}
</style>
<g>
	<defs>
		<rect id="SVGID_1_" x="28.3" y="29.7" width="263.5" height="260.6"/>
	</defs>
	<clipPath id="SVGID_00000089543681194416230050000015331243396180645266_">
		<use xlink:href="#SVGID_1_"  style="overflow:visible;"/>
	</clipPath>
	<path style="clip-path:url(#SVGID_00000089543681194416230050000015331243396180645266_);fill:#52668C;" d="M111.3,164.6
		c0-13.5-11-24.5-24.5-24.5c-13.5,0-24.5,11-24.5,24.5c0,13.5,11,24.5,24.5,24.5C100.4,189.1,111.3,178.1,111.3,164.6 M116.8,196.1
		c-12.4,0-22.5,10.1-22.5,22.5c0,12.4,10.1,22.5,22.5,22.5c12.4,0,22.5-10.1,22.5-22.5C139.3,206.1,129.3,196.1,116.8,196.1
		 M166.3,80.2c0-9.7-7.8-17.5-17.5-17.5c-9.7,0-17.5,7.8-17.5,17.5c0,9.7,7.8,17.5,17.5,17.5C158.5,97.7,166.3,89.8,166.3,80.2
		 M190.6,231.4c0-9.7-7.8-17.5-17.5-17.5c-9.7,0-17.5,7.8-17.5,17.5s7.8,17.5,17.5,17.5C182.8,248.9,190.6,241.1,190.6,231.4
		 M257.7,223.4c-16.4,23.5-55.7,52.9-103.5,52.9c-11.9,0-24.4-1.8-37.1-6.1c-74-24.5-74.8-103.4-74.8-106.7
		c0-45.1,23.2-73.6,42.7-89.6c23.2-19.1,53.9-30.3,80.8-30.3c5.7,0,11.3,0.5,16.6,1.6c4.6,0.9,10.4,2.7,12.5,6.1
		c3.5,5.9-0.8,20.1-4.2,31.5c-3,9.8-6.4,20.9-6,31.1c0.5,13.3,7.5,22.6,20.1,26.8c24.2,8.1,37.4-1.7,45.4-7.6l0.4-0.3
		c6.2-4.7,8.1-6.1,14.8-4l0,0c4.9,1.5,8,5,10.1,11.3C282.8,161.7,271.8,203.3,257.7,223.4 M288.7,135.6c-3.6-10.5-10-17.2-19.2-20.1
		c-13.5-4.2-20.3,0.8-27.4,6.1l-0.4,0.3c-7.2,5.3-15.3,11.4-32.6,5.6c-13.6-4.5-12.6-16.2-5.2-40.6c4.7-15.5,9.6-31.5,2.8-42.7
		c-3.8-6.4-10.9-10.5-21.7-12.7c-33.9-6.8-77.7,5.9-109,31.6C54.3,81,28.3,112.9,28.3,163.5c0,3.8,1,92.3,84.4,120
		c14.2,4.7,28.1,6.8,41.3,6.8c53.1,0,96.9-32.8,115.2-58.9C285.7,207.8,297.6,161.8,288.7,135.6"/>
</g>
<rect class="st1" width="320" height="320"/>
</svg>
