<?xml version="1.0" encoding="utf-8"?>
<!-- Generator: Adobe Illustrator 26.2.1, SVG Export Plug-In . SVG Version: 6.00 Build 0)  -->
<svg version="1.1" id="Layer_1" xmlns="http://www.w3.org/2000/svg" xmlns:xlink="http://www.w3.org/1999/xlink" x="0px" y="0px"
	 viewBox="0 0 320 320" style="enable-background:new 0 0 320 320;" xml:space="preserve">
<style type="text/css">
	.st0{clip-path:url(#SVGID_00000081630767610633471720000012848830182824223162_);fill:#52658B;}
</style>
<g>
	<defs>
		<rect id="SVGID_1_" width="320" height="320"/>
	</defs>
	<clipPath id="SVGID_00000123403387011465228140000017143040004622664605_">
		<use xlink:href="#SVGID_1_"  style="overflow:visible;"/>
	</clipPath>
	<path style="clip-path:url(#SVGID_00000123403387011465228140000017143040004622664605_);fill:#52658B;" d="M202.6,163.9V89.4
		c0,0,0-49.4-49.4-49.4h-31.6c0,0-49.4,0-49.4,49.4v74.5c0,0,0.5,42.4,40.5,48.3v-22.3C92.3,182.1,92.1,158,92.1,158V92.8
		c0-34.4,34.4-34.4,34.4-34.4h22c34.4,0,34.4,34.4,34.4,34.4V158c0,34.4-34.4,34.4-34.4,34.4h-6.6v21h11.4
		C153.2,213.3,202.6,213.3,202.6,163.9 M247.7,230.6v-74.5c0,0-0.5-42.7-40.9-48.3v19.7c20.8,7.6,21.1,32,21.1,32v65.1
		c0,34.4-34.4,34.4-34.4,34.4h-22c-34.4,0-34.4-34.4-34.4-34.4v-65.1c0-34.4,34.4-34.4,34.4-34.4h6.3v-18.4h-11
		c0,0-49.4,0-49.4,49.4v74.5c0,0,0,49.4,49.4,49.4h31.6C198.3,280,247.7,280,247.7,230.6"/>
</g>
</svg>
