<?xml version="1.0" encoding="utf-8"?>
<!-- Generator: Adobe Illustrator 26.5.0, SVG Export Plug-In . SVG Version: 6.00 Build 0)  -->
<svg version="1.1" id="Layer_1" xmlns="http://www.w3.org/2000/svg" xmlns:xlink="http://www.w3.org/1999/xlink" x="0px" y="0px"
	 viewBox="0 0 320 320" style="enable-background:new 0 0 320 320;" xml:space="preserve">
<style type="text/css">
	.st0{clip-path:url(#SVGID_00000070110404340579865000000011117361959632091070_);fill:#4C6586;}
</style>
<g>
	<g>
		<defs>
			<rect id="SVGID_1_" width="320" height="320"/>
		</defs>
		<clipPath id="SVGID_00000003826777285847033300000013790452309055387274_">
			<use xlink:href="#SVGID_1_"  style="overflow:visible;"/>
		</clipPath>
		<path style="clip-path:url(#SVGID_00000003826777285847033300000013790452309055387274_);fill:#4C6586;" d="M141,204.5l-7.2-54.5
			c-0.5-4.1-4.3-7-8.4-6.5s-7,4.3-6.5,8.4l7.2,54.5c0.5,3.8,3.7,6.5,7.4,6.5c0.3,0,0.7,0,1-0.1C138.7,212.4,141.6,208.6,141,204.5
			 M167.5,205.5v-55c0-4.1-3.4-7.5-7.5-7.5s-7.5,3.4-7.5,7.5v55c0,4.1,3.4,7.5,7.5,7.5S167.5,209.6,167.5,205.5 M194.6,143.5
			c-4.1-0.5-7.9,2.3-8.4,6.5l-7.2,54.5c-0.5,4.1,2.3,7.9,6.5,8.4c0.3,0,0.7,0.1,1,0.1c3.7,0,6.9-2.7,7.4-6.5l7.2-54.5
			C201.6,147.8,198.7,144.1,194.6,143.5 M103.6,131h112.7l-15.6,111h-81.5L103.6,131z M89.3,118.6c-1.4,1.6-2.1,3.8-1.8,6l17.7,126
			c0.5,3.7,3.7,6.5,7.4,6.5h94.5c3.7,0,6.9-2.8,7.4-6.5l17.7-126c0.3-2.1-0.3-4.3-1.8-6c-1.4-1.6-3.5-2.6-5.7-2.6H95
			C92.8,116,90.8,116.9,89.3,118.6 M185,90.5c0,0.5,0,0.9-0.1,1.3H135c0-0.4-0.1-0.9-0.1-1.3c0-7.2,7.4-12.5,9.7-12.5h30.6
			C177.6,78,185,83.3,185,90.5 M237.5,106.9c0-5.5-4.5-15-10-15H200c0-0.4,0-0.9,0-1.3c0-14.8-13.6-27.5-24.7-27.5h-30.6
			C133.6,63,120,75.7,120,90.5c0,0.5,0,0.9,0,1.3H92.5c-5.5,0-10,9.5-10,15L237.5,106.9L237.5,106.9z"/>
	</g>
</g>
</svg>
