<?xml version="1.0" encoding="utf-8"?>
<!-- Generator: Adobe Illustrator 22.0.1, SVG Export Plug-In . SVG Version: 6.00 Build 0)  -->
<svg version="1.1" id="Layer_1" xmlns="http://www.w3.org/2000/svg" xmlns:xlink="http://www.w3.org/1999/xlink" x="0px" y="0px"
	 viewBox="0 0 32 32" enable-background="new 0 0 32 32" xml:space="preserve">
<g>
	<defs>
		<polygon id="SVGID_1_" points="5.4,14 2,14 2,18 5.4,18 5.4,22 10,16 5.4,10 		"/>
	</defs>
	<clipPath id="SVGID_2_">
		<use xlink:href="#SVGID_1_"  overflow="visible"/>
	</clipPath>
	
		<linearGradient id="SVGID_3_" gradientUnits="userSpaceOnUse" x1="-137.0303" y1="205.2748" x2="-136.0303" y2="205.2748" gradientTransform="matrix(9.1929 0 0 -9.1929 1261.4528 1903.0697)">
		<stop  offset="0" style="stop-color:#2F5A28"/>
		<stop  offset="1.983430e-02" style="stop-color:#2F5A28"/>
		<stop  offset="1" style="stop-color:#6EA03C"/>
	</linearGradient>
	<rect x="2" y="10" clip-path="url(#SVGID_2_)" fill="url(#SVGID_3_)" width="8" height="12"/>
</g>
<g>
	<defs>
		<polygon id="SVGID_4_" points="25.4,14 22,14 22,18 25.4,18 25.4,22 30,16 25.4,10 		"/>
	</defs>
	<clipPath id="SVGID_5_">
		<use xlink:href="#SVGID_4_"  overflow="visible"/>
	</clipPath>
	
		<linearGradient id="SVGID_6_" gradientUnits="userSpaceOnUse" x1="-137.0303" y1="205.2748" x2="-136.0303" y2="205.2748" gradientTransform="matrix(9.1929 0 0 -9.1929 1281.4528 1903.0697)">
		<stop  offset="0" style="stop-color:#E66E1E"/>
		<stop  offset="0.9975" style="stop-color:#FF8E2C"/>
		<stop  offset="1" style="stop-color:#FF8E2C"/>
	</linearGradient>
	<rect x="22" y="10" clip-path="url(#SVGID_5_)" fill="url(#SVGID_6_)" width="8" height="12"/>
</g>
<g>
	<defs>
		<path id="SVGID_7_" d="M14.1,12.1h6.4v3.8h-6.4V12.1z M10,7.8v0.8v1v13.9l1.5,0.8h11.1c0,0,0.4,0,0.4-0.4V9.3c0,0,0-0.4-0.4-0.4
			h-1.1h-9.9l-1.1-0.8h11.1c0,0,0-0.4-0.4-0.4H10z"/>
	</defs>
	<clipPath id="SVGID_8_">
		<use xlink:href="#SVGID_7_"  overflow="visible"/>
	</clipPath>
	
		<linearGradient id="SVGID_9_" gradientUnits="userSpaceOnUse" x1="-142" y1="200.1538" x2="-141" y2="200.1538" gradientTransform="matrix(13 0 0 -13 1856 2618)">
		<stop  offset="0" style="stop-color:#4C6586"/>
		<stop  offset="1.983430e-02" style="stop-color:#4C6586"/>
		<stop  offset="1" style="stop-color:#5A78A0"/>
	</linearGradient>
	<rect x="10" y="7.8" clip-path="url(#SVGID_8_)" fill="url(#SVGID_9_)" width="13" height="16.4"/>
</g>
</svg>

