<?xml version="1.0" encoding="utf-8"?>
<!-- Generator: Adobe Illustrator 26.5.0, SVG Export Plug-In . SVG Version: 6.00 Build 0)  -->
<svg version="1.1" id="Layer_1" xmlns="http://www.w3.org/2000/svg" xmlns:xlink="http://www.w3.org/1999/xlink" x="0px" y="0px"
	 viewBox="0 0 320 320" style="enable-background:new 0 0 320 320;" xml:space="preserve">
<style type="text/css">
	.st0{clip-path:url(#SVGID_00000168816839586313082400000005540968323314715540_);fill:#4C6586;}
</style>
<g>
	<g>
		<defs>
			<rect id="SVGID_1_" y="0" width="320" height="320"/>
		</defs>
		<clipPath id="SVGID_00000166636551739519250730000004949143133043954065_">
			<use xlink:href="#SVGID_1_"  style="overflow:visible;"/>
		</clipPath>
		<path style="clip-path:url(#SVGID_00000166636551739519250730000004949143133043954065_);fill:#4C6586;" d="M236.4,210.9
			L185.5,160l50.9-50.9l-25.5-25.5L160,134.5l-50.9-50.9l-25.5,25.5l50.9,50.9l-50.9,50.9l25.5,25.5l50.9-50.9l50.9,50.9
			L236.4,210.9z M265,260c0,2.8-2.2,5-5,5H60c-2.8,0-5-2.2-5-5V60c0-2.8,2.2-5,5-5h200c2.8,0,5,2.2,5,5V260z M280,260V60
			c0-11-9-20-20-20H60c-11,0-20,9-20,20v200c0,11,9,20,20,20h200C271,280,280,271,280,260"/>
	</g>
</g>
</svg>
