<svg id="Layer_1" data-name="Layer 1" xmlns="http://www.w3.org/2000/svg" xmlns:xlink="http://www.w3.org/1999/xlink" viewBox="0 0 240 240"><defs><style>.cls-1{fill:none;}.cls-2{clip-path:url(#clip-path);}.cls-3{fill:#52658b;}</style><clipPath id="clip-path" transform="translate(-40 -40)"><rect class="cls-1" x="40" y="40" width="240" height="240"/></clipPath></defs><g class="cls-2"><path class="cls-3" d="M240,133.63V60a20,20,0,0,0-20-20H60A20,20,0,0,0,40,60V170a20,20,0,0,0,20,20H70v51.27L112.79,190h32.5V175H106.93L85,201.27V175H65a10,10,0,0,1-10-10V65A10,10,0,0,1,65,55H215a10,10,0,0,1,10,10v68.63Z" transform="translate(-40 -40)"/><path class="cls-3" d="M257.6,183.64H177.79v-15H257.6Zm-79.81,15h54.87v15H177.79ZM280,225.91V164.09c0-15.45-15-15.45-15-15.45H175.25c-15,0-15,15.45-15,15.45v61.82c0,15.45,15,15.45,15,15.45H218.9V280l31.17-38.64h15c15,0,15-15.45,15-15.45" transform="translate(-40 -40)"/></g></svg>