<?xml version="1.0" encoding="utf-8"?>
<!-- Generator: Adobe Illustrator 26.5.0, SVG Export Plug-In . SVG Version: 6.00 Build 0)  -->
<svg version="1.1" id="Layer_1" xmlns="http://www.w3.org/2000/svg" xmlns:xlink="http://www.w3.org/1999/xlink" x="0px" y="0px"
	 viewBox="0 0 320 320" style="enable-background:new 0 0 320 320;" xml:space="preserve">
<style type="text/css">
	.st0{clip-path:url(#SVGID_00000096043058109341544290000004392024972294768289_);fill:#4C6586;}
</style>
<g>
	<defs>
		<rect id="SVGID_1_" width="320" height="320"/>
	</defs>
	<clipPath id="SVGID_00000123402532498187816250000017049313392458581385_">
		<use xlink:href="#SVGID_1_"  style="overflow:visible;"/>
	</clipPath>
	<path style="clip-path:url(#SVGID_00000123402532498187816250000017049313392458581385_);fill:#4C6586;" d="M55,200.7
		c-1.6,22.9,10.9,33.2,17.7,38.7c0.2,0.2,0.4,0.4,0.7,0.6c-2.2,1.3-7.3,3.3-18.5,5.8c-23.4,5.2-27.4,36.4-27.5,37.7
		c-0.4,3.7,2.2,7,5.9,7.5c3.7,0.5,7.1-2.2,7.5-5.9c0-0.2,3-23,17-26.1c15.5-3.4,30.5-7.8,30.5-19.4c0-4.8-3.6-7.7-7.1-10.6
		c-5.9-4.8-13.9-11.4-12.8-27.3c1.3-17.6,9.7-26.2,25.8-26.2c9,0,25.7,8.4,25.7,28.7c0,9.6-2.4,23-13.9,32.2
		c-2.2,1.8-3.2,4.5-2.6,7.2c1.2,5,5.2,5.9,15.1,8.1c7.7,1.7,20.6,4.5,24.7,8.4c6.6,6.2,8.6,19.8,8.8,24.6c0.1,3.6,3.1,6.5,6.7,6.5
		c0.1,0,0.2,0,0.3,0c3.7-0.2,6.6-3.3,6.5-7c-0.1-2.3-1.3-22.9-13.1-33.9c-6.1-5.7-17.2-8.6-30-11.4c7.1-9.2,10.9-21,10.9-34.6
		c0-27.5-22.8-42.2-39.2-42.2C71.1,162,56.8,176.1,55,200.7 M177.6,113.9c-6.3-3.6-15.3-5.8-25.2-8.1c7.2-9.2,10.9-21,10.9-34.6
		c0-27.5-22.8-42.2-39.2-42.2h0c-23.2,0-37.4,14.1-39.2,38.8c-1.6,22.9,10.9,33.2,17.7,38.7c0.2,0.2,0.4,0.4,0.7,0.6
		c-2.2,1.3-7.3,3.3-18.5,5.8c-23.4,5.2-27.4,36.4-27.5,37.7c-0.4,3.5,2,6.7,5.4,7.4h2.6c2.8-0.6,5-2.8,5.4-5.8c0-0.2,3-23,17-26.1
		c15.5-3.4,30.5-7.8,30.5-19.4c0-4.8-3.6-7.7-7.1-10.6c-5.9-4.8-13.9-11.4-12.8-27.3c1.3-17.6,9.7-26.2,25.8-26.2
		c9,0,25.7,8.4,25.7,28.7c0,9.6-2.4,23-13.9,32.2c-2.2,1.8-3.2,4.5-2.6,7.2c1.2,5,5.2,5.9,15.1,8.1c7.1,1.6,18.5,4.1,23.5,7.4
		C173.1,121.7,175,117.6,177.6,113.9 M293.2,224.5c-0.1-2.3-1.3-22.9-13.1-33.9c-6.1-5.7-17.2-8.6-30-11.4
		c7.1-9.2,10.9-21,10.9-34.6c0-27.5-22.8-42.2-39.2-42.2c-23.2,0-37.5,14.1-39.2,38.8c-1.6,22.9,10.9,33.2,17.7,38.7
		c0.2,0.2,0.4,0.4,0.7,0.6c-2.2,1.3-7.3,3.3-18.5,5.8c-23.4,5.2-27.4,36.4-27.5,37.7c-0.4,3.7,2.2,7,5.9,7.5
		c3.7,0.5,7.1-2.2,7.5-5.9c0-0.2,3-23,17-26.1c15.5-3.4,30.5-7.8,30.5-19.4c0-4.8-3.6-7.7-7.1-10.6c-5.9-4.8-13.9-11.4-12.8-27.3
		c1.3-17.6,9.7-26.2,25.8-26.2c9,0,25.7,8.4,25.7,28.7c0,9.6-2.4,23-13.9,32.2c-2.2,1.8-3.2,4.5-2.6,7.2c1.2,5,5.2,5.9,15.1,8.1
		c7.7,1.7,20.6,4.5,24.7,8.4c6.6,6.2,8.6,19.8,8.8,24.6c0.1,3.6,3.1,6.5,6.7,6.5c0.1,0,0.2,0,0.3,0
		C290.4,231.3,293.3,228.2,293.2,224.5"/>
</g>
</svg>
