<svg id="Layer_1" data-name="Layer 1" xmlns="http://www.w3.org/2000/svg" xmlns:xlink="http://www.w3.org/1999/xlink" viewBox="0 0 262.38 224.93"><defs><style>.cls-1{fill:none;}.cls-2{clip-path:url(#clip-path);}.cls-3{fill:#52668c;}</style><clipPath id="clip-path" transform="translate(-28.81 -47.53)"><rect class="cls-1" x="28.81" y="47.53" width="262.38" height="224.93"/></clipPath></defs><g class="cls-2"><path class="cls-3" d="M283.69,272.47a7.49,7.49,0,0,1-7.49-7.19c-.24-5.27-2.46-20.47-9.78-27.31-4.56-4.25-18.92-7.41-27.5-9.3-10.94-2.4-15.46-3.4-16.77-9a7.94,7.94,0,0,1,2.86-8c12.73-10.19,15.4-25.07,15.4-35.77,0-22.52-18.62-31.87-28.59-31.87-17.86,0-27.22,9.52-28.61,29.12-1.26,17.7,7.66,25,14.17,30.35,3.87,3.18,7.88,6.47,7.88,11.78,0,13-16.77,17.76-33.95,21.57-15.62,3.47-18.89,28.8-18.92,29.05a7.5,7.5,0,0,1-14.9-1.77c.17-1.47,4.54-36.15,30.58-41.92,12.48-2.77,18.07-5.07,20.56-6.48l-.76-.63c-7.49-6.14-21.43-17.58-19.63-43,1.95-27.37,17.83-43.06,43.58-43.06,18.28,0,43.59,16.29,43.59,46.87,0,15.13-4.14,28.19-12.08,38.43,14.24,3.15,26.52,6.37,33.32,12.72,13.12,12.24,14.43,35.08,14.53,37.65a7.49,7.49,0,0,1-7.18,7.8h-.31" transform="translate(-28.81 -47.53)"/><path class="cls-3" d="M134.7,132.83c7.94-10.23,12.08-23.29,12.08-38.42,0-30.59-25.31-46.88-43.59-46.88-25.75,0-41.63,15.7-43.58,43.07-1.8,25.43,12.14,36.86,19.63,43l.76.62c-2.49,1.41-8.08,3.71-20.56,6.48-26,5.78-30.41,40.45-30.58,41.93a7.5,7.5,0,0,0,14.9,1.76c0-.25,3.3-25.58,18.92-29,17.18-3.82,33.95-8.62,33.95-21.58,0-5.31-4-8.59-7.88-11.77-6.51-5.34-15.43-12.66-14.17-30.35C76,72.06,85.33,62.53,103.19,62.53c10,0,28.59,9.35,28.59,31.88,0,10.69-2.67,25.58-15.4,35.77a7.91,7.91,0,0,0-2.86,8c1.31,5.61,5.83,6.6,16.77,9,7.82,1.72,20.42,4.5,26,8.19a44.94,44.94,0,0,1,6.39-13.64c-7.05-4-16.93-6.48-28-8.94" transform="translate(-28.81 -47.53)"/></g></svg>