<?xml version="1.0" encoding="utf-8"?>
<!-- Generator: Adobe Illustrator 27.1.1, SVG Export Plug-In . SVG Version: 6.00 Build 0)  -->
<svg version="1.1" id="Layer_1" xmlns="http://www.w3.org/2000/svg" xmlns:xlink="http://www.w3.org/1999/xlink" x="0px" y="0px"
	 viewBox="0 0 320 320" style="enable-background:new 0 0 320 320;" xml:space="preserve">
<style type="text/css">
	.st0{clip-path:url(#SVGID_00000067917631787946570900000017579849756178861212_);fill:#4C6586;}
</style>
<g>
	<g>
		<defs>
			<rect id="SVGID_1_" y="0" width="320" height="320"/>
		</defs>
		<clipPath id="SVGID_00000134221107813733558470000010989513218969708963_">
			<use xlink:href="#SVGID_1_"  style="overflow:visible;"/>
		</clipPath>
		<path style="clip-path:url(#SVGID_00000134221107813733558470000010989513218969708963_);fill:#4C6586;" d="M200.8,64.7
			c-12.5-2.4-25-4.7-37.8-4.7c-24.6,0-51.5,12.5-51.5,40.4c0,13,5.9,20.8,16.5,28.1c-11.6,6.9-18.2,17.1-18.2,31.9
			c0,41.4,68.8,34.5,68.8,58.6c0,12.5-10.9,16.3-23.9,16.3c-13.2,0-27.7-4.3-39.7-9.2l-2.1,26.9c14.4,3.5,28.8,6.8,43.7,6.8
			c25.5,0,52.2-14.6,52.2-42.8c0-10.9-5.9-21-16.1-27c11.1-6.2,17.5-17.8,17.5-30.3c0-43.3-69.5-34.8-68.6-59.3
			c0-12.8,10.9-16.1,22.7-16.1c11.6,0,23.2,1.9,33.8,5.9L200.8,64.7z M134.3,154.8c0-7.6,4.3-14.4,8.5-17.5
			c19.2,9.2,42.8,11.1,42.8,27.7c0,7.3-3.5,13.5-8.5,17.7C165.3,175.4,134.3,170.2,134.3,154.8"/>
	</g>
</g>
</svg>
