<?xml version="1.0" encoding="utf-8"?>
<svg version="1.1" xmlns="http://www.w3.org/2000/svg" xmlns:xlink="http://www.w3.org/1999/xlink" x="0px" y="0px" width="32px"
	 height="32px" viewBox="0 0 32 32" enable-background="new 0 0 32 32" xml:space="preserve">
<g>
	<path class="invertable_color" d="M25.68,9.58c0.245,0,0.452,0.085,0.624,0.257c0.171,0.171,0.256,0.379,0.256,0.623v12.32c0,0.244-0.085,0.452-0.256,0.623
		c-0.172,0.171-0.379,0.257-0.624,0.257H7.493c-0.562,0-1.045-0.202-1.448-0.605S5.44,22.169,5.44,21.606v-9.973
		c0-0.244,0.085-0.452,0.257-0.623c0.171-0.171,0.379-0.257,0.623-0.257h1.577c0.123-0.342,0.336-0.624,0.642-0.843
		C8.844,9.69,9.18,9.58,9.547,9.58H25.68z M7.2,21.606c0,0.073,0.03,0.141,0.091,0.202C7.353,21.869,7.42,21.9,7.493,21.9
		s0.141-0.031,0.202-0.092c0.061-0.062,0.092-0.129,0.092-0.202v-9.093H7.2V21.606z M24.8,21.9V11.34H9.547v10.267L9.51,21.9H24.8z
		 M11.747,17.5c-0.122,0-0.226-0.043-0.312-0.128c-0.085-0.086-0.128-0.189-0.128-0.312V13.54c0-0.122,0.043-0.226,0.128-0.312
		s0.189-0.128,0.312-0.128h4.987c0.122,0,0.226,0.043,0.312,0.128s0.128,0.189,0.128,0.312v3.521c0,0.122-0.042,0.226-0.128,0.312
		c-0.086,0.085-0.189,0.128-0.312,0.128H11.747z M11.307,19.7c0,0.122,0.043,0.226,0.128,0.312s0.189,0.128,0.312,0.128h4.987
		c0.122,0,0.226-0.042,0.312-0.128s0.128-0.189,0.128-0.312v-0.88c0-0.122-0.042-0.227-0.128-0.312
		c-0.086-0.086-0.189-0.129-0.312-0.129h-4.987c-0.122,0-0.226,0.043-0.312,0.129c-0.085,0.085-0.128,0.189-0.128,0.312V19.7z
		 M12.774,14.567v1.466h2.933v-1.466H12.774z M18.347,14.42c0,0.123,0.043,0.226,0.128,0.312c0.086,0.085,0.189,0.128,0.312,0.128
		H22.6c0.123,0,0.227-0.043,0.312-0.128c0.085-0.086,0.128-0.189,0.128-0.312v-0.88c0-0.122-0.043-0.226-0.128-0.312
		C22.826,13.143,22.723,13.1,22.6,13.1h-3.812c-0.123,0-0.227,0.043-0.312,0.128c-0.085,0.085-0.128,0.189-0.128,0.312V14.42z
		 M18.347,17.06c0,0.122,0.043,0.226,0.128,0.312c0.086,0.085,0.189,0.128,0.312,0.128H22.6c0.123,0,0.227-0.043,0.312-0.128
		c0.085-0.086,0.128-0.189,0.128-0.312v-0.88c0-0.122-0.043-0.226-0.128-0.312c-0.086-0.086-0.189-0.128-0.312-0.128h-3.812
		c-0.123,0-0.227,0.042-0.312,0.128c-0.085,0.085-0.128,0.189-0.128,0.312V17.06z M18.347,19.7c0,0.122,0.043,0.226,0.128,0.312
		c0.086,0.086,0.189,0.128,0.312,0.128H22.6c0.123,0,0.227-0.042,0.312-0.128c0.085-0.086,0.128-0.189,0.128-0.312v-0.88
		c0-0.122-0.043-0.227-0.128-0.312c-0.086-0.086-0.189-0.129-0.312-0.129h-3.812c-0.123,0-0.227,0.043-0.312,0.129
		c-0.085,0.085-0.128,0.189-0.128,0.312V19.7z"/>
</g>
</svg>
