<?xml version="1.0" encoding="utf-8"?>
<!-- Generator: Adobe Illustrator 26.3.1, SVG Export Plug-In . SVG Version: 6.00 Build 0)  -->
<svg version="1.1" id="Layer_1" xmlns="http://www.w3.org/2000/svg" xmlns:xlink="http://www.w3.org/1999/xlink" x="0px" y="0px"
	 viewBox="0 0 320 320" style="enable-background:new 0 0 320 320;" xml:space="preserve">
<style type="text/css">
	.st0{clip-path:url(#SVGID_00000109009495274879387180000005104442507176526241_);fill:#52668C;}
	.st1{fill:none;}
</style>
<g>
	<defs>
		<rect id="SVGID_1_" x="60" y="62.4" width="200" height="195.2"/>
	</defs>
	<clipPath id="SVGID_00000129904564903948989410000013228391945559727533_">
		<use xlink:href="#SVGID_1_"  style="overflow:visible;"/>
	</clipPath>
	<path style="clip-path:url(#SVGID_00000129904564903948989410000013228391945559727533_);fill:#52668C;" d="M206.7,228.5
		c-0.7,0.1-1.4,0.1-2.1,0.3c-1.4,0.2-7,1.2-8.4,1.4c-9.8,1.7-14.7,3.4-23.8,6.9c-5.7,2.2-11.8,3.7-18.9,4.6v-55.4v-34.5
		c0.6-0.1,1.2-0.1,1.7-0.2c0,0,0,0,0,0c10.5-1.3,19.3-3.4,27.9-6.6c2.3-0.9,4.5-1.6,6.8-2.3c0,0,0,0,0.1,0c2.2-0.7,4.4-1.3,6.6-1.8
		c1-0.2,2-0.5,2.9-0.7c0.7-0.2,1.4-0.3,2.1-0.4c1.7-0.4,3.5-0.7,5.3-1v7v40V228.5z M205,123.8c-9.6,1.5-18.4,3.8-27.4,7.2
		c-7.3,2.8-15.1,4.6-24.3,5.7c0,0,0,0,0,0v0c-0.7,0.1-1.5,0.2-2.2,0.2c-0.2,0-0.4,0-0.6,0.1c-0.8,0.1-1.5,0.1-2.3,0.2
		c-0.2,0-0.4,0-0.6,0c-0.8,0.1-1.6,0.1-2.4,0.1c0,0-0.1,0-0.2,0c-25.6,1.2-45.1-6.4-45.1-6.4v27c-9.7,0-18.3-1.2-25-2.5v-40
		c14.7,3,38.3,5.1,62.6-4.2c30.6-11.7,53.6-9.7,67.4-6V123.8z M260,251v-1V131v-0.3l-3.4-1.5c-5.6-2.6-18.2-7.2-36.6-6.8v-11.2V84.5
		V71.3c0,0-30-20-82.4,0c-39.8,15.2-77.6,0-77.6,0v34.4v5.6v40v18.4v21.6c0,0,16.9,6.8,40,6.7v53v0.2l5.1,1.5
		c4.2,1.2,10.8,2.9,19,3.9c0,0,0,0,0.1,0c0.7,0.1,1.4,0.2,2.2,0.3c0.2,0,0.3,0,0.5,0.1c0.6,0.1,1.2,0.1,1.8,0.2
		c0.3,0,0.6,0.1,0.9,0.1c0.5,0,1,0.1,1.4,0.1c0.4,0,0.8,0.1,1.2,0.1c0.4,0,0.8,0,1.2,0.1c0.5,0,1,0.1,1.5,0.1c0.3,0,0.5,0,0.8,0
		c0.6,0,1.2,0,1.9,0.1c0.1,0,0.1,0,0.2,0c0.7,0,1.4,0,2.1,0c1.6,0,3.3,0,5-0.1c0.2,0,0.4,0,0.7,0c0.7,0,1.5-0.1,2.2-0.1
		c0.2,0,0.4,0,0.6,0c1.7-0.1,3.4-0.3,5.1-0.5c0,0,0,0,0,0c9.2-1.1,16.9-2.9,24.3-5.8c9.4-3.6,18.7-6,29-7.5c2.4-0.3,4.8-0.6,7-0.8
		c0.1,0,0.3,0,0.4,0c1-0.1,2-0.1,2.9-0.2c0.2,0,0.3,0,0.5,0c1,0,1.9-0.1,2.9-0.1c0.1,0,0.2,0,0.3,0c12.9-0.2,22.8,2,29.5,4.3
		l1.4,0.5C257.1,249.1,260,251,260,251"/>
</g>
<rect x="0" class="st1" width="320" height="320"/>
</svg>
