<?xml version="1.0" encoding="utf-8"?>
<!-- Generator: Adobe Illustrator 26.5.0, SVG Export Plug-In . SVG Version: 6.00 Build 0)  -->
<svg version="1.1" id="Layer_1" xmlns="http://www.w3.org/2000/svg" xmlns:xlink="http://www.w3.org/1999/xlink" x="0px" y="0px"
	 viewBox="0 0 320 320" style="enable-background:new 0 0 320 320;" xml:space="preserve">
<style type="text/css">
	.st0{clip-path:url(#SVGID_00000026883389433452830450000002448648056002855317_);fill:#4C6586;}
</style>
<g>
	<g>
		<defs>
			<rect id="SVGID_1_" width="320" height="320"/>
		</defs>
		<clipPath id="SVGID_00000083076479523020305640000002711993965005953977_">
			<use xlink:href="#SVGID_1_"  style="overflow:visible;"/>
		</clipPath>
		<path style="clip-path:url(#SVGID_00000083076479523020305640000002711993965005953977_);fill:#4C6586;" d="M80.6,66.9
			c-17.4,10.5-27.3,24.5-29.3,41.6c-3.4,28.5,15,58.1,33.5,76.4c41,41.6,73.8,69.3,75.2,70.5c1.4-1.2,34-28.7,75.2-70.5
			c18.4-18.3,36.9-48,33.5-76.4c-2.1-17.1-11.9-31.1-29.3-41.6l0,0c-38.8-17.1-62.8,1.8-73.7,14.6l-5.7,6.8l-5.7-6.8
			C143.4,68.7,119.4,49.8,80.6,66.9 M160,275l-9.6-8.1c-1.4-1.2-34.8-29.4-76.2-71.4c-20.9-20.7-41.8-55-37.7-88.8
			C39,84.7,51.3,67,72.9,54l0.8-0.5l0.9-0.4c42.6-18.8,71.3-1,85.5,12.6c14.1-13.5,42.8-31.4,85.4-12.6l1.7,0.9
			c21.6,13,33.8,30.7,36.5,52.6c4.1,33.8-16.8,68.1-37.7,88.8c-41.7,42.3-74.8,70.2-76.2,71.4L160,275z"/>
	</g>
</g>
</svg>
