<?xml version="1.0" encoding="utf-8"?>
<!-- Generator: Adobe Illustrator 26.5.0, SVG Export Plug-In . SVG Version: 6.00 Build 0)  -->
<svg version="1.1" id="Layer_1" xmlns="http://www.w3.org/2000/svg" xmlns:xlink="http://www.w3.org/1999/xlink" x="0px" y="0px"
	 viewBox="0 0 320 320" style="enable-background:new 0 0 320 320;" xml:space="preserve">
<style type="text/css">
	.st0{fill:#4C6586;}
</style>
<path class="st0" d="M205,129.2h-25v89.9h25V129.2z M140,129.2h-25v89.9h25V129.2z M67,114.2h186L164.7,61c-2.4-1.4-7-1.4-9.4,0
	L67,114.2z M281.8,122.2c-0.7,2.6-3.2,7-11.8,7h-25v89.9h15c0,0,5,0,5,5v10c0,0,0,5-5,5H60c0,0-5,0-5-5v-10c0,0,0-5,5-5h15v-89.9H50
	c-8.6,0-11.1-4.4-11.8-7c-0.7-2.6-0.8-7.7,6.5-12.1l102.9-61.9c7.1-4.3,17.8-4.3,24.9,0l102.9,61.9
	C282.6,114.5,282.5,119.5,281.8,122.2 M40,259.1c0-2.8,2.2-5,5-5h230c2.8,0,5,2.2,5,5v10c0,2.8-2.2,5-5,5H45c-2.8,0-5-2.2-5-5V259.1
	z M320,0H0v320h320V0z"/>
</svg>
