<?xml version="1.0" encoding="utf-8"?>
<!-- Generator: Adobe Illustrator 26.5.0, SVG Export Plug-In . SVG Version: 6.00 Build 0)  -->
<svg version="1.1" id="Layer_1" xmlns="http://www.w3.org/2000/svg" xmlns:xlink="http://www.w3.org/1999/xlink" x="0px" y="0px"
	 viewBox="0 0 320 320" style="enable-background:new 0 0 320 320;" xml:space="preserve">
<style type="text/css">
	.st0{clip-path:url(#SVGID_00000060737689819481894190000017746081215026031776_);fill:#4C6586;}
</style>
<g>
	<g>
		<defs>
			<rect id="SVGID_1_" width="320" height="320"/>
		</defs>
		<clipPath id="SVGID_00000075845841753508122880000016244980426291296926_">
			<use xlink:href="#SVGID_1_"  style="overflow:visible;"/>
		</clipPath>
		<path style="clip-path:url(#SVGID_00000075845841753508122880000016244980426291296926_);fill:#4C6586;" d="M145.3,230.7
			l69.6-93.2L191.6,120l-51,67.7l-30.5-27.5l-19.5,21.7l54.2,48.8l0,0H145.3z M280,220h-15V100c0-5.5-4.5-10-10-10H70V70h210V220z
			 M250,255H40V105h210V255z M295,225V65c0-5.5-4.5-10-10-10H65c-5.5,0-10,4.5-10,10v25H35c-5.5,0-10,4.5-10,10v160
			c0,5.5,4.5,10,10,10h220c5.5,0,10-4.5,10-10v-25h20C290.5,235,295,230.5,295,225"/>
	</g>
</g>
</svg>
