<?xml version="1.0" encoding="utf-8"?>
<!-- Generator: Adobe Illustrator 17.0.0, SVG Export Plug-In . SVG Version: 6.00 Build 0)  -->
<!DOCTYPE svg PUBLIC "-//W3C//DTD SVG 1.1//EN" "http://www.w3.org/Graphics/SVG/1.1/DTD/svg11.dtd">
<svg version="1.1" id="Layer_1" xmlns="http://www.w3.org/2000/svg" xmlns:xlink="http://www.w3.org/1999/xlink" x="0px" y="0px"
	 width="32px" height="32px" viewBox="0 0 32 32" enable-background="new 0 0 32 32" xml:space="preserve">
<g>
	<defs>
		<path id="SVGID_1_" d="M7,4c0,0-0.5,0-0.5,0.5v23c0,0,0,0.5,0.5,0.5h1c0,0,0.5,0,0.5-0.5v-23c0,0,0-0.5-0.5-0.5H7z"/>
	</defs>
	<clipPath id="SVGID_2_">
		<use xlink:href="#SVGID_1_"  overflow="visible"/>
	</clipPath>
	
		<linearGradient id="SVGID_3_" gradientUnits="userSpaceOnUse" x1="-119.5833" y1="152.5833" x2="-118.5833" y2="152.5833" gradientTransform="matrix(0 -24 -24 0 3669.5 -2842)">
		<stop  offset="0" style="stop-color:#4C6486"/>
		<stop  offset="0.0198" style="stop-color:#4C6486"/>
		<stop  offset="1" style="stop-color:#5A77A0"/>
	</linearGradient>
	<rect x="6.5" y="4" clip-path="url(#SVGID_2_)" fill="url(#SVGID_3_)" width="2" height="24"/>
</g>
<g>
	<defs>
		<path id="SVGID_4_" d="M24,4c0,0-0.5,0-0.5,0.5v23c0,0,0,0.5,0.5,0.5h1c0,0,0.5,0,0.5-0.5v-23c0,0,0-0.5-0.5-0.5H24z"/>
	</defs>
	<clipPath id="SVGID_5_">
		<use xlink:href="#SVGID_4_"  overflow="visible"/>
	</clipPath>
	
		<linearGradient id="SVGID_6_" gradientUnits="userSpaceOnUse" x1="-119.5833" y1="152.5833" x2="-118.5833" y2="152.5833" gradientTransform="matrix(0 -24 -24 0 3686.5 -2842)">
		<stop  offset="0" style="stop-color:#4C6486"/>
		<stop  offset="0.0198" style="stop-color:#4C6486"/>
		<stop  offset="1" style="stop-color:#5A77A0"/>
	</linearGradient>
	<rect x="23.5" y="4" clip-path="url(#SVGID_5_)" fill="url(#SVGID_6_)" width="2" height="24"/>
</g>
<g>
	<defs>
		<path id="SVGID_7_" d="M15.5,4c0,0-0.5,0-0.5,0.5v23c0,0,0,0.5,0.5,0.5h1c0,0,0.5,0,0.5-0.5v-23c0,0,0-0.5-0.5-0.5H15.5z"/>
	</defs>
	<clipPath id="SVGID_8_">
		<use xlink:href="#SVGID_7_"  overflow="visible"/>
	</clipPath>
	
		<linearGradient id="SVGID_9_" gradientUnits="userSpaceOnUse" x1="-130.4167" y1="163.4167" x2="-129.4167" y2="163.4167" gradientTransform="matrix(0 24 24 0 -3906 3134)">
		<stop  offset="0" style="stop-color:#4C6486"/>
		<stop  offset="0.0198" style="stop-color:#4C6486"/>
		<stop  offset="1" style="stop-color:#5A77A0"/>
	</linearGradient>
	<rect x="15" y="4" clip-path="url(#SVGID_8_)" fill="url(#SVGID_9_)" width="2" height="24"/>
</g>
<g>
	<defs>
		<path id="SVGID_10_" d="M4.5,8C4.5,8,4,8,4,8.5v4c0,0,0,0.5,0.5,0.5h6c0,0,0.5,0,0.5-0.5v-4c0,0,0-0.5-0.5-0.5H4.5z"/>
	</defs>
	<clipPath id="SVGID_11_">
		<use xlink:href="#SVGID_10_"  overflow="visible"/>
	</clipPath>
	
		<linearGradient id="SVGID_12_" gradientUnits="userSpaceOnUse" x1="-124.9167" y1="136.4143" x2="-123.9166" y2="136.4143" gradientTransform="matrix(-5.9993 -5.9993 -5.9993 5.9993 79.4783 -1554.3138)">
		<stop  offset="0" style="stop-color:#FF8F1E"/>
		<stop  offset="0.01" style="stop-color:#FF8F1E"/>
		<stop  offset="1" style="stop-color:#E6700F"/>
	</linearGradient>
	<polygon clip-path="url(#SVGID_11_)" fill="url(#SVGID_12_)" points="7.5,16.5 1.5,10.5 7.5,4.5 13.5,10.5 	"/>
</g>
<g>
	<defs>
		<path id="SVGID_13_" d="M13,17c0,0-0.5,0-0.5,0.5v4c0,0,0,0.5,0.5,0.5h6c0,0,0.5,0,0.5-0.5v-4c0,0,0-0.5-0.5-0.5H13z"/>
	</defs>
	<clipPath id="SVGID_14_">
		<use xlink:href="#SVGID_13_"  overflow="visible"/>
	</clipPath>
	
		<linearGradient id="SVGID_15_" gradientUnits="userSpaceOnUse" x1="-124.9167" y1="136.4143" x2="-123.9166" y2="136.4143" gradientTransform="matrix(-5.9993 -5.9993 -5.9993 5.9993 87.9783 -1545.3138)">
		<stop  offset="0" style="stop-color:#FF8F1E"/>
		<stop  offset="0.01" style="stop-color:#FF8F1E"/>
		<stop  offset="1" style="stop-color:#E6700F"/>
	</linearGradient>
	<polygon clip-path="url(#SVGID_14_)" fill="url(#SVGID_15_)" points="16,25.5 10,19.5 16,13.5 22,19.5 	"/>
</g>
<g>
	<defs>
		<path id="SVGID_16_" d="M21.5,8c0,0-0.5,0-0.5,0.5v4c0,0,0,0.5,0.5,0.5h6c0,0,0.5,0,0.5-0.5v-4c0,0,0-0.5-0.5-0.5H21.5z"/>
	</defs>
	<clipPath id="SVGID_17_">
		<use xlink:href="#SVGID_16_"  overflow="visible"/>
	</clipPath>
	
		<linearGradient id="SVGID_18_" gradientUnits="userSpaceOnUse" x1="-124.9167" y1="136.4143" x2="-123.9166" y2="136.4143" gradientTransform="matrix(-5.9993 -5.9993 -5.9993 5.9993 96.4783 -1554.3138)">
		<stop  offset="0" style="stop-color:#FF8F1E"/>
		<stop  offset="0.01" style="stop-color:#FF8F1E"/>
		<stop  offset="1" style="stop-color:#E6700F"/>
	</linearGradient>
	<polygon clip-path="url(#SVGID_17_)" fill="url(#SVGID_18_)" points="24.5,16.5 18.5,10.5 24.5,4.5 30.5,10.5 	"/>
</g>
</svg>
