<svg id="Layer_1" data-name="Layer 1" xmlns="http://www.w3.org/2000/svg" xmlns:xlink="http://www.w3.org/1999/xlink" viewBox="0 0 320 320"><defs><style>.cls-1{fill:none;}.cls-2{fill:#52658b;}.cls-3{clip-path:url(#clip-path);}.cls-4{fill:#52668c;}</style><clipPath id="clip-path" transform="translate(0 0)"><rect class="cls-1" width="320" height="320"/></clipPath></defs><path class="cls-2" d="M13,87,87,13H307V233l-74,74H13ZM0,0V320H320V0Z" transform="translate(0 0)"/><g class="cls-3"><path class="cls-4" d="M140,78.57h0Zm-7.9,27.13h0Zm-10.7,109.9c4.31,0,9.1,1.89,14,6.75,5.86,5.85,21.13,22.63,21.78,23.34.16.17.31.36.46.55,3.59,4.8,4,5.31,16.62-3.74l.35-.24C183.7,235.7,187,226,186.88,222.7a47.41,47.41,0,0,0-6.93-2c-6.07-1.46-13.63-3.27-18.79-8.4-2.27-2.26-5-6.39-5-13.21,0-10.68,6.88-24.18,13.27-30.58,6.92-6.91,18.29-15.19,37.15-7.43,12.75,5.25,14.43,16.32,15.65,24.4.6,4,1.16,7.69,2.73,10.75,2.13-1.08,5.88-4.54,8.39-7.87a7.51,7.51,0,0,1,.74-.85c4.58-4.49,16.47-16.32,21.91-22.42-2.95-3.76-12-10.19-15.73-12.81-2.17-1.53-4-2.86-5.53-4-10.83-8.42-18.58-21.49-11.5-31.72,5.42-7.83,11.55-9.72,16.48-11.25,3.58-1.11,6.17-1.91,9.11-5a2.75,2.75,0,0,0,.33-1.9c-.21-3.24-2.83-8.61-9.53-14-8.46-6.77-16.7-6.59-18.43-5.28a52.77,52.77,0,0,0-1.65,7.08c-1.63,8.61-3.67,19.31-12.23,22.75-5.08,2-10.82.84-17-3.59a7.79,7.79,0,0,1-1.53-1.45s-11.19-14.09-17.41-22l-1.13-1.45c-4.15-5.3-7-8.72-10.39-9.82L145,84.13c-.16.14-.32.28-.49.41C141,87.26,132.4,95.61,132,103.6c1.4.5,3.47,1.05,5,1.46,6.11,1.65,13.72,3.69,18.53,9.11a23.48,23.48,0,0,1,5.59,17.75c-.75,9.23-6,18.24-14.75,25.36-15.76,12.8-36,11.61-44.23,2.54-3.49-3.83-4.78-9.36-6.14-15.21-1-4.41-2.43-10.45-4.52-12.08a.71.71,0,0,0-.15-.1c-.4-.09-2.79-.18-10.06,7.17l-.59.59c-2.66,2.66-12.57,14.63-16.91,22.07,2.16,3,10,8.75,17.59,12.79a8.3,8.3,0,0,1,.81.49c5.38,3.77,18.05,13.53,19.54,22.88a11.58,11.58,0,0,1-2.11,8.89c-3.87,5.16-9.65,7.36-14.75,9.3-3.61,1.38-7,2.68-9.06,4.73-2.78,2.8-.87,14.88,3.35,21.2,2.23,3.36,15.27,5.1,20.48,1.91,4.84-3,5.43-6.52,6-12.07.4-3.9.85-8.32,4.22-11.69a16.4,16.4,0,0,1,11.55-5.09m40.27,49.07c-5.89,0-11.21-3.06-15.85-9.14-2-2.14-15.83-17.34-21.06-22.57-2.18-2.18-3.3-2.38-3.4-2.39s-.15.08-.42.29c-.15.73-.28,2-.39,3-.62,6.11-1.66,16.34-13.08,23.34-11.09,6.79-33.29,4.89-40.81-6.38-5.6-8.41-12-29.48-1.51-40.09,4.31-4.34,9.66-6.38,14.37-8.17a36.15,36.15,0,0,0,6.73-3.06c-1.88-2.84-7.08-7.72-12.33-11.46A116.88,116.88,0,0,1,61,180c-11.25-8.33-15.09-16.14-11.4-23.2,4.52-8.66,16.53-23.3,20.4-27.16l.52-.53c4.39-4.45,17.76-18,30.09-8.37,6.29,4.89,8.22,13.2,9.92,20.53.69,2.95,1.73,7.41,2.63,8.51,2,2.22,13.34,4.3,23.67-4.1,5.48-4.44,8.85-9.89,9.26-14.92a8.66,8.66,0,0,0-1.85-6.57c-1.83-2.07-7.26-3.53-11.22-4.59-6.93-1.87-14.78-4-15.86-11.79C114.68,89.68,132,75.24,135.13,72.81l17.18-15.54a7.49,7.49,0,0,1,5-1.94c12.17,0,18.81,8.47,24.66,15.94l1.11,1.41c5.27,6.67,14.12,17.82,16.67,21a11.47,11.47,0,0,0,2,1c1.34-2.17,2.49-8.26,3.08-11.33,1.08-5.7,2-10.63,4.81-13.88,7.94-9.27,25.6-7.85,39.37,3.16C258.05,80,263.57,89,264.13,97.41a17.21,17.21,0,0,1-4.46,13.26c-5.63,5.89-11.12,7.59-15.52,9-3.94,1.22-6.11,1.89-8.58,5.46-.36,1.18,2.07,6.43,8.38,11.34,1.22,1,3,2.19,5,3.62,12.17,8.62,21.57,15.87,22.67,24a11.2,11.2,0,0,1-2.44,8.7c-5.24,6.4-21.38,22.31-24.18,25.07-3,3.94-12.06,14.36-21.77,13.69-2.7-.18-7.72-1.41-11.14-7.57-3.06-5.51-3.92-11.21-4.68-16.24-1.23-8.12-2-10.9-6.53-12.77-9.87-4.06-15.11-1.54-20.83,4.17-4,4-8.89,13.82-8.88,19.95a4.09,4.09,0,0,0,.58,2.6c2.17,2.16,7.24,3.37,11.7,4.44,6.9,1.65,14.71,3.53,17.37,10.63,4,10.76-4,28-17.57,37.72l-.35.25c-6.23,4.45-11.62,8.3-17.42,9.54a18.44,18.44,0,0,1-3.85.42" transform="translate(0 0)"/></g></svg>