<svg id="Layer_1" data-name="Layer 1" xmlns="http://www.w3.org/2000/svg" xmlns:xlink="http://www.w3.org/1999/xlink" viewBox="0 0 200 212.29"><defs><style>.cls-1{fill:none;}.cls-2{clip-path:url(#clip-path);}.cls-3{fill:#52668c;}</style><clipPath id="clip-path" transform="translate(-60 -53.86)"><rect class="cls-1" x="60" y="53.86" width="200" height="212.29"/></clipPath></defs><g class="cls-2"><path class="cls-3" d="M260,258.34c-.05-1.33-1.52-32.57-18.58-48.48-9.57-8.94-30-13.42-44.84-16.7l-2.42-.53C206.07,179,212.3,161,212.3,139.84a67.56,67.56,0,0,0-1-11.84,53.86,53.86,0,0,0,6.34-2c10.5-4,10.5-10.27,10.5-15.54S224,98.79,211.62,102c0,0-2.24.34-6.38.71l-1.49-21.36c-1.48-21.17-24.16-29.13-51.33-27.23s-48.51,12.93-47,34.11l.86,12.27c-19.62.85-33.81,4.83-32.25,13.83.9,5.19,4,15.54,20.62,11.67,0,0,2.76-.49,7.68-1a92.29,92.29,0,0,0-1.23,9.9c-2.32,32.62,15.61,47.34,25.25,55.24,1.12.92,2.52,2.07,3.49,3-1.74,1.8-8.06,5.81-30.93,10.89-33,7.32-38.61,51.86-38.83,53.75A7.5,7.5,0,0,0,75,259.53c0-.36,4.59-35.86,27.18-40.87,26-5.77,43.29-12.45,43.29-26.32,0-5.9-4.44-9.55-9.59-13.77-9.1-7.46-21.57-17.69-19.8-42.57a74.72,74.72,0,0,1,1.78-11.9,234.65,234.65,0,0,1,40.75,2.63c16.9,2.59,28.88,3.36,37.77,3.1a51,51,0,0,1,1,10c0,14.81-3.73,35.44-21.49,49.64a8.1,8.1,0,0,0-2.93,8.2c1.38,5.93,6.58,7.08,20.47,10.13,11.69,2.57,31.25,6.88,37.83,13,10.4,9.71,13.51,30.83,13.83,38.13a7.48,7.48,0,0,0,7.48,7.19h.32a7.5,7.5,0,0,0,7.18-7.8" transform="translate(-60 -53.86)"/></g></svg>