<svg id="Layer_1" data-name="Layer 1" xmlns="http://www.w3.org/2000/svg" xmlns:xlink="http://www.w3.org/1999/xlink" viewBox="0 0 265.88 262.06"><defs><style>.cls-1{fill:none;}.cls-2{clip-path:url(#clip-path);}.cls-3{fill:#52668c;}.cls-4{clip-path:url(#clip-path-2);}.cls-5{clip-path:url(#clip-path-3);}</style><clipPath id="clip-path" transform="translate(-27.31 -29.05)"><path class="cls-1" d="M57,29.05V158H178.1a37.79,37.79,0,0,1-7.4-22.43c0-15.93,10-29.62,24.23-35.73V29.05Z"/></clipPath><clipPath id="clip-path-2" transform="translate(-27.31 -29.05)"><rect class="cls-1" x="154.81" y="102.36" width="137.89" height="128.97"/></clipPath><clipPath id="clip-path-3" transform="translate(-27.31 -29.05)"><rect class="cls-1" x="27.31" y="161.98" width="137.89" height="128.96"/></clipPath></defs><g class="cls-2"><path class="cls-3" d="M188.66,158.18a6.75,6.75,0,0,1-6.74-6.47c-.21-4.74-2.21-18.42-8.8-24.57-4.1-3.83-17-6.67-24.75-8.37-9.84-2.17-13.92-3.07-15.09-8.11a7.14,7.14,0,0,1,2.57-7.23c11.46-9.17,13.87-22.57,13.87-32.19C149.72,51,133,42.55,124,42.55c-16.07,0-24.5,8.57-25.75,26.21C97.1,84.69,105.12,91.27,111,96.08c3.48,2.86,7.09,5.81,7.09,10.6,0,11.66-15.1,16-30.55,19.41-14.06,3.12-17,25.92-17,26.14a6.75,6.75,0,0,1-13.4-1.59c.15-1.32,4.09-32.53,27.51-37.73,11.24-2.49,16.27-4.56,18.51-5.83l-.69-.56C95.68,101,83.14,90.7,84.76,67.81c1.76-24.63,16-38.76,39.22-38.76,16.45,0,39.24,14.66,39.24,42.19,0,13.62-3.73,25.37-10.88,34.58,12.82,2.84,23.87,5.73,30,11.45,11.81,11,13,31.58,13.08,33.88a6.76,6.76,0,0,1-6.47,7h-.28" transform="translate(-27.31 -29.05)"/></g><g class="cls-4"><path class="cls-3" d="M286.43,231.49a6.75,6.75,0,0,1-6.74-6.47c-.21-4.74-2.21-18.42-8.8-24.57-4.1-3.83-17-6.67-24.75-8.37-9.85-2.17-13.92-3.07-15.09-8.11a7.12,7.12,0,0,1,2.57-7.23c11.46-9.17,13.86-22.57,13.86-32.19,0-20.27-16.76-28.69-25.73-28.69-16.08,0-24.5,8.57-25.75,26.21-1.14,15.93,6.89,22.51,12.75,27.32,3.49,2.86,7.09,5.82,7.09,10.6,0,11.66-15.09,16-30.55,19.41-14.06,3.12-17,25.92-17,26.14A6.75,6.75,0,0,1,154.85,224c.16-1.32,4.09-32.53,27.52-37.73,11.24-2.49,16.27-4.56,18.5-5.83-.23-.2-.46-.39-.68-.56-6.74-5.53-19.29-15.82-17.66-38.71,1.75-24.63,16.05-38.76,39.22-38.76C238.2,102.36,261,117,261,144.55c0,13.62-3.73,25.37-10.88,34.58,12.83,2.84,23.88,5.73,30,11.45,11.81,11,13,31.58,13.08,33.88a6.77,6.77,0,0,1-6.47,7h-.28" transform="translate(-27.31 -29.05)"/></g><g class="cls-5"><path class="cls-3" d="M158.93,291.11a6.75,6.75,0,0,1-6.74-6.47c-.21-4.74-2.21-18.42-8.8-24.57-4.1-3.83-17-6.67-24.75-8.37-9.85-2.17-13.92-3.06-15.09-8.11a7.12,7.12,0,0,1,2.57-7.23C117.58,227.19,120,213.8,120,204.17c0-20.27-16.76-28.69-25.73-28.69-16.08,0-24.5,8.58-25.75,26.22-1.14,15.92,6.89,22.5,12.75,27.31,3.49,2.86,7.09,5.82,7.09,10.6,0,11.66-15.09,16-30.55,19.41-14.06,3.12-17,25.92-17,26.15a6.75,6.75,0,0,1-13.41-1.59c.16-1.33,4.09-32.54,27.52-37.74,11.24-2.49,16.27-4.56,18.5-5.83l-.68-.56C66,233.92,53.4,223.63,55,200.74c1.75-24.63,16-38.76,39.22-38.76,16.45,0,39.23,14.66,39.23,42.19,0,13.62-3.73,25.37-10.88,34.58,12.83,2.84,23.88,5.74,30,11.45,11.81,11,13,31.58,13.08,33.89a6.76,6.76,0,0,1-6.47,7h-.28" transform="translate(-27.31 -29.05)"/></g></svg>