<svg id="Layer_1" data-name="Layer 1" xmlns="http://www.w3.org/2000/svg" xmlns:xlink="http://www.w3.org/1999/xlink" viewBox="0 0 200.33 199.67"><defs><style>.cls-1{fill:none;}.cls-2{clip-path:url(#clip-path);}.cls-3{fill:#52658b;}.cls-4{fill:#52668c;}</style><clipPath id="clip-path" transform="translate(-59.83 -60.17)"><rect class="cls-1" x="59.83" y="60.17" width="200.33" height="199.67"/></clipPath></defs><g class="cls-2"><path class="cls-3" d="M94.83,259.83a35,35,0,1,0-35-35,35,35,0,0,0,35,35" transform="translate(-59.83 -60.17)"/><path class="cls-4" d="M260.16,259.83c0-.05,0-.11,0-.16,0-110-89.5-199.5-199.5-199.5h-.84v15h.84c101.73,0,184.5,82.76,184.5,184.5,0,.05,0,.11,0,.16Z" transform="translate(-59.83 -60.17)"/><path class="cls-4" d="M59.84,117.33v15a127.64,127.64,0,0,1,127.49,127.5h15c0-78.57-63.92-142.5-142.49-142.5" transform="translate(-59.83 -60.17)"/></g></svg>