<?xml version="1.0" encoding="utf-8"?>
<!-- Generator: Adobe Illustrator 26.3.1, SVG Export Plug-In . SVG Version: 6.00 Build 0)  -->
<svg version="1.1" id="Layer_1" xmlns="http://www.w3.org/2000/svg" xmlns:xlink="http://www.w3.org/1999/xlink" x="0px" y="0px"
	 viewBox="0 0 320 320" style="enable-background:new 0 0 320 320;" xml:space="preserve">
<style type="text/css">
	.st0{clip-path:url(#SVGID_00000120533292721815340800000013085539496178401926_);fill:#52668C;}
	.st1{clip-path:url(#SVGID_00000158721285896438878580000014453397112566999441_);fill:#52658B;}
	.st2{clip-path:url(#SVGID_00000046308391232470886840000006182782139930075056_);fill:#52668C;}
	.st3{fill:none;}
</style>
<g>
	<defs>
		<path id="SVGID_1_" d="M28.1,62.1v143.3h134.5c-5.2-7.1-8.2-15.6-8.2-24.9c0-17.7,11.1-32.9,26.9-39.7V62.1H28.1z"/>
	</defs>
	<clipPath id="SVGID_00000103243975753966426730000011151706567168556935_">
		<use xlink:href="#SVGID_1_"  style="overflow:visible;"/>
	</clipPath>
	<path style="clip-path:url(#SVGID_00000103243975753966426730000011151706567168556935_);fill:#52668C;" d="M174.4,205.6
		c-4,0-7.3-3.2-7.5-7.2c-0.2-5.3-2.5-20.5-9.8-27.3c-4.6-4.2-18.9-7.4-27.5-9.3c-10.9-2.4-15.5-3.4-16.8-9c-0.7-3,0.4-6.1,2.9-8
		c12.7-10.2,15.4-25.1,15.4-35.8c0-22.5-18.6-31.9-28.6-31.9c-17.9,0-27.2,9.5-28.6,29.1c-1.3,17.7,7.7,25,14.2,30.3
		c3.9,3.2,7.9,6.5,7.9,11.8c0,13-16.8,17.8-33.9,21.6c-15.6,3.5-18.9,28.8-18.9,29c-0.5,4.1-4.2,7.1-8.3,6.5c-4.1-0.5-7-4.2-6.6-8.3
		c0.2-1.5,4.5-36.1,30.6-41.9c12.5-2.8,18.1-5.1,20.6-6.5c-0.3-0.2-0.5-0.4-0.8-0.6c-7.5-6.1-21.4-17.6-19.6-43
		c1.9-27.4,17.8-43.1,43.6-43.1c18.3,0,43.6,16.3,43.6,46.9c0,15.1-4.1,28.2-12.1,38.4c14.2,3.2,26.5,6.4,33.3,12.7
		c13.1,12.2,14.4,35.1,14.5,37.7c0.2,4.1-3,7.6-7.2,7.8C174.6,205.6,174.5,205.6,174.4,205.6"/>
</g>
<g>
	<defs>
		<rect id="SVGID_00000103983491974760567370000006170174771681854646_" x="28.1" y="30" width="261.9" height="256.9"/>
	</defs>
	<clipPath id="SVGID_00000133502753266563092720000005199281711718818432_">
		<use xlink:href="#SVGID_00000103983491974760567370000006170174771681854646_"  style="overflow:visible;"/>
	</clipPath>
	<path style="clip-path:url(#SVGID_00000133502753266563092720000005199281711718818432_);fill:#52658B;" d="M276.1,75.7
		c0,10.7-21.4,32.1-21.4,21.4c0-21.4-21.4-21.4-21.4-32.1c0-10.7,10.7,0,21.4-10.7C262.3,46.8,276.1,65,276.1,75.7 M225.5,79.4
		c-0.9,11.2-0.4,13-3.9,19c-6.1,10.6-6.6,8.9-8.4,2.2c-2.2-8.4-11.3-19.8-6.7-25.1C211.1,70.3,226.3,69.6,225.5,79.4 M290,80
		c0-27.6-22.4-50-50-50c-27.6,0-50,22.4-50,50c0,27.6,22.4,50,50,50C267.6,130,290,107.6,290,80"/>
</g>
<g>
	<defs>
		<rect id="SVGID_00000094592608241421739930000015975737714461919126_" x="136.8" y="143.6" width="153.2" height="143.3"/>
	</defs>
	<clipPath id="SVGID_00000105392731137457508110000000067608625104785801_">
		<use xlink:href="#SVGID_00000094592608241421739930000015975737714461919126_"  style="overflow:visible;"/>
	</clipPath>
	<path style="clip-path:url(#SVGID_00000105392731137457508110000000067608625104785801_);fill:#52668C;" d="M283,287.1
		c-4,0-7.3-3.2-7.5-7.2c-0.2-5.3-2.5-20.5-9.8-27.3c-4.6-4.2-18.9-7.4-27.5-9.3c-10.9-2.4-15.5-3.4-16.8-9c-0.7-3,0.4-6.1,2.9-8
		c12.7-10.2,15.4-25.1,15.4-35.8c0-22.5-18.6-31.9-28.6-31.9c-17.9,0-27.2,9.5-28.6,29.1c-1.3,17.7,7.7,25,14.2,30.4
		c3.9,3.2,7.9,6.5,7.9,11.8c0,13-16.8,17.8-33.9,21.6c-15.6,3.5-18.9,28.8-18.9,29c-0.5,4.1-4.2,7.1-8.3,6.5c-4.1-0.5-7-4.2-6.6-8.3
		c0.2-1.5,4.5-36.1,30.6-41.9c12.5-2.8,18.1-5.1,20.6-6.5c-0.3-0.2-0.5-0.4-0.8-0.6c-7.5-6.1-21.4-17.6-19.6-43
		c1.9-27.4,17.8-43.1,43.6-43.1c18.3,0,43.6,16.3,43.6,46.9c0,15.1-4.1,28.2-12.1,38.4c14.2,3.2,26.5,6.4,33.3,12.7
		c13.1,12.2,14.4,35.1,14.5,37.7c0.2,4.1-3,7.6-7.2,7.8C283.2,287.1,283.1,287.1,283,287.1"/>
</g>
<rect class="st3" width="320" height="320"/>
</svg>
