<?xml version="1.0" encoding="utf-8"?>
<!-- Generator: Adobe Illustrator 26.3.1, SVG Export Plug-In . SVG Version: 6.00 Build 0)  -->
<svg version="1.1" id="Layer_1" xmlns="http://www.w3.org/2000/svg" xmlns:xlink="http://www.w3.org/1999/xlink" x="0px" y="0px"
	 viewBox="0 0 320 320" style="enable-background:new 0 0 320 320;" xml:space="preserve">
<style type="text/css">
	.st0{clip-path:url(#SVGID_00000129163638763415578820000006526623837565214108_);fill:#52668C;}
	.st1{fill:none;}
</style>
<g>
	<defs>
		<rect id="SVGID_1_" x="67.5" y="49.9" width="175" height="220.2"/>
	</defs>
	<clipPath id="SVGID_00000162342909709272470030000006047443594457414036_">
		<use xlink:href="#SVGID_1_"  style="overflow:visible;"/>
	</clipPath>
	<path style="clip-path:url(#SVGID_00000162342909709272470030000006047443594457414036_);fill:#52668C;" d="M137.5,167.1h-70v26h70
		v37l45-50l-45-50V167.1z M242.5,262.6V57.4c0-4.1-3.4-7.5-7.5-7.5H100c-4.1,0-7.5,3.4-7.5,7.5v45.2c0,4.1,3.4,7.5,7.5,7.5
		s7.5-3.4,7.5-7.5V64.9h120v190.2h-120v-17.5c0-4.1-3.4-7.5-7.5-7.5s-7.5,3.4-7.5,7.5v25c0,4.1,3.4,7.5,7.5,7.5h135
		C239.1,270.1,242.5,266.8,242.5,262.6"/>
</g>
<rect x="0" class="st1" width="320" height="320"/>
</svg>
