<?xml version="1.0" encoding="utf-8"?>
<!-- Generator: Adobe Illustrator 18.0.0, SVG Export Plug-In . SVG Version: 6.00 Build 0)  -->
<!DOCTYPE svg PUBLIC "-//W3C//DTD SVG 1.1//EN" "http://www.w3.org/Graphics/SVG/1.1/DTD/svg11.dtd">
<svg version="1.1" id="Layer_1" xmlns="http://www.w3.org/2000/svg" xmlns:xlink="http://www.w3.org/1999/xlink" x="0px" y="0px"
	 width="32px" height="32px" viewBox="0 0 32 32" enable-background="new 0 0 32 32" xml:space="preserve">
<g>
	<g>
		<defs>
			<path id="SVGID_1_" d="M17,4c0,0-0.5,0-0.5,0.5v23c0,0,0,0.5,0.5,0.5h8c0,0,0.5,0,0.5-0.5V13.4c-0.3,0.1-0.7,0.1-1,0.1
				c-3.3,0-6-2.7-6-6c0-1.3,0.4-2.5,1.1-3.5H17z"/>
		</defs>
		<clipPath id="SVGID_2_">
			<use xlink:href="#SVGID_1_"  overflow="visible"/>
		</clipPath>
		
			<linearGradient id="SVGID_3_" gradientUnits="userSpaceOnUse" x1="-110.3948" y1="173.7778" x2="-109.3948" y2="173.7778" gradientTransform="matrix(9 0 0 -9 1010.0544 1580)">
			<stop  offset="0" style="stop-color:#E56E1E"/>
			<stop  offset="0.9975" style="stop-color:#FF8D2C"/>
			<stop  offset="1" style="stop-color:#FF8D2C"/>
		</linearGradient>
		<rect x="16.5" y="4" clip-path="url(#SVGID_2_)" fill="url(#SVGID_3_)" width="9" height="24"/>
	</g>
	<rect x="18.9" y="21.3" fill="#FFFFFF" width="4.5" height="1.5"/>
	<rect x="18.9" y="24.3" fill="#FFFFFF" width="4.5" height="1.5"/>
	<g>
		<defs>
			<polygon id="SVGID_4_" points="7.3,19.2 7.3,20.5 10.4,20.5 7.2,24.4 7.2,25.8 12.4,25.8 12.4,24.5 9.1,24.5 12.4,20.6 
				12.4,19.2 			"/>
		</defs>
		<clipPath id="SVGID_5_">
			<use xlink:href="#SVGID_4_"  overflow="visible"/>
		</clipPath>
		
			<linearGradient id="SVGID_6_" gradientUnits="userSpaceOnUse" x1="-99.6527" y1="183.7077" x2="-98.6527" y2="183.7077" gradientTransform="matrix(5.1858 0 0 -5.1858 524.0003 975.1964)">
			<stop  offset="0" style="stop-color:#002555"/>
			<stop  offset="1.983430e-02" style="stop-color:#002555"/>
			<stop  offset="1" style="stop-color:#0F4186"/>
		</linearGradient>
		<rect x="7.2" y="19.2" clip-path="url(#SVGID_5_)" fill="url(#SVGID_6_)" width="5.2" height="6.6"/>
	</g>
	<g>
		<defs>
			<rect id="SVGID_7_" x="8.5" y="14.7" width="2.7" height="1.3"/>
		</defs>
		<clipPath id="SVGID_8_">
			<use xlink:href="#SVGID_7_"  overflow="visible"/>
		</clipPath>
		
			<linearGradient id="SVGID_9_" gradientUnits="userSpaceOnUse" x1="-76.4736" y1="206.2361" x2="-75.4735" y2="206.2361" gradientTransform="matrix(2.7087 0 0 -2.7087 215.6678 573.9905)">
			<stop  offset="0" style="stop-color:#002555"/>
			<stop  offset="1.983430e-02" style="stop-color:#002555"/>
			<stop  offset="1" style="stop-color:#0F4186"/>
		</linearGradient>
		<rect x="8.5" y="14.7" clip-path="url(#SVGID_8_)" fill="url(#SVGID_9_)" width="2.7" height="1.3"/>
	</g>
	<g>
		<defs>
			<path id="SVGID_10_" d="M9.8,6.9L9.8,6.9l0.8,2.5H9L9.8,6.9z M8.8,5.6l-2.4,6.3h1.7l0.5-1.3H11l0.5,1.3h1.8l-2.4-6.3H8.8z"/>
		</defs>
		<clipPath id="SVGID_11_">
			<use xlink:href="#SVGID_10_"  overflow="visible"/>
		</clipPath>
		
			<linearGradient id="SVGID_12_" gradientUnits="userSpaceOnUse" x1="-105.83" y1="177.417" x2="-104.83" y2="177.417" gradientTransform="matrix(6.8569 0 0 -6.8569 732.1093 1225.2242)">
			<stop  offset="0" style="stop-color:#002555"/>
			<stop  offset="1.983430e-02" style="stop-color:#002555"/>
			<stop  offset="1" style="stop-color:#0F4186"/>
		</linearGradient>
		<rect x="6.4" y="5.6" clip-path="url(#SVGID_11_)" fill="url(#SVGID_12_)" width="6.9" height="6.3"/>
	</g>
	<g>
		<defs>
			<circle id="SVGID_13_" cx="24.5" cy="7.5" r="5"/>
		</defs>
		<clipPath id="SVGID_14_">
			<use xlink:href="#SVGID_13_"  overflow="visible"/>
		</clipPath>
		
			<linearGradient id="SVGID_15_" gradientUnits="userSpaceOnUse" x1="-111.8553" y1="171.5" x2="-110.8554" y2="171.5" gradientTransform="matrix(10 0 0 -10 1138.0544 1722.5)">
			<stop  offset="0" style="stop-color:#21C4D7"/>
			<stop  offset="1.983430e-02" style="stop-color:#21C4D7"/>
			<stop  offset="1" style="stop-color:#32D0F6"/>
		</linearGradient>
		<rect x="19.5" y="2.5" clip-path="url(#SVGID_14_)" fill="url(#SVGID_15_)" width="10" height="10"/>
	</g>
	<g>
		<defs>
			<rect id="SVGID_16_" x="6.4" y="2.5" width="23.1" height="25.5"/>
		</defs>
		<clipPath id="SVGID_17_">
			<use xlink:href="#SVGID_16_"  overflow="visible"/>
		</clipPath>
		<path clip-path="url(#SVGID_17_)" fill="#FFFFFF" d="M26,4.9c-1.1,1.1-2.1,0-2.1,1.1S26,7.1,26,9.2c0,1.1,2.1-1.1,2.1-2.1
			S26.7,4.2,26,4.9"/>
		<path clip-path="url(#SVGID_17_)" fill="#FFFFFF" d="M23.1,7.4c0.1-1-1.4-0.9-1.9-0.4s0.4,1.7,0.7,2.5c0.2,0.7,0.2,0.8,0.8-0.2
			C23,8.7,23,8.6,23.1,7.4"/>
	</g>
</g>
</svg>
