<?xml version="1.0" encoding="utf-8"?>
<!-- Generator: Adobe Illustrator 26.3.1, SVG Export Plug-In . SVG Version: 6.00 Build 0)  -->
<svg version="1.1" id="Layer_1" xmlns="http://www.w3.org/2000/svg" xmlns:xlink="http://www.w3.org/1999/xlink" x="0px" y="0px"
	 viewBox="0 0 320 320" style="enable-background:new 0 0 320 320;" xml:space="preserve">
<style type="text/css">
	.st0{clip-path:url(#SVGID_00000109734988341781292550000009270134349915671975_);fill:#52668C;}
	.st1{clip-path:url(#SVGID_00000109734988341781292550000009270134349915671975_);fill:#52658B;}
	.st2{fill:none;}
</style>
<g>
	<defs>
		<rect id="SVGID_1_" x="55" y="50" width="235" height="247.5"/>
	</defs>
	<clipPath id="SVGID_00000163763894123567926380000011714032999180029069_">
		<use xlink:href="#SVGID_1_"  style="overflow:visible;"/>
	</clipPath>
	<path style="clip-path:url(#SVGID_00000163763894123567926380000011714032999180029069_);fill:#52668C;" d="M116,235l15.8-34.4
		c0.1-0.2,0.1-0.4,0.2-0.6H188c0.1,0.2,0.1,0.4,0.2,0.6L204,235H116z M188.8,60H65c-5.5,0-10,4.5-10,10v120c0,5.5,4.5,10,10,10h50.6
		l-39.9,86.9c-1.7,3.8-0.1,8.2,3.7,9.9c1,0.5,2.1,0.7,3.1,0.7c2.8,0,5.6-1.6,6.8-4.4l17.5-38.1h106.3l17.5,38.1
		c1.3,2.8,4,4.4,6.8,4.4c1,0,2.1-0.2,3.1-0.7c3.8-1.7,5.4-6.2,3.7-9.9L204.4,200H255c5.5,0,10-4.5,10-10v-30c-4.7,2-9.8,3.4-15,4.2
		V185H70V75h110C182.2,69.6,185.2,64.6,188.8,60"/>
	<path style="clip-path:url(#SVGID_00000163763894123567926380000011714032999180029069_);fill:#52658B;" d="M276.1,95.7
		c0,10.7-21.4,32.1-21.4,21.4c0-21.4-21.4-21.4-21.4-32.1c0-10.7,10.7,0,21.4-10.7C262.3,66.8,276.1,85,276.1,95.7 M225.5,99.4
		c-0.9,11.2-0.4,13-3.9,19c-6.1,10.6-6.6,8.9-8.4,2.2c-2.2-8.4-11.3-19.8-6.7-25.1C211.1,90.3,226.3,89.6,225.5,99.4 M290,100
		c0-27.6-22.4-50-50-50c-27.6,0-50,22.4-50,50c0,27.6,22.4,50,50,50C267.6,150,290,127.6,290,100"/>
</g>
<rect class="st2" width="320" height="320"/>
</svg>
