<?xml version="1.0" encoding="utf-8"?>
<!-- Generator: Adobe Illustrator 26.3.1, SVG Export Plug-In . SVG Version: 6.00 Build 0)  -->
<svg version="1.1" id="Layer_1" xmlns="http://www.w3.org/2000/svg" xmlns:xlink="http://www.w3.org/1999/xlink" x="0px" y="0px"
	 viewBox="0 0 320 320" style="enable-background:new 0 0 320 320;" xml:space="preserve">
<style type="text/css">
	.st0{clip-path:url(#SVGID_00000075149045049293376880000013383000093502975119_);fill:#52658B;}
	.st1{fill:#52658B;}
	.st2{clip-path:url(#SVGID_00000141448475917263402220000009152389456410363071_);fill:#52658B;}
	.st3{fill:none;}
</style>
<g>
	<defs>
		<rect id="SVGID_1_" x="40" y="40" width="245" height="240"/>
	</defs>
	<clipPath id="SVGID_00000018216660660461634480000000430140107105811119_">
		<use xlink:href="#SVGID_1_"  style="overflow:visible;"/>
	</clipPath>
	<path style="clip-path:url(#SVGID_00000018216660660461634480000000430140107105811119_);fill:#52658B;" d="M220,125.5V45
		c0-2.8-2.2-5-5-5H45c-2.8,0-5,2.2-5,5v210c0,2.8,2.2,5,5,5h101.6c-3.4-4.7-6.4-9.7-8.8-15H55V55h150v70.6c3.3-0.4,6.6-0.6,10-0.6
		C216.7,125,218.3,125.4,220,125.5"/>
</g>
<rect x="80" y="80" class="st1" width="90" height="15"/>
<rect x="80" y="110" class="st1" width="70" height="15"/>
<rect x="80" y="140" class="st1" width="40" height="15"/>
<g>
	<defs>
		<rect id="SVGID_00000114043884073998034300000006460922293474799272_" x="40" y="40" width="245" height="240"/>
	</defs>
	<clipPath id="SVGID_00000126314694680288699170000014088779895461523088_">
		<use xlink:href="#SVGID_00000114043884073998034300000006460922293474799272_"  style="overflow:visible;"/>
	</clipPath>
	<path style="clip-path:url(#SVGID_00000126314694680288699170000014088779895461523088_);fill:#52658B;" d="M261.7,233.4
		c-1.3,2.6-4,4.2-6.8,4.2c-1.1,0-2.3-0.2-3.4-0.8l-40-20c-2.6-1.3-4.2-3.9-4.2-6.8v-40c0-4.2,3.4-7.5,7.5-7.5s7.5,3.4,7.5,7.5v35.3
		l35.8,17.9C262.1,225.1,263.6,229.6,261.7,233.4 M285,210c0-38.7-31.3-70-70-70s-70,31.3-70,70s31.3,70,70,70S285,248.7,285,210"/>
</g>
<rect class="st3" width="320" height="320"/>
</svg>
