<?xml version="1.0" encoding="utf-8"?>
<!-- Generator: Adobe Illustrator 26.3.1, SVG Export Plug-In . SVG Version: 6.00 Build 0)  -->
<svg version="1.1" id="Layer_1" xmlns="http://www.w3.org/2000/svg" xmlns:xlink="http://www.w3.org/1999/xlink" x="0px" y="0px"
	 viewBox="0 0 320 320" style="enable-background:new 0 0 320 320;" xml:space="preserve">
<style type="text/css">
	.st0{clip-path:url(#SVGID_00000132798152781656438080000004840053339100852377_);fill:#52658B;}
</style>
<g>
	<defs>
		<rect id="SVGID_1_" width="320" height="320"/>
	</defs>
	<clipPath id="SVGID_00000080190674314827201660000014475957440564033163_">
		<use xlink:href="#SVGID_1_"  style="overflow:visible;"/>
	</clipPath>
	<path style="clip-path:url(#SVGID_00000080190674314827201660000014475957440564033163_);fill:#52658B;" d="M95.3,220.6l-60,0l0,36
		h60v32l45-50l-45-50L95.3,220.6z M250,60H65c-5.5,0-10,4.5-10,10v120H40V40h210V60z M295,230V70c0-5.5-4.5-10-10-10h-20V35
		c0-5.5-4.5-10-10-10H35c-5.5,0-10,4.5-10,10l0,160c0,5.5,4.5,10,10,10l35,0V75l210,0l0,150l-130.4,0l11.7,15H285
		C290.5,240,295,235.5,295,230 M190.7,159.9l-27.5-24.7l-17.6,19.5l48.8,43.9l0,0l0.6,0l62.6-83.9l-21-15.8L190.7,159.9z"/>
</g>
</svg>
