<?xml version="1.0" encoding="utf-8"?>
<!-- Generator: Adobe Illustrator 26.3.1, SVG Export Plug-In . SVG Version: 6.00 Build 0)  -->
<svg version="1.1" id="Layer_1" xmlns="http://www.w3.org/2000/svg" xmlns:xlink="http://www.w3.org/1999/xlink" x="0px" y="0px"
	 viewBox="0 0 320 320" style="enable-background:new 0 0 320 320;" xml:space="preserve">
<style type="text/css">
	.st0{clip-path:url(#SVGID_00000111902435485983911960000007959564900985699750_);fill:#52668C;}
	.st1{fill:none;}
</style>
<g>
	<defs>
		<rect id="SVGID_1_" x="49.4" y="49.4" width="221.2" height="221.2"/>
	</defs>
	<clipPath id="SVGID_00000020361408721805024420000014269249015233090748_">
		<use xlink:href="#SVGID_1_"  style="overflow:visible;"/>
	</clipPath>
	<path style="clip-path:url(#SVGID_00000020361408721805024420000014269249015233090748_);fill:#52668C;" d="M151.9,98.4
		c-1.6-2.7-3.6-5.2-5.9-7.5c-7.4-7.4-17.2-11.4-27.6-11.4c-10.4,0-20.2,4.1-27.6,11.4c-2.9,2.9-2.9,7.7,0,10.6
		c2.9,2.9,7.7,2.9,10.6,0c4.5-4.5,10.6-7,17-7c6.4,0,12.4,2.5,17,7c1.4,1.4,2.6,3,3.6,4.6c1.4,2.3,3.9,3.6,6.4,3.6
		c1.3,0,2.7-0.3,3.9-1.1C152.9,106.6,154.1,102,151.9,98.4 M156.7,156.7c-21.1,21.1-55.3,21.1-76.4,0c-21.1-21.1-21.1-55.3,0-76.4
		s55.3-21.1,76.4,0C177.8,101.4,177.8,135.6,156.7,156.7 M264.1,236.2L185,163.6l1.2-1.2c3.1-3.1,2.5-8.7-1.4-12.6
		c-1.1-1.1-2.5-1.9-3.8-2.5c11.8-25.5,7.4-56.7-13.6-77.8c-27-27-70.7-27-97.7,0c-27,27-27,70.7,0,97.7
		c21.1,21.1,52.2,25.4,77.8,13.6c0.6,1.4,1.3,2.7,2.5,3.8c3.9,3.9,9.5,4.5,12.6,1.4l1.2-1.2l72.6,79.1c8.2,8.2,21.1,8.6,28.8,0.9
		C272.8,257.4,272.4,244.4,264.1,236.2"/>
</g>
<rect class="st1" width="320" height="320"/>
</svg>
