<?xml version="1.0" encoding="utf-8"?>
<!-- Generator: Adobe Illustrator 25.2.1, SVG Export Plug-In . SVG Version: 6.00 Build 0)  -->
<svg version="1.1" id="Layer_1" xmlns="http://www.w3.org/2000/svg" xmlns:xlink="http://www.w3.org/1999/xlink" x="0px" y="0px"
	 viewBox="0 0 32 32" enable-background="new 0 0 32 32" xml:space="preserve">
<rect fill="none" width="32" height="32"/>
<g>
	<path fill="none" d="M23,20H9c-0.6,0-1,0.4-1,1v3c0,0.6,0.4,1,1,1h14c0.6,0,1-0.4,1-1v-3C24,20.4,23.6,20,23,20z M18.8,23.5
		c-0.6,0-1-0.4-1-1c0-0.6,0.4-1,1-1c0.6,0,1,0.4,1,1C19.8,23.1,19.4,23.5,18.8,23.5z M21.7,23.5c-0.6,0-1-0.4-1-1c0-0.6,0.4-1,1-1
		c0.6,0,1,0.4,1,1C22.7,23.1,22.2,23.5,21.7,23.5z"/>
	<polygon fill="none" points="14.7,16 17.3,16 17.3,12.5 19.9,12.5 16,9 12.1,12.5 14.7,12.5 	"/>
	<g>
		<polygon fill="none" points="14.7,16 17.3,16 17.3,12.5 19.9,12.5 16,9 12.1,12.5 14.7,12.5 		"/>
		<path fill="none" d="M23,20H9c-0.6,0-1,0.4-1,1v3c0,0.6,0.4,1,1,1h14c0.6,0,1-0.4,1-1v-3C24,20.4,23.6,20,23,20z M18.8,23.5
			c-0.6,0-1-0.4-1-1c0-0.6,0.4-1,1-1c0.6,0,1,0.4,1,1C19.8,23.1,19.4,23.5,18.8,23.5z M21.7,23.5c-0.6,0-1-0.4-1-1c0-0.6,0.4-1,1-1
			c0.6,0,1,0.4,1,1C22.7,23.1,22.2,23.5,21.7,23.5z"/>
		<g>
			<polygon fill="none" points="14.7,16 17.3,16 17.3,12.5 19.9,12.5 16,9 12.1,12.5 14.7,12.5 			"/>
			<path fill="none" d="M23,20H9c-0.6,0-1,0.4-1,1v3c0,0.6,0.4,1,1,1h14c0.6,0,1-0.4,1-1v-3C24,20.4,23.6,20,23,20z M18.8,23.5
				c-0.6,0-1-0.4-1-1c0-0.6,0.4-1,1-1c0.6,0,1,0.4,1,1C19.8,23.1,19.4,23.5,18.8,23.5z M21.7,23.5c-0.6,0-1-0.4-1-1c0-0.6,0.4-1,1-1
				c0.6,0,1,0.4,1,1C22.7,23.1,22.2,23.5,21.7,23.5z"/>
			<circle fill="#52658B" cx="18.8" cy="22.5" r="1"/>
			<circle fill="#52658B" cx="21.7" cy="22.5" r="1"/>
			<path fill="#52658B" d="M25.9,18L24.1,6c-0.1-0.5-0.6-1-1.1-1H9C8.4,5,7.9,5.4,7.9,6L6,19c0,0,0,0.4,0,1v6c0,0.6,0.4,1,1,1h18
				c0.6,0,1-0.4,1-1v-7C26,19,25.9,18.6,25.9,18z M16,9l3.9,3.5h-2.6V16h-2.6v-3.5h-2.6L16,9z M24,24c0,0.6-0.4,1-1,1H9
				c-0.6,0-1-0.4-1-1v-3c0-0.6,0.4-1,1-1h14c0.6,0,1,0.4,1,1V24z"/>
		</g>
	</g>
</g>
</svg>
