<?xml version="1.0" encoding="utf-8"?>
<!-- Generator: Adobe Illustrator 26.3.1, SVG Export Plug-In . SVG Version: 6.00 Build 0)  -->
<svg version="1.1" id="Layer_1" xmlns="http://www.w3.org/2000/svg" xmlns:xlink="http://www.w3.org/1999/xlink" x="0px" y="0px"
	 viewBox="0 0 320 320" style="enable-background:new 0 0 320 320;" xml:space="preserve">
<style type="text/css">
	.st0{clip-path:url(#SVGID_00000009588903264742448090000011387901333432193452_);fill:#52668C;}
	.st1{fill:none;}
</style>
<g>
	<defs>
		<rect id="SVGID_1_" x="66.4" y="37.9" width="187.3" height="244.1"/>
	</defs>
	<clipPath id="SVGID_00000152982731067908855010000007304029775518426031_">
		<use xlink:href="#SVGID_1_"  style="overflow:visible;"/>
	</clipPath>
	<path style="clip-path:url(#SVGID_00000152982731067908855010000007304029775518426031_);fill:#52668C;" d="M238.4,80l0.2,164.3
		c-2.2-5.6-5.3-11.1-9.9-15.4c-6.8-6.3-19.1-9.6-33.3-12.7c7.9-10.2,12.1-23.3,12.1-38.4c0-30.6-25.3-46.9-43.6-46.9
		c-25.7,0-41.6,15.7-43.6,43.1c-1.8,25.4,12.1,36.9,19.6,43c0.2,0.2,0.5,0.4,0.8,0.6c-2.5,1.4-8.1,3.7-20.6,6.5
		c-20.3,4.5-27.4,26.6-29.7,36.8c-3.3-2.8-5.7-6-6.7-8.4c-1.5-3.4-2.4-16.7-2.4-27V67.2c1.4,1.6,2.8,3.2,4.2,4.6
		c8.3,8.3,16.4,8.3,21.7,8.3c0.7,0,1.3,0,2,0c0.1,0,0.1,0,0.2,0L238.4,80z M104.5,267c0.6-4,4.6-25.2,18.8-28.4
		c17.2-3.8,33.9-8.6,33.9-21.6c0-5.3-4-8.6-7.9-11.8c-6.5-5.3-15.4-12.7-14.2-30.3c1.4-19.6,10.8-29.1,28.6-29.1
		c10,0,28.6,9.3,28.6,31.9c0,10.7-2.7,25.6-15.4,35.8c-2.5,2-3.6,5-2.9,8c1.3,5.6,5.8,6.6,16.8,9c8.6,1.9,22.9,5,27.5,9.3
		c7.3,6.8,9.5,21.8,9.8,27.2l-123,0.1C105,267.1,104.8,267,104.5,267 M253.6,274.4l-0.3-202c0-4.1-3.4-7.5-7.5-7.5h0l-136.3,0.2
		c-0.7,0-1.5,0-2.2,0c-4.5,0-7.3,0-11.2-3.9c-2.2-2.2-4.7-5.2-7-8.2h133.7c4.1,0,7.5-3.4,7.5-7.5s-3.4-7.5-7.5-7.5H74.4
		c-1.8,0-3.5,0.7-4.9,1.8c-1.9,1.4-3.2,3.6-3.2,6.1v179.5c0,5.8,0.3,25.1,3.6,33c4.1,9.5,18.1,23.6,35.3,23.7l140.9-0.1
		c2,0,3.9-0.8,5.3-2.2C252.9,278.3,253.6,276.4,253.6,274.4"/>
</g>
<rect class="st1" width="320" height="320"/>
</svg>
