<?xml version="1.0" encoding="utf-8"?>
<!-- Generator: Adobe Illustrator 26.5.0, SVG Export Plug-In . SVG Version: 6.00 Build 0)  -->
<svg version="1.1" id="Layer_1" xmlns="http://www.w3.org/2000/svg" xmlns:xlink="http://www.w3.org/1999/xlink" x="0px" y="0px"
	 viewBox="0 0 320 320" style="enable-background:new 0 0 320 320;" xml:space="preserve">
<style type="text/css">
	.st0{clip-path:url(#SVGID_00000147920322973564909270000011311239842849065135_);fill:#52658B;}
	.st1{clip-path:url(#SVGID_00000103246663837946670270000015696283735995008442_);fill:#4C6586;}
	.st2{fill:none;}
</style>
<g>
	<g>
		<defs>
			<rect id="SVGID_1_" x="50.2" y="31.6" width="219.5" height="256.9"/>
		</defs>
		<clipPath id="SVGID_00000010310975195845535420000007574389022179963292_">
			<use xlink:href="#SVGID_1_"  style="overflow:visible;"/>
		</clipPath>
		<path style="clip-path:url(#SVGID_00000010310975195845535420000007574389022179963292_);fill:#52658B;" d="M122.8,255.6
			c2.4,18.5,18.1,32.9,37.2,32.9c19.2,0,34.8-14.3,37.2-32.9C184.9,256.3,135.1,256.3,122.8,255.6"/>
	</g>
	<g>
		<defs>
			<rect id="SVGID_00000036232592813964643200000003792206820832034738_" x="50.2" y="31.6" width="219.5" height="256.9"/>
		</defs>
		<clipPath id="SVGID_00000031897110564255274240000004122763745488714424_">
			<use xlink:href="#SVGID_00000036232592813964643200000003792206820832034738_"  style="overflow:visible;"/>
		</clipPath>
		<path style="clip-path:url(#SVGID_00000031897110564255274240000004122763745488714424_);fill:#4C6586;" d="M65.4,226.8
			c32.9,4.1,156.3,4.1,189.2,0c0.4-7.4-0.1-18.1-1.1-27.3c-10.9-8.1-29.9-26.6-29.9-56.4c0-15.8-0.6-37.9-1.1-43.8
			c-0.1-0.3-0.1-0.6-0.2-0.9c-6-29.6-32.2-51.3-62.4-51.7c-30.1,0.4-56.2,22.2-62.2,51.7l-0.2,1c-0.5,5.9-1.1,28.1-1.1,43.8
			c0,29.8-19.1,48.3-29.9,56.4C65.5,208.6,64.9,219.4,65.4,226.8 M160,244.8c-45.3,0-90.5-1.4-103-4.2l-4.8-1.1l-0.9-4.8
			c-2.4-12.2,0.1-35.7,0.7-40.3l0.4-3.4l2.8-1.9c7.9-5.3,26.2-20.5,26.2-46c0-15.5,0.6-39.4,1.2-45.6l0.2-1l0.3-1.3
			c7.4-36.4,39.7-63.2,76.8-63.6h0.1h0.1c37.2,0.5,69.6,27.3,77,63.7c0.1,0.4,0.2,0.9,0.3,1.4l0.1,0.8c0.6,6.3,1.2,29.8,1.2,45.6
			c0,25.5,18.4,40.7,26.2,46l2.8,1.9l0.4,3.4c0.5,4.6,3.1,28,0.6,40.3l-0.9,4.8l-4.8,1.1C250.5,243.4,205.3,244.8,160,244.8"/>
	</g>
</g>
<rect class="st2" width="320" height="320"/>
</svg>
