<svg id="Layer_1" data-name="Layer 1" xmlns="http://www.w3.org/2000/svg" xmlns:xlink="http://www.w3.org/1999/xlink" viewBox="0 0 260 190"><defs><style>.cls-1{fill:none;}.cls-2{clip-path:url(#clip-path);}.cls-3{fill:#52668c;}.cls-4{fill:#52658b;}</style><clipPath id="clip-path" transform="translate(-30 -70)"><rect class="cls-1" x="30" y="70" width="260" height="190"/></clipPath></defs><g class="cls-2"><path class="cls-3" d="M176.25,260a7.5,7.5,0,0,1-7.49-7.19c-.24-5.27-2.46-20.47-9.78-27.31-4.56-4.25-18.92-7.41-27.5-9.29-10.94-2.41-15.46-3.41-16.77-9a7.94,7.94,0,0,1,2.86-8C130.3,189,133,174.09,133,163.4c0-22.53-18.62-31.88-28.59-31.88-17.86,0-27.22,9.53-28.61,29.13-1.26,17.69,7.66,25,14.17,30.35,3.87,3.17,7.88,6.46,7.88,11.77,0,13-16.77,17.76-33.94,21.57-15.63,3.47-18.9,28.8-18.93,29a7.5,7.5,0,0,1-14.9-1.77c.18-1.47,4.55-36.15,30.58-41.92,12.48-2.77,18.07-5.07,20.56-6.48l-.76-.63C72.94,196.45,59,185,60.8,159.58c2-27.36,17.83-43.06,43.58-43.06,18.28,0,43.59,16.29,43.59,46.88,0,15.13-4.14,28.19-12.08,38.42,14.24,3.16,26.52,6.37,33.32,12.72,13.12,12.24,14.43,35.09,14.53,37.65a7.49,7.49,0,0,1-7.18,7.8h-.31" transform="translate(-30 -70)"/></g><rect class="cls-4" x="140" width="120" height="15"/><rect class="cls-4" x="140" y="33.75" width="120" height="15"/><rect class="cls-4" x="140" y="67.5" width="120" height="15"/></svg>