<?xml version="1.0" encoding="utf-8"?>
<!-- Generator: Adobe Illustrator 26.3.1, SVG Export Plug-In . SVG Version: 6.00 Build 0)  -->
<svg version="1.1" id="Layer_1" xmlns="http://www.w3.org/2000/svg" xmlns:xlink="http://www.w3.org/1999/xlink" x="0px" y="0px"
	 viewBox="0 0 320 320" style="enable-background:new 0 0 320 320;" xml:space="preserve">
<style type="text/css">
	.st0{clip-path:url(#SVGID_00000101095810912403121260000014458283020195178903_);fill:#52668C;}
	.st1{fill:none;}
</style>
<g>
	<defs>
		<rect id="SVGID_1_" x="40" y="60" width="240" height="220"/>
	</defs>
	<clipPath id="SVGID_00000114039415193021949790000001016507533315486394_">
		<use xlink:href="#SVGID_1_"  style="overflow:visible;"/>
	</clipPath>
	<path style="clip-path:url(#SVGID_00000114039415193021949790000001016507533315486394_);fill:#52668C;" d="M200,130h-80v15h80V130
		z M95,115h130v-15H95V115z M207,211c-10.4,0-18.8-8.4-18.8-18.8c0-10.4,8.4-18.8,18.8-18.8c10.4,0,18.7,8.4,18.7,18.8
		C225.8,202.6,217.4,211,207,211 M265,234.8h-42.4v-10.1c0.1-0.1,0.3-0.2,0.4-0.3c2.5-2.2,3.7-1.7,6.2-3.7c4.8-3.8,6.3-7.7,8.1-13.2
		c1.9-5.5-0.6-14-0.3-15.4c0.3-1.4,2.1-5.1,2.3-7.6c0.2-2.5-0.1-5.3-1.6-9.1c-1.5-3.8-4.8-11.7-11.5-15.1
		c-10.2-5.1-11.7-2.5-15.3-2.2c-3.6,0.3-11.8-1.9-18.7,3.7c-4.9,4-10.7,2.5-15.1,10.7c-2.4,4.4-3.8,8.9-3.4,13.3
		c0.3,4.4,0.5,5.5-0.6,9.7c-1.1,4.1-1.5,6.2,0,11c0.8,2.7,2,4.6,3.6,6.3c0,0,5.9,8.7,14.7,12.1v9.9H55v-160h210V234.8z M280,245V65
		c0-2.8-2.2-5-5-5H45c-2.8,0-5,2.2-5,5v180c0,2.8,2.2,5,5,5h146.4v30l15.6-10.6l15.6,10.6v-30H275C277.8,250,280,247.8,280,245"/>
</g>
<rect class="st1" width="320" height="320"/>
</svg>
