<?xml version="1.0" encoding="utf-8"?>
<!-- Generator: Adobe Illustrator 26.3.1, SVG Export Plug-In . SVG Version: 6.00 Build 0)  -->
<svg version="1.1" id="Layer_1" xmlns="http://www.w3.org/2000/svg" xmlns:xlink="http://www.w3.org/1999/xlink" x="0px" y="0px"
	 viewBox="0 0 320 320" style="enable-background:new 0 0 320 320;" xml:space="preserve">
<style type="text/css">
	.st0{clip-path:url(#SVGID_00000114032165893610482300000014335334197309037482_);fill:#52668C;}
	.st1{fill:none;}
</style>
<g>
	<defs>
		<rect id="SVGID_1_" x="40" y="40" width="240" height="240"/>
	</defs>
	<clipPath id="SVGID_00000158730566834192396230000012104143595388658099_">
		<use xlink:href="#SVGID_1_"  style="overflow:visible;"/>
	</clipPath>
	<path style="clip-path:url(#SVGID_00000158730566834192396230000012104143595388658099_);fill:#52668C;" d="M130,235h60v30h-60V235
		z M115,225v50c0,2.8,2.2,5,5,5h80c2.8,0,5-2.2,5-5v-50c0-2.8-2.2-5-5-5h-80C117.2,220,115,222.2,115,225 M143.3,160.4H110l50,48.4
		l50-48.4h-33.3V120h-33.3V160.4z M95,190H45c-2.8,0-5,2.2-5,5v40c0,2.8,2.2,5,5,5h50c2.8,0,5-2.2,5-5v-40
		C100,192.2,97.8,190,95,190 M240,85H80V55h160V85z M255,95V45c0-2.8-2.2-5-5-5H70c-2.8,0-5,2.2-5,5v50c0,2.8,2.2,5,5,5h180
		C252.8,100,255,97.8,255,95 M280,235v-40c0-2.8-2.2-5-5-5h-50c-2.8,0-5,2.2-5,5v40c0,2.8,2.2,5,5,5h50C277.8,240,280,237.8,280,235
		"/>
</g>
<rect class="st1" width="320" height="320"/>
</svg>
