<?xml version="1.0" encoding="utf-8"?>
<!-- Generator: Adobe Illustrator 18.0.0, SVG Export Plug-In . SVG Version: 6.00 Build 0)  -->
<!DOCTYPE svg PUBLIC "-//W3C//DTD SVG 1.1//EN" "http://www.w3.org/Graphics/SVG/1.1/DTD/svg11.dtd">
<svg version="1.1" id="Layer_1" xmlns="http://www.w3.org/2000/svg" xmlns:xlink="http://www.w3.org/1999/xlink" x="0px" y="0px"
	 width="24px" height="24px" viewBox="0 0 32 32" enable-background="new 0 0 32 32" xml:space="preserve">
<g>
	<defs>
		<rect id="SVGID_1_" x="5.5" y="5.5" width="21" height="21"/>
	</defs>
	<clipPath id="SVGID_2_">
		<use xlink:href="#SVGID_1_"  overflow="visible"/>
	</clipPath>
	
		<linearGradient id="SVGID_3_" gradientUnits="userSpaceOnUse" x1="-34.9762" y1="54.7619" x2="-33.9762" y2="54.7619" gradientTransform="matrix(21 0 0 -21 740 1166)">
		<stop  offset="0" style="stop-color:#505050"/>
		<stop  offset="7.292820e-03" style="stop-color:#505050"/>
		<stop  offset="0.3484" style="stop-color:#6A6A6A"/>
		<stop  offset="0.7462" style="stop-color:#828282"/>
		<stop  offset="0.9912" style="stop-color:#8B8B8B"/>
		<stop  offset="1" style="stop-color:#8B8B8B"/>
	</linearGradient>
	<rect x="5.5" y="5.5" clip-path="url(#SVGID_2_)" fill="url(#SVGID_3_)" width="21" height="21"/>
</g>
<g>
	<defs>
		<rect id="SVGID_4_" x="8" y="8" width="4" height="4"/>
	</defs>
	<clipPath id="SVGID_5_">
		<use xlink:href="#SVGID_4_"  overflow="visible"/>
	</clipPath>
	
		<linearGradient id="SVGID_6_" gradientUnits="userSpaceOnUse" x1="-26.375" y1="60.125" x2="-25.375" y2="60.125" gradientTransform="matrix(4 0 0 -4 113.5 250.5)">
		<stop  offset="0" style="stop-color:#21C4D7"/>
		<stop  offset="1.983430e-02" style="stop-color:#21C4D7"/>
		<stop  offset="1" style="stop-color:#32D0F6"/>
	</linearGradient>
	<rect x="8" y="8" clip-path="url(#SVGID_5_)" fill="url(#SVGID_6_)" width="4" height="4"/>
</g>
<g>
	<defs>
		<rect id="SVGID_7_" x="8" y="14" width="4" height="4"/>
	</defs>
	<clipPath id="SVGID_8_">
		<use xlink:href="#SVGID_7_"  overflow="visible"/>
	</clipPath>
	
		<linearGradient id="SVGID_9_" gradientUnits="userSpaceOnUse" x1="-26.375" y1="60.125" x2="-25.375" y2="60.125" gradientTransform="matrix(4 0 0 -4 113.5 256.5)">
		<stop  offset="0" style="stop-color:#21C4D7"/>
		<stop  offset="1.983430e-02" style="stop-color:#21C4D7"/>
		<stop  offset="1" style="stop-color:#32D0F6"/>
	</linearGradient>
	<rect x="8" y="14" clip-path="url(#SVGID_8_)" fill="url(#SVGID_9_)" width="4" height="4"/>
</g>
<g>
	<defs>
		<rect id="SVGID_10_" x="8" y="20" width="4" height="4"/>
	</defs>
	<clipPath id="SVGID_11_">
		<use xlink:href="#SVGID_10_"  overflow="visible"/>
	</clipPath>
	
		<linearGradient id="SVGID_12_" gradientUnits="userSpaceOnUse" x1="-26.375" y1="60.125" x2="-25.375" y2="60.125" gradientTransform="matrix(4 0 0 -4 113.5 262.5)">
		<stop  offset="0" style="stop-color:#21C4D7"/>
		<stop  offset="1.983430e-02" style="stop-color:#21C4D7"/>
		<stop  offset="1" style="stop-color:#32D0F6"/>
	</linearGradient>
	<rect x="8" y="20" clip-path="url(#SVGID_11_)" fill="url(#SVGID_12_)" width="4" height="4"/>
</g>
<polygon fill="#FFFFFF" points="24.5,12 24.5,8 21,8 19.5,8 13.5,8 13.5,12 19.5,12 21,12 "/>
<polygon fill="#FFFFFF" points="24.5,18 24.5,14 20,14 19.5,14 13.5,14 13.5,18 19.5,18 20,18 "/>
<polygon fill="#FFFFFF" points="24.5,24 24.5,20 21,20 19.5,20 13.5,20 13.5,24 19.5,24 21,24 "/>
</svg>
