<?xml version="1.0" encoding="utf-8"?>
<!-- Generator: Adobe Illustrator 18.0.0, SVG Export Plug-In . SVG Version: 6.00 Build 0)  -->
<!DOCTYPE svg PUBLIC "-//W3C//DTD SVG 1.1//EN" "http://www.w3.org/Graphics/SVG/1.1/DTD/svg11.dtd">
<svg version="1.1" id="Layer_1" xmlns="http://www.w3.org/2000/svg" xmlns:xlink="http://www.w3.org/1999/xlink" x="0px" y="0px"
	 width="16px" height="16px" viewBox="0 0 32 32" enable-background="new 0 0 32 32" xml:space="preserve">
<g>
	<defs>
		<path id="SVGID_1_" d="M12.6,27c0.2,1.7,1.6,3,3.4,3s3.2-1.3,3.4-3C18.3,27.1,13.7,27.1,12.6,27 M16,2c-4.2,0.1-7.7,3.1-8.6,7.1
			c-0.1,0-0.2,3.5-0.2,5.3c0,3.5-3.2,5.3-3.2,5.3S3.5,23.6,4,25c0.3,0.9,23.6,0.9,23.9,0c0.5-1.4,0-5.3,0-5.3s-3.2-1.8-3.2-5.3
			c0-1.8-0.1-5.3-0.2-5.3C23.7,5.1,20.2,2.1,16,2z"/>
	</defs>
	<clipPath id="SVGID_2_">
		<use xlink:href="#SVGID_1_"  overflow="visible"/>
	</clipPath>
	
		<linearGradient id="SVGID_3_" gradientUnits="userSpaceOnUse" x1="-105.9688" y1="179.0654" x2="-104.9688" y2="179.0654" gradientTransform="matrix(6.7681 0 0 -6.7681 729.8212 1227.9291)">
		<stop  offset="0" style="stop-color:#505050"/>
		<stop  offset="7.292820e-03" style="stop-color:#505050"/>
		<stop  offset="0.3563" style="stop-color:#6B6B6B"/>
		<stop  offset="0.7492" style="stop-color:#838383"/>
		<stop  offset="0.9912" style="stop-color:#8C8C8C"/>
		<stop  offset="1" style="stop-color:#8C8C8C"/>
	</linearGradient>
	<rect x="3.5" y="2" clip-path="url(#SVGID_2_)" fill="url(#SVGID_3_)" width="25" height="28"/>
</g>
</svg>
