<svg id="Layer_1" data-name="Layer 1" xmlns="http://www.w3.org/2000/svg" xmlns:xlink="http://www.w3.org/1999/xlink" viewBox="0 0 187.29 244.11"><defs><style>.cls-1{fill:none;}.cls-2{clip-path:url(#clip-path);}.cls-3{fill:#52668c;}</style><clipPath id="clip-path" transform="translate(-66.35 -37.95)"><rect class="cls-1" x="66.35" y="37.95" width="187.29" height="244.11"/></clipPath></defs><g class="cls-2"><path class="cls-3" d="M208.58,137h-80v15h80Zm0-26.42h-80v15h80Zm30,156.37-133.34.1C95.09,267,86,257.62,83.75,252.41c-1.48-3.45-2.39-16.72-2.4-27V67.17c1.41,1.64,2.83,3.21,4.2,4.58,8.3,8.3,16.39,8.32,21.74,8.33.66,0,1.32,0,2,0a1.76,1.76,0,0,0,.23,0L238.37,80Zm15,7.48-.3-202a7.49,7.49,0,0,0-7.5-7.48h0l-136.27.16c-.74,0-1.49,0-2.25,0-4.52,0-7.25,0-11.17-3.94a93.12,93.12,0,0,1-7-8.19H222.85a7.5,7.5,0,0,0,0-15H74.44a8.43,8.43,0,0,0-8.09,7.95V225.36c0,5.76.26,25.15,3.61,32.95,4.07,9.5,18.07,23.6,35.28,23.74l140.91-.1a7.51,7.51,0,0,0,7.5-7.52" transform="translate(-66.35 -37.95)"/></g></svg>