<?xml version="1.0" encoding="utf-8"?>
<!-- Generator: Adobe Illustrator 26.3.0, SVG Export Plug-In . SVG Version: 6.00 Build 0)  -->
<svg version="1.1" id="Layer_1" xmlns="http://www.w3.org/2000/svg" xmlns:xlink="http://www.w3.org/1999/xlink" x="0px" y="0px"
	 viewBox="0 0 320 320" style="enable-background:new 0 0 320 320;" xml:space="preserve">
<style type="text/css">
	.st0{fill:#52658B;}
</style>
<path class="st0" d="M117.9,121.2l-29.1,16.8l34.8,9.3l10,35l22-33.4l39.9-2.4l-25.3-26.2l9.3-34.8l-29.1,16.8L115.4,79L117.9,121.2
	z M165.4,189.1l7-11.4l13.1-0.8l52.1,90.2l-20.4,11.8L165.4,189.1z M111.6,159.6L50,143.1l52.4-30.2L98.6,50l52.5,34.7l52.4-30.2
	L187,116l42.1,43.5l-65,3.9l-35.9,54.3L111.6,159.6z M0,320h320V0H0V320z"/>
</svg>
