<svg id="Layer_1" data-name="Layer 1" xmlns="http://www.w3.org/2000/svg" xmlns:xlink="http://www.w3.org/1999/xlink" viewBox="0 0 240 216"><defs><style>.cls-1{fill:none;}.cls-2{clip-path:url(#clip-path);}.cls-3{fill:#52658b;}</style><clipPath id="clip-path" transform="translate(-40 -52)"><rect class="cls-1" x="40" y="52" width="240" height="216"/></clipPath></defs><g class="cls-2"><path class="cls-3" d="M92.5,187H55V79H92.5Zm-30,29.25A11.25,11.25,0,1,1,73.75,227.5,11.25,11.25,0,0,1,62.5,216.25m45,45V58.75C107.5,55,105,52,101.88,52H45.63C42.52,52,40,55,40,58.75v202.5C40,265,42.52,268,45.63,268h56.25c3.1,0,5.62-3,5.62-6.75" transform="translate(-40 -52)"/><path class="cls-3" d="M265,187H227.5V79H265Zm-30,29.25a11.25,11.25,0,1,1,11.25,11.25A11.25,11.25,0,0,1,235,216.25m45,45V58.75C280,55,277.48,52,274.38,52H218.12c-3.1,0-5.62,3-5.62,6.75v202.5c0,3.73,2.52,6.75,5.62,6.75h56.26c3.1,0,5.62-3,5.62-6.75" transform="translate(-40 -52)"/><path class="cls-3" d="M178.75,187h-37.5V79h37.5Zm-30,29.25A11.25,11.25,0,1,1,160,227.5a11.25,11.25,0,0,1-11.25-11.25m45,45V58.75c0-3.73-2.52-6.75-5.63-6.75H131.88c-3.11,0-5.63,3-5.63,6.75v202.5c0,3.73,2.52,6.75,5.63,6.75h56.24c3.11,0,5.63-3,5.63-6.75" transform="translate(-40 -52)"/></g></svg>