<svg id="Layer_1" data-name="Layer 1" xmlns="http://www.w3.org/2000/svg" xmlns:xlink="http://www.w3.org/1999/xlink" viewBox="0 0 260 230"><defs><style>.cls-1{fill:none;}.cls-2{clip-path:url(#clip-path);}.cls-3{fill:#52658b;}</style><clipPath id="clip-path" transform="translate(-30 -45)"><rect class="cls-1" x="30" y="45" width="260" height="230"/></clipPath></defs><g class="cls-2"><path class="cls-3" d="M195,260H45V115h55V60h95Zm15,10V50a5,5,0,0,0-5-5H85a13.91,13.91,0,0,0-8.54,3.54L33.53,91.47A13.85,13.85,0,0,0,30,100V270a5,5,0,0,0,5,5H205a5,5,0,0,0,5-5" transform="translate(-30 -45)"/></g><rect class="cls-3" x="41.5" y="95" width="90" height="15"/><rect class="cls-3" x="41.5" y="125" width="70" height="15"/><rect class="cls-3" x="41.5" y="155" width="90" height="15"/><rect class="cls-3" x="195.08" y="120.78" width="130" height="40" transform="translate(50.34 330.62) rotate(-81)"/><g class="cls-2"><path class="cls-3" d="M258.22,216.41l-17.31-2.74-12.32-1.95,4,15.9h0l6,23.63c1.36,5.35,4.84,5.9,7.78,1.23l16.4-26h0L268.1,218l-9.88-1.57Z" transform="translate(-30 -45)"/></g></svg>