<svg id="Layer_1" data-name="Layer 1" xmlns="http://www.w3.org/2000/svg" xmlns:xlink="http://www.w3.org/1999/xlink" viewBox="0 0 187.29 244.11"><defs><style>.cls-1{fill:none;}.cls-2{clip-path:url(#clip-path);}.cls-3{fill:#52668c;}</style><clipPath id="clip-path" transform="translate(-66.35 -37.95)"><rect class="cls-1" x="66.35" y="37.95" width="187.29" height="244.11"/></clipPath></defs><g class="cls-2"><path class="cls-3" d="M238.37,80l.23,164.28a41.27,41.27,0,0,0-9.88-15.43c-6.8-6.35-19.08-9.57-33.33-12.72,7.94-10.23,12.09-23.3,12.09-38.42,0-30.59-25.32-46.88-43.6-46.88-25.74,0-41.63,15.7-43.57,43.06-1.81,25.44,12.13,36.87,19.62,43l.76.63c-2.48,1.41-8.07,3.71-20.56,6.48-20.32,4.51-27.44,26.61-29.67,36.8a25.6,25.6,0,0,1-6.71-8.35c-1.48-3.45-2.39-16.72-2.4-27V67.17c1.41,1.64,2.83,3.21,4.2,4.58,8.3,8.3,16.39,8.32,21.74,8.33.66,0,1.32,0,2,0a1.76,1.76,0,0,0,.23,0ZM104.54,267c.63-4,4.61-25.25,18.84-28.41,17.17-3.81,33.94-8.61,33.94-21.57,0-5.31-4-8.6-7.88-11.77-6.51-5.35-15.43-12.66-14.17-30.35,1.39-19.6,10.75-29.13,28.61-29.13,10,0,28.6,9.35,28.6,31.88,0,10.69-2.68,25.58-15.41,35.76a8,8,0,0,0-2.86,8c1.31,5.6,5.84,6.6,16.77,9,8.58,1.89,23,5,27.5,9.3,7.28,6.8,9.51,21.84,9.77,27.2l-123,.09c-.25,0-.5,0-.75,0m149.11,7.42-.3-202a7.49,7.49,0,0,0-7.5-7.48h0l-136.27.16c-.74,0-1.49,0-2.25,0-4.52,0-7.25,0-11.17-3.94a93.12,93.12,0,0,1-7-8.19H222.85a7.5,7.5,0,0,0,0-15H74.44a8.43,8.43,0,0,0-8.09,7.95V225.36c0,5.76.26,25.15,3.61,32.95,4.07,9.5,18.07,23.6,35.28,23.74l140.91-.1a7.51,7.51,0,0,0,7.5-7.52" transform="translate(-66.35 -37.95)"/></g></svg>