<svg id="Layer_1" data-name="Layer 1" xmlns="http://www.w3.org/2000/svg" xmlns:xlink="http://www.w3.org/1999/xlink" viewBox="0 0 297.56 297.56"><defs><style>.cls-1{fill:none;}.cls-2{clip-path:url(#clip-path);}.cls-3{fill:#52668c;}</style><clipPath id="clip-path" transform="translate(-11.22 -11.22)"><rect class="cls-1" x="11.22" y="11.22" width="297.56" height="297.56"/></clipPath></defs><g class="cls-2"><path class="cls-3" d="M99.12,99.12a17.5,17.5,0,1,0-24.75,0,17.49,17.49,0,0,0,24.75,0M287.57,191.4,191.4,287.57l-150-150q-6.1-30-12.22-59.95l-1.63-8L69.6,27.53l3.05.62,64.89,13.23Zm21.21,0L145,27.58l-2.22-.45L75.65,13.46l-11-2.24L11.22,64.69l3.24,15.89q6.34,31.1,12.67,62.16l.45,2.22L191.4,308.78Z" transform="translate(-11.22 -11.22)"/></g></svg>