<?xml version="1.0" encoding="utf-8"?>
<!-- Generator: Adobe Illustrator 18.0.0, SVG Export Plug-In . SVG Version: 6.00 Build 0)  -->
<!DOCTYPE svg PUBLIC "-//W3C//DTD SVG 1.1//EN" "http://www.w3.org/Graphics/SVG/1.1/DTD/svg11.dtd">
<svg version="1.1" id="Layer_1" xmlns="http://www.w3.org/2000/svg" xmlns:xlink="http://www.w3.org/1999/xlink" x="0px" y="0px"
	 viewBox="0 0 32 32" enable-background="new 0 0 32 32" xml:space="preserve">
<rect x="17" y="12.7" fill="#52658A" width="13" height="2"/>
<rect x="17" y="16.7" fill="#52658A" width="13" height="2"/>
<rect x="17" y="20.7" fill="#52658A" width="13" height="2"/>
<g>
	<defs>
		<path id="SVGID_1_" d="M8,16.9c-1.2,0-2.2-0.4-3-0.9c-1.8,0.8-3,2.2-3,3.9v6.4h12v-6.4c0-1.7-1.2-3.1-3-3.9
			C10.2,16.5,9.2,16.9,8,16.9"/>
	</defs>
	<clipPath id="SVGID_2_">
		<use xlink:href="#SVGID_1_"  overflow="visible"/>
	</clipPath>
	
		<linearGradient id="SVGID_3_" gradientUnits="userSpaceOnUse" x1="-374.75" y1="477.0727" x2="-373.75" y2="477.0727" gradientTransform="matrix(12 0 0 -12 4499 5746)">
		<stop  offset="0" style="stop-color:#4B813C"/>
		<stop  offset="1.983430e-02" style="stop-color:#4B813C"/>
		<stop  offset="1" style="stop-color:#6E9F3C"/>
	</linearGradient>
	<rect x="2" y="16" clip-path="url(#SVGID_2_)" fill="url(#SVGID_3_)" width="12" height="10.2"/>
</g>
<g>
	<defs>
		<ellipse id="SVGID_4_" cx="8" cy="10.5" rx="4.1" ry="4.5"/>
	</defs>
	<clipPath id="SVGID_5_">
		<use xlink:href="#SVGID_4_"  overflow="visible"/>
	</clipPath>
	
		<linearGradient id="SVGID_6_" gradientUnits="userSpaceOnUse" x1="-359.1818" y1="492.9394" x2="-358.1818" y2="492.9394" gradientTransform="matrix(8.25 0 0 -8.25 2967.125 4077.25)">
		<stop  offset="0" style="stop-color:#DBB395"/>
		<stop  offset="1.983430e-02" style="stop-color:#DBB395"/>
		<stop  offset="1" style="stop-color:#EAC2A4"/>
	</linearGradient>
	<rect x="3.9" y="6" clip-path="url(#SVGID_5_)" fill="url(#SVGID_6_)" width="8.2" height="9"/>
</g>
</svg>
