<?xml version="1.0" encoding="utf-8"?>
<!-- Generator: Adobe Illustrator 18.0.0, SVG Export Plug-In . SVG Version: 6.00 Build 0)  -->
<!DOCTYPE svg PUBLIC "-//W3C//DTD SVG 1.1//EN" "http://www.w3.org/Graphics/SVG/1.1/DTD/svg11.dtd">
<svg version="1.1" id="Layer_1" xmlns="http://www.w3.org/2000/svg" xmlns:xlink="http://www.w3.org/1999/xlink" x="0px" y="0px"
	 viewBox="0 0 32 32" enable-background="new 0 0 32 32" xml:space="preserve">
<g>
	<defs>
		<path id="SVGID_1_" d="M14.4,1C10.9,1,8,3.9,8,7.4c0,0.6,0.1,1.2,0.3,1.8C5.3,9.9,3,12.4,3,15.4c0,3.5,3.1,6.4,7,6.4
			c1.6,0,3-0.5,4.1-1.3c1.5,0.8,3.4,1.3,5.4,1.3c5.2,0,9.5-3.3,9.5-7.4c0-2.9-2.2-5.5-5.4-6.7c0.5-0.6,0.9-1.4,0.9-2.3
			C24.5,3.6,22.9,2,21,2c-0.8,0-1.6,0.3-2.2,0.8C17.7,1.7,16.1,1,14.4,1z"/>
	</defs>
	<clipPath id="SVGID_2_">
		<use xlink:href="#SVGID_1_"  overflow="visible"/>
	</clipPath>
	
		<linearGradient id="SVGID_3_" gradientUnits="userSpaceOnUse" x1="1.0769" y1="33.4401" x2="2.0769" y2="33.4401" gradientTransform="matrix(26 0 0 -26 -25 880.8848)">
		<stop  offset="0" style="stop-color:#4B823C"/>
		<stop  offset="1.983430e-02" style="stop-color:#4B823C"/>
		<stop  offset="1" style="stop-color:#6EA03C"/>
	</linearGradient>
	<rect x="3" y="1" clip-path="url(#SVGID_2_)" fill="url(#SVGID_3_)" width="26" height="20.9"/>
</g>
<g>
	<defs>
		<rect id="SVGID_4_" x="3" y="1" width="26" height="31"/>
	</defs>
	<clipPath id="SVGID_5_">
		<use xlink:href="#SVGID_4_"  overflow="visible"/>
	</clipPath>
	<path clip-path="url(#SVGID_5_)" fill="#4F3326" d="M19.3,32c-1.1-5.1-1.4-16-1.4-16h-3.7c0,0-0.3,10.9-1.4,16H19.3z"/>
</g>
</svg>
