<svg id="Layer_1" data-name="Layer 1" xmlns="http://www.w3.org/2000/svg" xmlns:xlink="http://www.w3.org/1999/xlink" viewBox="0 0 280 280"><defs><style>.cls-1{fill:none;}.cls-2{clip-path:url(#clip-path);}.cls-3{fill:#52658b;}</style><clipPath id="clip-path" transform="translate(-20 -20)"><rect class="cls-1" x="20" y="20" width="280" height="280"/></clipPath></defs><g class="cls-2"><path class="cls-3" d="M209,121.26c0,37.68-43,41.19-43,76.36v3.77h-29.6v-3.27c0-43.71,36.67-43.71,36.67-72.09,0-14.32-13.59-20.1-26.39-20.1-11.54,0-23.34,3-34.14,7L111,86.87c14.06-4.27,26.62-7.28,42.93-7.28,26.38,0,55,11.79,55,41.67M134.4,219.48H168v30.11H134.4ZM300,160A140,140,0,1,0,160,300,140,140,0,0,0,300,160" transform="translate(-20 -20)"/></g></svg>