<?xml version="1.0" encoding="utf-8"?>
<!-- Generator: Adobe Illustrator 26.3.0, SVG Export Plug-In . SVG Version: 6.00 Build 0)  -->
<svg version="1.1" id="Layer_1" xmlns="http://www.w3.org/2000/svg" xmlns:xlink="http://www.w3.org/1999/xlink" x="0px" y="0px"
	 viewBox="0 0 320 320" style="enable-background:new 0 0 320 320;" xml:space="preserve">
<style type="text/css">
	.st0{clip-path:url(#SVGID_00000112618081438115241380000006017326264705601968_);fill:#52668C;}
</style>
<g>
	<defs>
		<rect id="SVGID_1_" width="320" height="320"/>
	</defs>
	<clipPath id="SVGID_00000075854789834796967340000004776855027621388954_">
		<use xlink:href="#SVGID_1_"  style="overflow:visible;"/>
	</clipPath>
	<path style="clip-path:url(#SVGID_00000075854789834796967340000004776855027621388954_);fill:#52668C;" d="M188.9,226.6
		c0,12.2,9.9,22.1,22.1,22.1s22.1-9.9,22.1-22.1c0-12.2-9.9-22.1-22.1-22.1S188.9,214.4,188.9,226.6 M121.2,226.6
		c0,12.2,9.9,22.1,22.1,22.1c12.2,0,22.1-9.9,22.1-22.1c0-12.2-9.9-22.1-22.1-22.1C131.1,204.5,121.2,214.4,121.2,226.6
		 M246.6,175.2H112.5L91.4,87c-0.8-3.4-3.8-5.8-7.3-5.8h-42c-4.1,0-7.5,3.4-7.5,7.5s3.4,7.5,7.5,7.5h36.1l21.1,88.2
		c0.8,3.4,3.8,5.8,7.3,5.8h140c4.1,0,7.5-3.4,7.5-7.5C254.1,178.6,250.7,175.2,246.6,175.2 M261.3,97.7H114.6l12.6,62.7h115
		L261.3,97.7z"/>
</g>
</svg>
