<svg id="Layer_1" data-name="Layer 1" xmlns="http://www.w3.org/2000/svg" xmlns:xlink="http://www.w3.org/1999/xlink" viewBox="0 0 239.76 164.8"><defs><style>.cls-1,.cls-4{fill:none;}.cls-2{clip-path:url(#clip-path);}.cls-3{fill:#fff;}.cls-4{stroke:#52658b;stroke-width:15px;}</style><clipPath id="clip-path" transform="translate(-40.12 -77.6)"><rect class="cls-1" x="40.12" y="77.6" width="239.76" height="164.8"/></clipPath></defs><g class="cls-2"><path class="cls-3" d="M99.27,148.91c-.56-1.64-12.65-38.36,15.67-54.9,29.12-17,64.39-6.4,81,4.89,21.14,14.37,20.75,39.47,20.72,40.53l-.2,8.25,8.23-.55c.2,0,22.27-1.29,36.1,11.75,7.77,7.32,11.67,18.08,11.6,32-.19,36.29-34.18,43.13-38.71,43.87H89.2l-.41,0c-.16,0-18.76,1.79-30.63-9.34-7.51-7-11-18.07-10.48-32.81.32-8.48,5.69-18.32,13.7-25.06a37.55,37.55,0,0,1,29.81-8.79l12.07,1.61Z" transform="translate(-40.12 -77.6)"/><path class="cls-4" d="M99.27,148.91c-.56-1.64-12.65-38.36,15.67-54.9,29.12-17,64.39-6.4,81,4.89,21.14,14.37,20.75,39.47,20.72,40.53l-.2,8.25,8.23-.55c.2,0,22.27-1.29,36.1,11.75,7.77,7.32,11.67,18.08,11.6,32-.19,36.29-34.18,43.13-38.71,43.87H89.2l-.41,0c-.16,0-18.76,1.79-30.63-9.34-7.51-7-11-18.07-10.48-32.81.32-8.48,5.69-18.32,13.7-25.06a37.55,37.55,0,0,1,29.81-8.79l12.07,1.61Z" transform="translate(-40.12 -77.6)"/></g></svg>