<svg id="Layer_1" data-name="Layer 1" xmlns="http://www.w3.org/2000/svg" xmlns:xlink="http://www.w3.org/1999/xlink" viewBox="0 0 219.54 256.86"><defs><style>.cls-1{fill:none;}.cls-2{clip-path:url(#clip-path);}.cls-3{fill:#52658b;}.cls-4{fill:#52668c;}</style><clipPath id="clip-path" transform="translate(-50.23 -31.57)"><rect class="cls-1" x="50.23" y="31.57" width="219.54" height="256.86"/></clipPath></defs><g class="cls-2"><path class="cls-3" d="M122.78,255.57a37.51,37.51,0,0,0,74.44,0c-12.28.76-62.16.76-74.44,0" transform="translate(-50.23 -31.57)"/><path class="cls-4" d="M65.39,226.76c32.92,4.11,156.3,4.11,189.22,0,.45-7.36-.12-18.12-1.05-27.3-10.86-8.09-29.95-26.58-29.95-56.4,0-15.77-.62-37.93-1.11-43.84l-.18-.91A65,65,0,0,0,159.9,46.57,64.82,64.82,0,0,0,97.7,98.25l-.21,1c-.48,5.92-1.1,28.08-1.1,43.83,0,29.82-19.1,48.31-29.95,56.4-.93,9.18-1.5,19.94-1,27.3m94.61,18c-45.26,0-90.51-1.4-103-4.21l-4.77-1.07-1-4.8c-2.41-12.21.12-35.67.65-40.25l.4-3.42,2.85-1.92c7.89-5.34,26.24-20.52,26.24-46,0-15.53.63-39.39,1.2-45.6l.16-1L83,95.22A79.89,79.89,0,0,1,159.8,31.57h.2a80,80,0,0,1,77,63.7c.08.4.18.88.27,1.36l.13.83c.58,6.32,1.2,29.76,1.2,45.6,0,25.52,18.35,40.69,26.24,46L267.7,191l.4,3.42c.53,4.58,3.06,28,.65,40.25l-.95,4.8L263,240.56c-12.52,2.81-57.78,4.21-103,4.21" transform="translate(-50.23 -31.57)"/></g></svg>