<svg id="Layer_1" data-name="Layer 1" xmlns="http://www.w3.org/2000/svg" xmlns:xlink="http://www.w3.org/1999/xlink" viewBox="0 0 240 240"><defs><style>.cls-1{fill:none;}.cls-2{clip-path:url(#clip-path);}.cls-3{fill:#52658b;}</style><clipPath id="clip-path" transform="translate(-40 -40)"><rect class="cls-1" x="40" y="40" width="240" height="240"/></clipPath></defs><g class="cls-2"><path class="cls-3" d="M188.28,160l56.57,56.57-28.28,28.28L160,188.29l-56.57,56.56L75.15,216.57,131.72,160,75.15,103.43l28.28-28.28L160,131.71l56.57-56.56,28.28,28.28ZM280,260V60a20,20,0,0,0-20-20H60A20,20,0,0,0,40,60V260a20,20,0,0,0,20,20H260a20,20,0,0,0,20-20" transform="translate(-40 -40)"/></g></svg>