<svg id="Layer_1" data-name="Layer 1" xmlns="http://www.w3.org/2000/svg" xmlns:xlink="http://www.w3.org/1999/xlink" viewBox="0 0 245 240"><defs><style>.cls-1{fill:none;}.cls-2{clip-path:url(#clip-path);}.cls-3{fill:#52658b;}</style><clipPath id="clip-path" transform="translate(-40 -40)"><rect class="cls-1" x="40" y="40" width="245" height="240"/></clipPath></defs><g class="cls-2"><path class="cls-3" d="M220,125.5V45a5,5,0,0,0-5-5H45a5,5,0,0,0-5,5V255a5,5,0,0,0,5,5H146.56a87.61,87.61,0,0,1-8.83-15H55V55H205v70.6a86.76,86.76,0,0,1,10-.6c1.71,0,3.31.4,5,.5" transform="translate(-40 -40)"/></g><rect class="cls-3" x="40" y="40" width="90" height="15"/><rect class="cls-3" x="40" y="70" width="70" height="15"/><rect class="cls-3" x="40" y="100" width="40" height="15"/><g class="cls-2"><path class="cls-3" d="M261.75,233.38a7.55,7.55,0,0,1-6.76,4.17,7.39,7.39,0,0,1-3.37-.8l-40-20a7.55,7.55,0,0,1-4.17-6.75V170a7.55,7.55,0,0,1,15.1,0v35.34l35.83,17.91a7.55,7.55,0,0,1,3.37,10.13M285,210a70,70,0,1,0-70,70,70,70,0,0,0,70-70" transform="translate(-40 -40)"/></g></svg>