<svg id="Layer_1" data-name="Layer 1" xmlns="http://www.w3.org/2000/svg" xmlns:xlink="http://www.w3.org/1999/xlink" viewBox="0 0 22 19.09"><defs><style>.cls-1{fill:none;}.cls-2{clip-path:url(#clip-path);}.cls-3{fill:url(#linear-gradient);}.cls-4{fill:#fff;}.cls-5{clip-path:url(#clip-path-2);}.cls-6{fill:url(#linear-gradient-2);}.cls-7{clip-path:url(#clip-path-3);}.cls-8{fill:url(#linear-gradient-3);}.cls-9{clip-path:url(#clip-path-4);}.cls-10{fill:url(#linear-gradient-4);}</style><clipPath id="clip-path" transform="translate(-5 -6.46)"><path class="cls-1" d="M5.43,6.46A.42.42,0,0,0,5,6.89V21.3a.43.43,0,0,0,.43.44h8.84v2.34H12.33v1.46h7.34V24.08H17.73V21.74h8.84A.42.42,0,0,0,27,21.3V6.89a.42.42,0,0,0-.43-.43Z"/></clipPath><linearGradient id="linear-gradient" x1="-186.86" y1="238.64" x2="-185.86" y2="238.64" gradientTransform="matrix(22, 0, 0, -22, 4111, 5259.55)" gradientUnits="userSpaceOnUse"><stop offset="0" stop-color="#4c6585"/><stop offset="0.02" stop-color="#4c6585"/><stop offset="1" stop-color="#5a789f"/></linearGradient><clipPath id="clip-path-2" transform="translate(-5 -6.46)"><rect class="cls-1" x="6.5" y="9" width="3.5" height="1.5"/></clipPath><linearGradient id="linear-gradient-2" x1="-138.57" y1="287.34" x2="-137.57" y2="287.34" gradientTransform="matrix(3.5, 0, 0, -3.5, 486.5, 1009)" gradientUnits="userSpaceOnUse"><stop offset="0" stop-color="#e56e1e"/><stop offset="1" stop-color="#ff8d2c"/><stop offset="1" stop-color="#ff8d2c"/></linearGradient><clipPath id="clip-path-3" transform="translate(-5 -6.46)"><rect class="cls-1" x="11" y="9" width="3.5" height="1.5"/></clipPath><linearGradient id="linear-gradient-3" x1="-138.57" y1="287.34" x2="-137.57" y2="287.34" gradientTransform="matrix(3.5, 0, 0, -3.5, 491, 1009)" xlink:href="#linear-gradient-2"/><clipPath id="clip-path-4" transform="translate(-5 -6.46)"><rect class="cls-1" x="15.5" y="9" width="3.5" height="1.5"/></clipPath><linearGradient id="linear-gradient-4" x1="-138.57" y1="287.34" x2="-137.57" y2="287.34" gradientTransform="matrix(3.5, 0, 0, -3.5, 495.5, 1009)" xlink:href="#linear-gradient-2"/></defs><title>icon_cntrlnvgtn_B3</title><g class="cls-2"><rect class="cls-3" width="22" height="19.09"/></g><rect class="cls-4" x="1.5" y="1.59" width="19" height="12"/><g class="cls-5"><rect class="cls-6" x="1.5" y="2.54" width="3.5" height="1.5"/></g><g class="cls-7"><rect class="cls-8" x="6" y="2.54" width="3.5" height="1.5"/></g><g class="cls-9"><rect class="cls-10" x="10.5" y="2.54" width="3.5" height="1.5"/></g></svg>