<svg id="Layer_1" data-name="Layer 1" xmlns="http://www.w3.org/2000/svg" xmlns:xlink="http://www.w3.org/1999/xlink" viewBox="0 0 250 200"><defs><style>.cls-1{fill:none;}.cls-2{clip-path:url(#clip-path);}.cls-3{fill:#52658b;}</style><clipPath id="clip-path" transform="translate(-30 -60)"><rect class="cls-1" x="30" y="60" width="250" height="200"/></clipPath></defs><g class="cls-2"><path class="cls-3" d="M280,250V90a10,10,0,0,0-10-10H126.67L120,60H40v82H55V75h50l6.67,20H265V245H55V208H40v42a10,10,0,0,0,10,10H270a10,10,0,0,0,10-10" transform="translate(-30 -60)"/></g><polygon class="cls-3" points="60 97 0 97 0 133 60 133 60 165 105 115 60 65 60 97"/></svg>