<?xml version="1.0" encoding="utf-8"?>
<!-- Generator: Adobe Illustrator 18.0.0, SVG Export Plug-In . SVG Version: 6.00 Build 0)  -->
<!DOCTYPE svg PUBLIC "-//W3C//DTD SVG 1.1//EN" "http://www.w3.org/Graphics/SVG/1.1/DTD/svg11.dtd">
<svg version="1.1" id="Layer_1" xmlns="http://www.w3.org/2000/svg" xmlns:xlink="http://www.w3.org/1999/xlink" x="0px" y="0px"
	 width="32px" height="32px" viewBox="0 0 32 32" enable-background="new 0 0 32 32" xml:space="preserve">
<g>
	<defs>
		<path id="SVGID_1_" d="M6,26.5c0,0.8,2.2,1.5,5,1.5s5-0.7,5-1.5S13.8,25,11,25S6,25.7,6,26.5"/>
	</defs>
	<clipPath id="SVGID_2_">
		<use xlink:href="#SVGID_1_"  overflow="visible"/>
	</clipPath>
	
		<linearGradient id="SVGID_3_" gradientUnits="userSpaceOnUse" x1="-111.9" y1="171.15" x2="-110.9" y2="171.15" gradientTransform="matrix(10 0 0 -10 1125 1738)">
		<stop  offset="0" style="stop-color:#505050"/>
		<stop  offset="7.292820e-03" style="stop-color:#505050"/>
		<stop  offset="0.3563" style="stop-color:#6B6B6B"/>
		<stop  offset="0.7492" style="stop-color:#838383"/>
		<stop  offset="0.9912" style="stop-color:#8C8C8C"/>
		<stop  offset="1" style="stop-color:#8C8C8C"/>
	</linearGradient>
	<rect x="6" y="25" clip-path="url(#SVGID_2_)" fill="url(#SVGID_3_)" width="10" height="3"/>
</g>
<g>
	<defs>
		<path id="SVGID_4_" d="M11,4C9.9,4,9.7,4.4,9.7,5c0,0,0,0,0,0c0,0,0,0,0,0v1.2v12.4v7.8c0,0.3,0.2,0.5,1.3,0.5s1.3-0.2,1.3-0.5
			v-9.7c2.2-0.8,2.7-0.8,6.3-1.5c3.4-0.3,7.4-2,8-4.8c0.2-1,0.1-1.6-0.4-1.6c-1.4,0-3.4,0.7-5.7-1.3c-2.7-2.4-5.6-2.9-8.3-2.9
			C11.9,4.3,11.9,4,11,4z"/>
	</defs>
	<clipPath id="SVGID_5_">
		<use xlink:href="#SVGID_4_"  overflow="visible"/>
	</clipPath>
	
		<linearGradient id="SVGID_6_" gradientUnits="userSpaceOnUse" x1="-118.1387" y1="165.4374" x2="-117.1387" y2="165.4374" gradientTransform="matrix(19.0927 0 0 -19.0927 2264.5876 3174.1467)">
		<stop  offset="0" style="stop-color:#002555"/>
		<stop  offset="1.983430e-02" style="stop-color:#002555"/>
		<stop  offset="1" style="stop-color:#0F4187"/>
	</linearGradient>
	<rect x="9.7" y="4" clip-path="url(#SVGID_5_)" fill="url(#SVGID_6_)" width="17.1" height="23"/>
</g>
</svg>
