<svg id="Layer_1" data-name="Layer 1" xmlns="http://www.w3.org/2000/svg" xmlns:xlink="http://www.w3.org/1999/xlink" viewBox="0 0 292.59 243.91"><defs><style>.cls-1{fill:none;}.cls-2{clip-path:url(#clip-path);}.cls-3{fill:#52668c;}</style><clipPath id="clip-path" transform="translate(-13.71 -38.05)"><rect class="cls-1" x="13.71" y="38.05" width="292.59" height="243.91"/></clipPath></defs><g class="cls-2"><path class="cls-3" d="M41.54,166.89l-18.18-4.71,46.27,111.7a12.73,12.73,0,0,0,17,7l211.46-87.59c5.85-2.42,10.33-9.19,7.11-17L259,64.6l-9.53,16.18,41.16,99.37L82.7,266.25ZM226.23,60.59l-62.79,106.6-119.78-31Zm23.64-17.91a7.5,7.5,0,0,0-9.8-4.06L18.34,130.46a7.5,7.5,0,0,0-4.06,9.8L16,144.42l149.15,38.7a7.5,7.5,0,0,0,8.34-3.45l78.1-132.83-1.72-4.16" transform="translate(-13.71 -38.05)"/></g></svg>