<svg id="Layer_1" data-name="Layer 1" xmlns="http://www.w3.org/2000/svg" xmlns:xlink="http://www.w3.org/1999/xlink" viewBox="0 0 240 240"><defs><style>.cls-1,.cls-3{fill:none;}.cls-2{clip-path:url(#clip-path);}.cls-3{stroke:#52658b;stroke-width:15px;}.cls-4{fill:#52658b;}</style><clipPath id="clip-path" transform="translate(-40 -40)"><rect class="cls-1" x="40" y="40" width="240" height="240"/></clipPath></defs><g class="cls-2"><circle class="cls-3" cx="120" cy="120" r="62.5"/><path class="cls-4" d="M250,100a30,30,0,1,0-30-30,30,30,0,0,0,30,30" transform="translate(-40 -40)"/><path class="cls-4" d="M70,100A30,30,0,1,0,40,70a30,30,0,0,0,30,30" transform="translate(-40 -40)"/><path class="cls-4" d="M250,280a30,30,0,1,0-30-30,30,30,0,0,0,30,30" transform="translate(-40 -40)"/><path class="cls-4" d="M70,280a30,30,0,1,0-30-30,30,30,0,0,0,30,30" transform="translate(-40 -40)"/></g></svg>