<svg id="Layer_1" data-name="Layer 1" xmlns="http://www.w3.org/2000/svg" xmlns:xlink="http://www.w3.org/1999/xlink" viewBox="0 0 240 200"><defs><style>.cls-1{fill:none;}.cls-2{clip-path:url(#clip-path);}.cls-3{fill:#52658b;}</style><clipPath id="clip-path" transform="translate(-40 -60)"><rect class="cls-1" x="40" y="60" width="240" height="200"/></clipPath></defs><g class="cls-2"><path class="cls-3" d="M167.34,80H126.67L120,60H40V250a10,10,0,0,0,10,10H270a10,10,0,0,0,10-10V144.62a65.06,65.06,0,0,1-15,16.59V245H55V75h50l6.67,20h50.09a64.42,64.42,0,0,1,5.58-15" transform="translate(-40 -60)"/><path class="cls-3" d="M261.08,105.71c0,10.69-21.37,32.07-21.37,21.38,0-21.38-21.38-21.38-21.38-32.07S229,95,239.71,84.33c7.56-7.55,21.37,10.69,21.37,21.38m-50.54,3.68c-.87,11.21-.41,13-3.88,19-6.12,10.6-6.57,8.94-8.36,2.24-2.24-8.36-11.27-19.85-6.72-25.08s19.72-5.91,19,3.88M275,110a50,50,0,1,0-50,50,50,50,0,0,0,50-50" transform="translate(-40 -60)"/></g></svg>