<svg id="Layer_1" data-name="Layer 1" xmlns="http://www.w3.org/2000/svg" xmlns:xlink="http://www.w3.org/1999/xlink" viewBox="0 0 240.34 233.96"><defs><style>.cls-1{fill:none;}.cls-2{fill:#52658b;}.cls-3{clip-path:url(#clip-path);}.cls-4{fill:#52668c;}</style><clipPath id="clip-path" transform="translate(-39.83 -43.02)"><rect class="cls-1" x="39.83" y="43.02" width="240.34" height="233.97"/></clipPath></defs><rect class="cls-2" x="182.09" y="90.76" width="130" height="40" transform="translate(47.55 286.4) rotate(-78)"/><g class="cls-3"><path class="cls-2" d="M241.28,186.2l-17.14-3.65L211.94,180,215.12,196,219.86,220c1.07,5.42,4.52,6.15,7.7,1.64l17.74-25.14h0l5.76-8.17-9.78-2.07Z" transform="translate(-39.83 -43.02)"/><path class="cls-4" d="M186.07,193.72a7.48,7.48,0,0,1-7.48-7.19c-.24-5.26-2.46-20.47-9.78-27.3-4.56-4.25-18.92-7.41-27.5-9.3-10.94-2.41-15.47-3.4-16.77-9a7.93,7.93,0,0,1,2.85-8c12.74-10.19,15.41-25.08,15.41-35.77,0-22.53-18.62-31.88-28.59-31.88C96.35,65.24,87,74.77,85.6,94.37c-1.26,17.69,7.66,25,14.17,30.35,3.87,3.18,7.88,6.46,7.88,11.77,0,13-16.77,17.77-33.95,21.58-15.62,3.46-18.89,28.79-18.92,29.05a7.5,7.5,0,0,1-14.9-1.77c.17-1.48,4.54-36.15,30.58-41.93,12.48-2.77,18.07-5.06,20.56-6.48-.27-.21-.53-.43-.76-.62-7.49-6.14-21.43-17.58-19.63-43,2-27.37,17.83-43.07,43.58-43.07,18.28,0,43.59,16.29,43.59,46.88,0,15.13-4.14,28.19-12.08,38.42,14.24,3.16,26.52,6.38,33.32,12.72,13.12,12.25,14.43,35.09,14.53,37.65a7.5,7.5,0,0,1-7.18,7.81h-.32" transform="translate(-39.83 -43.02)"/><path class="cls-4" d="M117.33,277a7.5,7.5,0,0,1-5.63-12.45c5.4-6.14,39.26-31.35,64.47-32,8.32-.23,15,2.2,19.87,7.18,6.54,6.68,11.22,9.81,14.31,9.57,3.34-.25,8.19-4.18,14.18-9.29a7.5,7.5,0,0,1,9.74,11.41c-8.64,7.37-14.89,12.24-22.78,12.84-10.16.78-18.58-6.29-26.17-14-1.86-1.9-4.72-2.78-8.75-2.67-18.76.5-49,21.71-53.61,26.94a7.48,7.48,0,0,1-5.63,2.54" transform="translate(-39.83 -43.02)"/></g></svg>