<?xml version="1.0" encoding="utf-8"?>
<!-- Generator: Adobe Illustrator 26.3.0, SVG Export Plug-In . SVG Version: 6.00 Build 0)  -->
<svg version="1.1" id="Layer_1" xmlns="http://www.w3.org/2000/svg" xmlns:xlink="http://www.w3.org/1999/xlink" x="0px" y="0px"
	 viewBox="0 0 320 320" style="enable-background:new 0 0 320 320;" xml:space="preserve">
<style type="text/css">
	.st0{clip-path:url(#SVGID_00000139993070980549772520000000148286774874243968_);fill:#52668C;}
</style>
<g>
	<defs>
		<rect id="SVGID_1_" width="320" height="320"/>
	</defs>
	<clipPath id="SVGID_00000043428045196152024530000002386696888348754070_">
		<use xlink:href="#SVGID_1_"  style="overflow:visible;"/>
	</clipPath>
	<path style="clip-path:url(#SVGID_00000043428045196152024530000002386696888348754070_);fill:#52668C;" d="M114.8,80h90V50h-22.3
		v-1c0-7.7-6.3-14-14-14h-17c-7.7,0-14,6.3-14,14v1h-22.7V80z M109.8,175h100v-15h-100V175z M109.8,205h100v-15h-100V205z
		 M109.8,235h100v-15h-100V235z M250,270V60c0-2.8-2.2-5-5-5h-25.2v15h15v190h-150V70h15V55H75c-2.8,0-5,2.2-5,5v210
		c0,2.8,2.2,5,5,5h170C247.8,275,250,272.8,250,270"/>
</g>
</svg>
