<svg id="Layer_1" data-name="Layer 1" xmlns="http://www.w3.org/2000/svg" xmlns:xlink="http://www.w3.org/1999/xlink" viewBox="0 0 215 235"><defs><style>.cls-1{fill:none;}.cls-2{clip-path:url(#clip-path);}.cls-3{fill:#52658b;}</style><clipPath id="clip-path" transform="translate(-50 -40)"><rect class="cls-1" x="50" y="40" width="215" height="235"/></clipPath></defs><g class="cls-2"><path class="cls-3" d="M210,70V45s0-5-5-5H55s-5,0-5,5V235s0,5,5,5h45V75c0-5,5-5,5-5Z" transform="translate(-50 -40)"/><path class="cls-3" d="M265,123.15V90s0-5-5-5H120s-5,0-5,5V270s0,5,5,5H260s5,0,5-5V183.38l-51.48,69-.77,0h0l-66.87-60.21L170,165.33l37.69,33.94Z" transform="translate(-50 -40)"/></g></svg>