<svg id="Layer_1" data-name="Layer 1" xmlns="http://www.w3.org/2000/svg" xmlns:xlink="http://www.w3.org/1999/xlink" viewBox="0 0 229.72 248.62"><defs><style>.cls-1{fill:none;}.cls-2{clip-path:url(#clip-path);}.cls-3{fill:#52668c;}.cls-4{fill:#52658b;}</style><clipPath id="clip-path" transform="translate(-35.28 -40)"><rect class="cls-1" x="35.28" y="40" width="229.72" height="248.62"/></clipPath></defs><g class="cls-2"><path class="cls-3" d="M250,165H70V55H250Zm15,5V50a10,10,0,0,0-10-10H65A10,10,0,0,0,55,50V170a10,10,0,0,0,10,10H188a5.25,5.25,0,0,0,.22.63L204,215H135.39L151,235h62.19l17.52,38.13a7.5,7.5,0,0,0,6.82,4.37,7.4,7.4,0,0,0,3.12-.69,7.5,7.5,0,0,0,3.69-9.94L204.4,180H255a10,10,0,0,0,10-10" transform="translate(-35.28 -40)"/></g><polygon class="cls-4" points="60 180.62 0 180.62 0 216.62 60 216.62 60 248.62 105 198.62 60 148.62 60 180.62"/></svg>