<?xml version="1.0" encoding="utf-8"?>
<!-- Generator: Adobe Illustrator 26.2.1, SVG Export Plug-In . SVG Version: 6.00 Build 0)  -->
<svg version="1.1" id="Layer_1" xmlns="http://www.w3.org/2000/svg" xmlns:xlink="http://www.w3.org/1999/xlink" x="0px" y="0px"
	 viewBox="0 0 320 320" style="enable-background:new 0 0 320 320;" xml:space="preserve">
<style type="text/css">
	.st0{clip-path:url(#SVGID_00000124845357458729812250000016069153027513673371_);fill:#52668C;}
</style>
<g>
	<defs>
		<rect id="SVGID_1_" width="320" height="320"/>
	</defs>
	<clipPath id="SVGID_00000058590077595889337660000002554162180802312869_">
		<use xlink:href="#SVGID_1_"  style="overflow:visible;"/>
	</clipPath>
	<path style="clip-path:url(#SVGID_00000058590077595889337660000002554162180802312869_);fill:#52668C;" d="M65.9,28.2
		c3.1-2.7,3.5-7.4,0.8-10.6c-2.7-3.1-7.4-3.5-10.6-0.8C54.2,18.5,8.8,58.2,8.8,141.9c0,83.7,45.4,123.5,47.4,125.2
		c1.4,1.2,3.1,1.8,4.9,1.8c2.1,0,4.2-0.9,5.7-2.6c2.7-3.1,2.3-7.9-0.8-10.6c-0.1-0.1-10.7-9.3-21.1-27.9c-9.6-17.1-21-45.9-21-85.8
		c0-40,11.4-68.7,21-85.8C55.2,37.5,65.8,28.3,65.9,28.2 M106.3,66.6c3-2.8,3.2-7.5,0.4-10.6c-2.8-3.1-7.5-3.3-10.6-0.5
		c-1.3,1.1-30.7,28.8-30.7,86.4s29.4,85.2,30.7,86.4c1.4,1.3,3.2,2,5,2c2,0,4-0.8,5.5-2.4c2.8-3,2.6-7.8-0.4-10.6
		c-0.3-0.2-25.8-24.7-25.8-75.4C80.5,91.5,105.9,67,106.3,66.6 M189.1,170.2c16.1-16.1,16.1-42.1,0-58.2C173,96,147,96,130.9,112
		c-16.1,16.1-16.1,42.1,0,58.2c5.3,5.3,11.8,8.7,18.6,10.5c-8.9,62-17.8,139.2-17.8,139.2h56.4c0,0-8.9-77.3-17.8-139.3
		C177.3,179,183.7,175.6,189.1,170.2 M254.5,141.9c0-57.6-29.4-85.2-30.7-86.4c-3-2.8-7.8-2.6-10.6,0.4c-2.8,3-2.6,7.8,0.4,10.6
		c0.3,0.2,25.8,24.7,25.8,75.4c0,50.6-25.6,75.1-25.8,75.3c-3.1,2.8-3.3,7.5-0.5,10.6c1.5,1.6,3.5,2.4,5.5,2.4c1.8,0,3.6-0.7,5.1-2
		C225.1,227.2,254.5,199.6,254.5,141.9 M311.2,141.9c0-83.7-45.4-123.5-47.4-125.1c-3.1-2.7-7.9-2.3-10.6,0.8
		c-2.7,3.1-2.3,7.9,0.8,10.6c0.4,0.4,42.1,36.9,42.1,113.7c0,40-11.4,68.7-21,85.8c-10.4,18.6-21,27.8-21.1,27.9
		c-3.1,2.7-3.5,7.4-0.8,10.6c1.5,1.7,3.6,2.6,5.7,2.6c1.7,0,3.5-0.6,4.9-1.8C265.8,265.4,311.2,225.7,311.2,141.9"/>
</g>
</svg>
