<?xml version="1.0" encoding="utf-8"?>
<!-- Generator: Adobe Illustrator 26.2.1, SVG Export Plug-In . SVG Version: 6.00 Build 0)  -->
<svg version="1.1" id="Layer_1" xmlns="http://www.w3.org/2000/svg" xmlns:xlink="http://www.w3.org/1999/xlink" x="0px" y="0px"
	 viewBox="0 0 320 320" style="enable-background:new 0 0 320 320;" xml:space="preserve">
<style type="text/css">
	.st0{clip-path:url(#SVGID_00000140013751181436137310000006895905539862520720_);fill:#52668C;}
</style>
<g>
	<defs>
		<rect id="SVGID_1_" width="320" height="320"/>
	</defs>
	<clipPath id="SVGID_00000105398366426822379700000013784996781027649422_">
		<use xlink:href="#SVGID_1_"  style="overflow:visible;"/>
	</clipPath>
	<path style="clip-path:url(#SVGID_00000105398366426822379700000013784996781027649422_);fill:#52668C;" d="M155.7,213.4l-47-35.2
		v-36.7l47-35.2V213.4z M170.7,228.4V91.2c0-2.8-1.6-5.4-4.1-6.7c-2.5-1.3-5.6-1-7.9,0.7l-53,39.8H69.3c-5.5,0-10,4.5-10,10v50
		c0,5.5,4.5,10,10,10h36.9l52.5,39.4c1.3,1,2.9,1.5,4.5,1.5c1.1,0,2.3-0.3,3.4-0.8C169.1,233.8,170.7,231.2,170.7,228.4 M223.4,160
		c0-40.2-19.1-59.8-19.9-60.6c-2.9-2.9-7.7-2.9-10.6,0c-2.9,2.9-2.9,7.7,0,10.6c0.6,0.7,15.5,16.4,15.5,50s-14.9,49.4-15.5,50
		c-2.9,2.9-2.9,7.7,0,10.6c1.5,1.5,3.4,2.2,5.3,2.2c1.9,0,3.8-0.7,5.3-2.2C204.3,219.8,223.4,200.2,223.4,160 M260.7,160
		c0-58.5-30.4-86.5-31.7-87.7c-3.1-2.8-7.8-2.5-10.6,0.5c-2.8,3.1-2.6,7.8,0.5,10.6c0.3,0.2,26.7,25.1,26.7,76.6
		s-26.5,76.3-26.7,76.5c-3.1,2.8-3.3,7.5-0.6,10.6c1.5,1.6,3.5,2.5,5.6,2.5c1.8,0,3.6-0.6,5-1.9C230.4,246.5,260.7,218.5,260.7,160"
		/>
</g>
</svg>
