<svg id="Layer_1" data-name="Layer 1" xmlns="http://www.w3.org/2000/svg" xmlns:xlink="http://www.w3.org/1999/xlink" viewBox="0 0 245 244.11"><defs><style>.cls-1{fill:none;}.cls-2{clip-path:url(#clip-path);}.cls-3{fill:#52658b;}</style><clipPath id="clip-path" transform="translate(-45 -37.95)"><rect class="cls-1" x="45" y="37.95" width="245" height="244.11"/></clipPath></defs><g class="cls-2"><path class="cls-3" d="M217.09,133.78a64.58,64.58,0,0,1,15-3.67L232,72.44A7.5,7.5,0,0,0,224.5,65h0l-136.27.16c-.74,0-1.49,0-2.24,0-4.52,0-7.25,0-11.18-3.94a93.09,93.09,0,0,1-7-8.19H201.5a7.5,7.5,0,0,0,0-15H53.08a7.53,7.53,0,0,0-4.88,1.8A7.49,7.49,0,0,0,45,45.9V225.36c0,5.76.26,25.15,3.61,32.95,4.07,9.49,18.07,23.6,35.27,23.74L224.8,282a7.51,7.51,0,0,0,7.49-7.52l0-15.29a64.55,64.55,0,0,1-15-3.62l0,11.43-133.34.1c-10.2-.08-19.31-9.43-21.55-14.65C60.92,249,60,235.69,60,225.36V67.17c1.41,1.64,2.83,3.21,4.2,4.58,8.29,8.3,16.38,8.32,21.74,8.33.66,0,1.31,0,2,0a1.77,1.77,0,0,0,.23,0L217,80ZM187.23,137h-80v15h80Zm-80-11.42h80v-15h-80Zm168.85,64.74c0,10.69-21.37,32.07-21.37,21.38,0-21.38-21.38-21.38-21.38-32.07s10.69,0,21.38-10.68c7.56-7.56,21.37,10.68,21.37,21.37M225.54,194c-.87,11.22-.41,12.95-3.88,19-6.12,10.6-6.56,8.94-8.36,2.24-2.24-8.36-11.27-19.84-6.72-25.08s19.72-5.9,19,3.88m64.46.61a50,50,0,1,0-50,50,50,50,0,0,0,50-50" transform="translate(-45 -37.95)"/></g></svg>