<svg id="Layer_1" data-name="Layer 1" xmlns="http://www.w3.org/2000/svg" xmlns:xlink="http://www.w3.org/1999/xlink" viewBox="0 0 235 247.5"><defs><style>.cls-1{fill:none;}.cls-2{clip-path:url(#clip-path);}.cls-3{fill:#52668c;}.cls-4{fill:#52658b;}</style><clipPath id="clip-path" transform="translate(-55 -50)"><rect class="cls-1" x="55" y="50" width="235" height="247.5"/></clipPath></defs><g class="cls-2"><path class="cls-3" d="M116,235l15.79-34.37A5.25,5.25,0,0,0,132,200H188c.07.21.12.42.21.63L204,235ZM188.79,60H65A10,10,0,0,0,55,70V190a10,10,0,0,0,10,10h50.6L75.69,286.87a7.5,7.5,0,0,0,3.68,9.94,7.41,7.41,0,0,0,3.13.69,7.49,7.49,0,0,0,6.81-4.37L106.83,255H213.17l17.52,38.13a7.5,7.5,0,0,0,6.82,4.37,7.4,7.4,0,0,0,3.12-.69,7.5,7.5,0,0,0,3.69-9.94L204.4,200H255a10,10,0,0,0,10-10V160a64,64,0,0,1-15,4.22V185H70V75H180a64.92,64.92,0,0,1,8.8-15" transform="translate(-55 -50)"/><path class="cls-4" d="M276.08,95.71c0,10.69-21.37,32.07-21.37,21.38,0-21.38-21.38-21.38-21.38-32.07S244,85,254.71,74.33c7.56-7.55,21.37,10.69,21.37,21.38m-50.54,3.68c-.87,11.21-.41,13-3.88,19-6.12,10.6-6.56,8.94-8.36,2.24-2.24-8.36-11.27-19.85-6.72-25.08s19.72-5.91,19,3.88M290,100a50,50,0,1,0-50,50,50,50,0,0,0,50-50" transform="translate(-55 -50)"/></g></svg>