<svg id="Layer_1" data-name="Layer 1" xmlns="http://www.w3.org/2000/svg" xmlns:xlink="http://www.w3.org/1999/xlink" viewBox="0 0 174.56 240"><defs><style>.cls-1{fill:none;}.cls-2{fill:#52658b;}.cls-3{clip-path:url(#clip-path);}</style><clipPath id="clip-path" transform="translate(-72.72 -40)"><rect class="cls-1" x="72.72" y="40" width="174.56" height="240"/></clipPath></defs><polygon class="cls-2" points="165.59 230 165.59 217.59 126.16 217.59 164.56 166.89 164.56 153.33 108.34 153.33 108.34 165.74 146.05 165.74 106.97 216.55 106.97 230 165.59 230"/><rect class="cls-2" x="121.08" y="111.61" width="30.49" height="12.58"/><path class="cls-2" d="M208.73,60.24l12,33.21H196.42ZM198.38,50l-27.66,72.64h15.9l6.54-18.19h30.92l6.43,18.19h16.77L219.51,50Z" transform="translate(-72.72 -40)"/><g class="cls-3"><path class="cls-2" d="M132.72,190h-45V70h45Zm-35,32.5a12.5,12.5,0,1,1,12.5,12.5,12.5,12.5,0,0,1-12.5-12.5m50,50V47.5c0-4.14-2.8-7.5-6.25-7.5H79c-3.45,0-6.25,3.36-6.25,7.5v225c0,4.14,2.8,7.5,6.25,7.5h62.5c3.45,0,6.25-3.36,6.25-7.5" transform="translate(-72.72 -40)"/></g></svg>