<?xml version="1.0" encoding="utf-8"?>
<!-- Generator: Adobe Illustrator 19.1.0, SVG Export Plug-In . SVG Version: 6.00 Build 0)  -->
<!DOCTYPE svg PUBLIC "-//W3C//DTD SVG 1.1//EN" "http://www.w3.org/Graphics/SVG/1.1/DTD/svg11.dtd">
<svg version="1.1" id="Layer_1" xmlns="http://www.w3.org/2000/svg" xmlns:xlink="http://www.w3.org/1999/xlink" x="0px" y="0px" width="32px" height="32px"
	 viewBox="0 0 32 32" enable-background="new 0 0 32 32" xml:space="preserve">
<g>
	<defs>
		<polygon id="SVGID_1_" points="4,5 4,20 8,20 8,11 23,11 23,5 		"/>
	</defs>
	<clipPath id="SVGID_2_">
		<use xlink:href="#SVGID_1_"  overflow="visible"/>
	</clipPath>
	
		<linearGradient id="SVGID_3_" gradientUnits="userSpaceOnUse" x1="-457.3684" y1="543.1842" x2="-456.3684" y2="543.1842" gradientTransform="matrix(19 0 0 -19 8694 10333)">
		<stop  offset="0" style="stop-color:#2F5A28"/>
		<stop  offset="1.983430e-02" style="stop-color:#2F5A28"/>
		<stop  offset="1" style="stop-color:#6EA03C"/>
	</linearGradient>
	<rect x="4" y="5" clip-path="url(#SVGID_2_)" fill="url(#SVGID_3_)" width="19" height="15"/>
</g>
<g>
	<defs>
		<rect id="SVGID_4_" x="4" y="20" width="4" height="2"/>
	</defs>
	<clipPath id="SVGID_5_">
		<use xlink:href="#SVGID_4_"  overflow="visible"/>
	</clipPath>
	
		<linearGradient id="SVGID_6_" gradientUnits="userSpaceOnUse" x1="-453.7075" y1="547.1346" x2="-452.7075" y2="547.1346" gradientTransform="matrix(16.6254 0 0 -16.6254 7548.2705 9117.3477)">
		<stop  offset="0" style="stop-color:#321E14"/>
		<stop  offset="1.983430e-02" style="stop-color:#321E14"/>
		<stop  offset="1" style="stop-color:#503228"/>
	</linearGradient>
	<rect x="4" y="20" clip-path="url(#SVGID_5_)" fill="url(#SVGID_6_)" width="4" height="2"/>
</g>
<path fill="none" stroke="#181716" stroke-width="0.5" d="M26.5,9"/>
<g>
	<defs>
		<polygon id="SVGID_7_" points="10,13 10,27 28,27 28,18 22,26 22,26 22,26 15.3,19.9 17.7,17.3 21.4,20.7 27.2,13 		"/>
	</defs>
	<clipPath id="SVGID_8_">
		<use xlink:href="#SVGID_7_"  overflow="visible"/>
	</clipPath>
	
		<linearGradient id="SVGID_9_" gradientUnits="userSpaceOnUse" x1="-455.9444" y1="544.6111" x2="-454.9444" y2="544.6111" gradientTransform="matrix(18 0 0 -18 8217 9823)">
		<stop  offset="0" style="stop-color:#2F5A28"/>
		<stop  offset="1.983430e-02" style="stop-color:#2F5A28"/>
		<stop  offset="1" style="stop-color:#6EA03C"/>
	</linearGradient>
	<rect x="10" y="13" clip-path="url(#SVGID_8_)" fill="url(#SVGID_9_)" width="18" height="14"/>
</g>
<g>
	<defs>
		<polygon id="SVGID_10_" points="22.8,25 22,26 22,26 22,26 20.9,25 10,25 10,27 28,27 28,25 		"/>
	</defs>
	<clipPath id="SVGID_11_">
		<use xlink:href="#SVGID_10_"  overflow="visible"/>
	</clipPath>
	
		<linearGradient id="SVGID_12_" gradientUnits="userSpaceOnUse" x1="-452.0802" y1="548.8087" x2="-451.0802" y2="548.8087" gradientTransform="matrix(15.7504 0 0 -15.7504 7131.5718 8669.9609)">
		<stop  offset="0" style="stop-color:#321E14"/>
		<stop  offset="1.983430e-02" style="stop-color:#321E14"/>
		<stop  offset="1" style="stop-color:#503228"/>
	</linearGradient>
	<rect x="10" y="25" clip-path="url(#SVGID_11_)" fill="url(#SVGID_12_)" width="18" height="2"/>

	<polygon fill="#FFFFFF" transform="translate(-2.2 -6.9) scale(1.32 1.32)" points="9,17.245 13,21.745 9,26.245 9,23.245 5,23.245 5,20.245 9,20.245"/>
	<polygon fill="#FA831A" points="9,17.245 13,21.745 9,26.245 9,23.245 5,23.245 5,20.245 9,20.245"/>
</g>
</svg>