<svg id="Layer_1" data-name="Layer 1" xmlns="http://www.w3.org/2000/svg" xmlns:xlink="http://www.w3.org/1999/xlink" viewBox="0 0 200 186.31"><defs><style>.cls-1{fill:none;}.cls-2{clip-path:url(#clip-path);}.cls-3{fill:#52668c;}</style><clipPath id="clip-path" transform="translate(-60 -66.85)"><rect class="cls-1" x="60" y="66.85" width="200" height="186.31"/></clipPath></defs><g class="cls-2"><path class="cls-3" d="M67.51,253.15c-.29,0-.59,0-.89-.05a7.5,7.5,0,0,1-6.57-8.32c.22-1.9,5.83-46.43,38.83-53.75,22.87-5.08,29.19-9.09,30.93-10.89-1-.89-2.37-2-3.49-3-9.64-7.91-27.57-22.62-25.25-55.24,3.4-47.93,36.3-55.09,55.6-55.09,12.26,0,25.76,5.51,36.09,14.75,8.91,8,19.54,22.28,19.54,45.25,0,21.15-6.23,39.16-18.15,52.79l2.42.53c14.89,3.27,35.27,7.76,44.84,16.69C258.47,212.78,259.94,244,260,245.34a7.5,7.5,0,1,1-15,.62c-.32-7.31-3.43-28.42-13.83-38.13-6.57-6.13-26.14-10.44-37.83-13-13.89-3.06-19.09-4.2-20.47-10.13a8.12,8.12,0,0,1,2.93-8.2c17.76-14.2,21.49-34.84,21.49-49.64,0-31.8-26.46-45-40.63-45C131.29,81.85,118,95.31,116,123c-1.77,24.89,10.7,35.11,19.8,42.58,5.15,4.22,9.59,7.87,9.59,13.77,0,13.87-17.31,20.55-43.29,26.32-22.35,5-27.14,40.5-27.18,40.86a7.5,7.5,0,0,1-7.44,6.62" transform="translate(-60 -66.85)"/></g></svg>