<svg id="Layer_1" data-name="Layer 1" xmlns="http://www.w3.org/2000/svg" xmlns:xlink="http://www.w3.org/1999/xlink" viewBox="0 0 210 237.5"><defs><style>.cls-1{fill:none;}.cls-2{clip-path:url(#clip-path);}.cls-3{fill:#52668c;}</style><clipPath id="clip-path" transform="translate(-55 -40)"><rect class="cls-1" x="55" y="40" width="210" height="237.5"/></clipPath></defs><g class="cls-2"><path class="cls-3" d="M250,165H70V55H250ZM132,180H188c.07.21.12.42.21.63L204,215H116l15.79-34.37A5.25,5.25,0,0,0,132,180m133-10V50a10,10,0,0,0-10-10H65A10,10,0,0,0,55,50V170a10,10,0,0,0,10,10h50.6L75.68,266.87a7.5,7.5,0,0,0,3.69,9.94,7.4,7.4,0,0,0,3.12.69,7.5,7.5,0,0,0,6.82-4.37L106.83,235H213.17l17.51,38.13a7.51,7.51,0,0,0,6.82,4.37,7.41,7.41,0,0,0,3.13-.69,7.5,7.5,0,0,0,3.69-9.94L204.4,180H255a10,10,0,0,0,10-10" transform="translate(-55 -40)"/></g></svg>