<svg id="Layer_1" data-name="Layer 1" xmlns="http://www.w3.org/2000/svg" xmlns:xlink="http://www.w3.org/1999/xlink" viewBox="0 0 270 235"><defs><style>.cls-1{fill:none;}.cls-2{clip-path:url(#clip-path);}.cls-3{fill:#52658b;}</style><clipPath id="clip-path" transform="translate(-25 -35)"><rect class="cls-1" x="25" y="35" width="270" height="235"/></clipPath></defs><g class="cls-2"><path class="cls-3" d="M280,220H265V100a10,10,0,0,0-10-10H111.67L105,70H70V50h50l6.67,20H280ZM90,85l6.67,20H250V255H40V85ZM295,225V65a10,10,0,0,0-10-10H141.67L135,35H55V70H25V260a10,10,0,0,0,10,10H255a10,10,0,0,0,10-10V235h20a10,10,0,0,0,10-10" transform="translate(-25 -35)"/></g></svg>