<svg id="Layer_1" data-name="Layer 1" xmlns="http://www.w3.org/2000/svg" xmlns:xlink="http://www.w3.org/1999/xlink" viewBox="0 0 282.06 263.99"><defs><style>.cls-1{fill:none;}.cls-2{clip-path:url(#clip-path);}.cls-3{fill:#52668c;}</style><clipPath id="clip-path" transform="translate(-18.97 -28)"><rect class="cls-1" x="18.97" y="28" width="282.06" height="263.99"/></clipPath></defs><g class="cls-2"><path class="cls-3" d="M134.3,55.67h0ZM122.1,90.72h0ZM110.32,233.3c5.47,0,11.18,2.71,16.55,8.08,7.47,7.47,27,28.93,27.84,29.84.16.17.31.36.46.55,4.41,5.9,6.82,5.38,8.26,5.08,4-.85,9.52-4.82,15.95-9.42l.45-.32c13-9.26,17.71-23.67,16.54-28.09-1.47-1.17-6.77-2.44-10.32-3.3-7.92-1.89-16.89-4-23.07-10.2-2.64-2.62-5.78-7.42-5.79-15.44,0-13.13,8.49-29.78,16.39-37.68,8.42-8.42,22.29-18.53,45.3-9.06,15.24,6.28,17.2,19.22,18.77,29.63.83,5.5,1.62,10.7,4,15.06a4.06,4.06,0,0,0,.65.93c2.29-.11,8.58-5.05,13.33-11.35a7.51,7.51,0,0,1,.74-.85c.23-.22,21.61-21.2,29.27-30.09-2.65-4.84-16.27-14.49-21.61-18.27-2.76-2-5.14-3.64-7-5.1-13.09-10.18-22.59-25.81-14.3-37.78,6.53-9.43,14-11.74,20-13.6,4.71-1.45,8.43-2.6,12.59-7,1-1.08,1.07-3,1-4-.31-4.6-3.89-12.12-13-19.42-11.51-9.21-23.84-9.35-26.67-6.38-.82,1.45-1.79,6.55-2.44,10-2.1,11.07-4.49,23.61-14.39,27.59C214,95,207.37,93.54,200,88.31a7.46,7.46,0,0,1-1.52-1.45s-14.34-18-22.3-28.14l-1.46-1.85c-6-7.69-10-12.48-15.52-13.61l-19.86,18a6.12,6.12,0,0,1-.49.4c-5,3.84-17.3,16-16.89,27.54a65,65,0,0,0,8,2.48c7.56,2,17,4.56,22.72,11a28.06,28.06,0,0,1,6.63,21.17c-.91,11.25-7.35,22.27-18.12,31-20.28,16.47-45,13.12-53.79,3.47-4.11-4.5-5.69-11.32-7.37-18.54-1.46-6.3-3.28-14.13-6.55-16.67-1.74-1.35-5.91-.85-15.89,9.25l-.73.74c-3.6,3.6-17.35,20.24-22.63,29.82,1.72,3.85,12.73,12.25,24,18.21a8.21,8.21,0,0,1,.81.48c5.2,3.65,22.33,16.43,24.17,27.92a12.63,12.63,0,0,1-2.31,9.79c-4.6,6.13-11.69,8.83-18,11.22-4.85,1.85-9.44,3.59-12.36,6.54-4.58,4.62-1.55,21.45,4,29.82,3.7,5.55,21.93,7.48,29.11,3.08,7.4-4.54,8-10.34,8.68-17,.49-4.87,1-9.91,4.79-13.7,4-4,8.49-6,13.16-6M162.14,292c-6.93,0-13.22-3.67-18.75-10.94-2.26-2.48-20.33-22.27-27.12-29.07-5-5-6.76-3.84-8.25-2.37a29.42,29.42,0,0,0-.73,4.86c-.76,7.44-2,19.9-15.76,28.32-13.19,8.08-40.55,5.78-49.43-7.54-7.29-10.93-14.26-36.56-2.2-48.71,5.2-5.25,11.83-7.77,17.67-10,4.27-1.63,8.33-3.17,10.57-5.37-1.46-3.53-9.36-11.3-17.38-17a146.27,146.27,0,0,1-16.31-10.3c-5-3.72-20.27-15-14-27.06,5.7-10.92,20.88-29.41,25.76-34.29l.68-.69c5.3-5.36,21.44-21.68,35.76-10.54,7.47,5.81,9.85,16.06,12,25.11,1,4.32,2.38,10.23,3.85,11.84,3.34,3.66,19.13,6.45,33.24-5,7.46-6.06,12.06-13.56,12.63-20.59a13.19,13.19,0,0,0-2.9-10c-2.77-3.12-9.77-5-15.4-6.52-8.65-2.32-17.59-4.73-18.79-13.35-3.07-22.13,19.31-40.55,22.24-42.86l22.08-20a7.54,7.54,0,0,1,5-1.94c14.57,0,22.73,10.42,29.94,19.61L188,49.43c6.91,8.75,18.62,23.5,21.58,27.23,3.38,2.24,4.75,2.09,4.77,2.09,2.31-1.29,4.33-11.92,5.2-16.46,1.39-7.3,2.48-13.07,5.69-16.81,9.44-11,30.76-9.08,47.53,4.33,11.13,8.91,17.91,19.89,18.59,30.13a20,20,0,0,1-5.12,15.4c-6.85,7.16-13.58,9.24-19,10.91-5.13,1.59-8.52,2.64-12.1,7.81-1.81,2.62,2.68,10.79,11.18,17.4,1.6,1.25,3.85,2.85,6.47,4.69,15.17,10.75,26.88,19.74,28.17,29.35a12.28,12.28,0,0,1-2.67,9.53c-6.71,8.2-27.67,28.85-30.93,32.05-3.62,4.73-14.65,17.64-26.17,16.85-3-.21-8.67-1.6-12.57-8.62-3.73-6.73-4.8-13.83-5.75-20.1-1.53-10.1-2.58-15.08-9.65-18-13.68-5.63-21.23-2-29,5.8-4.89,4.9-12,17.87-12,27.05,0,1.59.24,3.71,1.37,4.83,3.2,3.18,10,4.81,16,6.25,8.73,2.09,17.75,4.25,20.77,12.3,4.78,12.75-5.39,34.19-21.77,45.88l-.44.32c-7.8,5.57-14.53,10.38-21.54,11.88a21.2,21.2,0,0,1-4.42.48" transform="translate(-18.97 -28)"/></g></svg>