<?xml version="1.0" encoding="utf-8"?>
<!-- Generator: Adobe Illustrator 17.1.0, SVG Export Plug-In . SVG Version: 6.00 Build 0)  -->
<!DOCTYPE svg PUBLIC "-//W3C//DTD SVG 1.1 Basic//EN" "http://www.w3.org/Graphics/SVG/1.1/DTD/svg11-basic.dtd">
<svg version="1.1" baseProfile="basic" id="Layer_1"
	 xmlns="http://www.w3.org/2000/svg" xmlns:xlink="http://www.w3.org/1999/xlink" x="0px" y="0px" viewBox="0 0 32 32"
	 xml:space="preserve">
<g>
	<rect fill="none" width="32" height="32"/>
	<g>
		<g>
			<g>
				<defs>
					<rect id="SVGID_1_" width="32" height="32"/>
				</defs>
				<clipPath id="SVGID_2_">
					<use xlink:href="#SVGID_1_"  overflow="visible"/>
				</clipPath>
				<path clip-path="url(#SVGID_2_)" fill="#4C6486" d="M6,24h20V10H6V24z M27,26H5c-0.6,0-1-0.4-1-1V6h7v2h16c0.6,0,1,0.4,1,1v16
					C28,25.6,27.6,26,27,26"/>
			</g>
		</g>
	</g>
	<rect x="6" y="10" fill="#FFFFFF" width="20" height="14"/>
</g>
<path id="path2994" nodetypes="cccccccc" fill="#4C6486" d="M19.6,10l-7.3,4.3l7.1,4.3
	l-0.4-2.5H26v-3.6h-6.9L19.6,10z"/>
<path id="path2995" nodetypes="cccccccc" fill="#4C6486" d="M12.4,15.4l7.3,4.3L12.5,24
	l0.4-2.5H6v-3.6h6.9L12.4,15.4z"/>
</svg>
