<?xml version="1.0" encoding="utf-8"?>
<!-- Generator: Adobe Illustrator 17.1.0, SVG Export Plug-In . SVG Version: 6.00 Build 0)  -->
<!DOCTYPE svg PUBLIC "-//W3C//DTD SVG 1.1//EN" "http://www.w3.org/Graphics/SVG/1.1/DTD/svg11.dtd">
<svg version="1.1" id="Layer_1" xmlns="http://www.w3.org/2000/svg" xmlns:xlink="http://www.w3.org/1999/xlink" x="0px" y="0px"
	 viewBox="0 0 32 32" enable-background="new 0 0 32 32" xml:space="preserve">
<g>
	<rect fill="none" width="32" height="32"/>
	<g>
		<g>
			<g>
				<defs>
					<rect id="SVGID_1_" width="32" height="32"/>
				</defs>
				<clipPath id="SVGID_2_">
					<use xlink:href="#SVGID_1_"  overflow="visible"/>
				</clipPath>
				<path clip-path="url(#SVGID_2_)" fill="#4C6486" d="M6,24h20V10H6V24z M27,26H5c-0.6,0-1-0.4-1-1V6h7v2h16c0.6,0,1,0.4,1,1v16
					C28,25.6,27.6,26,27,26"/>
			</g>
		</g>
	</g>
	<rect x="6" y="10" fill="#FFFFFF" width="20" height="14"/>
</g>
<g>
	<g>
		<defs>
			<path id="SVGID_3_" d="M9,19.3c-0.6,0-1.1-0.2-1.5-0.5C6.6,19.3,6,20,6,20.8V24h6v-3.2c0-0.8-0.6-1.5-1.5-1.9
				C10.1,19.1,9.6,19.3,9,19.3"/>
		</defs>
		<clipPath id="SVGID_4_">
			<use xlink:href="#SVGID_3_"  overflow="visible"/>
		</clipPath>
		
			<linearGradient id="SVGID_5_" gradientUnits="userSpaceOnUse" x1="-619.7807" y1="-33.6177" x2="-619.1132" y2="-33.6177" gradientTransform="matrix(9 0 0 9 5584 324)">
			<stop  offset="0" style="stop-color:#4B823C"/>
			<stop  offset="1.983430e-002" style="stop-color:#4B823C"/>
			<stop  offset="1" style="stop-color:#6EA03C"/>
		</linearGradient>
		<rect x="6" y="18.9" clip-path="url(#SVGID_4_)" fill="url(#SVGID_5_)" width="6" height="5.1"/>
	</g>
</g>
<g>
	<g>
		<defs>
			<path id="SVGID_6_" d="M6.9,16.1c0,1.3,0.9,2.3,2.1,2.3s2.1-1,2.1-2.3s-0.9-2.3-2.1-2.3S6.9,14.9,6.9,16.1"/>
		</defs>
		<clipPath id="SVGID_7_">
			<use xlink:href="#SVGID_6_"  overflow="visible"/>
		</clipPath>
		
			<linearGradient id="SVGID_8_" gradientUnits="userSpaceOnUse" x1="-584.3027" y1="-35.2161" x2="-583.6352" y2="-35.2161" gradientTransform="matrix(6.1875 0 0 6.1875 3622.2813 234)">
			<stop  offset="0" style="stop-color:#DCB496"/>
			<stop  offset="1.983430e-002" style="stop-color:#DCB496"/>
			<stop  offset="1" style="stop-color:#EBC3A5"/>
		</linearGradient>
		<rect x="6.9" y="13.9" clip-path="url(#SVGID_7_)" fill="url(#SVGID_8_)" width="4.1" height="4.5"/>
	</g>
</g>
<g>
	<g>
		<defs>
			<rect id="SVGID_9_" x="6" y="10.9" width="20" height="13.2"/>
		</defs>
		<clipPath id="SVGID_10_">
			<use xlink:href="#SVGID_9_"  overflow="visible"/>
		</clipPath>
		<path clip-path="url(#SVGID_10_)" fill="#7C655E" d="M23,18.4c1.1,0,2.1-1,2.1-2.3s-0.9-2.3-2.1-2.3s-2.1,1-2.1,2.3
			S21.9,18.4,23,18.4"/>
	</g>
	<g>
		<defs>
			<rect id="SVGID_11_" x="6" y="10.9" width="20" height="13.2"/>
		</defs>
		<clipPath id="SVGID_12_">
			<use xlink:href="#SVGID_11_"  overflow="visible"/>
		</clipPath>
		<path clip-path="url(#SVGID_12_)" fill="#DCB496" d="M16,15.4c1.1,0,2.1-1,2.1-2.3s-0.9-2.3-2.1-2.3s-2.1,1-2.1,2.3
			S14.9,15.4,16,15.4"/>
	</g>
</g>
<g>
	<g>
		<defs>
			<path id="SVGID_13_" d="M16,16.3c-0.6,0-1.1-0.2-1.5-0.5C13.6,16.3,13,17,13,17.8V21h6v-3.2c0-0.8-0.6-1.5-1.5-1.9
				C17.1,16.1,16.6,16.3,16,16.3"/>
		</defs>
		<clipPath id="SVGID_14_">
			<use xlink:href="#SVGID_13_"  overflow="visible"/>
		</clipPath>
		
			<linearGradient id="SVGID_15_" gradientUnits="userSpaceOnUse" x1="-620.1693" y1="-33.4515" x2="-619.5018" y2="-33.4515" gradientTransform="matrix(9 0 0 9 5594.519 319.5)">
			<stop  offset="0" style="stop-color:#002555"/>
			<stop  offset="1.983430e-002" style="stop-color:#002555"/>
			<stop  offset="1" style="stop-color:#0F4187"/>
		</linearGradient>
		<rect x="13" y="15.9" clip-path="url(#SVGID_14_)" fill="url(#SVGID_15_)" width="6" height="5.1"/>
	</g>
</g>
<g>
	<g>
		<defs>
			<path id="SVGID_16_" d="M23,19.3c-0.6,0-1.1-0.2-1.5-0.5C20.6,19.3,20,20,20,20.8V24h6v-3.2c0-0.8-0.6-1.5-1.5-1.9
				C24.1,19.1,23.6,19.3,23,19.3"/>
		</defs>
		<clipPath id="SVGID_17_">
			<use xlink:href="#SVGID_16_"  overflow="visible"/>
		</clipPath>
		
			<linearGradient id="SVGID_18_" gradientUnits="userSpaceOnUse" x1="-620.5564" y1="-33.6177" x2="-619.8889" y2="-33.6177" gradientTransform="matrix(9 0 0 9 5605 324)">
			<stop  offset="0" style="stop-color:#4C6586"/>
			<stop  offset="1.983430e-002" style="stop-color:#4C6586"/>
			<stop  offset="1" style="stop-color:#5A78A0"/>
		</linearGradient>
		<rect x="20" y="18.9" clip-path="url(#SVGID_17_)" fill="url(#SVGID_18_)" width="6" height="5.1"/>
	</g>
</g>
</svg>
