<svg id="cat-pg" xmlns="http://www.w3.org/2000/svg" viewBox="0 0 32 32"><defs><style>.cls-1{fill:#fff;}.cls-2,.cls-3{fill:none;stroke:#fff;stroke-linejoin:round;}.cls-2{stroke-linecap:round;}</style></defs><title>icon_prtt@400xw</title><path class="cls-1" d="M31,1V31H1V1H31m1-1H0V32H32V0Z"/><ellipse class="cls-2" cx="9.83" cy="10.17" rx="3.75" ry="4.17"/><path class="cls-2" d="M12.75,16h0a6.85,6.85,0,0,1-.71.37,5.47,5.47,0,0,1-4.39,0h0A6.85,6.85,0,0,1,6.93,16h0C5.17,16.83,4,18.17,4,19.83V26H15.67V19.83C15.67,18.17,14.5,16.83,12.75,16Z"/><line class="cls-3" x1="18" y1="14" x2="28" y2="14"/><line class="cls-3" x1="18" y1="17" x2="28" y2="17"/><line class="cls-3" x1="18" y1="20" x2="28" y2="20"/></svg>