<svg id="cat-pg" xmlns="http://www.w3.org/2000/svg" viewBox="0 0 32 32"><defs><style>.cls-1,.cls-2{fill:none;stroke:#fff;}.cls-1{stroke-linejoin:round;}.cls-2{stroke-miterlimit:10;}</style></defs><title>il_icons-0-3-2-cat_white</title><path class="cls-1" d="M19,12.13A3.41,3.41,0,0,0,14.17,17a3.69,3.69,0,0,0,1.58.92C15,23,14.25,29.45,14.25,29.45h4.66s-.75-6.41-1.5-11.57A3.45,3.45,0,0,0,19,12.13"/><path class="cls-2" d="M24.33,3.66a15,15,0,0,1-.21,21.58"/><path class="cls-2" d="M21.11,7A10.42,10.42,0,0,1,21,21.83"/><path class="cls-2" d="M8.83,3.66A15,15,0,0,0,9,25.24"/><path class="cls-2" d="M12.05,7a10.42,10.42,0,0,0,.1,14.87"/></svg>