<svg id="cat-pg" xmlns="http://www.w3.org/2000/svg" viewBox="0 0 32 32"><defs><style>.cls-1{fill:none;stroke:#fff;stroke-linecap:round;stroke-linejoin:round;}</style></defs><title>il_icons-0-3-2-cat_white</title><ellipse class="cls-1" cx="8.67" cy="12.67" rx="3.75" ry="4.17"/><path class="cls-1" d="M11.58,18.5h0a6.85,6.85,0,0,1-.71.37,5.47,5.47,0,0,1-4.39,0h0a6.85,6.85,0,0,1-.71-.37h0c-1.75.83-2.92,2.17-2.92,3.83V28.5H14.5V22.33C14.5,20.67,13.33,19.33,11.58,18.5Z"/><ellipse class="cls-1" cx="23.33" cy="7.67" rx="3.75" ry="4.17"/><path class="cls-1" d="M26.25,13.5h0a6.85,6.85,0,0,1-.71.37,5.47,5.47,0,0,1-4.39,0h0a6.85,6.85,0,0,1-.71-.37h0c-1.75.83-2.92,2.17-2.92,3.83V23.5H29.17V17.33C29.17,15.67,28,14.33,26.25,13.5Z"/></svg>