<svg id="cat-pg" xmlns="http://www.w3.org/2000/svg" viewBox="0 0 32 32"><defs><style>.cls-1,.cls-2{fill:none;stroke:#fff;}.cls-1{stroke-linejoin:round;}.cls-2{stroke-miterlimit:10;}</style></defs><title>il_icons-0-3-2-cat_white</title><polyline class="cls-1" points="10 13.5 7 7 4 13.5"/><line class="cls-1" x1="5.08" y1="11.1" x2="8.92" y2="11.1"/><line class="cls-1" x1="5" y1="17" x2="9" y2="17"/><polyline class="cls-1" points="4.5 21 9.5 21 4.5 27 9.5 27"/><polyline class="cls-1" points="18.11 5 14.5 5 14.5 29 24.5 29 24.5 13.53"/><line class="cls-2" x1="14.5" y1="9" x2="17.98" y2="9"/><line class="cls-2" x1="14.5" y1="13" x2="21.86" y2="13"/><ellipse class="cls-2" cx="23.96" cy="7" rx="3.96" ry="4"/><path class="cls-1" d="M24,3s1.5.64,1.5,4S24,11,24,11"/><path class="cls-1" d="M28,7s-.64,1.5-4,1.5S20,7,20,7"/></svg>