<svg id="cat-pg" xmlns="http://www.w3.org/2000/svg" viewBox="0 0 32 32"><defs><style>.cls-1{fill:none;stroke:#fff;stroke-miterlimit:10;}</style></defs><title>il_icons-0-3-2-cat_white</title><path class="cls-1" d="M22.75,8.8h-1.6V6.4c0-2.3-2.3-3.4-5.1-3.4S11,4.1,11,6.4V8.8H9.25a.88.88,0,0,0-.8.9.82.82,0,0,0,.8.9h2.09a5.47,5.47,0,0,0-.09,1,5,5,0,0,0,4.8,5.2,5.09,5.09,0,0,0,4.8-5.2,5.55,5.55,0,0,0-.09-1h2a1,1,0,0,0,.8-.9A.82.82,0,0,0,22.75,8.8Z"/><path class="cls-1" d="M20,18.32a7.06,7.06,0,0,1-3.94,1.23A7.26,7.26,0,0,1,12,18.3a5,5,0,0,0-2.95,4.3V29h14V22.6A5,5,0,0,0,20,18.32Z"/></svg>