<svg id="cat-pg" xmlns="http://www.w3.org/2000/svg" viewBox="0 0 32 32"><defs><style>.cls-1,.cls-2,.cls-3,.cls-4{fill:none;stroke:#fff;}.cls-1{stroke-linecap:round;}.cls-1,.cls-2,.cls-4{stroke-linejoin:round;}.cls-2{stroke-linecap:square;}.cls-3{stroke-miterlimit:10;}</style></defs><title>il_icons-0-3-2-cat_white</title><ellipse class="cls-1" cx="16" cy="13.11" rx="2.91" ry="3.23"/><path class="cls-1" d="M21.5,28V22c0-1.57-1.1-2.82-2.75-3.61h0a6.11,6.11,0,0,1-.67.35,5.09,5.09,0,0,1-4.14,0h0a6.11,6.11,0,0,1-.67-.35h0c-1.65.79-2.75,2-2.75,3.61v6Z"/><ellipse class="cls-2" cx="25.4" cy="16.79" rx="1.9" ry="2.11"/><path class="cls-2" d="M24.51,26.5H29V22.57a2.72,2.72,0,0,0-1.8-2.36h0a3,3,0,0,1-.44.23,3.36,3.36,0,0,1-1.35.28,3.43,3.43,0,0,1-1.28-.25"/><ellipse class="cls-2" cx="6.6" cy="16.79" rx="1.9" ry="2.11"/><path class="cls-2" d="M7.88,21.28a3.42,3.42,0,0,1-2.64,0c-.15-.07-.29-.15-.43-.23h0A2.71,2.71,0,0,0,3,23.38V26.5H7.5"/><ellipse class="cls-3" cx="24" cy="8" rx="3.96" ry="4"/><path class="cls-4" d="M28,8s-.64,1.5-4,1.5S20,8,20,8"/><path class="cls-4" d="M24,4s1.5.64,1.5,4S24,12,24,12"/></svg>