<svg id="cat-pg" xmlns="http://www.w3.org/2000/svg" viewBox="0 0 32 32"><defs><style>.cls-1{fill:none;stroke:#fff;stroke-linejoin:round;}.cls-2{fill:#fff;}</style></defs><title>il_icons-0-3-2-cat_white</title><rect class="cls-1" x="5" y="5" width="22" height="22"/><path class="cls-2" d="M15.88,10a2.7,2.7,0,0,0-1.85.58A1.84,1.84,0,0,0,13.37,12a1.79,1.79,0,0,0,.16.71,2.69,2.69,0,0,0,.48.69,2.15,2.15,0,0,0-.88.86,2.35,2.35,0,0,0-.28,1.14,2.23,2.23,0,0,0,.43,1.34,7.31,7.31,0,0,0,1.86,1.51A14.21,14.21,0,0,1,16.8,19.4a.69.69,0,0,1,0,1,.92.92,0,0,1-.66.22,1.13,1.13,0,0,1-.79-.29,1.53,1.53,0,0,1-.43-.84l-1.71.2a2.46,2.46,0,0,0,.89,1.65,3,3,0,0,0,2,.62,2.94,2.94,0,0,0,2-.62,2,2,0,0,0,.69-1.55,1.85,1.85,0,0,0-.19-.84,2.2,2.2,0,0,0-.57-.75,2.89,2.89,0,0,0,.86-.89,2.21,2.21,0,0,0,.05-2.06,3.14,3.14,0,0,0-.78-.9,15.22,15.22,0,0,0-1.44-1,12.57,12.57,0,0,1-1.28-.89.8.8,0,0,1-.28-.58.54.54,0,0,1,.21-.41,1,1,0,0,1,.62-.17.94.94,0,0,1,.68.24,1.07,1.07,0,0,1,.27.71l1.72-.19a2.34,2.34,0,0,0-.83-1.52A2.93,2.93,0,0,0,15.88,10Zm1.19,7.48-1.78-1.22a1.54,1.54,0,0,1-.85-1.2.89.89,0,0,1,.16-.49,1.43,1.43,0,0,1,.38-.36l1.7,1.24a3.57,3.57,0,0,1,.79.69.7.7,0,0,1,.14.42.85.85,0,0,1-.13.44,2.39,2.39,0,0,1-.41.48Z"/></svg>