<svg id="cat-pg" xmlns="http://www.w3.org/2000/svg" viewBox="0 0 32 32"><defs><style>.cls-1{fill:#fff;}.cls-2{fill:none;stroke:#fff;stroke-miterlimit:10;}</style></defs><title>il_icons-0-3-2-cat_white</title><path class="cls-1" d="M12.54,8.26l.06.06.29.29h.42a7.35,7.35,0,0,1,5.2,1.8,4.73,4.73,0,0,0,3.26,1.25c.25,0,.48,0,.69,0-.41,1.32-2.68,2.29-4.72,2.47h-.11l-1.26.24a17.28,17.28,0,0,0-3.33.86l-.5.18V8.26m-.08-1.07c-.78,0-.92.28-.92.7V23c0,.21.14.35.92.35s.92-.14.92-.35V16.15a23.51,23.51,0,0,1,4.45-1.06c2.4-.21,5.22-1.41,5.64-3.39.14-.7.07-1.13-.28-1.13s-.88.09-1.42.09a3.72,3.72,0,0,1-2.6-1,8.29,8.29,0,0,0-5.86-2c-.22-.21-.22-.42-.85-.42Z"/><path class="cls-2" d="M10.06,22.17c-.93.23-1.6.62-1.6,1.19,0,1,2.07,1.45,4,1.45s4-.45,4-1.45c0-.57-.67-1-1.6-1.19"/></svg>