<svg id="cat-pg" xmlns="http://www.w3.org/2000/svg" viewBox="0 0 32 32"><defs><style>.cls-1{fill:#fff;}.cls-2{fill:none;stroke:#fff;stroke-miterlimit:10;}</style></defs><title>icon_rolt@400x</title><path class="cls-1" d="M31,1V31H1V1H31m1-1H0V32H32V0Z"/><path class="cls-2" d="M22.71,8.76H21.12V6.38C21.12,4.09,18.83,3,16.05,3S11,4.09,11,6.38V8.76H9.29a.88.88,0,0,0-.79.9.81.81,0,0,0,.79.89h2.08a6.39,6.39,0,0,0-.09,1,5,5,0,0,0,4.77,5.17,5.07,5.07,0,0,0,4.77-5.17,6.39,6.39,0,0,0-.09-1h2a1,1,0,0,0,.79-.89A.82.82,0,0,0,22.71,8.76Z"/><path class="cls-2" d="M20,18.32a7.06,7.06,0,0,1-3.94,1.23A7.26,7.26,0,0,1,12,18.3a5,5,0,0,0-2.95,4.3V29h14V22.6A5,5,0,0,0,20,18.32Z"/></svg>