<?xml version="1.0" encoding="utf-8"?>
<!-- Generator: Adobe Illustrator 24.2.3, SVG Export Plug-In . SVG Version: 6.00 Build 0)  -->
<svg version="1.1" id="Layer_1" xmlns="http://www.w3.org/2000/svg" xmlns:xlink="http://www.w3.org/1999/xlink" x="0px" y="0px"
	 viewBox="0 0 32 21.3" style="enable-background:new 0 0 32 21.3;" xml:space="preserve">
<style type="text/css">
	.st0{fill:url(#SVGID_1_);}
	.st1{fill:#E75154;}
	.st2{fill:#E85457;}
	.st3{fill:#E75254;}
	.st4{fill:#E44D4D;}
	.st5{fill:#E44E4E;}
	.st6{fill:#E65052;}
	.st7{fill:#E85355;}
	.st8{fill:#D93D39;}
	.st9{fill:#DD4440;}
	.st10{fill:#E24A4A;}
	.st11{fill:#E34C4D;}
	.st12{fill:#E14847;}
	.st13{fill:#DF4745;}
	.st14{fill:#E24B4A;}
	.st15{fill:#E14948;}
	.st16{fill:#D63933;}
	.st17{fill:#D83C37;}
	.st18{fill:#DE4543;}
	.st19{fill:#DE4442;}
	.st20{fill:#DA3F3B;}
	.st21{fill:#DF4744;}
</style>
<linearGradient id="SVGID_1_" gradientUnits="userSpaceOnUse" x1="0" y1="10.6498" x2="32" y2="10.6498">
	<stop  offset="0" style="stop-color:#E85457"/>
	<stop  offset="1" style="stop-color:#D63933"/>
</linearGradient>
<rect class="st0" width="32" height="21.3"/>
<g>
	<polyline class="st1" points="0,7.1 8,7.1 8,0 	"/>
	<polyline class="st2" points="8,0 0,0 0,7.1 	"/>
	<polyline class="st3" points="8,7.1 16,7.1 16,0 	"/>
	<polyline class="st1" points="16,0 8,0 8,7.1 	"/>
	<polyline class="st4" points="16,0 16,7.1 24,7.1 	"/>
	<polyline class="st5" points="24,7.1 24,0 16,0 	"/>
	<polyline class="st6" points="0,14.2 8,14.2 8,7.1 	"/>
	<polyline class="st7" points="8,7.1 0,7.1 0,14.2 	"/>
	<polyline class="st8" points="24,14.2 32,14.2 32,7.1 	"/>
	<polyline class="st9" points="32,7.1 24,7.1 24,14.2 	"/>
	<polyline class="st10" points="8,7.1 16,7.1 16,14.2 	"/>
	<polyline class="st11" points="16,14.2 8,14.2 8,7.1 	"/>
	<polyline class="st12" points="16,7.1 24,7.1 24,14.2 	"/>
	<polyline class="st13" points="24,14.2 16,14.2 16,7.1 	"/>
	<polyline class="st14" points="0,14.2 8,14.2 8,21.3 	"/>
	<polyline class="st15" points="8,21.3 0,21.3 0,14.2 	"/>
	<polyline class="st16" points="24,21.3 32,21.3 32,14.2 	"/>
	<polyline class="st17" points="32,14.2 24,14.2 24,21.3 	"/>
	<polyline class="st18" points="8,21.3 8,14.2 16,14.2 	"/>
	<polyline class="st18" points="16,14.2 16,21.3 8,21.3 	"/>
	<polyline class="st19" points="16,21.3 16,14.2 24,14.2 	"/>
	<polyline class="st20" points="24,14.2 24,21.3 16,21.3 	"/>
	<polyline class="st21" points="32,7.1 32,0 24,0 	"/>
	<polyline class="st18" points="24,0 24,7.1 32,7.1 	"/>
</g>
</svg>
