<?xml version="1.0" encoding="utf-8"?>
<!-- Generator: Adobe Illustrator 24.2.3, SVG Export Plug-In . SVG Version: 6.00 Build 0)  -->
<svg version="1.1" id="Layer_1" xmlns="http://www.w3.org/2000/svg" xmlns:xlink="http://www.w3.org/1999/xlink" x="0px" y="0px"
	 viewBox="0 0 32 21.3" style="enable-background:new 0 0 32 21.3;" xml:space="preserve">
<style type="text/css">
	.st0{fill:url(#SVGID_1_);}
	.st1{fill:#595A7A;}
	.st2{fill:#5A5C7C;}
	.st3{fill:#585A7A;}
	.st4{fill:#585979;}
	.st5{fill:#545675;}
	.st6{fill:#565877;}
	.st7{fill:#474963;}
	.st8{fill:#4C4E6A;}
	.st9{fill:#515370;}
	.st10{fill:#535573;}
	.st11{fill:#505270;}
	.st12{fill:#4F506E;}
	.st13{fill:#525371;}
	.st14{fill:#515270;}
	.st15{fill:#44455E;}
	.st16{fill:#464862;}
	.st17{fill:#4E4F6C;}
	.st18{fill:#4D4F6C;}
	.st19{fill:#4D4F6B;}
	.st20{fill:#494A65;}
	.st21{fill:#4F506D;}
</style>
<linearGradient id="SVGID_1_" gradientUnits="userSpaceOnUse" x1="0" y1="10.6498" x2="32" y2="10.6498">
	<stop  offset="0" style="stop-color:#5A5C7C"/>
	<stop  offset="0.9992" style="stop-color:#44455E"/>
</linearGradient>
<rect class="st0" width="32" height="21.3"/>
<g>
	<polyline class="st1" points="0,7.1 8,7.1 8,0 	"/>
	<polyline class="st2" points="8,0 0,0 0,7.1 	"/>
	<polyline class="st3" points="8,7.1 16,7.1 16,0 	"/>
	<polyline class="st4" points="16,0 8,0 8,7.1 	"/>
	<polyline class="st5" points="16,0 16,7.1 24,7.1 	"/>
	<polyline class="st5" points="24,7.1 24,0 16,0 	"/>
	<polyline class="st6" points="0,14.2 8,14.2 8,7.1 	"/>
	<polyline class="st3" points="8,7.1 0,7.1 0,14.2 	"/>
	<polyline class="st7" points="24,14.2 32,14.2 32,7.1 	"/>
	<polyline class="st8" points="32,7.1 24,7.1 24,14.2 	"/>
	<polyline class="st9" points="8,7.1 16,7.1 16,14.2 	"/>
	<polyline class="st10" points="16,14.2 8,14.2 8,7.1 	"/>
	<polyline class="st11" points="16,7.1 24,7.1 24,14.2 	"/>
	<polyline class="st12" points="24,14.2 16,14.2 16,7.1 	"/>
	<polyline class="st13" points="0,14.2 8,14.2 8,21.3 	"/>
	<polyline class="st14" points="8,21.3 0,21.3 0,14.2 	"/>
	<polyline class="st15" points="24,21.3 32,21.3 32,14.2 	"/>
	<polyline class="st16" points="32,14.2 24,14.2 24,21.3 	"/>
	<polyline class="st17" points="8,21.3 8,14.2 16,14.2 	"/>
	<polyline class="st18" points="16,14.2 16,21.3 8,21.3 	"/>
	<polyline class="st19" points="16,21.3 16,14.2 24,14.2 	"/>
	<polyline class="st20" points="24,14.2 24,21.3 16,21.3 	"/>
	<polyline class="st21" points="32,7.1 32,0 24,0 	"/>
	<polyline class="st17" points="24,0 24,7.1 32,7.1 	"/>
</g>
</svg>
