<?xml version="1.0" encoding="utf-8"?>
<!-- Generator: Adobe Illustrator 24.2.3, SVG Export Plug-In . SVG Version: 6.00 Build 0)  -->
<svg version="1.1" id="Layer_1" xmlns="http://www.w3.org/2000/svg" xmlns:xlink="http://www.w3.org/1999/xlink" x="0px" y="0px"
	 viewBox="0 0 32 21.3" style="enable-background:new 0 0 32 21.3;" xml:space="preserve">
<style type="text/css">
	.st0{fill:url(#SVGID_1_);}
	.st1{fill:#6D80B5;}
	.st2{fill:#6F83B7;}
	.st3{fill:#6D80B4;}
	.st4{fill:#6C7FB3;}
	.st5{fill:#6578AC;}
	.st6{fill:#6679AD;}
	.st7{fill:#697DB1;}
	.st8{fill:#506294;}
	.st9{fill:#586B9D;}
	.st10{fill:#6174A7;}
	.st11{fill:#6477AB;}
	.st12{fill:#5F72A5;}
	.st13{fill:#5D70A3;}
	.st14{fill:#6274A8;}
	.st15{fill:#6073A6;}
	.st16{fill:#4A5C8E;}
	.st17{fill:#4F6193;}
	.st18{fill:#5B6DA0;}
	.st19{fill:#5A6DA0;}
	.st20{fill:#5A6C9F;}
	.st21{fill:#536597;}
	.st22{fill:#5D6FA2;}
</style>
<linearGradient id="SVGID_1_" gradientUnits="userSpaceOnUse" x1="0" y1="10.6498" x2="32" y2="10.6498">
	<stop  offset="1.962293e-07" style="stop-color:#6F83B7"/>
	<stop  offset="1" style="stop-color:#4A5C8E"/>
</linearGradient>
<rect class="st0" width="32" height="21.3"/>
<g>
	<polyline class="st1" points="0,7.1 8,7.1 8,0 	"/>
	<polyline class="st2" points="8,0 0,0 0,7.1 	"/>
	<polyline class="st3" points="8,7.1 16,7.1 16,0 	"/>
	<polyline class="st4" points="16,0 8,0 8,7.1 	"/>
	<polyline class="st5" points="16,0 16,7.1 24,7.1 	"/>
	<polyline class="st6" points="24,7.1 24,0 16,0 	"/>
	<polyline class="st7" points="0,14.2 8,14.2 8,7.1 	"/>
	<polyline class="st1" points="8,7.1 0,7.1 0,14.2 	"/>
	<polyline class="st8" points="24,14.2 32,14.2 32,7.1 	"/>
	<polyline class="st9" points="32,7.1 24,7.1 24,14.2 	"/>
	<polyline class="st10" points="8,7.1 16,7.1 16,14.2 	"/>
	<polyline class="st11" points="16,14.2 8,14.2 8,7.1 	"/>
	<polyline class="st12" points="16,7.1 24,7.1 24,14.2 	"/>
	<polyline class="st13" points="24,14.2 16,14.2 16,7.1 	"/>
	<polyline class="st14" points="0,14.2 8,14.2 8,21.3 	"/>
	<polyline class="st15" points="8,21.3 0,21.3 0,14.2 	"/>
	<polyline class="st16" points="24,21.3 32,21.3 32,14.2 	"/>
	<polyline class="st17" points="32,14.2 24,14.2 24,21.3 	"/>
	<polyline class="st18" points="8,21.3 8,14.2 16,14.2 	"/>
	<polyline class="st19" points="16,14.2 16,21.3 8,21.3 	"/>
	<polyline class="st20" points="16,21.3 16,14.2 24,14.2 	"/>
	<polyline class="st21" points="24,14.2 24,21.3 16,21.3 	"/>
	<polyline class="st22" points="32,7.1 32,0 24,0 	"/>
	<polyline class="st18" points="24,0 24,7.1 32,7.1 	"/>
</g>
</svg>
