<svg width="36" height="32" viewBox="0 0 36 32" fill="none" xmlns="http://www.w3.org/2000/svg">
<g clip-path="url(#clip0_1019_6)">
<mask id="mask0_1019_6" style="mask-type:luminance" maskUnits="userSpaceOnUse" x="0" y="0" width="36" height="32">
<path d="M36 0H0V32H36V0Z" fill="white"/>
</mask>
<g mask="url(#mask0_1019_6)">
<path d="M35.5948 27.5008C36.7485 29.5004 35.3004 32 32.9963 32H3.00339C0.694829 32 -0.746546 29.4966 0.404832 27.5008L15.4015 1.49906C16.5556 -0.501499 19.4465 -0.497875 20.5986 1.49906L35.5948 27.5008ZM18 22.125C16.4122 22.125 15.125 23.4122 15.125 25C15.125 26.5878 16.4122 27.875 18 27.875C19.5878 27.875 20.875 26.5878 20.875 25C20.875 23.4122 19.5878 22.125 18 22.125ZM15.2705 11.7909L15.7341 20.2909C15.7558 20.6886 16.0846 21 16.483 21H19.5171C19.9154 21 20.2443 20.6886 20.266 20.2909L20.7296 11.7909C20.753 11.3613 20.411 11 19.9807 11H16.0193C15.589 11 15.247 11.3613 15.2705 11.7909Z" fill="#DD0000"/>
</g>
</g>
<defs>
<clipPath id="clip0_1019_6">
<rect width="36" height="32" fill="white"/>
</clipPath>
</defs>
</svg>
