<svg width="32" height="32" viewBox="0 0 512 512" fill="none" xmlns="http://www.w3.org/2000/svg">
<g clip-path="url(#clip0)">
<path d="M14.0998 142.1L60.1998 188.2C64.8998 192.9 72.4998 192.9 77.1998 188.2L188.2 77.2C192.9 72.5 192.9 64.9 188.2 60.2L142.1 14.1C123.4 -4.59999 92.9998 -4.59999 74.1998 14.1L14.0998 74.2C-4.70021 92.9 -4.70021 123.3 14.0998 142.1ZM227.8 99.8L490.4 362.4L511.6 483.9C514.5 500.3 500.2 514.5 483.8 511.7L362.3 490.4L99.6998 227.8C94.9998 223.1 94.9998 215.5 99.6998 210.8L210.7 99.8C215.5 95.1 223.1 95.1 227.8 99.8V99.8ZM387.9 339.9C393.4 334.4 393.4 325.6 387.9 320.1L233.9 166.1C228.4 160.6 219.6 160.6 214.1 166.1C208.6 171.6 208.6 180.4 214.1 185.9L368.1 339.9C373.6 345.4 382.4 345.4 387.9 339.9V339.9ZM424 424H376V460.3L440.5 471.6L471.6 440.5L460.3 376H424V424Z" fill="#4C6586"/>
</g>
<defs>
<clipPath id="clip0">
<rect width="512" height="512" fill="white" transform="matrix(-1 0 0 1 512 0)"/>
</clipPath>
</defs>
</svg>
