<svg width="32" height="32" viewBox="0 0 512 512" fill="none" xmlns="http://www.w3.org/2000/svg">
<path d="M416 48C416 39.16 408.84 32 400 32H336C327.16 32 320 39.16 320 48V96H416V48ZM63.91 159.99C61.4 253.84 3.46 274.22 0 404V448C0 465.67 14.33 480 32 480H128C145.67 480 160 465.67 160 448V288H192V128H95.84C78.21 128 64.39 142.37 63.91 159.99V159.99ZM448.09 159.99C447.61 142.37 433.79 128 416.16 128H320V288H352V448C352 465.67 366.33 480 384 480H480C497.67 480 512 465.67 512 448V404C508.54 274.22 450.6 253.84 448.09 159.99ZM176 32H112C103.16 32 96 39.16 96 48V96H192V48C192 39.16 184.84 32 176 32ZM224 288H288V128H224V288Z" fill="#4C6586"/>
</svg>
