<svg width="24" height="32" viewBox="0 0 384 512" fill="none" xmlns="http://www.w3.org/2000/svg">
<g clip-path="url(#clip0)">
<path d="M172.268 501.67C26.97 291.031 0 269.413 0 192C0 85.961 85.961 0 192 0C298.039 0 384 85.961 384 192C384 269.413 357.03 291.031 211.732 501.67C202.197 515.444 181.802 515.443 172.268 501.67ZM192 272C236.183 272 272 236.183 272 192C272 147.817 236.183 112 192 112C147.817 112 112 147.817 112 192C112 236.183 147.817 272 192 272Z" fill="#4C6586"/>
</g>
<defs>
<clipPath id="clip0">
<rect width="384" height="512" fill="white"/>
</clipPath>
</defs>
</svg>
