<svg width="28" height="32" viewBox="0 0 448 512" fill="none" xmlns="http://www.w3.org/2000/svg">
<g clip-path="url(#clip0)">
<path d="M448 240V336C448 339.084 447.644 342.159 446.937 345.162L414.937 481.162C410.686 499.23 394.562 512 376 512H168C161.691 512 155.471 510.507 149.849 507.644C144.227 504.781 139.361 500.629 135.65 495.527L7.65303 319.527C-5.33997 301.661 -1.38997 276.644 16.475 263.651C34.342 250.657 59.359 254.608 72.352 272.474L104 315.992V40C104 17.909 121.908 0 144 0C166.092 0 184 17.909 184 40V240H192V200C192 177.909 209.908 160 232 160C254.092 160 272 177.909 272 200V240H280V216C280 193.909 297.908 176 320 176C342.092 176 360 193.909 360 216V240H368C368 217.909 385.908 200 408 200C430.092 200 448 217.909 448 240ZM192 320H184V416H192V320ZM280 320H272V416H280V320ZM368 320H360V416H368V320Z" fill="#4C6586"/>
</g>
<defs>
<clipPath id="clip0">
<rect width="448" height="512" fill="white"/>
</clipPath>
</defs>
</svg>
