<!-- Generated by IcoMoon.io -->
<svg version="1.1" xmlns="http://www.w3.org/2000/svg" width="32" height="32" viewBox="0 0 32 32">
<title>calender</title>
<path d="M30 2.997l-8.007 0v-1.993c0-0.552-0.448-1-1-1s-1 0.448-1 1v1.992h-8v-1.992c0-0.552-0.447-1-1-1s-1 0.448-1 1v1.992h-7.993c-1.105 0-2 0.895-2 2v25c0 1.105 0.895 2 2 2h28c1.105 0 2-0.895 2-2v-25c0-1.104-0.895-2-2-2zM30 29.996l-28-0v-25h7.993v1.008c0 0.553 0.447 1 1 1s1-0.447 1-1v-1.007h8v1.008c0 0.553 0.448 1 1 1s1-0.447 1-1v-1.008h8.007v24.999zM23 15.996h2c0.552 0 1-0.448 1-1v-2c0-0.552-0.448-1-1-1h-2c-0.552 0-1 0.448-1 1v2c0 0.552 0.448 1 1 1zM23 23.996h2c0.552 0 1-0.448 1-1v-2c0-0.552-0.448-1-1-1h-2c-0.552 0-1 0.448-1 1v2c0 0.553 0.448 1 1 1zM17 19.996h-2c-0.552 0-1 0.448-1 1v2c0 0.552 0.448 1 1 1h2c0.552 0 1-0.448 1-1v-2c0-0.552-0.448-1-1-1zM17 11.996h-2c-0.552 0-1 0.448-1 1v2c0 0.552 0.448 1 1 1h2c0.552 0 1-0.448 1-1v-2c0-0.553-0.448-1-1-1zM9 11.996h-2c-0.552 0-1 0.448-1 1v2c0 0.552 0.448 1 1 1h2c0.552 0 1-0.448 1-1v-2c0-0.553-0.448-1-1-1zM9 19.996h-2c-0.552 0-1 0.448-1 1v2c0 0.552 0.448 1 1 1h2c0.552 0 1-0.448 1-1v-2c0-0.552-0.448-1-1-1z"></path>
</svg>
