<!-- Generated by IcoMoon.io -->
<svg version="1.1" xmlns="http://www.w3.org/2000/svg" width="32" height="32" viewBox="0 0 32 32">
<title>drawar</title>
<path d="M31.968 15.937l-3.672-12.722c-0.12-0.433-0.515-0.734-0.964-0.734h-22.98c-0.453 0-0.85 0.304-0.967 0.743l-3.356 12.073c-0.062 0.235-0.032 0.469 0.062 0.673-0.054 0.181-0.092 0.37-0.092 0.568v10.979c0 1.105 0.895 2 2 2h28c1.105 0 2-0.895 2-2v-10.979c0-0.053-0.012-0.104-0.015-0.157 0.026-0.143 0.025-0.295-0.016-0.446zM5.122 4.482l21.449-0 2.91 10.057h-9.323c-0.045 2.4-1.747 4.053-4.158 4.053s-4.082-1.652-4.127-4.053h-9.556zM30 27.518h-28v-10.979h8.223c0.873 2.514 2.993 4.052 5.777 4.052s4.936-1.539 5.808-4.053h8.192v10.979z"></path>
</svg>
