<!-- Generated by IcoMoon.io -->
<svg version="1.1" xmlns="http://www.w3.org/2000/svg" width="32" height="32" viewBox="0 0 32 32">
<title>envolope-letter</title>
<path d="M31.978 14.79c-0.043-0.354-0.175-0.679-0.378-0.952h0.005l-0.027-0.027c-0.102-0.135-0.223-0.254-0.357-0.36l-5.223-5.262v-3.227c0-0.553-0.448-1-1-1h-3.166l-3.65-3.116c-1.132-1.132-3.11-1.134-4.243 0l-3.638 3.116h-3.303c-0.553 0-1 0.447-1 1v3.293l-5.098 5.098c-0.542 0.358-0.902 0.972-0.902 1.667v14.984c0 1.099 0.9 2 2 2h28c1.099 0 2-0.901 2-2v-14.945c0.007-0.090-0.002-0.18-0.020-0.269zM8.402 22.672l-6.404 5.94v-11.59zM10.33 23.609c0.132-0.056 0.254-0.141 0.356-0.257 0.053-0.061 0.095-0.127 0.132-0.195l4.309-3.998c0.226-0.183 0.495-0.279 0.777-0.279 0.287 0 0.574 0.101 0.766 0.25l11.995 10.873h-25.229zM23.698 22.804l6.3-5.59v11.301zM28.061 13.019h-0.030l1.715 1.743-3.747 3.326v-7.131zM15.353 2.26c0.19-0.188 0.44-0.293 0.707-0.293s0.518 0.105 0.708 0.293l2.020 1.702h-5.451zM23.998 5.962v13.901l-1.791 1.59-4.26-3.861c-1.177-0.923-2.868-0.963-4.115 0.043l-3.957 3.67-1.877-1.657v-13.687zM3.243 13.838l2.755-2.754v6.8l-3.644-3.216 0.844-0.831h0.046z"></path>
</svg>
