<!-- Generated by IcoMoon.io -->
<svg version="1.1" xmlns="http://www.w3.org/2000/svg" width="32" height="32" viewBox="0 0 32 32">
<title>envolope</title>
<path d="M31.983 7.25c0.031-0.192 0.006-0.39-0.077-0.571-0.252-1.107-1.053-1.679-2.406-1.679h-26c-1.19 0-2.472 0.438-3.103 1.296-0.054 0.042-0.106 0.088-0.153 0.143-0.202 0.232-0.272 0.532-0.227 0.814-0.009 0.081-0.017 0.162-0.017 0.247v16c0 1.657 1.843 3.5 3.5 3.5h26c1.657 0 2.5-1.843 2.5-3.5v-16c0-0.088-0.012-0.166-0.017-0.25zM3.5 7l26.014-0-13.514 10.77-13.459-10.726c0.306-0.056 0.683-0.044 0.959-0.044zM29.5 25h-26c-0.551 0-1.5-0.948-1.5-1.5v-14.326l13.345 10.677c0.188 0.163 0.421 0.244 0.655 0.244s0.467-0.081 0.655-0.244l13.345-10.676v14.326c0 0.552 0.052 1.5-0.5 1.5z"></path>
</svg>
