<!-- Generated by IcoMoon.io -->
<svg version="1.1" xmlns="http://www.w3.org/2000/svg" width="32" height="32" viewBox="0 0 32 32">
<title>eyeglass</title>
<path d="M32.043 20.369c-0.031-0.433-1.657-9.979-1.911-11.507-0.024-0.146-0.044-0.303-0.066-0.467-0.197-1.536-0.564-4.394-5.171-4.394-0.552 0-1 0.447-1 1s0.448 1 1 1c2.848 0 2.998 1.169 3.188 2.65 0.024 0.19 0.048 0.371 0.076 0.54 0.117 0.704 0.647 3.505 1.105 6.282-1.174-0.895-2.634-1.431-4.223-1.431-2.552 0-4.823 1.373-6.071 3.418-0.601-0.227-1.619-0.511-2.981-0.511-1.342 0-2.329 0.285-2.938 0.534-1.214-2.057-3.447-3.441-6.008-3.441-1.665 0-3.21 0.585-4.433 1.557 0.463-2.812 1.013-5.689 1.131-6.407 0.029-0.169 0.052-0.351 0.076-0.54 0.19-1.481 0.34-2.649 3.188-2.649 0.553 0 1-0.447 1-1s-0.447-1-1-1c-4.607 0-4.975 2.858-5.171 4.395-0.022 0.164-0.041 0.32-0.066 0.467-0.255 1.528-1.782 11.011-1.812 11.445-0.007 0.096 0.005 0.189 0.024 0.279-0.009 0.145-0.023 0.288-0.023 0.434 0 3.855 3.229 6.98 7.084 6.98s6.979-3.125 6.979-6.98c0-0.583-0.079-1.146-0.214-1.687 0.41-0.165 1.151-0.386 2.181-0.386 1.005 0 1.764 0.201 2.197 0.354-0.144 0.551-0.229 1.124-0.229 1.718 0 3.855 3.23 6.98 7.084 6.98s6.979-3.125 6.979-6.98c0-0.105-0.011-0.206-0.015-0.31 0.031-0.109 0.047-0.223 0.038-0.342zM7.042 25.999c-2.756 0-5.084-2.28-5.084-4.98s2.328-4.98 5.084-4.98c2.746 0 4.979 2.233 4.979 4.98s-2.233 4.98-4.979 4.98zM25.041 25.999c-2.756 0-5.084-2.281-5.084-4.98s2.328-4.98 5.084-4.98c2.375 0 4.363 1.672 4.858 3.899 0.020 0.204 0.038 0.396 0.050 0.572 0.006 0.084 0.029 0.163 0.058 0.24 0.005 0.090 0.014 0.178 0.014 0.27 0 2.745-2.233 4.979-4.979 4.979z"></path>
</svg>
