<?xml version="1.0" encoding="utf-8"?>
<!-- Generator: Adobe Illustrator 26.5.0, SVG Export Plug-In . SVG Version: 6.00 Build 0)  -->
<svg version="1.1" id="Layer_1" xmlns="http://www.w3.org/2000/svg" xmlns:xlink="http://www.w3.org/1999/xlink" x="0px" y="0px"
	 viewBox="0 0 320 320" style="enable-background:new 0 0 320 320;" xml:space="preserve">
<style type="text/css">
	.st0{clip-path:url(#SVGID_00000008116128908992445550000012133522061741054348_);fill:#4C6586;}
</style>
<g>
	<g>
		<defs>
			<rect id="SVGID_1_" width="320" height="320"/>
		</defs>
		<clipPath id="SVGID_00000053547221462074508530000004298850706205899405_">
			<use xlink:href="#SVGID_1_"  style="overflow:visible;"/>
		</clipPath>
		<path style="clip-path:url(#SVGID_00000053547221462074508530000004298850706205899405_);fill:#4C6586;" d="M218.4,189.2
			c2.3-4.7,0.5-10.3-4.2-12.7l-44.8-22.4V110c0-5.2-4.2-9.4-9.4-9.4s-9.4,4.2-9.4,9.4v50c0,3.6,2,6.8,5.2,8.4l50,25
			c1.4,0.7,2.8,1,4.2,1C213.5,194.4,216.8,192.5,218.4,189.2 M247.5,160c0,48.3-39.2,87.5-87.5,87.5S72.5,208.3,72.5,160
			s39.2-87.5,87.5-87.5S247.5,111.7,247.5,160 M267.7,160c0-59.5-48.2-107.7-107.7-107.7S52.3,100.5,52.3,160S100.5,267.7,160,267.7
			S267.7,219.5,267.7,160"/>
	</g>
</g>
</svg>
