<?xml version="1.0" encoding="utf-8"?>
<!-- Generator: Adobe Illustrator 26.5.0, SVG Export Plug-In . SVG Version: 6.00 Build 0)  -->
<svg version="1.1" id="Layer_1" xmlns="http://www.w3.org/2000/svg" xmlns:xlink="http://www.w3.org/1999/xlink" x="0px" y="0px"
	 viewBox="0 0 320 320" style="enable-background:new 0 0 320 320;" xml:space="preserve">
<style type="text/css">
	.st0{clip-path:url(#SVGID_00000140700534168395133440000015425967055108531609_);fill:#4C6586;}
</style>
<g>
	<g>
		<defs>
			<rect id="SVGID_1_" width="320" height="320"/>
		</defs>
		<clipPath id="SVGID_00000080197684564353426490000003285564048329162139_">
			<use xlink:href="#SVGID_1_"  style="overflow:visible;"/>
		</clipPath>
		<path style="clip-path:url(#SVGID_00000080197684564353426490000003285564048329162139_);fill:#4C6586;" d="M135,135H55V55h80V135
			z M150,140V50c0-5.5-4.5-10-10-10H50c-5.5,0-10,4.5-10,10v90c0,5.5,4.5,10,10,10h90C145.5,150,150,145.5,150,140 M135,265H55v-80
			h80V265z M150,270v-90c0-5.5-4.5-10-10-10H50c-5.5,0-10,4.5-10,10v90c0,5.5,4.5,10,10,10h90C145.5,280,150,275.5,150,270 M265,135
			h-80V55h80V135z M280,140V50c0-5.5-4.5-10-10-10h-90c-5.5,0-10,4.5-10,10v90c0,5.5,4.5,10,10,10h90C275.5,150,280,145.5,280,140
			 M265,265h-80v-80h80V265z M280,270v-90c0-5.5-4.5-10-10-10h-90c-5.5,0-10,4.5-10,10v90c0,5.5,4.5,10,10,10h90
			C275.5,280,280,275.5,280,270"/>
	</g>
</g>
</svg>
