<?xml version="1.0" encoding="utf-8"?>
<!-- Generator: Adobe Illustrator 26.5.0, SVG Export Plug-In . SVG Version: 6.00 Build 0)  -->
<svg version="1.1" id="Layer_1" xmlns="http://www.w3.org/2000/svg" xmlns:xlink="http://www.w3.org/1999/xlink" x="0px" y="0px"
	 viewBox="0 0 320 320" style="enable-background:new 0 0 320 320;" xml:space="preserve">
<style type="text/css">
	.st0{clip-path:url(#SVGID_00000173153584193232393630000004390492728464850594_);fill:#4C6586;}
</style>
<g>
	<g>
		<defs>
			<rect id="SVGID_1_" y="0" width="320" height="320"/>
		</defs>
		<clipPath id="SVGID_00000067236139473400895480000006195560436246517438_">
			<use xlink:href="#SVGID_1_"  style="overflow:visible;"/>
		</clipPath>
		<path style="clip-path:url(#SVGID_00000067236139473400895480000006195560436246517438_);fill:#4C6586;" d="M40,259.1v10
			c0,2.8,2.2,5,5,5h230c2.8,0,5-2.2,5-5v-10c0-2.8-2.2-5-5-5H45C42.2,254.1,40,256.3,40,259.1 M105,129.2h40v89.9h-40V129.2z
			 M175,129.2h40v89.9h-40V129.2z M275.3,110.1L172.4,48.2c-7.1-4.3-17.8-4.3-24.9,0L44.7,110.1c-7.3,4.4-7.2,9.5-6.5,12.1
			s3.2,7,11.8,7h25v89.9H60c-5,0-5,5-5,5v10c0,5,5,5,5,5h200c5,0,5-5,5-5v-10c0-5-5-5-5-5h-15v-89.9h25c8.6,0,11.1-4.4,11.8-7
			C282.5,119.5,282.6,114.5,275.3,110.1"/>
	</g>
</g>
</svg>
