<?xml version="1.0" encoding="utf-8"?>
<!-- Generator: Adobe Illustrator 26.5.0, SVG Export Plug-In . SVG Version: 6.00 Build 0)  -->
<svg version="1.1" id="Layer_1" xmlns="http://www.w3.org/2000/svg" xmlns:xlink="http://www.w3.org/1999/xlink" x="0px" y="0px"
	 viewBox="0 0 320 320" style="enable-background:new 0 0 320 320;" xml:space="preserve">
<style type="text/css">
	.st0{clip-path:url(#SVGID_00000085215887426066592930000017504470771060310167_);fill:#4C6586;}
	.st1{fill:#52658B;}
	.st2{fill:none;}
</style>
<g>
	<g>
		<defs>
			<rect id="SVGID_1_" x="70" y="20" width="180" height="285"/>
		</defs>
		<clipPath id="SVGID_00000140734282329994794620000008735328238945772451_">
			<use xlink:href="#SVGID_1_"  style="overflow:visible;"/>
		</clipPath>
		<path style="clip-path:url(#SVGID_00000140734282329994794620000008735328238945772451_);fill:#4C6586;" d="M250,245V25
			c0-2.8-2.2-5-5-5H140h-10.2H125c-2.8,0-6.6,1.6-8.5,3.5l-43,43c-2,2-3.5,5.8-3.5,8.5v7.7V90v155c0,2.8,2.2,5,5,5h50v-15H85V90h55
			V35h95v200h-40v15h50C247.8,250,250,247.8,250,245"/>
	</g>
</g>
<polygon class="st1" points="140,205 140,265 110,265 160,305 210,265 180,265 180,205 "/>
<rect class="st2" width="320" height="320"/>
</svg>
