<?xml version="1.0" encoding="UTF-8"?><svg id="Layer_1" xmlns="http://www.w3.org/2000/svg" xmlns:xlink="http://www.w3.org/1999/xlink" viewBox="0 0 320 320"><defs><style>.cls-1,.cls-2{fill:none;}.cls-2{clip-path:url(#clippath);}.cls-3{fill:#4c6586;}</style><clipPath id="clippath"><rect class="cls-1" width="320" height="320"/></clipPath></defs><g class="cls-2"><path class="cls-3" d="m142.61,179.43l27.03-127.16-39.12-8.32-27.03,127.16,39.13,8.32Zm-29.01,4.06l-12.2-2.59,3.18,16.09,4.73,23.91c1.07,5.42,4.52,6.15,7.71,1.64l17.74-25.14h0s5.76-8.17,5.76-8.17l-9.78-2.08h0l-17.14-3.65Zm166.03,67.6c0-4.21-3.41-7.63-7.63-7.63-7.39,0-13.82,4.28-19.48,8.06-4.31,2.87-9.24,6.14-11.84,5.39-1.04-.27-3.86-1.73-7.61-9.23-15.58-31.15-64.59-15.02-107.79-.82-25.11,8.25-53.53,17.64-63.39,12.66-4.01-2.01-6.11-4.17-6.26-6.44-.46-7.34,13.05-19.94,22.34-26.15,3.49-2.35,4.44-7.08,2.1-10.58-2.35-3.5-7.08-4.45-10.57-2.11-5.07,3.37-30.26,21.15-29.1,39.78.35,5.56,3.17,13.39,14.67,19.14,4.04,2.03,8.92,2.89,14.49,2.89,15.71,0,36.91-6.95,60.49-14.7,37.36-12.28,79.74-26.2,89.39-6.85,4.87,9.74,10.54,15.36,17.34,17.16,9.29,2.52,17.57-3.02,24.22-7.45,3.87-2.58,8.25-5.5,11.02-5.5,4.22,0,7.63-3.41,7.63-7.62"/></g></svg>