<svg id="cat-pg" xmlns="http://www.w3.org/2000/svg" viewBox="0 0 32 32"><defs><style>.cls-1{fill:none;stroke:#000;stroke-linejoin:round;stroke-width:1.45px;}</style></defs><title>icon_frm</title><path class="cls-1" d="M23.45,11.78V6.83a3.4,3.4,0,0,0-1-2.41h0a3.41,3.41,0,0,0-2.41-1H6.86a3.41,3.41,0,0,0-2.41,1h0a3.4,3.4,0,0,0-1,2.41v8.69A3,3,0,0,0,4,17.15H4a2.92,2.92,0,0,0,2.39,1.27h.11v5l4.17-5h2.3"/><line class="cls-1" x1="6.45" y1="6.92" x2="20.45" y2="6.92"/><line class="cls-1" x1="6.45" y1="9.92" x2="20.45" y2="9.92"/><line class="cls-1" x1="6.45" y1="12.92" x2="11.95" y2="12.92"/><path class="cls-1" d="M27.82,16.21h0A2.58,2.58,0,0,1,28.55,18v4.09a2.62,2.62,0,0,1-.73,1.81h0a2.59,2.59,0,0,1-1.87.79h-.4l-3.12,3.87V24.71H19.15a2.59,2.59,0,0,1-1.87-.79h0a2.62,2.62,0,0,1-.73-1.81V18a2.58,2.58,0,0,1,.73-1.81h0a2.59,2.59,0,0,1,1.87-.79H26A2.59,2.59,0,0,1,27.82,16.21Z"/><line class="cls-1" x1="18.9" y1="18.84" x2="26.2" y2="18.84"/><line class="cls-1" x1="18.9" y1="21.42" x2="23.05" y2="21.42"/></svg>