<svg id="cat-pg" xmlns="http://www.w3.org/2000/svg" viewBox="0 0 32 32"><defs><style>.cls-1,.cls-2{fill:none;stroke:#000;stroke-linejoin:round;stroke-width:1.45px;}.cls-1{stroke-linecap:round;}.cls-2{stroke-linecap:square;}</style></defs><title>icon_prg</title><path class="cls-1" d="M27.1,12.19a.19.19,0,0,0,.11-.16.18.18,0,0,0-.11-.17L15.89,7.66a.56.56,0,0,0-.44,0l-11.2,4.2a.17.17,0,0,0-.12.17.17.17,0,0,0,.11.16l11.19,4.63a.66.66,0,0,0,.48,0Z"/><path class="cls-2" d="M7.74,16.62v4.12c0,2.48,3.52,3.51,7.93,3.64,4.41-.13,7.92-1.16,7.92-3.64,0-.25,0-2.79,0-4.12m-15.86,0"/><line class="cls-1" x1="27.21" y1="12.24" x2="27.21" y2="18.02"/><path class="cls-1" d="M27.21,18.15s-2.26,3.17,0,3.17,0-3.16,0-3.16"/></svg>