<?xml version="1.0" encoding="utf-8"?>
<!-- Generator: Adobe Illustrator 25.2.2, SVG Export Plug-In . SVG Version: 6.00 Build 0)  -->
<svg version="1.1" id="Layer_1" xmlns="http://www.w3.org/2000/svg" xmlns:xlink="http://www.w3.org/1999/xlink" x="0px" y="0px"
	 viewBox="0 0 32 32" enable-background="new 0 0 32 32" xml:space="preserve">
<path fill="none" stroke="#52658B" stroke-linecap="round" stroke-linejoin="round" d="M24,25H8v-5h16V25z M26,19L24,5H8L6,19v8h20
	V19z"/>
<polygon fill="#52658B" points="14.7,16 17.3,16 17.3,12.5 19.9,12.5 16,9 12.1,12.5 14.7,12.5 "/>
<g>
	<path fill="#52658B" d="M20.7,22.5c0,0.6,0.4,1,1,1c0.6,0,1-0.4,1-1c0-0.6-0.4-1-1-1C21.1,21.5,20.7,21.9,20.7,22.5 M17.8,22.5
		c0,0.6,0.4,1,1,1s1-0.4,1-1c0-0.6-0.4-1-1-1S17.8,21.9,17.8,22.5"/>
</g>
</svg>
