<svg id="cat-pg" xmlns="http://www.w3.org/2000/svg" viewBox="0 0 32 32"><defs><style>.cls-1,.cls-2,.cls-3{fill:none;stroke:#000;stroke-width:1.45px;}.cls-1{stroke-linecap:round;}.cls-1,.cls-2{stroke-linejoin:round;}.cls-3{stroke-miterlimit:10;}</style></defs><title>icon_rwik</title><ellipse class="cls-1" cx="9.31" cy="11.17" rx="3.75" ry="4.17"/><path class="cls-1" d="M12.22,17h0a6,6,0,0,1-.71.37,5.44,5.44,0,0,1-4.38,0h0A5.29,5.29,0,0,1,6.41,17h0c-1.75.83-2.92,2.17-2.92,3.83V27H15.14V20.83C15.14,19.17,14,17.83,12.22,17Z"/><polygon class="cls-2" points="22.45 24.11 18.14 26.6 18.14 21.63 22.45 24.11"/><ellipse class="cls-3" cx="23" cy="9" rx="3.96" ry="4"/><path class="cls-2" d="M23,5s1.21.64,1.21,4S23,13,23,13"/><path class="cls-2" d="M27,9s-.64,1-4,1-4-1-4-1"/><line class="cls-2" x1="22.45" y1="24.12" x2="29.39" y2="12.08"/><line class="cls-2" x1="21.38" y1="16.03" x2="18.14" y2="21.63"/></svg>