<svg id="cat-pg" xmlns="http://www.w3.org/2000/svg" viewBox="0 0 32 32"><defs><style>.cls-1{fill:#fff;}.cls-2{fill:none;stroke:#fff;stroke-miterlimit:10;}</style></defs><title>il_icons-0-3-2-cat_white</title><path class="cls-1" d="M10.9,4.32l.24,0,0,0a2.76,2.76,0,0,0,.23.27l.3.29h.41a10.82,10.82,0,0,1,7.65,2.66,6.26,6.26,0,0,0,4.34,1.66c.45,0,.86,0,1.23-.07l.26,0a3.35,3.35,0,0,1-.06.36c-.48,2.25-4,3.74-7.11,4h-.1l-1.79.34a23.88,23.88,0,0,0-4.66,1.2l-.66.24v9.9h-.6V4.34l.3,0m0-1c-1.1,0-1.3.4-1.3,1v21.4c0,.3.2.5,1.3.5s1.3-.2,1.3-.5V16a32.45,32.45,0,0,1,6.3-1.5c3.4-.3,7.4-2,8-4.8.2-1,.1-1.6-.4-1.6s-1.25.12-2,.12A5.28,5.28,0,0,1,20.4,6.82a11.75,11.75,0,0,0-8.3-2.9c-.3-.3-.3-.6-1.2-.6Z"/><path class="cls-2" d="M7.6,25c-1.28.32-2.2.86-2.2,1.64,0,1.37,2.85,2,5.5,2s5.5-.63,5.5-2c0-.78-.92-1.32-2.2-1.64"/></svg>