<svg id="cat-pg" xmlns="http://www.w3.org/2000/svg" viewBox="0 0 32 32"><defs><style>.cls-1,.cls-2{fill:none;stroke:#000;stroke-linejoin:round;stroke-width:1.45px;}.cls-1{stroke-linecap:round;}</style></defs><title>icon_file_inline</title><path class="cls-1" d="M27.9,12.39a.71.71,0,0,1,.73.73V24.83a.71.71,0,0,1-.73.73H9.6a.71.71,0,0,1-.73-.73V13.12a.71.71,0,0,1,.73-.73Z"/><polyline class="cls-2" points="15.23 8.75 15.23 2.05 6.08 2.05 2.27 5.86 2.27 18.05 5.24 18.05"/><polygon class="cls-1" points="26.51 25.56 29.73 29.95 7.77 29.95 10.99 25.56 26.51 25.56"/><polyline class="cls-1" points="6.08 2.05 6.08 5.86 2.27 5.86"/></svg>