<svg id="cat-pg" xmlns="http://www.w3.org/2000/svg" viewBox="0 0 32 32"><defs><style>.cls-1{fill:none;stroke:#000;stroke-linejoin:round;stroke-width:1.45px;}</style></defs><title>icon_comu</title><path class="cls-1" d="M13.33,20.81c0,3.08,3.33,5.59,7.45,5.59a9.21,9.21,0,0,0,4.08-.93l3.36,2.79-1.13-4.52a4.57,4.57,0,0,0,1.13-2.93c0-3.09-3.33-5.59-7.44-5.59s-7.45,2.5-7.45,5.59"/><path class="cls-1" d="M10.23,18.52A17.45,17.45,0,0,1,7.4,17L3.78,19.74,5,14.84a6.06,6.06,0,0,1-1.22-3.6h0c0-4.14,4.47-7.5,10-7.5s10,3.36,10,7.5a5.28,5.28,0,0,1-.05.66c0,.13,0,.26-.05.38"/></svg>