<svg id="cat-pg" xmlns="http://www.w3.org/2000/svg" viewBox="0 0 32 32"><defs><style>.cls-1,.cls-2{fill:none;stroke:#fff;}.cls-1{stroke-linejoin:round;}.cls-2{stroke-miterlimit:10;}</style></defs><title>il_icons-0-3-2-cat_white</title><polygon class="cls-1" points="16.68 12 16.68 16.48 10.35 16.48 10.35 12.42 10.35 12 16.68 12"/><path class="cls-2" d="M4,9.22V22.35a1.4,1.4,0,0,0,1.5,1.27H27a.93.93,0,0,0,1-.84V9.22a.93.93,0,0,0-1-.84H8a.93.93,0,0,0-1,.84V22.35a1.4,1.4,0,0,1-1.5,1.27h0"/><line class="cls-1" x1="9.88" y1="19.8" x2="17.04" y2="19.8"/><line class="cls-1" x1="18.69" y1="11.9" x2="25.85" y2="11.9"/><line class="cls-1" x1="18.69" y1="15.85" x2="25.85" y2="15.85"/><line class="cls-1" x1="18.69" y1="19.8" x2="25.85" y2="19.8"/></svg>