<?xml version="1.0" encoding="utf-8"?>
<!-- Generator: Adobe Illustrator 25.2.2, SVG Export Plug-In . SVG Version: 6.00 Build 0)  -->
<svg version="1.1" id="Layer_1" xmlns="http://www.w3.org/2000/svg" xmlns:xlink="http://www.w3.org/1999/xlink" x="0px" y="0px"
	 viewBox="0 0 32 32" enable-background="new 0 0 32 32" xml:space="preserve">
<g>
	<g>
		<path fill="none" stroke="#52658B" stroke-width="0.8" stroke-linecap="round" stroke-linejoin="round" d="M19.2,5.9
			c-1-0.1-1.9,0.9-3.7,2.7c-1.8,1.8-5.4,2.8-6.3,2.8H4.7h0C3.2,11.4,2,13,2,15c0,2,1.2,3.6,2.7,3.6h1.4c0.5,0.9,1.4,2.4,1.4,3.1
			c0,1.8,0.2,2.3,1.7,2.3c0.9,0,1.4,0,1.4-0.9c0-0.9-0.4-1.9-1.3-3.7c-0.2-0.3-0.3-0.6-0.4-0.8h0.2c0.9,0,4.5,1,6.3,2.8
			c1.8,1.8,2.8,2.7,3.7,2.7"/>
	</g>
	<line fill="none" stroke="#52658B" stroke-width="0.8" stroke-linecap="round" x1="25" y1="9.9" x2="28" y2="7.5"/>
	<line fill="none" stroke="#52658B" stroke-width="0.8" stroke-linecap="round" x1="25" y1="20.1" x2="28" y2="22.5"/>
	<line fill="none" stroke="#52658B" stroke-width="0.8" stroke-linecap="round" x1="25.6" y1="15" x2="29.4" y2="15"/>
	<g>
		<path fill="none" stroke="#52658B" stroke-width="0.8" d="M19.3,24.1c1.7,0,3.5-3.7,3.5-9.1c0-5.4-1.9-9.1-3.5-9.1
			c-1.7,0-3.5,3.7-3.5,9.1C15.8,20.4,17.6,24.1,19.3,24.1z"/>
		<path fill="#52658B" d="M16.1,15c0,0.9,0.1,1.8,0.2,2.6c1.2-0.2,2.1-1.3,2.1-2.7c0-1.4-0.9-2.5-2.1-2.7
			C16.1,13.2,16.1,14.1,16.1,15"/>
	</g>
</g>
</svg>
