<svg xmlns="http://www.w3.org/2000/svg" xmlns:xlink="http://www.w3.org/1999/xlink" viewBox="0 0 32 32"><defs><style>.cls-1,.cls-3{fill:none;stroke:#000;stroke-linejoin:round;}.cls-2{clip-path:url(#clip-path);}.cls-3{stroke-linecap:round;}</style><clipPath id="clip-path"><path class="cls-1" d="M21,21.76a2.24,2.24,0,1,0,2.24-2.24A2.24,2.24,0,0,0,21,21.76"/></clipPath></defs><title>icon_pays</title><g id="pays"><g class="cls-2"><rect class="cls-1" x="21" y="19.52" width="4.48" height="4.48"/></g><path class="cls-1" d="M21,21.76a2.24,2.24,0,1,0,2.24-2.24A2.24,2.24,0,0,0,21,21.76"/><path class="cls-1" d="M11,21.76a2.24,2.24,0,1,0,2.24-2.24A2.24,2.24,0,0,0,11,21.76"/><polyline class="cls-1" points="3 8 6.48 8 9.2 19.52 27.16 19.52"/><polygon class="cls-3" points="11.49 16.52 9.48 8 29 8 26.41 16.52 11.49 16.52"/></g></svg>