<svg id="cat-pg" xmlns="http://www.w3.org/2000/svg" viewBox="0 0 32 32"><defs><style>.cls-1{fill:none;stroke:#000;stroke-linejoin:round;stroke-width:1.45px;}</style></defs><title>icon_coms</title><path class="cls-1" d="M15.33,22.32H12.42L7.15,28.64V22.32H7a3.65,3.65,0,0,1-3-1.6H4a3.59,3.59,0,0,1-.64-2.06v-11a4.29,4.29,0,0,1,1.27-3h0A4.29,4.29,0,0,1,7.68,3.36H24.32a4.29,4.29,0,0,1,3.05,1.27h0a4.29,4.29,0,0,1,1.27,3.05V18.31a4,4,0,0,1-4,4Z"/><line class="cls-1" x1="7.15" y1="7.78" x2="24.85" y2="7.78"/><line class="cls-1" x1="7.15" y1="11.58" x2="24.85" y2="11.58"/><line class="cls-1" x1="7.15" y1="15.37" x2="14.1" y2="15.37"/></svg>