<svg id="cat-pg" xmlns="http://www.w3.org/2000/svg" viewBox="0 0 32 32"><defs><style>.cls-1,.cls-2{fill:none;stroke:#000;stroke-linejoin:round;stroke-width:1.45px;}.cls-1{stroke-linecap:round;}</style></defs><title>icon_blog</title><ellipse class="cls-1" cx="9.31" cy="9.78" rx="3.75" ry="4.17"/><path class="cls-1" d="M12.22,16h0a6,6,0,0,1-.71.37,5.44,5.44,0,0,1-4.38,0h0A5.29,5.29,0,0,1,6.41,16h0c-1.75.83-2.92,2.17-2.92,3.83V26H15.14V19.83C15.14,18.17,14,16.83,12.22,16Z"/><polygon class="cls-2" points="22.96 23.54 18.78 26.07 18.69 21.19 22.96 23.54"/><polyline class="cls-1" points="22.96 23.54 29.61 11.49 25.33 9.14 18.69 21.19"/></svg>