<svg id="cat-pg" xmlns="http://www.w3.org/2000/svg" viewBox="0 0 32 32"><defs><style>.cls-1,.cls-2{fill:none;stroke:#fff;stroke-linejoin:round;}.cls-2{stroke-width:1.03px;}</style></defs><title>il_icons-0-3-2-cat_white</title><path class="cls-1" d="M25,10a3,3,0,1,0-3-3,3,3,0,0,0,3,3"/><path class="cls-2" d="M9,16a7,7,0,1,0,7-7,7,7,0,0,0-7,7"/><path class="cls-2" d="M4,7A3,3,0,1,0,7,4,3,3,0,0,0,4,7"/><path class="cls-2" d="M22,25a3,3,0,1,0,3-3,3,3,0,0,0-3,3"/><path class="cls-2" d="M4,25a3,3,0,1,0,3-3,3,3,0,0,0-3,3"/></svg>