<svg xmlns="http://www.w3.org/2000/svg" xmlns:xlink="http://www.w3.org/1999/xlink" viewBox="0 0 32 32"><defs><style>.cls-1,.cls-2{fill:none;stroke:#000;}.cls-1{stroke-linejoin:round;}.cls-2{stroke-miterlimit:10;}.cls-3{clip-path:url(#clip-path);}.cls-4{clip-path:url(#clip-path-2);}.cls-5{clip-path:url(#clip-path-3);}</style><clipPath id="clip-path"><polygon points="24.4 19.21 19.32 19.21 19.32 20.52 22.38 20.52 19.23 24.43 19.23 25.84 24.42 25.84 24.42 24.53 21.15 24.53 24.4 20.61 24.4 19.21"/></clipPath><clipPath id="clip-path-2"><rect x="20.53" y="14.69" width="2.71" height="1.32"/></clipPath><clipPath id="clip-path-3"><path d="M22.61,9.31H21l.81-2.46h0Zm-4.15,2.53h1.7l.49-1.34H23l.47,1.34h1.83L22.89,5.56H20.84Z"/></clipPath></defs><title>icon_glo</title><g id="cld"><rect class="cls-1" x="6.3" y="3.84" width="9.06" height="24.16"/><line class="cls-2" x1="6.3" y1="8.5" x2="15.36" y2="8.5"/><line class="cls-2" x1="6.3" y1="11.84" x2="15.3" y2="11.84"/><polygon points="24.4 19.21 19.32 19.21 19.32 20.52 22.38 20.52 19.23 24.43 19.23 25.84 24.42 25.84 24.42 24.53 21.15 24.53 24.4 20.61 24.4 19.21"/><g class="cls-3"><rect x="19.23" y="19.21" width="5.19" height="6.63"/></g><rect x="20.53" y="14.69" width="2.71" height="1.32"/><g class="cls-4"><rect x="20.53" y="14.69" width="2.71" height="1.32"/></g><path d="M22.61,9.31H21l.81-2.46h0Zm-4.15,2.53h1.7l.49-1.34H23l.47,1.34h1.83L22.89,5.56H20.84Z"/><g class="cls-5"><rect x="18.46" y="5.56" width="6.86" height="6.28"/></g></g></svg>