<svg id="cat-pg" xmlns="http://www.w3.org/2000/svg" viewBox="0 0 32 32"><defs><style>.cls-1{fill:none;stroke:#000;stroke-linejoin:round;stroke-width:1.45px;}</style></defs><title>icon_sess</title><path class="cls-1" d="M25.48,9.48a3,3,0,1,0-3-3,3,3,0,0,0,3,3"/><path class="cls-1" d="M9,16a7,7,0,1,0,7-7,7,7,0,0,0-7,7"/><path class="cls-1" d="M3.46,6.46a3,3,0,1,0,3-3,3,3,0,0,0-3,3"/><path class="cls-1" d="M22.5,25.5a3,3,0,1,0,3-3,3,3,0,0,0-3,3"/><path class="cls-1" d="M3.46,25.5a3,3,0,1,0,3-3,3,3,0,0,0-3,3"/></svg>