<svg id="cat-pg" xmlns="http://www.w3.org/2000/svg" viewBox="0 0 32 32"><defs><style>.cls-1,.cls-2{fill:none;stroke:#000;stroke-width:1.45px;}.cls-1{stroke-linejoin:round;}.cls-2{stroke-miterlimit:10;}</style></defs><title>icon_mcts</title><path class="cls-1" d="M15,17.26l.21.06c-.75,5.16-1.5,11.58-1.5,11.58h4.66s-.75-6.42-1.5-11.58a3.32,3.32,0,0,0,1.58-.91,3.4,3.4,0,0,0,0-4.83"/><path class="cls-1" d="M18.41,11.58a3.41,3.41,0,0,0-4.82,4.83,3.65,3.65,0,0,0,1.18.77l.19.08"/><path class="cls-2" d="M23.75,3.1a15,15,0,0,1-.21,21.59"/><path class="cls-2" d="M20.53,6.41a10.42,10.42,0,0,1-.1,14.87"/><path class="cls-2" d="M8.25,3.1a15,15,0,0,0,.21,21.59"/><path class="cls-2" d="M11.47,6.41a10.42,10.42,0,0,0,.1,14.87"/></svg>