<svg id="cat-pg" xmlns="http://www.w3.org/2000/svg" viewBox="0 0 32 32"><defs><style>.cls-1{fill:none;stroke:#000;stroke-linejoin:round;stroke-width:1.45px;}</style></defs><title>icon_cmis</title><path class="cls-1" d="M4,22.88h7.85m-3.1,3.56,3.56-3.56L8.75,19.32"/><path class="cls-1" d="M20.15,8.49H28M23.25,4.93,19.69,8.49l3.56,3.57"/><polygon class="cls-1" points="12.2 6.5 16.35 7.09 13.36 10.03 14.09 14.15 10.37 12.22 6.67 14.19 7.36 10.05 4.35 7.14 8.49 6.52 10.33 2.76 12.2 6.5"/><polygon class="cls-1" points="23.49 20.7 27.64 21.28 24.65 24.22 25.38 28.34 21.66 26.41 17.96 28.38 18.65 24.25 15.64 21.34 19.78 20.71 21.62 16.95 23.49 20.7"/></svg>