<svg id="cat-pg" xmlns="http://www.w3.org/2000/svg" viewBox="0 0 32 32"><defs><style>.cls-1{fill:none;stroke:#000;stroke-linecap:round;stroke-linejoin:round;stroke-width:1.45px;}</style></defs><title>icon_stff</title><ellipse class="cls-1" cx="8.33" cy="10.62" rx="3.34" ry="3.72"/><path class="cls-1" d="M10.93,16.17h0a4.31,4.31,0,0,1-.64.33,4.74,4.74,0,0,1-1.95.42,4.82,4.82,0,0,1-2-.42h0a4.21,4.21,0,0,1-.63-.33h0a4,4,0,0,0-2.6,3.42v5.5h10.4v-5.5A4,4,0,0,0,10.93,16.17Z"/><ellipse class="cls-1" cx="23.67" cy="10.62" rx="3.34" ry="3.72"/><path class="cls-1" d="M26.27,16.17h0a4.21,4.21,0,0,1-.63.33,4.82,4.82,0,0,1-2,.42,4.74,4.74,0,0,1-2-.42h0a4.31,4.31,0,0,1-.64-.33h0a4,4,0,0,0-2.6,3.42v5.5h10.4v-5.5A4,4,0,0,0,26.27,16.17Z"/></svg>