<svg xmlns="http://www.w3.org/2000/svg" viewBox="0 0 32 32"><defs><style>.cls-1,.cls-2{fill:none;stroke:#000;stroke-linejoin:round;}.cls-2{stroke-linecap:round;}</style></defs><title>icon_pd</title><g id="cal2"><polygon class="cls-1" points="17.88 25.57 10.88 18.57 9.47 19.99 15.05 25.57 10.47 25.57 10.47 27.57 24.47 27.57 24.47 25.57 17.88 25.57"/><circle class="cls-2" cx="7.35" cy="16.45" r="1"/><path class="cls-2" d="M25.3,6.57a8.33,8.33,0,0,0-6-.33l-.17-.18.22-.22L18,4.43,9.48,12.91l1.41,1.41,5.74-5.73.23.23a8.55,8.55,0,0,0,.4,5.79.73.73,0,0,0,1.14.13l7-7A.72.72,0,0,0,25.3,6.57Z"/></g></svg>