<svg id="cat-pg" xmlns="http://www.w3.org/2000/svg" viewBox="0 0 32 32"><defs><style>.cls-1{fill:none;stroke:#fff;stroke-linejoin:round;}</style></defs><title>il_icons-0-3-2-cat_white</title><path class="cls-1" d="M7.4,3.51c-.6,0-.88.29-.46.85l1.88,2.5a2.5,2.5,0,0,1-.94,1.9,2.51,2.51,0,0,1-2.09.39L3.91,6.65c-.61-.81-1.05-.06-1.08,1.16V8A6,6,0,0,0,3.92,11.4a4.67,4.67,0,0,0,5.52,1.15L20.87,23.21a2.9,2.9,0,0,0,.9,2.44,2.93,2.93,0,1,0,4-4.28,2.9,2.9,0,0,0-2.5-.74L11.86,10a4.53,4.53,0,0,0-.36-4.32,5.88,5.88,0,0,0-4-2.17Z"/><polyline class="cls-1" points="19.54 13.76 24.12 9.54 26.13 8.7 27.91 5.95 26.83 4.79 23.96 6.38 22.88 8.47 18.32 12.72"/><path class="cls-1" d="M11.46,18l-6.67,5.7a2.08,2.08,0,0,0-.19,2.92,1.91,1.91,0,0,0,1.42.6,2.21,2.21,0,0,0,1.52-.61l6.34-6.45"/></svg>