<svg id="cat-pg" xmlns="http://www.w3.org/2000/svg" viewBox="0 0 32 32"><defs><style>.cls-1{fill:none;stroke:#000;stroke-linejoin:round;stroke-width:1.45px;}</style></defs><title>icon_awra</title><path class="cls-1" d="M12.94,6.5a6.59,6.59,0,0,1,5.51,3,2.5,2.5,0,0,1,.43,1.43V15.2a9,9,0,0,1-2.49,5.51.75.75,0,0,0,.12,1.12c1.52,1,3.49,1.78,6.65,3.44a1.59,1.59,0,0,1,.92,1.39V28.8H12.94m0-22.3a6.59,6.59,0,0,0-5.51,3A2.5,2.5,0,0,0,7,10.89V15.2a9.1,9.1,0,0,0,2.49,5.51.75.75,0,0,1-.12,1.12c-1.51,1-3.49,1.78-6.64,3.44a1.57,1.57,0,0,0-.92,1.39V28.8H12.94"/><path class="cls-1" d="M19.06,3.2a6.59,6.59,0,0,1,5.51,3A2.48,2.48,0,0,1,25,7.59v4.3a9.07,9.07,0,0,1-2.49,5.51.76.76,0,0,0,.12,1.13c1.51,1,3.49,1.78,6.64,3.43a1.59,1.59,0,0,1,.92,1.4V25.5H27.41M19.06,3.2a6.38,6.38,0,0,0-2.88.65"/></svg>