<svg id="cat-pg" xmlns="http://www.w3.org/2000/svg" viewBox="0 0 32 32"><defs><style>.cls-1{fill:none;stroke:#fff;stroke-linecap:round;stroke-linejoin:round;}</style></defs><title>il_icons-0-3-2-cat_white</title><ellipse class="cls-1" cx="9.28" cy="13.86" rx="3.22" ry="3.58"/><path class="cls-1" d="M6.78,18.87h0a3.79,3.79,0,0,0-2.5,3.29v5.29h10V22.16a3.79,3.79,0,0,0-2.5-3.29h0a4.74,4.74,0,0,1-5,0Z"/><ellipse class="cls-1" cx="22.72" cy="8.13" rx="3.22" ry="3.58"/><path class="cls-1" d="M20.23,13.13h0a3.8,3.8,0,0,0-2.5,3.29v5.29h10V16.42a3.8,3.8,0,0,0-2.5-3.29h0a4.68,4.68,0,0,1-5,0Z"/></svg>