<svg id="cat-pg" xmlns="http://www.w3.org/2000/svg" viewBox="0 0 32 32"><defs><style>.cls-1{fill:none;stroke:#000;stroke-linecap:round;stroke-linejoin:round;stroke-width:1.45px;}</style></defs><title>icon_calch</title><ellipse class="cls-1" cx="9.28" cy="13.24" rx="3.22" ry="3.58"/><path class="cls-1" d="M11.78,18.58h0a5.07,5.07,0,0,1-.61.32,4.64,4.64,0,0,1-3.77,0h0a5.07,5.07,0,0,1-.61-.32h0a3.8,3.8,0,0,0-2.5,3.29v5.29h10V21.87A3.8,3.8,0,0,0,11.78,18.58Z"/><ellipse class="cls-1" cx="22.91" cy="7.79" rx="3.22" ry="3.58"/><path class="cls-1" d="M25.41,13.13h0c-.2.12-.4.22-.61.32a4.8,4.8,0,0,1-1.88.4,4.73,4.73,0,0,1-1.88-.4h0a5.86,5.86,0,0,1-.61-.32h0a3.8,3.8,0,0,0-2.5,3.29v5.29h10V16.42A3.8,3.8,0,0,0,25.41,13.13Z"/></svg>