<svg id="cat-pg" xmlns="http://www.w3.org/2000/svg" viewBox="0 0 32 32"><defs><style>.cls-1{fill:none;stroke:#000;stroke-linejoin:round;stroke-width:1.45px;}</style></defs><title>icon_iass</title><path class="cls-1" d="M7.34,23.06a2.11,2.11,0,0,1,2.12,2.12c0,1.52-2.48,2.47-4.24.71a3.47,3.47,0,0,1,0-4.95l10.1-9.28,7-6.43c.76-.76,3-.82,4.41.55s1.31,3.66.55,4.42L11.58,27.3c1-1,1.05-3.9-.7-5.65S6.2,20,5.22,20.94"/><path class="cls-1" d="M16.33,10.75a2.89,2.89,0,0,1,2-.8c1.85,0,3.36,1.9,3.36,4.25a5,5,0,0,1-1.06,3.29"/></svg>