<svg id="cat-pg" xmlns="http://www.w3.org/2000/svg" viewBox="0 0 32 32"><title>icon_cld</title><path d="M15.88,8.93c2.34,0,4.74,1.37,5.65,4.94a5.1,5.1,0,0,1,1.24-.14A4.41,4.41,0,0,1,27.5,18.4c.06,3.37-3.16,4.67-5.06,4.67H8.94a4.36,4.36,0,0,1-4.36-5.16,3.93,3.93,0,0,1,3.76-3.19,2.75,2.75,0,0,1,1.75.58,4.93,4.93,0,0,1,1.92-5,6.23,6.23,0,0,1,3.87-1.35m0-1.45A7.71,7.71,0,0,0,11.1,9.15a6.52,6.52,0,0,0-2.49,4.13H8.34a5.39,5.39,0,0,0-5.17,4.32,5.89,5.89,0,0,0,1.19,4.79,5.7,5.7,0,0,0,4.58,2.14h13.5a7.22,7.22,0,0,0,4.9-2A5.6,5.6,0,0,0,29,18.37c-.08-4.5-3.38-6.09-6.18-6.09h-.23a7,7,0,0,0-6.66-4.8Z"/></svg>