<svg id="cat-pg" xmlns="http://www.w3.org/2000/svg" viewBox="0 0 32 32"><defs><style>.cls-1{fill:none;stroke:#000;stroke-linejoin:round;stroke-width:1.45px;}</style></defs><title>icon_wksp</title><path class="cls-1" d="M16,2.79a7.85,7.85,0,0,1,6.56,3.52A3,3,0,0,1,23.08,8v5.12a10.85,10.85,0,0,1-3,6.56A.9.9,0,0,0,20.26,21c1.8,1.21,4.14,2.11,7.9,4.08a1.91,1.91,0,0,1,1.1,1.67v2.54H16M16,2.79A7.85,7.85,0,0,0,9.45,6.31,3,3,0,0,0,8.93,8v5.12a10.85,10.85,0,0,0,3,6.56A.9.9,0,0,1,11.75,21c-1.8,1.21-4.14,2.11-7.9,4.08a1.91,1.91,0,0,0-1.1,1.67v2.54H16"/></svg>