<svg xmlns="http://www.w3.org/2000/svg" xmlns:xlink="http://www.w3.org/1999/xlink" viewBox="0 0 32 32"><defs><style>.cls-1,.cls-2,.cls-3{fill:none;stroke:#000;stroke-linejoin:round;}.cls-2,.cls-3{stroke-linecap:square;}.cls-3{clip-path:url(#clip-path);}.cls-4{clip-path:url(#clip-path-2);}.cls-5{clip-path:url(#clip-path-3);}</style><clipPath id="clip-path"><path class="cls-2" d="M4,11.5C4,7.36,8.48,4,14,4s10,3.36,10,7.5a9.35,9.35,0,0,1-.16,1.42"/></clipPath><clipPath id="clip-path-2"><path class="cls-1" d="M13.55,21.07c0,3.08,3.34,5.59,7.45,5.59a9.29,9.29,0,0,0,4.09-.93l3.36,2.79L27.32,24a4.63,4.63,0,0,0,1.13-2.93c0-3.09-3.34-5.59-7.45-5.59s-7.45,2.5-7.45,5.59"/></clipPath><clipPath id="clip-path-3"><path class="cls-3" d="M4,11.5a6.15,6.15,0,0,0,1.22,3.6L4,20l3.63-2.72A14.81,14.81,0,0,0,11.08,19"/></clipPath></defs><title>icon_chtr</title><g id="chtr"><g class="cls-4"><rect class="cls-1" x="13.55" y="15.48" width="14.9" height="13.04"/></g><path class="cls-1" d="M13.55,21.07c0,3.08,3.34,5.59,7.45,5.59a9.29,9.29,0,0,0,4.09-.93l3.36,2.79L27.32,24a4.63,4.63,0,0,0,1.13-2.93c0-3.09-3.34-5.59-7.45-5.59s-7.45,2.5-7.45,5.59"/><g class="cls-5"><rect class="cls-2" x="4" y="4" width="20" height="16"/></g><path class="cls-2" d="M4,11.5C4,7.36,8.48,4,14,4s10,3.36,10,7.5a9.35,9.35,0,0,1-.16,1.42"/><path class="cls-2" d="M4,11.5a6.15,6.15,0,0,0,1.22,3.6L4,20l3.63-2.72A14.81,14.81,0,0,0,11.08,19"/></g></svg>