<svg id="cat-pg" xmlns="http://www.w3.org/2000/svg" viewBox="0 0 32 32"><defs><style>.cls-1,.cls-2{fill:none;stroke:#fff;stroke-linejoin:round;}.cls-1{stroke-linecap:round;}.cls-2{stroke-linecap:square;}</style></defs><title>il_icons-0-3-2-cat_white</title><path class="cls-1" d="M26.93,12.19A.19.19,0,0,0,27,12a.17.17,0,0,0-.12-.17l-11.2-4.2a.56.56,0,0,0-.44,0L4.07,11.86A.18.18,0,0,0,4,12a.17.17,0,0,0,.11.16l11.19,4.63a.66.66,0,0,0,.48,0Z"/><path class="cls-2" d="M7.57,16.62v4.12c0,2.48,3.52,3.51,7.93,3.64,4.41-.13,7.92-1.16,7.92-3.64,0-.25,0-2.79,0-4.12m-15.86,0"/><line class="cls-1" x1="27.04" y1="12.24" x2="27.04" y2="18.02"/><path class="cls-1" d="M27,18.15s-1.41,3.17,0,3.17,0-3.16,0-3.16"/></svg>