<svg id="cat-pg" xmlns="http://www.w3.org/2000/svg" viewBox="0 0 32 32"><defs><style>.cls-1,.cls-2,.cls-3{fill:none;stroke:#fff;}.cls-1,.cls-2{stroke-miterlimit:10;}.cls-2{stroke-linecap:square;}.cls-3{stroke-linejoin:round;}</style></defs><title>il_icons-0-3-2-cat_white</title><path class="cls-1" d="M16.06,7.5H7A1.5,1.5,0,0,1,5.5,6h0"/><path class="cls-1" d="M17.1,4.5H7A1.5,1.5,0,0,0,5.5,6V27.5a1,1,0,0,0,1,1h16a1,1,0,0,0,1-1V13.92"/><line class="cls-2" x1="9" y1="18.5" x2="14.1" y2="18.5"/><line class="cls-2" x1="9" y1="21.5" x2="17.5" y2="21.5"/><ellipse class="cls-1" cx="22.5" cy="7.5" rx="3.96" ry="4"/><path class="cls-3" d="M22.5,3.5s1.5.64,1.5,4-1.5,4-1.5,4"/><path class="cls-3" d="M26.5,7.5S25.86,9,22.5,9s-4-1.5-4-1.5"/></svg>