<svg id="cat-pg" xmlns="http://www.w3.org/2000/svg" viewBox="0 0 32 32"><defs><style>.cls-1,.cls-2{fill:none;stroke:#fff;stroke-linejoin:round;}.cls-1{stroke-linecap:round;}.cls-2{stroke-linecap:square;}</style></defs><title>il_icons-0-3-2-cat_white</title><ellipse class="cls-1" cx="16" cy="10.11" rx="2.91" ry="3.23"/><path class="cls-1" d="M14.64,25.17H21.5v-6c0-1.57-1.1-2.83-2.75-3.62h0a4.76,4.76,0,0,1-.67.35,5.09,5.09,0,0,1-4.14,0h0a4.76,4.76,0,0,1-.67-.35h0c-1.65.79-2.75,2.05-2.75,3.62"/><ellipse class="cls-2" cx="25.4" cy="13.79" rx="1.9" ry="2.11"/><path class="cls-2" d="M24.51,23.68H29V19.75a2.74,2.74,0,0,0-1.8-2.37h0a2.3,2.3,0,0,1-.44.23,3.21,3.21,0,0,1-1.35.29,3.25,3.25,0,0,1-1.28-.26"/><ellipse class="cls-2" cx="6.6" cy="13.79" rx="1.9" ry="2.11"/><path class="cls-2" d="M3,21V19.75a2.74,2.74,0,0,1,1.8-2.37h0a2.3,2.3,0,0,0,.44.23,3.21,3.21,0,0,0,1.35.29,3.25,3.25,0,0,0,1.28-.26"/><path class="cls-2" d="M3.35,24H11.2M8.1,27.56,11.66,24,8.1,20.44"/></svg>