<svg id="cat-pg" xmlns="http://www.w3.org/2000/svg" viewBox="0 0 32 32"><defs><style>.cls-1{fill:none;stroke:#fff;stroke-linejoin:round;}</style></defs><title>il_icons-0-3-2-cat_white</title><path class="cls-1" d="M6.34,22.9A2.11,2.11,0,0,1,8.46,25c0,1.52-2.48,2.47-4.24.71a3.47,3.47,0,0,1,0-4.95l10.1-9.28,7-6.43c.76-.76,3-.82,4.41.55s1.31,3.65.55,4.42l-15.7,17.1c1-1,1.05-3.9-.71-5.65S5.2,19.8,4.22,20.78"/><path class="cls-1" d="M15.33,10.59a2.87,2.87,0,0,1,2-.8c1.86,0,3.36,1.9,3.36,4.25a5,5,0,0,1-1,3.29"/></svg>