<svg id="cat-pg" xmlns="http://www.w3.org/2000/svg" viewBox="0 0 32 32"><defs><style>.cls-1,.cls-2{fill:none;stroke:#fff;stroke-linejoin:round;}.cls-2{stroke-linecap:square;}</style></defs><title>il_icons-0-3-2-cat_white</title><path class="cls-1" d="M13.55,21.07c0,3.08,3.34,5.59,7.45,5.59a9.29,9.29,0,0,0,4.09-.93l3.36,2.79L27.32,24a4.63,4.63,0,0,0,1.13-2.93c0-3.09-3.34-5.59-7.45-5.59s-7.45,2.5-7.45,5.59"/><path class="cls-2" d="M11.08,19a14.81,14.81,0,0,1-3.45-1.71L4,20l1.22-4.9A6.15,6.15,0,0,1,4,11.5H4C4,7.36,8.48,4,14,4s10,3.36,10,7.5a9.35,9.35,0,0,1-.16,1.42"/></svg>