<svg xmlns="http://www.w3.org/2000/svg" xmlns:xlink="http://www.w3.org/1999/xlink" viewBox="0 0 32 32"><defs><style>.cls-1{clip-path:url(#clip-path);}.cls-2,.cls-3{fill:none;stroke:#000;stroke-linejoin:round;}.cls-3{stroke-linecap:round;}</style><clipPath id="clip-path"><path d="M13,11.45l-.09,4.78a6.5,6.5,0,0,1,1.86-.29,4.28,4.28,0,0,1,.81.07,1.91,1.91,0,0,1,.67.25,1.21,1.21,0,0,1,.45.45,1.34,1.34,0,0,1,.18.73,1.51,1.51,0,0,1-.18.77,1.28,1.28,0,0,1-.45.5,2,2,0,0,1-.67.27,3.7,3.7,0,0,1-.83.09,6,6,0,0,1-1-.09,4.42,4.42,0,0,1-1-.27L12.7,20.1a5.49,5.49,0,0,0,1.18.27,10.26,10.26,0,0,0,1.22.08,4.92,4.92,0,0,0,1.37-.19,4,4,0,0,0,1.21-.55,2.8,2.8,0,0,0,.86-.95,2.65,2.65,0,0,0,.33-1.35,2.74,2.74,0,0,0-.26-1.24,2.26,2.26,0,0,0-.69-.81,2.76,2.76,0,0,0-1-.45,5.19,5.19,0,0,0-1.2-.13l-.53,0a2.54,2.54,0,0,0-.54.09l.09-2.13h3.71V11.45Z"/></clipPath></defs><title>icon_cal</title><g id="cal"><path d="M13,11.45l-.09,4.78a6.5,6.5,0,0,1,1.86-.29,4.28,4.28,0,0,1,.81.07,1.91,1.91,0,0,1,.67.25,1.21,1.21,0,0,1,.45.45,1.34,1.34,0,0,1,.18.73,1.51,1.51,0,0,1-.18.77,1.28,1.28,0,0,1-.45.5,2,2,0,0,1-.67.27,3.7,3.7,0,0,1-.83.09,6,6,0,0,1-1-.09,4.42,4.42,0,0,1-1-.27L12.7,20.1a5.49,5.49,0,0,0,1.18.27,10.26,10.26,0,0,0,1.22.08,4.92,4.92,0,0,0,1.37-.19,4,4,0,0,0,1.21-.55,2.8,2.8,0,0,0,.86-.95,2.65,2.65,0,0,0,.33-1.35,2.74,2.74,0,0,0-.26-1.24,2.26,2.26,0,0,0-.69-.81,2.76,2.76,0,0,0-1-.45,5.19,5.19,0,0,0-1.2-.13l-.53,0a2.54,2.54,0,0,0-.54.09l.09-2.13h3.71V11.45Z"/><g class="cls-1"><rect x="12.7" y="11.45" width="6.17" height="9"/></g><polygon class="cls-2" points="7.29 5.93 7.29 26.93 19.29 26.93 24.29 21.93 24.29 5.93 7.29 5.93"/><polyline class="cls-3" points="19.29 26.93 19.29 21.93 24.29 21.93"/></g></svg>