<svg id="cat-pg" xmlns="http://www.w3.org/2000/svg" viewBox="0 0 32 32"><defs><style>.cls-1,.cls-2{fill:none;stroke:#000;stroke-linejoin:round;stroke-width:1.45px;}.cls-2{stroke-linecap:square;}</style></defs><title>icon_logs</title><rect class="cls-1" x="5" y="5" width="22" height="22"/><path d="M11,15.64h-.89v.49a2.87,2.87,0,0,0-1.69.65,1.78,1.78,0,0,0-.63,1.39,1.87,1.87,0,0,0,.56,1.38,3.49,3.49,0,0,0,1.76.85l.89.22a1.66,1.66,0,0,1,.8.38.78.78,0,0,1,.24.58.87.87,0,0,1-.29.65,1.26,1.26,0,0,1-.75.35h-.19a3.89,3.89,0,0,1-.7-.08,1.72,1.72,0,0,1-.6-.42,1.6,1.6,0,0,1-.37-.69l-1.6.14a2.48,2.48,0,0,0,.85,1.53,3.13,3.13,0,0,0,1.72.65v.92H11v-.95a3.17,3.17,0,0,0,1.87-.76,2,2,0,0,0,.67-1.53A1.81,1.81,0,0,0,13,20.06a4.33,4.33,0,0,0-2-.85L10.12,19a1.36,1.36,0,0,1-.59-.37.75.75,0,0,1-.2-.49.76.76,0,0,1,.22-.54,1.16,1.16,0,0,1,.57-.34,1.35,1.35,0,0,1,.39-.05,2.11,2.11,0,0,1,.5.06,1.1,1.1,0,0,1,.74.81l1.55-.17a2,2,0,0,0-.74-1.2A3,3,0,0,0,11,16.13v-.49Z"/><polyline class="cls-2" points="16.21 17.54 18.88 20.21 16.42 22.67"/></svg>