<svg xmlns="http://www.w3.org/2000/svg" viewBox="0 0 32 32"><defs><style>.cls-1{fill:#fff;}.cls-2{fill:none;stroke:#000;stroke-miterlimit:10;}</style></defs><title>icon_mep</title><g id="mep"><rect class="cls-1" width="32" height="32"/><path class="cls-2" d="M10.76,12.88H8.09a.54.54,0,0,0-.55.54v5.12a.53.53,0,0,0,.55.54h2.68l.5.32,5.46,3.53c.27.18.27-.15.27-.15V9.18c0-.33-.27-.15-.27-.15l-5.46,3.53Z"/><polygon class="cls-2" points="2 30.08 1.96 8.08 8.05 2.08 30 2.08 30.05 23.83 24.12 30.08 2 30.08"/><path class="cls-2" d="M21.89,7.36a12.14,12.14,0,0,1-.17,17.44"/><path class="cls-2" d="M19.28,10a8.4,8.4,0,0,1-.07,12"/></g></svg>