<svg id="cat-pg" xmlns="http://www.w3.org/2000/svg" viewBox="0 0 32 32"><defs><style>.cls-1,.cls-2,.cls-3{fill:none;stroke:#fff;}.cls-1{stroke-linecap:round;}.cls-1,.cls-2{stroke-linejoin:round;}.cls-3{stroke-miterlimit:10;}</style></defs><title>il_icons-0-3-2-cat_white</title><ellipse class="cls-1" cx="9.31" cy="10.17" rx="3.75" ry="4.17"/><path class="cls-1" d="M12.22,16h0a6,6,0,0,1-.71.37,5.44,5.44,0,0,1-4.38,0h0A5.29,5.29,0,0,1,6.41,16h0c-1.75.83-2.92,2.17-2.92,3.83V26H15.14V19.83C15.14,18.17,14,16.83,12.22,16Z"/><polygon class="cls-2" points="21.58 22.02 18.14 24 18.14 20.03 21.58 22.02"/><ellipse class="cls-3" cx="22" cy="8" rx="3.96" ry="4"/><path class="cls-2" d="M22,4s1.5.64,1.5,4S22,12,22,12"/><path class="cls-2" d="M26,8s-.64,1.5-4,1.5S18,8,18,8"/><line class="cls-2" x1="21.58" y1="22.02" x2="28.53" y2="9.98"/><line class="cls-2" x1="21.38" y1="14.43" x2="18.14" y2="20.03"/></svg>