<svg id="cat-pg" xmlns="http://www.w3.org/2000/svg" viewBox="0 0 32 32"><defs><style>.cls-1{fill:none;stroke:#000;stroke-linejoin:round;stroke-width:1.45px;}</style></defs><title>icon_dcl_file</title><polyline class="cls-1" points="9.23 6.5 9.23 11.5 4.23 11.5"/><polyline class="cls-1" points="21.23 16.84 21.23 27.5 4.23 27.5 4.23 11.5 9.23 6.5 11.76 6.5"/><path d="M21.2,4.5a3.27,3.27,0,0,1,3.19,2.79,3,3,0,0,1,.71-.08,2.49,2.49,0,0,1,2.67,2.64,2.74,2.74,0,0,1-2.86,2.64H17.28a2.46,2.46,0,0,1-2.46-2.91,2.22,2.22,0,0,1,2.12-1.81,1.52,1.52,0,0,1,1,.33A2.8,2.8,0,0,1,19,5.26,3.57,3.57,0,0,1,21.2,4.5m0-1.45a5,5,0,0,0-3.1,1.08,4.45,4.45,0,0,0-1.51,2.21A3.71,3.71,0,0,0,13.4,9.25a3.94,3.94,0,0,0,.8,3.25,3.84,3.84,0,0,0,3.08,1.44h7.63a4.68,4.68,0,0,0,3.22-1.33,3.77,3.77,0,0,0,1.09-2.78,3.9,3.9,0,0,0-3.83-4.06A4.58,4.58,0,0,0,21.2,3.05Z"/></svg>