<svg id="cat-pg" xmlns="http://www.w3.org/2000/svg" viewBox="0 0 32 32"><defs><style>.cls-1,.cls-2,.cls-3{fill:none;stroke:#000;stroke-width:1.45px;}.cls-1{stroke-miterlimit:10;}.cls-2{stroke-linecap:square;}.cls-2,.cls-3{stroke-linejoin:round;}</style></defs><title>icon_prst</title><polyline class="cls-1" points="25.07 15.45 22.76 14.64 21.34 12.3 18.64 13.01 18.48 15.77 16.63 17.36"/><polyline class="cls-1" points="18.48 15.77 16.63 17.36 13.88 17.43 13.15 20.12 15.46 21.63 15.92 24.04"/><polyline class="cls-1" points="15.46 21.63 15.92 24.04 14.6 26.44 16.56 28.42 19.03 27.18 21.34 27.98"/><polyline class="cls-1" points="19.03 27.18 21.34 27.98 22.77 30.33 25.47 29.62 25.62 26.86 27.48 25.26"/><polyline class="cls-1" points="25.62 26.86 27.48 25.26 30.22 25.2 30.95 22.51 28.64 21 28.18 18.59"/><polyline class="cls-1" points="28.64 21 28.18 18.59 29.5 16.18 27.54 14.2 25.07 15.45 22.76 14.64"/><circle class="cls-1" cx="22.05" cy="21.31" r="2.81"/><ellipse class="cls-2" cx="8.46" cy="5.32" rx="3.91" ry="4.35"/><path class="cls-3" d="M11.1,13.43a6.87,6.87,0,0,1-5.43-.06,6.42,6.42,0,0,1-.9-.47h0C2.53,14,1.05,15.65,1.05,17.77v6.42H9"/></svg>