<svg id="cat-pg" xmlns="http://www.w3.org/2000/svg" viewBox="0 0 32 32"><defs><style>.cls-1,.cls-2{fill:none;stroke:#fff;stroke-linejoin:round;}.cls-2{stroke-linecap:square;}</style></defs><title>il_icons-0-3-2-cat_white</title><path class="cls-1" d="M11.62,12.56v6.06a2.23,2.23,0,0,0,2.23,2.23h6.7l3.35,5.77h0L27,24.84a.83.83,0,0,0,.4-.7v-.05a1,1,0,0,0-.14-.47.88.88,0,0,0-1.19-.39l-1.14.67-3.54-6.13c-.15-.28-.51-.31-.82-.31H16.09v-3H20a.83.83,0,0,0,.84-.83.84.84,0,0,0-.84-.84H16.09v-.23a2.24,2.24,0,0,0-4.47,0"/><circle class="cls-1" cx="13.85" cy="6.1" r="2.23"/><path class="cls-2" d="M9.12,16a6,6,0,1,0,7.31,7.31"/></svg>