<svg xmlns="http://www.w3.org/2000/svg" xmlns:xlink="http://www.w3.org/1999/xlink" viewBox="0 0 32 32"><defs><style>.cls-1,.cls-2,.cls-7{fill:none;}.cls-1,.cls-7{stroke:#fff;}.cls-1{stroke-linejoin:round;}.cls-3{clip-path:url(#clip-path);}.cls-4{clip-path:url(#clip-path-2);}.cls-5{fill:#fff;}.cls-6{clip-path:url(#clip-path-3);}.cls-7{stroke-linecap:square;stroke-miterlimit:10;}</style><clipPath id="clip-path"><path class="cls-1" d="M5.5,5.9s-.5,0-.5.47V18.64a.47.47,0,0,0,.5.47h21s.5,0,.5-.47V6.37a.47.47,0,0,0-.5-.47Z"/></clipPath><clipPath id="clip-path-2"><polygon class="cls-1" points="6.3 21.1 2 26.1 30 26.1 25.7 21.1 6.3 21.1"/></clipPath><clipPath id="clip-path-3"><polygon class="cls-2" points="16 16.4 16 10.4 14.8 9.6 12.7 12.9 10.8 11.7 8 15.8 8 16.4 16 16.4"/></clipPath></defs><title>icon_copa_1</title><g id="Ebene_3" data-name="Ebene 3"><g id="Ebene_4" data-name="Ebene 4"><g class="cls-3"><rect class="cls-1" x="5" y="5.9" width="22" height="13.21"/></g><path class="cls-1" d="M5.5,5.9s-.5,0-.5.47V18.64a.47.47,0,0,0,.5.47h21s.5,0,.5-.47V6.37a.47.47,0,0,0-.5-.47Z"/><g class="cls-4"><rect class="cls-1" x="2" y="21.1" width="28" height="5"/></g><polygon class="cls-1" points="6.3 21.1 2 26.1 30 26.1 25.7 21.1 6.3 21.1"/><g id="SVGID"><path class="cls-5" d="M15,11.15V15.4H9.48l1.6-2.34,1.09.69.84.53.53-.84L15,11.15M14.8,9.6l-2.1,3.3-1.9-1.2L8,15.8v.6h8v-6l-1.2-.8Z"/></g><g class="cls-6"><path class="cls-5" d="M15,10.6v4.8H9V10.6h6m1-1H8v6.8h8V9.6Z"/></g><line class="cls-7" x1="17.95" y1="9.6" x2="23.05" y2="9.6"/><line class="cls-7" x1="17.95" y1="12.65" x2="23.05" y2="12.65"/><line class="cls-7" x1="17.95" y1="15.65" x2="23.05" y2="15.65"/></g></g></svg>