<svg id="cat-pg" xmlns="http://www.w3.org/2000/svg" viewBox="0 0 32 32"><defs><style>.cls-1{fill:none;stroke:#000;stroke-linejoin:round;stroke-width:1.45px;}</style></defs><title>icon_adm</title><path class="cls-1" d="M8,4.15c-.61,0-.88.29-.46.85L9.45,7.5a2.52,2.52,0,0,1-.94,1.9,2.53,2.53,0,0,1-2.09.38S4.86,7.72,4.54,7.28c-.61-.8-1.06,0-1.08,1.17v.21A5.92,5.92,0,0,0,4.55,12a4.66,4.66,0,0,0,5.51,1.15L21.49,23.84a2.94,2.94,0,1,0,2.4-2.57L12.49,10.63a4.54,4.54,0,0,0-.36-4.31,5.88,5.88,0,0,0-4-2.17Z"/><polyline class="cls-1" points="20.94 13.68 24.75 10.17 26.75 9.34 28.54 6.58 26.83 4.79 23.95 6.38 22.88 8.47 19.18 11.92"/><path class="cls-1" d="M10.84,18.85,5,23.89a2.17,2.17,0,0,0,0,3,3,3,0,0,0,1.7,1,2.19,2.19,0,0,0,1.51-.61l5.49-5.58"/></svg>