<svg id="cat-pg" xmlns="http://www.w3.org/2000/svg" viewBox="0 0 32 32"><defs><style>.cls-1{fill:none;stroke:#000;stroke-miterlimit:10;stroke-width:1.45px;}</style></defs><title>icon_rolf</title><path class="cls-1" d="M21.67,9.88H20.33v-2C20.33,5.92,18.4,5,16,5s-4.28.92-4.28,2.86v2H10.33c-.34,0-.68.5-.68.92s.26.95.68.95h1.75a10,10,0,0,0-.07,1.1c0,2.44,1.85,3.75,4,3.75a3.76,3.76,0,0,0,4-3.75,8,8,0,0,0-.08-1.1h1.67a1,1,0,0,0,.68-.95C22.35,10.38,22.09,9.88,21.67,9.88Z"/><path class="cls-1" d="M19.38,18A6,6,0,0,1,16,19a6.15,6.15,0,0,1-3.43-1.06,4.27,4.27,0,0,0-2.49,3.64V27H22V21.58A4.27,4.27,0,0,0,19.38,18Z"/></svg>