<svg id="cat-pg" xmlns="http://www.w3.org/2000/svg" viewBox="0 0 32 32"><defs><style>.cls-1,.cls-2{fill:none;stroke:#000;stroke-linejoin:round;stroke-width:1.45px;}.cls-1{stroke-linecap:round;}</style></defs><title>icon_ecss</title><path class="cls-1" d="M16.34,17.78a.41.41,0,0,0-.42.42V25a.41.41,0,0,0,.42.42h10.6a.41.41,0,0,0,.42-.42V18.2a.41.41,0,0,0-.42-.42Z"/><polygon class="cls-1" points="17.14 25.41 15.28 27.96 28 27.96 26.13 25.41 17.14 25.41"/><path class="cls-2" d="M4,22.87h7.85m-3.1,3.56,3.56-3.56L8.75,19.31"/><path class="cls-1" d="M15.66,4a.41.41,0,0,1,.42.43v6.78a.41.41,0,0,1-.42.42H5.06a.41.41,0,0,1-.42-.42V4.47A.42.42,0,0,1,5.06,4Z"/><polygon class="cls-1" points="14.86 11.68 16.72 14.22 4 14.22 5.87 11.68 14.86 11.68"/><path class="cls-2" d="M20.15,9.13H28M23.25,5.57,19.69,9.13l3.56,3.56"/></svg>