<svg id="cat-pg" xmlns="http://www.w3.org/2000/svg" viewBox="0 0 32 32"><defs><style>.cls-1{fill:none;stroke:#000;stroke-linejoin:round;stroke-width:1.45px;}</style></defs><title>icon_adma</title><path class="cls-1" d="M11.12,7.55l2.39-1,1.14-3.74h2.64l1.23,3.78,2.41,1m-7.42-1-2.39,1L7.57,5.74,5.7,7.61l1.84,3.46-1,2.41m1-2.41-1,2.41L2.79,14.71v2.64l3.74,1.14,1,2.39m-1-2.39,1,2.39L5.74,24.43,7.61,26.3l3.46-1.84,2.41,1m-2.41-1,2.41,1,1.23,3.78h2.64l1.14-3.74,2.39-1m-2.39,1,2.39-1,3.55,1.81,1.87-1.87-1.84-3.46,1-2.41m-1,2.41,1-2.41,3.78-1.23V14.65l-3.74-1.14-1-2.39m1,2.39-1-2.39,1.81-3.55L24.39,5.7,20.93,7.54l-2.41-1"/><circle class="cls-1" cx="16" cy="16" r="4.35"/></svg>