<svg id="cat-pg" xmlns="http://www.w3.org/2000/svg" viewBox="0 0 32 32"><defs><style>.cls-1,.cls-2{fill:none;stroke:#000;stroke-linejoin:round;stroke-width:1.45px;}.cls-1{stroke-linecap:square;}</style></defs><title>icon_lngf</title><path class="cls-1" d="M4.36,10.14V6.55a12.36,12.36,0,0,0,7.59,0c5.12-1.8,8.06,0,8.06,0v3.59M4.36,13.73v3.59a12.21,12.21,0,0,0,3.63.6m12-4.19,0-2.49v-1.1s-2.94-1.8-8.06,0a12.36,12.36,0,0,1-7.59,0v3.59a12.21,12.21,0,0,0,3.63.6"/><path class="cls-2" d="M22.43,25a13.54,13.54,0,0,0-2.84.67,10.74,10.74,0,0,1-2.38.52V15.37a10.74,10.74,0,0,0,2.38-.52,13.54,13.54,0,0,1,2.84-.67V25m-5.22-9.62A12.82,12.82,0,0,1,12,14.85V25.66a12.82,12.82,0,0,0,5.22.52Zm10.43-.52a8.63,8.63,0,0,0-5.21-.67V25a8.63,8.63,0,0,1,5.21.67Z"/></svg>