<svg id="cat-pg" xmlns="http://www.w3.org/2000/svg" viewBox="0 0 32 32"><defs><style>.cls-1,.cls-2{fill:none;stroke:#fff;stroke-linejoin:round;}.cls-1{stroke-linecap:round;}</style></defs><title>il_icons-0-3-2-cat_white</title><path class="cls-1" d="M27.9,12a.71.71,0,0,1,.73.73V24.48a.71.71,0,0,1-.73.73H9.6a.71.71,0,0,1-.73-.73V12.77A.71.71,0,0,1,9.6,12Z"/><polyline class="cls-2" points="15.23 9.54 15.23 1.71 6.08 1.71 2.27 5.51 2.27 17.7 6.51 17.7"/><polygon class="cls-1" points="26.51 25.21 29.73 29.61 7.77 29.61 10.99 25.21 26.51 25.21"/><polyline class="cls-1" points="6.08 1.71 6.08 5.51 2.27 5.51"/></svg>