<svg id="cat-pg" xmlns="http://www.w3.org/2000/svg" viewBox="0 0 32 32"><defs><style>.cls-1{fill:#fff;}</style></defs><title>il_icons-0-3-2-cat_white</title><path class="cls-1" d="M15.88,8.93c2.34,0,4.74,1.37,5.65,4.94a5.1,5.1,0,0,1,1.24-.14A4.41,4.41,0,0,1,27.5,18.4c.06,3.37-3.16,4.67-5.06,4.67H8.94a4.36,4.36,0,0,1-4.36-5.16,3.93,3.93,0,0,1,3.76-3.19,2.75,2.75,0,0,1,1.75.58,4.93,4.93,0,0,1,1.92-5,6.23,6.23,0,0,1,3.87-1.35m0-1a7.24,7.24,0,0,0-4.5,1.57A6.06,6.06,0,0,0,9,13.77a4.77,4.77,0,0,0-.66,0,4.94,4.94,0,0,0-4.73,4,5.42,5.42,0,0,0,1.1,4.41,5.27,5.27,0,0,0,4.23,2h13.5A6.71,6.71,0,0,0,27,22.18a5.19,5.19,0,0,0,1.48-3.8,5.4,5.4,0,0,0-5.73-5.65,4.87,4.87,0,0,0-.54,0,6.6,6.6,0,0,0-6.35-4.82Z"/></svg>