<svg id="cat-pg" xmlns="http://www.w3.org/2000/svg" viewBox="0 0 32 32"><defs><style>.cls-1{fill:#fff;}.cls-2{fill:none;stroke:#fff;stroke-linecap:square;stroke-linejoin:round;}</style></defs><title>il_icons-0-3-2-cat_white</title><path class="cls-1" d="M7.5,22A2.5,2.5,0,1,1,5,24.5,2.5,2.5,0,0,1,7.5,22m0-1A3.5,3.5,0,1,0,11,24.5,3.5,3.5,0,0,0,7.5,21Z"/><path class="cls-2" d="M4,7.5A20.5,20.5,0,0,1,24.5,28H28A24,24,0,0,0,4,4Z"/><path class="cls-2" d="M20.5,28A16.5,16.5,0,0,0,4,11.5V15A13,13,0,0,1,17,28Z"/></svg>