<svg xmlns="http://www.w3.org/2000/svg" viewBox="0 0 32 32"><title>icon_cert</title><g id="cert"><g id="Ebene_103" data-name="Ebene 103"><path d="M15.38,3.1a7.16,7.16,0,1,1-7.16,7.16A7.17,7.17,0,0,1,15.38,3.1m0-1a8.16,8.16,0,1,0,8.16,8.16A8.16,8.16,0,0,0,15.38,2.1Z"/><path d="M15.38,6.78a3.49,3.49,0,1,1-3.49,3.48,3.49,3.49,0,0,1,3.49-3.48m0-1a4.49,4.49,0,1,0,4.49,4.48,4.49,4.49,0,0,0-4.49-4.48Z"/><path d="M8.28,18.49l-3.13,9.4L6.87,27l2.56-7.67A10.52,10.52,0,0,1,8.28,18.49Z"/><path d="M13.08,20.89l-2.46,7.39L11.48,30l3-8.9A10.28,10.28,0,0,1,13.08,20.89Z"/><path d="M22.56,18.49l3.13,9.4L24,27l-2.56-7.67A9.64,9.64,0,0,0,22.56,18.49Z"/><path d="M17.76,20.89l2.46,7.39L19.36,30l-3-8.9A10.14,10.14,0,0,0,17.76,20.89Z"/></g></g></svg>