<svg id="cat-pg" xmlns="http://www.w3.org/2000/svg" viewBox="0 0 32 32"><defs><style>.cls-1{fill:none;stroke:#fff;stroke-linejoin:round;}</style></defs><title>il_icons-0-3-2-cat_white</title><path class="cls-1" d="M24,13.54V7.41A3.41,3.41,0,0,0,23,5h0a3.41,3.41,0,0,0-2.41-1H7.41A3.41,3.41,0,0,0,5,5H5A3.41,3.41,0,0,0,4,7.41v8.7a3,3,0,0,0,.5,1.63h0A2.89,2.89,0,0,0,6.89,19H7v5l4.17-5h3.42"/><line class="cls-1" x1="7" y1="7.5" x2="21" y2="7.5"/><line class="cls-1" x1="7" y1="10.5" x2="21" y2="10.5"/><line class="cls-1" x1="7" y1="13.5" x2="12.5" y2="13.5"/><path class="cls-1" d="M28.37,16.79h0a2.62,2.62,0,0,1,.73,1.81v4.09a2.58,2.58,0,0,1-.73,1.81h0a2.6,2.6,0,0,1-1.87.8h-.4L23,29.17V25.3H19.7a2.6,2.6,0,0,1-1.87-.8h0a2.58,2.58,0,0,1-.73-1.81V18.6a2.62,2.62,0,0,1,.73-1.81h0A2.63,2.63,0,0,1,19.7,16h6.8A2.63,2.63,0,0,1,28.37,16.79Z"/><line class="cls-1" x1="19.45" y1="19.42" x2="26.75" y2="19.42"/><line class="cls-1" x1="19.45" y1="22" x2="23.6" y2="22"/></svg>