<svg id="cat-pg" xmlns="http://www.w3.org/2000/svg" viewBox="0 0 32 32"><defs><style>.cls-1,.cls-2{fill:none;stroke:#000;stroke-linejoin:round;stroke-width:1.45px;}.cls-1{stroke-linecap:round;}</style></defs><title>icon_ltis</title><path class="cls-1" d="M16.55,17.38s-.41,0-.41.61v9.78s0,.61.41.61H26.73s.41,0,.41-.61V18s0-.61-.41-.61Z"/><path class="cls-2" d="M4,22.88h7.85m-3.1,3.56,3.56-3.56L8.75,19.32"/><path class="cls-1" d="M15.45,3s.41,0,.41.62v9.77s0,.61-.41.61H5.27s-.41,0-.41-.61V3.61s0-.62.41-.62Z"/><path class="cls-2" d="M20.15,8.49H28M23.25,4.93,19.69,8.49l3.56,3.57"/></svg>