<svg id="cat-pg" xmlns="http://www.w3.org/2000/svg" viewBox="0 0 32 32"><defs><style>.cls-1{fill:none;stroke:#fff;stroke-miterlimit:10;}</style></defs><title>il_icons-0-3-2-cat_white</title><circle class="cls-1" cx="16.94" cy="15.5" r="11.58"/><path class="cls-1" d="M19.42,16.86c-1.18-.75-2.82-1.29-3.63-.47a1.6,1.6,0,0,0,0,2.32c.5.6,1.38,2.29,1.13,3.26a6.08,6.08,0,0,0-.1,3.23c.35.63,1.26,1.1,1.79-.81s1.19-3.8,1.76-4.27,1.66-1.54.9-2.19S20.21,17.36,19.42,16.86Z"/><path class="cls-1" d="M28.52,17c-5.52.61-3.1-1.71-4.41-3s-4.2-.56-6.36-1.17c-2.67-.74.52-4.67,1-5.38A7,7,0,0,1,22.23,5.2"/><path class="cls-1" d="M11.84,5.1A11.64,11.64,0,0,1,10,9.67c-2.09,3.47-3,1.95-4.48,7.94"/></svg>