<svg id="cat-pg" xmlns="http://www.w3.org/2000/svg" viewBox="0 0 32 32"><defs><style>.cls-1,.cls-2,.cls-3{fill:none;stroke:#000;stroke-linejoin:round;stroke-width:1.45px;}.cls-1{stroke-linecap:round;}.cls-3{stroke-linecap:square;}</style></defs><title>icon_grpr</title><ellipse class="cls-1" cx="15.97" cy="8.82" rx="2.91" ry="3.23"/><path class="cls-2" d="M14.61,23.88h6.86v-6c0-1.57-1.1-2.83-2.75-3.61h0a6.11,6.11,0,0,1-.67.35,5.2,5.2,0,0,1-4.14,0h0a6.11,6.11,0,0,1-.67-.35h0c-1.65.78-2.75,2-2.75,3.61"/><ellipse class="cls-3" cx="25.37" cy="12.28" rx="1.9" ry="2.11"/><path class="cls-2" d="M25.08,22.38H29V18.45a2.72,2.72,0,0,0-1.8-2.36h0a3,3,0,0,1-.44.23,3.36,3.36,0,0,1-1.35.28,3.43,3.43,0,0,1-1.28-.25"/><ellipse class="cls-3" cx="6.57" cy="12.4" rx="1.9" ry="2.11"/><path class="cls-3" d="M3,19.7V18.45a2.72,2.72,0,0,1,1.8-2.36h0a3.55,3.55,0,0,0,.43.23,3.42,3.42,0,0,0,2.64,0"/><path class="cls-3" d="M3.32,23.7h7.85m-3.1,3.57,3.56-3.57L8.07,20.14"/></svg>