<svg xmlns="http://www.w3.org/2000/svg" xmlns:xlink="http://www.w3.org/1999/xlink" viewBox="0 0 31.68 32"><defs><style>.cls-1{clip-path:url(#clip-path);}.cls-2{clip-path:url(#clip-path-2);}.cls-3{clip-path:url(#clip-path-3);}.cls-4,.cls-5,.cls-6{fill:none;stroke:#000;}.cls-4,.cls-5{stroke-linejoin:round;}.cls-5{stroke-linecap:round;}.cls-6{stroke-miterlimit:10;}</style><clipPath id="clip-path"><rect x="9.89" y="12.4" width="7.16" height="1"/></clipPath><clipPath id="clip-path-2"><rect x="9.89" y="15.3" width="5.38" height="1"/></clipPath><clipPath id="clip-path-3"><rect x="9.89" y="18.12" width="3.63" height="1"/></clipPath></defs><title>icon_wiki</title><g id="exc"><rect x="9.89" y="12.4" width="7.16" height="1"/><g class="cls-1"><rect x="9.89" y="12.4" width="7.16" height="1"/></g><rect x="9.89" y="15.3" width="5.38" height="1"/><g class="cls-2"><rect x="9.89" y="15.3" width="5.38" height="1"/></g><rect x="9.89" y="18.12" width="3.63" height="1"/><g class="cls-3"><rect x="9.89" y="18.12" width="3.63" height="1"/></g><polyline class="cls-4" points="23.5 6.37 23.5 4.81 11.5 4.81 6.5 9.81 6.5 25.81 23.5 25.81 23.5 17.53 23.5 16.62"/><polyline class="cls-5" points="11.5 4.81 11.5 9.81 6.5 9.81"/><polygon points="18.02 21.51 14.53 23.18 14.99 19.29 18.02 21.51"/><polygon class="cls-6" points="16.2 18.63 18.43 20.24 28.14 7.89 25.91 6.28 16.2 18.63"/></g></svg>