<svg id="cat-pg" xmlns="http://www.w3.org/2000/svg" viewBox="0 0 32 32"><defs><style>.cls-1,.cls-2{fill:none;stroke:#000;stroke-width:1.45px;}.cls-1{stroke-linejoin:round;}.cls-2{stroke-miterlimit:10;}</style></defs><title>icon_rglo</title><polyline class="cls-1" points="10.02 13.5 7.02 7 4.02 13.5"/><line class="cls-1" x1="5.1" y1="11.1" x2="8.94" y2="11.1"/><line class="cls-1" x1="5.02" y1="17" x2="9.02" y2="17"/><polyline class="cls-1" points="4.52 21 9.52 21 4.52 27 9.52 27"/><polyline class="cls-1" points="18.13 5 14.52 5 14.52 29 24.52 29 24.52 13.53"/><line class="cls-2" x1="14.52" y1="9" x2="18" y2="9"/><line class="cls-2" x1="14.52" y1="13" x2="21.88" y2="13"/><ellipse class="cls-2" cx="25" cy="6" rx="3.96" ry="4"/><path class="cls-1" d="M25,2s1.21.64,1.21,4S25,10,25,10"/><path class="cls-1" d="M29,6s-.64,1-4,1-4-1-4-1"/></svg>