<svg id="cat-pg" xmlns="http://www.w3.org/2000/svg" viewBox="0 0 32 32"><defs><style>.cls-1,.cls-2{fill:none;stroke:#000;stroke-width:1.45px;}.cls-1{stroke-linejoin:round;}.cls-2{stroke-miterlimit:10;}</style></defs><title>icon_mep</title><path class="cls-1" d="M9.26,12.72H6.58a.53.53,0,0,0-.54.54v5.11a.54.54,0,0,0,.54.55H9.27l.5.31,5.45,3.54c.28.17.28-.15.28-.15V9c0-.33-.28-.15-.28-.15L9.77,12.4Z"/><polygon class="cls-1" points="2 30 1.96 8 8.04 2 30 2 30.04 23.75 24.11 30 2 30"/><path class="cls-2" d="M22.38,7.2a12.14,12.14,0,0,1-.16,17.43"/><path class="cls-2" d="M19.78,9.87a8.39,8.39,0,0,1-.08,12"/></svg>