<svg id="cat-pg" xmlns="http://www.w3.org/2000/svg" viewBox="0 0 32 32"><defs><style>.cls-1,.cls-2{fill:none;stroke:#000;stroke-linejoin:round;stroke-width:1.45px;}.cls-2{stroke-linecap:round;}</style></defs><title>icon_crgr</title><polygon class="cls-1" points="29.71 27.19 2.29 27.19 2.29 23.88 14.04 23.88 16 25.18 18.17 23.88 29.71 23.88 29.71 27.19"/><polyline class="cls-1" points="3.99 23.88 3.99 5.22 28.01 5.22 28.01 23.88"/><ellipse class="cls-2" cx="12.08" cy="14.6" rx="2.13" ry="2.37"/><path class="cls-2" d="M15.4,20.33a2.54,2.54,0,0,0-1.66-2.19h0a3,3,0,0,1-.4.21,3,3,0,0,1-2.5,0h0a3,3,0,0,1-.4-.21h0a2.52,2.52,0,0,0-1.66,2.19"/><ellipse class="cls-2" cx="19.92" cy="11.5" rx="2.13" ry="2.37"/><path class="cls-2" d="M16.6,17.22A2.54,2.54,0,0,1,18.26,15h0a3,3,0,0,0,.4.21h0a3,3,0,0,0,2.5,0,3,3,0,0,0,.4-.21h0a2.52,2.52,0,0,1,1.66,2.18v3.11"/></svg>