<svg id="cat-pg" xmlns="http://www.w3.org/2000/svg" viewBox="0 0 32 32"><defs><style>.cls-1,.cls-2{fill:none;stroke:#000;stroke-linejoin:round;stroke-width:1.45px;}.cls-2{stroke-linecap:round;}</style></defs><title>icon_crsr</title><path class="cls-1" d="M16,14.5h8.5m-2.5,3,3-3-3-3"/><polyline class="cls-1" points="19.29 20.5 28.01 20.5 28.01 4.5 6.01 4.5 6.01 6"/><ellipse class="cls-2" cx="9.82" cy="11.67" rx="3.75" ry="4.17"/><path class="cls-2" d="M12.74,17.5h0a6.85,6.85,0,0,1-.71.37,5.47,5.47,0,0,1-4.39,0h0a6.85,6.85,0,0,1-.71-.37h0C5.16,18.33,4,19.67,4,21.33V27.5H15.66V21.33C15.66,19.67,14.49,18.33,12.74,17.5Z"/></svg>