<svg id="cat-pg" xmlns="http://www.w3.org/2000/svg" viewBox="0 0 32 32"><defs><style>.cls-1{fill:none;stroke:#000;stroke-linejoin:round;stroke-width:1.45px;}</style></defs><title>icon_tos</title><rect class="cls-1" x="5" y="5" width="22" height="22"/><path d="M15.85,8a3.6,3.6,0,0,0-2.48.78,2.48,2.48,0,0,0-.89,1.92,2.16,2.16,0,0,0,.22.95,3.44,3.44,0,0,0,.63.92,2.88,2.88,0,0,0-1.17,1.15,3.21,3.21,0,0,0-.38,1.53A3,3,0,0,0,12.36,17a9.27,9.27,0,0,0,2.49,2,20,20,0,0,1,2.22,1.53,1,1,0,0,1,.31.7.88.88,0,0,1-.32.7,1.3,1.3,0,0,1-.88.29,1.56,1.56,0,0,1-1.07-.38,2,2,0,0,1-.57-1.13L12.25,21a3.31,3.31,0,0,0,1.19,2.21,4.08,4.08,0,0,0,2.67.83,3.85,3.85,0,0,0,2.67-.84,2.68,2.68,0,0,0,.93-2.07A2.59,2.59,0,0,0,19.46,20a3.32,3.32,0,0,0-.76-1,3.77,3.77,0,0,0,1.14-1.19,2.86,2.86,0,0,0,.38-1.43,2.8,2.8,0,0,0-.31-1.33,4.18,4.18,0,0,0-1.05-1.21,20.89,20.89,0,0,0-1.92-1.34,16.92,16.92,0,0,1-1.71-1.18,1.11,1.11,0,0,1-.39-.79.7.7,0,0,1,.29-.54A1.23,1.23,0,0,1,16,9.75a1.25,1.25,0,0,1,.92.33,1.37,1.37,0,0,1,.36.94l2.3-.24a3.12,3.12,0,0,0-1.1-2A3.93,3.93,0,0,0,15.85,8Zm1.58,10L15,16.35a2.07,2.07,0,0,1-1.13-1.6,1.19,1.19,0,0,1,.22-.67,1.7,1.7,0,0,1,.5-.47l2.29,1.65a5.21,5.21,0,0,1,1,.92,1,1,0,0,1,.19.57,1.15,1.15,0,0,1-.18.59,2.58,2.58,0,0,1-.55.64Z"/></svg>