<svg id="cat-pg" xmlns="http://www.w3.org/2000/svg" viewBox="0 0 32 32"><defs><style>.cls-1,.cls-2{fill:none;stroke:#fff;stroke-linejoin:round;}.cls-2{stroke-linecap:square;}.cls-3{fill:#fff;}</style></defs><title>il_icons-0-3-2-cat_white</title><polyline class="cls-1" points="9.23 6.5 9.23 11.5 4.23 11.5"/><polyline class="cls-2" points="21.23 16 21.23 27.5 4.23 27.5 4.23 11.5 9.23 6.5 13.23 6.5"/><path class="cls-3" d="M21.2,4.5a3.27,3.27,0,0,1,3.19,2.79,3,3,0,0,1,.71-.08,2.49,2.49,0,0,1,2.67,2.64,2.74,2.74,0,0,1-2.86,2.64H17.28a2.46,2.46,0,0,1-2.46-2.91,2.22,2.22,0,0,1,2.12-1.81,1.52,1.52,0,0,1,1,.33A2.8,2.8,0,0,1,19,5.26,3.57,3.57,0,0,1,21.2,4.5m0-1a4.6,4.6,0,0,0-2.82,1,4,4,0,0,0-1.44,2.29,3.24,3.24,0,0,0-3.1,2.58,3.53,3.53,0,0,0,.71,2.87,3.4,3.4,0,0,0,2.73,1.27h7.63a4.22,4.22,0,0,0,2.9-1.19,3.36,3.36,0,0,0,1-2.46A3.5,3.5,0,0,0,25.1,6.21h0A4.11,4.11,0,0,0,21.2,3.5Z"/></svg>