<svg id="cat-pg" xmlns="http://www.w3.org/2000/svg" viewBox="0 0 32 32"><defs><style>.cls-1{fill:none;stroke:#000;stroke-miterlimit:10;stroke-width:1.45px;}</style></defs><title>icon_obj</title><path d="M11.5,4.77a1.61,1.61,0,0,1,.87.22l.42.43h.6c2.4,0,3.67.37,6.06,2.5a6.73,6.73,0,0,0,4.64,1.77c.33,0,.64,0,.93,0-.62,1.84-3.79,3.18-6.65,3.43h-.15a12.2,12.2,0,0,0-3.68,1,13.44,13.44,0,0,1-1.27.53l-1,.35v9.74a4.1,4.1,0,0,1-.52,0c-.28,0-.53,0-.74,0V4.81a2.48,2.48,0,0,1,.45,0m0-1.45c-1.1,0-1.9.4-1.9,1v21.4c0,.3,1.09.5,2.19.5s2-.2,2-.5V16c2.2-.8,1.14-.8,4.74-1.5,3.4-.3,7.4-2,8-4.8.2-1,.1-1.6-.4-1.6s-1.25.12-2,.12A5.28,5.28,0,0,1,20.4,6.82C17.7,4.42,16.09,4,13.39,4a2.79,2.79,0,0,0-1.89-.65Z"/><path class="cls-1" d="M7.94,25c-1.48.32-2.54.86-2.54,1.64,0,1.37,3.29,2,6.35,2s6.35-.63,6.35-2c0-.78-1.06-1.32-2.54-1.64"/></svg>