<svg id="cat-pg" xmlns="http://www.w3.org/2000/svg" viewBox="0 0 32 32"><defs><style>.cls-1{fill:none;stroke:#000;stroke-miterlimit:10;stroke-width:1.45px;}</style></defs><title>icon_wbrs</title><circle class="cls-1" cx="16" cy="16" r="11.58"/><path class="cls-1" d="M18.48,17.36c-1.19-.75-2.82-1.29-3.64-.47a1.61,1.61,0,0,0,0,2.32c.51.6,1.38,2.29,1.13,3.26a6,6,0,0,0-.09,3.23c.34.63,1.25,1.1,1.79-.81s1.19-3.8,1.75-4.27,1.66-1.54.91-2.19S19.27,17.86,18.48,17.36Z"/><path class="cls-1" d="M27.58,17.5c-5.52.61-3.1-1.71-4.41-3S19,14,16.81,13.37c-2.67-.74.52-4.67,1-5.38A7,7,0,0,1,21.29,5.7"/><path class="cls-1" d="M10.9,5.6a11.85,11.85,0,0,1-1.8,4.57c-2.1,3.47-3,1.95-4.49,7.94"/></svg>