<svg id="cat-pg" xmlns="http://www.w3.org/2000/svg" viewBox="0 0 32 32"><defs><style>.cls-1,.cls-2,.cls-3{fill:none;stroke:#000;stroke-width:1.45px;}.cls-1{stroke-miterlimit:10;}.cls-2{stroke-linecap:round;}.cls-2,.cls-3{stroke-linejoin:round;}</style></defs><title>icon_cont</title><path class="cls-1" d="M24.71,2.94H7.84A1.63,1.63,0,0,0,6.2,4.57V28a1.09,1.09,0,0,0,1.09,1.09H24.71A1.09,1.09,0,0,0,25.8,28V7.29A1.09,1.09,0,0,0,24.71,6.2H7.84A1.63,1.63,0,0,1,6.2,4.57h0"/><ellipse class="cls-2" cx="16" cy="13.98" rx="3.56" ry="3.96"/><path class="cls-3" d="M21.54,25.9V23.53c0-1.58-1.11-2.84-2.77-3.64h0a4.86,4.86,0,0,1-.68.35,5,5,0,0,1-4.16,0h0a4.86,4.86,0,0,1-.68-.35h0c-1.66.8-2.77,2.06-2.77,3.64v2.36"/></svg>