<svg id="cat-pg" xmlns="http://www.w3.org/2000/svg" viewBox="0 0 32 32"><defs><style>.cls-1,.cls-2,.cls-3,.cls-4{fill:none;stroke:#000;stroke-width:1.45px;}.cls-1{stroke-linecap:square;}.cls-1,.cls-2,.cls-3{stroke-linejoin:round;}.cls-3{stroke-linecap:round;}.cls-4{stroke-miterlimit:10;}</style></defs><title>icon_rgrp</title><ellipse class="cls-1" cx="25.4" cy="16.44" rx="1.9" ry="2.11"/><path class="cls-2" d="M25.12,26.55H29V22.62a2.74,2.74,0,0,0-1.8-2.37h0a2.3,2.3,0,0,1-.44.23,3.21,3.21,0,0,1-1.35.29,3.25,3.25,0,0,1-1.28-.26"/><ellipse class="cls-3" cx="16" cy="12.98" rx="2.91" ry="3.23"/><path class="cls-3" d="M21.5,28V22c0-1.57-1.1-2.83-2.75-3.62h0a4.76,4.76,0,0,1-.67.35,5.09,5.09,0,0,1-4.14,0h0a4.76,4.76,0,0,1-.67-.35h0c-1.65.79-2.75,2-2.75,3.62v6Z"/><ellipse class="cls-1" cx="6.6" cy="16.57" rx="1.9" ry="2.11"/><path class="cls-2" d="M7.88,20.51a3.25,3.25,0,0,1-1.28.26,3.21,3.21,0,0,1-1.35-.29,2.3,2.3,0,0,1-.44-.23h0A2.74,2.74,0,0,0,3,22.62v3.12H6.84"/><ellipse class="cls-4" cx="25" cy="7" rx="3.96" ry="4"/><path class="cls-2" d="M25,3s1.21.64,1.21,4S25,11,25,11"/><path class="cls-2" d="M29,7s-.64,1-4,1-4-1-4-1"/></svg>