<svg id="cat-pg" xmlns="http://www.w3.org/2000/svg" viewBox="0 0 32 32"><defs><style>.cls-1{fill:none;stroke:#000;stroke-miterlimit:10;stroke-width:1.45px;}</style></defs><title>icon_ms</title><path d="M13.46,9.63l.31.31h.6a4.22,4.22,0,0,1,3.43,1.43,4.75,4.75,0,0,0,2.71,1.21,6.31,6.31,0,0,1-3.08,1.05h-.15a8.59,8.59,0,0,0-2.43.69,6.92,6.92,0,0,1-.74.31l-.65.24V9.63m-.27-1.54c-.68,0-1.18.25-1.18.62V22.07c0,.18.67.31,1.36.31s1.23-.13,1.23-.31V16a10.06,10.06,0,0,1,3-.93c2.12-.19,4.62-1.25,5-3,.13-.62.07-1-.25-1s-.78.08-1.25.08a3.28,3.28,0,0,1-2.3-.89,5.62,5.62,0,0,0-4.38-1.78,1.72,1.72,0,0,0-1.18-.4Z"/><path class="cls-1" d="M11,21.64c-.92.2-1.58.54-1.58,1,0,.86,2,1.25,4,1.25s4-.39,4-1.25c0-.48-.66-.82-1.58-1"/></svg>