<svg id="cat-pg" xmlns="http://www.w3.org/2000/svg" viewBox="0 0 32 32"><defs><style>.cls-1,.cls-2{fill:none;stroke:#000;stroke-linejoin:round;stroke-width:1.45px;}.cls-2{stroke-linecap:round;}</style></defs><title>icon_prtt</title><path d="M30.55,1.45v29.1H1.45V1.45h29.1M32,0H0V32H32V0Z"/><line class="cls-1" x1="18" y1="14" x2="28" y2="14"/><line class="cls-1" x1="18" y1="17" x2="28" y2="17"/><line class="cls-1" x1="18" y1="20" x2="28" y2="20"/><ellipse class="cls-2" cx="9.31" cy="9.78" rx="3.75" ry="4.17"/><path class="cls-2" d="M12.22,16h0a6,6,0,0,1-.71.37,5.44,5.44,0,0,1-4.38,0h0A5.29,5.29,0,0,1,6.41,16h0c-1.75.83-2.92,2.17-2.92,3.83V26H15.14V19.83C15.14,18.17,14,16.83,12.22,16Z"/></svg>