<svg id="cat-pg" xmlns="http://www.w3.org/2000/svg" viewBox="0 0 32 32"><defs><style>.cls-1,.cls-2{fill:none;stroke:#fff;}.cls-1{stroke-linejoin:round;}.cls-2{stroke-miterlimit:10;}</style></defs><title>il_icons-0-3-2-cat_white</title><path class="cls-1" d="M9.26,12.8H6.59a.54.54,0,0,0-.55.54v5.12a.53.53,0,0,0,.55.54H9.27l.5.32,5.46,3.53c.27.18.27-.15.27-.15V9.1c0-.33-.27-.15-.27-.15L9.77,12.48Z"/><polygon class="cls-1" points="2 30.08 1.96 8.08 8.05 2.08 30 2.08 30.05 23.83 24.12 30.08 2 30.08"/><path class="cls-2" d="M22.39,7.28a12.14,12.14,0,0,1-.17,17.44"/><path class="cls-2" d="M19.79,10a8.42,8.42,0,0,1-.08,12"/></svg>