<?xml version="1.0" encoding="utf-8"?>
<!-- Generator: Adobe Illustrator 27.9.0, SVG Export Plug-In . SVG Version: 6.00 Build 0)  -->
<svg version="1.1" id="Layer_1" xmlns="http://www.w3.org/2000/svg" xmlns:xlink="http://www.w3.org/1999/xlink" x="0px" y="0px"
	 viewBox="0 0 320 320" style="enable-background:new 0 0 320 320;" xml:space="preserve">
<style type="text/css">
	.st0{clip-path:url(#SVGID_00000139985462996810907880000008894182946664122284_);fill:#4C6586;}
</style>
<g>
	<defs>
		<rect id="SVGID_1_" width="320" height="320"/>
	</defs>
	<clipPath id="SVGID_00000063604926440287282640000013679189289056048286_">
		<use xlink:href="#SVGID_1_"  style="overflow:visible;"/>
	</clipPath>
	<path style="clip-path:url(#SVGID_00000063604926440287282640000013679189289056048286_);fill:#4C6586;" d="M115.9,165
		c0,7.3-3.5,13.5-8.5,17.7c-11.8-7.3-42.8-12.5-42.8-27.9c0-7.6,4.3-14.4,8.5-17.5C92.2,146.5,115.9,148.4,115.9,165 M140.5,160
		c0-43.3-69.5-34.8-68.6-59.3c0-12.8,10.9-16.1,22.7-16.1c11.6,0,23.2,1.9,33.8,5.9l2.6-25.7C118.5,62.4,106,60,93.2,60
		c-24.6,0-51.5,12.5-51.5,40.4c0,13,5.9,20.8,16.5,28.1C46.6,135.4,40,145.6,40,160.5c0,41.4,68.8,34.5,68.8,58.6
		c0,12.5-10.9,16.3-23.9,16.3c-13.2,0-27.7-4.3-39.7-9.2l-2.1,26.9c14.4,3.5,28.8,6.8,43.7,6.8c25.5,0,52.2-14.6,52.2-42.8
		c0-10.9-5.9-21-16.1-27C134.1,184.1,140.5,172.5,140.5,160 M212.6,137.3c19.2,9.2,42.8,11.1,42.8,27.7c0,7.3-3.5,13.5-8.5,17.7
		c-11.8-7.3-42.8-12.5-42.8-27.9C204.1,147.2,208.4,140.4,212.6,137.3 M211.4,100.6c0-12.8,10.9-16.1,22.7-16.1
		c11.6,0,23.2,1.9,33.8,5.9l2.6-25.7C258,62.4,245.5,60,232.7,60c-24.6,0-51.5,12.5-51.5,40.4c0,13,5.9,20.8,16.5,28.1
		c-11.6,6.9-18.2,17.1-18.2,31.9c0,41.4,68.8,34.5,68.8,58.6c0,12.5-10.9,16.3-23.9,16.3c-13.2,0-27.7-4.3-39.7-9.2l-2.1,26.9
		c14.4,3.5,28.8,6.8,43.7,6.8c25.5,0,52.2-14.6,52.2-42.8c0-10.9-5.9-21-16.1-27c11.1-6.2,17.5-17.8,17.5-30.3
		C280,116.7,210.5,125.2,211.4,100.6"/>
</g>
</svg>
