<?xml version="1.0" encoding="utf-8"?>
<!-- Generator: Adobe Illustrator 26.5.0, SVG Export Plug-In . SVG Version: 6.00 Build 0)  -->
<svg version="1.1" id="Layer_1" xmlns="http://www.w3.org/2000/svg" xmlns:xlink="http://www.w3.org/1999/xlink" x="0px" y="0px"
	 viewBox="0 0 320 320" style="enable-background:new 0 0 320 320;" xml:space="preserve">
<style type="text/css">
	.st0{clip-path:url(#SVGID_00000155831533705027893850000007235079674450383754_);fill:#4C6586;}
</style>
<g>
	<g>
		<defs>
			<rect id="SVGID_1_" y="0" width="320" height="320"/>
		</defs>
		<clipPath id="SVGID_00000142866969532360824060000002269948956745486979_">
			<use xlink:href="#SVGID_1_"  style="overflow:visible;"/>
		</clipPath>
		<path style="clip-path:url(#SVGID_00000142866969532360824060000002269948956745486979_);fill:#4C6586;" d="M134.1,166.7
			c1.7-22.4,5.8-24.2,16.8-43.6l-37.9-2c8.9,20.5,12.8,22.7,12.2,45.2c-0.1,2.8-1,8.2-2.2,10.7c-7.2,15.4-16.8,17.9-27.6,42.9
			l62.7,3.3c-8.1-25.9-17.4-29.4-22.9-45.5C134.3,174.9,133.9,169.4,134.1,166.7 M178.6,92.5c-0.6,10.4-9.2,20.9-17.6,31
			c-9.3,11.2-18.9,22.9-19.6,37.1c-0.7,14.2,7.6,26.8,15.6,38.9c7.3,11,14.7,22.3,14.2,32.7l-89.7-4.7c0.6-10.4,9.2-20.9,17.6-31.1
			c9.3-11.2,18.9-22.9,19.6-37.1s-7.6-26.8-15.6-39c-7.3-11-14.7-22.3-14.2-32.7L178.6,92.5z M204.1,83.8c0,0,0.3-5-4.7-5.3
			L69.5,71.7c0,0-5-0.3-5.3,4.7l-0.3,5c0,0-0.3,5,4.7,5.3l5.1,0.3c-0.8,15.3,8.5,29.4,16.7,41.8c7,10.6,13.6,20.6,13.1,29.9
			c-0.5,9.3-8.1,18.5-16.2,28.3c-9.5,11.5-20.1,24.5-21,39.8l-5.1-0.3c0,0-5-0.3-5.3,4.7l-0.3,5c0,0-0.3,5,4.7,5.3l129.8,6.8
			c0,0,5,0.3,5.3-4.7l0.3-5c0,0,0.3-5-4.7-5.3l-5-0.3c0.8-15.3-8.5-29.4-16.7-41.8c-7-10.6-13.6-20.6-13.1-29.9
			c0.5-9.3,8.1-18.5,16.2-28.3c9.5-11.5,20.1-24.5,21-39.8l5,0.3c0,0,5,0.3,5.3-4.7L204.1,83.8z M259.9,108.7l-12.9,7.6
			c4.9,8.4,15.8,33.6,7.4,49.3c-4.2,7.9-13.1,13.1-26.5,15.5l-1.6-25.5l-34.1,35.8l38.2,31.4l-1.6-26.6c19.1-3.1,32.1-11,38.8-23.5
			C281.6,146.2,260.8,110.2,259.9,108.7"/>
	</g>
</g>
</svg>
