<?xml version="1.0" encoding="utf-8"?>
<!-- Generator: Adobe Illustrator 26.4.1, SVG Export Plug-In . SVG Version: 6.00 Build 0)  -->
<svg version="1.1" id="Layer_1" xmlns="http://www.w3.org/2000/svg" xmlns:xlink="http://www.w3.org/1999/xlink" x="0px" y="0px"
	 viewBox="0 0 320 320" style="enable-background:new 0 0 320 320;" xml:space="preserve">
<style type="text/css">
	.st0{clip-path:url(#SVGID_00000067939753300702287110000000102471907732834957_);}
	.st1{fill:#4C6586;}
</style>
<g>
	<defs>
		<rect id="SVGID_1_" width="320" height="320"/>
	</defs>
	<clipPath id="SVGID_00000177457721615776456810000006372867839095683749_">
		<use xlink:href="#SVGID_1_"  style="overflow:visible;"/>
	</clipPath>
	<g style="clip-path:url(#SVGID_00000177457721615776456810000006372867839095683749_);">
		<path class="st1" d="M131.8,180.6L116,215h88l-15.8-34.4c-0.1-0.2-0.1-0.4-0.2-0.6h-56C131.9,180.2,131.9,180.4,131.8,180.6
			 M70,165h180V55H70V165z M265,170c0,5.5-4.5,10-10,10h-50.6l39.9,86.9c1.7,3.8,0.1,8.2-3.7,9.9c-1,0.5-2,0.7-3.1,0.7
			c-2.9,0-5.6-1.7-6.8-4.4L213.2,235H106.8l-17.5,38.1c-1.2,2.7-3.9,4.4-6.8,4.4c-1.1,0-2.1-0.2-3.1-0.7c-3.8-1.7-5.4-6.2-3.7-9.9
			l39.9-86.9H65c-5.5,0-10-4.5-10-10V50c0-5.5,4.5-10,10-10h190c5.5,0,10,4.5,10,10V170z M320,0H0v320h320V0z"/>
	</g>
</g>
</svg>
