<?xml version="1.0" encoding="utf-8"?>
<!-- Generator: Adobe Illustrator 27.9.0, SVG Export Plug-In . SVG Version: 6.00 Build 0)  -->
<svg version="1.1" id="Layer_1" xmlns="http://www.w3.org/2000/svg" xmlns:xlink="http://www.w3.org/1999/xlink" x="0px" y="0px"
	 viewBox="0 0 320 320" style="enable-background:new 0 0 320 320;" xml:space="preserve">
<style type="text/css">
	.st0{fill:none;}
	.st1{clip-path:url(#SVGID_00000086694038505725689810000005652322659236622493_);fill:#4C6586;}
</style>
<rect x="0" class="st0" width="320" height="320"/>
<g>
	<defs>
		<rect id="SVGID_1_" x="70" y="45" width="180" height="230"/>
	</defs>
	<clipPath id="SVGID_00000065789705425337505200000003314397382377253543_">
		<use xlink:href="#SVGID_1_"  style="overflow:visible;"/>
	</clipPath>
	<path style="clip-path:url(#SVGID_00000065789705425337505200000003314397382377253543_);fill:#4C6586;" d="M213.6,154l-86,86h92.2
		v-86H213.6z M192.4,154H99.8v86h6.6L192.4,154z M235,260H85V115h55V60h95V260z M250,270V50c0-2.8-2.2-5-5-5H140h-10.2H125
		c-2.8,0-6.6,1.6-8.5,3.5L73.5,91.5c-2,1.9-3.5,5.8-3.5,8.5v7.7v7.3v155c0,2.8,2.2,5,5,5h170C247.8,275,250,272.8,250,270"/>
</g>
</svg>
