<?xml version="1.0" encoding="utf-8"?>
<!-- Generator: Adobe Illustrator 26.5.0, SVG Export Plug-In . SVG Version: 6.00 Build 0)  -->
<svg version="1.1" id="Layer_1" xmlns="http://www.w3.org/2000/svg" xmlns:xlink="http://www.w3.org/1999/xlink" x="0px" y="0px"
	 viewBox="0 0 320 320" style="enable-background:new 0 0 320 320;" xml:space="preserve">
<style type="text/css">
	.st0{fill:none;}
	.st1{clip-path:url(#SVGID_00000092448744767655186530000003880723536956003515_);fill:#4C6586;}
</style>
<rect class="st0" width="320" height="320"/>
<g>
	<g>
		<defs>
			<rect id="SVGID_1_" x="40" y="40" width="240" height="240"/>
		</defs>
		<clipPath id="SVGID_00000099654755422053904170000007955833116890501257_">
			<use xlink:href="#SVGID_1_"  style="overflow:visible;"/>
		</clipPath>
		<path style="clip-path:url(#SVGID_00000099654755422053904170000007955833116890501257_);fill:#4C6586;" d="M220,250
			c0,16.6,13.4,30,30,30s30-13.4,30-30s-13.4-30-30-30S220,233.4,220,250 M40,250c0,16.6,13.4,30,30,30s30-13.4,30-30
			s-13.4-30-30-30S40,233.4,40,250 M100,70c0-16.6-13.4-30-30-30S40,53.4,40,70s13.4,30,30,30S100,86.6,100,70 M215,160
			c0,30.3-24.7,55-55,55s-55-24.7-55-55s24.7-55,55-55S215,129.7,215,160 M230,160c0-38.6-31.4-70-70-70s-70,31.4-70,70
			s31.4,70,70,70S230,198.6,230,160 M280,70c0-16.6-13.4-30-30-30s-30,13.4-30,30s13.4,30,30,30S280,86.6,280,70"/>
	</g>
</g>
</svg>
