<?xml version="1.0" encoding="utf-8"?>
<!-- Generator: Adobe Illustrator 26.5.0, SVG Export Plug-In . SVG Version: 6.00 Build 0)  -->
<svg version="1.1" id="Layer_1" xmlns="http://www.w3.org/2000/svg" xmlns:xlink="http://www.w3.org/1999/xlink" x="0px" y="0px"
	 viewBox="0 0 320 320" style="enable-background:new 0 0 320 320;" xml:space="preserve">
<style type="text/css">
	.st0{clip-path:url(#SVGID_00000033328470234886331820000000617832175274736777_);fill:#4C6586;}
	.st1{fill:#4C6586;}
	.st2{clip-path:url(#SVGID_00000021837667314932004390000012604627525069881769_);fill:#4C6586;}
	.st3{fill:none;}
</style>
<g>
	<g>
		<defs>
			<rect id="SVGID_1_" x="60" y="20" width="222.5" height="285"/>
		</defs>
		<clipPath id="SVGID_00000062876528931526048670000008043531368765230487_">
			<use xlink:href="#SVGID_1_"  style="overflow:visible;"/>
		</clipPath>
		<path style="clip-path:url(#SVGID_00000062876528931526048670000008043531368765230487_);fill:#4C6586;" d="M225,235h-40v15h50
			c2.8,0,5-2.2,5-5v-62.9c-2.5,0.3-5,0.4-7.5,0.4s-5-0.2-7.5-0.4V235z M240,52.9V25c0-2.8-2.2-5-5-5H130h-10.2H115
			c-2.8,0-6.6,1.6-8.5,3.5l-43,43c-2,2-3.5,5.8-3.5,8.5v7.7V90v155c0,2.8,2.2,5,5,5h50v-15H75V90h55V35h95v17.9
			c2.5-0.3,5-0.4,7.5-0.4S237.5,52.7,240,52.9"/>
	</g>
</g>
<polygon class="st1" points="130,205 130,265 100,265 150,305 200,265 170,265 170,205 "/>
<g>
	<g>
		<defs>
			<rect id="SVGID_00000165951563118991561640000017194646936476311447_" x="60" y="20" width="222.5" height="285"/>
		</defs>
		<clipPath id="SVGID_00000109030646548335787780000003940024087366219438_">
			<use xlink:href="#SVGID_00000165951563118991561640000017194646936476311447_"  style="overflow:visible;"/>
		</clipPath>
		<path style="clip-path:url(#SVGID_00000109030646548335787780000003940024087366219438_);fill:#4C6586;" d="M268.6,113.2
			c0,10.7-21.4,32.1-21.4,21.4c0-21.4-21.4-21.4-21.4-32.1s10.7,0,21.4-10.7C254.8,84.3,268.6,102.5,268.6,113.2 M218,116.9
			c-0.9,11.2-0.4,13-3.9,19c-6.1,10.6-6.6,8.9-8.4,2.2c-2.2-8.4-11.3-19.8-6.7-25.1C203.6,107.8,218.8,107.1,218,116.9 M282.5,117.5
			c0-27.6-22.4-50-50-50s-50,22.4-50,50s22.4,50,50,50S282.5,145.1,282.5,117.5"/>
	</g>
</g>
<rect class="st3" width="320" height="320"/>
</svg>
