<?xml version="1.0" encoding="utf-8"?>
<!-- Generator: Adobe Illustrator 26.5.0, SVG Export Plug-In . SVG Version: 6.00 Build 0)  -->
<svg version="1.1" id="Layer_1" xmlns="http://www.w3.org/2000/svg" xmlns:xlink="http://www.w3.org/1999/xlink" x="0px" y="0px"
	 viewBox="0 0 320 320" style="enable-background:new 0 0 320 320;" xml:space="preserve">
<style type="text/css">
	.st0{clip-path:url(#SVGID_00000112614629210005558960000014935716223562204575_);fill:#4C6586;}
	.st1{fill:none;}
</style>
<g>
	<g>
		<defs>
			<rect id="SVGID_1_" x="19" y="28" width="282.1" height="264"/>
		</defs>
		<clipPath id="SVGID_00000052074183535822911270000002367647679956454811_">
			<use xlink:href="#SVGID_1_"  style="overflow:visible;"/>
		</clipPath>
		<path style="clip-path:url(#SVGID_00000052074183535822911270000002367647679956454811_);fill:#4C6586;" d="M134.3,55.7
			L134.3,55.7L134.3,55.7z M122.1,90.7L122.1,90.7L122.1,90.7z M110.3,233.3c5.5,0,11.2,2.7,16.5,8.1c7.5,7.5,27,28.9,27.8,29.8
			c0.2,0.2,0.3,0.4,0.5,0.6c4.4,5.9,6.8,5.4,8.3,5.1c4-0.8,9.5-4.8,16-9.4l0.4-0.3c13-9.3,17.7-23.7,16.5-28.1
			c-1.5-1.2-6.8-2.4-10.3-3.3c-7.9-1.9-16.9-4-23.1-10.2c-2.6-2.6-5.8-7.4-5.8-15.4c0-13.1,8.5-29.8,16.4-37.7
			c8.4-8.4,22.3-18.5,45.3-9.1c15.2,6.3,17.2,19.2,18.8,29.6c0.8,5.5,1.6,10.7,4,15.1c0.3,0.5,0.5,0.8,0.6,0.9
			c2.3-0.1,8.6-5.1,13.3-11.4c0.2-0.3,0.5-0.6,0.7-0.9c0.2-0.2,21.6-21.2,29.3-30.1c-2.7-4.8-16.3-14.5-21.6-18.3
			c-2.8-2-5.1-3.6-7-5.1c-13.1-10.2-22.6-25.8-14.3-37.8c6.5-9.4,14-11.7,20-13.6c4.7-1.5,8.4-2.6,12.6-7c1-1.1,1.1-3,1-4
			c-0.3-4.6-3.9-12.1-13-19.4c-11.5-9.2-23.8-9.4-26.7-6.4c-0.8,1.4-1.8,6.6-2.4,10c-2.1,11.1-4.5,23.6-14.4,27.6
			c-5.8,2.3-12.5,0.9-19.8-4.4c-0.6-0.4-1.1-0.9-1.5-1.4c0,0-14.3-18.1-22.3-28.1l-1.5-1.9c-6-7.7-10-12.5-15.5-13.6l-19.9,18
			c-0.2,0.1-0.3,0.3-0.5,0.4c-5,3.8-17.3,16-16.9,27.5c1.8,0.8,5.4,1.8,8,2.5c7.6,2,17,4.6,22.7,11c4.9,5.6,7.3,13.1,6.6,21.2
			c-0.9,11.3-7.4,22.3-18.1,31c-20.3,16.5-45,13.1-53.8,3.5c-4.1-4.5-5.7-11.3-7.4-18.5c-1.5-6.3-3.3-14.1-6.6-16.7
			c-1.7-1.4-5.9-0.8-15.9,9.2l-0.7,0.7c-3.6,3.6-17.3,20.2-22.6,29.8c1.7,3.9,12.7,12.3,24,18.2c0.3,0.1,0.5,0.3,0.8,0.5
			c5.2,3.6,22.3,16.4,24.2,27.9c0.6,3.6-0.2,7-2.3,9.8c-4.6,6.1-11.7,8.8-18,11.2c-4.9,1.8-9.4,3.6-12.4,6.5
			c-4.6,4.6-1.6,21.5,4,29.8c3.7,5.5,21.9,7.5,29.1,3.1c7.4-4.5,8-10.3,8.7-17c0.5-4.9,1-9.9,4.8-13.7
			C101.1,235.3,105.6,233.3,110.3,233.3 M162.1,292c-6.9,0-13.2-3.7-18.8-10.9c-2.3-2.5-20.3-22.3-27.1-29.1c-5-5-6.8-3.8-8.2-2.4
			c-0.3,0.9-0.6,3.2-0.7,4.9c-0.8,7.4-2,19.9-15.8,28.3c-13.2,8.1-40.5,5.8-49.4-7.5c-7.3-10.9-14.3-36.6-2.2-48.7
			c5.2-5.2,11.8-7.8,17.7-10c4.3-1.6,8.3-3.2,10.6-5.4c-1.5-3.5-9.4-11.3-17.4-17c-1.9-1-9.3-5.1-16.3-10.3c-5-3.7-20.3-15-14-27.1
			c5.7-10.9,20.9-29.4,25.8-34.3l0.7-0.7c5.3-5.4,21.4-21.7,35.8-10.5c7.5,5.8,9.9,16.1,12,25.1c1,4.3,2.4,10.2,3.8,11.8
			c3.3,3.7,19.1,6.4,33.2-5c7.5-6.1,12.1-13.6,12.6-20.6c0.3-4-0.7-7.5-2.9-10c-2.8-3.1-9.8-5-15.4-6.5c-8.6-2.3-17.6-4.7-18.8-13.4
			c-3.1-22.1,19.3-40.6,22.2-42.9l22.1-20c1.4-1.2,3.2-1.9,5-1.9c14.6,0,22.7,10.4,29.9,19.6l1.4,1.8c6.9,8.8,18.6,23.5,21.6,27.2
			c3.4,2.2,4.8,2.1,4.8,2.1c2.3-1.3,4.3-11.9,5.2-16.5c1.4-7.3,2.5-13.1,5.7-16.8c9.4-11,30.8-9.1,47.5,4.3
			c11.1,8.9,17.9,19.9,18.6,30.1c0.4,6.1-1.4,11.5-5.1,15.4c-6.8,7.2-13.6,9.2-19,10.9c-5.1,1.6-8.5,2.6-12.1,7.8
			c-1.8,2.6,2.7,10.8,11.2,17.4c1.6,1.2,3.9,2.8,6.5,4.7c15.2,10.7,26.9,19.7,28.2,29.3c0.5,3.5-0.5,6.9-2.7,9.5
			c-6.7,8.2-27.7,28.8-30.9,32.1c-3.6,4.7-14.7,17.6-26.2,16.8c-3-0.2-8.7-1.6-12.6-8.6c-3.7-6.7-4.8-13.8-5.8-20.1
			c-1.5-10.1-2.6-15.1-9.6-18c-13.7-5.6-21.2-2-29,5.8c-4.9,4.9-12,17.9-12,27.1c0,1.6,0.2,3.7,1.4,4.8c3.2,3.2,10,4.8,16,6.2
			c8.7,2.1,17.8,4.3,20.8,12.3c4.8,12.7-5.4,34.2-21.8,45.9l-0.4,0.3c-7.8,5.6-14.5,10.4-21.5,11.9C165.1,291.8,163.6,292,162.1,292
			"/>
	</g>
</g>
<rect class="st1" width="320" height="320"/>
</svg>
