<?xml version="1.0" encoding="utf-8"?>
<!-- Generator: Adobe Illustrator 28.0.0, SVG Export Plug-In . SVG Version: 6.00 Build 0)  -->
<svg version="1.1" id="Layer_1" xmlns="http://www.w3.org/2000/svg" xmlns:xlink="http://www.w3.org/1999/xlink" x="0px" y="0px"
	 viewBox="0 0 320 320" style="enable-background:new 0 0 320 320;" xml:space="preserve">
<style type="text/css">
	.st0{clip-path:url(#SVGID_00000106137704657897319300000010206317105005353353_);fill:#4C6586;}
	.st1{fill:none;}
</style>
<g>
	<defs>
		<rect id="SVGID_1_" x="74.4" y="55.8" width="171.2" height="208.4"/>
	</defs>
	<clipPath id="SVGID_00000140721262163270009200000007322501090823585208_">
		<use xlink:href="#SVGID_1_"  style="overflow:visible;"/>
	</clipPath>
	<path style="clip-path:url(#SVGID_00000140721262163270009200000007322501090823585208_);fill:#4C6586;" d="M215.1,125.9
		c0-4.2,0.1-8.4,0.2-12.7C201,108.3,178,100,160,90.7c-15,85.3-0.6,139.3,0,139.5c0.4-0.2,0.7-0.3,1.1-0.5l0.7-0.3
		c6.8-3.1,14.5-6.6,26-11.2c24.2-9.8,26.4-23.9,27.2-91.9L215.1,125.9z M230.4,102.6c-0.2,8.2-0.2,15.9-0.3,23.5l0,0.3
		c-0.7,64.6-1.1,91.3-36.6,105.7c-11.2,4.5-18.7,7.9-25.3,11c-2.4,1.1-4.8,2.2-7.2,3.3l-0.9,0.4l0,0l-0.9-0.4
		c-2.4-1.1-4.8-2.1-7.2-3.3c-6.6-3-14.1-6.5-25.3-10.9C91,217.7,90.7,191,89.9,126.3c-0.1-7.6-0.2-15.4-0.3-23.7
		c0.5-0.2,1.1-0.4,1.7-0.6c18.6-6.4,48.9-16.8,68.7-28.5c19.8,11.7,50.1,22.1,68.7,28.5C229.3,102.2,229.8,102.4,230.4,102.6
		 M245.6,92l-5.1-1.8c-1.9-0.7-4.3-1.5-6.9-2.4c-19.3-6.6-51.5-17.7-69.5-29.4l-4.1-2.7l-4.1,2.7c-18,11.7-50.2,22.8-69.5,29.4
		c-2.6,0.9-4.9,1.7-6.9,2.4L74.4,92l0.1,5.4c0.2,10.3,0.3,19.8,0.4,29.1c0.4,33.8,0.7,58.2,6.2,77c6,20.6,18.3,33.7,39.9,42.4
		c10.8,4.3,18.2,7.7,24.6,10.6c2.5,1.1,4.9,2.2,7.4,3.3l7,4.2l6.6-4l0.4-0.2c2.5-1.1,4.9-2.2,7.4-3.3c6.4-3,13.8-6.3,24.7-10.7
		c21.5-8.7,33.8-21.8,39.9-42.4c5.5-18.8,5.8-43.2,6.2-77l0-0.3c0.1-9.2,0.2-18.6,0.4-28.8L245.6,92z"/>
</g>
<rect class="st1" width="320" height="320"/>
</svg>
