<?xml version="1.0" encoding="utf-8"?>
<!-- Generator: Adobe Illustrator 26.4.1, SVG Export Plug-In . SVG Version: 6.00 Build 0)  -->
<svg version="1.1" id="Layer_1" xmlns="http://www.w3.org/2000/svg" xmlns:xlink="http://www.w3.org/1999/xlink" x="0px" y="0px"
	 viewBox="0 0 320 320" style="enable-background:new 0 0 320 320;" xml:space="preserve">
<style type="text/css">
	.st0{clip-path:url(#SVGID_00000042007642222659587000000008645783420558720926_);fill:#4C6586;}
	.st1{clip-path:url(#SVGID_00000012471516644603994950000008710033440220441501_);fill:#4C6586;}
	.st2{clip-path:url(#SVGID_00000170263048703484530680000002346999652460589720_);fill:#4C6586;}
</style>
<g>
	<g>
		<defs>
			<rect id="SVGID_1_" width="320" height="320"/>
		</defs>
		<clipPath id="SVGID_00000071523088720883502510000016008130148771264140_">
			<use xlink:href="#SVGID_1_"  style="overflow:visible;"/>
		</clipPath>
		<path style="clip-path:url(#SVGID_00000071523088720883502510000016008130148771264140_);fill:#4C6586;" d="M200.1,232.8l-12-20.8
			c-2.4,28.7-26.3,51.2-55.6,51.2c-30.8,0-55.8-25-55.8-55.8c0-14.5,5.9-27.4,15-37.2V148c-19,13-31.7,34.6-31.7,59.4
			c0,40.1,32.5,72.6,72.6,72.6C163.6,280,189.8,260.3,200.1,232.8"/>
	</g>
	<g>
		<defs>
			<rect id="SVGID_00000005945199822658536790000013421845478699333016_" width="320" height="320"/>
		</defs>
		<clipPath id="SVGID_00000131348709128820655560000012894287802076215728_">
			<use xlink:href="#SVGID_00000005945199822658536790000013421845478699333016_"  style="overflow:visible;"/>
		</clipPath>
		<path style="clip-path:url(#SVGID_00000131348709128820655560000012894287802076215728_);fill:#4C6586;" d="M124.7,84.7
			c12.3,0,22.3-10,22.3-22.3s-10-22.3-22.3-22.3s-22.3,10-22.3,22.3C102.4,74.7,112.4,84.7,124.7,84.7"/>
	</g>
	<g>
		<defs>
			<rect id="SVGID_00000150808516601542121100000013956719555090024891_" width="320" height="320"/>
		</defs>
		<clipPath id="SVGID_00000098929077276229844450000004954317177725192863_">
			<use xlink:href="#SVGID_00000150808516601542121100000013956719555090024891_"  style="overflow:visible;"/>
		</clipPath>
		<path style="clip-path:url(#SVGID_00000098929077276229844450000004954317177725192863_);fill:#4C6586;" d="M258.6,222.1
			c-2.6-4.4-7.9-6.1-11.9-3.8l-11.5,6.6l-35.4-61.3c-1.5-2.8-5.1-3-8.2-3H147v-11.7h29c4.6,0,8.4-3.8,8.4-8.4c0-4.6-3.7-8.4-8.4-8.4
			h-29v-17.7c0-12.3-10-22.3-22.3-22.3s-22.3,10-22.3,22.3v57.7c0,12.3,10,22.3,22.3,22.3h67l33.5,57.7l0,0l30.8-17.8
			C260,232,261.2,226.5,258.6,222.1"/>
	</g>
</g>
</svg>
