<?xml version="1.0" encoding="utf-8"?>
<!-- Generator: Adobe Illustrator 26.5.0, SVG Export Plug-In . SVG Version: 6.00 Build 0)  -->
<svg version="1.1" id="Layer_1" xmlns="http://www.w3.org/2000/svg" xmlns:xlink="http://www.w3.org/1999/xlink" x="0px" y="0px"
	 viewBox="0 0 320 320" style="enable-background:new 0 0 320 320;" xml:space="preserve">
<style type="text/css">
	.st0{fill:none;}
	.st1{fill:#4C6586;}
</style>
<rect x="25" y="55" class="st0" width="270" height="215"/>
<rect x="25" y="55" class="st0" width="270" height="215"/>
<rect class="st0" width="320" height="320"/>
<g>
	<polygon class="st1" points="144.7,230.7 144.7,230.7 145.3,230.7 214.9,137.5 191.6,120 140.6,187.7 110.1,160.2 90.5,181.9 	"/>
	<path class="st1" d="M285,55H65c-5.5,0-10,4.5-10,10v25H35c-5.5,0-10,4.5-10,10v160c0,5.5,4.5,10,10,10h220c5.5,0,10-4.5,10-10v-25
		h20c5.5,0,10-4.5,10-10V65C295,59.5,290.5,55,285,55z M250,255H40V105h210V255z M280,220h-15V100c0-5.5-4.5-10-10-10H70V70h210V220
		z"/>
</g>
</svg>
