<?xml version="1.0" encoding="utf-8"?>
<!-- Generator: Adobe Illustrator 28.0.0, SVG Export Plug-In . SVG Version: 6.00 Build 0)  -->
<svg version="1.1" id="Layer_1" xmlns="http://www.w3.org/2000/svg" xmlns:xlink="http://www.w3.org/1999/xlink" x="0px" y="0px"
	 viewBox="0 0 320 320" style="enable-background:new 0 0 320 320;" xml:space="preserve">
<style type="text/css">
	.st0{clip-path:url(#SVGID_00000142887564824022124860000016645079822271020416_);fill:#4C6586;}
</style>
<g>
	<defs>
		<rect id="SVGID_1_" width="320" height="320"/>
	</defs>
	<clipPath id="SVGID_00000155850810202672099460000012290054340642199169_">
		<use xlink:href="#SVGID_1_"  style="overflow:visible;"/>
	</clipPath>
	<path style="clip-path:url(#SVGID_00000155850810202672099460000012290054340642199169_);fill:#4C6586;" d="M194,182.5h-50v15h50
		V182.5z M104.1,137.5h90v-15h-90V137.5z M124.1,167.5h70v-15h-70V167.5z M211.2,128.8c2,14.1,5.2,26.7,10.2,39.5
		c3.1,8.1,5.1,16.6,6.3,26.8l0.1,0.5c0.6,4.8,0.8,9.8,0.8,14.8c0,14.5-2.4,26.8-4.3,34.6H105c2.8-13.7,4.9-32.5,2.4-53.5
		c-1.5-12.8-4.1-23.6-8.1-33.9c-4.1-10.8-6.8-21.3-8.5-33.1c-3.3-23.4,0.6-40.2,4-49.5h118.6C210.2,87.8,207.9,106,211.2,128.8
		 M249,75c0-8.3-6.7-15-15-15c0,0,0,0,0,0v0H84.9l-2.4,5.6c-4.3,9.8-10.8,30.8-6.5,61c1.8,12.9,4.8,24.4,9.3,36.3
		c3.5,9.2,5.8,18.8,7.2,30.4c1.7,14.1,1.1,27.1-0.4,38c-1.9-0.9-4-1.3-6.2-1.3c-8.3,0-15,6.7-15,15s6.7,15,15,15h149.6l1.9-6.8
		c2.2-7.8,6-23.7,6-42.8c0-5.6-0.3-11.1-0.9-16.6l-0.1-0.5c-1.4-11.5-3.7-21.1-7.2-30.4c-4.5-11.8-7.5-23.3-9.3-36.3
		c-2.2-15.5-1.6-28.6,0.1-38.9c2.3,1.4,5,2.3,7.9,2.3C242.3,90,249,83.3,249,75"/>
</g>
</svg>
