<?xml version="1.0" encoding="utf-8"?>
<!-- Generator: Adobe Illustrator 26.5.0, SVG Export Plug-In . SVG Version: 6.00 Build 0)  -->
<svg version="1.1" id="Layer_1" xmlns="http://www.w3.org/2000/svg" xmlns:xlink="http://www.w3.org/1999/xlink" x="0px" y="0px"
	 viewBox="0 0 320 320" style="enable-background:new 0 0 320 320;" xml:space="preserve">
<style type="text/css">
	.st0{clip-path:url(#SVGID_00000158728974379342096580000010524165040216501639_);fill:#4C6586;}
</style>
<g>
	<g>
		<defs>
			<rect id="SVGID_1_" y="0" width="320" height="320"/>
		</defs>
		<clipPath id="SVGID_00000008841882508919726470000007169428640579872133_">
			<use xlink:href="#SVGID_1_"  style="overflow:visible;"/>
		</clipPath>
		<path style="clip-path:url(#SVGID_00000008841882508919726470000007169428640579872133_);fill:#4C6586;" d="M84.9,256.5
			c0,4.7,33.6,8.5,75,8.5s75-3.8,75-8.5s-33.6-8.5-75-8.5S84.9,251.8,84.9,256.5 M222.4,208.4l-1,14.9l-0.9-0.1
			c-40.9-2.9-81.8-5.7-122.7-8.6l1-14.9L222.4,208.4z M207.2,192.3l-91.4-6.4c19.6-9.5,44-23.4,39.3-45.3
			c-1.4-7.2-4.4-14.2-7.3-20.9c-1.7-4-3.3-7.7-4.6-11.4c-0.1-0.2-0.1-0.3-0.2-0.5c-1.6-3.8-2.5-7.9-2.4-12.3c0-0.6,0.2-3.1,0.3-3.7
			c2-15.2,14.7-26.3,29.3-25.7c14.5,1.4,25.6,14.2,25.4,29.5c0,0.6-0.2,3.1-0.3,3.7c-0.6,4.4-2,8.3-4.1,11.9
			c-0.1,0.2-0.2,0.3-0.3,0.5c-1.8,3.5-3.9,7-6.2,10.7c-3.8,6.3-7.8,12.8-10.2,19.7C166.9,163,189.1,180.2,207.2,192.3 M221,183.5
			c-13.8-9.1-36.8-24.3-32.4-36.4V147c1.9-5.4,5.3-11,8.9-16.9c2.2-3.7,4.5-7.4,6.5-11.4c3.2-5.3,5.2-11.2,6.1-17.5
			c0.1-0.7,0.4-4.3,0.4-5.4c0.3-23.3-16.9-42.8-39.4-44.8c-22.5-1.2-42.3,15.7-45.2,38.8l0,0c-0.1,1-0.4,4.7-0.4,5.4
			c-0.1,6.4,1.1,12.5,3.6,18.2c1.5,4.1,3.2,8.2,4.9,12.2c2.7,6.4,5.3,12.4,6.4,18v0.1c2.7,12.6-22.2,24.4-37.1,31.5
			c-12.4,5.9-18.6,8.9-19.1,15.4c-0.1,0.8-2,30.5-2,30.5c-0.1,2,0.5,3.9,1.8,5.4s3.2,2.4,5.1,2.6c43.4,3,86.8,6.1,130.2,9.1l8.4,0.6
			c0.2,0,0.4,0,0.5,0c3.9,0,7.2-3,7.5-7c0,0,1.9-29.9,2-30.5C238.2,194.9,232.5,191.1,221,183.5"/>
	</g>
</g>
</svg>
