<?xml version="1.0" encoding="utf-8"?>
<!-- Generator: Adobe Illustrator 26.4.1, SVG Export Plug-In . SVG Version: 6.00 Build 0)  -->
<svg version="1.1" id="Layer_1" xmlns="http://www.w3.org/2000/svg" xmlns:xlink="http://www.w3.org/1999/xlink" x="0px" y="0px"
	 viewBox="0 0 320 320" style="enable-background:new 0 0 320 320;" xml:space="preserve">
<style type="text/css">
	.st0{clip-path:url(#SVGID_00000050639758926153710020000000879768514340640182_);fill:#52658B;}
	.st1{clip-path:url(#SVGID_00000055705535326564178730000004406187121809606051_);fill:#52658B;}
	.st2{fill:none;}
</style>
<g>
	<g>
		<defs>
			<rect id="SVGID_1_" x="40" y="40" width="240" height="240"/>
		</defs>
		<clipPath id="SVGID_00000106137699016961534430000001807228366679243904_">
			<use xlink:href="#SVGID_1_"  style="overflow:visible;"/>
		</clipPath>
		<path style="clip-path:url(#SVGID_00000106137699016961534430000001807228366679243904_);fill:#52658B;" d="M262.7,234.8
			c7-8.5,11.3-18.5,11.3-29.3c0-30.9-33.4-55.9-74.5-55.9s-74.5,25-74.5,55.9s33.4,55.9,74.5,55.9c15.1,0,29.1-3.4,40.9-9.2L280,280
			L262.7,234.8z"/>
	</g>
	<g>
		<defs>
			<rect id="SVGID_00000150802157832316405320000004364955440046170274_" x="40" y="40" width="240" height="240"/>
		</defs>
		<clipPath id="SVGID_00000137092251993229240930000012788635371486732951_">
			<use xlink:href="#SVGID_00000150802157832316405320000004364955440046170274_"  style="overflow:visible;"/>
		</clipPath>
		<path style="clip-path:url(#SVGID_00000137092251993229240930000012788635371486732951_);fill:#52658B;" d="M235.1,140.6
			c3.8-7.9,5.9-16.4,5.9-25.2C241,73.8,195.9,40,140.5,40S40,73.8,40,115.4c0,12.8,4.1,25,12.3,36.1l0,0L40,200.8l36.4-27.3l0,0
			c10.8,6.7,23.4,11.3,36.8,14.2c1.6-4.9,3.9-9.5,6.8-14c-13-2.3-25.3-6.6-35.6-13l-8.8-5.4l-10.7,8l3.7-14.9l-4.2-5.7
			c-6.2-8.5-9.4-17.7-9.4-27.3c0-33.2,38.3-60.3,85.4-60.3s85.4,27,85.4,60.3c0,7.5-2.2,14.7-5.8,21.4
			C225.2,137.7,230.3,138.9,235.1,140.6"/>
	</g>
</g>
<rect class="st2" width="320" height="320"/>
</svg>
