<?xml version="1.0" encoding="utf-8"?>
<!-- Generator: Adobe Illustrator 26.4.1, SVG Export Plug-In . SVG Version: 6.00 Build 0)  -->
<svg version="1.1" id="Layer_1" xmlns="http://www.w3.org/2000/svg" xmlns:xlink="http://www.w3.org/1999/xlink" x="0px" y="0px"
	 viewBox="0 0 320 320" style="enable-background:new 0 0 320 320;" xml:space="preserve">
<style type="text/css">
	.st0{clip-path:url(#SVGID_00000157308179600470936160000018423716749951138697_);fill:#4C6586;}
	.st1{fill:none;}
</style>
<g>
	<g>
		<defs>
			<rect id="SVGID_1_" x="70" y="40" width="180" height="240"/>
		</defs>
		<clipPath id="SVGID_00000053515278430369046750000006721650098954969218_">
			<use xlink:href="#SVGID_1_"  style="overflow:visible;"/>
		</clipPath>
		<path style="clip-path:url(#SVGID_00000053515278430369046750000006721650098954969218_);fill:#4C6586;" d="M185,198.5
			c2-3.4,3-7.5,3-12.2c0-4.4-0.8-8.1-2.3-11.2c-1.6-3-3.6-5.5-6.2-7.4c-2.6-1.9-5.6-3.2-9.1-4c-3.4-0.8-7-1.2-10.8-1.2
			c-1.5,0-3.1,0.1-4.8,0.2c-1.7,0.1-3.3,0.4-4.9,0.8l0.8-19.2h33.5v-11.9h-49l-0.8,43.2c6.1-1.8,11.7-2.6,16.9-2.6
			c2.6,0,5,0.2,7.3,0.7c2.3,0.4,4.3,1.2,6,2.2s3.1,2.4,4.1,4.1c1,1.7,1.6,3.9,1.6,6.5c0,2.8-0.5,5.1-1.6,7c-1,1.9-2.4,3.4-4.1,4.5
			c-1.7,1.1-3.7,1.9-6.1,2.5c-2.3,0.5-4.8,0.8-7.4,0.8c-3,0-6.1-0.3-9.2-0.8c-3.1-0.5-6.1-1.3-8.9-2.5l-0.7,12.6
			c3.4,1.1,6.9,1.9,10.7,2.4s7.4,0.7,11,0.7c4.2,0,8.3-0.6,12.4-1.7c4.1-1.1,7.7-2.8,11-5C180.4,204.7,183,201.9,185,198.5 M235,215
			h-50v50H85V100h150V215z M250,230V80V45c0-2.8-2.2-5-5-5H75c-2.8,0-5,2.2-5,5v35v15v185h130L250,230z"/>
	</g>
</g>
<rect class="st1" width="320" height="320"/>
</svg>
