<?xml version="1.0" encoding="utf-8"?>
<!-- Generator: Adobe Illustrator 26.5.0, SVG Export Plug-In . SVG Version: 6.00 Build 0)  -->
<svg version="1.1" id="Layer_1" xmlns="http://www.w3.org/2000/svg" xmlns:xlink="http://www.w3.org/1999/xlink" x="0px" y="0px"
	 viewBox="0 0 320 320" style="enable-background:new 0 0 320 320;" xml:space="preserve">
<style type="text/css">
	.st0{clip-path:url(#SVGID_00000018210546294447802560000012598345748053274496_);fill:#4C6586;}
	.st1{clip-path:url(#SVGID_00000183957616314823564460000009315862746998804610_);fill:#4C6586;}
	.st2{fill:#4C6586;}
	.st3{fill:none;}
</style>
<g>
	<g>
		<defs>
			<rect id="SVGID_1_" x="40" y="30" width="250" height="250"/>
		</defs>
		<clipPath id="SVGID_00000088105588229884834740000003168275001431969429_">
			<use xlink:href="#SVGID_1_"  style="overflow:visible;"/>
		</clipPath>
		<path style="clip-path:url(#SVGID_00000088105588229884834740000003168275001431969429_);fill:#4C6586;" d="M165,222.5
			c0-6.9,5.6-12.5,12.5-12.5s12.5,5.6,12.5,12.5s-5.6,12.5-12.5,12.5S165,229.4,165,222.5 M188.8,40h-42.5c-3.5,0-6.2,3.4-6.2,7.5
			v225c0,4.1,2.8,7.5,6.2,7.5h62.5c3.5,0,6.2-3.4,6.2-7.5V140c-5.4-2.3-10.4-5.2-15-8.8V190h-45V70h20.8
			C177.5,58.8,182.1,48.5,188.8,40"/>
	</g>
	<g>
		<defs>
			<rect id="SVGID_00000046313360560922402900000010038105880652456894_" x="40" y="30" width="250" height="250"/>
		</defs>
		<clipPath id="SVGID_00000005252422207897986560000009346866929514978995_">
			<use xlink:href="#SVGID_00000046313360560922402900000010038105880652456894_"  style="overflow:visible;"/>
		</clipPath>
		<path style="clip-path:url(#SVGID_00000005252422207897986560000009346866929514978995_);fill:#4C6586;" d="M276.1,75.7
			c0,10.7-21.4,32.1-21.4,21.4c0-21.4-21.4-21.4-21.4-32.1s10.7,0,21.4-10.7C262.3,46.8,276.1,65,276.1,75.7 M225.5,79.4
			c-0.9,11.2-0.4,13-3.9,19c-6.1,10.6-6.6,8.9-8.4,2.2c-2.2-8.4-11.3-19.8-6.7-25.1C211.1,70.3,226.3,69.6,225.5,79.4 M290,80
			c0-27.6-22.4-50-50-50s-50,22.4-50,50s22.4,50,50,50S290,107.6,290,80"/>
	</g>
</g>
<polygon class="st2" points="107.6,270 107.6,257.6 68.2,257.6 106.6,206.9 106.6,193.3 50.3,193.3 50.3,205.7 88,205.7 49,256.6 
	49,270 "/>
<rect x="63.1" y="151.6" class="st2" width="30.5" height="12.6"/>
<path class="st2" d="M78,60.2l12,33.2H65.7L78,60.2z M67.7,50L40,122.6h15.9l6.5-18.2h30.9l6.4,18.2h16.8L88.8,50H67.7z"/>
<rect class="st3" width="320" height="320"/>
</svg>
