<?xml version="1.0" encoding="utf-8"?>
<!-- Generator: Adobe Illustrator 26.5.0, SVG Export Plug-In . SVG Version: 6.00 Build 0)  -->
<svg version="1.1" id="Layer_1" xmlns="http://www.w3.org/2000/svg" xmlns:xlink="http://www.w3.org/1999/xlink" x="0px" y="0px"
	 viewBox="0 0 320 320" style="enable-background:new 0 0 320 320;" xml:space="preserve">
<style type="text/css">
	.st0{fill:#4C6586;}
	.st1{clip-path:url(#SVGID_00000135682506310085977210000008916008470363063709_);}
</style>
<path class="st0" d="M13,87l74-74h220v220l-74,74H13V87z M0,0v320h320V0H0z"/>
<g>
	<defs>
		<rect id="SVGID_1_" width="320" height="320"/>
	</defs>
	<clipPath id="SVGID_00000012461161955827724220000011008153733206360464_">
		<use xlink:href="#SVGID_1_"  style="overflow:visible;"/>
	</clipPath>
	<g style="clip-path:url(#SVGID_00000012461161955827724220000011008153733206360464_);">
		<path class="st0" d="M140,78.6L140,78.6z M132.1,105.7L132.1,105.7z M121.4,215.6c4.3,0,9.1,1.9,14,6.8
			c5.9,5.9,21.1,22.6,21.8,23.3c0.2,0.2,0.3,0.4,0.5,0.6c3.6,4.8,4,5.3,16.6-3.7l0.4-0.2c9.1-6.6,12.4-16.3,12.3-19.6
			c-2.3-0.8-4.6-1.5-6.9-2c-6.1-1.5-13.6-3.3-18.8-8.4c-2.3-2.3-5-6.4-5-13.2c0-10.7,6.9-24.2,13.3-30.6c6.9-6.9,18.3-15.2,37.2-7.4
			c12.8,5.2,14.4,16.3,15.6,24.4c0.6,4,1.2,7.7,2.7,10.8c2.1-1.1,5.9-4.5,8.4-7.9c0.2-0.3,0.5-0.6,0.7-0.9
			c4.6-4.5,16.5-16.3,21.9-22.4c-2.9-3.8-12-10.2-15.7-12.8c-2.2-1.5-4-2.9-5.5-4c-10.8-8.4-18.6-21.5-11.5-31.7
			c5.4-7.8,11.6-9.7,16.5-11.2c3.6-1.1,6.2-1.9,9.1-5c0.3-0.6,0.5-1.2,0.3-1.9c-0.2-3.2-2.8-8.6-9.5-14c-8.5-6.8-16.7-6.6-18.4-5.3
			c-0.7,2.3-1.3,4.7-1.6,7.1c-1.6,8.6-3.7,19.3-12.2,22.8c-5.1,2-10.8,0.8-17-3.6c-0.6-0.4-1.1-0.9-1.5-1.4c0,0-11.2-14.1-17.4-22
			l-1.1-1.4c-4.1-5.3-7-8.7-10.4-9.8L145,84.1c-0.2,0.1-0.3,0.3-0.5,0.4c-3.5,2.7-12.1,11.1-12.5,19.1c1.4,0.5,3.5,1.1,5,1.5
			c6.1,1.7,13.7,3.7,18.5,9.1c4.2,4.9,6.3,11.3,5.6,17.8c-0.8,9.2-6,18.2-14.8,25.4c-15.8,12.8-36,11.6-44.2,2.5
			c-3.5-3.8-4.8-9.4-6.1-15.2c-1-4.4-2.4-10.4-4.5-12.1c0,0-0.1-0.1-0.2-0.1c-0.4-0.1-2.8-0.2-10.1,7.2l-0.6,0.6
			c-2.7,2.7-12.6,14.6-16.9,22.1c2.2,3,10,8.8,17.6,12.8c0.3,0.1,0.5,0.3,0.8,0.5c5.4,3.8,18,13.5,19.5,22.9
			c0.5,3.1-0.2,6.3-2.1,8.9c-3.9,5.2-9.7,7.4-14.8,9.3c-3.6,1.4-7,2.7-9.1,4.7c-2.8,2.8-0.9,14.9,3.3,21.2
			c2.2,3.4,15.3,5.1,20.5,1.9c4.8-3,5.4-6.5,6-12.1c0.4-3.9,0.8-8.3,4.2-11.7C112.9,217.5,117,215.7,121.4,215.6 M161.7,264.7
			c-5.9,0-11.2-3.1-15.9-9.1c-2-2.1-15.8-17.3-21.1-22.6c-2.2-2.2-3.3-2.4-3.4-2.4s-0.2,0.1-0.4,0.3c-0.2,0.7-0.3,2-0.4,3
			c-0.6,6.1-1.7,16.3-13.1,23.3c-11.1,6.8-33.3,4.9-40.8-6.4c-5.6-8.4-12-29.5-1.5-40.1c4.3-4.3,9.7-6.4,14.4-8.2
			c2.3-0.8,4.6-1.8,6.7-3.1c-1.9-2.8-7.1-7.7-12.3-11.5c-4.5-2.4-8.8-5.1-12.9-8c-11.2-8.3-15.1-16.1-11.4-23.2
			c4.5-8.7,16.5-23.3,20.4-27.2l0.5-0.5c4.4-4.4,17.8-18,30.1-8.4c6.3,4.9,8.2,13.2,9.9,20.5c0.7,2.9,1.7,7.4,2.6,8.5
			c2,2.2,13.3,4.3,23.7-4.1c5.5-4.4,8.9-9.9,9.3-14.9c0.3-2.4-0.4-4.7-1.9-6.6c-1.8-2.1-7.3-3.5-11.2-4.6c-6.9-1.9-14.8-4-15.9-11.8
			c-2.5-18.1,14.8-32.6,18-35l17.2-15.5c1.4-1.2,3.2-1.9,5-1.9c12.2,0,18.8,8.5,24.7,15.9l1.1,1.4c5.3,6.7,14.1,17.8,16.7,21
			c0.6,0.4,1.3,0.7,2,1c1.3-2.2,2.5-8.3,3.1-11.3c1.1-5.7,2-10.6,4.8-13.9c7.9-9.3,25.6-7.8,39.4,3.2c9,7.4,14.6,16.4,15.1,24.8
			c0.5,4.9-1.2,9.7-4.5,13.3c-5.6,5.9-11.1,7.6-15.5,9c-3.9,1.2-6.1,1.9-8.6,5.5c-0.4,1.2,2.1,6.4,8.4,11.3c1.2,1,3,2.2,5,3.6
			c12.2,8.6,21.6,15.9,22.7,24c0.4,3.1-0.4,6.3-2.4,8.7c-5.2,6.4-21.4,22.3-24.2,25.1c-3,3.9-12.1,14.4-21.8,13.7
			c-2.7-0.2-7.7-1.4-11.1-7.6c-3.1-5.5-3.9-11.2-4.7-16.2c-1.2-8.1-2-10.9-6.5-12.8c-9.9-4.1-15.1-1.5-20.8,4.2
			c-4,4-8.9,13.8-8.9,19.9c-0.1,0.9,0.1,1.8,0.6,2.6c2.2,2.2,7.2,3.4,11.7,4.4c6.9,1.6,14.7,3.5,17.4,10.6c4,10.8-4,28-17.6,37.7
			l-0.4,0.2c-6.2,4.5-11.6,8.3-17.4,9.5C164.2,264.5,162.9,264.7,161.7,264.7"/>
	</g>
</g>
</svg>
