<?xml version="1.0" encoding="UTF-8"?><svg id="Ebene_2" xmlns="http://www.w3.org/2000/svg" xmlns:xlink="http://www.w3.org/1999/xlink" viewBox="0 0 320 320"><defs><style>.cls-1{fill:none;}.cls-2{clip-path:url(#clippath);}.cls-3{fill:#e8e8e8;}.cls-4{fill:#c6c6c6;}</style><clipPath id="clippath"><rect class="cls-1" x="122.81" y="103.61" width="74.39" height="117.78"/></clipPath></defs><g id="Layer_1"><rect class="cls-3" width="320" height="320"/><g class="cls-2"><path class="cls-4" d="m197.19,196.6v-90.92c0-1.16-.91-2.07-2.07-2.07h-49.59c-1.16,0-2.73.66-3.51,1.45l-17.77,17.77c-.83.83-1.45,2.4-1.45,3.51v70.26c0,1.16.91,2.07,2.07,2.07h20.66v-6.2h-16.53v-59.92h22.73v-22.73h39.26v82.65h-16.53v6.2h20.66c1.16,0,2.07-.91,2.07-2.07"/></g><polygon class="cls-4" points="151.73 180.06 151.73 204.86 139.34 204.86 160 221.39 180.66 204.86 168.27 204.86 168.27 180.06 151.73 180.06"/></g></svg>