<?xml version="1.0" encoding="utf-8"?>
<!-- Generator: Adobe Illustrator 24.2.3, SVG Export Plug-In . SVG Version: 6.00 Build 0)  -->
<svg version="1.1" id="Layer_1" xmlns="http://www.w3.org/2000/svg" xmlns:xlink="http://www.w3.org/1999/xlink" x="0px" y="0px"
	 viewBox="0 0 32 21.3" style="enable-background:new 0 0 32 21.3;" xml:space="preserve">
<style type="text/css">
	.st0{fill:url(#SVGID_1_);}
	.st1{fill:#84AAA6;}
	.st2{fill:#86ACA8;}
	.st3{fill:#83A9A5;}
	.st4{fill:#7DA39F;}
	.st5{fill:#7EA4A0;}
	.st6{fill:#81A7A3;}
	.st7{fill:#6A918C;}
	.st8{fill:#729893;}
	.st9{fill:#7AA09B;}
	.st10{fill:#7CA29E;}
	.st11{fill:#789E9A;}
	.st12{fill:#769C98;}
	.st13{fill:#7AA09C;}
	.st14{fill:#799F9B;}
	.st15{fill:#658C87;}
	.st16{fill:#69908B;}
	.st17{fill:#749A96;}
	.st18{fill:#739A95;}
	.st19{fill:#739995;}
	.st20{fill:#6D938F;}
	.st21{fill:#759C97;}
</style>
<linearGradient id="SVGID_1_" gradientUnits="userSpaceOnUse" x1="0" y1="10.6498" x2="32" y2="10.6498">
	<stop  offset="8.357052e-04" style="stop-color:#86ACA8"/>
	<stop  offset="1" style="stop-color:#658C87"/>
</linearGradient>
<rect class="st0" width="32" height="21.3"/>
<g>
	<polyline class="st1" points="0,7.1 8,7.1 8,0 	"/>
	<polyline class="st2" points="8,0 0,0 0,7.1 	"/>
	<g>
		<polyline class="st1" points="8,7.1 16,7.1 16,0 		"/>
	</g>
	<polyline class="st3" points="16,0 8,0 8,7.1 	"/>
	<polyline class="st4" points="16,0 16,7.1 24,7.1 	"/>
	<polyline class="st5" points="24,7.1 24,0 16,0 	"/>
	<polyline class="st6" points="0,14.2 8,14.2 8,7.1 	"/>
	<polyline class="st1" points="8,7.1 0,7.1 0,14.2 	"/>
	<polyline class="st7" points="24,14.2 32,14.2 32,7.1 	"/>
	<polyline class="st8" points="32,7.1 24,7.1 24,14.2 	"/>
	<polyline class="st9" points="8,7.1 16,7.1 16,14.2 	"/>
	<polyline class="st10" points="16,14.2 8,14.2 8,7.1 	"/>
	<polyline class="st11" points="16,7.1 24,7.1 24,14.2 	"/>
	<polyline class="st12" points="24,14.2 16,14.2 16,7.1 	"/>
	<polyline class="st13" points="0,14.2 8,14.2 8,21.3 	"/>
	<polyline class="st14" points="8,21.3 0,21.3 0,14.2 	"/>
	<polyline class="st15" points="24,21.3 32,21.3 32,14.2 	"/>
	<polyline class="st16" points="32,14.2 24,14.2 24,21.3 	"/>
	<polyline class="st17" points="8,21.3 8,14.2 16,14.2 	"/>
	<polyline class="st18" points="16,14.2 16,21.3 8,21.3 	"/>
	<polyline class="st19" points="16,21.3 16,14.2 24,14.2 	"/>
	<polyline class="st20" points="24,14.2 24,21.3 16,21.3 	"/>
	<polyline class="st21" points="32,7.1 32,0 24,0 	"/>
	<polyline class="st17" points="24,0 24,7.1 32,7.1 	"/>
</g>
</svg>
