<?xml version="1.0" encoding="utf-8"?>
<!-- Generator: Adobe Illustrator 23.0.3, SVG Export Plug-In . SVG Version: 6.00 Build 0)  -->
<svg version="1.1" id="Ebene_1" xmlns="http://www.w3.org/2000/svg" xmlns:xlink="http://www.w3.org/1999/xlink" x="0px" y="0px"
	 width="32px" height="32px" viewBox="0 0 32 32" style="enable-background:new 0 0 32 32;" xml:space="preserve">
<style type="text/css">
	.st0{fill:#666666;}
	.st1{fill:#FFFFFF;}
</style>
<g>
	<circle class="st0" cx="16" cy="16" r="15"/>
</g>
<g>
	<path class="st1" d="M17.2,20.6h-2.7v-1.9c0-0.6,0.1-1.1,0.4-1.5c0.3-0.4,0.8-0.9,1.7-1.5c1.3-1,2-2.1,2-3.2c0-0.8-0.3-1.5-0.8-2
		c-0.5-0.5-1.2-0.7-2-0.7c-1.9,0-3,1.3-3.3,3.9l-3-0.5c0.2-2,0.9-3.5,2.2-4.6c1.3-1.1,2.8-1.7,4.5-1.7c1.8,0,3.2,0.5,4.3,1.6
		s1.7,2.3,1.7,3.9c0,0.8-0.2,1.5-0.5,2.2c-0.3,0.7-0.7,1.2-1.1,1.6c-0.4,0.4-1.3,1-2.6,2c-0.4,0.3-0.6,0.5-0.7,0.8
		C17.3,19.2,17.2,19.8,17.2,20.6z M17.8,22.6V26h-3.2v-3.4H17.8z"/>
</g>
</svg>
