<?xml version="1.0" encoding="UTF-8" standalone="no"?>
<!DOCTYPE svg PUBLIC "-//W3C//DTD SVG 1.1//EN"
 "http://www.w3.org/Graphics/SVG/1.1/DTD/svg11.dtd">
<!-- Generated by graphviz version 2.28.0 (20121121.1854)
 -->
<!-- Title: G Pages: 1 -->
<svg width="338pt" height="258pt"
 viewBox="0.00 0.00 338.00 258.00" xmlns="http://www.w3.org/2000/svg" xmlns:xlink="http://www.w3.org/1999/xlink">
<g id="graph1" class="graph" transform="scale(1 1) rotate(0) translate(4 254)">
<title>G</title>
<polygon fill="white" stroke="white" points="-4,5 -4,-254 335,-254 335,5 -4,5"/>
<g id="graph2" class="cluster"><title>cluster_global</title>
<polyline fill="none" stroke="gray" points="180,-8 310,-8 "/>
<path fill="none" stroke="gray" d="M310,-8C316,-8 322,-14 322,-20"/>
<polyline fill="none" stroke="gray" points="322,-20 322,-230 "/>
<path fill="none" stroke="gray" d="M322,-230C322,-236 316,-242 310,-242"/>
<polyline fill="none" stroke="gray" points="310,-242 180,-242 "/>
<path fill="none" stroke="gray" d="M180,-242C174,-242 168,-236 168,-230"/>
<polyline fill="none" stroke="gray" points="168,-230 168,-20 "/>
<path fill="none" stroke="gray" d="M168,-20C168,-14 174,-8 180,-8"/>
<text text-anchor="middle" x="245" y="-229.2" font-family="Times,serif" font-size="11.00" fill="gray">global</text>
</g>
<!-- \\PHPMailer -->
<g id="node2" class="node"><title>\\PHPMailer</title>
<a xlink:href="class.phpmailer.html" xlink:title="PHPMailer" target="_parent">
<polygon fill="none" stroke="black" points="283.5,-214 206.5,-214 206.5,-178 283.5,-178 283.5,-214"/>
<text text-anchor="middle" x="245" y="-193.2" font-family="Courier,monospace" font-size="11.00">PHPMailer</text>
</a>
</g>
<!-- \\phpmailerException -->
<g id="node3" class="node"><title>\\phpmailerException</title>
<a xlink:href="class.phpmailer.html" xlink:title="phpmailerException" target="_parent">
<polygon fill="none" stroke="black" points="314,-160 176,-160 176,-124 314,-124 314,-160"/>
<text text-anchor="middle" x="245" y="-139.2" font-family="Courier,monospace" font-size="11.00">phpmailerException</text>
</a>
</g>
<!-- \\Exception -->
<g id="node7" class="node"><title>\\Exception</title>
<ellipse fill="none" stroke="black" cx="52" cy="-142" rx="51.1914" ry="18"/>
<text text-anchor="middle" x="52" y="-138.3" font-family="Times,serif" font-size="14.00" fill="gray">\Exception</text>
</g>
<!-- \\phpmailerException&#45;&gt;\\Exception -->
<g id="edge3" class="edge"><title>\\phpmailerException&#45;&gt;\\Exception</title>
<path fill="none" stroke="black" d="M175.854,-142C155.509,-142 133.356,-142 113.534,-142"/>
<polygon fill="none" stroke="black" points="113.403,-138.5 103.403,-142 113.403,-145.5 113.403,-138.5"/>
</g>
<!-- \\POP3 -->
<g id="node4" class="node"><title>\\POP3</title>
<a xlink:href="class.pop3.html" xlink:title="POP3" target="_parent">
<polygon fill="none" stroke="black" points="272,-106 218,-106 218,-70 272,-70 272,-106"/>
<text text-anchor="middle" x="245" y="-85.2" font-family="Courier,monospace" font-size="11.00">POP3</text>
</a>
</g>
<!-- \\SMTP -->
<g id="node5" class="node"><title>\\SMTP</title>
<a xlink:href="class.smtp.html" xlink:title="SMTP" target="_parent">
<polygon fill="none" stroke="black" points="272,-52 218,-52 218,-16 272,-16 272,-52"/>
<text text-anchor="middle" x="245" y="-31.2" font-family="Courier,monospace" font-size="11.00">SMTP</text>
</a>
</g>
</g>
</svg>
