<svg id="cat-pg" xmlns="http://www.w3.org/2000/svg" width="32" height="32" viewBox="0 0 32 32"><defs><style>.cls-1{fill:none;stroke:#000;stroke-linejoin:round;stroke-width:1.45px;}</style></defs><rect class="cls-1" x="5.8" y="25" width="2.8" height="3"/><rect class="cls-1" x="5.8" y="18.4" width="2.8" height="3"/><rect class="cls-1" x="5.8" y="12" width="2.8" height="3"/><rect class="cls-1" x="4" y="4" width="24" height="4"/><path class="cls-1" d="M20.8,18.8h0a2.3,2.3,0,0,1,0,3.4l-3.2,3.2a2.5,2.5,0,0,1-3.4,0h0a2.5,2.5,0,0,1,0-3.4l1.6-1.7"/><path class="cls-1" d="M18.4,21.2h0a2.5,2.5,0,0,1,0-3.4l3.2-3.3a2.5,2.5,0,0,1,3.4,0h0a2.3,2.3,0,0,1,0,3.4l-1.6,1.7"/></svg>