<?xml version="1.0" encoding="utf-8"?>
<!-- Generator: Adobe Illustrator 17.1.0, SVG Export Plug-In . SVG Version: 6.00 Build 0)  -->
<!DOCTYPE svg PUBLIC "-//W3C//DTD SVG 1.1 Basic//EN" "http://www.w3.org/Graphics/SVG/1.1/DTD/svg11-basic.dtd">
<svg version="1.1" baseProfile="basic" id="Layer_1"
	 xmlns="http://www.w3.org/2000/svg" xmlns:xlink="http://www.w3.org/1999/xlink" x="0px" y="0px" viewBox="0 0 32 32"
	 xml:space="preserve">
<g>
	<rect fill="none" width="32" height="32"/>
	<g>
		<g>
			<g>
				<defs>
					<rect id="SVGID_1_" width="32" height="32"/>
				</defs>
				<clipPath id="SVGID_2_">
					<use xlink:href="#SVGID_1_"  overflow="visible"/>
				</clipPath>
				<path clip-path="url(#SVGID_2_)" fill="#4C6486" d="M6,24h20V10H6V24z M27,26H5c-0.6,0-1-0.4-1-1V6h7v2h16c0.6,0,1,0.4,1,1v16
					C28,25.6,27.6,26,27,26"/>
			</g>
		</g>
	</g>
	<rect x="6" y="10" fill="#FFFFFF" width="20" height="14"/>
</g>
<path id="flowRoot3192" fill="#4C6486" d="M8.1,12.7l4.8,4.3l-4.8,4.3V12.7z M23,11.9l-5.9,5.3c-0.3,0.3-0.7,0.4-1.1,0.4
	c-0.5,0-0.8-0.1-1.2-0.4L9,11.9H23z M24,21.3L19.2,17l4.8-4.3V21.3z M9,22.1l4.8-4.3L14,18c0.6,0.5,1.2,0.7,2,0.7
	c0.8,0,1.5-0.2,2-0.7l0.2-0.2l4.8,4.3H9z M6.8,23.3h18.5V10.7H6.8V23.3z"/>
</svg>
