<?xml version="1.0" encoding="utf-8"?>
<!-- Generator: Adobe Illustrator 20.0.0, SVG Export Plug-In . SVG Version: 6.00 Build 0)  -->
<svg version="1.1" id="Layer_1" xmlns="http://www.w3.org/2000/svg" xmlns:xlink="http://www.w3.org/1999/xlink" x="0px" y="0px"
	 viewBox="0 0 32 32" enable-background="new 0 0 32 32" xml:space="preserve">
<g>
	<defs>
		<path id="SVGID_1_" d="M17.1,1.9c-0.7,0-1.6,0.1-2.5,0.4C13.7,2.6,9,3,6.7,8.4C6,11,6.6,12.1,7.2,14.8c0.8,3.2,4.3,5.3,4.6,5.3
			l-2,9.8l6-3.8l6,3.8l-2.1-10c0.4-0.1,4.3-2,5.3-4.9c1-4,0-8-2.1-10.1C21.4,3.4,19.9,1.9,17.1,1.9L17.1,1.9z"/>
	</defs>
	<clipPath id="SVGID_2_">
		<use xlink:href="#SVGID_1_"  overflow="visible"/>
	</clipPath>
	
		<linearGradient id="SVGID_3_" gradientUnits="userSpaceOnUse" x1="-279.4066" y1="436.2814" x2="-278.4066" y2="436.2814" gradientTransform="matrix(18.7424 5.022 5.022 -18.7424 3051.1826 9593.1689)">
		<stop  offset="0" style="stop-color:#002555"/>
		<stop  offset="1.983430e-02" style="stop-color:#002555"/>
		<stop  offset="1" style="stop-color:#0F4186"/>
	</linearGradient>
	<polygon clip-path="url(#SVGID_2_)" fill="url(#SVGID_3_)" points="7.3,-3.1 33,3.7 24.7,34.9 -1,28 	"/>
</g>
<g>
	<defs>
		<rect id="SVGID_4_" x="6.4" y="1.8" width="19" height="28"/>
	</defs>
	<clipPath id="SVGID_5_">
		<use xlink:href="#SVGID_4_"  overflow="visible"/>
	</clipPath>
	<path clip-path="url(#SVGID_5_)" fill="#FFFFFF" d="M16,17.9c3.6,0,6.6-3,6.6-6.6s-3-6.6-6.6-6.6s-6.6,3-6.6,6.6S12.4,17.9,16,17.9
		"/>
</g>
<g>
	<defs>
		<path id="SVGID_6_" d="M10.5,11.3c0,3,2.5,5.5,5.5,5.5c3,0,5.5-2.5,5.5-5.5c0-3-2.5-5.5-5.5-5.5C13,5.8,10.5,8.3,10.5,11.3"/>
	</defs>
	<clipPath id="SVGID_7_">
		<use xlink:href="#SVGID_6_"  overflow="visible"/>
	</clipPath>
	
		<linearGradient id="SVGID_8_" gradientUnits="userSpaceOnUse" x1="-262.1479" y1="448.3306" x2="-261.1479" y2="448.3306" gradientTransform="matrix(11 0 0 -11 2894.1265 4942.9805)">
		<stop  offset="0" style="stop-color:#002555"/>
		<stop  offset="1.983430e-02" style="stop-color:#002555"/>
		<stop  offset="1" style="stop-color:#0F4186"/>
	</linearGradient>
	<rect x="10.5" y="5.8" clip-path="url(#SVGID_7_)" fill="url(#SVGID_8_)" width="11" height="11"/>
</g>
</svg>
