<?xml version="1.0" encoding="utf-8"?>
<!-- Generator: Adobe Illustrator 20.0.0, SVG Export Plug-In . SVG Version: 6.00 Build 0)  -->
<svg version="1.1" id="Layer_1" xmlns="http://www.w3.org/2000/svg" xmlns:xlink="http://www.w3.org/1999/xlink" x="0px" y="0px"
	 viewBox="0 0 32 32" enable-background="new 0 0 32 32" xml:space="preserve">
<g>
	<defs>
		<path id="SVGID_1_" d="M4.5,4C4,4,4,4.5,4,4.5v21C4,26,4.5,26,4.5,26h23c0.5,0,0.5-0.5,0.5-0.5v-21C28,4,27.5,4,27.5,4H4.5z"/>
	</defs>
	<clipPath id="SVGID_2_">
		<use xlink:href="#SVGID_1_"  overflow="visible"/>
	</clipPath>
	
		<linearGradient id="SVGID_3_" gradientUnits="userSpaceOnUse" x1="-276.7917" y1="397.4878" x2="-275.7917" y2="397.4878" gradientTransform="matrix(24 0 0 24 6647 -9524.709)">
		<stop  offset="0" style="stop-color:#4C6585"/>
		<stop  offset="1.983430e-02" style="stop-color:#4C6585"/>
		<stop  offset="1" style="stop-color:#5A789F"/>
	</linearGradient>
	<rect x="4" y="4" clip-path="url(#SVGID_2_)" fill="url(#SVGID_3_)" width="24" height="22"/>
</g>
<rect x="6" y="6" fill="#FFFFFF" width="20" height="18"/>
<g>
	<defs>
		<rect id="SVGID_4_" x="11.5" y="8" width="9" height="2"/>
	</defs>
	<clipPath id="SVGID_5_">
		<use xlink:href="#SVGID_4_"  overflow="visible"/>
	</clipPath>
	
		<linearGradient id="SVGID_6_" gradientUnits="userSpaceOnUse" x1="-256.4445" y1="455.6991" x2="-255.4444" y2="455.6991" gradientTransform="matrix(9 0 0 -9 2319.5 4110.291)">
		<stop  offset="0" style="stop-color:#4C6585"/>
		<stop  offset="1.983430e-02" style="stop-color:#4C6585"/>
		<stop  offset="1" style="stop-color:#5A789F"/>
	</linearGradient>
	<rect x="11.5" y="8" clip-path="url(#SVGID_5_)" fill="url(#SVGID_6_)" width="9" height="2"/>
</g>
<g>
	<defs>
		<rect id="SVGID_7_" x="8.5" y="12" width="15" height="2"/>
	</defs>
	<clipPath id="SVGID_8_">
		<use xlink:href="#SVGID_7_"  overflow="visible"/>
	</clipPath>
	
		<linearGradient id="SVGID_9_" gradientUnits="userSpaceOnUse" x1="-269.4667" y1="438.6195" x2="-268.4667" y2="438.6195" gradientTransform="matrix(15 0 0 -15 4050.5 6592.291)">
		<stop  offset="0" style="stop-color:#4C6585"/>
		<stop  offset="1.983430e-02" style="stop-color:#4C6585"/>
		<stop  offset="1" style="stop-color:#5A789F"/>
	</linearGradient>
	<rect x="8.5" y="12" clip-path="url(#SVGID_8_)" fill="url(#SVGID_9_)" width="15" height="2"/>
</g>
<g>
	<defs>
		<path id="SVGID_10_" d="M16.4,20.2c0-1.8,1.5-3.3,3.3-3.3c1.8,0,3.3,1.5,3.3,3.3c0,1.8-1.5,3.3-3.3,3.3
			C17.9,23.5,16.4,22,16.4,20.2 M19,15.6c-0.5,0.2-1.6,0.2-2.3,1.1c-0.5,0.7-1.3,0.7-1.6,2c-0.2,0.7-0.2,1.3,0,1.9
			c0.2,0.6,0.3,0.7,0.3,1.3c0,0.6,0,0.9,0.4,1.5c0.2,0.3,0.4,0.5,0.7,0.7l-1.7,4.6l1.7-0.3l1.1,1.4l1.7-4.8c0.2,0.1,0.4,0.1,0.7,0
			c0.1,0,0.1,0,0.2,0l1.7,4.8l1.1-1.4l1.7,0.3l-1.7-4.7c0.2-0.1,0.4-0.4,0.7-0.7c0.5-0.7,0.6-1.2,0.6-2s-0.6-1.8-0.6-2
			c0-0.2,0.1-0.7,0-1.1c-0.1-0.3-0.2-0.7-0.5-1.1c-0.3-0.4-1.1-1.4-2.1-1.6c-0.4-0.1-0.7-0.1-1-0.1C19.5,15.2,19.3,15.5,19,15.6"/>
	</defs>
	<clipPath id="SVGID_11_">
		<use xlink:href="#SVGID_10_"  overflow="visible"/>
	</clipPath>
	
		<linearGradient id="SVGID_12_" gradientUnits="userSpaceOnUse" x1="-273.5535" y1="451.1191" x2="-272.5535" y2="451.1191" gradientTransform="matrix(11.4945 3.0799 3.0799 -11.4945 1769.3394 6048.9766)">
		<stop  offset="0" style="stop-color:#FF8D2C"/>
		<stop  offset="1.000000e-02" style="stop-color:#FF8D2C"/>
		<stop  offset="1" style="stop-color:#E56E1E"/>
	</linearGradient>
	<polygon clip-path="url(#SVGID_11_)" fill="url(#SVGID_12_)" points="15.4,12.7 28.3,16.2 24,32.2 11.1,28.7 	"/>
</g>
<g>
	<defs>
		<path id="SVGID_13_" d="M17.2,20.2c0,1.4,1.1,2.5,2.5,2.5c1.4,0,2.5-1.1,2.5-2.5c0-1.4-1.1-2.5-2.5-2.5
			C18.3,17.7,17.2,18.8,17.2,20.2"/>
	</defs>
	<clipPath id="SVGID_14_">
		<use xlink:href="#SVGID_13_"  overflow="visible"/>
	</clipPath>
	
		<linearGradient id="SVGID_15_" gradientUnits="userSpaceOnUse" x1="-230.4001" y1="490.1584" x2="-229.4001" y2="490.1584" gradientTransform="matrix(5 0 0 -5 1169.1903 2470.9448)">
		<stop  offset="0" style="stop-color:#FF8D2C"/>
		<stop  offset="1.000000e-02" style="stop-color:#FF8D2C"/>
		<stop  offset="1" style="stop-color:#E56E1E"/>
	</linearGradient>
	<rect x="17.2" y="17.7" clip-path="url(#SVGID_14_)" fill="url(#SVGID_15_)" width="5" height="5"/>
</g>
</svg>
