<?xml version="1.0" encoding="utf-8"?>
<!-- Generator: Adobe Illustrator 24.0.0, SVG Export Plug-In . SVG Version: 6.00 Build 0)  -->
<svg version="1.1" id="Ebene_1" xmlns="http://www.w3.org/2000/svg" xmlns:xlink="http://www.w3.org/1999/xlink" x="0px" y="0px"
	 width="108px" height="72px" viewBox="0 0 108 72" style="enable-background:new 0 0 108 72;" xml:space="preserve">
<style type="text/css">
	.st0{display:none;}
	.st1{display:inline;}
	.st2{clip-path:url(#SVGID_2_);fill:url(#rect3138_1_);}
	.st3{clip-path:url(#SVGID_4_);fill:url(#rect3161_1_);}
	.st4{fill:#777777;}
</style>
<g id="Layer_1" xmlns:cc="http://creativecommons.org/ns#" xmlns:dc="http://purl.org/dc/elements/1.1/" xmlns:inkscape="http://www.inkscape.org/namespaces/inkscape" xmlns:rdf="http://www.w3.org/1999/02/22-rdf-syntax-ns#" xmlns:sodipodi="http://sodipodi.sourceforge.net/DTD/sodipodi-0.dtd" xmlns:svg="http://www.w3.org/2000/svg" class="st0">
	
		<sodipodi:namedview  bordercolor="#666666" borderopacity="1" gridtolerance="10" guidetolerance="10" id="namedview3163" inkscape:current-layer="Layer_1" inkscape:cx="54" inkscape:cy="36" inkscape:pageopacity="0" inkscape:pageshadow="2" inkscape:window-height="798" inkscape:window-maximized="0" inkscape:window-width="942" inkscape:window-x="468" inkscape:window-y="99" inkscape:zoom="7.6805556" objecttolerance="10" pagecolor="#ffffff" showgrid="false">
		</sodipodi:namedview>
	<g id="g3117" class="st1">
		<g>
			<g>
				<defs>
					<polygon id="SVGID_1_" points="20.4,4.9 32.6,4.9 26.5,13.9 					"/>
				</defs>
				<clipPath id="SVGID_2_">
					<use xlink:href="#SVGID_1_"  style="overflow:visible;"/>
				</clipPath>
				
					<linearGradient id="rect3138_1_" gradientUnits="userSpaceOnUse" x1="-575.9109" y1="19.3423" x2="-574.9109" y2="19.3423" gradientTransform="matrix(12.2727 0 0 -12.2727 7088.3467 246.7822)">
					<stop  offset="0" style="stop-color:#505050"/>
					<stop  offset="7.292820e-03" style="stop-color:#505050"/>
					<stop  offset="0.3484" style="stop-color:#6A6A6A"/>
					<stop  offset="0.7462" style="stop-color:#828282"/>
					<stop  offset="0.9912" style="stop-color:#8B8B8B"/>
					<stop  offset="1" style="stop-color:#8B8B8B"/>
				</linearGradient>
				<rect id="rect3138" x="20.4" y="4.9" class="st2" width="12.3" height="9"/>
			</g>
		</g>
	</g>
	<g id="g3140" class="st1">
		<g>
			<g>
				<defs>
					<polygon id="SVGID_3_" points="4.7,3.5 13.7,9.7 4.7,15.8 					"/>
				</defs>
				<clipPath id="SVGID_4_">
					<use xlink:href="#SVGID_3_"  style="overflow:visible;"/>
				</clipPath>
				
					<linearGradient id="rect3161_1_" gradientUnits="userSpaceOnUse" x1="-557.3333" y1="1.697048e-02" x2="-556.3333" y2="1.697048e-02" gradientTransform="matrix(9 0 0 -9 5020.748 9.8027)">
					<stop  offset="0" style="stop-color:#505050"/>
					<stop  offset="7.292820e-03" style="stop-color:#505050"/>
					<stop  offset="0.3484" style="stop-color:#6A6A6A"/>
					<stop  offset="0.7462" style="stop-color:#828282"/>
					<stop  offset="0.9912" style="stop-color:#8B8B8B"/>
					<stop  offset="1" style="stop-color:#8B8B8B"/>
				</linearGradient>
				<rect id="rect3161" x="4.7" y="3.5" class="st3" width="9" height="12.3"/>
			</g>
		</g>
	</g>
	<polyline class="st1" points="33.2,6.3 26.5,13.3 20.4,6.3 20.7,6 26.5,12.6 32.9,6 	"/>
	<polyline class="st1" points="4.6,15.6 11.3,9.9 4.6,3.4 4.9,3.1 11.9,9.9 4.9,16 	"/>
</g>
<g id="Ebene_2_1_">
	<g>
		<g>
			<g>
				<g>
					<polygon class="st4" points="29.5,14.4 23.8,7.9 24.1,7.6 29.5,13.8 35.5,7.6 35.8,7.9 					"/>
					<path class="st4" d="M29.5,14.7l-5.9-6.9l0.6-0.5l5.4,6.2l6-6.2l0.6,0.6L29.5,14.7z M25.7,9.8l3.8,4.3L25.7,9.8z M35.5,7.9
						l-0.2,0.2L35.5,7.9z"/>
				</g>
			</g>
		</g>
	</g>
	<g>
		<g>
			<g>
				<g>
					<polygon class="st4" points="8.4,16.9 8.1,16.6 14.4,11.2 8.1,5.2 8.4,4.9 14.9,11.3 					"/>
					<path class="st4" d="M8.4,17.2l-0.5-0.6l6.2-5.4l-6.2-6l0.6-0.6l6.8,6.6L8.4,17.2z M8.4,16.7l6.2-5.4L8.4,16.7z M8.4,5.2
						l0.2,0.2L8.4,5.2z"/>
				</g>
			</g>
		</g>
	</g>
</g>
</svg>
