<svg id="Ebene_2" data-name="Ebene 2" xmlns="http://www.w3.org/2000/svg" width="23.86" height="23.86" viewBox="0 0 23.86 23.86">
  <defs>
    <style>
      .cls-1 {
        fill: #ababab;
      }
    </style>
  </defs>
  <path class="cls-1" d="M23.86,11.43H19.91A8,8,0,0,0,12.53,4V0h-1.2V4A8,8,0,0,0,4,11.43H0v1.2H4a8,8,0,0,0,7.37,7.25v4h1.2v-4a8,8,0,0,0,7.37-7.25h4ZM12.53,18.68V15.86h-1.2v2.82a6.81,6.81,0,0,1-6.17-6H8v-1.2H5.15a6.79,6.79,0,0,1,6.18-6.24V8h1.2V5.19a6.78,6.78,0,0,1,6.18,6.24H15.86v1.2H18.7A6.8,6.8,0,0,1,12.53,18.68Z"/>
</svg>
