<?xml version="1.0" encoding="utf-8"?>
<!-- Generator: Adobe Illustrator 26.1.0, SVG Export Plug-In . SVG Version: 6.00 Build 0)  -->
<svg version="1.1" id="Layer_1" xmlns="http://www.w3.org/2000/svg" xmlns:xlink="http://www.w3.org/1999/xlink" x="0px" y="0px"
	 viewBox="0 0 320 320" style="enable-background:new 0 0 320 320;" xml:space="preserve">
<style type="text/css">
	.st0{clip-path:url(#SVGID_00000151503410266266587290000006438606316003983773_);fill:#52668C;}
</style>
<g>
	<defs>
		<rect id="SVGID_1_" x="50" y="40" width="220" height="240"/>
	</defs>
	<clipPath id="SVGID_00000021822661054027723850000004179757308261498258_">
		<use xlink:href="#SVGID_1_"  style="overflow:visible;"/>
	</clipPath>
	<path style="clip-path:url(#SVGID_00000021822661054027723850000004179757308261498258_);fill:#52668C;" d="M152.5,247.5v25
		c0,4.1,3.4,7.5,7.5,7.5s7.5-3.4,7.5-7.5v-25c0-4.1-3.4-7.5-7.5-7.5S152.5,243.4,152.5,247.5 M167.5,72.5v-25c0-4.1-3.4-7.5-7.5-7.5
		c-4.1,0-7.5,3.4-7.5,7.5v25c0,4.1,3.4,7.5,7.5,7.5C164.1,80,167.5,76.6,167.5,72.5 M190,160c0-16.6-13.4-30-30-30
		c-16.6,0-30,13.4-30,30s13.4,30,30,30C176.6,190,190,176.6,190,160 M212.5,160c0,29-23.5,52.5-52.5,52.5S107.5,189,107.5,160
		s23.5-52.5,52.5-52.5S212.5,131,212.5,160 M270,160c0-4.1-3.4-7.5-7.5-7.5h-32.9C225.9,117.4,196.1,90,160,90
		c-36.1,0-65.9,27.4-69.6,62.5H57.5c-4.1,0-7.5,3.4-7.5,7.5s3.4,7.5,7.5,7.5h32.9c3.7,35.1,33.5,62.5,69.6,62.5
		c36.1,0,65.9-27.4,69.6-62.5h32.9C266.6,167.5,270,164.1,270,160"/>
</g>
</svg>
