<?xml version="1.0" encoding="UTF-8" standalone="no"?>

<svg xmlns="http://www.w3.org/2000/svg"
     width="64" height="64"
     viewBox="0 0 64 64">
  <path id="Unnamed"
        fill="hotpink" stroke="hotpink" stroke-width="1" fill-rule="evenodd"
        d="M 14.75,31.00
           C 15.00,39.50 17.62,50.12 30.38,50.00
             43.12,49.88 51.62,38.25 51.38,32.00
             51.12,25.75 40.88,12.88 32.75,13.50
             24.62,14.12 14.50,22.50 14.75,31.00 Z
           M 40.25,25.62
           C 40.25,25.62 37.25,29.88 37.38,29.88
             37.50,29.88 28.12,23.25 28.62,32.25
             29.12,41.25 37.25,38.12 37.25,38.12
             37.25,38.12 40.25,40.62 40.25,40.62
             40.25,40.62 32.50,45.38 28.88,41.88
             25.25,38.38 24.00,39.62 23.12,32.88
             22.25,26.12 24.12,23.62 28.38,22.75
             32.62,21.88 40.25,25.62 40.25,25.62 Z
           M 6.38,31.12
           C 6.62,41.25 16.62,56.88 30.88,56.75
             45.12,56.62 58.62,43.00 58.38,31.12
             58.12,19.25 47.75,5.75 32.50,6.38
             17.25,7.00 6.12,21.00 6.38,31.12 Z" />
</svg>
